<?xml version="1.0" encoding="iso-8859-1"?>
<!-- Generator: Adobe Illustrator 16.0.0, SVG Export Plug-In . SVG Version: 6.00 Build 0)  -->
<!DOCTYPE svg PUBLIC "-//W3C//DTD SVG 1.1//EN" "http://www.w3.org/Graphics/SVG/1.1/DTD/svg11.dtd">
<svg version="1.1" id="Capa_1" xmlns="http://www.w3.org/2000/svg" xmlns:xlink="http://www.w3.org/1999/xlink" x="0px" y="0px"
	 width="612.02px" height="612.02px" viewBox="0 0 612.02 612.02" style="enable-background:new 0 0 612.02 612.02;"
	 xml:space="preserve">
<g>
	<g id="_x35__11_">
		<g>
			<path d="M596.96,269.674L342.381,15.094c-20.079-20.079-52.644-20.079-72.723,0c-20.079,20.079-20.079,52.644,0,72.723
				L487.852,306.01L269.658,524.202c-20.079,20.079-20.079,52.644,0,72.723s52.644,20.079,72.723,0L596.96,342.346
				C617.039,322.317,617.039,289.753,596.96,269.674z M290.858,254.258L88.744,41.238c-20.309-21.378-53.204-21.378-73.513,0
				s-20.309,56.058,0,77.462l165.371,174.289L15.231,467.278c-20.309,21.379-20.309,56.083,0,77.462s53.204,21.379,73.513,0
				L290.858,331.72C311.167,310.342,311.167,275.662,290.858,254.258z"/>
		</g>
	</g>
</g>
<g>
</g>
<g>
</g>
<g>
</g>
<g>
</g>
<g>
</g>
<g>
</g>
<g>
</g>
<g>
</g>
<g>
</g>
<g>
</g>
<g>
</g>
<g>
</g>
<g>
</g>
<g>
</g>
<g>
</g>
</svg>
