<?xml version="1.0" encoding="UTF-8" standalone="no"?>
<svg
   xmlns:dc="http://purl.org/dc/elements/1.1/"
   xmlns:cc="http://creativecommons.org/ns#"
   xmlns:rdf="http://www.w3.org/1999/02/22-rdf-syntax-ns#"
   xmlns:svg="http://www.w3.org/2000/svg"
   xmlns="http://www.w3.org/2000/svg"
   version="1.1"
   id="Capa_1"
   x="0px"
   y="0px"
   viewBox="0 0 512 512"
   style="enable-background:new 0 0 512 512;"
   xml:space="preserve"><metadata
   id="metadata57"><rdf:RDF><cc:Work
       rdf:about=""><dc:format>image/svg+xml</dc:format><dc:type
         rdf:resource="http://purl.org/dc/dcmitype/StillImage" /><dc:title></dc:title></cc:Work></rdf:RDF></metadata><defs
   id="defs55" />

   <path
     
        d="M 320,256 c 0,35.34622 -28.65378,64 -64,64 -35.34622,0 -64,-28.65378 -64,-64 0,-35.34622 28.65378,-64 64,-64 35.34622,0 64,28.65378 64,64 z 
           M 320,448 c 0,35.34622 -28.65378,64 -64,64 -35.34622,0 -64,-28.65378 -64,-64 0,-35.34622 28.65378,-64 64,-64 35.34622,0 64,28.65378 64,64 z 
           M 320,64 c 0,35.346224 -28.65378,64 -64,64 -35.34622,0 -64,-28.653776 -64,-64 0,-35.346224 28.65378,-64 64,-64 35.34622,0 64,28.653776 64,64 z"
    />

</svg>
