<?xml version="1.0" standalone="no"?>
<!DOCTYPE svg PUBLIC "-//W3C//DTD SVG 20010904//EN"
 "http://www.w3.org/TR/2001/REC-SVG-20010904/DTD/svg10.dtd">
<svg version="1.0" xmlns="http://www.w3.org/2000/svg"
 width="1280.000000pt" height="1185.000000pt" viewBox="0 0 1280.000000 1185.000000"
 preserveAspectRatio="xMidYMid meet">
<metadata>
Created by potrace 1.16, written by Peter Selinger 2001-2019
</metadata>
<g transform="translate(0.000000,1185.000000) scale(0.100000,-0.100000)"
fill="#000000" stroke="none">
<path d="M4464 11710 c-520 -35 -993 -221 -1414 -557 -109 -86 -336 -313 -424
-423 -240 -301 -420 -671 -500 -1030 -65 -295 -60 47 -64 -4105 -2 -2657 0
-3792 8 -3867 27 -269 141 -507 339 -706 249 -251 560 -361 933 -331 320 26
583 163 779 407 34 42 65 77 69 77 4 0 27 -25 50 -55 242 -309 609 -463 1024
-430 128 11 144 14 256 47 221 65 404 198 572 413 l27 35 17 -24 c150 -208
387 -373 624 -436 123 -32 294 -46 430 -35 134 11 189 22 303 60 196 66 356
180 506 360 30 36 57 65 61 65 4 0 34 -34 67 -75 195 -245 459 -383 782 -409
301 -24 572 47 787 207 246 182 404 425 471 722 16 69 17 274 20 2644 l3 2570
358 -356 c385 -383 452 -439 618 -508 244 -101 543 -118 802 -44 350 100 651
384 771 728 44 126 61 236 61 401 0 260 -60 457 -198 655 -26 38 -332 353
-747 770 l-702 705 -11 145 c-42 531 -222 991 -548 1400 -87 109 -315 337
-424 424 -425 339 -899 521 -1448 556 -183 12 -4085 11 -4258 0z m4263 -411
c506 -41 945 -242 1321 -603 178 -172 312 -340 420 -529 172 -302 271 -677
272 -1034 1 -66 5 -116 13 -129 7 -12 332 -338 724 -725 392 -388 733 -731
759 -764 55 -70 117 -195 139 -280 21 -79 22 -250 1 -338 -34 -144 -121 -292
-237 -403 -157 -148 -318 -216 -519 -217 -154 0 -298 49 -425 146 -33 25 -280
267 -550 536 l-490 491 -6 533 c-5 455 -8 538 -22 574 -40 105 -83 132 -204
125 -42 -3 -91 -45 -117 -102 l-21 -45 -5 -3400 c-5 -3170 -7 -3404 -23 -3462
-67 -247 -250 -451 -478 -534 -365 -133 -770 37 -944 396 -81 166 -75 -26 -75
2472 0 1302 -4 2244 -10 2267 -19 86 -74 129 -169 134 -107 6 -183 -29 -215
-98 -8 -18 -12 -618 -16 -2305 -5 -2150 -7 -2283 -23 -2339 -94 -308 -350
-529 -655 -566 -355 -43 -692 183 -814 545 l-23 70 -5 2285 c-5 2097 -6 2287
-21 2315 -36 65 -97 95 -192 95 -83 0 -143 -29 -171 -85 -21 -40 -21 -43 -26
-2320 -5 -2158 -6 -2283 -23 -2340 -112 -372 -464 -611 -833 -565 -181 23
-292 79 -435 220 -82 82 -102 109 -142 190 -90 183 -81 -76 -87 2495 -5 2097
-6 2282 -22 2310 -37 67 -93 95 -191 95 -83 0 -140 -29 -170 -84 l-22 -41 -5
-2285 -5 -2285 -23 -70 c-35 -102 -86 -194 -151 -271 -132 -157 -301 -250
-498 -274 -365 -46 -709 190 -815 557 l-23 78 0 3785 c0 3596 1 3791 18 3900
77 495 278 891 628 1241 376 376 835 594 1344 638 151 13 4106 13 4262 0z"/>
</g>
</svg>
