<?xml version="1.0" standalone="no"?>
<!DOCTYPE svg PUBLIC "-//W3C//DTD SVG 20010904//EN"
 "http://www.w3.org/TR/2001/REC-SVG-20010904/DTD/svg10.dtd">
<svg version="1.0" xmlns="http://www.w3.org/2000/svg"
 width="1280.000000pt" height="1359.000000pt" viewBox="0 0 1280.000000 1359.000000"
 preserveAspectRatio="xMidYMid meet">
<metadata>
Created by potrace 1.16, written by Peter Selinger 2001-2019
</metadata>
<g transform="translate(0.000000,1359.000000) scale(0.100000,-0.100000)"
fill="#000000" stroke="none">
<path d="M5149 13429 c-617 -40 -1163 -251 -1644 -634 -140 -111 -413 -388
-523 -530 -279 -361 -466 -761 -552 -1186 -58 -284 -54 -85 -57 -2754 -4
-2720 -8 -2543 62 -2753 63 -189 161 -347 309 -501 189 -196 410 -323 671
-384 125 -29 467 -31 593 -4 180 40 343 110 482 208 86 61 227 200 285 282 22
31 42 57 45 57 3 0 23 -26 45 -57 59 -84 209 -231 298 -291 160 -110 352 -184
551 -211 96 -14 318 -14 411 -1 218 31 434 124 597 255 l67 55 4 -1523 c3
-1684 -2 -1551 67 -1759 131 -393 471 -726 869 -852 124 -39 248 -56 417 -56
291 0 519 64 739 209 87 57 241 204 308 294 28 37 53 64 57 60 3 -4 29 -37 57
-73 71 -91 215 -227 300 -283 150 -99 311 -162 498 -192 121 -20 366 -19 486
1 311 53 587 216 798 470 175 212 271 433 300 697 8 66 11 859 11 2511 l0
2416 28 6 c15 3 53 13 85 20 465 116 835 494 960 982 l22 87 0 1385 0 1385
-22 140 c-102 639 -359 1150 -813 1618 -436 451 -947 736 -1528 852 -313 62
-146 59 -2767 61 -1314 1 -2447 -2 -2516 -7z m5044 -487 c599 -98 1065 -351
1490 -812 351 -380 557 -821 634 -1360 17 -115 18 -230 18 -1405 l0 -1280 -23
-80 c-57 -202 -174 -367 -346 -490 -59 -41 -182 -105 -233 -120 l-23 -6 -2
1513 -3 1513 -27 55 c-42 86 -102 120 -210 120 -129 0 -201 -65 -227 -205 -8
-42 -11 -1250 -11 -4196 0 -4538 4 -4214 -57 -4369 -79 -196 -250 -384 -438
-478 -250 -125 -576 -114 -814 26 -151 90 -310 276 -371 435 -64 164 -60 -27
-60 2775 0 1680 -3 2567 -10 2603 -21 112 -97 169 -227 169 -107 0 -171 -32
-211 -105 -16 -28 -17 -236 -22 -2640 l-5 -2610 -23 -80 c-45 -158 -118 -283
-236 -401 -175 -174 -371 -257 -616 -257 -237 -1 -417 71 -589 237 -130 126
-209 259 -253 428 l-21 83 -8 2570 c-5 1746 -11 2591 -18 2635 -14 86 -48 148
-100 185 -40 28 -49 30 -129 30 -104 0 -151 -19 -189 -76 -56 -85 -56 -83 -64
-759 -7 -661 -8 -680 -60 -869 -72 -268 -227 -465 -436 -557 -207 -92 -520
-91 -728 0 -217 97 -371 303 -444 596 -41 167 -44 212 -51 840 -5 527 -9 622
-22 663 -38 112 -94 158 -203 165 -84 6 -138 -11 -185 -58 -74 -74 -73 -67
-80 -760 -6 -567 -8 -624 -28 -730 -98 -533 -370 -786 -842 -783 -232 1 -400
61 -541 191 -189 175 -284 427 -309 826 -12 186 -12 4276 0 4472 40 655 281
1186 747 1646 149 147 247 229 395 328 353 235 759 371 1203 403 28 2 1135 3
2460 3 l2410 -2 138 -22z"/>
</g>
</svg>
