<?xml version="1.0" standalone="no"?>
<!DOCTYPE svg PUBLIC "-//W3C//DTD SVG 20010904//EN"
 "http://www.w3.org/TR/2001/REC-SVG-20010904/DTD/svg10.dtd">
<svg version="1.0" xmlns="http://www.w3.org/2000/svg"
 width="1280.000000pt" height="1359.000000pt" viewBox="0 0 1280.000000 1359.000000"
 preserveAspectRatio="xMidYMid meet">
<metadata>
Created by potrace 1.16, written by Peter Selinger 2001-2019
</metadata>
<g transform="translate(0.000000,1359.000000) scale(0.100000,-0.100000)"
fill="#000000" stroke="none">
<path d="M5149 13429 c-617 -40 -1163 -251 -1644 -634 -140 -111 -413 -388
-523 -530 -330 -426 -521 -887 -594 -1430 -10 -81 -13 -561 -13 -2535 l0
-2435 24 -95 c63 -251 151 -405 374 -657 142 -160 271 -256 435 -323 312 -127
740 -110 1217 48 66 22 128 43 138 47 16 7 17 -65 17 -1431 0 -1539 0 -1524
50 -1701 98 -350 393 -691 730 -847 180 -82 347 -116 576 -116 166 0 278 15
414 56 241 73 453 222 618 432 l66 85 15 -24 c35 -53 162 -197 213 -241 162
-138 325 -222 532 -275 139 -35 432 -44 588 -19 182 31 353 96 503 195 87 57
241 204 308 294 28 37 53 64 57 60 3 -4 29 -37 57 -73 71 -91 215 -227 300
-283 150 -99 311 -162 498 -192 121 -20 366 -19 486 1 311 53 587 216 798 470
175 212 271 433 300 697 8 66 11 859 11 2511 l0 2416 28 6 c15 3 53 13 85 20
465 116 835 494 960 982 l22 87 0 1385 0 1385 -22 140 c-102 639 -359 1150
-813 1618 -436 451 -947 736 -1528 852 -313 62 -146 59 -2767 61 -1314 1
-2447 -2 -2516 -7z m5044 -487 c599 -98 1065 -351 1490 -812 351 -380 557
-821 634 -1360 17 -115 18 -230 18 -1405 l0 -1280 -23 -80 c-57 -202 -174
-367 -346 -490 -59 -41 -182 -105 -233 -120 l-23 -6 -2 1513 -3 1513 -27 55
c-42 86 -102 120 -210 120 -129 0 -201 -65 -227 -205 -8 -42 -11 -1250 -11
-4196 0 -4538 4 -4214 -57 -4369 -79 -196 -250 -384 -438 -478 -250 -125 -576
-114 -814 26 -151 90 -310 276 -371 435 -64 164 -60 -27 -60 2775 0 1680 -3
2567 -10 2603 -21 112 -97 169 -227 169 -107 0 -171 -32 -211 -105 -16 -28
-17 -236 -22 -2640 l-5 -2610 -23 -80 c-45 -158 -118 -283 -236 -401 -175
-174 -371 -257 -616 -257 -237 -1 -417 71 -589 237 -130 125 -208 257 -253
428 l-23 83 -5 2605 c-5 2435 -6 2607 -22 2636 -42 77 -115 108 -238 102 -118
-5 -183 -51 -210 -147 -6 -24 -10 -909 -10 -2587 0 -2237 -2 -2562 -15 -2639
-48 -274 -230 -516 -480 -636 -127 -61 -218 -81 -370 -81 -149 0 -241 19 -362
77 -98 46 -154 85 -242 169 -121 117 -200 245 -247 401 -18 57 -19 185 -24
2675 -5 2484 -6 2617 -23 2655 -37 83 -93 114 -202 115 -87 0 -135 -13 -176
-47 -66 -56 -63 -34 -70 -728 -5 -611 -6 -632 -27 -710 -70 -251 -241 -464
-467 -577 -129 -65 -309 -96 -465 -78 -106 12 -248 56 -328 102 -132 75 -275
218 -350 350 -45 78 -90 221 -102 323 -13 115 -13 4387 0 4601 40 655 281
1186 747 1646 149 147 247 229 395 328 353 235 759 371 1203 403 28 2 1135 3
2460 3 l2410 -2 138 -22z"/>
</g>
</svg>
