<?xml version="1.0" standalone="no"?>
<!DOCTYPE svg PUBLIC "-//W3C//DTD SVG 20010904//EN"
 "http://www.w3.org/TR/2001/REC-SVG-20010904/DTD/svg10.dtd">
<svg version="1.0" xmlns="http://www.w3.org/2000/svg"
 width="1280.000000pt" height="1359.000000pt" viewBox="0 0 1280.000000 1359.000000"
 preserveAspectRatio="xMidYMid meet">
<metadata>
Created by potrace 1.16, written by Peter Selinger 2001-2019
</metadata>
<g transform="translate(0.000000,1359.000000) scale(0.100000,-0.100000)"
fill="#000000" stroke="none">
<path d="M5149 13429 c-617 -40 -1163 -251 -1644 -634 -140 -111 -413 -388
-523 -530 -279 -361 -466 -761 -552 -1186 -58 -284 -54 -85 -57 -2754 -4
-2720 -8 -2543 62 -2753 63 -189 161 -347 309 -501 189 -196 410 -323 671
-384 125 -29 467 -31 593 -4 180 40 343 110 482 208 86 61 227 200 285 282 22
31 42 57 45 57 3 0 23 -26 45 -57 59 -84 209 -231 298 -291 164 -112 357 -185
564 -213 138 -18 404 -6 533 24 124 29 249 78 346 135 139 81 303 231 387 354
18 26 35 48 38 48 3 0 26 -29 52 -64 102 -139 272 -285 422 -363 352 -182 854
-193 1213 -28 165 77 350 227 468 380 31 41 58 75 59 75 1 0 28 -33 59 -74
252 -329 604 -496 1046 -496 220 0 391 36 566 119 385 184 664 530 755 937 21
94 22 126 26 641 l5 543 26 6 c15 3 53 13 85 20 465 116 835 494 960 982 l22
87 0 1385 0 1385 -22 140 c-102 639 -359 1150 -813 1618 -436 451 -947 736
-1528 852 -313 62 -146 59 -2767 61 -1314 1 -2447 -2 -2516 -7z m5044 -487
c599 -98 1065 -351 1490 -812 351 -380 557 -821 634 -1360 17 -115 18 -230 18
-1405 l0 -1280 -23 -80 c-52 -183 -129 -303 -286 -444 -129 -116 -258 -183
-322 -167 l-24 6 -2 1508 -3 1507 -23 50 c-29 63 -48 84 -97 106 -99 45 -247
11 -301 -70 -56 -86 -54 18 -54 -2241 0 -1304 -4 -2128 -10 -2200 -15 -168
-36 -280 -77 -403 -99 -298 -294 -483 -576 -544 -96 -21 -308 -21 -404 0 -309
67 -506 273 -603 629 -48 178 -52 238 -59 888 -6 614 -6 615 -29 665 -45 97
-104 135 -212 135 -105 0 -177 -45 -217 -135 -16 -36 -18 -94 -24 -645 -7
-620 -11 -693 -53 -873 -79 -338 -269 -565 -541 -646 -236 -69 -536 -38 -718
76 -202 126 -329 344 -389 669 -20 111 -22 162 -28 739 -7 696 -5 680 -81 756
-46 46 -101 63 -184 57 -109 -7 -166 -53 -202 -165 -14 -41 -17 -139 -24 -673
-7 -661 -8 -680 -60 -869 -72 -268 -227 -465 -436 -557 -207 -92 -520 -91
-728 0 -217 97 -371 303 -444 596 -41 167 -44 212 -51 840 -5 527 -9 622 -22
663 -38 112 -94 158 -203 165 -84 6 -138 -11 -185 -58 -74 -74 -73 -67 -80
-760 -6 -567 -8 -624 -28 -730 -98 -533 -370 -786 -842 -783 -232 1 -400 61
-541 191 -189 175 -284 427 -309 826 -12 186 -12 4276 0 4472 40 655 281 1186
747 1646 149 147 247 229 395 328 353 235 759 371 1203 403 28 2 1135 3 2460
3 l2410 -2 138 -22z"/>
</g>
</svg>
