<?xml version="1.0" encoding="UTF-8" standalone="no"?>
<svg
   xmlns:dc="http://purl.org/dc/elements/1.1/"
   xmlns:cc="http://creativecommons.org/ns#"
   xmlns:rdf="http://www.w3.org/1999/02/22-rdf-syntax-ns#"
   xmlns:svg="http://www.w3.org/2000/svg"
   xmlns="http://www.w3.org/2000/svg"
   xmlns:xlink="http://www.w3.org/1999/xlink"
   id="svg8"
   version="1.1"
   viewBox="0 0 210 297"
   height="297mm"
   width="210mm">
      <g
       style="opacity:1"
       id="g26">
      <path
         d="m 62.088891,221.30531 c -5.949048,-0.63965 -12.078202,-2.17538 -17.003635,-5.68736 -1.421701,-2.99954 -0.07879,-6.72968 0.314208,-9.93697 2.162345,-10.31478 8.805559,-19.48754 17.693006,-25.08512 0.307098,-13.43743 8.191765,-26.39314 19.922373,-32.91557 3.055937,-0.53762 5.37376,2.48767 7.740069,4.02163 8.495898,7.06045 13.762288,17.82285 14.073728,28.87045 9.31902,5.88558 16.05439,15.64856 17.97674,26.53019 0.51134,3.58117 2.1662,9.12792 -2.78114,10.30593 -11.11022,5.43159 -24.715155,5.38266 -35.693261,-0.38501 -2.476578,0.26223 -4.983109,2.28994 -7.621158,2.73644 -4.716049,1.46367 -9.709769,1.8513 -14.62093,1.54539 z m 6.35,-4.66306 c 13.202221,-0.97291 25.205517,-10.26823 29.689934,-22.68765 -0.160533,-1.1665 -3.721042,-3.14468 -4.57691,-2.53488 -4.098339,12.88993 -17.899523,21.77023 -31.336418,20.03152 -3.224645,-0.1503 -9.127779,-1.01832 -6.806779,-5.62291 1.551443,-5.44751 4.846928,-10.18724 8.91771,-14.05581 -0.821679,-2.28439 -0.33367,-7.64585 -3.287472,-3.85654 -7.307618,6.12607 -11.45744,15.45002 -11.97279,24.89079 5.938221,3.08076 12.701133,4.50048 19.372725,3.83548 z m 39.158329,-0.19843 c 3.94904,-0.50077 7.71695,-1.87533 11.26718,-3.63584 -0.50034,-12.84479 -8.56179,-25.06007 -20.336699,-30.30716 -6.547031,-3.09572 -14.039584,-3.75903 -21.131926,-2.59597 0.400194,1.74057 -0.963718,5.75972 1.840184,4.87896 6.284003,-0.7873 12.824676,-0.0273 18.440755,3.03628 7.838706,4.02017 13.879216,11.80566 15.289926,20.53452 -1.90798,3.95406 -7.91631,2.81717 -11.67641,3.27095 -3.971876,0.37313 -8.516469,-3.35725 -11.249015,1.16172 -3.103492,2.48024 4.98642,2.72991 6.884509,3.60414 3.526766,0.54408 7.138476,0.53526 10.671496,0.0524 z m -37.747218,-9.76003 c 3.178941,-0.72246 -2.106225,-4.46179 -2.288442,-6.51246 -0.901056,-1.94912 -1.749052,-4.86752 -3.387848,-1.46354 -1.497933,2.42779 -7.058362,9.03756 -0.889815,8.21327 2.185658,0.0421 4.399196,0.0935 6.566105,-0.23727 z m 37.167258,0.001 c 2.2812,-0.75047 -1.65853,-4.67942 -2.10383,-6.31238 -0.95338,-0.95165 -2.78026,-5.23331 -3.50385,-2.23055 -1.06961,2.92461 -3.744172,5.50886 -4.441158,8.27191 3.259758,0.78002 6.737578,0.64659 10.048838,0.27102 z m -29.623961,-2.68667 c 2.377836,-0.93003 3.926407,-2.45382 1.306819,-4.30526 -8.081703,-10.5595 -7.751652,-26.58081 0.965823,-36.67929 1.723815,-3.43709 6.049477,-4.70708 8.016499,-0.70458 3.466499,3.8928 5.7545,8.71074 6.909644,13.7734 2.259172,0.48683 7.022956,3.78269 4.993643,-0.83922 -1.757844,-9.30434 -7.562167,-17.77938 -15.624615,-22.71651 -11.900873,7.12061 -18.258535,21.99183 -15.727745,35.57074 1.236137,5.9977 3.67579,11.96581 7.92521,16.45925 0.439758,-0.11871 0.835942,-0.34711 1.234722,-0.55853 z m 7.938643,-6.89025 c 1.235587,-2.12285 4.81616,-5.95607 3.08029,-7.67487 -2.797802,-0.0499 -8.376299,-1.41609 -9.485511,1.02541 1.190458,2.64757 3.067277,7.52842 5.499441,7.80178 l 0.420375,-0.5188 z m -1.547218,-22.33335 c 1.893573,-0.53044 7.497691,1.77142 4.916537,-2.07484 -1.280024,-2.15612 -2.705092,-7.31368 -5.295524,-7.01473 -2.064518,2.65557 -4.453133,6.11727 -4.703047,9.27375 1.690627,-0.13998 3.38598,-0.18269 5.082034,-0.18418 z"
         />
   </g>
</svg>
