<?xml version="1.0" encoding="iso-8859-1"?>
<!-- Generator: Adobe Illustrator 18.0.0, SVG Export Plug-In . SVG Version: 6.00 Build 0)  -->
<!DOCTYPE svg PUBLIC "-//W3C//DTD SVG 1.1//EN" "http://www.w3.org/Graphics/SVG/1.1/DTD/svg11.dtd">
<svg version="1.1" id="Capa_1" xmlns="http://www.w3.org/2000/svg" xmlns:xlink="http://www.w3.org/1999/xlink" x="0px" y="0px"
	 viewBox="0 0 297 297" style="enable-background:new 0 0 297 297;" xml:space="preserve">
<g>
	<path d="M253.972,56.097L21.387,44.913c-4.726-0.227-8.935,3.086-9.803,7.762L0.16,114.354c-0.865,4.676,1.856,9.271,6.372,10.759
		l118.525,39.05l-9.814,37.563h-11.111c-5.249,0-9.505,4.256-9.505,9.505v31.364c0,5.249,4.256,9.504,9.505,9.504H229.59
		c5.249,0,9.505-4.255,9.505-9.504V211.23c0-5.249-4.256-9.505-9.505-9.505h-12.645l-3.259-8.362l14.004,4.613
		c3.744,1.096,7.568,0.128,7.568,0.128c31.863-8.02,55.057-31.352,60.529-60.888c5.471-29.536-7.827-59.627-34.703-78.529
		C261.085,58.687,258.087,56.51,253.972,56.097z M28.764,64.299L244.43,74.668l-18.997,102.551l-205.07-67.565L28.764,64.299z
		 M201.593,214.68c1.423,3.65,4.939,6.054,8.855,6.054h9.637v12.355H113.636v-12.355h8.946c4.323,0,8.103-2.918,9.195-7.102
		l11.368-43.51l47.134,15.528L201.593,214.68z M277.096,133.754c-3.228,17.427-14.952,32.038-31.778,40.484l16.609-89.666
		C274.612,98.486,280.324,116.327,277.096,133.754z"/>
	<circle cx="166.861" cy="195.547" r="9.505"/>
</g>
<g>
</g>
<g>
</g>
<g>
</g>
<g>
</g>
<g>
</g>
<g>
</g>
<g>
</g>
<g>
</g>
<g>
</g>
<g>
</g>
<g>
</g>
<g>
</g>
<g>
</g>
<g>
</g>
<g>
</g>
</svg>
