<?xml version="1.0" encoding="iso-8859-1"?>
<!-- Generator: Adobe Illustrator 16.0.0, SVG Export Plug-In . SVG Version: 6.00 Build 0)  -->
<!DOCTYPE svg PUBLIC "-//W3C//DTD SVG 1.1//EN" "http://www.w3.org/Graphics/SVG/1.1/DTD/svg11.dtd">
<svg version="1.1" id="Capa_1" xmlns="http://www.w3.org/2000/svg" xmlns:xlink="http://www.w3.org/1999/xlink" x="0px" y="0px"
	 width="592.447px" height="592.447px" viewBox="0 0 592.447 592.447" style="enable-background:new 0 0 592.447 592.447;"
	 xml:space="preserve">
<g>
	<g>
		<path d="M572.646,135.744c-0.15-11.938-3.902-23.38-10.852-33.089c-6.933-9.688-16.529-16.924-27.752-20.927L315.754,3.878
			c-6.285-2.242-12.855-3.378-19.53-3.378c-6.674,0-13.245,1.136-19.531,3.378L58.408,81.727
			c-11.225,4.004-20.821,11.24-27.755,20.928c-6.949,9.709-10.701,21.151-10.851,33.088c-0.4,32.01,2.077,116.154,33.653,205.95
			c18.33,52.127,43.69,98.167,75.375,136.841c38.905,47.486,87.471,84.039,144.349,108.645c7.319,3.165,15.071,4.77,23.044,4.77
			c7.975,0,15.727-1.605,23.042-4.77c56.88-24.605,105.446-61.158,144.352-108.645c31.686-38.674,57.045-84.714,75.375-136.841
			C570.568,251.897,573.045,167.753,572.646,135.744z M302.259,547.858c-1.923,0.832-3.979,1.249-6.035,1.249
			c-2.056,0-4.112-0.417-6.036-1.249C70.771,452.94,61.938,192.295,62.639,136.28c0.08-6.392,4.138-12.055,10.159-14.203
			l218.286-77.849c1.662-0.592,3.401-0.889,5.14-0.889c1.738,0,3.478,0.296,5.14,0.889l218.286,77.849
			c6.021,2.148,10.078,7.811,10.158,14.203C530.509,192.295,521.677,452.94,302.259,547.858z"/>
		<path d="M296.224,592.447c-8.042,0-15.862-1.618-23.243-4.811c-56.953-24.638-105.583-61.239-144.537-108.787
			c-31.723-38.72-57.111-84.811-75.46-136.991c-31.602-89.871-34.082-174.086-33.681-206.122
			c0.151-12.039,3.935-23.579,10.944-33.373c6.994-9.771,16.674-17.07,27.994-21.108L276.525,3.408
			C282.863,1.146,289.491,0,296.224,0s13.359,1.146,19.698,3.407l218.288,77.85c11.319,4.037,20.999,11.336,27.99,21.107
			c7.009,9.792,10.794,21.333,10.945,33.374c0.399,32.039-2.082,116.258-33.682,206.121c-18.35,52.183-43.738,98.273-75.46,136.991
			c-38.956,47.549-87.586,84.149-144.54,108.787C312.084,590.829,304.265,592.447,296.224,592.447z M296.224,1
			c-6.618,0-13.132,1.127-19.363,3.349L58.576,82.197c-11.127,3.969-20.642,11.144-27.516,20.749
			c-6.89,9.626-10.609,20.97-10.757,32.803c-0.4,31.983,2.076,116.058,33.625,205.777c18.31,52.071,43.641,98.061,75.29,136.69
			c38.853,47.423,87.355,83.928,144.161,108.502c7.255,3.138,14.941,4.729,22.846,4.729c7.903,0,15.589-1.591,22.844-4.729
			c56.806-24.573,105.31-61.079,144.163-108.502c31.647-38.628,56.979-84.617,75.29-136.69
			c31.547-89.712,34.024-173.791,33.625-205.776c-0.149-11.836-3.869-23.18-10.758-32.805c-6.873-9.604-16.387-16.779-27.514-20.748
			L315.586,4.349C309.355,2.127,302.841,1,296.224,1z M296.224,549.607c-2.157,0-4.255-0.435-6.234-1.29
			c-50.621-21.898-93.824-54.405-128.408-96.617c-28.553-34.852-51.493-76.589-68.184-124.054
			c-29.33-83.409-31.631-161.619-31.259-191.373c0.082-6.564,4.298-12.458,10.491-14.667l218.286-77.849
			c3.423-1.22,7.204-1.218,10.615,0l218.286,77.849c6.192,2.209,10.408,8.104,10.49,14.667
			c0.372,29.754-1.928,107.963-31.258,191.373c-16.69,47.465-39.631,89.202-68.185,124.054
			c-34.584,42.212-77.787,74.719-128.408,96.617C300.479,549.173,298.382,549.607,296.224,549.607z M296.224,43.84
			c-1.697,0-3.37,0.29-4.972,0.86L72.966,122.548c-5.801,2.069-9.75,7.59-9.827,13.738c-0.372,29.701,1.925,107.77,31.202,191.028
			c16.652,47.355,39.535,88.991,68.014,123.752c34.482,42.088,77.559,74.499,128.032,96.333c3.707,1.604,7.97,1.604,11.674,0
			c50.473-21.834,93.549-54.245,128.031-96.333c28.479-34.761,51.362-76.396,68.015-123.752
			c29.277-83.259,31.573-161.328,31.201-191.028c-0.077-6.148-4.025-11.668-9.826-13.738L301.195,44.7
			C299.597,44.129,297.924,43.84,296.224,43.84z"/>
	</g>
	<g>
		<path d="M462.195,128.076L315.754,75.85c-6.287-2.242-12.857-3.379-19.53-3.379s-13.243,1.137-19.529,3.378l-146.444,52.227
			c-23.081,8.231-38.598,30.229-38.61,54.741c-0.007,13.117,0.712,34.083,4.176,59.475c4.238,31.068,11.47,60.718,21.496,88.127
			c13.269,36.276,31.396,68.421,53.879,95.539c27.54,33.218,61.668,58.999,101.438,76.627c7.478,3.314,15.416,4.995,23.594,4.995
			s16.116-1.681,23.592-4.994c39.771-17.629,73.9-43.41,101.44-76.628c22.482-27.118,40.609-59.263,53.879-95.539
			c10.025-27.409,17.257-57.058,21.495-88.127c3.464-25.393,4.184-46.358,4.177-59.475
			C500.794,158.306,485.277,136.308,462.195,128.076z M302.458,463.42c-1.984,0.88-4.109,1.319-6.234,1.319
			s-4.249-0.439-6.234-1.319C144.171,398.787,134.458,227.666,134.48,182.84c0.003-6.47,4.067-12.239,10.161-14.412l146.442-52.227
			c1.662-0.592,3.401-0.889,5.14-0.889c1.738,0,3.478,0.296,5.14,0.889l146.442,52.227c6.094,2.173,10.157,7.942,10.161,14.412
			C457.988,227.666,448.275,398.787,302.458,463.42z"/>
		<path d="M296.224,508.08c-8.248,0-16.254-1.695-23.796-5.038c-39.841-17.659-74.031-43.486-101.621-76.765
			c-22.519-27.162-40.675-59.355-53.964-95.687c-10.038-27.442-17.279-57.127-21.521-88.231
			c-3.468-25.422-4.188-46.411-4.181-59.543c0.012-24.721,15.662-46.909,38.942-55.211l146.444-52.227
			c6.34-2.261,12.967-3.407,19.697-3.407c6.729,0,13.357,1.146,19.698,3.408l146.441,52.226c23.28,8.302,38.931,30.49,38.944,55.211
			c0.007,13.13-0.713,34.118-4.182,59.543c-4.243,31.105-11.483,60.79-21.521,88.231c-13.29,36.332-31.446,68.525-53.964,95.687
			c-27.59,33.277-61.78,59.105-101.623,76.766C312.478,506.386,304.472,508.08,296.224,508.08z M296.224,72.971
			c-6.615,0-13.129,1.127-19.361,3.349l-146.444,52.227c-22.883,8.161-38.266,29.971-38.278,54.27
			c-0.007,13.101,0.711,34.041,4.172,59.408c4.233,31.033,11.456,60.647,21.47,88.022c13.25,36.224,31.349,68.318,53.794,95.392
			c27.49,33.158,61.558,58.893,101.256,76.489c7.414,3.286,15.284,4.952,23.391,4.952c8.107,0,15.976-1.666,23.39-4.951
			c39.699-17.597,73.767-43.332,101.258-76.49c22.444-27.072,40.544-59.167,53.794-95.392c10.013-27.374,17.236-56.989,21.47-88.022
			c3.46-25.37,4.179-46.309,4.172-59.407c-0.014-24.3-15.397-46.11-38.28-54.271L315.586,76.321
			C309.354,74.098,302.839,72.971,296.224,72.971z M296.224,465.239c-2.231,0-4.397-0.458-6.437-1.362
			c-62.228-27.582-106.878-77.377-132.711-148.003c-20.876-57.073-23.105-112.047-23.095-133.035
			c0.003-6.665,4.22-12.646,10.493-14.883l146.442-52.227c3.42-1.218,7.201-1.217,10.615,0l146.442,52.227
			c6.272,2.237,10.489,8.218,10.493,14.883c0.01,20.988-2.221,75.964-23.096,133.035C409.538,386.5,364.888,436.295,302.66,463.877
			C300.622,464.781,298.456,465.239,296.224,465.239z M296.224,115.812c-1.698,0-3.371,0.29-4.972,0.86L144.81,168.898
			c-5.876,2.095-9.826,7.698-9.829,13.942c-0.011,20.933,2.213,75.768,23.034,132.69c25.737,70.361,70.208,119.965,132.178,147.433
			c3.823,1.694,8.244,1.693,12.063,0c61.971-27.468,106.441-77.071,132.178-147.433c20.82-56.92,23.044-111.756,23.034-132.69
			c-0.004-6.244-3.954-11.846-9.829-13.941l-146.442-52.227C299.595,116.101,297.922,115.812,296.224,115.812z"/>
	</g>
</g>
<g>
</g>
<g>
</g>
<g>
</g>
<g>
</g>
<g>
</g>
<g>
</g>
<g>
</g>
<g>
</g>
<g>
</g>
<g>
</g>
<g>
</g>
<g>
</g>
<g>
</g>
<g>
</g>
<g>
</g>
</svg>
