<?xml version="1.0" ?><!DOCTYPE svg  PUBLIC '-//W3C//DTD SVG 1.1//EN'  'http://www.w3.org/Graphics/SVG/1.1/DTD/svg11.dtd'><svg enable-background="new 0 0 330.229 505.35" height="505.35px" id="Layer_1" version="1.1" viewBox="0 0 330.229 505.35" width="330.229px" xml:space="preserve" xmlns="http://www.w3.org/2000/svg" xmlns:xlink="http://www.w3.org/1999/xlink"><path d="M162.518,147.83c19.055,10.906,41.711,17.115,74.359,17.744l-15.613,61.848l-74.457-62.666  C152.836,160.426,157.996,154.66,162.518,147.83z M183.428,340.594l-74.461-62.674l-15.613,61.855  c32.648,0.631,55.307,6.838,74.363,17.744C172.232,350.686,177.393,344.928,183.428,340.594z M216.973,73.254  c-4.436,0-8.027,3.76-8.027,3.76s3.592,3.748,8.027,3.748S225,77.014,225,77.014S221.408,73.254,216.973,73.254z M113.258,432.096  c4.436,0,8.027-3.754,8.027-3.754s-3.592-3.754-8.027-3.754c-4.434,0-8.029,3.754-8.029,3.754S108.824,432.096,113.258,432.096z   M330.219,432.512c0.084,61.861-52.418,72.838-52.418,72.838s0.031-118.051,0-141.48c-0.021-15.557,11.4-29.467,19.168-37.064  c0-4.836,0-9.637,0-14.334c-7.422,8.918-26.898,29.951-53.377,40.924c-4.996-12.654-17.338-21.629-31.738-21.629  c-7.041,0-13.301,1.266-18.918,3.563l-89.045-74.412l-19.197,75.123L28.813,279.93c-3.342,6.967-8.131,12.514-12.877,17.279  l-6.635-6.619c6.197-6.219,10.139-11.895,12.324-17.875l-0.813-0.813h-4.172c-5.1,0-9.246-4.514-9.246-10.074  c0-2.953,1.178-5.613,3.047-7.455c-1.869-1.846-3.047-4.5-3.047-7.459c0-2.955,1.178-5.609,3.047-7.455  c-1.869-1.842-3.047-4.502-3.047-7.459c0-2.951,1.178-5.609,3.047-7.451c-1.869-1.846-3.047-4.5-3.047-7.451  c0-5.568,4.146-10.082,9.246-10.082h7.133c0-24.738,0-48.82,0-48.82l13.285-12.148v-8.115l-13.285,12.146v-27.344l13.285-12.143  v-8.121l-13.285,12.152l-0.027-62.313c0,0-5.996,5.096-5.996,30.639c0,12.76,0,54.102,0,93.941  c-7.68-7.84-17.721-20.857-17.738-35.34c-0.033-23.438,0.018-55.586,0-68.707C-0.066,10.977,52.43,0,52.43,0  s-0.027,118.047,0,141.48c0.021,15.553-11.398,29.467-19.164,37.068c-0.002,4.836-0.002,9.633-0.002,14.334  c7.422-8.908,26.896-29.953,53.381-40.922c4.992,12.648,17.334,21.623,31.734,21.623c7.043,0,13.299-1.266,18.916-3.563  l89.047,74.412l19.197-75.123l55.881,56.109c3.342-6.967,8.127-12.514,12.875-17.273l6.637,6.619  c-6.193,6.213-10.141,11.893-12.326,17.869l0.813,0.813h4.18c5.096,0,9.242,4.514,9.242,10.074c0,2.959-1.184,5.613-3.047,7.455  c1.863,1.85,3.047,4.5,3.047,7.459c0,2.955-1.184,5.609-3.049,7.455c1.865,1.842,3.049,4.502,3.049,7.455  c0,2.955-1.184,5.613-3.047,7.455c1.863,1.846,3.047,4.5,3.047,7.465c0,5.547-4.146,10.074-9.242,10.074h-7.141  c0,24.732,0,48.814,0,48.814l-13.283,12.148v8.115l13.283-12.143v27.334l-13.283,12.158v8.107l13.283-12.139l0.029,62.303  c0,0,5.994-5.094,5.994-30.646c0-12.752,0-54.098,0-93.939c7.682,7.854,17.719,20.873,17.738,35.346  C330.25,387.236,330.199,419.389,330.219,432.512z M52.346,261.828c0-2.043-1.348-3.771-2.938-3.771H16.641  c-1.6,0-2.945,1.729-2.945,3.771s1.346,3.768,2.945,3.768h32.768C50.998,265.596,52.346,263.871,52.346,261.828z M53.92,246.914  c0-2.043-1.346-3.773-2.941-3.773H16.641c-1.6,0-2.945,1.73-2.945,3.773c0,2.047,1.346,3.771,2.945,3.771h34.338  C52.574,250.686,53.92,248.961,53.92,246.914z M55.5,232c0-2.039-1.348-3.768-2.945-3.768H16.641c-1.6,0-2.945,1.729-2.945,3.768  c0,2.055,1.346,3.771,2.945,3.771h35.914C54.152,235.771,55.5,234.055,55.5,232z M57.072,217.098c0-2.055-1.348-3.781-2.941-3.781  h-37.49c-1.6,0-2.945,1.727-2.945,3.781c0,2.039,1.346,3.764,2.945,3.764h37.49C55.725,220.861,57.072,219.137,57.072,217.098z   M138.465,222.971c0-3.781-3.064-6.838-6.836-6.838c-3.77,0-6.834,3.057-6.834,6.838c0,3.768,3.064,6.83,6.834,6.83  C135.4,229.801,138.465,226.738,138.465,222.971z M171.951,252.68c0-3.777-3.064-6.838-6.836-6.838  c-3.779,0-6.834,3.061-6.834,6.838c0,3.771,3.055,6.834,6.834,6.834C168.887,259.514,171.951,256.451,171.951,252.68z   M205.436,282.387c0-3.775-3.063-6.832-6.836-6.832c-3.771,0-6.836,3.057-6.836,6.832c0,3.773,3.064,6.84,6.836,6.84  C202.373,289.227,205.436,286.16,205.436,282.387z M277.887,243.521c0,2.043,1.344,3.771,2.941,3.771h32.77  c1.592,0,2.939-1.729,2.939-3.771s-1.348-3.768-2.939-3.768h-32.77C279.23,239.754,277.887,241.479,277.887,243.521z   M276.313,258.436c0,2.043,1.346,3.773,2.938,3.773h34.348c1.592,0,2.939-1.73,2.939-3.773c0-2.051-1.348-3.771-2.939-3.771H279.25  C277.658,254.664,276.313,256.385,276.313,258.436z M274.736,273.346c0,2.047,1.348,3.768,2.941,3.768h35.92  c1.592,0,2.939-1.721,2.939-3.768c0-2.037-1.348-3.768-2.939-3.768h-35.92C276.084,269.578,274.736,271.309,274.736,273.346z   M313.598,292.033c1.592,0,2.939-1.727,2.939-3.768c0-2.053-1.348-3.781-2.939-3.781h-37.5c-1.592,0-2.939,1.729-2.939,3.781  c0,2.041,1.348,3.768,2.939,3.768H313.598z M90.119,449.406c0,0,0,0,0,0.002L74.711,489.48c4.6,1.768,9.988,3.27,16.301,4.406  c15.09,2.715,34.563,3.488,54.824,2.18c20.266-1.309,39.477-4.58,54.092-9.211c4.346-1.379,8.189-2.881,11.617-4.475l-12.238-32.125  l20.506-52.693c-9.951,0.111-13.709-3.223-15.592-5.439c30.252,4.711,35.438-17.502,35.438-26.236  c0-15.371-12.453-27.813-27.807-27.813c-31.914,0-46.418,30.432-57.688,66.438c-6.463,20.662-18.582,41.816-41.307,42.854  c-1.545,0.066-9.963,0.107-15.457,0.129l-16.494-45.807c0,0,6.336-1.311,14.27-3.094c29.375-6.615,32.299-23.326,50.068-23.643  c-23.469-10.602-28.32,0.736-48.414,2.234l1.383-20.742c7.252-0.652,26.779-1.568,47.385,4.795  c-14.447-14.508-54.459-11.42-54.459-11.42l-2.846,42.59l-17.346,3.764L90.119,449.406z M240.111,55.949v-0.002l15.408-40.072  c-4.6-1.768-9.988-3.27-16.301-4.406c-15.09-2.715-34.563-3.488-54.824-2.18c-20.266,1.309-39.477,4.58-54.092,9.211  c-4.346,1.379-8.189,2.881-11.617,4.475L130.924,55.1l-20.506,52.693c9.951-0.111,13.709,3.223,15.592,5.439  c-30.252-4.711-35.438,17.502-35.438,26.236c0,15.371,12.453,27.813,27.807,27.813c31.914,0,46.418-30.432,57.688-66.438  c6.463-20.662,18.582-41.816,41.307-42.854c1.545-0.066,9.963-0.107,15.457-0.129l16.494,45.807c0,0-6.336,1.311-14.27,3.094  c-29.375,6.615-32.299,23.326-50.068,23.643c23.469,10.602,28.32-0.736,48.414-2.234l-1.383,20.742  c-7.252,0.652-26.779,1.568-47.385-4.795c14.447,14.508,54.459,11.42,54.459,11.42l2.846-42.59l17.346-3.764L240.111,55.949z"/></svg>