<?xml version="1.0" ?><!DOCTYPE svg  PUBLIC '-//W3C//DTD SVG 1.1//EN'  'http://www.w3.org/Graphics/SVG/1.1/DTD/svg11.dtd'><svg enable-background="new 0 0 379.313 520.43" height="520.43px" id="Layer_1" version="1.1" viewBox="0 0 379.313 520.43" width="379.313px" xml:space="preserve" xmlns="http://www.w3.org/2000/svg" xmlns:xlink="http://www.w3.org/1999/xlink"><g>

<path d="M178.941,174.41l52.07,45.238l32.871-48.908l-6.156-6.176l-25.93,38.58L190.77,167.5   C187.203,169.959,183.262,172.318,178.941,174.41z M236.176,73.803c-4.43,0-8.027,3.764-8.027,3.764s3.598,3.746,8.027,3.746c4.434,0,8.027-3.746,8.027-3.746   S240.609,73.803,236.176,73.803z  M279.746,354.766c-71.336-35.045-110.504,25.98-110.504,25.98c27.578,32.971,19.531,65.982,6.023,87.654   c-19.012,4.322-41.563,1.408-41.563,1.408c-1.781-10.682-11.984-37.629-15.793-47.471l10.531-3.713l3.668-33.33   c6.031-0.133,19.719,0.125,30.715,4.416c-9.43-8.85-24.746-11.004-37.488-11.432l-3.832,34.834l-13.41,4.732l1.43,3.625   c0.141,0.363,14.227,36.104,16.652,48.873l-14.074,42.746l21.133-10.668l15.363,18.008l18.012-15.363l19.188,13.859l13.863-19.182   l21.922,8.922l8.93-21.932l23.414,3.486l-24.863-33.553C240.102,427.742,253.563,389.27,279.746,354.766z M200.371,346.018l-52.074-45.234l-32.871,48.908l6.16,6.186l25.926-38.584l41.031,35.635   C192.109,350.479,196.047,348.119,200.371,346.018z M99.563,165.664c71.336,35.049,110.504-25.973,110.504-25.973c-27.578-32.98-19.527-65.986-6.023-87.654   c19.008-4.332,41.566-1.418,41.566-1.418c1.781,10.684,11.98,37.629,15.793,47.471l-10.535,3.715l-3.668,33.328   c-6.031,0.139-19.719-0.125-30.715-4.42c9.43,8.861,24.746,11.008,37.488,11.436l3.836-34.834l13.406-4.732l-1.43-3.621   c-0.141-0.365-14.227-36.107-16.652-48.877l14.074-42.742l-21.133,10.664L230.715,0l-18.02,15.361L193.508,1.506l-13.855,19.191   l-21.926-8.93l-8.926,21.926l-23.414-3.477L150.25,63.76C139.207,92.691,125.746,131.164,99.563,165.664z M244.168,170.807c0-3.141-2.547-5.693-5.695-5.693c-3.145,0-5.691,2.553-5.691,5.693c0,3.146,2.547,5.695,5.691,5.695   C241.621,176.502,244.168,173.953,244.168,170.807z M220.254,170.807c0-3.141-2.551-5.693-5.695-5.693c-3.148,0-5.691,2.553-5.691,5.693c0,3.146,2.543,5.695,5.691,5.695   C217.703,176.502,220.254,173.953,220.254,170.807z M143.133,446.625c4.434,0,8.027-3.75,8.027-3.75s-3.594-3.758-8.027-3.758c-4.438,0-8.031,3.758-8.031,3.758   S138.695,446.625,143.133,446.625z M351.742,426.602c-0.383-0.125-0.77-0.219-1.148-0.303c0.41-0.447,0.805-0.912,1.172-1.408   c4.945-6.816,3.438-16.354-3.379-21.301c-5.441-3.961-12.625-3.781-17.82-0.068c0-13.395,0-36.828,0-60.154   c2.121,3.684,4.828,7.545,8.266,11.398c0.879,6.217,3.441,16.844,11.004,24.402c11.305,11.309,29.477,11.459,29.477,11.459   s-0.164-18.164-11.465-29.463c-6.957-6.957-16.52-9.689-22.836-10.766c-10.633-11.705-13.633-23.6-14.438-28.408   c0-5.523,0-10.936,0-16.148h7.641c5.094,0,9.246-4.521,9.246-10.082c0-2.955-1.188-5.605-3.051-7.455   c1.863-1.846,3.051-4.496,3.051-7.455c0-2.949-1.188-5.609-3.051-7.451c1.863-1.846,3.051-4.5,3.051-7.463   c0-2.951-1.188-5.605-3.051-7.451c1.863-1.846,3.051-4.5,3.051-7.459c0-5.557-4.152-10.074-9.246-10.074h-4.395l-1.285-1.301   c2.148-6.234,6.188-12.113,12.629-18.576l-6.641-6.619c-4.898,4.918-9.844,10.678-13.188,17.973l-55.785-55.994l-36.973,55.016   l-61.719-53.611c-8.34,3.029-17.824,4.988-28.434,4.988c-14.75,0-30.105-3.867-45.641-11.5l-4.148-2.039   c-16.621,10.719-28.785,23.877-34.527,30.701c0-3.285,0-6.609,0-9.967c0.246-2.359,1.992-14.557,12.477-27.863   c6.223-0.893,16.766-3.48,24.273-10.99c11.305-11.303,11.465-29.467,11.465-29.467s-18.168,0.162-29.473,11.461   c-6.859,6.869-9.609,16.254-10.715,22.57c-3.34,3.965-5.961,7.879-8.023,11.566c0.004-18.986,0.004-37.498-0.004-49.311   c5.117,3.191,11.859,3.164,17.035-0.596c6.809-4.943,8.324-14.484,3.375-21.297c-0.238-0.326-0.492-0.629-0.75-0.924   c0.594-0.117,1.188-0.26,1.773-0.451c8.016-2.602,12.395-11.205,9.793-19.215c-2.598-8.01-11.207-12.395-19.223-9.789   c-0.375,0.127-0.738,0.27-1.102,0.422c0.074-0.6,0.121-1.207,0.121-1.824c0-8.426-6.832-15.25-15.25-15.25   c-8.422,0-15.25,6.824-15.25,15.25c0,0.398,0.027,0.791,0.059,1.184c-0.551-0.254-1.105-0.482-1.695-0.674   c-8.012-2.605-16.617,1.777-19.215,9.787c-2.605,8.01,1.781,16.613,9.789,19.219c0.379,0.121,0.762,0.215,1.141,0.309   c-0.41,0.443-0.805,0.902-1.164,1.398c-4.957,6.816-3.441,16.359,3.371,21.307c5.449,3.955,12.625,3.777,17.82,0.066   c0,13.391,0,36.828,0,60.15c-2.121-3.674-4.828-7.541-8.262-11.396c-0.875-6.209-3.445-16.842-11.008-24.404   C18.168,129.957,0,129.801,0,129.801s0.156,18.164,11.461,29.463c6.957,6.967,16.52,9.697,22.84,10.771   c10.633,11.699,13.629,23.594,14.438,28.402c-0.004,5.523-0.004,10.938-0.004,16.156h-7.637c-5.102,0-9.246,4.51-9.246,10.08   c0,2.949,1.184,5.607,3.051,7.449c-1.867,1.846-3.051,4.502-3.051,7.455c0,2.959,1.184,5.613,3.055,7.461   c-1.871,1.84-3.055,4.5-3.055,7.453c0,2.955,1.184,5.615,3.051,7.455c-1.867,1.846-3.051,4.502-3.051,7.461   c0,5.555,4.145,10.074,9.246,10.074h4.383l1.297,1.295c-2.156,6.234-6.191,12.117-12.629,18.58l6.637,6.615   c4.898-4.912,9.844-10.674,13.188-17.969l55.781,55.994l36.977-55.014l61.715,53.605c8.344-3.029,17.828-4.982,28.438-4.982   c14.75,0,30.109,3.865,45.641,11.504l4.148,2.037c16.613-10.727,28.789-23.879,34.523-30.709c0,3.285,0,6.611,0,9.967   c-0.242,2.359-1.988,14.566-12.473,27.863c-6.223,0.893-16.766,3.48-24.277,10.99c-11.305,11.303-11.465,29.467-11.465,29.467   s18.172-0.156,29.473-11.455c6.863-6.865,9.613-16.26,10.719-22.576c3.34-3.965,5.961-7.879,8.02-11.563   c0,18.986,0,37.5,0.004,49.303c-5.117-3.186-11.855-3.16-17.035,0.6c-6.813,4.947-8.313,14.49-3.367,21.301   c0.23,0.322,0.492,0.625,0.746,0.92c-0.594,0.117-1.188,0.26-1.773,0.457c-8.008,2.596-12.395,11.199-9.793,19.209   c2.605,8.006,11.203,12.395,19.211,9.789c0.391-0.121,0.75-0.27,1.113-0.42c-0.074,0.598-0.121,1.205-0.121,1.826   c0,8.422,6.824,15.246,15.25,15.246s15.25-6.824,15.25-15.246c0-0.4-0.031-0.795-0.063-1.188c0.547,0.254,1.113,0.486,1.699,0.68   c8.008,2.6,16.617-1.779,19.215-9.789C364.133,437.811,359.746,429.203,351.742,426.602z M44.594,86.688   c0-4.875,3.941-8.822,8.816-8.822s8.82,3.947,8.82,8.822c0,4.867-3.945,8.814-8.82,8.814S44.594,91.555,44.594,86.688z    M73.859,273.176H41.098c-1.598,0-2.941-1.727-2.941-3.768c0-2.047,1.344-3.777,2.941-3.777h32.762c1.598,0,2.949,1.73,2.949,3.777   C76.809,271.449,75.457,273.176,73.859,273.176z M75.441,258.262H41.098c-1.598,0-2.941-1.727-2.941-3.77   c0-2.041,1.344-3.771,2.941-3.771h34.344c1.594,0,2.941,1.73,2.941,3.771C78.383,256.535,77.035,258.262,75.441,258.262z    M77.016,243.352H41.098c-1.598,0-2.941-1.727-2.941-3.773c0-2.043,1.344-3.771,2.941-3.771h35.918   c1.594,0,2.941,1.729,2.941,3.771C79.957,241.625,78.609,243.352,77.016,243.352z M78.59,228.436H41.098   c-1.598,0-2.941-1.725-2.941-3.762c0-2.057,1.344-3.781,2.941-3.781H78.59c1.598,0,2.945,1.725,2.945,3.781   C81.535,226.711,80.188,228.436,78.59,228.436z M156.168,237.34c-3.77,0-6.832-3.063-6.832-6.83c0-3.781,3.063-6.838,6.832-6.838   s6.836,3.057,6.836,6.838C163.004,234.277,159.938,237.34,156.168,237.34z M189.656,267.053c-3.781,0-6.836-3.063-6.836-6.834   c0-3.777,3.055-6.838,6.836-6.838c3.77,0,6.832,3.061,6.832,6.838C196.488,263.99,193.426,267.053,189.656,267.053z    M223.141,296.766c-3.773,0-6.836-3.066-6.836-6.84c0-3.775,3.063-6.832,6.836-6.832s6.832,3.057,6.832,6.832   C229.973,293.699,226.914,296.766,223.141,296.766z M305.441,247.258h32.773c1.59,0,2.938,1.721,2.938,3.768   c0,2.041-1.348,3.771-2.938,3.771h-32.773c-1.594,0-2.938-1.73-2.938-3.771C302.504,248.979,303.848,247.258,305.441,247.258z    M303.867,262.168h34.348c1.59,0,2.938,1.725,2.938,3.768c0,2.047-1.348,3.775-2.938,3.775h-34.348   c-1.59,0-2.938-1.729-2.938-3.775C300.93,263.893,302.277,262.168,303.867,262.168z M302.293,277.078h35.922   c1.59,0,2.938,1.725,2.938,3.771c0,2.043-1.348,3.771-2.938,3.771h-35.922c-1.602,0-2.941-1.729-2.941-3.771   C299.352,278.803,300.691,277.078,302.293,277.078z M300.715,299.535c-1.594,0-2.941-1.729-2.941-3.775   c0-2.039,1.348-3.768,2.941-3.768h37.5c1.59,0,2.938,1.729,2.938,3.768c0,2.047-1.348,3.775-2.938,3.775H300.715z M325.898,442.57   c-4.875,0-8.828-3.955-8.828-8.826s3.953-8.818,8.828-8.818c4.867,0,8.82,3.947,8.82,8.818S330.766,442.57,325.898,442.57z M135.141,349.621c0,3.15,2.551,5.693,5.691,5.693c3.148,0,5.695-2.543,5.695-5.693c0-3.146-2.547-5.686-5.695-5.686   C137.691,343.936,135.141,346.475,135.141,349.621z M159.059,349.621c0,3.15,2.547,5.693,5.691,5.693c3.148,0,5.691-2.543,5.691-5.693c0-3.146-2.543-5.686-5.691-5.686   C161.605,343.936,159.059,346.475,159.059,349.621z"/></g></svg>