<?xml version="1.0" ?><!DOCTYPE svg  PUBLIC '-//W3C//DTD SVG 1.1//EN'  'http://www.w3.org/Graphics/SVG/1.1/DTD/svg11.dtd'><svg enable-background="new 0 0 368.469 530.719" height="530.719px" id="Layer_1" version="1.1" viewBox="0 0 368.469 530.719" width="368.469px" xml:space="preserve" xmlns="http://www.w3.org/2000/svg" xmlns:xlink="http://www.w3.org/1999/xlink"><g>

<path d="M368.469,314.75c-7.527-4.316-17.742-6.807-28.406-8.178c1.082-1.654,1.734-3.674,1.734-5.859   c0-2.955-1.176-5.615-3.051-7.455c1.875-1.846,3.051-4.496,3.051-7.455s-1.176-5.613-3.051-7.459   c1.875-1.848,3.051-4.502,3.051-7.457c0-2.957-1.176-5.613-3.051-7.459c1.875-1.842,3.051-4.5,3.051-7.449   c0-3.129-1.316-5.932-3.375-7.787c6.617-4.299,11.02-11.75,11.02-20.242c0-13.328-10.813-24.129-24.129-24.129   c-10.574,0-19.523,6.797-22.809,16.25l-34.723-34.879l-27.336,58.576L158.156,176.1c1.738-1.371,3.375-2.873,4.883-4.514   l75.156,61.504l24.348-52.199l-0.012-0.018c7.574-0.334,13.891-2.332,13.891-2.332l-1.816-4.252   c-8.137-19.004-9.367-35.094-9.484-41.645l19.828-1.994l-19.332-62.764V47.801L280,11.545l-24.555,10.609l-16.121-21.35   l-21.336,16.111L197.273,0l-16.918,20.707L156.219,9.166L144.68,33.301l-26.184-5.5l19.801,30.324v12.281h120.254l16.539,53.697   c0,0-3.859,0.826-14.211,1.43c-20.875,1.229-32.969,6.301-40.344,13.693c-15.68-7.508-24.305-22.133-27.891-29.721l13.438-32.797   h-8.102l-13.492,32.939c2.828,6.924,12.004,25.689,31.293,35.6c-2.16,3.494-3.703,7.32-4.887,11.375   c9.363-11.961,19.363-20.779,46.711-23.551c0.133,6.869,1.344,21.758,8.324,39.814c-57.461,8.832-80.309-28.166-87.707-47.596   c-11.234,26.566-14.031,32.668-14.676,33.914c-5.781,10.973-17.066,17.932-29.449,18.154c-6.789,0.104-13.012-2.078-17.656-6.189   c-4.656-4.139-7.289-9.949-7.406-16.361c-0.191-10.803,7.313-19.041,17.203-19.52c18.578-0.898,20.102,11.947,20.102,11.947   c-0.199-10.9-9.031-19.447-20.102-19.447c-14.211,0-24.953,12.994-24.703,27.152c0.074,3.826,0.852,7.469,2.219,10.852   c-9.227,4.063-17.543,9.314-24.758,14.771V67.051c0,0-24.191-41.23-24.191-52.324c0,11.295-24.184,52.324-24.184,52.324v140.152   c2.387,0.285,4.898,0.523,7.488,0.719V69.156c2.387-3.961,11.48-19.5,16.695-34.541c5.223,15.041,14.316,30.58,16.695,34.541   v139.785c5.684,0.326,23.391,0.514,37.863,9.998v6.914c-12.398-8.475-36.695-9.596-55.172-9.596   c-27.301,0-47.039-4.367-54.191-11.979v11.674c7.516,4.328,17.742,6.816,28.406,8.184c-1.09,1.658-1.734,3.674-1.734,5.859   c0,2.959,1.18,5.615,3.051,7.461c-1.871,1.846-3.051,4.5-3.051,7.455c0,2.953,1.18,5.613,3.051,7.455   c-1.871,1.846-3.051,4.5-3.051,7.459c0,2.953,1.18,5.609,3.051,7.455c-1.871,1.842-3.051,4.5-3.051,7.449   c0,3.135,1.316,5.932,3.371,7.781c-6.625,4.305-11.016,11.756-11.016,20.248c0,13.332,10.805,24.135,24.133,24.135   c10.566,0,19.523-6.803,22.789-16.256l34.758,34.902l27.324-58.582l82.305,67.658c-1.742,1.373-3.379,2.875-4.895,4.523   l-75.148-61.504l-24.355,52.199c-7.574,0.336-13.895,2.338-13.895,2.338l1.816,4.246c8.141,19.008,9.359,35.102,9.492,41.646   l-19.836,1.996l19.332,62.77v20.076l-14.391,36.266l24.563-10.619l16.109,21.355l21.352-16.117l20.707,16.926l16.926-20.717   l24.133,11.541l11.539-24.131l26.176,5.498l-19.793-30.326v-12.277H109.91l-16.531-53.699c0,0,3.859-0.822,14.199-1.432   c20.883-1.225,32.98-6.301,40.348-13.693c15.676,7.518,24.313,22.141,27.887,29.721L162.383,454h8.109l13.484-32.936   c-2.832-6.928-12.016-25.689-31.297-35.604c2.164-3.49,3.695-7.324,4.891-11.369c-9.367,11.959-19.359,20.773-46.715,23.545   c-0.129-6.869-1.336-21.754-8.328-39.809c57.469-8.838,80.32,28.16,87.715,47.59c11.23-26.559,14.023-32.672,14.68-33.906   c5.777-10.98,17.063-17.939,29.445-18.162c6.789-0.104,13.016,2.078,17.656,6.193c4.656,4.139,7.289,9.945,7.406,16.359   c0.199,10.797-7.305,19.039-17.199,19.518c-18.582,0.906-20.105-11.947-20.105-11.947c0.199,10.9,9.031,19.447,20.105,19.447   c14.211,0,24.953-12.988,24.695-27.152c-0.063-3.822-0.855-7.469-2.211-10.852c9.227-4.063,17.539-9.314,24.746-14.771v113.514   c0,0,24.207,41.23,24.207,52.324c0-11.295,24.184-52.324,24.184-52.324V323.512c-2.387-0.291-4.902-0.523-7.496-0.721v138.764   c-2.391,3.963-11.477,19.504-16.688,34.539c-5.238-15.035-14.32-30.576-16.707-34.539V321.768   c-5.676-0.33-23.379-0.514-37.859-9.998v-6.914c12.391,8.479,36.699,9.596,55.172,9.596c27.297,0,47.039,4.367,54.195,11.979   V314.75z M174.293,151.504l60.18,47.877l8.613-17.85c2.063,0.119,4.117,0.182,6.18,0.182c0.695,0,1.395-0.035,2.086-0.053   l-14.359,29.748l-65.844-52.725C171.973,156.846,173.031,154.445,174.293,151.504z M68.676,278.504H35.91   c-1.59,0-2.938-1.717-2.938-3.773c0-2.037,1.348-3.762,2.938-3.762h32.766c1.602,0,2.953,1.725,2.953,3.762   C71.629,276.787,70.277,278.504,68.676,278.504z M70.258,263.598H35.91c-1.59,0-2.938-1.729-2.938-3.771   c0-2.047,1.348-3.771,2.938-3.771h34.348c1.594,0,2.941,1.725,2.941,3.771C73.199,261.869,71.852,263.598,70.258,263.598z    M71.832,248.684H35.91c-1.59,0-2.938-1.73-2.938-3.771c0-2.043,1.348-3.768,2.938-3.768h35.922c1.598,0,2.945,1.725,2.945,3.768   C74.777,246.953,73.43,248.684,71.832,248.684z M73.41,233.773h-37.5c-1.59,0-2.938-1.73-2.938-3.777   c0-2.041,1.348-3.768,2.938-3.768h37.5c1.594,0,2.941,1.727,2.941,3.768C76.352,232.043,75.004,233.773,73.41,233.773z    M150.75,242.48c-3.773,0-6.836-3.063-6.836-6.83c0-3.781,3.063-6.838,6.836-6.838c3.77,0,6.832,3.057,6.832,6.838   C157.582,239.418,154.52,242.48,150.75,242.48z M184.234,272.193c-3.777,0-6.832-3.063-6.832-6.834   c0-3.777,3.055-6.838,6.832-6.838c3.773,0,6.832,3.061,6.832,6.838C191.066,269.131,188.008,272.193,184.234,272.193z    M194.188,379.209l-60.18-47.863l-8.613,17.846c-2.063-0.115-4.117-0.178-6.172-0.178c-0.695,0-1.391,0.035-2.09,0.049   l14.363-29.754l65.828,52.73C196.508,373.881,195.461,376.277,194.188,379.209z M217.719,301.906c-3.77,0-6.832-3.066-6.832-6.84   c0-3.775,3.063-6.832,6.832-6.832c3.773,0,6.832,3.057,6.832,6.832C224.551,298.84,221.492,301.906,217.719,301.906z    M332.547,304.488h-37.488c-1.598,0-2.941-1.734-2.941-3.775c0-2.047,1.344-3.777,2.941-3.777h37.488   c1.602,0,2.941,1.73,2.941,3.777C335.488,302.754,334.148,304.488,332.547,304.488z M332.547,289.57h-35.918   c-1.59,0-2.938-1.721-2.938-3.768s1.348-3.773,2.938-3.773h35.918c1.602,0,2.941,1.727,2.941,3.773S334.148,289.57,332.547,289.57z    M332.547,274.656h-34.344c-1.59,0-2.938-1.721-2.938-3.77c0-2.047,1.348-3.775,2.938-3.775h34.344   c1.602,0,2.941,1.729,2.941,3.775C335.488,272.936,334.148,274.656,332.547,274.656z M332.547,259.75h-32.766   c-1.594,0-2.945-1.725-2.945-3.771c0-2.043,1.352-3.773,2.945-3.773h32.766c1.602,0,2.941,1.73,2.941,3.773   C335.488,258.025,334.148,259.75,332.547,259.75z M249.883,408.488c-2.227,0.473-4.566,0.738-6.996,0.738c-0.465,0-0.922-0.051-1.383-0.068L223.145,454h8.109   L249.883,408.488z M125.066,448.578c4.441,0,8.031-3.758,8.031-3.758s-3.59-3.76-8.031-3.76c-4.422,0-8.02,3.76-8.02,3.76   S120.645,448.578,125.066,448.578z M118.578,122.221c2.238-0.469,4.566-0.736,6.996-0.736c0.469,0,0.918,0.049,1.383,0.066l18.367-44.842h-8.109   L118.578,122.221z M58.559,208.512V71.797l-3.754-7.195l-3.746,7.195v136.666c1.035,0.014,2.07,0.035,3.133,0.035   C55.617,208.498,57.074,208.504,58.559,208.512z M243.402,82.135c-4.441,0-8.039,3.754-8.039,3.754s3.598,3.76,8.039,3.76c4.422,0,8.02-3.76,8.02-3.76   S247.824,82.135,243.402,82.135z M309.914,322.197v136.729l3.754,7.188l3.742-7.188V322.25c-1.039-0.018-2.078-0.035-3.137-0.035   C312.855,322.215,311.395,322.205,309.914,322.197z M182.652,454L190.758,454L204.18,421.221L196.078,421.221z 
M185.809,76.709L177.707,76.709L164.289,109.488L172.391,109.488z 
M227.066,414.84L218.961,414.84L202.922,454L211.027,454z 
M141.395,115.869L149.496,115.869L165.543,76.709L157.434,76.709z  "/>
</g></svg>