<?xml version="1.0" ?><svg style="enable-background:new 0 0 48 48;" version="1.1" viewBox="0 0 48 48" xml:space="preserve" xmlns="http://www.w3.org/2000/svg" xmlns:xlink="http://www.w3.org/1999/xlink"><style type="text/css">
	.Round_x0020_Corners_x0020_2_x0020_pt{fill:#FFFFFF;stroke:#231F20;stroke-miterlimit:10;}
	.Live_x0020_Reflect_x0020_X{fill:none;}
	.Bevel_x0020_Soft{fill:url(#SVGID_1_);}
	.Dusk{fill:#FFFFFF;}
	.Foliage_GS{fill:#FFDD00;}
	.Pompadour_GS{fill-rule:evenodd;clip-rule:evenodd;fill:#44ADE2;}
	.st0{fill:#303030;}
	.st1{fill:none;stroke:#303030;stroke-width:0.5;stroke-miterlimit:10;}
	.st2{fill:none;stroke:#303030;stroke-width:0.5;stroke-linecap:round;stroke-linejoin:round;stroke-miterlimit:10;}
	.st3{fill:none;stroke:#303030;stroke-miterlimit:10;}
	.st4{fill:none;stroke:#303030;stroke-width:0.7;stroke-linecap:round;stroke-linejoin:round;stroke-miterlimit:10;}
	.st5{fill:none;stroke:#303030;stroke-width:0.7;stroke-miterlimit:10;}
	.st6{fill:#303030;stroke:#303030;stroke-linecap:round;stroke-linejoin:round;stroke-miterlimit:10;}
	.st7{fill:#303030;stroke:#303030;stroke-width:0.5;stroke-linecap:round;stroke-linejoin:round;stroke-miterlimit:10;}
	.st8{fill:none;stroke:#FFFFFF;stroke-width:0.5;stroke-linecap:round;stroke-linejoin:round;stroke-miterlimit:10;}
	.st9{fill:none;stroke:#FFFFFF;stroke-width:0.5;stroke-miterlimit:10;}
	.st10{fill:none;}
	.st11{fill:#FFFFFF;}
	.st12{fill:none;stroke:#000000;stroke-width:0.5;stroke-linecap:round;stroke-linejoin:round;stroke-miterlimit:10;}
	.st13{fill:none;stroke:#FFFFFF;stroke-miterlimit:10;}
	.st14{fill:none;stroke:#FFFFFF;stroke-width:0.7;stroke-linecap:round;stroke-linejoin:round;stroke-miterlimit:10;}
	.st15{fill:none;stroke:#303030;stroke-width:0.4;stroke-linecap:round;stroke-linejoin:round;stroke-miterlimit:10;}
</style><linearGradient gradientUnits="userSpaceOnUse" id="SVGID_1_" x1="-348" x2="-347.29291" y1="-290" y2="-289.29288"><stop offset="0" style="stop-color:#DEDFE3"/><stop offset="0.17833" style="stop-color:#DADBDF"/><stop offset="0.36114" style="stop-color:#CECFD3"/><stop offset="0.54604" style="stop-color:#B9BCBF"/><stop offset="0.7324" style="stop-color:#9CA0A2"/><stop offset="0.91815" style="stop-color:#787D7E"/><stop offset="1" style="stop-color:#656B6C"/></linearGradient><g id="Padding__x26__Artboard"/><g id="Icons">

<path class="st15" d="M23.5294,16.25875c0,0-0.3444,0.5451-0.3444,0.6885s-0.6596,0.5737-0.545,0.9753l0.6885-0.1721     c0,0,0.7745,0.5163,0.3442,1.1188c0,0-0.698-0.0287-0.9849-0.1722c-0.2868-0.1434-0.7841-1.5968-0.7267-1.855     s0.6215-2.9068,0.6215-3.2224c0,0,0.459-0.2008,0.5164-0.4303c0.0574-0.2295,0.6311-0.7745,0.6311-0.7745     s-0.4877-0.3729-0.9753,0.2582c-0.4877,0.6311-0.4303-0.3442-0.8319-0.6311c-0.4015-0.2869-1.2335-0.4016-1.3195-0.4016     c-0.08619,0,0.7171,0.5163,0.8892,0.7458c0.1721,0.2295-0.2008,0.2008-0.2869,0.4877c-0.086,0.2868,0.2869,0.8319,0.5164,0.8893     c0.1795,0.045-0.2482,1.3277-0.28389,1.4457c-0.18221,0.6028-0.42131,1.112-0.39621,1.7618     c0.0174,0.4517,0.1066,0.8969,0.2267,1.3316c0.1063,0.3847,0.1999,0.8252,0.4372,1.1524     c0.1271,0.1752,0.2962,0.6576,0.42731,0.8297c0.34619,0.4543,0.27819,1.0283,0.22849,1.5768     c-0.0481,0.5318-0.201,1.2803-0.8118,1.4257c-1.2048,0.2869-2.4095-0.6598-2.8685-0.459c0,0,1.463,0.9753,1.6064,1.3483     c0,0-1.463-0.0287-1.6064,0.0286c-0.1435,0.0574,0.8892,0.459,0.8892,0.459s-2.3809,0.3729-2.8686,0.8319     c-0.4876,0.459-0.1721,1.5491,0.545,1.7499c0.71721,0.2008,2.1228,1.3769,2.467,1.9219     c0.3444,0.545,0.25821,1.8646-0.1721,2.0654c-0.4303,0.2008-0.962,0.8377-1.1915,0.3214     c-0.2295-0.5164-0.4219,1.5156,1.625,0.4219c0,0,0.255-0.0548,0.5992-0.772c0.3443-0.7171,1.0328-0.3155,0.9753-0.6024     c-0.0573-0.2868-0.4875-0.9753-0.9465-1.2909c-0.459-0.3155-0.459-1.9793-1.5205-2.3235c0,0,2.2949,0.4303,3.385-0.3443     c0,0-0.6598,3.2416-0.2008,3.9013c0.459,0.6598,2.2375,2.5244,2.7253,2.8686c0.4875,0.3443,0.6036,1.8628,0.3441,2.1228     c-0.5486,0.5497-1.3924,0.2685-1.3924,0.2685s2.0625,1.7969,2.253-0.7275c0,0,1.0753-0.7536,0.8319-1.1187     c-0.0574-0.0861-0.6024-0.7459-0.9754-0.8319c-0.3729-0.0861-0.545-0.3729-0.8319-0.6311     c-0.2868-0.2582-0.8892-1.8933-1.4343-2.2375c-0.1147-0.0287,1.8646-3.5858,1.8933-4.6471c0,0,1.23351,0.2008,1.463,0.3442     c0.22951,0.1434-0.2869-0.918-0.6023-0.9753c-0.3156-0.0574,0.7457-1.0327,1.0613-1.0614     c0.31551-0.0287-2.2662-0.4016-2.4957-0.2295s1.2048-1.8359,1.2048-2.6104c0,0,1.0901,0.4016,1.5491,0.9466     c0.4589,0.545,1.1187,1.6351,1.1187,1.7212c0,0.086,0.1434,1.4629,0.1434,1.4629s-0.3442,0.6311-0.6596,0.9754     c-0.3157,0.3442-0.5739,0.2868-0.5739,0.2868s0.5164,0.4303,0.8032,0.1148c0.2869-0.3156,0.5451-0.4303,0.5451-0.4303     s-0.0574,0.8319,0.2296,1.2335c0.2867,0.4016,0.45881,0.086,0.45881,0.086l-0.086-0.8605v-0.4303l0.71719,0.4876l0.459,0.2295     c0,0-0.2583-0.4876-0.3443-0.5163c-0.0861-0.0287-0.2295-0.3443-0.3156-0.3443c-0.086,0-0.3441-0.2294-0.3441-0.2294     l1.0326,0.1721h0.4877l-0.6598-0.3443c0,0-0.2869-0.1434-0.4015-0.1434l-0.6025-0.1721l0.4876-0.1434     c0.2869-0.1722,0.4303-0.2869,0.4303-0.2869l-0.8032-0.0574c-0.0609,0.0304-0.2972-1.2548-0.3146-1.3646     c-0.1276-0.8108-0.6639-1.6352-1.1496-2.2874c-0.2828-0.3798-0.6153-0.7277-1.0035-1.0009     c-0.3503-0.2466-0.7522-0.4032-1.118-0.6253l-1.1188-0.6024l0.0287-0.3155l0.545-0.6885c0,0,0.4877-0.5737,1.60641,0.545     c1.11879,1.1188,1.74989,1.0901,1.74989,1.0901l-1.3196-1.3482c0,0-0.545-0.9467-0.6884-1.0327     c-0.1435-0.0861-0.5164-0.2582-0.5164-0.2582s-0.6023-0.2295-0.5163-0.2295s0.4876-0.6311,0.6024-0.6598     c0.1147-0.0287,0.7746-0.0287,0.9466-0.0573c0.1721-0.0287,0.7172,0.0573,0.9467-0.0861     c0.2294-0.1434,0.5737-0.2582,0.6884-0.4016c0.1149-0.1434,0.3443-0.5164,0.3443-0.5164l0.1721-0.2868l-0.8605,0.459     l-0.6599,0.2295c0,0-0.3441,0.0286-0.4876,0.0286c-0.1435,0-0.6311,0.0861-0.7745,0.0574c-0.1435-0.0287-0.4017,0.0287-0.63119,0     c-0.22941-0.0287-0.631-0.0574-0.94661,0.0574c-0.3155,0.1147-0.2582-0.2295-0.2582-0.2295s0.8893-0.6024,0.918-0.8606     c0.0287-0.2582,0.0574,0.0287,0.086-0.459c0.0287-0.4876-0.172-1.004-0.172-1.004s0,1.6638-1.1188,1.8933     s-1.0901,0.6024-1.0901,0.6024L23.5294,16.25875z"/>

<path class="st15" d="M23.644,15.99605c0.5784-0.0092,1.7625,0.2019,2.41421,1.845"/><path class="st15" d="M20.2878,24.17615c0,0-0.2773,0.8318-0.77459,0.9466c-0.49721,0.1147,2.04629,0,2.42879-0.3825     c0,0,0.306,0.918,0.0574,1.1475c0,0,1.20481-0.4399,1.3195-0.7459c0,0,0.4781,1.2622,1.1666,1.5108     c0,0-0.2678-0.8988-0.0765-1.2239l1.2717,0.1817"/>

<path class="st15" d="M22.6878,18.69705c-0.0382,0.0957,0.0191,0.6311,0.2296,0.7267c0.2103,0.0957-0.134,0.6694-0.134,0.6694     l0.9562-0.1148l0.6694,0.6885l0.5928-0.7458l1.0901,0.0956v-0.6311"/>

<path class="st15" d="M23.5866,18.88835c0,0,0.1722,0.5546,1.6925,0.0669"/><path class="st15" d="M21.98021,23.13385c0,0,0.53549,1.1092,3.12679,0.5546"/></g><path class="st15" d="M23.7097,16.81985c0,0,0.43751-0.2031,0.6407-0.0312"/><path class="st15" d="M23.8504,18.30425c0,0,0.5937-0.0469,0.7656-0.4219"/>

</svg>