<?xml version="1.0"?>
<svg xmlns="http://www.w3.org/2000/svg" viewBox="0 0 32 32">
    <path style="text-indent:0;text-align:start;line-height:normal;text-transform:none;block-progression:tb;-inkscape-font-specification:Sans" d="M 5 5 C 3.3549904 5 2 6.3549904 2 8 C 2 9.6450096 3.3549904 11 5 11 C 5.8624205 11 6.6379632 10.62264 7.1875 10.03125 C 7.5951778 10.789981 8 11.819254 8 13 C 8 14.241511 7.6011605 14.678531 7.0625 16 C 6.5751496 17.195593 6.1173619 18.930511 6.03125 22 L 6 22 L 5 22 L 5 23 L 5 26 L 5 27 L 6 27 L 26 27 L 27 27 L 27 26 L 27 23 L 27 22 L 26 22 L 25.96875 22 C 25.784739 19.934821 25.037966 18.426138 24.34375 17.3125 C 23.943048 16.669707 23.558321 16.147752 23.3125 15.75 C 23.066679 15.352248 23 15.098558 23 15 C 23 14.802885 23.526877 13.797615 24.21875 13.0625 C 24.339885 12.933794 24.44394 12.865203 24.5625 12.75 C 25.109388 13.50795 26.003317 14 27 14 C 28.64501 14 30 12.64501 30 11 C 30 9.3549901 28.645009 8 27 8 C 25.697701 8 24.597866 8.8612097 24.1875 10.03125 C 20.48886 10.261028 18.023384 12.013596 16.5 14.09375 C 15.86185 12.132714 14.634814 10.559785 13.21875 9.4375 C 11.45837 8.042332 9.4737694 7.2635084 7.8125 7.0625 C 7.4102295 5.8781502 6.3125806 5 5 5 z M 5 7 C 5.5641294 7 6 7.4358706 6 8 C 6 8.5641294 5.5641294 9 5 9 C 4.4358706 9 4 8.5641294 4 8 C 4 7.4358706 4.4358706 7 5 7 z M 9.15625 9.46875 C 10.078699 9.7988443 11.075595 10.292141 11.96875 11 C 13.672888 12.350594 15 14.302388 15 17 C 14.023964 19.635628 14 22 14 22 L 8.03125 22 C 8.1179288 19.208701 8.5260163 17.759472 8.9375 16.75 C 9.3988395 15.618219 10 14.695489 10 13 C 10 11.601882 9.6120688 10.41051 9.15625 9.46875 z M 27 10 C 27.564129 10 28 10.435871 28 11 C 28 11.564128 27.564128 12 27 12 C 26.435872 12 26 11.564128 26 11 C 26 10.435871 26.435871 10 27 10 z M 22.21875 12.34375 C 21.580766 13.067538 21 13.895166 21 15 C 21 15.713942 21.308321 16.268846 21.625 16.78125 C 21.941679 17.293654 22.306952 17.783418 22.65625 18.34375 C 23.239712 19.279721 23.773317 20.398337 23.9375 22 L 16 22 C 16 22 16.021765 19.634771 17.03125 17.21875 L 17.0625 17.21875 L 17.0625 17.15625 C 17.097933 17.072912 17.118377 16.989571 17.15625 16.90625 C 18.041983 14.957638 19.474118 13.091458 22.21875 12.34375 z M 7 24 L 25 24 L 25 25 L 7 25 L 7 24 z" overflow="visible" font-family="Sans"/>
</svg>
