<?xml version="1.0" encoding="iso-8859-1"?>
<!-- Generator: Adobe Illustrator 19.0.0, SVG Export Plug-In . SVG Version: 6.00 Build 0)  -->
<svg version="1.1" id="Layer_1" xmlns="http://www.w3.org/2000/svg" xmlns:xlink="http://www.w3.org/1999/xlink" x="0px" y="0px"
	 viewBox="0 0 512 512" style="enable-background:new 0 0 512 512;" xml:space="preserve">
<g>
	<g>
		<g>
			<path d="M145.323,145.067c4.719,0,8.533-3.823,8.533-8.533S150.042,128,145.323,128h-0.085c-4.71,0-8.491,3.823-8.491,8.533
				S140.604,145.067,145.323,145.067z"/>
			<path d="M145.323,93.867c4.719,0,8.533-3.823,8.533-8.533c0-4.71-3.814-8.533-8.533-8.533h-0.085
				c-4.71,0-8.491,3.823-8.491,8.533C136.747,90.044,140.604,93.867,145.323,93.867z"/>
			<path d="M119.723,102.4h-0.085c-4.71,0-8.491,3.823-8.491,8.533s3.857,8.533,8.576,8.533s8.533-3.823,8.533-8.533
				S124.442,102.4,119.723,102.4z"/>
			<path d="M145.323,196.267c4.719,0,8.533-3.823,8.533-8.533s-3.814-8.533-8.533-8.533h-0.085c-4.71,0-8.491,3.823-8.491,8.533
				S140.604,196.267,145.323,196.267z"/>
			<path d="M110.933,494.933H8.533c-4.71,0-8.533,3.823-8.533,8.533S3.823,512,8.533,512h102.4c4.71,0,8.533-3.823,8.533-8.533
				S115.644,494.933,110.933,494.933z"/>
			<path d="M170.923,119.467c4.719,0,8.533-3.823,8.533-8.533s-3.814-8.533-8.533-8.533h-0.085c-4.71,0-8.491,3.823-8.491,8.533
				S166.204,119.467,170.923,119.467z"/>
			<path d="M119.723,153.6h-0.085c-4.71,0-8.491,3.823-8.491,8.533c0,4.71,3.857,8.533,8.576,8.533s8.533-3.823,8.533-8.533
				C128.256,157.423,124.442,153.6,119.723,153.6z"/>
			<path d="M170.923,170.667c4.719,0,8.533-3.823,8.533-8.533c0-4.71-3.814-8.533-8.533-8.533h-0.085
				c-4.71,0-8.491,3.823-8.491,8.533C162.347,166.844,166.204,170.667,170.923,170.667z"/>
			<path d="M452.267,494.933h-76.8v-102.4c0-0.171-0.085-0.316-0.102-0.486c38.391-4.224,68.369-36.821,68.369-76.314V230.4
				c0-49.536,16.649-116.727,16.811-117.393c0.947-3.789-0.794-7.731-4.224-9.583c-3.439-1.86-7.68-1.135-10.325,1.724
				c-1.101,1.186-8.644,9.438-19.328,22.605V102.4c0-61.56-35.951-102.4-59.733-102.4S307.2,40.841,307.2,102.4v18.739
				c-11.264-10.761-19.994-16.725-20.864-17.306c-2.935-1.954-6.758-1.903-9.651,0.128c-2.884,2.022-4.215,5.623-3.362,9.045
				c0.162,0.666,16.811,67.857,16.811,117.393v85.333c0,39.492,29.978,72.09,68.369,76.314c-0.017,0.171-0.102,0.316-0.102,0.486
				v102.4H153.6v-68.267c0-0.171-0.085-0.316-0.102-0.486c38.391-4.224,68.369-36.821,68.369-76.314v-85.333
				c0-49.536,16.648-116.727,16.811-117.393c0.947-3.789-0.794-7.731-4.224-9.583c-3.43-1.86-7.68-1.143-10.325,1.724
				c-1.101,1.186-8.644,9.438-19.328,22.605v-25.353c0-61.559-35.951-102.4-59.733-102.4c-23.782,0-59.733,40.841-59.733,102.4
				v18.739c-11.264-10.76-19.994-16.725-20.864-17.306c-2.927-1.954-6.767-1.911-9.651,0.128c-2.884,2.022-4.215,5.623-3.362,9.045
				c0.162,0.666,16.811,67.857,16.811,117.393v85.333c0,39.492,29.978,72.09,68.369,76.314c-0.017,0.171-0.102,0.316-0.102,0.486
				v76.8c0,4.71,3.823,8.533,8.533,8.533h307.2c4.71,0,8.533-3.823,8.533-8.533S456.977,494.933,452.267,494.933z M85.333,349.867
				v-85.333c0-32.896-6.741-72.03-11.81-96.853c15.556,14.933,36.719,40.158,46.276,73.6c1.289,4.531,6.016,7.159,10.547,5.854
				c4.531-1.289,7.151-6.016,5.854-10.547c-7.373-25.813-20.651-46.882-33.801-62.899v-37.154c0-55.987,31.701-85.333,42.667-85.333
				s42.667,29.346,42.667,85.333v47.309c-31.036,41.677-71.39,106.103-76.766,165.257c-0.427,4.693,3.029,8.841,7.731,9.267
				c4.71,0.367,8.841-3.029,9.267-7.731c5.751-63.241,56.764-135.893,86.827-173.756c-4.727,24.627-9.993,58.581-9.993,87.654
				v85.333c0,32.939-26.795,59.733-59.733,59.733C112.128,409.6,85.333,382.805,85.333,349.867z M307.2,315.733V230.4
				c0-32.896-6.741-72.03-11.81-96.853c15.556,14.933,36.719,40.158,46.276,73.6c1.289,4.531,6.016,7.151,10.547,5.854
				c4.531-1.289,7.151-6.016,5.854-10.547c-7.373-25.813-20.651-46.882-33.801-62.891V102.4c0-55.987,31.701-85.333,42.667-85.333
				S409.6,46.413,409.6,102.4v47.309c-31.036,41.677-71.39,106.103-76.766,165.257c-0.427,4.693,3.029,8.841,7.731,9.267
				c4.693,0.41,8.841-3.029,9.267-7.731c5.751-63.241,56.764-135.893,86.827-173.756c-4.727,24.627-9.993,58.581-9.993,87.654
				v85.333c0,32.939-26.795,59.733-59.733,59.733S307.2,348.672,307.2,315.733z"/>
			<path d="M367.189,110.933c4.719,0,8.533-3.823,8.533-8.533c0-4.71-3.814-8.533-8.533-8.533h-0.085
				c-4.71,0-8.491,3.823-8.491,8.533C358.613,107.11,362.47,110.933,367.189,110.933z"/>
			<path d="M367.189,162.133c4.719,0,8.533-3.823,8.533-8.533c0-4.71-3.814-8.533-8.533-8.533h-0.085
				c-4.71,0-8.491,3.823-8.491,8.533C358.613,158.31,362.47,162.133,367.189,162.133z"/>
			<path d="M392.789,85.333c4.719,0,8.533-3.823,8.533-8.533s-3.814-8.533-8.533-8.533h-0.085c-4.71,0-8.491,3.823-8.491,8.533
				S388.07,85.333,392.789,85.333z"/>
			<path d="M367.189,59.733c4.719,0,8.533-3.823,8.533-8.533s-3.814-8.533-8.533-8.533h-0.085c-4.71,0-8.491,3.823-8.491,8.533
				S362.47,59.733,367.189,59.733z"/>
			<path d="M503.467,494.933H486.4c-4.71,0-8.533,3.823-8.533,8.533S481.69,512,486.4,512h17.067c4.71,0,8.533-3.823,8.533-8.533
				S508.177,494.933,503.467,494.933z"/>
			<path d="M341.589,68.267h-0.085c-4.71,0-8.491,3.823-8.491,8.533s3.857,8.533,8.576,8.533s8.533-3.823,8.533-8.533
				S346.308,68.267,341.589,68.267z"/>
			<path d="M392.789,136.533c4.719,0,8.533-3.823,8.533-8.533s-3.814-8.533-8.533-8.533h-0.085c-4.71,0-8.491,3.823-8.491,8.533
				S388.07,136.533,392.789,136.533z"/>
			<path d="M341.589,119.467h-0.085c-4.71,0-8.491,3.823-8.491,8.533s3.857,8.533,8.576,8.533s8.533-3.823,8.533-8.533
				S346.308,119.467,341.589,119.467z"/>
		</g>
	</g>
</g>
<g>
</g>
<g>
</g>
<g>
</g>
<g>
</g>
<g>
</g>
<g>
</g>
<g>
</g>
<g>
</g>
<g>
</g>
<g>
</g>
<g>
</g>
<g>
</g>
<g>
</g>
<g>
</g>
<g>
</g>
</svg>
