<?xml version="1.0" encoding="iso-8859-1"?>
<!-- Generator: Adobe Illustrator 19.0.0, SVG Export Plug-In . SVG Version: 6.00 Build 0)  -->
<svg version="1.1" id="Layer_1" xmlns="http://www.w3.org/2000/svg" xmlns:xlink="http://www.w3.org/1999/xlink" x="0px" y="0px"
	 viewBox="0 0 512.001 512.001" style="enable-background:new 0 0 512.001 512.001;" xml:space="preserve">
<g>
	<g>
		<path d="M492.404,189.785c-9.4-9.438-22.275-22.365-25.23-29.754c-2.608-6.519-10.424-11.062-22.049-17.25
			c-1.363-0.727-2.695-1.434-3.897-2.094v-13.516h0.553c14.329,0,25.987-11.658,25.987-25.987c0-4.581-3.713-8.294-8.294-8.294
			c-4.58,0-8.294,3.712-8.294,8.294c0,5.183-4.216,9.4-9.4,9.4h-23.017c-1.373-2.048-3.442-6.397-3.957-14.421
			c6.624-5.933,24.656-24.102,26.397-47.442c0.342-4.567-3.085-8.547-7.653-8.888c-4.568-0.345-8.547,3.085-8.888,7.655
			c-1.241,16.614-15.001,30.849-20.556,35.953c-1.18-0.314-2.318-0.722-3.431-1.172c7.448-10.008,14.011-24.013,14.011-34.164
			c0-4.581-3.713-8.294-8.294-8.294c-4.58,0-8.294,3.712-8.294,8.294c0,5.348-4.97,16.725-11.072,24.755
			c-3.274-3.27-5.73-6.521-7.2-8.658c4.005-21.4-1.277-47.531-12.009-57.547c-3.347-3.125-8.597-2.946-11.722,0.404
			c-3.125,3.348-2.945,8.596,0.405,11.722c5.58,5.208,10.863,26.903,6.447,45.057c-0.497,2.041-0.2,4.195,0.83,6.026
			c0.344,0.613,5.059,8.83,13.558,16.659c-10.461-4.351-22.352-11.667-33.456-23.912c-0.331-15.91-3.156-35.394-10.272-45.744
			c-2.594-3.774-7.759-4.729-11.533-2.136c-3.774,2.595-4.731,7.76-2.135,11.534c3.269,4.755,5.849,15.581,6.887,27.86
			l-15.123-5.042c-4.344-1.444-9.041,0.9-10.491,5.245c-1.449,4.346,0.9,9.044,5.246,10.491l24.401,8.135
			c25.645,28.789,55.653,34.941,69.322,36.206c0.796,2.845,1.762,5.246,2.784,7.271c-3.295-2.124-7.172-4.002-11.756-5.457
			c-3.513-1.112-7.337,0.221-9.393,3.279c-0.691,1.03-4.161,6.644-4.548,16.142c-0.409,10.033,2.685,20.478,9.209,31.131
			c-5.552,4.508-14.638,11.634-24.71,18.513c-28.912,19.744-39.681,19.656-42.289,19.16c-17.269-3.29-34.376-2.005-48.124-0.972
			c-5.648,0.426-10.98,0.826-15.357,0.826c-13.271,0-37.839-4.252-61.599-8.363c-26.507-4.587-53.916-9.33-71.101-9.33
			c-23.855,0-47.699,11.689-63.5,21.496c-17.385,10.789-33.734,24.949-40.685,35.234c-8.115,12.009-5.466,21.62-3.339,29.341
			c0.985,3.575,1.916,6.952,1.916,10.689c0,4.809-4.493,10.792-8.457,16.07C4.486,300.514,0,306.489,0,313.504
			c0,4.581,3.712,8.313,8.293,8.313c4.58,0,8.293-3.695,8.293-8.275c0.148-1.714,3.618-6.335,5.915-9.393
			c5.243-6.982,11.766-15.671,11.778-26.001c1.53,2.554,3.209,4.961,5.04,7.289c7.516,20.374,5.308,41.972-6.58,64.203
			c-9.243,17.284-21.124,28.449-21.233,28.55c-1.694,1.569-2.659,3.776-2.659,6.088v67.491c-0.002,0.105-0.002,0.209,0,0.313v20.662
			c0,0.891,0.144,1.777,0.426,2.623l8.847,26.54c1.129,3.387,4.298,5.671,7.868,5.671H43.68c2.944,0,5.667-1.56,7.156-4.1
			c1.488-2.54,1.519-5.68,0.08-8.247l-25.482-45.477v-12.1c1.288-22.495,22.68-43.541,41.56-62.115
			c5.965-5.869,11.766-11.582,16.858-17.231c-0.257,1.46-0.546,2.934-0.91,4.442c-3.492,14.48-10.745,25.727-10.811,25.826
			c-1.392,2.122-1.736,4.765-0.933,7.172l26.54,79.62c0.233,0.699,0.558,1.364,0.968,1.977l17.693,26.54
			c1.538,2.308,4.127,3.693,6.9,3.693h17.693c3.268,0,6.23-1.919,7.567-4.901c1.337-2.981,0.799-6.47-1.375-8.911l-41.273-46.33
			l-7.639-22.918c6.125-20.1,24.556-41.259,42.393-61.727c6.897-7.916,13.663-15.682,19.596-23.287
			c10.289,1.188,39.729,4.262,68.942,4.262c12.637,0,25.22-0.582,36.194-2.135v59.319l-17.446,69.782
			c-0.383,1.53-0.322,3.138,0.178,4.635l8.847,26.54c1.129,3.387,4.298,5.671,7.868,5.671h17.693c2.934,0,5.65-1.55,7.141-4.078
			c1.492-2.526,1.537-5.653,0.119-8.222l-21.255-38.525l13.05-52.202l6.642-16.362l3.702,14.804v48.776
			c-0.002,0.105-0.002,0.21,0,0.315v20.661c0,0.891,0.144,1.777,0.426,2.623l8.847,26.54c1.129,3.387,4.298,5.671,7.868,5.671
			h17.693c2.944,0,5.667-1.56,7.156-4.1c1.488-2.54,1.519-5.68,0.08-8.247l-25.482-45.477v-46.056
			c3.043-7.078,14.649-35.079,17.197-56.128c17.348-3.001,43.225-15.37,52.803-47.877c6.468-8.069,38.911-48.923,51.786-72.34
			c8.604,3.175,23.173,7.441,36.706,6.185c9.11,4.031,16.852,6.067,23.304,6.067c4.76,0,8.829-1.093,12.256-3.274
			c4.297-2.738,9.422-8.454,9.422-20.139C512,209.72,506.344,203.78,492.404,189.785z M55.362,363.712
			c-10.283,10.115-21.229,20.893-29.928,32.64v-8.632c4.487-4.662,13.805-15.212,21.673-29.772
			c9.205-17.038,13.577-34.356,13.059-51.175c3.928,3.703,8.289,7.848,13.038,12.595c4.024,4.024,7.001,8.577,8.932,13.634
			C77.248,342.171,66.615,352.644,55.362,363.712z M493.669,222.339c-0.498,0.317-5.33,2.867-21.742-4.771
			c-0.022-0.011-0.045-0.02-0.068-0.031c-0.011-0.004-0.021-0.01-0.032-0.014c-0.024-0.011-0.049-0.019-0.073-0.03
			c-0.222-0.102-0.448-0.195-0.68-0.276c-0.071-0.025-0.143-0.043-0.213-0.066c-0.185-0.06-0.37-0.117-0.56-0.164
			c-0.111-0.028-0.222-0.046-0.333-0.07c-0.149-0.03-0.299-0.062-0.45-0.085c-0.15-0.022-0.301-0.034-0.451-0.048
			c-0.114-0.01-0.228-0.024-0.343-0.03c-0.195-0.009-0.389-0.007-0.583-0.003c-0.074,0.002-0.147-0.001-0.221,0.003
			c-0.255,0.012-0.51,0.038-0.762,0.074c-0.016,0.002-0.031,0.002-0.046,0.004c-0.016,0.002-0.032,0.003-0.049,0.006
			c-0.016,0.002-0.031,0.003-0.045,0.005c-16.016,2.298-36.954-7.493-37.155-7.588c-2.058-0.981-4.428-1.072-6.553-0.249
			c-2.127,0.821-3.821,2.48-4.685,4.588c-6.877,16.762-41.363,61.269-54.071,77.003c-0.723,0.896-1.252,1.931-1.553,3.041
			c-9.957,36.717-43.826,38.073-45.223,38.111c-4.522,0.081-8.146,3.77-8.146,8.293c0,9.076-3.634,22.469-7.705,34.509
			l-11.094-44.376v-16.673c0-4.581-3.713-8.294-8.294-8.294c-4.58,0-8.294,3.712-8.294,8.294v9.536
			c-27.115,7.248-79.227,3.3-103.11,0.931c5.602-9.296,9.114-18.323,9.114-27.053c0-4.581-3.713-8.294-8.294-8.294
			c-4.58,0-8.294,3.712-8.294,8.294c0,14.235-18.048,34.948-35.502,54.978c-13.943,16.001-28.226,32.398-37.667,49.286l-2.358-7.073
			c2.842-5.038,7.84-14.954,10.81-26.977c5.893-23.858,1.046-44.43-14.015-59.492c-5.613-5.614-10.643-10.351-15.08-14.532
			c-13.642-12.848-21.156-19.926-25.723-32.865c-4.738-13.426-0.818-24.322,2.226-26.918c0.254-0.217,0.487-0.448,0.708-0.687
			c18.652-15.894,49.973-34.693,76.238-34.693c15.76,0,42.456,4.62,68.273,9.088c25.575,4.426,49.73,8.606,64.427,8.606
			c4.998,0,10.633-0.424,16.597-0.871c13.436-1.01,28.663-2.152,43.777,0.724c25.85,4.929,76.665-37.539,86.59-46.101
			c3.282-2.832,3.829-7.713,1.257-11.202c-9.227-12.513-10.771-21.98-10.355-27.868c9.695,6.22,10.779,15.433,10.886,16.736
			c0.291,4.535,4.182,7.992,8.728,7.75c4.574-0.25,8.079-4.16,7.829-8.734c-0.034-0.633-0.65-9.781-7.144-18.976
			c0.355,0.046,0.713,0.075,1.074,0.075h9.4v18.246c0,2.773,1.386,5.363,3.693,6.9c2.35,1.567,5.58,3.287,8.998,5.106
			c4.165,2.216,12.748,6.785,14.575,9.094c0.033,0.08,0.077,0.161,0.111,0.242h-0.284c-4.58,0-8.294,3.712-8.294,8.294
			c0,4.581,3.713,8.294,8.294,8.294h10.69c0.31,0,0.615-0.02,0.916-0.053c5.275,6.103,11.487,12.346,17.314,18.195
			c5.448,5.471,12.771,12.824,14.729,15.905C495.238,219.951,494.632,221.726,493.669,222.339z"/>
	</g>
</g>
<g>
</g>
<g>
</g>
<g>
</g>
<g>
</g>
<g>
</g>
<g>
</g>
<g>
</g>
<g>
</g>
<g>
</g>
<g>
</g>
<g>
</g>
<g>
</g>
<g>
</g>
<g>
</g>
<g>
</g>
</svg>
