<?xml version="1.0" encoding="iso-8859-1"?>
<!-- Generator: Adobe Illustrator 19.0.0, SVG Export Plug-In . SVG Version: 6.00 Build 0)  -->
<svg version="1.1" id="Layer_1" xmlns="http://www.w3.org/2000/svg" xmlns:xlink="http://www.w3.org/1999/xlink" x="0px" y="0px"
	 viewBox="0 0 512 512" style="enable-background:new 0 0 512 512;" xml:space="preserve">
<g>
	<g>
		<path d="M464.224,208.224c-14.935,0-34.932,7.032-48.628,17.102c-1.963,1.442-4.259,2.206-6.64,2.206
			c-2.028,0-3.998-0.574-5.696-1.661l-17.194-11.007c-2.252-1.441-4.84-2.204-7.487-2.204c-7.68,0-13.928,6.246-13.928,13.923
			v58.836c0,7.677,6.247,13.923,13.927,13.923c2.646,0,5.235-0.762,7.488-2.205l17.194-11.006c1.698-1.087,3.668-1.662,5.696-1.662
			c2.38,0,4.676,0.762,6.639,2.207c13.699,10.069,33.696,17.102,48.629,17.102c26.344,0,47.776-21.432,47.776-47.776
			C512,229.656,490.568,208.224,464.224,208.224z M464.224,286.955c-11.5,0-27.76-5.818-38.666-13.833
			c-4.871-3.581-10.612-5.474-16.603-5.474c-5.249,0-10.356,1.493-14.766,4.316l-12.717,8.141v-48.208l12.717,8.141
			c4.411,2.825,9.518,4.317,14.766,4.316c5.989,0,11.731-1.892,16.603-5.473c10.904-8.015,27.165-13.833,38.666-13.833
			c17.068,0,30.954,13.886,30.954,30.954C495.179,273.069,481.292,286.955,464.224,286.955z"/>
	</g>
</g>
<g>
	<g>
		<circle cx="469.4" cy="252.888" r="8.288"/>
	</g>
</g>
<g>
	<g>
		<path d="M281.899,208.224c-14.935,0-34.933,7.032-48.628,17.102c-1.963,1.442-4.259,2.206-6.64,2.206
			c-2.029,0-3.999-0.574-5.697-1.661l-17.194-11.007c-2.252-1.441-4.841-2.204-7.487-2.204c-7.68,0-13.928,6.246-13.928,13.923
			v58.836c0,7.677,6.248,13.923,13.927,13.923c2.646,0,5.236-0.762,7.489-2.206l17.193-11.005c1.699-1.087,3.669-1.662,5.697-1.662
			c2.38,0,4.676,0.762,6.639,2.207c13.699,10.069,33.695,17.102,48.628,17.102c26.344,0,47.778-21.433,47.778-47.777
			S308.243,208.224,281.899,208.224z M281.899,286.955c-11.5,0-27.76-5.818-38.666-13.833c-4.871-3.581-10.612-5.474-16.603-5.474
			c-5.249,0-10.357,1.493-14.767,4.317l-12.717,8.139v-48.208l12.717,8.142c4.411,2.824,9.518,4.316,14.767,4.316
			c5.989,0,11.731-1.892,16.603-5.473c10.903-8.015,27.164-13.833,38.665-13.833c17.068,0,30.956,13.886,30.956,30.954
			C312.854,273.069,298.967,286.955,281.899,286.955z"/>
	</g>
</g>
<g>
	<g>
		<circle cx="287.077" cy="252.888" r="8.288"/>
	</g>
</g>
<g>
	<g>
		<path d="M382.384,338.751c-14.933,0-34.931,7.032-48.628,17.102c-1.963,1.443-4.259,2.207-6.639,2.207
			c-2.029,0-3.999-0.575-5.698-1.663l-17.191-11.004c-2.253-1.442-4.842-2.206-7.489-2.206c-7.679,0-13.927,6.246-13.927,13.923
			v58.836c0,7.677,6.248,13.923,13.927,13.923c2.646,0,5.236-0.763,7.489-2.206l17.192-11.004c1.699-1.088,3.669-1.662,5.697-1.662
			c2.381,0,4.677,0.763,6.64,2.206c13.699,10.069,33.695,17.102,48.628,17.102c26.344,0,47.776-21.432,47.776-47.776
			C430.161,360.184,408.728,338.751,382.384,338.751z M382.384,417.482c-11.5,0-27.76-5.818-38.666-13.835
			c-4.872-3.58-10.613-5.472-16.603-5.472c-5.249,0-10.355,1.492-14.766,4.316l-12.717,8.139v-48.207l12.717,8.139
			c4.411,2.824,9.518,4.317,14.767,4.317c5.989,0,11.731-1.893,16.602-5.473c10.905-8.016,27.166-13.835,38.666-13.835
			c17.068,0,30.954,13.886,30.954,30.954C413.34,403.596,399.454,417.482,382.384,417.482z"/>
	</g>
</g>
<g>
	<g>
		<circle cx="387.564" cy="383.421" r="8.288"/>
	</g>
</g>
<g>
	<g>
		<path d="M370.989,77.696c-14.933,0-34.931,7.032-48.628,17.102c-1.963,1.443-4.259,2.207-6.639,2.207
			c-2.029,0-3.999-0.575-5.698-1.663L292.83,84.338c-2.253-1.442-4.842-2.206-7.488-2.206c-7.68,0-13.927,6.246-13.927,13.923
			v58.836c0,7.675,6.247,13.922,13.927,13.922c2.646,0,5.235-0.763,7.488-2.206l17.192-11.004c1.699-1.088,3.669-1.662,5.697-1.662
			c2.381,0,4.677,0.763,6.64,2.206c13.699,10.069,33.695,17.102,48.628,17.102c26.344,0,47.776-21.432,47.776-47.776
			C418.765,99.128,397.332,77.696,370.989,77.696z M370.99,156.424c-11.5,0-27.76-5.818-38.666-13.834
			c-4.872-3.58-10.613-5.472-16.603-5.472c-5.249,0-10.355,1.492-14.766,4.316l-12.717,8.139v-48.205l12.716,8.139
			c4.411,2.825,9.518,4.317,14.767,4.317c5.989,0,11.731-1.893,16.603-5.473c10.904-8.016,27.167-13.835,38.666-13.835
			c17.068,0,30.954,13.886,30.954,30.954S388.058,156.424,370.99,156.424z"/>
	</g>
</g>
<g>
	<g>
		<circle cx="376.168" cy="122.364" r="8.288"/>
	</g>
</g>
<g>
	<g>
		<path d="M188.664,77.696c-14.933,0-34.931,7.032-48.628,17.103c-1.963,1.442-4.258,2.206-6.639,2.206
			c-2.029,0-3.999-0.575-5.698-1.663l-17.192-11.006c-2.253-1.442-4.842-2.206-7.489-2.206c-7.68,0-13.927,6.246-13.927,13.923
			v58.836c0.001,7.677,6.248,13.924,13.928,13.924c2.646,0,5.235-0.763,7.488-2.206l17.192-11.004
			c1.699-1.088,3.669-1.662,5.697-1.662c2.381,0,4.677,0.762,6.64,2.206c13.699,10.069,33.695,17.102,48.628,17.102
			c26.344,0,47.777-21.432,47.777-47.776C236.441,99.128,215.008,77.696,188.664,77.696z M188.664,156.424
			c-11.5,0-27.76-5.818-38.666-13.834c-4.871-3.58-10.612-5.472-16.603-5.472c-5.249,0-10.356,1.492-14.766,4.316l-12.717,8.139
			v-48.206l12.717,8.14c4.411,2.824,9.518,4.316,14.767,4.316c5.99,0,11.731-1.893,16.602-5.473
			c10.906-8.016,27.167-13.835,38.666-13.835c17.068,0,30.956,13.886,30.956,30.954S205.734,156.424,188.664,156.424z"/>
	</g>
</g>
<g>
	<g>
		<circle cx="193.845" cy="122.364" r="8.288"/>
	</g>
</g>
<g>
	<g>
		<path d="M99.574,208.224c-14.935,0-34.932,7.032-48.628,17.102c-1.963,1.442-4.259,2.206-6.64,2.206
			c-2.028,0-3.998-0.574-5.696-1.661l-17.193-11.007c-2.252-1.441-4.84-2.204-7.486-2.204c-7.682,0-13.93,6.245-13.93,13.923v58.836
			c0,7.677,6.247,13.923,13.927,13.923c2.646,0,5.235-0.762,7.488-2.206l17.194-11.005c1.698-1.087,3.668-1.662,5.696-1.662
			c2.38,0,4.676,0.762,6.639,2.207c13.699,10.069,33.696,17.102,48.629,17.102c26.344,0,47.777-21.433,47.777-47.777
			S125.917,208.224,99.574,208.224z M99.573,286.955c-11.499,0-27.76-5.818-38.666-13.833c-4.871-3.581-10.612-5.474-16.603-5.474
			c-5.249,0-10.356,1.493-14.766,4.317l-12.717,8.139v-48.208l12.717,8.141c4.411,2.825,9.518,4.317,14.766,4.316
			c5.989,0,11.731-1.892,16.603-5.473c10.904-8.015,27.165-13.833,38.666-13.833c17.068,0,30.954,13.886,30.954,30.954
			C130.528,273.069,116.642,286.955,99.573,286.955z"/>
	</g>
</g>
<g>
	<g>
		<circle cx="104.755" cy="252.888" r="8.288"/>
	</g>
</g>
<g>
	<g>
		<path d="M200.06,338.751c-14.933,0-34.931,7.032-48.629,17.102c-1.963,1.442-4.258,2.206-6.638,2.206
			c-2.029,0-3.999-0.575-5.698-1.663l-17.191-11.004c-2.253-1.442-4.842-2.206-7.489-2.206c-7.68,0-13.927,6.246-13.927,13.923
			v58.836c0,7.677,6.247,13.923,13.927,13.923c2.646,0,5.235-0.763,7.488-2.206l17.192-11.004c1.699-1.088,3.669-1.662,5.697-1.662
			c2.381,0,4.677,0.762,6.639,2.206c13.699,10.069,33.696,17.102,48.63,17.102c26.344,0,47.776-21.432,47.776-47.776
			C247.835,360.184,226.404,338.751,200.06,338.751z M200.06,417.482c-11.499,0-27.76-5.818-38.667-13.835
			c-4.871-3.58-10.612-5.472-16.603-5.472c-5.249,0-10.356,1.492-14.766,4.316l-12.717,8.139v-48.207l12.717,8.141
			c4.411,2.824,9.518,4.316,14.767,4.316c5.989,0,11.731-1.893,16.602-5.473c10.905-8.016,27.167-13.834,38.666-13.834
			c17.068,0,30.954,13.886,30.954,30.954C231.014,403.596,217.128,417.482,200.06,417.482z"/>
	</g>
</g>
<g>
	<g>
		<circle cx="205.242" cy="383.421" r="8.288"/>
	</g>
</g>
<g>
</g>
<g>
</g>
<g>
</g>
<g>
</g>
<g>
</g>
<g>
</g>
<g>
</g>
<g>
</g>
<g>
</g>
<g>
</g>
<g>
</g>
<g>
</g>
<g>
</g>
<g>
</g>
<g>
</g>
</svg>
