<?xml version="1.0" encoding="iso-8859-1"?>
<!-- Generator: Adobe Illustrator 19.0.0, SVG Export Plug-In . SVG Version: 6.00 Build 0)  -->
<svg version="1.1" id="Layer_1" xmlns="http://www.w3.org/2000/svg" xmlns:xlink="http://www.w3.org/1999/xlink" x="0px" y="0px"
	 viewBox="0 0 512 512" style="enable-background:new 0 0 512 512;" xml:space="preserve">
<g>
	<g>
		<path d="M176.213,201.55L101.692,5.978C100.314,2.366,96.853,0,92.987,0s-7.327,2.398-8.706,6.01L9.761,201.632
			c-1.091,2.861-0.705,5.905,1.037,8.429c1.737,2.524,4.603,3.857,7.669,3.857h64.041v55.89h18.63v-55.89h66.37
			c3.066,0,5.931-1.33,7.669-3.855C176.918,207.539,177.304,204.411,176.213,201.55z M31.984,195.288L92.987,35.153l61.003,160.135
			H31.984z"/>
	</g>
</g>
<g>
	<g>
		<path d="M502.299,276.317L418.464,43.44c-1.333-3.693-4.835-6.158-8.765-6.158s-7.432,2.465-8.765,6.158l-83.836,232.877
			c-1.028,2.857-0.6,5.856,1.142,8.34c1.747,2.479,4.589,3.782,7.623,3.782h73.356v55.89h18.63v-55.89h75.685
			c3.034,0,5.876-1.303,7.623-3.782C502.9,282.173,503.327,279.173,502.299,276.317z M339.117,269.808l70.582-196.062
			l70.582,196.062H339.117z"/>
	</g>
</g>
<g>
	<g>
		<path d="M334.573,443.755L232.108,173.706c-1.373-3.621-4.839-6.013-8.71-6.013c-3.871,0-7.336,2.392-8.71,6.013L112.222,443.843
			c-1.087,2.861-0.696,5.897,1.041,8.417c1.742,2.52,4.607,3.85,7.669,3.85h91.986V512h18.63v-55.89h94.315
			c3.061,0,5.926-1.33,7.669-3.85C335.27,449.74,335.661,446.616,334.573,443.755z M134.427,437.479l88.971-234.555l88.971,234.555
			H134.427z"/>
	</g>
</g>
<g>
</g>
<g>
</g>
<g>
</g>
<g>
</g>
<g>
</g>
<g>
</g>
<g>
</g>
<g>
</g>
<g>
</g>
<g>
</g>
<g>
</g>
<g>
</g>
<g>
</g>
<g>
</g>
<g>
</g>
</svg>
