<?xml version="1.0" encoding="iso-8859-1"?>
<!-- Generator: Adobe Illustrator 17.1.0, SVG Export Plug-In . SVG Version: 6.00 Build 0)  -->
<!DOCTYPE svg PUBLIC "-//W3C//DTD SVG 1.1//EN" "http://www.w3.org/Graphics/SVG/1.1/DTD/svg11.dtd">
<svg version="1.1" id="Capa_1" xmlns="http://www.w3.org/2000/svg" xmlns:xlink="http://www.w3.org/1999/xlink" x="0px" y="0px"
	 viewBox="0 0 298.667 298.667" style="enable-background:new 0 0 298.667 298.667;" xml:space="preserve">
<g>
	<path d="M246.434,148.851c28.323-27.438,44.33-55.983,32.744-76.05c-4.393-7.608-14.717-16.679-38.954-16.679
		c-11.98,0-25.915,2.195-40.988,6.304C189.493,26.211,173.14,0,150.775,0c-22.854,0-39.432,27.369-49.092,64.815
		c-15.983-4.531-30.752-6.961-43.357-6.961c-24.237,0-34.562,9.07-38.954,16.679c-8.623,14.935-2.007,36.63,18.632,61.088
		c3.728,4.418,7.849,8.858,12.312,13.289c-4.021,4.049-7.753,8.103-11.157,12.137c-20.639,24.458-27.256,46.152-18.632,61.087
		c4.393,7.609,14.717,16.679,38.955,16.679c12.195,0,26.418-2.278,41.805-6.529c9.599,38.247,26.316,66.384,49.489,66.384
		c22.689,0,39.192-26.973,48.882-64.002c14.469,3.834,27.852,5.88,39.413,5.88c24.237,0,34.562-9.07,38.954-16.679
		c8.623-14.936,2.007-36.63-18.632-61.088C255.485,158.148,251.146,153.493,246.434,148.851z M240.224,72.122
		c12.954,0,21.867,3.082,25.099,8.679c4.855,8.409-1.502,24.397-17.005,42.77c-4.044,4.792-8.61,9.62-13.595,14.439
		c-8.023-6.998-16.837-13.899-26.277-20.574c-1.133-13.577-2.984-26.889-5.537-39.392C216.821,74.199,229.559,72.122,240.224,72.122
		z M171.352,184.707c-7.905,4.564-15.892,8.788-23.838,12.639c-6.78-3.377-13.578-7.018-20.316-10.908
		c-6.389-3.689-12.582-7.513-18.563-11.432c-0.563-8.374-0.859-16.955-0.859-25.673c0-9.163,0.318-18.181,0.939-26.959
		c6.313-4.169,12.864-8.234,19.638-12.146c6.359-3.672,12.772-7.126,19.173-10.342c7.561,3.698,15.153,7.733,22.673,12.074
		c7.936,4.581,15.587,9.367,22.878,14.294c0.454,7.551,0.699,15.257,0.699,23.078c0,7.377-0.215,14.653-0.619,21.793
		C186.185,175.8,178.902,180.348,171.352,184.707z M191.444,191.28c-0.911,7.981-2.075,15.707-3.499,23.077
		c-7.129-2.424-14.471-5.25-21.919-8.438c4.443-2.346,8.891-4.796,13.326-7.356C183.417,196.217,187.453,193.784,191.444,191.28z
		 M128.903,205.714c-5.336,2.21-10.606,4.223-15.775,6.035c-0.983-5.367-1.844-10.897-2.562-16.584
		c2.841,1.734,5.718,3.446,8.632,5.129C122.429,202.159,125.666,203.962,128.903,205.714z M92.037,163.446
		c-6.471-4.791-12.592-9.673-18.273-14.602c5.688-4.991,11.816-9.939,18.32-14.797c-0.203,5.099-0.309,10.203-0.309,15.285
		C91.775,154.026,91.864,158.737,92.037,163.446z M110.747,102.098c0.748-5.722,1.635-11.29,2.652-16.68
		c5.131,1.829,10.36,3.863,15.649,6.079c-2.9,1.581-5.801,3.205-8.695,4.876C117.105,98.248,113.902,100.158,110.747,102.098z
		 M165.913,91.293c7.376-3.192,14.65-6.027,21.728-8.478c1.473,7.395,2.688,15.147,3.639,23.176
		c-4.272-2.686-8.634-5.32-13.081-7.888C174.109,95.743,170.011,93.472,165.913,91.293z M209.608,138.145
		c4.6,3.521,8.996,7.088,13.169,10.678c-4.172,3.551-8.549,7.076-13.135,10.556c0.088-3.352,0.133-6.703,0.133-10.045
		C209.775,145.612,209.718,141.878,209.608,138.145z M122.238,52.111C130.397,29.499,141.065,16,150.775,16
		s20.378,13.499,28.537,36.111c1.703,4.718,3.262,9.732,4.68,14.99c-11.807,4.008-24.104,9.046-36.555,14.997
		c-10.374-4.82-20.618-8.998-30.535-12.459C118.491,63.455,120.265,57.579,122.238,52.111z M33.227,82.533
		c3.231-5.597,12.144-8.679,25.099-8.679c11.304,0,24.938,2.337,39.826,6.635c-2.054,10.521-3.619,21.581-4.685,32.865
		c-11.466,7.915-22.063,16.179-31.511,24.565c-4.259-4.213-8.19-8.429-11.725-12.617C34.729,106.931,28.373,90.942,33.227,82.533z
		 M59.481,222.813c-12.954,0-21.868-3.082-25.1-8.679c-4.854-8.409,1.502-24.398,17.005-42.769
		c3.233-3.832,6.795-7.688,10.639-11.544c9.422,8.268,19.952,16.406,31.321,24.199c1.015,11.165,2.519,22.124,4.5,32.572
		C83.527,220.624,70.414,222.813,59.481,222.813z M179.312,246.556c-8.159,22.612-18.827,36.111-28.537,36.111
		s-20.378-13.499-28.537-36.111c-2.129-5.9-4.028-12.272-5.71-19.002c10.02-3.435,20.384-7.602,30.893-12.439
		c12.605,5.973,25.041,11.002,36.959,14.971C182.859,235.883,181.174,241.398,179.312,246.556z M264.168,215.866
		c-3.23,5.597-12.145,8.679-25.098,8.679c-10.285,0-22.502-1.939-35.835-5.523c2.468-12.448,4.249-25.667,5.323-39.129
		c9.189-6.479,17.953-13.279,26.032-20.239c4.585,4.488,8.809,8.981,12.573,13.443C262.667,191.469,269.023,207.457,264.168,215.866
		z"/>
	<circle cx="150.775" cy="149.001" r="16"/>
</g>
<g>
</g>
<g>
</g>
<g>
</g>
<g>
</g>
<g>
</g>
<g>
</g>
<g>
</g>
<g>
</g>
<g>
</g>
<g>
</g>
<g>
</g>
<g>
</g>
<g>
</g>
<g>
</g>
<g>
</g>
</svg>
