<?xml version="1.0" encoding="iso-8859-1"?>
<!-- Generator: Adobe Illustrator 18.0.0, SVG Export Plug-In . SVG Version: 6.00 Build 0)  -->
<!DOCTYPE svg PUBLIC "-//W3C//DTD SVG 1.1//EN" "http://www.w3.org/Graphics/SVG/1.1/DTD/svg11.dtd">
<svg version="1.1" id="Capa_1" xmlns="http://www.w3.org/2000/svg" xmlns:xlink="http://www.w3.org/1999/xlink" x="0px" y="0px"
	 viewBox="0 0 462.554 462.554" style="enable-background:new 0 0 462.554 462.554;" xml:space="preserve">
<path d="M458.435,164.564l-40.441-58.935l8.157-15.859c1.895-3.683,0.444-8.205-3.239-10.1c-3.683-1.895-8.205-0.444-10.1,3.239
	l-8.373,16.278c-3.168,0.41-8.033,1.125-14.323,2.299c0.854-2.915-0.118-6.178-2.69-8.108c-3.313-2.485-8.016-1.813-10.5,1.5
	c-0.148,0.197-3.45,4.622-6.933,10.987c-2.581,0.637-5.264,1.326-8.049,2.075c-0.408-1.958-1.586-3.751-3.429-4.875
	c-3.536-2.156-8.151-1.039-10.309,2.497c-0.101,0.164-1.886,3.108-4.03,7.586c-3.523,1.118-7.152,2.321-10.874,3.612
	c-0.456-2.535-2.2-4.77-4.793-5.721c-3.888-1.426-8.197,0.57-9.624,4.458c-0.063,0.171-1.116,3.066-2.269,7.439
	c-4.055,1.595-8.191,3.292-12.398,5.098c-0.359-3.089-2.623-5.753-5.831-6.459c-4.043-0.891-8.047,1.666-8.938,5.711
	c-0.04,0.182-0.728,3.348-1.291,8.028c-5.032,2.404-10.138,4.958-15.304,7.682c-11.42,6.024-23.502,9.999-35.918,11.814
	c-0.011,0.002-0.021,0.003-0.032,0.005c-1.366-3.58-4.001-6.515-7.522-8.233c-4.286-2.09-9.193-2.072-13.463,0.051
	c-17.388,8.645-37.727,7.871-54.407-2.067l-11.376-6.778c-2.438-1.453-5.489-1.406-7.881,0.125c-2.391,1.53-3.714,4.28-3.416,7.104
	l1.491,14.147c0.263,2.498,0.675,4.976,1.216,7.425c-1.778,0.003-4.21-0.087-7.635-0.349c-12.911-0.991-25.526,1.412-36.544,6.72
	c-4.13-1.663-11.472-4.073-20.44-4.622c-12.824-0.782-31.521,2.132-47.78,20.483C13.377,206.62,13.373,225.2,13.37,243.168
	c-0.003,16.652-0.006,32.38-11.953,48.943c-2.061,2.856-1.856,6.761,0.491,9.387C3.373,303.135,5.423,304,7.504,304
	c1.256,0,2.523-0.315,3.679-0.967c22.745-12.818,39.011-32.927,48.926-48.146c1.274,4.131,2.964,8.176,5.099,12.068
	c2.066,3.768,4.384,7.122,6.928,10.027L57.966,302.91c-4.817,8.814-5.231,19.359-1.456,28.448l-39.19,29.916
	c-3.292,2.513-3.924,7.22-1.411,10.512c1.476,1.934,3.708,2.95,5.967,2.95c1.587,0,3.187-0.502,4.545-1.539l85.815-68.558
	c1-0.838,1.975-1.704,2.933-2.586l41.777,68.848c1.422,2.282,3.869,3.535,6.373,3.535c1.354,0,2.725-0.367,3.959-1.136
	c3.516-2.19,4.59-6.816,2.399-10.332l-30.911-49.605l19.972-45.088c13.621,5.801,31.52,10.646,53.304,10.646
	c13.701,0,28.942-1.924,45.618-6.726c3.97,7.988,9.042,16.198,14.388,23.982l-0.65,31.349l-25.652,27.228
	c-2.84,3.015-2.699,7.762,0.316,10.602c1.449,1.365,3.297,2.041,5.142,2.041c1.995,0,3.985-0.791,5.46-2.357l27.632-29.329
	c1.274-1.353,2.001-3.13,2.04-4.988l0.309-14.889c7.42,9.339,13.815,16.563,16.692,19.746l6.557,41.796
	c0.58,3.698,3.771,6.338,7.4,6.338c0.386,0,0.778-0.03,1.172-0.092c4.092-0.642,6.889-4.479,6.247-8.572l-6.82-43.468l0.019-64.936
	l12.49-13.432c8.964-9.639,13.065-22.684,11.495-35.493c7.009,2.06,14.231,3.088,21.445,3.088c14.37,0,28.708-4.073,41.27-12.162
	l18.559-11.951c1.233,0.691,2.438,1.367,3.592,2.013c5.581,3.132,12.048,3.896,18.206,2.154c6.185-1.75,11.317-5.816,14.468-11.476
	l0.152-0.276C463.921,181.323,463.479,171.916,458.435,164.564z M222.599,160.063c0.05-0.025,0.103-0.052,0.208,0
	c0.03,0.014,0.117,0.348,0.227,0.819c0.638,2.735,0.828,5.576,0.388,8.35c-1.841,11.592-11.208,21.003-23.272,22.474l-10.718,1.307
	c-9.765,1.191-19.497-2.984-25.115-11.06c-4.87-7-7.972-15.173-8.985-23.636C176.125,170.051,201.141,170.732,222.599,160.063z
	 M57.541,229.025c-2.28,4.806-12.916,25.954-31.463,44.011c2.289-10.46,2.29-20.498,2.292-29.865
	c0.003-16.56,0.005-30.861,12.006-44.406c13.944-15.738,30.033-16.737,40.931-14.886c-0.242,0.224-0.494,0.435-0.733,0.664
	l-2.536,2.422C66.07,198.439,59.083,213.48,57.541,229.025z M129.566,297.097l-3.766-6.831c6.999-9.355,12.099-20.106,14.844-31.507
	c1.439,0.919,2.982,1.865,4.652,2.826L129.566,297.097z M319.417,243.002l-14.497,15.59c-1.29,1.387-2.007,3.211-2.008,5.105
	l-0.015,48.398c-15.689-19.094-36.204-47.524-38.187-65.007c-0.497-4.383-4.677-7.456-9.104-6.471
	c-3.86,0.858-6.238,4.708-5.744,8.631c0.359,2.858,1.064,5.871,2.04,8.987c-56.17,15.583-93.341-4.749-107.686-15.167l3.988-17.639
	c0.914-4.04-1.621-8.056-5.662-8.969c-4.039-0.915-8.056,1.622-8.969,5.662l-7.289,32.238c-3.419,15.077-11.83,28.851-23.679,38.781
	L69.13,321.16c-0.521-3.746,0.132-7.641,1.999-11.057l16.857-30.847c1.694-3.1,0.995-6.961-1.677-9.271
	c-2.942-2.543-5.616-5.989-7.949-10.244c-11.071-20.183-6.934-45.657,10.05-61.941l2.535-2.422
	c10.674-10.232,25.915-15.399,41.824-14.186c7.216,0.552,11.163,0.447,13.872,0.12c1.417,2.945,3.043,5.79,4.878,8.501
	c7.586,11.209,19.868,17.883,33.094,18.354v20.151h-6.419c-4.142,0-7.5,3.358-7.5,7.5s3.358,7.5,7.5,7.5h27.838
	c4.142,0,7.5-3.358,7.5-7.5s-3.358-7.5-7.5-7.5h-6.419v-21.439l2.351-0.287c19.431-2.37,34.362-17.957,36.509-36.852
	c0.216-0.032,6.916-1.142,10.021-1.844l77.222,42.968c0.041,1.889,0.323,3.769,0.754,5.615
	C328.666,225.882,326.061,235.858,319.417,243.002z M396.491,196.04c-14.268,9.188-31.389,11.924-47.402,8.082l24.398-23.454
	c4.633-4.454,11.503-5.339,17.105-2.2c5.278,2.951,11.51,6.436,17.761,9.934L396.491,196.04z M446.466,181.848l-0.15,0.273
	c-1.271,2.284-3.405,3.882-5.96,4.445c-2.218,0.489-4.542,0.024-6.523-1.087c-10.752-6.028-25.275-14.152-35.915-20.101
	c-11.403-6.39-25.398-4.591-34.828,4.476l-29.412,28.274c-0.04-0.022-0.08-0.042-0.119-0.064l-65.365-36.37
	c3.947-1.608,7.837-3.415,11.658-5.431c2.601-1.371,5.183-2.684,7.755-3.97c0.434,6.366,1.676,11.883,3.75,16.444
	c1.257,2.764,3.981,4.398,6.832,4.398c1.038,0,2.093-0.217,3.1-0.674c3.771-1.714,5.438-6.161,3.724-9.932
	c-2.163-4.759-2.71-11.261-2.562-17.301c3.794-1.713,7.535-3.332,11.223-4.869c-0.387,6.234,0.116,11.754,1.533,16.47
	c0.976,3.247,3.955,5.344,7.18,5.343c0.715,0,1.442-0.103,2.162-0.319c3.967-1.192,6.216-5.375,5.024-9.341
	c-1.58-5.258-1.134-12.179-0.065-18.381c2.768-1.025,5.496-2.006,8.171-2.934c-1.167,5.159-1.55,9.903-1.139,14.187
	c0.373,3.879,3.638,6.784,7.457,6.784c0.24,0,0.482-0.011,0.726-0.035c4.123-0.396,7.145-4.06,6.749-8.183
	c-0.535-5.572,1.332-12.431,3.652-18.386c2.651-0.792,5.226-1.53,7.729-2.224c-0.891,3.546-1.346,6.908-1.346,10.062
	c0,4.142,3.358,7.5,7.5,7.5s7.5-3.358,7.5-7.5c0-4.487,1.617-9.649,3.741-14.461c11.71-2.672,20.546-4.092,25.42-4.766
	l40.399,58.874C447.869,175.678,448.027,179.041,446.466,181.848z"/>
<g>
</g>
<g>
</g>
<g>
</g>
<g>
</g>
<g>
</g>
<g>
</g>
<g>
</g>
<g>
</g>
<g>
</g>
<g>
</g>
<g>
</g>
<g>
</g>
<g>
</g>
<g>
</g>
<g>
</g>
</svg>
