<?xml version="1.0" encoding="UTF-8" standalone="no"?>
<svg
   xmlns:dc="http://purl.org/dc/elements/1.1/"
   xmlns:cc="http://creativecommons.org/ns#"
   xmlns:rdf="http://www.w3.org/1999/02/22-rdf-syntax-ns#"
   xmlns:svg="http://www.w3.org/2000/svg"
   xmlns="http://www.w3.org/2000/svg"
   xmlns:sodipodi="http://sodipodi.sourceforge.net/DTD/sodipodi-0.dtd"
   xmlns:inkscape="http://www.inkscape.org/namespaces/inkscape"
   sodipodi:docname="checkers-4.svg"
   inkscape:version="1.0beta2 (2b71d25, 2019-12-03)"
   id="svg8"
   version="1.1"
   viewBox="-140 0 500 350"
   height="297mm"
   width="210mm">
    <path
        d="M 108.12692,-76.382172 c -86.514661,-1.1778 -169.885961,54.49 -202.694561,134.4161 c -4.28335,9.815963 -7.753269,19.929158 -10.429079,30.231527 c -2.6758,10.302368 -4.5575,20.793905 -5.66441,31.366565 c -1.1069,10.57265 -1.43902,21.22642 -1.01566,31.85324 c 0.42336,10.62682 1.60218,21.22669 3.51716,31.69156 c 1.91498,10.46486 4.56611,20.79472 7.93407,30.88151 c 3.367958,10.08679 7.452749,19.93052 12.235049,29.42312 c 4.782301,9.49259 10.262112,18.63407 16.420114,27.31635 c 6.158002,8.68228 12.994194,16.90538 20.489256,24.56123 c 14.394625,15.49195 31.116166,28.53711 49.3436016,38.93975 c 18.2274354,10.40263 37.9607644,18.16274 58.3789664,23.08459 c 20.418201,4.92184 41.521275,7.00542 62.488193,6.05499 c 20.96693,-0.95042 41.7977,-4.93485 61.6713,-12.14903 c 82.9409,-28.0831 143.9779,-109.7452 146.8982,-197.3436 c 5.0697,-84.511402 -44.2092,-168.872602 -120.0102,-206.483502 c -30.6796,-15.6982 -65.1059,-23.8966 -99.562,-23.8444 z 

m 0,20 c 83.6285,-1.2427 163.8319,56.13500015 189.5033,135.8084 c 27.4164,78.059802 0.07,171.384202 -65.9758,221.571002 c -67.0678,54.425 -169.745501,56.8609 -239.3564613,5.7547 c -66.8673997,-46.0046 -98.9307987,-134.9919 -77.8817997,-213.156702 c 21.1865,-86.8614998 104.3637,-151.1638 193.710761,-149.9774 z 

m 0,87.9883 c -56.701101,-1.3219 -108.5968613,46.7913 -111.6652613,103.401902 c -5.543,55.4981 36.8166603,110.1511 91.8550603,118.8511 c 53.213301,10.7808 110.248801,-23.6943 125.941901,-75.5544 c 18.0512,-51.4236 -8.5113,-113.258102 -58.1683,-135.855702 c -14.9063,-7.1573 -31.4316,-10.8651 -47.9634,-10.8429 z 

m 0,10 c 53.4972,-1.3283 101.9131,45.8608 101.9589,99.376402 c 2.7026,53.4402 -43.1947,103.0816 -96.7048,104.495 C 60.025319,249.53963 9.2081587,204.94653 6.4317587,151.47333 C 1.0241587,98.233428 44.279719,46.269928 97.688319,42.132228 c 3.467701,-0.352 6.953201,-0.526 10.438601,-0.526 z 

m -0.957,27.0117 c -11.199701,0.791 -11.950001,14.911 -17.199701,22.3873 c -4.4176,5.6064 -4.5479,16.980702 -12.2473,18.172002 c -12.606,2.6428 -25.9244,3.02 -38.0945,7.0688 c -8.0602,5.1412 -3.8445,16.043 3.1944,19.909 c 7.8618,7.3705 15.7236,14.7409 23.5854,22.1114 c -1.6725,13.9717 -5.7523,27.8988 -5.9467,41.9031 c 2.3219,9.2644 13.9813,8.7252 19.8834,3.293 c 9.6318,-5.1826 19.2635,-10.3651 28.895301,-15.5477 c 12.8766,5.9486 24.9881,14.1212 38.3448,18.6897 c 9.5756,0.652 12.6455,-10.6932 9.2014,-17.9859 l -5.847,-30.6843 c 9.6078,-10.4255 21.1001,-19.4386 29.5409,-30.7452 c 3.5427,-8.8626 -6.2066,-15.243 -14.1634,-14.3335 c -10.8875,-1.4842 -21.7751,-2.9683 -32.6626,-4.4525 c -7.0349,-12.331702 -12.0248,-26.114002 -20.2771,-37.588002 c -1.7435,-1.4046 -3.9684,-2.1921 -6.2073,-2.1972 z 

m 0.176,32.363302 c 5.5697,8.2371 7.3212,19.8458 15.6587,25.7447 c 8.7362,2.1974 17.9051,2.5667 26.8023,4.0795 c -6.106,7.7895 -16.6041,12.9679 -19.6248,22.6846 c 0.507,8.3726 3.0251,16.5695 4.2927,24.874 c -9.1803,-3.3979 -17.2629,-11.6462 -27.3182,-11.5644 c -8.314501,3.2885 -15.866301,8.408 -23.892701,12.3847 c 0.405,-9.7529 5.7779,-19.9572 2.5851,-29.47 c -5.6271,-6.7938 -12.8277,-12.2231 -19.05,-18.4987 c 9.3653,-2.704 20.7376,-0.832 28.7303,-6.882 c 4.634701,-7.3216 7.758801,-15.6735 11.816601,-23.3524 z 

m 0.781,-126.367202 c -76.535601,-1.4167 -148.638061,56.0812 -164.673061,130.855702 c -17.9092,71.9403 18.49,152.4184 84.14296,186.7269 c 65.8252,37.1643 155.338801,22.0838 205.287101,-34.6824 c 52.3349,-55.2832 58.8792,-146.6105 14.988,-208.807502 c -30.7158,-45.8015998 -84.5265,-74.551 -139.745,-74.0927 z 

m 0,10 c 73.4007,-1.4558 142.3194,54.815 155.7759,126.942702 c 15.4898,69.3507 -22.3001,145.6406 -86.8162,175.3796 c -64.8762,32.5651 -150.269861,12.8149 -194.067861,-45.1348 c -46.7795,-57.3275 -44.6295,-147.249502 4.8586,-202.263002 c 29.6613,-34.6131998 74.64626,-55.2284 120.249561,-54.9245 z"
       id="path10" />
</svg>
