<?xml version="1.0" encoding="iso-8859-1"?>
<!-- Generator: Adobe Illustrator 19.0.0, SVG Export Plug-In . SVG Version: 6.00 Build 0)  -->
<svg version="1.1" id="Capa_1" xmlns="http://www.w3.org/2000/svg" xmlns:xlink="http://www.w3.org/1999/xlink" x="0px" y="0px"
	 viewBox="0 0 463 463" style="enable-background:new 0 0 463 463;" xml:space="preserve">
<g>
	<path d="M303.5,201.284h-32c-14.215,0-22.196,11.409-28.609,20.575c-3.929,5.617-7.992,11.425-11.391,11.425
		s-7.462-5.808-11.391-11.425c-6.413-9.167-14.394-20.575-28.609-20.575h-32c-4.142,0-7.5,3.358-7.5,7.5s3.358,7.5,7.5,7.5h32
		c5.957,0,10.328,5.612,16.317,14.173c5.845,8.356,12.471,17.827,23.683,17.827s17.837-9.471,23.683-17.827
		c5.989-8.562,10.36-14.173,16.317-14.173h32c4.142,0,7.5-3.358,7.5-7.5S307.642,201.284,303.5,201.284z"/>
	<path d="M393.71,78.752c-19.089-10.832-37.119-21.062-43.557-33.43c-1.595-3.065-5.081-4.644-8.436-3.822
		c-3.356,0.821-5.717,3.83-5.717,7.285c0,19.682,13.366,34.986,26.292,49.787c11.269,12.902,21.912,25.089,21.708,38.096
		c-0.377,24.12-46.618,32.617-56.501,32.617c-0.19,0-0.376,0.014-0.562,0.028c-7.199-6.453-17.868-8.876-28.305-11.245
		c-5.492-1.246-11.17-2.535-16.762-4.399c-5.734-1.911-10.591-4.341-15.288-6.691c-9.525-4.766-19.375-9.693-35.083-9.693
		s-25.558,4.928-35.083,9.693c-4.697,2.35-9.554,4.78-15.288,6.691c-5.592,1.864-11.27,3.153-16.762,4.399
		c-10.437,2.368-21.106,4.792-28.305,11.245c-0.186-0.014-0.372-0.028-0.562-0.028c-9.883,0-56.124-8.497-56.501-32.617
		c-0.203-13.007,10.44-25.194,21.708-38.096C113.634,83.771,127,68.466,127,48.784c0-3.456-2.361-6.464-5.717-7.285
		c-3.358-0.821-6.84,0.756-8.436,3.822C106.409,57.69,88.379,67.92,69.29,78.752C36.812,97.181,0,118.069,0,159.784
		c0,25.216,16.564,48.449,47.901,67.187c22.422,13.407,48.117,21.983,65.885,25.914c-1.102,7.575-1.785,14.442-1.785,19.899
		c0,30.031,30.353,49.932,48.487,61.822c3.631,2.38,7.931,5.201,10.294,7.104c-1.207,2.804-2.161,6.086-2.711,10.042
		c-2.157,15.531,6.3,29.171,22.071,35.598c0.205,0.083,0.419,0.156,0.627,0.237c-0.395,1.52-0.785,3.265-1.084,5.143
		c-1.422,8.931-0.054,15.953,4.066,20.871c10.284,12.274,22.265,7.705,29.422,4.974c3.088-1.178,6.004-2.291,8.327-2.291
		s5.239,1.113,8.327,2.291c3.53,1.347,8.234,3.141,13.328,3.141c5.235,0,10.882-1.895,16.094-8.115
		c4.121-4.917,5.489-11.939,4.066-20.871c-0.299-1.878-0.689-3.624-1.084-5.143c0.208-0.081,0.422-0.154,0.627-0.237
		c15.771-6.426,24.228-20.066,22.071-35.598c-0.549-3.956-1.504-7.238-2.711-10.042c2.364-1.902,6.664-4.723,10.294-7.104
		C320.647,322.717,351,302.816,351,272.784c0-5.457-0.684-12.323-1.785-19.899c17.768-3.931,43.462-12.507,65.885-25.914
		C446.436,208.234,463,185.001,463,159.784C463,118.069,426.188,97.181,393.71,78.752z M55.599,214.097
		C37.078,203.023,15,184.611,15,159.784c0-32.98,31.363-50.776,61.693-67.987c7.03-3.989,13.928-7.903,20.317-11.955
		c-2.424,2.934-4.996,5.879-7.601,8.862c-12.636,14.468-25.702,29.429-25.409,48.197c0.517,33.1,44.529,44.258,64.06,46.779
		c-0.658,2.948-1.442,6.367-2.31,10.154c-2.926,12.752-6.65,28.986-9.484,44.242C99.789,234.366,76.223,226.429,55.599,214.097z
		 M257.751,403.968c-3.148,3.758-4.922,3.513-12.578,0.592c-4.025-1.536-8.587-3.276-13.673-3.276s-9.648,1.74-13.673,3.276
		c-7.654,2.919-9.429,3.166-12.578-0.593c-1.844-2.201-1.151-8.41,0.216-13.337c0.576,0.023,1.152,0.044,1.726,0.044
		c5.351,0,10.582-1.019,14.975-3.283c2.237,2.813,5.153,4.893,9.335,4.893c4.181,0,7.098-2.08,9.334-4.893
		c4.393,2.264,9.624,3.283,14.975,3.283c0.577,0,1.155-0.021,1.733-0.044C258.924,395.607,259.554,401.816,257.751,403.968z
		 M294.288,322.063c-4.354,2.855-7.974,5.228-10.798,7.442c-0.393-0.399-0.785-0.794-1.172-1.183
		c-6.073-6.096-11.318-11.36-11.318-31.537c0-5.95,0.14-11.449,0.486-16.501c0.005,0,0.009,0.001,0.014,0.001
		c12.403,0,22.124-3.453,28.892-10.263c8.849-8.904,10.356-21.039,10.583-29.737h0.525c4.142,0,7.5-3.358,7.5-7.5
		s-3.358-7.5-7.5-7.5h-8c-41.746,0-47.5,34.364-47.5,71.5c0,26.374,8.701,35.107,15.692,42.124c4.414,4.431,7.33,7.357,8.379,14.908
		c1.646,11.856-7.359,17.396-12.874,19.643c-7.263,2.958-14.929,2.781-19.132,0.785c2.366-4.147,4.377-5.96,7.434-5.96
		c4.142,0,7.5-3.358,7.5-7.5s-3.358-7.5-7.5-7.5c-14.229,0-20.084,12.269-23.583,19.6c-0.13,0.273-0.271,0.567-0.417,0.872
		c-0.146-0.305-0.287-0.599-0.417-0.872c-3.499-7.331-9.354-19.6-23.583-19.6c-4.142,0-7.5,3.358-7.5,7.5s3.358,7.5,7.5,7.5
		c3.057,0,5.069,1.813,7.435,5.96c-4.203,1.996-11.87,2.174-19.132-0.785c-5.515-2.247-14.52-7.787-12.874-19.643
		c1.049-7.55,3.965-10.477,8.379-14.908c6.991-7.017,15.692-15.75,15.692-42.124c0-37.136-5.754-71.5-47.5-71.5h-8
		c-4.142,0-7.5,3.358-7.5,7.5s3.358,7.5,7.5,7.5h0.525c0.228,8.698,1.735,20.833,10.583,29.737
		c6.755,6.797,16.453,10.249,28.823,10.262c0.376,4.906,0.569,10.379,0.569,16.501c0,20.177-5.245,25.441-11.318,31.537
		c-0.387,0.389-0.779,0.784-1.172,1.183c-2.824-2.213-6.444-4.587-10.798-7.442C152.102,311.172,127,294.714,127,272.784
		c0-17.315,8.37-53.798,13.371-75.595c0.928-4.044,1.765-7.691,2.45-10.778c1.718-7.733,8.539-10.011,24.865-13.715
		c5.574-1.265,11.892-2.699,18.186-4.796c6.747-2.249,12.331-5.042,17.257-7.507c9.054-4.53,16.206-8.108,28.372-8.108
		s19.317,3.578,28.372,8.108c4.926,2.465,10.51,5.258,17.257,7.507c6.293,2.098,12.611,3.532,18.186,4.796
		c16.326,3.705,23.146,5.982,24.865,13.715c0.686,3.086,1.522,6.734,2.45,10.778C327.63,218.987,336,255.469,336,272.784
		C336,294.714,310.898,311.172,294.288,322.063z M273.494,265.223c3.081-13.845,9.587-22.13,22.45-24.334
		c-0.256,6.245-1.4,13.738-6.191,18.558C286.224,262.999,280.745,264.924,273.494,265.223z M189.335,265.218
		c-7.167-0.322-12.586-2.247-16.088-5.771c-4.818-4.848-5.947-12.399-6.194-18.666C178.067,242.417,185.617,248.52,189.335,265.218z
		 M407.401,214.097c-20.623,12.332-44.19,20.269-60.667,23.98c-2.835-15.256-6.559-31.49-9.484-44.242
		c-0.869-3.787-1.653-7.207-2.31-10.154c19.531-2.521,63.543-13.68,64.06-46.779c0.293-18.769-12.773-33.729-25.409-48.197
		c-2.605-2.983-5.177-5.928-7.601-8.862c6.389,4.052,13.288,7.966,20.317,11.955c30.33,17.21,61.693,35.006,61.693,67.987
		C448,184.611,425.922,203.023,407.401,214.097z"/>
</g>
<g>
</g>
<g>
</g>
<g>
</g>
<g>
</g>
<g>
</g>
<g>
</g>
<g>
</g>
<g>
</g>
<g>
</g>
<g>
</g>
<g>
</g>
<g>
</g>
<g>
</g>
<g>
</g>
<g>
</g>
</svg>
