<?xml version="1.0" encoding="iso-8859-1"?>
<!-- Generator: Adobe Illustrator 19.0.0, SVG Export Plug-In . SVG Version: 6.00 Build 0)  -->
<svg version="1.1" id="Layer_1" xmlns="http://www.w3.org/2000/svg" xmlns:xlink="http://www.w3.org/1999/xlink" x="0px" y="0px"
	 viewBox="0 0 512 512" style="enable-background:new 0 0 512 512;" xml:space="preserve">
<g>
	<g>
		<path d="M428.464,150.262c20.295-15.243,33.449-39.504,33.449-66.784c0.001-22.296-8.683-43.261-24.449-59.028
			C421.697,8.684,400.734,0,378.436,0H361.74l-0.001,81.285c-2.936-2.591-6.049-5.092-9.344-7.489
			C326.439,54.92,292.205,44.523,256,44.523s-70.438,10.397-96.395,29.274c-3.296,2.396-6.408,4.897-9.344,7.489V0.001h-16.696
			c-46.031,0-83.478,37.448-83.478,83.478c0,27.278,13.153,51.54,33.449,66.782c-20.295,15.242-33.449,39.504-33.449,66.782
			c0,43.343,33.206,79.064,75.512,83.089c-5.503,8.042-8.73,17.756-8.73,28.216v66.782c0,42.961,34.952,77.913,77.913,77.913
			c1.397,0,2.785-0.041,4.163-0.114C207.841,495.767,230.054,512,256,512s48.159-16.233,57.055-39.07
			c1.378,0.071,2.766,0.114,4.163,0.114c42.961,0,77.913-34.952,77.913-77.913v-66.782c0-10.459-3.226-20.174-8.73-28.216
			c42.306-4.025,75.512-39.746,75.512-83.089C461.913,189.766,448.759,165.503,428.464,150.262z M395.131,36.228
			c6.964,2.454,13.345,6.458,18.72,11.834c9.461,9.46,14.67,22.037,14.67,35.416c0,21.768-13.956,40.336-33.391,47.226
			L395.131,36.228z M179.247,100.8c20.293-14.759,47.552-22.887,76.754-22.887s56.461,8.129,76.754,22.887
			c13.675,9.946,22.831,22.02,26.774,34.951c-22.948,5.336-42.283,20.151-53.651,40.092c-12.99-12.386-30.554-20.016-49.878-20.016
			c-19.323,0-36.887,7.63-49.878,20.016c-11.367-19.94-30.703-34.756-53.651-40.092C156.415,122.822,165.571,110.746,179.247,100.8z
			 M311.653,278.261c9.207,0,16.696,7.489,16.696,16.696c0,9.206-7.489,16.696-16.696,16.696c-19.77,0-30.454,8.548-38.255,14.789
			c-6.219,4.975-9.341,7.472-17.397,7.472s-11.178-2.497-17.397-7.472c-7.801-6.241-18.485-14.789-38.255-14.789
			c-9.206,0-16.696-7.49-16.696-16.696c0-9.207,7.49-16.696,16.696-16.696h16.696v-50.087c0-21.481,17.476-38.956,38.956-38.956
			s38.956,17.476,38.956,38.956v50.087H311.653z M83.48,83.478c0-21.768,13.956-40.334,33.391-47.225v94.452
			C97.436,123.815,83.48,105.246,83.48,83.478z M133.566,166.957c21.766,0,40.323,13.959,47.215,33.391H86.35
			C93.242,180.916,111.8,166.957,133.566,166.957z M133.566,267.131c-21.766,0-40.322-13.959-47.214-33.391h32.539
			c3.922,3.453,9.05,5.565,14.673,5.565h0.002c5.624,0,10.752-2.113,14.675-5.565h32.54
			C173.889,253.172,155.331,267.131,133.566,267.131z M194.784,439.652c-24.549,0-44.522-19.972-44.522-44.522v-66.782
			c0-4.605,1.874-8.78,4.897-11.803c8.078,16.84,25.297,28.498,45.189,28.498c8.056,0,11.178,2.497,17.397,7.472
			c5.248,4.198,11.815,9.431,21.56,12.412v30.203C239.306,419.68,219.333,439.652,194.784,439.652z M256.001,478.609
			c-10.621,0-19.868-5.984-24.556-14.754c9.547-5.114,17.9-12.164,24.556-20.615c6.655,8.451,15.008,15.501,24.555,20.615
			C275.868,472.625,266.621,478.609,256.001,478.609z M361.739,395.131c0,24.549-19.972,44.522-44.522,44.522
			c-24.549,0-44.522-19.972-44.522-44.522v-30.203c9.745-2.982,16.312-8.214,21.56-12.412c6.219-4.975,9.341-7.472,17.397-7.472
			c19.892,0,37.111-11.658,45.189-28.498c3.024,3.023,4.897,7.198,4.897,11.803V395.131z M378.435,267.131
			c-21.766,0-40.322-13.959-47.215-33.391h32.539c3.921,3.453,9.05,5.565,14.674,5.565h0.002c5.624,0,10.752-2.113,14.675-5.565
			h32.54C418.758,253.172,400.2,267.131,378.435,267.131z M331.22,200.349c6.892-19.433,25.45-33.391,47.215-33.391
			s40.323,13.959,47.215,33.391H331.22z"/>
	</g>
</g>
<g>
</g>
<g>
</g>
<g>
</g>
<g>
</g>
<g>
</g>
<g>
</g>
<g>
</g>
<g>
</g>
<g>
</g>
<g>
</g>
<g>
</g>
<g>
</g>
<g>
</g>
<g>
</g>
<g>
</g>
</svg>
