<?xml version="1.0" encoding="utf-8"?>
<!-- Svg Vector Icons : http://www.onlinewebfonts.com/icon -->
<!DOCTYPE svg PUBLIC "-//W3C//DTD SVG 1.1//EN" "http://www.w3.org/Graphics/SVG/1.1/DTD/svg11.dtd">
<svg version="1.1" xmlns="http://www.w3.org/2000/svg" xmlns:xlink="http://www.w3.org/1999/xlink" x="0px" y="0px" viewBox="0 0 1000 1000" enable-background="new 0 0 1000 1000" xml:space="preserve">

<path d="

M764.5,409.2c11.1-41.6,18.4-78.9,22.3-114.1c0.8-7.2,1.4-14.5,1.9-21.6c46.4-5.5,87.2-35.7,119-88.6c26.3-43.7,37.4-88,37.9-89.8l7-28.2l-29-1.5c-67.4-3.4-125.6,22.7-163.6,46.1c-8.1-13.8-18.1-25.8-29.6-35.3c-20.1-16.7-44.4-25.5-70.2-25.5c-18.8,0-37.3,4.6-53.9,13.2c0.2-11.2-3.2-22.4-9.8-31.7c-9.9-13.9-26-22.1-43-22.1H448.5c-17,0-33.1,8.3-43,22.1c-6.6,9.3-10,20.3-9.8,31.4c-16.5-8.5-34.8-13-53.4-13c-25.8,0-50.1,8.8-70.2,25.5c-11.5,9.5-21.5,21.5-29.6,35.3c-34.4-21-95.2-49.7-165.9-46.1l-29,1.5l7,28.2c0.5,1.9,11.7,46.7,38.4,90.7c32.3,53.2,73.7,83.2,120.7,88c0.4,7.1,1.1,14.2,1.8,21.4c3.8,35.2,11.1,72.6,22.3,114.1c3.1,11.6,8.3,22.1,13.2,32.2c2.2,4.6,4.4,9,6.2,13.1c-19.6,68.9-40.4,155.8-40.4,214.2c0,62.7,14.9,121.2,41.9,164.7c5.6,9,11.7,17.3,18.2,24.8c-0.6,9.7-0.7,25.2,2.1,42c6.8,39.7,26.9,67.7,58.2,80.8c14.3,6,28.4,8.9,43,8.9c23.1,0,43-7.3,62.3-14.4c18.8-6.9,36.5-13.4,57.2-13.4h1.1c20.7,0,38.4,6.5,57.2,13.4c19.3,7.1,39.2,14.4,62.3,14.4h0c14.6,0,28.7-2.9,43-8.9c31.2-13.1,51.4-41.1,58.2-80.8c2.7-15.5,2.7-29.9,2.3-39.6c7.3-8.1,14.1-17.2,20.3-27.2c27-43.5,41.9-102,41.9-164.7c0-58.7-21-146.1-40.6-215.2c1.7-3.9,3.7-8,5.8-12.2C756.2,431.3,761.4,420.8,764.5,409.2z 

M444.5,60c0.7-0.9,1.9-2.1,4-2.1h104.8c2.1,0,3.3,1.1,4,2.1c0.7,0.9,1.3,2.5,0.7,4.4l-7.3,21.4c-16.1,4.7-33.8,8.4-49.5,8.4c-15.9,0-33.8-3.8-50-8.6l-7.3-21.2C443.1,62.5,443.8,60.9,444.5,60z 

M644.9,936.9c-8.3,3.5-16.3,5.2-24.4,5.2l0,0c-14.6,0-29-5.3-45.8-11.5c-20.9-7.7-44.5-16.4-73.8-16.4h-1.1c-29.2,0-52.9,8.7-73.7,16.4c-16.7,6.2-31.2,11.5-45.8,11.5c-8.1,0-16.1-1.7-24.4-5.2c-17-7.1-24.9-23.4-28.6-39.6c18.1,8.5,37.6,13,58.2,13c32.7,0,64.4-6.4,89.3-18c10.4-4.9,18.6-10.1,25.1-15.6c6.8,5.5,15.6,10.8,26.6,15.7c25.5,11.3,58.7,17.9,91,17.9h0c19.6,0,38.3-4.1,55.7-11.8C669.4,914.2,661.4,929.9,644.9,936.9z 

M741.8,224.6l-0.3,25.3c-0.1,13-0.9,26.5-2.4,40c-3,27.7-8.4,57-16.3,89.1c-6.1-18.8-10.3-30.9-11-32.9c-4.4-12.5-18-19.1-30.5-14.8c-9.9,3.4-16.1,12.7-16.1,22.6c0,2.6,0.4,5.3,1.3,7.9c0.7,2.1,71.6,206.8,71.6,306.9c0,53.9-12.3,103.4-34.7,139.4c-2.1,3.4-4.2,6.5-6.4,9.5c-11.3,15.6-23.4,26-35.3,32.8c-16,9.2-31.6,11.8-44.3,11.8l0,0c-25.8,0-51.9-5-71.5-13.7c-7.7-3.4-12.9-6.7-16.3-9.5c-2.7-2.2-4.3-4-5.2-5.4v-44v-69.4c0-1.4,0-2.3-0.3-3.7c-0.4-2.9-4.2-39.6,30.5-65.6c2.2-1.7,4.4-3.3,6.5-4.9l-0.4,0.9c19.1,8.4,37.8,7.1,52.8-3.4c21-14.8,33-46.8,36.6-97.9c2.4-33.6,0.3-63.6,0.2-64.8c-0.9-12-10.5-21.5-22.5-22.2c-12-0.7-22.7,7.5-25,19.4c-16.5,84.6-25,95.7-77,134.5c-10.8,8.1-19.3,16.8-26,25.8c-6.7-8.9-15.2-17.7-26-25.8c-52-38.8-60.5-50-77-134.5c-2.3-11.8-13-20.1-25-19.4c-12,0.7-21.6,10.2-22.5,22.2c-0.1,1.3-2.2,31.3,0.2,64.8c3.7,51,15.6,83.1,36.6,97.9c15,10.6,33.7,11.8,52.8,3.4l-0.4-0.9c2.1,1.6,4.2,3.2,6.5,4.9c34.7,25.9,30.9,62.6,30.5,65.6c-0.2,1.4-0.3,2.3-0.3,3.7v69.1v42c0,1.8-1.7,4.4-5.1,7.4c-11.1,9.8-40.3,23.5-84.8,23.5c-13,0-29.1-2.8-45.6-12.6c-11.8-7-23.7-17.5-34.8-33.2c-1.9-2.6-3.7-5.4-5.5-8.3c-22.4-36-34.7-85.5-34.7-139.3c0-100.1,70.9-304.9,71.6-306.9c0.9-2.6,1.3-5.3,1.3-7.9c0-9.9-6.2-19.2-16.1-22.6c-12.5-4.4-26.2,2.2-30.5,14.8c-0.7,2-5.1,14.6-11.3,34.1c-8.1-32.6-13.6-62.2-16.6-90.3c-1.5-13.5-2.3-27.1-2.4-40.1l-0.3-25.8l-25.7,2.1c-38.4,3.2-72.2-18.5-100.3-64.4c-10.2-16.6-17.8-33.6-23.2-47.5c62.1,6.9,111.4,40.4,126.6,51.8l25.9,19.4l11.1-30.4c0.4-1,0.7-2,1.1-3.1c18.6-48.3,52.5-53.5,66.3-53.5c12.8,0,25.4,3.6,36.5,10.5l1.1,0.7l1.2,0.6c2.7,1.3,67,31.9,120.2,31.9c53.2,0,117.5-30.6,120.2-31.9l1.2-0.6l1.1-0.7c11-6.9,23.6-10.5,36.5-10.5c13.7,0,47.7,5.2,66.3,53.5c0.2,0.5,0.6,1.5,1.1,2.6c0.1,0.3,0.3,0.6,0.4,0.9l11,29.5l25.6-18.8c24.3-17.9,69.7-45.6,124.4-51.9c-5.2,13.4-12.5,29.7-22.2,45.8c-27.9,46.3-61.4,68.6-99.5,66.1L741.8,224.6z

M407.2,195.5c-1.6,0-3.3,0-5,0c-13.7,0.2-31.3,1.2-46.1,6.8c-19.4,7.4-31.4,22.1-33.7,41.3c-2.2,18,4.5,36.4,18.4,50.3c12.6,12.7,30,20.9,49.1,23.2c3.6,0.4,7.2,0.6,10.8,0.6l0,0c17.4,0,34.2-5,47.2-14.1c15.5-10.8,24.7-27,25.1-44.2c0.4-17.2,0.9-35.1-12.4-48.7C447.5,197.3,427.2,195.5,407.2,195.5z 

M425.1,258.3c-0.1,4.7-10.4,11.6-24.4,11.6c-1.7,0-3.4-0.1-5.1-0.3c-15.8-1.9-26.6-12.2-25.6-20.2c0-0.3,0.1-0.5,0.1-0.6c1.1-1.1,7-4.8,32.8-5.3c1.5,0,2.9,0,4.2,0c9.8,0,15.2,0.7,18,1.2C425.4,248.4,425.2,254.3,425.1,258.3z

M644.6,202.3c-14.7-5.6-32.4-6.6-46.1-6.8c-1.7,0-3.4,0-5,0c-20,0-40.4,1.9-53.5,15.3c-13.3,13.6-12.8,31.4-12.4,48.7c0.4,17.3,9.6,33.4,25.1,44.2c13,9.1,29.8,14.1,47.2,14.1c3.6,0,7.2-0.2,10.8-0.6c19.1-2.3,36.5-10.5,49.1-23.2c13.9-13.9,20.6-32.3,18.4-50.3C676,224.4,664,209.8,644.6,202.3z 

M625.8,260.1c-4.9,5-12.5,8.4-20.8,9.4c-1.7,0.2-3.4,0.3-5.1,0.3c-14,0-24.3-6.9-24.4-11.6c-0.1-3.9-0.2-9.9,0-13.6c2.8-0.6,8.1-1.2,18-1.2c1.4,0,2.8,0,4.2,0c25.8,0.4,31.7,4.2,32.8,5.3c0,0.1,0.1,0.3,0.1,0.6C631.2,254,627.9,258.1,625.8,260.1z
"/>

</svg>
