<?xml version="1.0" encoding="UTF-8" standalone="no"?>
<svg
   xmlns:dc="http://purl.org/dc/elements/1.1/"
   xmlns:cc="http://creativecommons.org/ns#"
   xmlns:rdf="http://www.w3.org/1999/02/22-rdf-syntax-ns#"
   xmlns:svg="http://www.w3.org/2000/svg"
   xmlns="http://www.w3.org/2000/svg"
   xmlns:sodipodi="http://sodipodi.sourceforge.net/DTD/sodipodi-0.dtd"
   xmlns:inkscape="http://www.inkscape.org/namespaces/inkscape"
   inkscape:version="1.0beta2 (2b71d25, 2019-12-03)"
   sodipodi:docname="camel-2.svg"
   xml:space="preserve"
   style="enable-background:new 0 0 511.999 511.999;"
   viewBox="0 0 511.999 511.999"
   y="0px"
   x="0px"
   id="Layer_1"
   version="1.1"><metadata
   id="metadata63"><rdf:RDF><cc:Work
       rdf:about=""><dc:format>image/svg+xml</dc:format><dc:type
         rdf:resource="http://purl.org/dc/dcmitype/StillImage" /></cc:Work></rdf:RDF></metadata><defs
   id="defs61" /><sodipodi:namedview
   inkscape:current-layer="Layer_1"
   inkscape:window-maximized="0"
   inkscape:window-y="23"
   inkscape:window-x="0"
   inkscape:cy="255.9995"
   inkscape:cx="255.9995"
   inkscape:zoom="2.0371134"
   showgrid="false"
   id="namedview59"
   inkscape:window-height="480"
   inkscape:window-width="790"
   inkscape:pageshadow="2"
   inkscape:pageopacity="0"
   guidetolerance="10"
   gridtolerance="10"
   objecttolerance="10"
   borderopacity="1"
   inkscape:document-rotation="0"
   bordercolor="#666666"
   pagecolor="#ffffff" />
<path
     d="M 390.779,10.143 334.411,52.42 C 280.826,26.761 248.712,23.453 179.706,54.025 L 121.205,10.15 c -35.492,-26.618 -85.611,2.68 -79.951,46.766 2.212,17.235 7.041,31.074 14.766,42.308 6.333,9.211 14.734,16.766 25.077,22.579 -4.647,9.839 -7.406,21.62 -7.406,36.047 v 103.507 c 0,40.347 28.86,74.103 66.949,81.866 v 69.521 c 0,30.279 20.442,55.833 48.325,63.485 15.534,22.221 41.179,35.769 68.53,35.769 27.35,0 52.996,-13.549 68.529,-35.769 27.884,-7.651 48.437,-33.205 48.437,-63.485 v -69.521 c 38.089,-7.762 66.838,-41.518 66.838,-81.866 V 157.85 c 0,-13.178 -3.038,-25.802 -8.609,-37.087 21.767,-12.96 34.272,-34.081 38.071,-64.15 5.553,-43.955 -44.6,-73.007 -79.982,-46.47 z M 74.401,52.662 C 72.506,37.903 89.311,28.001 101.154,36.885 l 44.47,33.353 C 130.852,77.565 115.455,84.764 102.56,95.206 85.362,87.794 77.326,75.448 74.401,52.662 Z m 183.093,425.919 c -9.366,0 -18.388,-2.669 -26.154,-7.421 12.401,-8.172 15.188,-16.833 26.154,-38.761 10.98,21.963 13.754,30.592 26.152,38.761 -7.765,4.752 -16.787,7.421 -26.152,7.421 z m 51.13,-33.419 h -0.156 c -4.459,0 -8.468,-2.479 -10.462,-6.465 l -23.803,-47.606 v -39.264 l 28.524,-28.524 c 6.526,-6.526 6.526,-17.105 0,-23.63 -6.524,-6.526 -17.105,-6.526 -23.63,0 l -21.604,21.603 -21.604,-21.603 c -6.524,-6.526 -17.105,-6.526 -23.63,0 -6.526,6.526 -6.526,17.105 0,23.63 l 28.635,28.524 v 39.264 l -23.916,47.606 c -1.993,3.988 -6.003,6.465 -10.462,6.465 h -0.156 c -17.875,0 -32.416,-14.542 -32.416,-32.416 v -84.55 c 0,-46.068 37.479,-83.547 83.547,-83.547 46.068,0 83.658,37.479 83.658,83.547 v 84.55 h 0.004 c -0.001,17.874 -14.655,32.416 -32.529,32.416 z M 407.99,261.358 c 0,22.362 -14.832,41.346 -35.091,47.783 -9.127,-55.463 -57.398,-97.912 -115.405,-97.912 -58.007,0 -106.279,42.449 -115.405,97.912 C 121.831,302.703 107.11,283.72 107.11,261.358 V 157.851 c 0,-32.919 20.624,-41.293 55.739,-58.851 107.183,-53.593 112.392,-38.448 217.319,14.015 17.093,8.546 27.822,25.727 27.822,44.836 z M 437.606,52.424 C 434.829,74.405 427.452,86.554 411.811,94.111 402.012,85.844 397.51,84.5 367.736,69.2 l 43.096,-32.322 c 11.778,-8.834 28.622,0.92 26.774,15.546 z
M 418.96094 -0.46875 C 409.27214 -0.1430356 399.40441 3.0476426 390.47852 9.7421875 L 334.3457 51.84375 C 307.66227 39.088554 286.21293 31.849729 262.8457 31.636719 C 239.4593 31.423534 214.16478 38.245982 179.7793 53.455078 L 121.50586 9.75 C 103.59904 -3.6796105 81.959896 -3.0114684 65.544922 6.5878906 C 49.129947 16.18725 37.902295 34.738709 40.757812 56.980469 C 42.977207 74.273083 47.828917 88.196004 55.607422 99.507812 C 61.905082 108.66741 70.253573 116.18466 80.478516 122.00195 C 75.90991 131.83137 73.191406 143.55011 73.191406 157.84961 L 73.191406 261.35742 C 73.191406 301.79928 102.02342 335.64701 140.14062 343.61328 L 140.14062 412.74414 C 140.14062 443.1837 160.65443 468.878 188.66016 476.64844 C 204.29723 498.92007 230.0354 512.49805 257.49414 512.49805 C 284.9519 512.49805 310.69203 498.91909 326.32812 476.64844 C 354.33504 468.87913 374.96094 443.18594 374.96094 412.74414 L 374.96094 343.61328 C 413.0775 335.64792 441.79883 301.79932 441.79883 261.35742 L 441.79883 157.84961 C 441.79883 144.74781 438.79218 132.1979 433.31055 120.94531 C 454.97327 107.88629 467.46774 86.674102 471.25781 56.675781 C 474.05949 34.498987 462.79416 16.042613 446.37109 6.5117188 C 438.15956 1.7462715 428.64973 -0.7944644 418.96094 -0.46875 z M 92.921875 0.5234375 C 102.42469 0.82681653 112.11171 3.9565865 120.9043 10.550781 L 179.64062 54.601562 L 179.9082 54.482422 C 214.37883 39.210763 239.58413 32.424761 262.83594 32.636719 C 286.08774 32.848677 307.43036 40.054783 334.19531 52.871094 L 334.46875 53.001953 L 391.07812 10.542969 C 408.60834 -2.6049414 429.75846 -1.9746054 445.86914 7.375 C 461.97982 16.724605 473.01695 34.772576 470.26562 56.550781 C 466.48008 86.513297 454.06774 107.45308 432.43359 120.33398 L 432.03711 120.57031 L 432.24219 120.98438 C 437.77961 132.20135 440.79883 144.74845 440.79883 157.84961 L 440.79883 261.35742 C 440.79883 301.46791 412.22064 335.01723 374.36133 342.73242 L 373.96094 342.81445 L 373.96094 412.74414 C 373.96094 442.79789 353.56307 468.15368 325.89258 475.74609 L 325.7168 475.79492 L 325.61328 475.94336 C 310.17367 498.02977 284.67901 511.49805 257.49414 511.49805 C 230.30825 511.49805 204.81562 498.03078 189.375 475.94336 L 189.27148 475.79492 L 189.09766 475.74609 C 161.42848 468.15277 141.14062 442.7981 141.14062 412.74414 L 141.14062 342.81445 L 140.74023 342.73242 C 102.88072 335.01619 74.191406 301.46599 74.191406 261.35742 L 74.191406 157.84961 C 74.191406 143.48636 76.935013 131.78436 81.548828 122.01562 L 81.748047 121.5957 L 81.341797 121.36719 C 71.059293 115.58819 62.719999 108.08748 56.431641 98.941406 C 48.760145 87.785215 43.954606 74.028948 41.75 56.851562 C 38.945518 35.007323 49.948256 16.867813 66.050781 7.4511719 C 74.102044 2.7428514 83.419063 0.22005847 92.921875 0.5234375 z M 91.732422 33.03125 C 88.422328 32.936933 85.171111 33.825852 82.371094 35.476562 C 76.77106 38.777983 72.931223 45.14788 73.904297 52.726562 C 76.841118 75.60465 85.029989 88.196549 102.36133 95.666016 L 102.64062 95.785156 L 102.875 95.59375 C 115.70607 85.203519 131.0666 78.016072 145.8457 70.685547 L 146.57422 70.324219 L 101.45312 36.484375 C 98.411302 34.202558 95.042515 33.125567 91.732422 33.03125 z M 420.21289 33.037109 C 416.91255 33.135881 413.55685 34.20919 410.53125 36.478516 L 366.79688 69.279297 L 367.50781 69.644531 C 397.28945 84.948456 401.72656 86.256636 411.48828 94.492188 L 411.73633 94.703125 L 412.0293 94.560547 C 427.80385 86.939018 435.31363 74.553842 438.10156 52.486328 C 439.52569 41.215105 430.11391 32.740794 420.21289 33.037109 z M 420.27539 34.009766 C 429.61356 33.710206 438.45725 41.693552 437.10938 52.361328 C 434.35982 74.125052 427.17035 86.015223 411.85352 93.515625 C 402.33704 85.536596 397.19355 83.751581 368.67578 69.119141 L 411.13281 37.277344 C 413.99622 35.129669 417.16267 34.109619 420.27539 34.009766 z M 91.691406 34.021484 C 94.803875 34.107948 97.973839 35.124973 100.85352 37.285156 L 144.68164 70.158203 C 130.23355 77.311741 115.21061 84.413289 102.51562 94.625 C 85.629816 87.25974 77.794909 75.176631 74.896484 52.597656 C 73.974559 45.417339 77.58944 39.45622 82.878906 36.337891 C 85.523639 34.778726 88.578937 33.93502 91.691406 34.021484 z M 261.86914 64.998047 C 236.99773 64.760137 209.53484 75.097157 162.625 98.552734 C 145.07408 107.32844 131.11126 113.81074 121.48047 122.28906 C 111.84968 130.76738 106.60938 141.28764 106.60938 157.85156 L 106.60938 261.35742 C 106.60938 283.93886 121.47576 303.11444 141.9375 309.61719 L 142.48828 309.79297 L 142.58203 309.22266 C 151.66881 253.99805 199.73107 211.72852 257.49414 211.72852 C 315.25721 211.72852 363.31848 253.99803 372.40625 309.22266 L 372.5 309.79297 L 373.05078 309.61719 C 393.51305 303.1156 408.49023 283.94051 408.49023 261.35742 L 408.49023 157.85156 C 408.49023 138.55541 397.64852 121.1968 380.39062 112.56836 C 327.94138 86.343986 300.39121 69.405584 272.41992 65.740234 C 268.92351 65.282066 265.4222 65.032034 261.86914 64.998047 z M 261.85156 65.998047 C 265.36861 66.031405 268.83147 66.279341 272.28906 66.732422 C 299.94977 70.357073 327.46756 87.224264 379.94531 113.46289 C 396.87342 121.92645 407.49023 138.92972 407.49023 157.85156 L 407.49023 261.35742 C 407.49023 283.30138 393.04559 301.9191 373.26367 308.45312 C 363.84246 253.05396 315.53001 210.72852 257.49414 210.72852 C 199.45827 210.72852 151.14483 253.05395 141.72461 308.45312 C 121.94618 301.91825 107.60937 283.30293 107.60938 261.35742 L 107.60938 157.85156 C 107.60938 141.49648 112.68262 131.36895 122.14258 123.04102 C 131.60254 114.71309 145.50818 108.22956 163.07227 99.447266 C 209.94755 76.008968 237.23222 65.764537 261.85156 65.998047 z M 257.49023 244.14844 C 211.15105 244.14844 173.44336 281.85613 173.44336 328.19531 L 173.44336 412.74609 C 173.44336 430.89127 188.2132 445.66211 206.35938 445.66211 L 206.51562 445.66211 C 211.15887 445.66211 215.34752 443.07427 217.42383 438.92188 L 217.42578 438.91992 L 241.39453 391.20898 L 241.39453 351.61914 L 212.61328 322.94922 C 206.27837 316.61528 206.27832 306.3623 212.61328 300.02734 C 218.94719 293.69247 229.20226 293.69251 235.53516 300.02734 L 257.49219 321.98242 L 279.45117 300.02734 C 285.78508 293.69247 296.04016 293.69251 302.37305 300.02734 C 308.70796 306.36129 308.708 316.61426 302.37305 322.94922 L 273.70312 351.61914 L 273.70312 391.20898 L 297.55859 438.91992 C 299.63545 443.07156 303.82443 445.66211 308.46875 445.66211 L 308.62305 445.66211 C 326.76824 445.66211 341.65133 430.89336 341.65234 412.74609 L 341.65234 412.24609 L 341.64844 412.24609 L 341.64844 328.19531 C 341.64844 281.85532 303.82942 244.14844 257.49023 244.14844 z M 257.49023 245.14844 C 303.28705 245.14844 340.64844 282.3993 340.64844 328.19531 L 340.64844 412.78516 C 340.62555 430.36752 326.21247 444.66211 308.62305 444.66211 L 308.46875 444.66211 C 304.19507 444.66211 300.36427 442.29302 298.45312 438.47266 L 274.70312 390.97266 L 274.70312 352.0332 L 303.08008 323.65625 C 309.79712 316.93921 309.79717 306.03637 303.08008 299.32031 C 296.36497 292.60315 285.46023 292.60319 278.74414 299.32031 L 257.49219 320.56836 L 236.24219 299.32031 C 229.52708 292.60315 218.62234 292.60319 211.90625 299.32031 C 205.18921 306.03736 205.18916 316.94019 211.90625 323.65625 L 240.39453 352.03516 L 240.39453 390.97266 L 216.53125 438.47266 C 214.62113 442.29481 210.78946 444.66211 206.51562 444.66211 L 206.35938 444.66211 C 188.75555 444.66211 174.44336 430.34892 174.44336 412.74609 L 174.44336 328.19531 C 174.44336 282.3985 211.69342 245.14844 257.49023 245.14844 z M 257.49414 431.28125 L 257.04688 432.17578 C 251.55968 443.14818 248.1207 450.79296 244.5293 456.67773 C 240.9379 462.56251 237.21156 466.69138 231.06445 470.74219 L 230.4082 471.17578 L 231.07812 471.58594 C 238.92008 476.38442 248.03315 479.08008 257.49414 479.08008 C 266.95414 479.08008 276.06527 476.38444 283.90625 471.58594 L 284.57812 471.17578 L 283.92188 470.74219 C 277.77611 466.69276 274.05433 462.57213 270.46484 456.69141 C 266.87536 450.81069 263.43559 443.16564 257.94141 432.17578 L 257.49414 431.28125 z M 257.49414 433.53125 C 262.67928 443.94822 266.08603 451.43732 269.61133 457.21289 C 273.11194 462.948 276.87258 467.11615 282.70703 471.08984 C 275.16805 475.54809 266.50164 478.08008 257.49414 478.08008 C 248.48566 478.08008 239.81922 475.54811 232.2793 471.08984 C 238.11571 467.11401 241.88037 462.93824 245.38281 457.19922 C 248.90977 451.42004 252.31569 443.9317 257.49414 433.53125 z 
M 172.953,194.67599 c 0,9.22813 -7.48087,16.709 -16.709,16.709 -9.22813,0 -16.709,-7.48087 -16.709,-16.709 1e-5,-9.22812 7.48088,-16.70899 16.709,-16.70899 9.22812,0 16.70899,7.48087 16.709,16.70899
M 156.24414 177.4668 C 146.7458 177.4668 139.03516 185.17744 139.03516 194.67578 C 139.03516 204.17413 146.74579 211.88477 156.24414 211.88477 C 165.74249 211.88477 173.45312 204.17413 173.45312 194.67578 C 173.45312 185.17744 165.74248 177.4668 156.24414 177.4668 z M 156.24414 178.4668 C 165.20204 178.4668 172.45312 185.71788 172.45312 194.67578 C 172.45312 203.63369 165.20205 210.88477 156.24414 210.88477 C 147.28623 210.88477 140.03516 203.63369 140.03516 194.67578 C 140.03516 185.71788 147.28624 178.4668 156.24414 178.4668 z 
M 373.46599,194.67599 c 0,9.22813 -7.48087,16.709 -16.709,16.709 -9.22813,0 -16.709,-7.48087 -16.709,-16.709 0,-9.22812 7.48088,-16.70899 16.709,-16.70899 9.22812,0 16.70899,7.48087 16.709,16.70899
M 356.75781 177.4668 C 347.25947 177.4668 339.54883 185.17744 339.54883 194.67578 C 339.54883 204.17413 347.25947 211.88477 356.75781 211.88477 C 366.25616 211.88477 373.9668 204.17413 373.9668 194.67578 C 373.96679 185.17744 366.25615 177.4668 356.75781 177.4668 z M 356.75781 178.4668 C 365.71571 178.4668 372.96679 185.71788 372.9668 194.67578 C 372.9668 203.63369 365.71572 210.88477 356.75781 210.88477 C 347.79991 210.88477 340.54883 203.63369 340.54883 194.67578 C 340.54883 185.71788 347.79991 178.4668 356.75781 178.4668 z " />
</svg>
