<?xml version="1.0" encoding="iso-8859-1"?>
<!-- Generator: Adobe Illustrator 19.0.0, SVG Export Plug-In . SVG Version: 6.00 Build 0)  -->
<svg version="1.1" id="Layer_1" xmlns="http://www.w3.org/2000/svg" xmlns:xlink="http://www.w3.org/1999/xlink" x="0px" y="0px"
	 viewBox="0 0 512.001 512.001" style="enable-background:new 0 0 512.001 512.001;" xml:space="preserve">
		<path d="

M465.525,193.125l-16.493-6.265v-32.528c0-9.413-1.808-18.549-4.676-27.138l5.985-6.634
			c26.222-28.432,29.164-70.552,7.25-102.427c-6.517-9.479-16.811-15.916-28.183-17.656c-11.373-1.743-23.104,1.33-32.159,8.424
			L341.21,52.804l-30.051-12.488c-35.089-14.582-75.34-14.582-110.429,0l-30.048,12.488L114.65,8.902
			c-9.055-7.094-20.768-10.16-32.143-8.424c-11.372,1.741-21.632,8.177-28.15,17.656C32.445,50.007,35.455,92.127,61.676,120.56
			l5.85,6.634c-2.868,8.588-4.676,17.725-4.676,27.138v32.528l-16.493,6.265c-9.249,3.457-13.811,13.758-10.353,23.008
			c3.458,9.249,13.558,13.943,22.806,10.488l4.041-1.585v15.091c0,37.937,27.414,69.686,63.172,77.051v69.169
			c0,32.081,22.004,59.388,51.658,67.218c6.173,33.064,35.301,58.438,70.129,58.438h16.266c34.828,0,63.956-25.374,70.129-58.438
			c29.654-7.83,51.658-35.138,51.658-67.219v-69.168c35.758-7.365,63.172-39.114,63.172-77.051v-15.091l3.973,1.585
			c9.25,3.455,19.549-1.237,23.008-10.488C479.471,206.883,474.775,196.581,465.525,193.125z M83.823,38.392
			c1.298-1.888,3.124-2.42,4.095-2.569c0.973-0.148,2.872-0.187,4.677,1.227l40.201,31.499l-16.834,6.995
			c-11.144,4.632-20.908,11.419-28.904,19.754C73.075,79.242,71.689,56.042,83.823,38.392z M126.022,267.414v12.556
			c-15.495-6.324-27.414-21.795-27.414-39.845v-28.457l2.809-0.95c0.681,12.413,11.066,22.276,23.648,22.276
			c2.013,0,3.949-0.279,5.814-0.753C127.721,243.43,126.022,255.227,126.022,267.414z M264.075,476.242h-16.266
			c-14.14,0-26.372-8.565-32.087-20.552c18.402-1.528,34.267-13.967,40.19-31.724l0.03-0.154l0.03,0.056
			c5.924,17.757,21.788,30.309,40.19,31.837C290.447,467.692,278.213,476.242,264.075,476.242z M350.104,386.344
			c-0.001,18.468-15.173,33.878-33.64,33.878h-16.422c-4.613,0-8.692-3.134-10.152-7.509l-16.071-48.367v-74.184l29.12-28.666
			c7.037-6.927,7.126-18.247,0.199-25.284c-6.927-7.036-18.247-7.124-25.283-0.198l-21.778,21.439l-21.809-21.585
			c-7.018-6.947-18.339-6.888-25.284,0.13c-6.947,7.018-6.888,18.339,0.13,25.284l28.948,28.651v74.412l-16.071,48.367
			c-1.46,4.375-5.539,7.509-10.152,7.509h-16.422c-18.466,0-33.638-15.41-33.638-33.878V267.415
			c0-51.78,42.274-93.921,94.053-93.921h0.311c51.727,0,93.959,42.099,93.959,93.827V386.344z M353.04,181.32
			c-23.751-26.715-58.422-43.584-96.895-43.584h-0.311c-38.504,0-73.135,16.884-96.905,43.621
			c-2.988-5.739-7.657-10.509-13.474-13.595c-8.138-4.317-18.025-4.941-26.656-1.718l-20.192,7.45v-19.161
			c0-20.092,12.257-38.058,30.81-45.767l84.898-35.227c13.185-5.479,27.405-8.219,41.559-8.219c14.154,0,28.34,2.74,41.525,8.219
			l85.048,35.227c18.553,7.711,30.827,25.675,30.827,45.767v19.161l-20.192-7.447c-8.631-3.224-18.383-2.601-26.521,1.719
			C360.758,170.844,356.028,175.597,353.04,181.32z M413.275,240.125c0,18.05-11.919,33.52-27.414,39.846v-12.651
			c0-12.15-1.759-23.914-4.901-35.074c1.858,0.471,3.756,0.747,5.761,0.747c12.582,0,23.083-9.863,23.763-22.276l2.792,0.95V240.125
			z M424.824,95.298c-7.997-8.336-17.76-15.122-28.904-19.754l-16.832-6.995l40.201-31.499c1.805-1.414,3.705-1.374,4.676-1.227
			c0.971,0.149,2.797,0.681,4.095,2.569C440.195,56.042,438.807,79.242,424.824,95.298z

"/>
</svg>
