<?xml version="1.0" encoding="iso-8859-1"?>
<!-- Generator: Adobe Illustrator 16.0.0, SVG Export Plug-In . SVG Version: 6.00 Build 0)  -->
<!DOCTYPE svg PUBLIC "-//W3C//DTD SVG 1.1//EN" "http://www.w3.org/Graphics/SVG/1.1/DTD/svg11.dtd">
<svg version="1.1" id="Capa_1" xmlns="http://www.w3.org/2000/svg" xmlns:xlink="http://www.w3.org/1999/xlink" x="0px" y="0px"
	 width="612px" height="612px" viewBox="0 0 612 612" style="enable-background:new 0 0 612 612;" xml:space="preserve">
<g>
	<g>
		<path d="M455.386,286.131c-22.399-0.839-45.857,1.434-67.019,9.109c-21.468,7.784-49.726,28.455-39.183,55.167
			c4.731,11.979,16.975,19.721,31.19,19.721c5.13,0,10.213-0.982,15.111-2.914c18.924-7.473,28.94-27.164,22.33-43.902
			c-1.562-3.949-3.938-7.432-6.929-10.334c11.515-2.898,25.904-4.686,43.647-4.02c6.281,0.213,11.602-4.685,11.839-10.989
			C466.611,291.666,461.689,286.368,455.386,286.131z M384.7,339.899c-1.428,0.566-2.926,0.861-4.325,0.861
			c-2.458,0-3.73-0.885-3.875-1.139c-0.162-0.654,1.255-4.002,5.801-5.795c1.428-0.568,2.926-0.863,4.325-0.863
			c2.453,0,3.73,0.885,3.875,1.146C390.663,334.757,389.246,338.101,384.7,339.899z
                        M223.592,295.24c-21.167-7.675-44.619-9.954-67.018-9.109c-6.304,0.237-11.226,5.535-10.989,11.838
			c0.237,6.304,5.558,11.196,11.839,10.989c17.744-0.672,32.132,1.121,43.647,4.02c-2.99,2.902-5.373,6.385-6.929,10.334
			c-6.61,16.738,3.412,36.436,22.33,43.902c4.899,1.938,9.982,2.914,15.112,2.914c14.215,0,26.459-7.742,31.19-19.721
			C273.324,323.694,245.06,303.024,223.592,295.24z M235.46,339.622c-0.145,0.26-1.417,1.139-3.875,1.139
			c-1.399,0-2.897-0.301-4.326-0.861c-4.545-1.799-5.962-5.143-5.801-5.795c0.145-0.26,1.417-1.146,3.875-1.146
			c1.399,0,2.897,0.301,4.326,0.863C234.205,335.62,235.622,338.962,235.46,339.622z
                        M228.259,177.368c0,0,12.406-41.114-18.738-62.652c-3.209-2.221-49.835,51.507-45.92,101.481
			C163.601,216.204,202.807,186.182,228.259,177.368z
                        M448.358,216.204c3.915-49.975-42.71-103.702-45.92-101.481c-31.144,21.537-18.738,62.651-18.738,62.651
			C409.152,186.182,448.358,216.204,448.358,216.204z
                        M612,277.779l-13.383-1.66c-0.503-0.063-50.767-6.998-84.067-46.603c-3.471-4.129-7.184-8.195-11.075-12.134
			c-0.439-33.787-11.596-118.716-106.964-163.838l-7.976-3.777l-7.079,5.274c-1.758,1.313-40.172,30.618-45.799,90.019h-59.332
			c-5.563-60.622-44.301-88.938-46.07-90.204l-7.016-5.002l-7.79,3.684c-95.363,45.128-106.524,130.057-106.964,163.844
			c-3.893,3.938-7.605,8.004-11.081,12.134c-33.301,39.604-83.559,46.539-84.027,46.597L0,277.774l0.515,13.475
			c2.788,72.812,27.066,132.861,72.148,178.562c-3.707,1.521-7.385,3.123-11.017,4.818c-5.714,2.672-8.184,9.467-5.512,15.182
			c1.938,4.152,6.055,6.586,10.358,6.586c1.62,0,3.262-0.346,4.829-1.074c6.559-3.066,13.308-5.807,20.138-8.271
			c31.548,26.164,70.586,46.064,116.374,59.297c31.138,10.537,64.161,15.883,98.15,15.883c33.989,0,67.013-5.346,98.15-15.883
			c45.793-13.227,84.831-33.133,116.374-59.291c6.83,2.465,13.579,5.205,20.138,8.27c1.567,0.73,3.21,1.076,4.829,1.076
			c4.297,0,8.415-2.439,10.358-6.586c2.672-5.715,0.202-12.51-5.512-15.182c-3.633-1.695-7.311-3.297-11.018-4.818
			c45.081-45.701,69.36-105.756,72.147-178.562L612,277.779z M395.672,518.229l-0.659,0.209
			c-28.188,9.578-58.141,14.436-89.036,14.436c-30.889,0-60.847-4.857-89.03-14.436l-0.66-0.209
			c-34.347-9.895-64.404-23.77-89.805-41.42c36.436-8.502,70.454-10.531,86.63-10.994c9.786,20.121,30.796,34.064,55.093,34.064
			c8.559,0,16.818-1.695,24.568-5.037c3.69-0.949,7.698-3.158,13.082-6.559c0.029-0.018,0.058-0.035,0.087-0.053
			c0.029,0.018,0.058,0.035,0.081,0.053c5.39,3.4,9.392,5.609,13.088,6.559c7.749,3.342,16.008,5.037,24.567,5.037
			c24.296,0,45.313-13.949,55.099-34.07c16.142,0.451,50.188,2.457,86.711,10.988C460.087,494.454,430.025,508.335,395.672,518.229z
			 M516.678,450.929c-2.787,2.764-5.662,5.465-8.617,8.098c-41.392-11.902-81.881-15.096-103.5-15.922
			c0.041-0.902,0.063-1.805,0.063-2.719c0-3.412-0.306-6.789-0.885-10.098c20.288-4.969,61.715-12.828,98.867-5.604
			c6.188,1.197,12.187-2.84,13.389-9.035c1.203-6.193-2.839-12.186-9.033-13.389c-43.647-8.484-90.632,1.135-111.638,6.553
			c-0.525-0.82-1.069-1.637-1.642-2.434c-6.923-9.682-16.518-17.074-27.749-21.377l-5.136,13.412l-5.136,13.406
			c12.296,4.707,20.242,15.928,20.242,28.576c0,16.969-14.459,30.768-32.231,30.768c-4.996,0-9.785-1.059-14.227-3.152l-3.91-1.838
			l-0.497,0.068c-2.678-1.533-7.05-4.332-10.891-7.01l-0.295-0.201l17.825-17.826c6.147-6.146,1.793-16.666-6.905-16.666h-37.679
			c-8.698,0-13.053,10.514-6.905,16.666l17.824,17.826l-0.289,0.201c-3.846,2.678-8.218,5.482-10.896,7.016l-0.498-0.068
			l-3.909,1.838c-4.442,2.094-9.225,3.152-14.228,3.152c-17.772,0-32.231-13.805-32.231-30.768c0-12.648,7.947-23.863,20.242-28.576
			l-5.136-13.406l-5.136-13.412c-11.231,4.303-20.826,11.695-27.749,21.377c-0.567,0.791-1.105,1.602-1.631,2.416
			c-21.035-5.418-67.967-15.008-111.574-6.535c-6.194,1.203-10.237,7.201-9.034,13.389c1.203,6.195,7.2,10.236,13.389,9.035
			c37.112-7.213,78.481,0.617,98.798,5.586c-0.578,3.32-0.885,6.697-0.885,10.115c0,0.914,0.023,1.816,0.063,2.719
			c-21.636,0.826-62.079,4.031-103.424,15.916c-2.956-2.639-5.83-5.334-8.618-8.098c-38.274-37.957-60.009-87.826-64.693-148.373
			c20.439-5.095,59.726-18.952,89.308-54.139c4.118-4.898,8.646-9.705,13.452-14.279l4.737-4.511l-0.185-6.541
			c-0.359-12.539,0.792-37.667,12.457-65.081c13.406-31.485,36.604-56.198,69.037-73.571c3.164,3.268,7.166,7.952,11.127,14.077
			c11.353,17.547,17.107,38.147,17.107,61.235v14.684h116.72v-14.684c0-22.613,5.784-43.092,17.194-60.865
			c3.979-6.2,8.004-10.994,11.191-14.366c32.352,17.368,55.509,42.057,68.892,73.496c11.671,27.408,12.815,52.537,12.457,65.081
			l-0.185,6.542l4.736,4.511c4.806,4.575,9.329,9.381,13.452,14.279c29.582,35.186,68.869,49.043,89.308,54.139
			C576.698,363.103,554.964,412.972,516.678,450.929z"/>
	</g>
</g>
</svg>
