<svg xmlns="http://www.w3.org/2000/svg" viewBox="0 0 32 32">
    <path d="M 22 3 C 21.196197 3 20.50533 3.4723573 20.1875 4.15625 C 19.984266 4.053398 19.74335 4 19.5 4 C 18.671573 4 18 4.6715729 18 5.5 C 18 6.3284271 18.671573 7 19.5 7 C 19.520506 7 19.542194 7.0008151 19.5625 7 C 19.214056 7.5925926 19 8.2675554 19 9 C 19 10.61552 18.404986 12.353878 17.09375 13.6875 C 15.884376 14.917522 13.968734 15.770696 11.3125 15.90625 C 10.60047 13.862109 9.28125 12.21875 9.28125 12.21875 L 7.78125 13.53125 C 7.78125 13.53125 8.5312242 14.618897 9.125 15.84375 C 7.4771672 14.906062 5.9375 14.96875 5.9375 14.96875 L 6.1875 16.9375 C 6.1875 16.9375 7.9330092 16.661676 9.53125 18.78125 C 9.621485 18.999692 10.226719 20.459418 11.4375 22.15625 C 12.651526 23.85763 14.421299 25.701218 16.8125 25.9375 C 15.485469 26.380327 14.75 27.40625 14.75 27.40625 L 16.34375 28.59375 C 16.34375 28.59375 16.987312 27.75 18.0625 27.75 C 19.137688 27.75 19.75 28.59375 19.75 28.59375 L 21.34375 27.40625 C 21.34375 27.40625 20.545944 26.306223 19.09375 25.90625 C 21.020842 25.659873 22.585849 24.984647 23.75 23.96875 C 25.25338 22.656824 26 20.789046 26 18.75 C 26 15.775006 24.964521 13.89522 24.34375 12.9375 C 24.748723 12.697326 25.086808 12.53228 25.53125 12.125 C 25.860343 11.823425 26.180436 11.434673 26.4375 11 L 28 11 C 27.869123 10.055231 27.457488 9.4454286 27 9 C 26.994766 8.9949042 27.005251 8.9737925 27 8.96875 C 26.991544 7.8823788 26.530951 6.9059505 25.8125 6.1875 C 25.919486 5.981103 26 5.7485281 26 5.5 C 26 4.6715729 25.328427 4 24.5 4 C 24.25665 4 24.015734 4.053398 23.8125 4.15625 C 23.49467 3.4723573 22.803803 3 22 3 z M 23 7 C 24.116666 7 25 7.8833339 25 9 C 25 9.7334557 24.685583 10.199814 24.1875 10.65625 C 23.689417 11.112686 23.032207 11.475108 22.5 11.78125 L 21.5 12.34375 L 22.21875 13.25 C 22.21875 13.25 24 15.544648 24 18.75 C 24 20.321954 23.48812 21.551926 22.4375 22.46875 C 22.262397 22.621554 22.053705 22.77169 21.84375 22.90625 C 22.71533 21.092793 22.542786 18.657824 20.78125 16.375 L 19.21875 17.625 C 20.645601 19.474096 20.605034 20.98924 20.03125 22.125 C 19.486028 23.204223 18.351322 23.930874 17.1875 24 C 15.6598 23.929663 14.172348 22.55538 13.0625 21 C 11.966053 19.4634 11.360075 18.021332 11.3125 17.90625 C 14.456343 17.767134 16.905308 16.715668 18.5 15.09375 C 20.205264 13.359372 21 11.11248 21 9 C 21 7.8833339 21.883334 7 23 7 z M 23.5 8 C 23.223858 8 23 8.2238576 23 8.5 C 23 8.7761424 23.223858 9 23.5 9 C 23.776142 9 24 8.7761424 24 8.5 C 24 8.2238576 23.776142 8 23.5 8 z" />
</svg>
