<?xml version="1.0" encoding="iso-8859-1"?>
<!-- Generator: Adobe Illustrator 16.0.0, SVG Export Plug-In . SVG Version: 6.00 Build 0)  -->
<!DOCTYPE svg PUBLIC "-//W3C//DTD SVG 1.1//EN" "http://www.w3.org/Graphics/SVG/1.1/DTD/svg11.dtd">
<svg version="1.1" id="Capa_1" xmlns="http://www.w3.org/2000/svg" xmlns:xlink="http://www.w3.org/1999/xlink" x="0px" y="0px"
	 width="193.091px" height="193.092px" viewBox="0 0 193.091 193.092" style="enable-background:new 0 0 193.091 193.092;"
	 xml:space="preserve">
<g>
	<g>
		<path d="M187.264,62.994c-8.277,0.127-16.517,0.709-24.769,0.377c4.405-9.425,7.782-18.829,7.19-29.607
			c-0.174-3.174-3.496-4.242-5.821-2.411c-6.822,5.37-14.363,9.703-21.293,14.911c-5.388-5.005-11.517-8.925-18.203-11.185
			c3.575-10.388,0.223-26.351-8.465-32.654c-8.584-6.228-13.503,0.583-16.156,8.665c-2.529-4.37-6.2-7.749-11.516-7.744
			c-5.785,0.006-8.002,4.65-8.633,9.922c-1.846-1.396-4.002-2.309-6.559-2.388c-4.992-0.156-8.754,4.765-10.242,8.974
			c-4.024,11.383,1.304,27.367,15.023,27.505C50.773,74.502,54.022,128.81,6.244,129.541c-2.04,0.031-3.215,1.332-3.606,2.857
			c-0.344,0.689-0.437,1.52-0.006,2.404c0.016,0.034,0.039,0.062,0.055,0.096c0.163,0.482,0.418,0.926,0.758,1.305
			c11.297,21.232,36.668,28.892,61.38,30.683c0.174,4.122-0.351,8.153-1.647,12.065c-4.846,1.121-9.965,5.74-12.592,9.228
			c-2.164,2.873,1.874,5.97,4.563,4.563c2.383-1.248,4.699-2.619,7.028-3.963c1.057-0.61,2.792-1.285,4.181-2.189
			c0.255,0.178,0.518,0.348,0.773,0.523c2.347,1.623,5.048,4.133,8.038,2.684c0.875-0.424,1.636-1.676,1.525-2.659
			c-0.155-1.374-0.645-2.183-1.656-3.106c-0.63-0.576-1.385-0.756-2.103-0.689c-1.156-0.824-2.45-2.042-3.824-3.041
			c0.61-4.307,0.621-9.034-0.198-13.189c10.139,0.479,20.038,0.065,28.643-0.771c3.854-0.375,7.585-0.977,11.225-1.727
			c1.053,3.635,0.778,7.513,1.426,11.187c-0.199,0.19-0.429,0.343-0.578,0.584c-1.811,2.925-4.758,4.903-6.569,7.864
			c-1.703,2.783,1.737,6.416,4.558,4.557c2.123-1.4,3.616-3.271,5.094-5.283c2.578,3.24,6.033,7.262,8.906,6.157
			c2.084-0.8,2.963-3.245,1.316-4.989c1.904,2.461-0.053-0.375-0.405-0.719c-0.892-0.867-1.741-1.773-2.59-2.684
			c-1.039-1.113-2.063-2.242-3.084-3.373c0.25-0.672,0.34-1.358,0.14-2.047c-1.147-3.947-1.779-8.438-3.309-12.405
			c28.177-7.347,48.482-26.628,52.027-58.534c0.347-3.117,0.38-6.361,0.16-9.664c10.185-4.951,19.609-17.033,24.467-26.906
			C191.494,66.012,190.123,62.95,187.264,62.994z M162.69,39.646c-0.755,8.06-3.762,15.249-7.397,22.665
			c-2.771-4.698-6.008-9.088-9.662-12.975C151.378,46.219,157,42.867,162.69,39.646z M68.48,24.879
			c0.503-2.586,1.699-5.424,4.036-6.821c3.245-1.938,7.166,6.516,8.07,8.306c1.909,3.782,7.172,1.003,6.457-2.722
			c-0.347-1.806-2.546-14.044,2.243-13.123c5.365,1.032,7.135,10.837,7.946,15.015c0.818,4.216,6.73,2.834,7.041-0.953
			c0.352-4.295,2.426-23.861,9.637-13.841c5.082,7.06,4.057,14.754,3.406,22.628c-5.001-0.756-10.236-0.617-15.654,0.685
			c-8.895,2.137-15.854,6.077-21.557,11.153c-0.073-0.475-0.274-0.924-0.799-1.206C71.511,39.81,66.665,34.203,68.48,24.879z
			 M106.986,156.971c-28.305,6.211-76.175,5.706-96.268-19.74c21.156-1.223,36.414-10.589,44.943-31.402
			c7.421-18.109,11.231-36.958,24.9-51.78c22.209-24.083,54.376-9.857,69.063,13.993
			C173.428,106.693,146.978,148.195,106.986,156.971z M164.824,87.385c-1.097-5.78-2.941-11.594-5.453-17.183
			c7.181,0.563,14.354,0.326,21.543,0.09C176.479,76.851,170.74,82.079,164.824,87.385z"/>
		<path d="M116.155,106.184c-2.846-3.275-7.329,1.424-4.696,4.697c5.158,6.412,5.815,14.378-1.899,18.945
			c-6.618,3.918-10.067-0.311-10.927-5.748c0.271-2.258,0.297-4.438,0.087-6.364c-0.366-3.353-5.861-4.823-6.437-0.871
			c-0.042,0.29-0.059,0.583-0.092,0.875c-0.008-0.001-0.017-0.002-0.025-0.004c0.005,0.047,0.005,0.097,0.01,0.144
			c-0.229,2.096-0.229,4.209,0.013,6.246c-0.597,5.678-3.06,11.112-9.065,12.836c-10.423,2.99-3.614-14.373-1.94-17.593
			c1.609-3.097-2.732-6.948-5.08-3.919c-2.527,3.264-16.676,20.456-15.988,7.162c0.532-10.289,10.009-17.223,19.587-17.747
			c1.666-0.091,2.227-2.739,0.414-3.058c-13.956-2.449-25.888,8.473-26.371,22.383c-0.16,4.615,2.429,10.062,7.661,10.186
			c3.563,0.086,6.813-1.582,9.735-3.914c-0.512,6.375,1.597,12.082,9.705,13.104c7.289,0.918,12.223-3.726,15.063-9.786
			c3.045,3.743,7.874,5.447,14.601,2.906C124.156,131.511,124.811,116.145,116.155,106.184z"/>
		<path d="M106.919,57.676c-10.147,2.738-11.958,15.135-3.203,20.928c1.244,0.823,3.234-0.557,2.644-2.031
			c-2.092-5.219-4.167-10.49,3.05-12.019c6.713-1.422,11.365,3.905,12.455,9.947c0.857,4.751,8.125,2.742,7.239-1.996
			C127.162,62.113,117.492,54.823,106.919,57.676z"/>
	</g>
</g>
<g>
</g>
<g>
</g>
<g>
</g>
<g>
</g>
<g>
</g>
<g>
</g>
<g>
</g>
<g>
</g>
<g>
</g>
<g>
</g>
<g>
</g>
<g>
</g>
<g>
</g>
<g>
</g>
<g>
</g>
</svg>
