<?xml version="1.0" encoding="iso-8859-1"?>
<!-- Generator: Adobe Illustrator 19.0.0, SVG Export Plug-In . SVG Version: 6.00 Build 0)  -->
<svg version="1.1" id="Layer_1" xmlns="http://www.w3.org/2000/svg" xmlns:xlink="http://www.w3.org/1999/xlink" x="0px" y="0px"
	 viewBox="0 0 511.999 511.999" style="enable-background:new 0 0 511.999 511.999;" xml:space="preserve">
<g>
	<g>
		<g>
			<path d="
M 0 0
M 520 0
M203.825,232.943c-11.343,0-20.574,9.326-20.574,20.84c0,11.513,9.23,20.847,20.574,20.847
				c11.357,0,20.587-9.334,20.587-20.847C224.412,242.269,215.182,232.943,203.825,232.943z M308.018,232.781c-11.452,0-20.742,9.403-20.742,21.003s9.29,21.003,20.742,21.003c11.439,0,20.729-9.403,20.729-21.003
				S319.457,232.781,308.018,232.781z M223.046,404.605c-8.924,0-16.187,7.337-16.187,16.397c0,9.058,7.263,16.402,16.187,16.402
				c8.936,0,16.197-7.343,16.197-16.402C239.242,411.942,231.982,404.605,223.046,404.605 M288.831,437.526c9,0,16.309-7.398,16.309-16.524c0-9.127-7.309-16.524-16.309-16.524c-9.011,0-16.32,7.397-16.32,16.524
				C272.51,430.128,279.82,437.526,288.831,437.526z M504.29,135.33l-5.696-12.814l-13.367,4.238c-38.305,12.143-82.964,26.156-102.666,32.331
				c-2.68-2.163-5.485-4.226-8.428-6.179c3.71-5.336,6.363-11.457,7.651-18.063c7.942-3.192,18.946-8.848,29.986-18.507
				c18.156-15.887,39.799-46.015,39.799-99.331h-31.353c0,52.176-24.758,75.089-41.529,84.627
				c-7.391-16.905-24.267-28.751-43.865-28.751H177.176c-19.598,0-36.474,11.846-43.865,28.751
				c-16.771-9.538-41.529-32.451-41.529-84.627H60.429c0,53.316,21.643,83.444,39.799,99.331
				c11.04,9.659,22.045,15.315,29.987,18.507c1.29,6.606,3.941,12.726,7.651,18.064c-2.943,1.951-5.748,4.015-8.428,6.178
				c-19.701-6.175-64.359-20.186-102.666-32.331l-13.367-4.238L7.709,135.33c-7.356,16.549-13.186,40.85,0.809,62.639
				c17.821,27.742,58.445,36.285,82.279,38.916c-0.318,4.053-0.496,8.194-0.496,12.443c0,37.74,8.697,60.894,19.71,90.207
				c3.669,9.766,7.463,19.865,11.392,31.671c10.202,30.656,22.537,62.268,43.538,85.796c22.818,25.564,52.603,37.991,91.058,37.991
				c38.455,0,68.24-12.427,91.058-37.991c21.002-23.528,33.336-55.139,43.538-85.796c3.93-11.807,7.723-21.906,11.392-31.671
				c11.012-29.314,19.71-52.467,19.71-90.207c0-4.249-0.179-8.39-0.496-12.443c23.833-2.631,64.457-11.174,82.279-38.916
				C517.476,176.181,511.645,151.88,504.29,135.33z M96.908,205.959c-19.794-1.994-51.441-8.483-62.01-24.936
				c-4.034-6.281-4.115-13.51-2.935-19.738c27.194,8.598,55.541,17.506,74.775,23.54C102.739,191.362,99.452,198.409,96.908,205.959
				z M160.674,120.737c0-9.1,7.403-16.502,16.501-16.502h157.647c9.099,0,16.501,7.403,16.501,16.502v4.924
				c0,9.1-7.403,16.502-16.501,16.502H177.176c-9.099,0-16.501-7.403-16.501-16.502V120.737z M255.999,463.64
				c-46.038,0-70.371-21.542-89.256-62.015c21.058-18.092,54.205-29.049,89.256-29.049c35.053,0,68.199,10.957,89.256,29.049
				C326.37,442.098,302.038,463.64,255.999,463.64z M372.636,328.509c-3.596,9.573-7.673,20.425-11.79,32.798
				c-1.139,3.423-2.284,6.744-3.433,10.004c-26.437-19.106-62.683-30.089-101.414-30.089c-38.731,0-74.977,10.983-101.414,30.089
				c-1.15-3.26-2.294-6.582-3.433-10.005c-4.117-12.373-8.194-23.225-11.79-32.798c-10.28-27.365-17.707-47.136-17.707-79.181
				c0-37.277,14.86-62.483,45.365-76.907c3.275,0.711,6.671,1.095,10.156,1.095h157.646c3.485,0,6.881-0.385,10.156-1.095
				c30.504,14.424,45.365,39.63,45.365,76.907C390.345,281.374,382.916,301.144,372.636,328.509z M477.116,180.999
				c-10.498,16.385-42.21,22.911-62.033,24.94c-2.543-7.543-5.827-14.583-9.822-21.112c19.234-6.034,47.581-14.942,74.775-23.54
				C481.214,167.504,481.136,174.724,477.116,180.999z"/>
		</g>
	</g>
</g>
<g>
</g>
<g>
</g>
<g>
</g>
<g>
</g>
<g>
</g>
<g>
</g>
<g>
</g>
<g>
</g>
<g>
</g>
<g>
</g>
<g>
</g>
<g>
</g>
<g>
</g>
<g>
</g>
<g>
</g>
</svg>
