<?xml version="1.0" encoding="iso-8859-1"?>
<!-- Generator: Adobe Illustrator 19.0.0, SVG Export Plug-In . SVG Version: 6.00 Build 0)  -->
<svg version="1.1" id="Layer_1" xmlns="http://www.w3.org/2000/svg" xmlns:xlink="http://www.w3.org/1999/xlink" x="0px" y="0px"
	 viewBox="0 0 512 512" style="enable-background:new 0 0 512 512;" xml:space="preserve">
<g>
	<g>
		<g>
			<path d="M443.658,267.902c-14.983-10.482-24.99-35.607-35.586-62.207c-2.053-5.155-4.159-10.438-6.363-15.781
				c56.471-89.266,48.884-170.059,48.523-173.541L448.536,0l-16.258,2.572c-3.086,0.489-71.919,12.209-113.771,86.117
				c-18.217-8.084-38.955-12.074-62.506-12.074s-44.288,3.99-62.506,12.074C151.645,14.781,82.812,3.061,79.725,2.572L63.467,0
				l-1.697,16.373c-0.361,3.482-7.947,84.275,48.523,173.54c-2.204,5.343-4.31,10.626-6.363,15.782
				c-10.596,26.6-20.603,51.725-35.586,62.207l-17.385,12.162l16.792,12.968c63.502,49.038,72.337,95.968,79.436,133.677
				c4.317,22.929,8.394,44.585,24.048,60.649C187.841,504.4,213.983,512,256,512c42.016,0,68.159-7.6,84.765-24.642
				c15.654-16.063,19.731-37.721,24.048-60.649c7.099-37.709,15.935-84.639,79.436-133.677l16.792-12.968L443.658,267.902z
				 M400.543,47.964c6.863-3.985,13.281-6.943,18.769-9.113c-1.152,24.046-7.308,67.978-33.59,116.64
				c-6.605-12.252-14.301-24.084-23.723-34.678c-5.265-5.919-10.861-11.223-16.792-15.938
				C358.815,80.529,377.38,61.413,400.543,47.964z M92.759,38.829c19.704,7.799,51.543,25.94,74.031,66.054
				c-5.928,4.713-11.522,10.015-16.784,15.93c-9.419,10.59-17.111,22.416-23.714,34.661C100.177,107.002,93.97,62.934,92.759,38.829
				z M235.646,411.162c-8.072-8.068-12.295-16.536-12.295-20.731c0-3.746,0.642-4.016,3.029-5.02
				c6.803-2.862,20.164-3.193,29.622-3.193c9.458,0,22.818,0.331,29.621,3.193c2.387,1.005,3.029,1.274,3.029,5.02
				c0,4.196-4.224,12.664-12.295,20.731c-7.938,7.932-16.411,12.213-20.355,12.213C252.058,423.375,243.584,419.094,235.646,411.162
				z M334.152,420.936c-3.716,19.739-6.652,35.329-15.732,44.648c-8.38,8.599-23.438,13.389-46.818,14.781v-28.904
				c12.249-4.727,22.225-13.647,26.81-18.231c6.446-6.443,21.44-23.511,21.44-42.8c0-15.778-7.86-27.775-22.129-33.779
				c-9.513-4.002-21.602-5.635-41.722-5.635c-20.122,0-32.21,1.633-41.722,5.635c-14.27,6.004-22.13,18.001-22.13,33.779
				c0,19.289,14.994,36.357,21.44,42.8c4.586,4.583,14.563,13.504,26.811,18.231v28.904c-23.379-1.392-38.438-6.182-46.818-14.781
				c-9.08-9.318-12.016-24.909-15.731-44.648c-7.132-37.877-16.717-88.797-76.992-141.118c13.679-16.436,22.67-39.011,32.057-62.578
				c10.733-26.948,21.833-54.813,40.402-75.691c20.47-23.014,46.742-33.733,82.683-33.733c35.941,0,62.212,10.719,82.682,33.733
				c18.57,20.878,29.669,48.742,40.403,75.691c9.386,23.567,18.379,46.142,32.057,62.578
				C350.868,332.14,341.283,383.059,334.152,420.936z
				M204.081,246.852c-11.288,0-20.473,9.28-20.473,20.738c0,11.457,9.186,20.746,20.473,20.746
				c11.302,0,20.487-9.288,20.487-20.746C224.568,256.132,215.383,246.852,204.081,246.852z
				M307.768,246.69c-11.397,0-20.642,9.357-20.642,20.901c0,11.543,9.245,20.901,20.642,20.901
				c11.383,0,20.628-9.357,20.628-20.901C328.396,256.047,319.151,246.69,307.768,246.69z"/>
		</g>
	</g>
</g>
<g>
</g>
<g>
</g>
<g>
</g>
<g>
</g>
<g>
</g>
<g>
</g>
<g>
</g>
<g>
</g>
<g>
</g>
<g>
</g>
<g>
</g>
<g>
</g>
<g>
</g>
<g>
</g>
<g>
</g>
</svg>
