<?xml version="1.0" encoding="iso-8859-1"?>
<!-- Generator: Adobe Illustrator 19.0.0, SVG Export Plug-In . SVG Version: 6.00 Build 0)  -->
<svg version="1.1" id="Layer_1" xmlns="http://www.w3.org/2000/svg" xmlns:xlink="http://www.w3.org/1999/xlink" x="0px" y="0px"
	 viewBox="0 0 511.999 511.999" style="enable-background:new 0 0 511.999 511.999;" xml:space="preserve">

		<path d="

M511.957,160.241c-0.252-2.48-1.607-4.715-3.688-6.086l-28.62-18.856c-2.037-6.938-8.102-21.349-24.304-27.337
			c-9.129-3.374-13.138-5.288-14.719-6.13L418.35,63.644c-1.402-2.404-3.917-3.945-6.696-4.102c-2.779-0.158-5.451,1.089-7.116,3.32
			c-0.79,1.059-18.194,24.735-15.862,50.461c-9.849,7.927-37.29,30.305-58.738,50.563c-0.709,0.617-8.346,6.052-57.559,7.08
			c-26.291,0.551-51.172-0.468-51.421-0.479c-0.115-0.004-0.23-0.007-0.345-0.007c-7.349,0-17.733-2.979-29.756-6.429
			c-29.692-8.519-70.355-20.187-114.953-1.79c-28.047,11.569-48.919,33.941-62.034,66.494C1.351,259.829,0,290.768,0,302.627
			c0,38.255,18.365,65.477,19.147,66.617c1.364,1.988,3.524,3.284,5.92,3.552c2.395,0.271,4.789-0.521,6.558-2.16
			c0.521-0.482,7.162-6.805,15.263-21.202l15.14,96.032c0.636,4.032,4.11,7.002,8.193,7.002h17.693c4.58,0,8.294-3.713,8.294-8.294
			c0-4.58-3.713-8.294-8.294-8.294H77.309l-10.472-66.422c0.009-0.186,0.022-0.372,0.019-0.56c-0.115-7.227,5.74-13.672,13.054-19.8
			c24.946,42.194,44.21,97.247,44.402,97.8c1.159,3.334,4.303,5.57,7.834,5.57h17.693c4.58,0,8.294-3.713,8.294-8.294
			c0-4.58-3.713-8.294-8.294-8.294h-11.86c-3.945-10.763-13.394-35.496-26.046-61.763c-4.652-16.655,14.361-31.026,39.701-48.083
			c14.819-9.976,27.618-18.59,32.287-28.805c0.581-1.271,1.075-2.526,1.533-3.774c21.57,8.635,56.635,17.318,84.898,17.318
			c2.182,0,4.305-0.072,6.397-0.179l-28.696,95.814c-0.606,2.023-0.417,4.2,0.528,6.089l17.693,35.387
			c1.404,2.81,4.276,4.585,7.418,4.585h17.693c4.58,0,8.294-3.713,8.294-8.294c0-4.58-3.713-8.294-8.294-8.294h-12.568
			l-13.931-27.863l9.039-30.183l28.042-35.498l52.773,105.545c1.404,2.81,4.276,4.585,7.418,4.585h17.693
			c4.58,0,8.294-3.713,8.294-8.294c0-4.58-3.713-8.294-8.294-8.294h-12.568l-23.983-47.968c-7.868-22.942-2.207-53.836-0.247-62.92
			l41.978-33.583c0.777-0.621,1.437-1.378,1.945-2.234c26.067-43.778,56.867-91.777,66.781-102.109h32.256
			c2.2,0,4.309-0.874,5.864-2.43l17.693-17.693C511.333,165.183,512.209,162.721,511.957,160.241z M78.243,329.287
			c-5.302,4.061-10.887,8.34-15.662,13.18l-3.226-20.459c3.659-9.971,7.161-21.669,10.123-35.315
			c1.773-8.17,3.805-16.039,5.935-23.428c1.409,5.81,3.23,11.012,5.142,15.513c5.594,13.173,12.775,22.48,16.591,26.891
			c-0.401,2.509-1.434,5.593-2.84,8.926C91.273,319.303,84.66,324.372,78.243,329.287z M286.836,334.735l4.245-14.173l2.695,5.389
			L286.836,334.735z M482.578,170.48h-31.952c-1.744,0-3.442,0.55-4.856,1.57c-13.619,9.836-60.941,88.355-72.272,107.346
			l-43.059,34.448c-1.404,1.124-2.405,2.672-2.852,4.413c-0.241,0.94-3.323,13.19-4.49,29.245l-23.845-47.691
			c-0.543-2.623-2.149-12.003,0.2-21.788c1.069-4.454-1.675-8.932-6.13-10.001c-4.455-1.066-8.932,1.675-10,6.129
			c-1.713,7.14-1.888,13.994-1.556,19.401c-27.171,3.391-70.311-6.868-93.192-16.756c0.185-7.323-0.982-14.193-2.086-20.604
			c-0.933-5.424-1.815-10.547-1.815-15.492c0-4.58-3.713-8.294-8.294-8.294c-4.58,0-8.294,3.713-8.294,8.294
			c0,6.362,1.045,12.433,2.055,18.305c1.91,11.1,3.56,20.687-1.305,31.327c-2.725,5.962-14.793,14.085-26.464,21.941
			c-15.723,10.583-33.913,22.842-42.621,38.141c-1.035-1.878-2.08-3.748-3.141-5.598c3.493-5.291,8.773-13.894,12.582-22.812
			c0.144-0.254,0.295-0.505,0.431-0.763c0.388-0.734,0.65-1.502,0.803-2.277c2.256-5.881,3.719-11.751,3.462-16.761
			c-0.106-2.076-0.989-4.036-2.473-5.493c-0.366-0.359-36.377-36.549-15.797-88.332c1.65-4.152-0.286-8.867-4.379-10.66
			c-4.092-1.794-8.871-0.022-10.805,4.008c-0.708,1.473-17.436,36.597-27.168,81.451c-7.088,32.671-17.912,54.678-25.944,66.601
			c-4.713-10.038-10.739-26.843-10.739-47.151c0-10.892,1.234-39.291,12.668-67.674c11.385-28.257,29.207-47.555,52.973-57.359
			c39.257-16.192,75.184-5.883,104.053,2.401c13.146,3.772,24.511,7.033,34.156,7.072c2.281,0.091,26.853,1.027,52.669,0.474
			c50.733-1.086,63.101-6.761,68.208-11.585c25.962-24.52,61.029-52.329,61.379-52.607c2.436-1.929,3.591-5.057,2.989-8.106
			c-2.188-11.109,1.598-22.696,5.506-30.953l16.105,27.609c1.222,2.036,2.608,4.344,22.298,11.621
			c12.049,4.453,14.502,17.723,14.59,18.229c0.368,2.298,1.684,4.335,3.627,5.615l22.837,15.045L482.578,170.48z

"/>

</svg>
