<?xml version="1.0" encoding="iso-8859-1"?>
<!-- Generator: Adobe Illustrator 19.0.0, SVG Export Plug-In . SVG Version: 6.00 Build 0)  -->
<svg version="1.1" id="Layer_1" xmlns="http://www.w3.org/2000/svg" xmlns:xlink="http://www.w3.org/1999/xlink" x="0px" y="0px"
	 viewBox="0 0 511.999 511.999" style="enable-background:new 0 0 511.999 511.999;" xml:space="preserve">
<g>
	<g>
		<path d="M420.551,262.897c16.464-10.938,28.083-28.598,30.926-49.033c34.89-9.93,60.523-42.064,60.523-80.094
			c0-52.81-49.024-92.962-101.47-81.268c-8.435,1.882-14.434,9.366-14.434,18.01v30.634H365.46c-8.643,0-16.127,5.999-18.009,14.433
			c-10.44,46.792,20.497,91.457,65.792,100.006c-3.989,10.949-13.513,19.258-25.17,21.534
			c-25.043-38.22-73.552-66.234-132.073-66.234c-58.525,0-107.031,28.016-132.074,66.234c-11.657-2.276-21.18-10.584-25.17-21.534
			c45.326-8.556,76.226-53.244,65.792-100.006c-1.882-8.435-9.366-14.433-18.009-14.433h-30.634V70.513
			c0-8.643-5.999-16.128-14.434-18.01C49.043,40.811,0,80.944,0,133.77c0,38.031,25.634,70.166,60.523,80.094
			c2.843,20.436,14.461,38.095,30.926,49.034c-25.787,8.318-48.546,22.408-65.967,41.164c-6.935,7.467-6.505,19.142,0.962,26.078
			c7.468,6.937,19.145,6.504,26.078-0.962c13.549-14.586,31.607-25.465,52.235-31.766c-0.214,7.735,0.347,15.361,1.659,22.853
			c-31.229,12.524-57.193,33.198-74.219,59.409c-5.55,8.546-3.123,19.975,5.424,25.525c8.546,5.552,19.974,3.122,25.525-5.424
			c12.597-19.394,31.966-34.871,55.458-44.613c2.377,4.404,5.039,8.697,7.995,12.855c-28.307,16.289-50.541,39.497-63.822,67.05
			c-4.425,9.181-0.57,20.209,8.611,24.633c9.18,4.425,20.21,0.568,24.633-8.611c11.055-22.937,31.521-42.683,57.028-55.36
			c28.047,22.331,64.45,34.589,102.95,34.589c38.499,0,74.903-12.258,102.95-34.589c25.507,12.677,45.973,32.423,57.028,55.36
			c4.424,9.178,15.45,13.036,24.633,8.611c9.181-4.425,13.036-15.454,8.611-24.633c-13.279-27.553-35.514-50.76-63.822-67.05
			c2.956-4.159,5.618-8.452,7.995-12.855c23.492,9.741,42.862,25.219,55.458,44.613c5.553,8.549,16.984,10.973,25.525,5.424
			c8.547-5.55,10.974-16.98,5.424-25.525c-17.025-26.212-42.988-46.885-74.218-59.409c1.306-7.461,1.875-15.086,1.659-22.853
			c20.628,6.301,38.687,17.179,52.234,31.766c6.937,7.467,18.611,7.897,26.078,0.962s7.897-18.611,0.962-26.078
			C469.098,285.306,446.338,271.216,420.551,262.897z M83.283,180.147c-25.573,0-46.379-20.805-46.379-46.377
			c0-24.129,18.525-44.014,42.098-46.182v32.011c0,10.19,8.262,18.452,18.452,18.452h32.011
			C127.295,161.624,107.412,180.147,83.283,180.147z M256.001,393.417c-56.811,0-114.385-37.053-114.385-92.814
			c0-51.41,51.61-92.814,114.385-92.814c62.535,0,114.385,41.219,114.385,92.814C370.386,356.47,312.752,393.417,256.001,393.417z
			 M382.536,138.051h32.01c10.19,0,18.452-8.262,18.452-18.452V87.587c23.573,2.169,42.098,22.054,42.098,46.182
			c0,25.572-20.805,46.377-46.378,46.377C404.589,180.147,384.705,161.624,382.536,138.051z"/>
	</g>
</g>
<g>
</g>
<g>
</g>
<g>
</g>
<g>
</g>
<g>
</g>
<g>
</g>
<g>
</g>
<g>
</g>
<g>
</g>
<g>
</g>
<g>
</g>
<g>
</g>
<g>
</g>
<g>
</g>
<g>
</g>
</svg>
