<?xml version="1.0" encoding="iso-8859-1"?>
<!-- Generator: Adobe Illustrator 19.0.0, SVG Export Plug-In . SVG Version: 6.00 Build 0)  -->
<svg version="1.1" id="Layer_1" xmlns="http://www.w3.org/2000/svg" xmlns:xlink="http://www.w3.org/1999/xlink" x="0px" y="0px"
	 viewBox="0 0 512 512" style="enable-background:new 0 0 512 512;" xml:space="preserve">
<g>
	<g>
		<path d="M338.646,149.351c-6.661,0-12.07,5.409-12.07,12.07c0,6.671,5.409,12.07,12.07,12.07c6.672,0,12.07-5.398,12.07-12.07
			C350.716,154.76,345.318,149.351,338.646,149.351z"/>
	</g>
</g>
<g>
	<g>
		<path d="M338.646,149.351c-6.661,0-12.07,5.409-12.07,12.07c0,6.671,5.409,12.07,12.07,12.07c6.672,0,12.07-5.398,12.07-12.07
			C350.716,154.76,345.318,149.351,338.646,149.351z"/>
	</g>
</g>
<g>
	<g>
		<path d="M477.243,180.678l-99.641-27.507c-3.809-18.015-19.825-31.569-38.956-31.569c-11.06,0-21.53,4.609-28.99,12.543
			c0,0-201.313,0-201.428,0c-40.46,0-77.238,22.298-95.968,58.191c-0.032,0.042-0.053,0.095-0.084,0.147
			c-0.032,0.053-3.809,7.871-5.293,11.849C2.315,216.487,0,229.283,0,242.373c0,39.419,15.29,76.501,43.049,104.408
			c27.749,27.896,64.716,43.386,104.103,43.617h0.21c12.08-0.158,21.909-10.123,21.909-22.203c0-12.249-9.965-22.214-22.214-22.214
			h-3.694c-21.593,0-39.166-17.573-39.166-39.166c0-9.649,3.504-18.794,9.776-25.897c2.831,0.926,5.851,1.442,8.987,1.442h64.589
			c5.809,0,10.523-4.714,10.523-10.523c0-1.421-0.074-2.82-0.189-4.199h36.62c4.977,8.776,14.395,14.721,25.181,14.721h64.589
			c5.809,0,10.523-4.714,10.523-10.523c0-1.421-0.074-2.82-0.189-4.199h152.413c13.701,0,24.887-11.144,24.918-24.823L512,226.483
			C512.063,205.185,497.773,186.339,477.243,180.678z M122.96,261.314L122.96,261.314c-4.335,0-7.871-3.536-7.871-7.871v-30.811
			c0-4.504,3.672-8.176,8.176-8.176c4.514,0,8.176,3.672,8.176,8.176v11.796c0,5.819,4.714,10.523,10.523,10.523h8.187
			c11.091,0,20.625,6.756,24.729,16.363H122.96z M259.683,261.314L259.683,261.314c-4.346,0-7.871-3.536-7.871-7.871v-30.811
			c0-4.504,3.662-8.176,8.176-8.176s8.176,3.672,8.176,8.176v11.796c0,5.819,4.714,10.523,10.523,10.523h8.187
			c11.081,0,20.625,6.756,24.729,16.363H259.683z M487.019,246.593H327.576c-8.071-12.985-22.172-21.845-38.366-22.624v-1.336
			c0-16.11-13.112-29.222-29.222-29.222c-16.111,0-29.222,13.112-29.222,29.222v23.961h-39.913
			c-8.071-12.985-22.172-21.845-38.366-22.624v-1.336c0-16.11-13.101-29.222-29.222-29.222c-16.11,0-29.222,13.112-29.222,29.222
			v30.811c0,5.125,1.347,9.934,3.694,14.111c-9.365,10.818-14.585,24.655-14.585,39.261c0,33.2,27.012,60.212,60.212,60.212h3.694
			c0.642,0,1.168,0.526,1.168,1.168c0,0.621-0.495,1.126-1.105,1.158c-33.726-0.232-65.389-13.522-89.15-37.409
			c-23.813-23.94-36.925-55.75-36.925-89.571c0-10.554,1.863-20.856,5.535-30.643c1.21-3.231,2.631-6.419,4.23-9.46
			c0.042-0.084,0.084-0.168,0.126-0.242c0-0.01,0-0.021,0.01-0.021c15.09-28.854,44.648-46.774,77.175-46.816l-0.168,0.168
			c-3.704,3.704-3.704,9.702,0,13.396c1.852,1.852,4.272,2.778,6.693,2.778c2.431,0,4.851-0.926,6.703-2.778l13.564-13.564h9.849
			l-0.168,0.168c-3.694,3.704-3.694,9.702,0,13.396c1.852,1.852,4.272,2.778,6.703,2.778c2.42,0,4.841-0.926,6.693-2.778
			l13.564-13.564h9.849l-0.168,0.168c-3.693,3.704-3.693,9.702,0,13.396c1.852,1.852,4.272,2.778,6.703,2.778
			c2.42,0,4.841-0.926,6.693-2.778l13.564-13.564h9.849l-0.168,0.168c-3.693,3.704-3.693,9.702,0,13.396
			c1.852,1.852,4.272,2.778,6.703,2.778c2.42,0,4.841-0.926,6.693-2.778l13.564-13.564h9.86l-0.179,0.168
			c-3.693,3.704-3.693,9.702,0,13.396c1.852,1.852,4.272,2.778,6.703,2.778c2.42,0,4.841-0.926,6.693-2.778l13.564-13.564h33.158
			c3.441,0,6.671-1.684,8.639-4.514c3.494-5.03,9.25-8.029,15.374-8.029c10.354,0,18.773,8.418,18.773,18.773
			c0,4.735,3.157,8.881,7.724,10.144l106.502,29.401c3.483,0.958,6.629,2.61,9.334,4.756c-0.41,0.305-10.491,10.302-10.491,10.302
			l-9.292-9.302c-1.778-1.778-4.188-2.778-6.703-2.778c-2.504,0-4.914,1-6.693,2.778l-9.302,9.302l-9.302-9.302
			c-1.778-1.778-4.188-2.778-6.693-2.778c-2.515,0-4.925,1-6.703,2.778l-9.302,9.302l-9.292-9.302
			c-3.704-3.704-9.702-3.704-13.396,0l-9.302,9.302l-9.302-9.302c-3.694-3.704-9.692-3.704-13.396,0
			c-3.694,3.693-3.694,9.692,0,13.396l15.995,15.995c1.778,1.778,4.188,2.778,6.703,2.778c2.504,0,4.914-1,6.693-2.778l9.302-9.302
			l9.302,9.302c1.778,1.778,4.188,2.778,6.693,2.778c2.515,0,4.925-1,6.703-2.778l9.302-9.302l9.302,9.302
			c1.768,1.778,4.178,2.778,6.693,2.778c2.515,0,4.925-1,6.693-2.778l9.302-9.302l9.302,9.302c3.704,3.693,9.692,3.693,13.396,0
			l13.511-13.227c0.158,1.158,0.189,19.857,0.189,19.857C490.881,244.867,489.144,246.593,487.019,246.593z"/>
	</g>
</g>
<g>
	<g>
		<path d="M338.646,149.351c-6.661,0-12.07,5.409-12.07,12.07c0,6.671,5.409,12.07,12.07,12.07c6.672,0,12.07-5.398,12.07-12.07
			C350.716,154.76,345.318,149.351,338.646,149.351z"/>
	</g>
</g>
<g>
</g>
<g>
</g>
<g>
</g>
<g>
</g>
<g>
</g>
<g>
</g>
<g>
</g>
<g>
</g>
<g>
</g>
<g>
</g>
<g>
</g>
<g>
</g>
<g>
</g>
<g>
</g>
<g>
</g>
</svg>
