<svg xmlns="http://www.w3.org/2000/svg" viewBox="0 0 32 32">
    <path d="M 17.125 1.96875 L 15.8125 2.65625 C 15.8125 2.65625 11.512906 5.1356747 11.125 10.34375 C 6.3889992 12.889387 2.28125 17.3125 2.28125 17.3125 L 2 17.59375 L 2 18 C 2 18 1.963605 20.926164 3.3125 23.90625 C 4.6613954 26.886336 7.6138669 30 13 30 L 14.03125 30 L 14 28.96875 C 14 28.96875 13.95851 27.661795 14.28125 26.21875 C 14.60399 24.775705 15.264308 23.373744 16.375 22.90625 L 16.375 22.9375 C 19.268311 21.740268 23.34375 24.5625 23.34375 24.5625 L 24 25.03125 L 24.59375 24.53125 C 24.59375 24.53125 25.879547 23.472703 27.15625 22.34375 C 27.794602 21.779273 28.406304 21.187396 28.90625 20.6875 C 29.156223 20.437552 29.385996 20.217305 29.5625 20 C 29.65075 19.891348 29.735047 19.78743 29.8125 19.65625 C 29.889953 19.52507 30 19.396786 30 19 C 30 18.534746 29.840381 18.413651 29.75 18.28125 C 29.659619 18.148849 29.571211 18.047773 29.46875 17.9375 C 29.263829 17.716954 29.013664 17.47884 28.71875 17.21875 C 28.128922 16.698571 27.382884 16.09475 26.625 15.5 C 25.206175 14.386577 23.956146 13.472764 23.78125 13.34375 L 22.90625 11.5625 L 22.71875 11.21875 L 22.375 11.0625 L 20.125 10.15625 L 20.78125 4.5 L 20.96875 3.0625 L 19.5625 3.40625 C 19.5625 3.40625 18.492411 3.6565594 17.375 4.40625 L 17.28125 3.4375 L 17.125 1.96875 z M 15.5 5.46875 L 16 10.09375 L 16.0625 10.71875 L 16.625 10.9375 L 21.28125 12.8125 L 22.09375 14.4375 L 22.21875 14.65625 L 22.40625 14.8125 C 22.40625 14.8125 23.890769 15.89775 25.375 17.0625 C 25.690035 17.309724 25.948339 17.507172 26.25 17.75 L 25 19 L 26.34375 20.34375 C 26.152346 20.517229 26.00985 20.669239 25.8125 20.84375 C 24.829163 21.713288 24.214799 22.222037 23.84375 22.53125 C 22.89725 21.846206 19.429996 19.488019 15.625 21.0625 L 15.625 21.09375 C 13.568692 21.959256 12.72926 24.057545 12.34375 25.78125 C 12.095426 26.891564 12.141841 27.284312 12.125 27.875 C 8.145609 27.565242 6.2144471 25.431603 5.15625 23.09375 C 4.1496426 20.869873 4.0459977 18.874876 4.03125 18.375 C 4.4960395 17.892178 8.307908 14.02367 12.46875 11.90625 L 13 11.625 L 13 11 C 13 7.9315285 14.385034 6.394333 15.5 5.46875 z M 18.59375 6.125 L 18.1875 9.375 L 17.9375 9.28125 L 17.65625 6.8125 C 17.932813 6.536961 18.274051 6.3288319 18.59375 6.125 z M 20 14 C 19.447715 14 19 14.447715 19 15 C 19 15.552285 19.447715 16 20 16 C 20.552285 16 21 15.552285 21 15 C 21 14.447715 20.552285 14 20 14 z"/>
</svg>
