<?xml version="1.0"?>
<svg xmlns="http://www.w3.org/2000/svg" viewBox="0 0 32 32">
    <path style="line-height:normal;text-indent:0;text-align:start;text-decoration-line:none;text-decoration-style:solid;text-decoration-color:#000;text-transform:none;block-progression:tb;isolation:auto;mix-blend-mode:normal" d="M 9.8417969 1.6660156 L 8.6835938 2.0507812 C 7.0571025 2.592945 5.978111 3.3083789 5.3417969 4.1992188 C 4.7054827 5.0900586 4.6043024 6.1191677 4.7695312 6.9453125 C 4.9191033 7.6931729 5.2579296 8.2831248 5.5703125 8.7558594 C 5.286969 8.9275011 5.2184179 8.8675196 4.9179688 9.1679688 C 4.1044069 9.9815305 3.445372 11.500178 4.0507812 13.316406 C 4.5086468 14.690003 5.5709421 15.433429 6.4296875 15.738281 C 6.6736039 15.824871 6.6774056 15.7732 6.890625 15.8125 C 6.827741 16.158655 6.7573862 16.203363 6.765625 16.689453 C 6.784469 17.80123 7.180973 19.308277 8.5820312 20.214844 C 9.3209327 20.693019 10.14344 20.934551 10.953125 21.0625 L 5.4179688 28.443359 L 6.6289062 28.927734 C 12.098481 31.115564 18.316406 28.949219 18.316406 28.949219 L 19 28.720703 L 19 24.871094 C 19.773337 24.758584 20.858844 24.546468 22.199219 23.984375 C 24.315173 23.097039 26.705526 21.286091 26.996094 18.089844 C 27.108435 16.853467 26.820563 15.545338 26.533203 14.490234 C 26.457313 14.211588 26.448388 14.233084 26.375 14 L 29.662109 14 L 28.882812 12.53125 C 28.882812 12.53125 28.358463 11.505127 28.085938 10.941406 C 28.866054 9.1991901 28.301052 7.2998466 26.861328 6.5 C 26.459126 6.2765541 26.010395 6.1424959 25.537109 6.1015625 C 24.117587 5.9787912 22.476044 6.701254 21.201172 8.4003906 C 21.07229 8.5720812 20.537476 9.2024738 20.236328 9.5703125 C 20.14248 9.3854881 20.039547 9.1584369 19.927734 8.8789062 C 19.478961 7.756972 19 5.8888889 19 3 L 19 2 L 18 2 C 16.833333 2 15.890653 2.3062277 15.21875 2.84375 C 14.546847 3.3812723 14.192342 4.1056333 14.029297 4.7578125 C 13.805238 5.6540462 13.954887 6.0282666 14.029297 6.4648438 C 13.679349 6.6241414 13.430032 6.6559054 12.917969 7.1679688 C 12.61463 7.4713071 12.333703 7.8733062 12.130859 8.3515625 C 11.104881 6.9063628 10.270545 5.1018579 9.9921875 2.875 L 9.8417969 1.6660156 z M 17.103516 4.2382812 C 17.230665 6.609489 17.607208 8.458449 18.072266 9.6210938 C 18.354216 10.32597 18.660027 10.84421 18.898438 11.193359 C 18.207792 12.017215 18.017594 12.249455 17.486328 12.876953 C 16.774186 12.529595 15.339725 11.731585 13.876953 10.351562 C 13.660582 9.4249537 13.942894 8.9711688 14.332031 8.5820312 C 14.768469 8.1455931 15.316406 7.9492188 15.316406 7.9492188 L 16.195312 7.65625 L 15.970703 6.7578125 C 15.970703 6.7578125 15.796793 5.9378291 15.970703 5.2421875 C 16.057653 4.8943667 16.203153 4.6187277 16.46875 4.40625 C 16.578832 4.318184 16.91941 4.307379 17.103516 4.2382812 z M 8.3417969 4.5371094 C 9.0134761 7.4130142 10.478532 9.6121803 12.029297 11.236328 C 12.037853 11.263574 12.041654 11.289024 12.050781 11.316406 L 12.095703 11.300781 C 13.861162 13.128679 15.667951 14.18139 16.585938 14.648438 L 17.761719 15.648438 C 17.761719 15.648438 21.837563 10.880165 22.798828 9.5996094 L 22.800781 9.5996094 C 24.100781 7.866276 25.247482 7.8937835 25.888672 8.25 C 26.529862 8.6062165 26.911953 9.3293362 26.167969 10.445312 L 25.871094 10.890625 L 26.076172 11.382812 C 26.160832 11.586946 26.249796 11.726705 26.384766 12 L 23.533203 12 L 24.068359 13.365234 C 24.068359 13.365234 24.345626 14.068729 24.603516 15.015625 C 24.861405 15.962521 25.072565 17.154533 25.003906 17.910156 C 24.794474 20.213909 23.184827 21.402961 21.425781 22.140625 C 19.666735 22.878289 17.933594 23.001953 17.933594 23.001953 L 17 23.064453 L 17 27.1875 C 16.134954 27.436083 12.514672 28.300356 8.7265625 27.365234 L 13.373047 21.171875 C 14.411355 21.122178 15.1875 20.982422 15.1875 20.982422 L 14.8125 19.017578 C 14.8125 19.017578 13.947955 19.182066 12.833984 19.193359 C 11.720013 19.204649 10.408637 19.014475 9.6679688 18.535156 C 8.944027 18.066722 8.7780313 17.38627 8.765625 16.654297 C 8.7532187 15.922324 8.9492188 15.316406 8.9492188 15.316406 L 9.4121094 13.923828 L 7.9472656 14.001953 C 7.9472656 14.001953 7.564114 14.018413 7.0996094 13.853516 C 6.6351048 13.688613 6.1983532 13.430997 5.9492188 12.683594 C 5.554628 11.499822 5.8955931 11.018469 6.3320312 10.582031 C 6.7684694 10.145593 7.3164062 9.9492186 7.3164062 9.9492188 L 8.8515625 9.4375 L 7.7070312 8.2929688 C 7.7070312 8.2929688 6.9000108 7.402398 6.7304688 6.5546875 C 6.6456976 6.1308323 6.6695173 5.7849414 6.9707031 5.3632812 C 7.1467294 5.1168445 7.84656 4.8227474 8.3417969 4.5371094 z" font-weight="400" font-family="sans-serif" white-space="normal" overflow="visible"/>
</svg>
