<?xml version="1.0"?>
<svg xmlns="http://www.w3.org/2000/svg" viewBox="0 0 50 50">
    <path style="line-height:normal;text-indent:0;text-align:start;text-decoration-line:none;text-decoration-style:solid;text-decoration-color:#000;text-transform:none;block-progression:tb;isolation:auto;mix-blend-mode:normal" d="M 9.1582031 2.1113281 C 9.123396 2.1057722 9.0965938 2.109625 9.0820312 2.125 C 8.6630313 2.567 10.414688 5.5722344 14.304688 6.9902344 C 17.184687 8.0402344 21.440188 9.2714219 23.992188 11.482422 C 24.294187 11.438422 24.762656 11.133172 25.222656 10.826172 C 25.745656 10.476172 26.346688 10.079547 27.054688 9.8105469 C 21.845688 6.4065469 16.488469 5.4042969 14.230469 4.9042969 C 12.378906 4.4946094 9.6803101 2.1946667 9.1582031 2.1113281 z M 1.1484375 5 C 1.1129619 4.9984216 1.0868125 5.0060625 1.0703125 5.0234375 C 0.5963125 5.5244375 2.4950781 8.2981875 6.7050781 9.8671875 C 9.193548 10.795257 12.882818 12.026327 15.572266 13.664062 C 14.81162 13.83835 13.972845 14.11105 13.056641 14.519531 L 11.464844 15.228516 L 12.880859 16.244141 C 13.245184 16.505271 13.39445 17.101056 13.412109 17.681641 C 12.622044 17.556123 11.258445 17.280709 8.2285156 18.683594 L 6.6933594 19.394531 L 8.0546875 20.396484 C 8.0546875 20.396484 8.7432509 20.905512 9.4257812 21.537109 C 9.6061156 21.703986 9.7407628 21.869833 9.9023438 22.041016 C 7.9398601 22.200693 6.1935701 22.793743 4.9355469 23.865234 L 3.4589844 25.123047 L 5.3378906 25.595703 C 5.8321517 25.720357 6.2931317 26.078041 6.6601562 26.496094 C 5.4277333 26.529864 4.080818 26.741448 2.8515625 27.970703 L 1.9980469 28.824219 L 2.9941406 29.503906 C 3.2917029 29.706812 3.277809 29.763622 3.2070312 30.074219 C 3.1362533 30.384815 2.8352039 30.863617 2.3886719 31.208984 L 1.9121094 31.578125 L 2.015625 32.171875 C 2.015625 32.171875 2.6483639 35.862505 5.0761719 39.550781 C 7.5039749 43.239058 11.871579 47 19 47 L 20 47 L 20 46 C 20 45.08394 20.477388 42.553906 21.304688 40.472656 C 21.718336 39.432031 22.222791 38.482907 22.730469 37.857422 C 23.238147 37.231936 23.672778 37 24 37 C 24.594843 37 25.386126 37.45023 26.138672 38.158203 C 26.891217 38.866177 27.559878 39.745467 28.066406 40.353516 C 29.300857 41.834558 30.180128 42.948986 31.226562 43.761719 C 31.343247 43.852344 31.471967 43.92101 31.59375 44.001953 L 30 46 C 30 46 32.320671 45.926643 34.064453 44.927734 C 34.382665 44.970602 34.709872 45 35.056641 45 C 37.461503 45 39 43.595588 39 42 L 39 41.240234 L 38.267578 41.037109 C 38.267578 41.037109 38.069937 40.971501 37.78125 40.849609 C 37.98818 39.933247 38 39 38 39 L 36.470703 40.125 C 36.195616 39.939128 35.908167 39.72852 35.603516 39.466797 C 35.984964 38.410516 36 37 36 37 L 34.373047 38.197266 C 34.292135 38.100305 34.21136 38.019379 34.130859 37.916016 C 33.982873 37.725966 33.831615 37.478675 33.679688 37.222656 C 33.983106 36.204973 34 35 34 35 L 32.927734 35.791016 C 32.84627 35.620817 32.756612 35.419005 32.673828 35.240234 C 32.982504 34.218914 33 33 33 33 L 31.988281 33.744141 C 31.931197 33.617326 31.880018 33.508503 31.822266 33.380859 C 31.188824 31.980828 30.437845 30.610907 29.537109 29.40625 C 29.976941 29.31818 30.527276 29.272 31.107422 29.316406 C 32.269508 29.405348 33.45992 29.834371 34.148438 30.558594 L 33 32 C 33 32 34.173925 31.991039 35.306641 31.765625 C 35.584934 32.034033 35.875162 32.284598 36.166016 32.537109 L 35 34 C 35 34 36.372099 33.990451 37.582031 33.705078 C 37.84548 33.910542 38.09432 34.102173 38.355469 34.300781 L 37 36 C 37 36 38.734759 35.991337 40.021484 35.587891 C 40.214696 35.740007 40.382294 35.888502 40.564453 36.039062 L 39 38 C 39 38 40.884286 37.990086 42.181641 37.533203 C 42.326635 37.690953 42.466523 37.848767 42.591797 38.005859 L 41 40 C 41 40 42.329713 40.037328 43.529297 39.763672 L 43.792969 40.84375 L 44.861328 40.416016 C 44.861328 40.416016 45.87042 40.017028 46.876953 39.195312 C 47.88344 38.373546 49 37.02193 49 35.160156 C 49 34.661671 49.000266 32.782787 47.554688 31.335938 L 47.554688 31.333984 C 47.177937 30.957235 46.789219 30.690069 46.417969 30.496094 C 47.647595 27.861749 46 25 46 25 C 46 25 45.51994 27.797129 43.775391 28.691406 L 38.916016 23.3125 C 38.949746 22.957469 39.038957 22.353762 38.884766 21.232422 C 38.691484 19.826799 38.141877 18.039107 36.482422 17.125 C 33.988517 15.750197 33.358148 14.535408 32.677734 13.386719 C 32.337527 12.812374 31.981215 12.196578 31.326172 11.716797 C 30.671129 11.237016 29.794304 11 28.679688 11 C 27.478525 11 26.645804 11.680791 25.914062 12.167969 C 25.182322 12.655147 24.573947 13 23.917969 13 C 22.975842 13 22.257515 13.122381 21.677734 13.267578 C 15.562903 9.1526782 8.998284 8.1066701 6.3613281 7.5234375 C 4.2632031 7.059375 1.6805713 5.0236755 1.1484375 5 z M 28.679688 13 C 29.53557 13 29.891012 13.14439 30.144531 13.330078 C 30.39805 13.515766 30.626488 13.84822 30.957031 14.40625 C 31.618117 15.52231 32.676483 17.308803 35.517578 18.875 C 36.336123 19.325893 36.751579 20.395232 36.904297 21.505859 C 37.057015 22.616487 36.939453 23.589844 36.939453 23.589844 L 36.880859 24.044922 L 44.164062 32.105469 L 44.681641 32.041016 C 44.681641 32.041016 44.756861 32.019271 45.035156 32.087891 C 45.31345 32.156511 45.705324 32.314699 46.140625 32.75 C 46.969683 33.581013 47 34.700897 47 35.160156 C 47 36.221383 46.361748 37.03545 45.613281 37.646484 C 45.222718 37.965333 45.117433 37.971364 44.833984 38.123047 C 44.035805 36.520155 42.740998 35.175955 41.201172 33.96875 C 39.29261 32.472461 37.19755 31.023475 35.759766 29.349609 L 35.757812 29.347656 C 34.587311 27.985565 32.83619 27.44292 31.259766 27.322266 C 30.471135 27.261906 29.715474 27.310256 29.044922 27.455078 C 28.37437 27.599905 27.779378 27.806559 27.292969 28.292969 L 26.576172 29.009766 L 27.302734 29.716797 C 28.293931 30.679208 29.188239 32.410927 30 34.205078 C 30.811761 35.99923 31.531889 37.833527 32.552734 39.144531 C 34.140305 41.182967 35.626241 42.007113 36.630859 42.458984 C 36.345723 42.724919 35.870506 43 35.056641 43 C 33.836888 43 33.20894 42.768658 32.453125 42.181641 C 31.69731 41.594623 30.845111 40.566176 29.601562 39.074219 C 29.160092 38.544267 28.42872 37.565698 27.509766 36.701172 C 26.590811 35.836645 25.439157 35 24 35 C 22.827222 35 21.886853 35.719626 21.175781 36.595703 C 20.464709 37.47178 19.906664 38.57375 19.445312 39.734375 C 18.70446 41.598149 18.310118 43.427526 18.148438 44.890625 C 12.284643 44.594803 8.8187226 41.597914 6.7460938 38.449219 C 4.8036883 35.498356 4.2311337 32.886961 4.1074219 32.279297 C 4.5973514 31.772836 5.0027831 31.201567 5.1582031 30.519531 C 5.2669913 30.042132 5.2067591 29.511501 5.0136719 29.017578 C 6.0179329 28.452682 7.0743777 28.425711 8.3359375 28.472656 L 9.75 28.525391 L 9.328125 27.175781 C 9.056368 26.304829 8.3690096 25.4148 7.4765625 24.677734 C 8.5773429 24.069704 9.826094 23.655871 11.476562 23.867188 L 12.658203 24.019531 L 12.601562 22.828125 C 12.569033 22.135971 12.244885 21.700693 11.910156 21.267578 C 11.575428 20.834463 11.175891 20.429936 10.785156 20.068359 C 10.706286 19.995379 10.706616 20.008689 10.628906 19.939453 C 12.543242 19.393715 13.072586 20.036033 14.566406 19.689453 L 15.101562 19.566406 L 15.283203 19.046875 C 15.630286 18.054561 15.440444 16.975151 14.96875 16.001953 C 16.093513 15.626837 17.053857 15.445783 17.8125 15.412109 C 18.546326 16.198153 19 17.05693 19 18 C 19 18 23 19 24 15 C 23.99818 14.998481 23.995961 14.997612 23.994141 14.996094 C 25.283516 14.971061 26.26642 14.334738 27.021484 13.832031 C 27.791743 13.319209 28.348849 13 28.679688 13 z M 18.513672 20.162109 C 16.484219 20.193516 14.756672 20.482953 14.701172 20.814453 C 14.653172 21.105453 17.377906 20.912437 20.003906 23.023438 C 20.393906 23.336437 21.206687 22.802266 21.304688 21.697266 C 21.385687 20.787266 21.10875 20.265609 20.59375 20.224609 C 19.9005 20.169609 19.190156 20.151641 18.513672 20.162109 z M 32 22 C 30.643 22 29 23 29 23 C 30.886 24.886 33.203 25 35 25 C 35 25 34.171 22 32 22 z M 18.787109 24.142578 C 18.668234 24.12725 18.548734 24.141047 18.427734 24.185547 C 15.291734 25.330547 13.69675 27.313328 13.84375 27.736328 C 13.94075 28.014328 15.936906 26.331828 19.253906 26.923828 C 19.746906 27.011828 20.201812 26.152719 19.757812 25.136719 C 19.483313 24.508969 19.143734 24.188563 18.787109 24.142578 z M 17.902344 28.96875 C 17.805828 28.988484 17.715312 29.032859 17.632812 29.099609 C 15.503813 30.823609 14.792531 32.787172 15.019531 33.076172 C 15.168531 33.266172 16.270906 31.427906 19.003906 31.003906 C 19.409906 30.940906 19.535922 30.153422 18.919922 29.482422 C 18.539672 29.068422 18.191891 28.909547 17.902344 28.96875 z" font-weight="400" font-family="sans-serif" white-space="normal" overflow="visible"/>
</svg>
