<?xml version="1.0"?>
<svg xmlns="http://www.w3.org/2000/svg" viewBox="0 0 32 32">
    <path style="text-indent:0;text-align:start;line-height:normal;text-transform:none;block-progression:tb;-inkscape-font-specification:Bitstream Vera Sans" d="M 19.8125 3 C 17.537842 3 15.5 4.7946987 15.5 7.1875 C 15.5 8.4320571 16.012131 9.3120403 16.375 10.03125 C 16.737869 10.75046 17 11.364057 17 12.46875 C 17 13.047369 16.320903 14.908011 15 16.375 C 13.679097 17.841989 11.833678 19 9.65625 19 C 8.6755158 19 8.3488665 18.751273 8.1875 18.5625 C 8.0261335 18.373727 8 18.105338 8 18 L 6 18 C 6 18.160829 6.206643 18.438709 6.25 18.65625 C 5.7885926 18.203817 4.78125 17.375 4.78125 17.375 L 3.21875 18.625 C 3.21875 18.625 8.1259538 24.61005 15.59375 24.96875 C 15.247466 25.509588 14.764209 25.870865 14.46875 26.0625 L 14 26.34375 L 14 26.90625 L 14 27 L 14 28 L 15 28 L 21 28 L 21 26 L 17.25 26 C 17.456997 25.681475 17.645499 25.327132 17.78125 24.9375 C 20.362706 24.716054 22.144175 23.920986 23.28125 22.8125 C 24.628895 21.498739 25 19.827174 25 18.5625 C 25 16.615073 24.105257 15.190893 23.34375 14.0625 C 22.582243 12.934107 22 12.108959 22 11.1875 C 22 10.660988 22.241831 10.509508 22.71875 10 C 25.614305 9.993478 28 9.8301498 28 7 L 25.96875 7 C 24.66475 7 23.84375 5.875 23.84375 5.875 C 23.84375 5.875 23.814791 5.9034008 23.8125 5.90625 C 23.576798 5.1206124 23.129984 4.460575 22.5625 4 C 21.746862 3.338021 20.754663 3 19.8125 3 z M 19.8125 5 C 20.253337 5 20.883388 5.182979 21.3125 5.53125 C 21.741612 5.879521 22 6.3251264 22 7 C 22 7.824055 21.757803 8.0460147 21.28125 8.5625 C 20.804697 9.0789853 20 9.9109817 20 11.1875 C 20 12.874041 20.952507 14.098393 21.6875 15.1875 C 22.422493 16.276607 23 17.221927 23 18.5625 C 23 19.458826 22.754605 20.517511 21.875 21.375 C 20.995395 22.232489 19.375007 23 16.28125 23 C 13.583248 23 11.352282 22.046814 9.46875 20.96875 C 9.5395848 20.971305 9.583345 21 9.65625 21 C 12.541822 21 14.880403 19.482761 16.46875 17.71875 C 18.057097 15.954739 19 14.058131 19 12.46875 C 19 10.978443 18.543881 9.9245403 18.15625 9.15625 C 17.768619 8.3879597 17.5 7.9279429 17.5 7.1875 C 17.5 5.9363013 18.577158 5 19.8125 5 z M 20.25 6.25 C 19.835786 6.25 19.5 6.5857865 19.5 7 C 19.5 7.4142136 19.835786 7.75 20.25 7.75 C 20.664214 7.75 21 7.4142136 21 7 C 21 6.5857865 20.664214 6.25 20.25 6.25 z" overflow="visible" font-family="Bitstream Vera Sans"/>
</svg>
