<?xml version="1.0" encoding="iso-8859-1"?>
<!-- Generator: Adobe Illustrator 18.0.0, SVG Export Plug-In . SVG Version: 6.00 Build 0)  -->
<!DOCTYPE svg PUBLIC "-//W3C//DTD SVG 1.1//EN" "http://www.w3.org/Graphics/SVG/1.1/DTD/svg11.dtd">
<svg version="1.1" id="Capa_1" xmlns="http://www.w3.org/2000/svg" xmlns:xlink="http://www.w3.org/1999/xlink" x="0px" y="0px"
	 viewBox="0 0 51 51" style="enable-background:new 0 0 51 51;" xml:space="preserve">
<g>
	<path d="M49.821,10.709C49.544,10.265,49.065,10,48.541,10H38.87C37.914,4.334,32.985,0,27.051,0c-6.617,0-12,5.383-12,12
		c0,5.677,4.142,8.968,5.701,10.207c0.109,0.087,0.207,0.164,0.29,0.231c-0.041,0.659-0.235,2.135-1.164,2.786
		c-0.666,0.468-1.686,0.47-3.029,0.002c-1.18-0.411-2.293-1.134-3.308-2.15l-5.943-5.943c-0.429-0.427-1.01-0.649-1.623-0.604
		C5.37,16.574,4.815,16.88,4.452,17.37c-1.544,2.086-4.037,6.515-3.401,12.652c0.004,0.171,0.113,4.25,1.64,8.805
		c2.066,6.162,5.76,10.189,10.681,11.646C14.567,50.828,15.881,51,17.389,51h6.858c3.067,0,6.033-0.888,8.576-2.567l0.258-0.171
		c7.136-4.798,9.717-13.971,6.004-21.337c-1.101-2.184-2.617-3.924-4.516-5.182c0.381-0.476,0.832-1.07,1.298-1.743h5.339
		c1.185,0,2.282-0.305,3.174-0.88c2.696-1.741,4.614-5.105,5.518-6.956C50.126,11.695,50.098,11.151,49.821,10.709z M37.3,27.825
		c3.26,6.468,0.967,14.541-5.369,18.8l-0.208,0.139C29.506,48.227,26.921,49,24.247,49h-6.858c-1.313,0-2.44-0.146-3.449-0.444
		C3.54,45.476,3.055,30.131,3.046,29.897C2.474,24.351,4.689,20.413,6.06,18.56l-0.804-0.595l0.928,0.582l5.943,5.942
		c1.229,1.231,2.597,2.114,4.063,2.625c1.986,0.692,3.611,0.606,4.837-0.254c1.793-1.258,2.013-3.681,2.024-4.659
		c0.007-0.397-0.148-0.768-0.435-1.043c-0.132-0.126-0.346-0.299-0.621-0.518c-1.48-1.176-4.945-3.929-4.945-8.641
		c0-5.514,4.486-10,10-10c5.139,0,9.381,3.898,9.935,8.892l0.018,0.199c0.027,0.3,0.047,0.602,0.047,0.909
		c0,0.309-0.038,0.634-0.094,0.965c-0.01,0.06-0.019,0.119-0.031,0.18c-0.136,0.7-0.379,1.438-0.705,2.19
		c-0.006,0.014-0.012,0.028-0.018,0.042c-0.336,0.767-0.753,1.544-1.216,2.302c-0.039,0.063-0.081,0.127-0.121,0.191
		c-0.695,1.115-1.48,2.183-2.25,3.102c-0.268,0.319-0.381,0.737-0.311,1.146c0.071,0.417,0.323,0.78,0.691,0.998
		C34.82,24.194,36.269,25.778,37.3,27.825z M43.296,17.439C42.728,17.806,42.005,18,41.206,18h-4.079
		c0.147-0.26,0.289-0.525,0.427-0.795c0.015-0.028,0.029-0.056,0.043-0.084c0.108-0.213,0.212-0.429,0.312-0.647
		c0.028-0.062,0.058-0.124,0.085-0.185c0.078-0.175,0.151-0.35,0.222-0.527c0.033-0.082,0.069-0.164,0.1-0.245
		c0.056-0.146,0.106-0.293,0.157-0.44c0.034-0.1,0.073-0.201,0.104-0.299c0.026-0.08,0.045-0.161,0.069-0.242
		c0.106-0.359,0.194-0.711,0.257-1.053c0.007-0.035,0.016-0.071,0.022-0.106c0.03-0.171,0.049-0.337,0.068-0.503
		c0.008-0.065,0.02-0.13,0.026-0.195c0.021-0.23,0.032-0.457,0.032-0.678h8.686C46.905,13.562,45.317,16.134,43.296,17.439z
                M34.051,10c0-2.757-2.243-5-5-5s-5,2.243-5,5s2.243,5,5,5S34.051,12.757,34.051,10z M26.051,10c0-1.654,1.346-3,3-3
		c1.38,0,2.534,0.942,2.882,2.213C31.666,9.081,31.369,9,31.051,9c-1.105,0-2,0.895-2,2c0,0.783,0.454,1.453,1.109,1.782
		C29.816,12.919,29.443,13,29.051,13C27.397,13,26.051,11.654,26.051,10z
                M26.924,29.554c-1.601-0.867-3.569-0.72-5.859,0.441c-2.33,1.183-5.005,2.101-8.177,2.807l-0.379,0.084
		c-0.462,0.103-0.854,0.401-1.073,0.818c-0.219,0.414-0.245,0.9-0.071,1.335c0.835,2.1,4.068,8.942,10.642,8.973
		c0.081,0.006,0.235,0.016,0.445,0.016c0.977,0,3.169-0.201,4.972-1.82c1.744-1.567,2.628-3.988,2.628-7.195l-0.006-0.107
		C30.028,34.747,29.597,31.004,26.924,29.554z M26.103,40.705c-1.67,1.515-3.928,1.313-3.945,1.313l-0.106-0.006
		c-4.971,0-7.709-5.106-8.647-7.276c3.302-0.74,6.105-1.708,8.567-2.958c1.66-0.843,3.004-1.004,3.993-0.47
		c1.63,0.878,2.036,3.398,2.087,3.766C28.04,37.647,27.385,39.541,26.103,40.705z"/>
</g>
<g>
</g>
<g>
</g>
<g>
</g>
<g>
</g>
<g>
</g>
<g>
</g>
<g>
</g>
<g>
</g>
<g>
</g>
<g>
</g>
<g>
</g>
<g>
</g>
<g>
</g>
<g>
</g>
<g>
</g>
</svg>
