<?xml version="1.0"?>
<svg xmlns="http://www.w3.org/2000/svg" viewBox="0 0 32 32">
    <path style="text-indent:0;text-align:start;line-height:normal;text-transform:none;block-progression:tb;-inkscape-font-specification:Bitstream Vera Sans" d="M 15.625 6 C 13.174409 5.976359 11.091121 7.1375858 9.5 8.5 C 7.9088789 9.8624142 6.7872907 11.434963 6.15625 12.46875 L 5.21875 14 L 7 14 L 7.375 14 C 6.5945881 15.000273 5.6652881 16.337492 5.09375 17.59375 L 5 17.78125 L 5 18 L 5 18.09375 L 5 19.5625 L 6.34375 19.03125 C 6.9192507 18.810538 7.7453685 18.656577 8.59375 18.4375 C 8.0806716 20.360724 7.9327012 22.095098 8.15625 23.1875 L 8.3125 24 L 9.125 24 L 9.25 24 L 9.6875 24 L 9.96875 23.6875 C 10.421038 23.221234 11.950695 22.570607 12.71875 22.25 C 13.847537 24.109382 15.392403 25.385564 16.59375 25.90625 L 18 26.53125 L 18 25 C 18 22.370099 18.559685 20.015003 19.4375 18.40625 C 20.315315 16.797497 21.397533 16 22.65625 16 L 25.875 16 C 26.959 16 27.738 16.333 28 17 L 28 14.96875 C 28 14.010899 27.673645 11.392268 25.03125 11.03125 C 24.96559 10.580698 24.786868 10.139814 24.53125 9.78125 C 24.027049 9.0739893 23.306334 8.4533893 22.40625 7.90625 C 20.606083 6.8119713 18.142567 6 15.625 6 z M 15.625 8 C 17.691433 8 19.868167 8.7280287 21.34375 9.625 C 22.081541 10.073486 22.642732 10.567854 22.90625 10.9375 C 23.169768 11.307146 23.137523 11.382512 23.125 11.40625 L 23.09375 11.4375 L 23.09375 11.46875 L 21.9375 14.125 C 20.137336 14.412818 18.623363 15.665093 17.65625 17.4375 C 16.788707 19.027427 16.375517 21.082702 16.1875 23.28125 C 15.336582 22.659672 14.439887 21.82032 13.90625 20.59375 L 13.5625 19.78125 L 12.71875 20.03125 C 12.205422 20.185248 11.146988 20.675243 10.09375 21.28125 C 10.10894 20.204809 10.234301 18.926564 10.90625 17.40625 L 11.6875 15.6875 L 9.8125 16 C 9.445875 16.064451 8.7541445 16.317266 8.15625 16.46875 C 9.1730307 15.011257 10.25 13.65625 10.25 13.65625 L 11.78125 12 L 9.53125 12 L 9.15625 12 C 9.6886795 11.319026 10.047946 10.685907 10.8125 10.03125 C 12.176379 8.8634142 13.825591 7.982641 15.625 8 z M 17 11 C 17 11.832 17.771 13 19 13 C 20.495 13 21 12 21 12 L 17 11 z" overflow="visible" font-family="Bitstream Vera Sans"/>
</svg>
