<?xml version="1.0" encoding="UTF-8" standalone="no"?>
<svg
   xmlns:dc="http://purl.org/dc/elements/1.1/"
   xmlns:cc="http://creativecommons.org/ns#"
   xmlns:rdf="http://www.w3.org/1999/02/22-rdf-syntax-ns#"
   xmlns:svg="http://www.w3.org/2000/svg"
   xmlns="http://www.w3.org/2000/svg"
   xmlns:sodipodi="http://sodipodi.sourceforge.net/DTD/sodipodi-0.dtd"
   xmlns:inkscape="http://www.inkscape.org/namespaces/inkscape"
   inkscape:version="1.0beta2 (2b71d25, 2019-12-03)"
   sodipodi:docname="elephant-2.svg"
   xml:space="preserve"
   style="enable-background:new 0 0 512.001 512.001;"
   viewBox="0 0 512.001 512.001"
   y="0px"
   x="0px"
   id="Capa_1"
   version="1.1"><metadata
   id="metadata95"><rdf:RDF><cc:Work
       rdf:about=""><dc:format>image/svg+xml</dc:format><dc:type
         rdf:resource="http://purl.org/dc/dcmitype/StillImage" /><dc:title></dc:title></cc:Work></rdf:RDF></metadata><defs
   id="defs93" /><sodipodi:namedview
   inkscape:current-layer="Capa_1"
   inkscape:window-maximized="0"
   inkscape:window-y="23"
   inkscape:window-x="0"
   inkscape:cy="256.00049"
   inkscape:cx="88.866412"
   inkscape:zoom="0.61328008"
   showgrid="false"
   id="namedview91"
   inkscape:window-height="480"
   inkscape:window-width="790"
   inkscape:pageshadow="2"
   inkscape:pageopacity="0"
   guidetolerance="10"
   gridtolerance="10"
   objecttolerance="10"
   borderopacity="1"
   inkscape:document-rotation="0"
   bordercolor="#666666"
   pagecolor="#ffffff" />
<path
     
     d="
M 500 0

M 453.297,253.793 c 12.522,-21.81 24.06,-39.183 36.312,-54.673 C 538.323,137.527 502.973,46.379 427.709,31.86 404.104,27.307 379.487,30.75 358.6,41.282 332.664,12.353 294.859,0.328 255.675,0.328 216.339,0.328 178.227,12.401 151.998,41.464 87.77,9.12 13.498,49.955 1.705,116.104 c -5.22,29.279 1.641,58.274 19.32,81.642 11.916,15.751 23.077,33.367 35.127,55.442 13.894,25.453 39.011,42.389 67.26,46.017 -31.289,47.292 -71.148,62.173 -86.283,80.677 -11.569,14.144 -6.59,26.961 -2.592,33.342 7.445,11.887 23.391,12.94 37.221,10.977 35.265,-5.01 93.34,-33.683 128.207,-84.998 4.296,69.298 9.724,157.204 9.797,158.411 0.488,7.9 7.037,14.058 14.953,14.058 h 60.922 c 7.915,0 14.464,-6.158 14.953,-14.058 0.074,-1.196 5.429,-87.929 9.711,-157.004 31.445,45.111 84.278,75.735 124.029,82.949 14.987,2.721 33.193,2.628 41.314,-10.335 4.008,-6.398 8.983,-19.242 -2.727,-33.386 -15.4,-18.601 -56.116,-33.582 -87.681,-81.631 28.169,-3.392 54.016,-19.953 68.061,-44.414 z M 82.45,238.833 C 69.674,215.428 57.749,196.629 44.918,179.671 32.334,163.037 27.462,142.33 31.2,121.364 39.297,75.95 89.147,46.571 134.859,66.517 c -9.89,19.503 -15.011,42.658 -15.011,68.639 0,33.253 8.031,65.272 23.225,92.593 2.284,4.107 4.716,8.054 7.268,11.861 -3.173,11.014 -6.848,21.036 -10.9,30.179 -1.532,0.117 -3.07,0.194 -4.611,0.194 -21.821,0 -41.891,-11.936 -52.38,-31.15 z M 64.365,394.92 c 22.078,-18.437 78.683,-46.476 108.733,-128.515 6.555,6.064 13.574,11.382 20.985,15.903 C 173.532,354.084 97.446,392.023 64.365,394.92 Z M 293.787,260.695 c -7.445,2.129 -12.121,9.655 -10.551,17.373 0.227,1.116 -9.271,164.597 -11.683,203.644 h -32.754 c -2.543,-41.166 -9.974,-161.423 -12.894,-208.14 -0.337,-5.385 -3.542,-10.173 -8.392,-12.534 -40.494,-19.72 -67.701,-70.307 -67.701,-125.88 0,-29.269 7.085,-50.456 17.807,-65.772 0.042,-0.06 0.09,-0.113 0.132,-0.174 0.036,-0.053 0.064,-0.11 0.099,-0.163 23.99,-33.909 65.91,-38.756 87.826,-38.756 31.53,0 104.865,10.218 104.865,104.865 0,21.799 -3.942,42.605 -11.717,61.84 -11.792,29.169 -31.312,51.74 -55.037,63.697 z M 445.728,394.998 C 410.944,391.92 335.798,352.829 315.304,283.02 c 7.452,-4.473 14.509,-9.755 21.1,-15.762 30.24,81.467 87.073,109.353 109.324,127.74 z M 372.674,268.877 c -0.801,-0.017 -1.944,-0.041 -3.343,-0.073 -3.741,-8.523 -7.153,-17.8 -10.129,-27.926 6.778,-9.923 12.633,-20.864 17.398,-32.654 9.224,-22.82 13.901,-47.403 13.901,-73.069 0,-26.063 -5.076,-49.269 -14.88,-68.787 14.229,-6.267 30.6,-8.142 46.413,-5.089 53.594,10.339 78.752,75.41 44.074,119.255 -13.192,16.679 -25.52,35.217 -38.796,58.341 -10.2,17.767 -30.645,30.509 -54.638,30.002 z
 
M 410.13086 59.404297 C 398.1134 58.934184 386.16352 61.17826 375.41992 65.910156 L 374.9375 66.123047 L 375.17383 66.591797 C 384.93755 86.029604 390.00195 109.15622 390.00195 135.1543 C 390.00195 160.75956 385.33597 185.27833 376.13672 208.03711 C 371.38477 219.79482 365.54615 230.70331 358.78906 240.5957 L 358.65625 240.79102 L 358.72266 241.01953 C 361.70451 251.16546 365.12335 260.46304 368.87305 269.00586 L 369.00195 269.29688 L 369.32031 269.30469 C 370.71982 269.3367 371.86317 269.35996 372.66406 269.37695 C 396.83997 269.88782 417.45385 257.05072 427.74609 239.12305 C 441.013 216.01489 453.3258 197.50024 466.5 180.84375 C 501.40031 136.71768 476.07746 71.194508 422.12891 60.787109 C 418.15054 60.019009 414.13668 59.561001 410.13086 59.404297 z 

M 109.04688 59.783203 C 71.713856 57.642003 37.331103 84.122665 30.707031 121.27539 C 26.94587 142.3713 31.852538 163.22895 44.519531 179.97266 C 57.333192 196.90774 69.244463 215.68328 82.011719 239.07227 C 92.587521 258.44527 112.82675 270.48242 134.83008 270.48242 C 136.38773 270.48242 137.93779 270.40478 139.47852 270.28711 L 139.77734 270.26562 L 139.89844 269.99219 C 143.9599 260.82783 147.64317 250.7832 150.82227 239.74805 L 150.88672 239.52539 L 150.75586 239.33203 C 148.21105 235.53576 145.78663 231.60002 143.50977 227.50586 C 128.36004 200.26447 120.34766 168.32875 120.34766 135.15625 C 120.34766 109.24095 125.4554 86.164906 135.30469 66.742188 L 135.54492 66.271484 L 135.05859 66.058594 C 126.43377 62.295232 117.66219 60.277326 109.04688 59.783203 z 

M 410.0918 60.404297 C 414.0476 60.558843 418.01132 61.011131 421.93945 61.769531 C 475.1789 72.040133 500.17249 136.66068 465.7168 180.22461 C 452.50699 196.92612 440.164 215.48711 426.87891 238.62695 C 416.77143 256.23279 396.49478 268.87934 372.68555 268.37695 C 371.96352 268.36163 370.88602 268.33992 369.67188 268.3125 C 366.01473 259.94833 362.67414 250.85863 359.75195 240.94922 C 366.49119 231.05037 372.3194 220.15276 377.06445 208.41211 C 386.3132 185.53088 391.00195 160.88104 391.00195 135.1543 C 391.00195 109.2487 385.98494 86.149834 376.30469 66.65625 C 386.78352 62.127187 398.39859 59.947466 410.0918 60.404297 z 

M 108.97852 60.777344 C 117.3222 61.256345 125.81358 63.21388 134.17578 66.796875 C 124.40882 86.276175 119.34766 109.32888 119.34766 135.15625 C 119.34766 168.48975 127.39844 200.59158 142.63672 227.99219 C 144.88682 232.03824 147.28579 235.92146 149.79492 239.67578 C 146.67326 250.47669 143.06703 260.31482 139.09766 269.30469 C 137.67566 269.40813 136.25283 269.48242 134.83008 269.48242 C 113.19141 269.48242 93.29087 257.64874 82.888672 238.59375 C 70.103928 215.17273 58.164746 196.35006 45.316406 179.36914 C 32.8154 162.84484 27.976568 142.28726 31.691406 121.45117 C 38.224959 84.806147 72.129644 58.661894 108.97852 60.777344 z 

M 172.88672 265.5293 L 172.62891 266.23242 C 142.636 348.11556 86.254219 375.99046 64.044922 394.53711 L 62.822266 395.55664 L 64.408203 395.41797 C 81.10448 393.95583 108.42679 383.71515 134.21875 364.84766 C 160.01071 345.98016 184.25042 318.46788 194.56445 282.44531 L 194.66797 282.08008 L 194.34375 281.88086 C 186.96174 277.37755 179.96886 272.07924 173.4375 266.03711 L 172.88672 265.5293 z M 336.61523 266.38867 L 336.06641 266.88867 C 329.49888 272.87428 322.46938 278.1365 315.04688 282.5918 L 314.71484 282.79102 L 314.82422 283.16016 C 325.11064 318.19894 349.09955 345.50377 374.86133 364.43555 C 400.6231 383.36733 428.13796 393.9435 445.68359 395.49609 L 447.28711 395.63867 L 446.04688 394.61328 C 423.66496 376.1181 367.05488 348.39428 336.87305 267.08398 L 336.61523 266.38867 z 

M 173.30469 267.23047 C 179.62926 273.02078 186.3724 278.13528 193.48633 282.50586 C 183.19348 318.08983 159.2032 345.33133 133.62695 364.04102 C 108.87418 382.14832 82.727564 392.17459 66.195312 394.1543 C 88.955015 375.84227 143.71997 347.31413 173.30469 267.23047 z 

M 336.19727 268.07617 C 365.96441 347.59711 420.94134 375.96739 443.87891 394.22852 C 426.56913 392.16276 400.2076 381.82239 375.45312 363.63086 C 349.90828 344.8585 326.16657 317.82154 315.90234 283.21875 C 323.05669 278.89289 329.83772 273.81373 336.19727 268.07617 z 

M 209.731,150.138 c 0,8.27378 -6.70722,14.981 -14.981,14.981 -8.27378,0 -14.981,-6.70722 -14.981,-14.981 0,-8.27378 6.70722,-14.981 14.981,-14.981 8.27378,0 14.981,6.70722 14.981,14.981 z

M 194.75 134.65625 C 186.206 134.65625 179.26953 141.59467 179.26953 150.13867 C 179.26953 158.68267 186.206 165.61914 194.75 165.61914 C 203.294 165.61914 210.23047 158.68267 210.23047 150.13867 C 210.23047 141.59467 203.294 134.65625 194.75 134.65625 z 

M 194.75 135.65625 C 202.75356 135.65625 209.23047 142.13511 209.23047 150.13867 C 209.23047 158.14223 202.75356 164.61914 194.75 164.61914 C 186.74644 164.61914 180.26953 158.14223 180.26953 150.13867 C 180.26953 142.13511 186.74644 135.65625 194.75 135.65625 z

M 330.576,150.138 c 0,8.27378 -6.70722,14.981 -14.981,14.981 -8.27378,0 -14.981,-6.70722 -14.981,-14.981 0,-8.27378 6.70722,-14.981 14.981,-14.981 8.27378,0 14.981,6.70722 14.981,14.981 z

M 315.5957 134.65625 C 307.05171 134.65625 300.11328 141.59467 300.11328 150.13867 C 300.11328 158.68267 307.05171 165.61914 315.5957 165.61914 C 324.1397 165.61914 331.07617 158.68267 331.07617 150.13867 C 331.07617 141.59467 324.1397 134.65625 315.5957 134.65625 z 

M 315.5957 135.65625 C 323.59926 135.65625 330.07617 142.13511 330.07617 150.13867 C 330.07617 158.14223 323.59926 164.61914 315.5957 164.61914 C 307.59215 164.61914 301.11328 158.14223 301.11328 150.13867 C 301.11328 142.13511 307.59215 135.65625 315.5957 135.65625 z
" />
</svg>
