<?xml version="1.0" encoding="UTF-8" standalone="no"?>
<svg
   xmlns:dc="http://purl.org/dc/elements/1.1/"
   xmlns:cc="http://creativecommons.org/ns#"
   xmlns:rdf="http://www.w3.org/1999/02/22-rdf-syntax-ns#"
   xmlns:svg="http://www.w3.org/2000/svg"
   xmlns="http://www.w3.org/2000/svg"
   xmlns:sodipodi="http://sodipodi.sourceforge.net/DTD/sodipodi-0.dtd"
   xmlns:inkscape="http://www.inkscape.org/namespaces/inkscape"
   inkscape:version="1.0beta2 (2b71d25, 2019-12-03)"
   sodipodi:docname="elephant-1.svg"
   id="svg12"
   viewBox="0 0 24 24"
   height="24"
   width="24"
   version="1.1">
  <path
     d="M 6 4 C 3.2504209 4 1 6.2504209 1 9 L 1 20 L 7 20 L 7 16 L 10 16 L 10 20 L 16 20 L 16 18.564453 C 16.735563 19.423758 17.789083 20 19 20 C 21.197294 20 23 18.197294 23 16 L 23 13 L 19.5 13 L 19.5 8.5 C 19.5 7.177487 18.799858 6.038462 17.865234 5.2578125 C 16.930611 4.477163 15.736157 4 14.5 4 L 6 4 z M 6 6 L 14.5 6 C 15.193843 6 15.999155 6.3061182 16.582031 6.7929688 C 17.164907 7.2798193 17.5 7.892513 17.5 8.5 L 17.5 15.5 C 17.5 16.316582 18.183418 17 19 17 C 19.816582 17 20.5 16.316582 20.5 15.5 L 20.5 15 L 21 15 L 21 16 C 21 17.116414 20.116414 18 19 18 C 17.883586 18 17 17.116414 17 16 L 17 14.5 C 17 13.683418 16.316582 13 15.5 13 C 14.683418 13 14 13.683418 14 14.5 L 14 18 L 12 18 L 12 14 L 5 14 L 5 18 L 3 18 L 3 9 C 3 7.3313011 4.3313011 6 6 6 z "
     />
</svg>
