<?xml version="1.0" encoding="iso-8859-1"?>
<!-- Generator: Adobe Illustrator 16.0.0, SVG Export Plug-In . SVG Version: 6.00 Build 0)  -->
<!DOCTYPE svg PUBLIC "-//W3C//DTD SVG 1.1//EN" "http://www.w3.org/Graphics/SVG/1.1/DTD/svg11.dtd">
<svg version="1.1" id="Capa_1" xmlns="http://www.w3.org/2000/svg" xmlns:xlink="http://www.w3.org/1999/xlink" x="0px" y="0px"
	 width="612.016px" height="612.016px" viewBox="0 0 612.016 612.016" style="enable-background:new 0 0 612.016 612.016;"
	 xml:space="preserve">
<g>
	<g>
		<path d="M476.062,35.829c-20.72,0-39.913,6.518-57.239,19.407c-16.018-19.054-31.269-24.86-33.25-25.556l-2.237-0.783h-154.67
			l-2.242,0.789c-1.982,0.695-17.232,6.501-33.245,25.555c-17.331-12.889-36.52-19.406-57.239-19.406
			c-68.81,0-129.11,73.013-131.648,76.121L0,117.217l15.344,67.663l10.58,0.514c0.176,0.011,17.964,1.204,38.953,14.171
			c12.77,7.887,24.082,18.488,33.619,31.507c12.205,16.656,21.555,37.37,27.797,61.566l6.574,25.483l17.393-19.754
			c0.146-0.167,12.132-13.771,31.476-35.186c6.746,16.288,10.45,29.566,11.711,41.615c1.65,15.759-0.669,30.646-7.747,49.783
			l-5.937,16.049l21.991,3.347c-6.507,14.722-19.625,36.063-43.12,44.257l-31.606,11.026l30.091,14.669
			c0.778,0.379,19.323,9.309,43.078,11.058c2.761,0.202,5.474,0.306,8.152,0.306c18.343,0,34.688-4.769,48.485-14.046l2.216,38.31
			l-49.398,24.035l-0.291,8.385c-0.737,21.415,4.686,38.269,16.112,50.094c20.179,20.886,53.295,21.052,82.68,21.052
			c0.244,0,0.493,0,0.737,0h0.736c17.798,0,31.242-4.577,39.955-13.605c8.358-8.666,9.262-18.265,9.304-21.57l5.007-105.641
			c13.449,8.582,29.229,12.987,46.855,12.987c2.673,0,5.392-0.099,8.146-0.306c23.755-1.754,42.301-10.679,43.079-11.058
			l30.09-14.669l-31.605-11.026c-15.115-5.272-27.786-16.579-37.656-33.609c-2.387-4.119-4.322-8.104-5.863-11.664l15.308-2.33
			l-5.937-16.049c-7.077-19.137-9.392-34.023-7.747-49.783c1.261-12.054,4.966-25.327,11.717-41.615
			c19.344,21.419,31.331,35.02,31.476,35.186l17.394,19.754l6.574-25.483c6.134-23.775,15.271-44.199,27.169-60.7
			c9.351-12.972,20.444-23.599,32.976-31.58c20.958-13.346,39.238-14.892,40.271-14.97l10.502-0.374l15.375-67.803l-4.291-5.267
			C605.177,108.848,544.871,35.829,476.062,35.829z M203.021,427.233c-1.749-0.113-3.471-0.279-5.147-0.487
			c17.476-15.557,27.299-35.56,32.233-48.459l23.288,3.544l1.359,23.47C242.358,421.271,224.97,428.655,203.021,427.233z
			 M335.017,462.373h-21.804v27.886h20.48c-0.067,1.396-2.319,48.926-2.485,52.428c-0.125,2.59,0.363,5.646-1.687,7.648
			c-2.164,2.112-5.199,3.005-8.069,3.7c-3.865,0.934-7.876,1.204-11.841,1.204h-0.742c-5.739,0.005-11.675,0-17.538-0.172
			l-9.766-168.95l-0.176-3.062h57.378l-0.083,1.806l-1.52,32.099h-36.38v27.885h35.057L335.017,462.373z M256.301,511.896
			l24.237,42.61c-14.534-1.156-27.605-4.135-35.025-11.814c-4.774-4.945-7.472-12.044-8.167-21.576L256.301,511.896z
			 M340.097,355.17H279.78l-1.074-18.551h62.267L340.097,355.17z M421.215,426.75c-1.433,0.177-2.891,0.322-4.375,0.431
			c-21.596,1.594-38.823-5.251-51.276-20.346l1.245-26.25l21.788-3.316C393.396,390.117,403.271,410.774,421.215,426.75z
			 M573.913,159.107c-9.719,2.008-24.942,6.543-41.443,16.734c-15.837,9.786-29.784,22.821-41.454,38.751
			c-9.952,13.584-18.239,29.291-24.762,46.897c-7.695-8.593-17.782-19.801-29.623-32.809l-13.891-15.261l-8.978,18.582
			c-13.792,28.554-20.869,50.114-22.939,69.895c-1.588,15.177-0.322,29.904,4.109,46.202l-26.78,4.073l2.48-52.325
			c0.363-7.69-5.572-14.223-13.268-14.586c-7.68-0.374-14.223,5.573-14.586,13.268l-0.031,0.659l-0.452,9.548h-65.198l-0.55-9.548
			l-0.047-0.805c-0.446-7.69-7.036-13.559-14.721-13.112c-7.69,0.446-13.559,7.036-13.112,14.726l3.087,53.378l-34.678-5.271
			c4.432-16.299,5.698-31.024,4.11-46.203c-2.07-19.785-9.143-41.34-22.94-69.894l-8.977-18.582l-13.891,15.26
			c-11.841,13.009-21.934,24.217-29.624,32.81c-6.522-17.606-14.809-33.312-24.761-46.897c-11.67-15.93-25.618-28.964-41.455-38.75
			c-16.5-10.196-31.725-14.731-41.443-16.734l-7.83-34.527c5.614-6.19,16.334-17.29,30.313-28.399
			c18.644-14.809,46.851-32.467,75.364-32.467c18.405,0,34.724,7.14,49.875,21.83l12.199,11.82l9.215-14.27
			c11.006-17.045,22.385-24.077,26.765-26.313h144.008c4.379,2.236,15.759,9.268,26.764,26.313l9.216,14.27l12.199-11.82
			c15.156-14.69,31.471-21.83,49.876-21.83c46.389,0,91.724,45.543,105.672,60.886L573.913,159.107z
                        M370.736,178.503c-14.757,0-26.723,11.965-26.723,26.723v39.176c6.569-6.574,12.646-12.625,18.229-18.171
			c4.654,2.963,10.855,4.411,17.44,3.622c12.857-1.546,22.297-11.037,21.077-21.196c-0.607-5.07-3.757-9.351-8.359-12.173
			c12.438-12.168,18.529-17.979,18.529-17.979H370.736L370.736,178.503z
                        M248.481,178.503h-40.193c0,0,6.097,5.812,18.53,17.979c-4.603,2.823-7.747,7.104-8.359,12.173
			c-1.219,10.16,8.214,19.655,21.077,21.196c6.585,0.789,12.786-0.659,17.44-3.622c5.583,5.547,11.66,11.602,18.229,18.171v-39.176
			C275.204,190.469,263.244,178.503,248.481,178.503z
                        M165.988,111.883c-0.638,1.619-15.582,40.001-7.135,73.361l27.029-6.844c-6.211-24.538,5.92-55.962,6.04-56.279
			l-12.972-5.106L165.988,111.883z
                        M418.941,122.121c0.125,0.316,12.251,31.741,6.04,56.279l27.029,6.844c8.442-33.359-6.497-71.742-7.135-73.361
			L418.941,122.121z"/>
	</g>
</g>
</svg>
