<?xml version="1.0" encoding="iso-8859-1"?>
<!-- Generator: Adobe Illustrator 19.0.0, SVG Export Plug-In . SVG Version: 6.00 Build 0)  -->
<svg version="1.1" id="Layer_1" xmlns="http://www.w3.org/2000/svg" xmlns:xlink="http://www.w3.org/1999/xlink" x="0px" y="0px"
	 viewBox="0 0 512.001 512.001" style="enable-background:new 0 0 512.001 512.001;" xml:space="preserve">
<g>
	<g>
		<path d="M493.352,274.138c-21.598-14.215-36.29-38.338-51.847-63.876c-1.825-2.997-3.658-6.003-5.51-9.013
			c29.609-83.63-10.549-150.865-12.323-153.764l-10.701-17.495l-69.42,80.685c-25.027-10.93-53.992-16.294-87.551-16.294
			c-33.558,0-62.524,5.365-87.551,16.294L99.028,29.989L88.327,47.484c-1.772,2.899-41.932,70.136-12.323,153.764
			c-1.852,3.01-3.685,6.017-5.51,9.013c-15.556,25.539-30.25,49.661-51.847,63.876L0,286.412l18.454,12.562
			c1.268,0.864,127.147,86.651,155.859,115.362c9.083,9.084,16.313,18.508,23.307,27.622c15.804,20.598,30.732,40.055,58.38,40.055
			s42.576-19.457,58.38-40.055c6.993-9.114,14.223-18.538,23.307-27.622c28.711-28.711,154.59-114.499,155.859-115.362
			l18.455-12.562L493.352,274.138z M407.028,82.722c6.81,18.818,13.961,49.63,7.011,85.664
			c-9.669-12.842-20.708-25.077-34.299-35.921c-3.081-2.459-6.242-4.794-9.479-7.011L407.028,82.722z M99.048,103.156
			c1.732-7.773,3.854-14.649,5.942-20.413l36.749,42.713c-3.237,2.217-6.397,4.552-9.478,7.01
			c-13.61,10.858-24.661,23.113-34.34,35.974C93.76,147.088,94.127,125.232,99.048,103.156z M209.857,409.187
			c-4.328-5.253-9.07-10.645-14.411-15.986c-22.781-22.781-97.111-75.309-136.052-102.33c22.472-6.78,57.442-14.753,97.637-14.753
			c11.866,0,21.27,3.778,28.75,11.549C209.174,311.972,210.824,368.327,209.857,409.187z M256,452.125
			c-6.48,0-11.774-2.688-17.411-7.938c0.096-3.785,0.263-8.18,0.448-13.013c0.044-1.136,0.088-2.294,0.132-3.466h33.663
			c0.044,1.172,0.089,2.33,0.132,3.466c0.184,4.833,0.352,9.228,0.448,13.013C267.774,449.436,262.48,452.125,256,452.125z
			 M272.043,397.822h-32.085c0.405-45.309-3.781-100.892-32.643-130.88c-13.227-13.743-30.144-20.711-50.283-20.711
			c-30.219,0-57.585,4.068-79.741,9.033c6.617-9.587,12.714-19.578,18.729-29.454c15.262-25.056,31.044-50.964,54.881-69.982
			c26.62-21.237,60.998-31.561,105.1-31.561c44.102,0,78.48,10.323,105.1,31.561c23.837,19.018,39.619,44.927,54.881,69.982
			c6.015,9.875,12.112,19.867,18.729,29.454c-22.156-4.965-49.522-9.033-79.741-9.033c-20.138,0-37.056,6.968-50.283,20.711
			C275.823,296.929,271.638,352.512,272.043,397.822z M316.554,393.202c-5.341,5.341-10.082,10.733-14.412,15.986
			c-0.967-40.86,0.683-97.216,24.076-121.52c7.48-7.772,16.883-11.549,28.75-11.549c40.032,0,75.067,7.99,97.603,14.776
			C413.621,317.923,339.328,370.427,316.554,393.202z"/>
	</g>
</g>
<g>
	<g>
		<path d="M362.024,292.285c-9.443,0-17.105,7.753-17.105,17.319c0,9.565,7.66,17.319,17.105,17.319
			c9.432,0,17.093-7.754,17.093-17.319C379.117,300.038,371.457,292.285,362.024,292.285z"/>
	</g>
</g>
<g>
	<g>
		<path d="M149.987,292.285c-9.443,0-17.105,7.753-17.105,17.319c0,9.565,7.66,17.319,17.105,17.319
			c9.432,0,17.093-7.754,17.093-17.319C167.079,300.038,159.419,292.285,149.987,292.285z"/>
	</g>
</g>
<g>
</g>
<g>
</g>
<g>
</g>
<g>
</g>
<g>
</g>
<g>
</g>
<g>
</g>
<g>
</g>
<g>
</g>
<g>
</g>
<g>
</g>
<g>
</g>
<g>
</g>
<g>
</g>
<g>
</g>
</svg>
