<?xml version="1.0" encoding="iso-8859-1"?>
<!-- Generator: Adobe Illustrator 19.0.0, SVG Export Plug-In . SVG Version: 6.00 Build 0)  -->
<svg version="1.1" id="Layer_1" xmlns="http://www.w3.org/2000/svg" xmlns:xlink="http://www.w3.org/1999/xlink" x="0px" y="0px"
	 viewBox="0 0 511.999 511.999" style="enable-background:new 0 0 511.999 511.999;" xml:space="preserve">
<g>
	<g>
		<path d="M96.024,56.239c-22.557,0-40.909,18.346-40.909,40.897c0,22.557,18.352,40.909,40.909,40.909
			c22.551,0.001,40.897-18.351,40.897-40.909C136.921,74.586,118.575,56.239,96.024,56.239z M96.024,116.886
			c-10.89,0.001-19.749-8.858-19.749-19.749c0-10.883,8.859-19.738,19.749-19.738c10.883,0,19.738,8.854,19.738,19.738
			C115.761,108.026,106.907,116.886,96.024,116.886z"/>
	</g>
</g>
<g>
	<g>
		<path d="M415.963,56.24c-22.557,0-40.91,18.346-40.91,40.897c0,22.557,18.353,40.909,40.91,40.909
			c22.551,0,40.897-18.352,40.897-40.909C456.86,74.587,438.514,56.24,415.963,56.24z M415.963,116.886
			c-10.891,0-19.75-8.859-19.75-19.749c0-10.883,8.859-19.738,19.75-19.738c10.883,0,19.738,8.854,19.738,19.738
			C435.701,108.026,426.847,116.886,415.963,116.886z"/>
	</g>
</g>
<g>
	<g>
		<path d="M217.353,120.799c-5.842,0-10.58,4.737-10.58,10.58v3.912c0,5.843,4.737,10.58,10.58,10.58
			c5.842,0,10.58-4.737,10.58-10.58v-3.912C227.932,125.536,223.195,120.799,217.353,120.799z"/>
	</g>
</g>
<g>
	<g>
		<path d="M288.766,120.799c-5.842,0-10.58,4.737-10.58,10.58v3.912c0,5.843,4.737,10.58,10.58,10.58
			c5.842,0,10.58-4.737,10.58-10.58v-3.912C299.346,125.536,294.608,120.799,288.766,120.799z"/>
	</g>
</g>
<g>
	<g>
		<path d="M486.104,395.255c31.616-56.285,34.654-110.432,7.062-125.953c-27.604-15.507-72.268,15.254-103.892,71.541
			c-1.905,3.391-3.671,6.939-5.313,10.604V328.97c0-20.29-4.775-40.096-13.883-57.989c41.126-16.092,70.637-40.165,83.754-68.594
			c0.059-0.127,0.108-0.256,0.165-0.383c0.02-0.048,0.042-0.094,0.061-0.142c4.75-10.442,7.173-21.302,7.173-32.294
			c0-2.818-0.162-5.656-0.486-8.489c20.708-14.533,33.299-38.403,33.299-63.943c0-43.053-35.025-78.08-78.08-78.08
			c-28.867,0-55.42,16.25-68.866,41.301c-28.11-8.153-59.395-12.436-91.11-12.436c-31.714,0-62.999,4.285-91.108,12.435
			c-13.436-25.053-39.984-41.3-68.856-41.3c-43.053,0-78.08,35.026-78.08,78.08c0,25.542,12.588,49.411,33.289,63.939
			c-0.325,2.829-0.488,5.668-0.488,8.493c0,11.17,2.489,22.214,7.393,32.818c13.119,28.425,42.639,52.498,83.767,68.593
			c-9.106,17.881-13.88,37.687-13.88,57.991v22.471c-1.643-3.656-3.397-7.208-5.302-10.598
			C91.1,284.553,46.431,253.802,18.829,269.305C-8.758,284.824-5.72,338.97,25.897,395.256
			c17.363,30.905,51.508,58.795,76.683,76.527H38.329c-5.842,0-10.58,4.737-10.58,10.58s4.738,10.58,10.58,10.58h100.136
			c0.013,0,0.026-0.002,0.039-0.002c0.011,0,0.021,0.002,0.031,0.002s0.021-0.002,0.031-0.002c0.013,0,0.026,0.002,0.039,0.002
			h48.909h138.901h46.965c0.014,0,0.028-0.002,0.041-0.002s0.028,0.002,0.041,0.002h100.136c5.842,0,10.58-4.737,10.58-10.58
			s-4.738-10.58-10.58-10.58h-64.18C434.595,454.051,468.739,426.16,486.104,395.255z M44.343,384.892
			c-27.943-49.747-27.652-90.108-15.147-97.141c1.58-0.888,3.51-1.332,5.737-1.332c15.409,0,44.924,21.322,69.346,64.79
			c18.511,32.948,22.681,84.859,23.54,112.073C104.753,448.218,62.812,417.765,44.343,384.892z M74.884,187.328
			c-1.973-5.846-2.978-11.794-2.978-17.757c0-3.81,0.416-7.66,1.236-11.442c0.981-4.525-1.095-9.162-5.124-11.445
			c-17.835-10.109-28.914-29.093-28.914-49.547c0-31.386,25.534-56.92,56.92-56.92c23.497,0,44.881,14.764,53.214,36.738
			c2.006,5.29,7.814,8.065,13.192,6.301c28.26-9.273,60.611-14.174,93.559-14.174c32.946,0,65.298,4.902,93.558,14.174
			c5.373,1.764,11.182-1.01,13.19-6.297c8.344-21.976,29.734-36.742,53.229-36.742c31.386,0,56.92,25.534,56.92,56.92
			c0,20.448-11.08,39.433-28.917,49.546c-4.018,2.279-6.094,6.901-5.127,11.419c0.816,3.813,1.23,7.67,1.23,11.467
			c0,5.967-1.005,11.917-2.981,17.76c-20.981-0.332-85.301-3.025-137.474-22.868c-28.13-10.705-59.113-10.705-87.242,0
			C160.267,184.281,95.865,186.988,74.884,187.328z M86.453,208.215c28.754-1.076,85.125-5.601,133.444-23.979
			c23.278-8.858,48.914-8.858,72.194,0c48.31,18.375,104.674,22.901,133.431,23.978c-15.08,19.292-41.162,35.985-74.247,47.094
			c-28.699,9.655-61.648,14.759-95.287,14.759c-33.644,0-66.588-5.104-95.281-14.761
			C127.625,244.196,101.541,227.506,86.453,208.215z M362.8,471.782h-25.805v-72.864c0-5.842-4.737-10.579-10.58-10.579
			c-5.842,0-10.58,4.737-10.58,10.58v72.864H198.094V362.72c0-5.843-4.738-10.58-10.58-10.58c-5.842,0-10.58,4.737-10.58,10.58
			v109.063h-27.75V328.97c0-17.949,4.461-35.427,12.957-51.017c28.826,8.689,61.066,13.273,93.846,13.273
			c32.776,0,65.021-4.584,93.853-13.273c8.497,15.603,12.959,33.082,12.959,51.017V471.782z M384.193,463.264
			c0.88-27.558,5.09-79.24,23.526-112.056c24.424-43.47,53.939-64.793,69.345-64.793c2.225,0,4.155,0.444,5.733,1.331
			c12.51,7.037,12.802,47.398-15.142,97.143C449.221,417.703,407.27,448.179,384.193,463.264z"/>
	</g>
</g>
<g>
	<g>
		<path d="M326.415,352.14c-5.842,0-10.58,4.737-10.58,10.58v5.544c0,5.843,4.738,10.58,10.58,10.58
			c5.842,0,10.58-4.737,10.58-10.58v-5.544C336.995,356.877,332.257,352.14,326.415,352.14z"/>
	</g>
</g>
<g>
</g>
<g>
</g>
<g>
</g>
<g>
</g>
<g>
</g>
<g>
</g>
<g>
</g>
<g>
</g>
<g>
</g>
<g>
</g>
<g>
</g>
<g>
</g>
<g>
</g>
<g>
</g>
<g>
</g>
</svg>
