<svg xmlns="http://www.w3.org/2000/svg" viewBox="0 0 32 32">
    <path d="M 8.875 3.09375 L 8.8125 3.125 L 8.53125 3.15625 L 8.28125 3.1875 L 7.875 3.28125 C 7.288 3.41125 6.85625 3.62175 6.40625 3.84375 C 4.62125 4.76575 3.40675 6.3615 2.71875 8.0625 C 2.37475 8.9195 2.16375 9.82475 2.09375 10.71875 C 2.05675 11.18175 2.05975 11.58375 2.09375 12.09375 C 2.16175 12.48875 2.17525 12.821 2.28125 13.25 C 2.45125 14.092 2.72625 14.80075 3.03125 15.46875 C 3.34425 16.12575 3.6915 16.71875 4.0625 17.21875 C 4.4205 17.72775 4.81425 18.14 5.15625 18.5 C 5.50825 18.853 5.81675 19.12275 6.09375 19.34375 C 6.64375 19.78875 7 20 7 20 C 7 20 6.695 19.7205 6.25 19.1875 C 5.804 18.6595 5.237 17.8645 4.75 16.8125 C 4.502 16.2905 4.284 15.6895 4.125 15.0625 C 3.976 14.4405 3.874 13.767 3.875 13.125 C 3.851 12.817 3.89625 12.371 3.90625 12 C 3.9398654 11.811462 3.9755343 11.557666 4.03125 11.3125 L 4.125 11.46875 C 4.6848818 12.501742 5.6830936 13.312929 6.75 13.9375 C 7.2318952 14.219603 7.7279908 14.442206 8.21875 14.625 C 8.0921619 15.367595 8 16.15416 8 17 L 8 17.53125 L 8.4375 17.8125 C 9.678669 18.655685 10.719616 20.967256 11.28125 23.09375 C 11.842884 25.220244 12 27.09375 12 27.09375 L 12.03125 27.40625 L 12.25 27.65625 C 12.25 27.65625 12.63322 28.056662 13.25 28.375 C 13.86678 28.693338 14.780637 29 16 29 C 17.219363 29 18.13322 28.693338 18.75 28.375 C 19.36678 28.056662 19.75 27.65625 19.75 27.65625 L 19.96875 27.40625 L 20 27.09375 C 20 27.09375 20.157247 25.220202 20.71875 23.09375 C 21.280253 20.967298 22.320871 18.655743 23.5625 17.8125 L 24 17.53125 L 24 17 C 24 16.154262 23.90784 15.367561 23.78125 14.625 C 24.272009 14.442206 24.768105 14.219603 25.25 13.9375 C 26.316906 13.312929 27.315118 12.501742 27.875 11.46875 L 27.96875 11.3125 C 28.024466 11.557563 28.060135 11.811462 28.09375 12 C 28.10375 12.371 28.149 12.817 28.125 13.125 C 28.126 13.768 28.025 14.4405 27.875 15.0625 C 27.716 15.6895 27.498 16.2905 27.25 16.8125 C 26.763 17.8635 26.195 18.6585 25.75 19.1875 C 25.306 19.7195 25 20 25 20 C 25 20 25.35725 19.78775 25.90625 19.34375 C 26.18225 19.12275 26.49175 18.852 26.84375 18.5 C 27.18575 18.14 27.5805 17.72775 27.9375 17.21875 C 28.3095 16.71975 28.65575 16.12575 28.96875 15.46875 C 29.27375 14.80075 29.54975 14.093 29.71875 13.25 C 29.82475 12.82 29.83825 12.48875 29.90625 12.09375 C 29.94125 11.58375 29.94325 11.18175 29.90625 10.71875 C 29.83625 9.82475 29.62525 8.9195 29.28125 8.0625 C 28.59325 6.3615 27.37875 4.76575 25.59375 3.84375 C 25.14375 3.62275 24.712 3.41125 24.125 3.28125 L 23.71875 3.1875 L 23.46875 3.15625 L 23.1875 3.125 L 23.125 3.09375 L 22.9375 3.09375 L 22.75 3.09375 C 21.829 3.04575 20.91 3.19975 20.125 3.46875 C 18.533 4.00675 17.4705 4.9075 16.8125 5.5625 C 16.626147 5.7477337 16.53703 5.8764513 16.40625 6.03125 C 16.268477 6.0147074 16.135 6 16 6 C 15.865018 6 15.731516 6.014703 15.59375 6.03125 C 15.46297 5.8764513 15.373853 5.7477337 15.1875 5.5625 C 14.5295 4.9075 13.467 4.00775 11.875 3.46875 C 11.09 3.19975 10.171 3.04575 9.25 3.09375 L 9.0625 3.09375 L 8.875 3.09375 z M 8.40625 6.875 L 8.53125 6.875 L 8.78125 6.875 L 9.0625 6.90625 L 9.125 6.9375 C 9.574 7.0115 9.937 7.14675 10.25 7.34375 C 10.699601 7.6200972 11.001801 7.9597543 11.25 8.28125 C 10.711256 8.5907854 8.0996293 10 5 10 L 4.53125 10 C 4.6630555 9.726233 4.7723598 9.4389939 4.9375 9.1875 C 5.6735 8.0555 6.76 7.20975 7.75 6.96875 C 7.99 6.90975 8.28225 6.858 8.40625 6.875 z M 23.21875 6.875 L 23.46875 6.875 L 23.59375 6.875 C 23.71775 6.859 24.011 6.90975 24.25 6.96875 C 25.24 7.20975 26.29525 8.0555 27.03125 9.1875 C 27.196627 9.4389093 27.336939 9.7257301 27.46875 10 L 27 10 C 24.619574 10 21.517174 8.5938382 20.78125 8.25 C 21.026416 7.9404256 21.320584 7.6389405 21.75 7.375 C 22.063 7.177 22.426 7.0115 22.875 6.9375 L 22.9375 6.90625 C 22.929125 6.906125 22.875 6.90225 23 6.90625 L 23.21875 6.875 z M 16 8 C 16.169595 8 16.737938 8.1130364 17.375 8.4375 C 18.012062 8.7619636 18.75285 9.283884 19.4375 10 C 20.751047 11.373917 21.845604 13.530235 21.9375 16.65625 C 20.240748 18.136986 19.334524 20.498463 18.78125 22.59375 C 18.233272 24.668981 18.128518 26.116024 18.09375 26.46875 C 18.04309 26.51174 18.05352 26.51673 17.84375 26.625 C 17.49178 26.806662 16.905637 27 16 27 C 15.094363 27 14.50822 26.806662 14.15625 26.625 C 13.946476 26.516729 13.956912 26.511742 13.90625 26.46875 C 13.87144 26.116031 13.766835 24.668943 13.21875 22.59375 C 12.665368 20.498501 11.758838 18.137007 10.0625 16.65625 C 10.1544 13.529767 11.248986 11.373774 12.5625 10 C 13.247132 9.2839583 13.987946 8.7618918 14.625 8.4375 C 15.262054 8.1131082 15.83031 8 16 8 z M 22.65625 11.125 C 23.318601 11.341648 24.031263 11.569896 24.78125 11.71875 C 24.563682 11.883642 24.492088 12.045781 24.25 12.1875 C 23.929434 12.375161 23.600444 12.528089 23.28125 12.65625 C 23.095509 12.118684 22.897262 11.59324 22.65625 11.125 z M 9.3125 11.21875 C 9.0888545 11.662514 8.8932339 12.151268 8.71875 12.65625 C 8.399556 12.528089 8.0705663 12.375161 7.75 12.1875 C 7.5229843 12.054604 7.4559676 11.903832 7.25 11.75 C 7.9999596 11.617255 8.6818624 11.419257 9.3125 11.21875 z M 13 16 C 12.447715 16 12 16.447715 12 17 C 12 17.552285 12.447715 18 13 18 C 13.552285 18 14 17.552285 14 17 C 14 16.447715 13.552285 16 13 16 z M 19 16 C 18.447715 16 18 16.447715 18 17 C 18 17.552285 18.447715 18 19 18 C 19.552285 18 20 17.552285 20 17 C 20 16.447715 19.552285 16 19 16 z M 15.9375 23 C 15.9375 23 15.496662 23.0029 15.03125 23.25 C 14.565838 23.497134 14 24.175634 14 25 L 15.9375 25 L 16 25 L 16.0625 25 L 18 25 C 18 24.175755 17.433798 23.497173 16.96875 23.25 C 16.503702 23.002827 16.0625 23 16.0625 23 L 16 23 L 15.9375 23 z"/>
</svg>
