<?xml version="1.0" encoding="iso-8859-1"?>
<!-- Generator: Adobe Illustrator 16.0.0, SVG Export Plug-In . SVG Version: 6.00 Build 0)  -->
<!DOCTYPE svg PUBLIC "-//W3C//DTD SVG 1.1//EN" "http://www.w3.org/Graphics/SVG/1.1/DTD/svg11.dtd">
<svg version="1.1" id="Capa_1" xmlns="http://www.w3.org/2000/svg" xmlns:xlink="http://www.w3.org/1999/xlink" x="0px" y="0px"
	 width="749.133px" height="749.133px" viewBox="0 0 749.133 749.133" style="enable-background:new 0 0 749.133 749.133;"
	 xml:space="preserve">

		<path d="

M340.059,636.846c-28.606-3.852-12.485,23.301,3.027,32.619c15.52,9.324,22.723,13.65,22.723,13.65
			S368.665,640.703,340.059,636.846z

M409.082,636.846c-28.606,3.85-25.751,46.27-25.751,46.27s7.204-4.326,22.724-13.65
			C421.574,660.139,437.688,632.994,409.082,636.846z

M680.566,272.783l-11.269-9.317c-1.988-1.64-49.334-40.217-112.036-40.217c-7.642,0-15.298,0.586-22.753,1.736
			c-20.654,3.19-33.474,6.706-44.809,10.416l-5-18.465c2.321-14.355,15.727-80.559,75.343-169.056L592.3,0l-53.051,22.768
			c-1.283,0.549-31.841,13.829-65.885,43.05c-44.549,38.229-74.535,86.338-86.872,139.27l-11.922,20.839l-11.929-20.839
			c-12.33-52.932-42.324-101.042-86.88-139.277c-34.044-29.214-64.601-42.494-65.885-43.05L156.833,0l32.249,47.872
			c59.208,87.889,72.933,154.642,75.336,169.093l-4.993,18.428c-11.335-3.709-24.155-7.226-44.808-10.416
			c-7.456-1.15-15.112-1.736-22.753-1.736c-62.703,0-110.048,38.577-112.037,40.216l-11.261,9.325l7.537,12.53
			c15.52,25.81,38.518,44.616,68.355,55.885c21.01,7.938,44.89,11.966,70.967,11.966c5.371,0,10.364-0.178,14.867-0.445
			c-7.285,46.01-18.049,149.879,18.858,216.143c21.959,39.422,24.726,66.686,26.744,86.598c2.077,20.475,4.036,39.822,26.203,53.406
			c10.223,6.262,16.811,12.293,23.183,18.123c11.677,10.684,23.754,21.729,49.015,22.137l0.283,0.008l0.281-0.008
			c25.261-0.414,37.338-11.461,49.015-22.137c6.373-5.83,12.968-11.855,23.184-18.123c22.159-13.584,24.125-32.924,26.202-53.406
			c2.019-19.912,4.785-47.176,26.737-86.598c36.907-66.264,26.143-170.141,18.858-216.143c4.503,0.267,9.495,0.445,14.866,0.445l0,0
			c26.077,0,49.957-4.028,70.96-11.958c29.837-11.269,52.835-30.075,68.354-55.885L680.566,272.783z M493.661,93.2
			c-24.919,48.384-35.698,85.982-40.187,106.294l-29.415-3.004C436.427,157.475,459.766,122.808,493.661,93.2z M255.523,93.304
			c26.373,23.079,54.779,56.953,69.527,103.193l-29.393,3.004C291.177,179.197,280.413,141.636,255.523,93.304z M215.418,319.171
			c-39.178,0-65.84-9.985-83.971-23.02c27.174,2.878,57.086,8.517,83.237,19.207c3.02,1.231,5.802,2.463,8.376,3.672
			C220.633,319.12,218.082,319.171,215.418,319.171z M518.136,285.313c-28.747,12.308-40.78,24.793-42.057,26.18l0.186,0.171
			l-0.334-0.067l5.505,25.29c0.097,0.43,2.989,14.021,5.742,34.771c-20.527,9.541-57.821,31.99-62.881,70.76l-7.003,49.801
			l33.658,4.732l2.879-20.482c4.666,1.766,9.771,2.693,15.142,2.693l0,0c7.478,0,14.955-1.789,21.922-5.156
			c-2.337,28.346-8.316,56.256-20.602,78.311c-25.372,45.551-28.673,78.141-30.861,99.707c-1.959,19.289-2.968,23.449-10.149,27.857
			c-12.997,7.967-21.514,15.756-28.361,22.018c-10.289,9.414-14.191,12.982-26.358,13.234c-12.167-0.252-16.061-3.82-26.358-13.234
			c-6.847-6.262-15.364-14.059-28.361-22.018c-7.181-4.4-8.19-8.568-10.148-27.857c-2.188-21.566-5.49-54.148-30.862-99.707
			c-12.441-22.344-18.42-50.691-20.69-79.416c7.567,4.08,15.839,6.27,24.096,6.27c5.378,0,10.482-0.928,15.149-2.693l2.878,20.482
			l33.658-4.732l-7.003-49.803c-5.23-40.037-44.846-62.672-64.846-71.656c2.715-20.245,5.527-33.443,5.616-33.866l5.475-25.208
			l-0.497,0.096l0.319-0.297c-1.276-1.38-13.316-13.873-42.056-26.18c-22.976-9.837-49.942-16.907-80.566-21.158
			c12.389-4.043,26.477-6.929,41.5-6.929c5.913,0,11.818,0.453,17.567,1.335c23.955,3.702,35.031,7.544,49.06,12.411
			c2.322,0.801,4.681,1.625,7.152,2.463l17.122,5.794l12.33-45.521l42.293-4.325l37.175,64.973l37.175-64.973l42.294,4.325
			l12.33,45.521l17.122-5.794c2.47-0.838,4.837-1.654,7.151-2.463c14.028-4.867,25.104-8.709,49.06-12.411
			c5.741-0.89,11.654-1.335,17.567-1.335c15.015,0,29.096,2.878,41.478,6.921C568.1,268.398,541.126,275.476,518.136,285.313z
			 M486.91,429.412c-0.697,3.576-3.041,7.285-6.432,10.186c-3.509,3.006-7.812,4.801-11.514,4.801c-0.897,0-3.102-0.127-4.117-1.32
			c-1.113-1.299-0.786-3.74-0.594-4.727c0.697-3.576,3.042-7.285,6.432-10.186c3.51-3.004,7.812-4.799,11.514-4.799
			c0.898,0,3.102,0.125,4.118,1.32C487.438,425.992,487.11,428.426,486.91,429.412z M264.893,424.688
			c1.016-1.188,3.22-1.32,4.117-1.32c3.702,0,8.005,1.795,11.514,4.799c3.391,2.9,5.728,6.609,6.432,10.186
			c0.193,0.986,0.527,3.428-0.593,4.727c-1.017,1.186-3.22,1.32-4.118,1.32c-3.702,0-8.004-1.795-11.514-4.801
			c-3.39-2.9-5.734-6.609-6.432-10.186C264.106,428.426,263.78,425.992,264.893,424.688z M533.715,319.171
			c-2.686,0-5.253-0.052-7.693-0.141c2.566-1.209,5.356-2.434,8.368-3.665c26.173-10.705,56.114-16.343,83.312-19.214
			C599.562,309.179,572.899,319.171,533.715,319.171z
"/>

</svg>
