<?xml version="1.0" encoding="UTF-8" standalone="no"?>
<svg
   xmlns:dc="http://purl.org/dc/elements/1.1/"
   xmlns:cc="http://creativecommons.org/ns#"
   xmlns:rdf="http://www.w3.org/1999/02/22-rdf-syntax-ns#"
   xmlns:svg="http://www.w3.org/2000/svg"
   xmlns="http://www.w3.org/2000/svg"
   xmlns:xlink="http://www.w3.org/1999/xlink"
   xmlns:sodipodi="http://sodipodi.sourceforge.net/DTD/sodipodi-0.dtd"
   xmlns:inkscape="http://www.inkscape.org/namespaces/inkscape"
   sodipodi:docname="goat-4.svg"
   inkscape:version="1.0beta2 (2b71d25, 2019-12-03)"
   id="svg8"
   version="1.1"
   viewBox="-85 0 380 297"
   height="297mm"
   width="210mm">

    <path d="
M -80 0
M 290 0
M 97.694208,315.74834 C 86.370001,313.89747 74.796102,308.66842 65.527472,301.21549 61.976305,298.35999 61.686928,297.60123 61.352185,290.26765 59.814821,256.58687 40.554747,213.00958 9.5602749,173.08476 7.6976046,170.6854 5.5025858,167.8585 4.682455,166.80275 2.4496149,163.92842 2.2444358,162.74535 3.1655316,158.05607 5.2517714,147.43502 8.4125229,134.39423 11.067165,125.45508 l 0.519095,-1.74797 -2.7063276,-0.60157 C -10.716653,118.74957 -32.286535,102.30072 -33.949749,90.444292 c -0.945719,-6.741657 1.884328,-9.260501 10.842795,-9.650487 18.4823226,-0.804576 39.43434,-6.087071 60.409612,-15.230679 1.947351,-0.848897 2.054931,-0.5981 -2.113079,-4.926098 -22.706307,-23.577888 -48.518841,-21.39315 -66.033426,5.588974 -10.731737,16.532797 -13.199418,36.420848 -8.142373,65.622768 4.357723,25.16368 17.234096,50.68004 30.4873968,60.41512 5.1144598,3.75677 3.7022973,11.69081 -2.3521668,13.21534 -3.306696,0.83264 -9.652611,-2.52711 -20.185576,-10.68695 C -91.221738,148.16709 -94.552708,45.572585 -37.270803,2.7765588 -14.454242,-14.269979 17.074735,-19.300442 45.04823,-10.357482 c 19.5489,6.2496657 37.712181,19.5382053 51.24545,37.49197 l 1.839267,2.440044 h 7.539653 7.53964 l 1.57025,-2.133036 c 21.6441,-29.4014283 55.12586,-45.169016 88.63923,-41.742938 60.08563,6.1425648 96.8244,65.709123 83.33354,135.113222 -6.84703,35.22468 -29.5566,67.70734 -58.15525,83.18234 -5.14146,2.7821 -9.33897,1.84339 -11.3267,-2.53306 -1.75727,-3.86902 -0.94418,-5.67021 5.34621,-11.84301 18.56735,-18.22025 28.74259,-46.12579 30.16465,-82.72639 1.43832,-37.01904 -25.25736,-68.692279 -52.03689,-61.739449 -9.09798,2.36213 -21.51099,10.735063 -27.79661,18.74961 l -1.14516,1.460154 6.43683,2.664178 c 18.99131,7.860425 37.22263,12.042564 55.64934,12.765571 7.703,0.302242 10.22115,1.533278 11.31322,5.530642 3.03851,11.122039 -18.70108,29.663644 -43.59239,37.179754 -1.16417,0.35153 -2.15601,0.66025 -2.2041,0.68604 -0.0481,0.0258 0.31803,1.22463 0.8136,2.66409 2.69183,7.81883 6.67072,23.38333 8.08084,31.61037 0.86752,5.06139 0.72241,5.44434 -4.57367,12.07 -31.57719,39.50465 -52.20178,85.43365 -53.76747,119.73503 -0.33468,7.33219 -0.624,8.09097 -4.17529,10.95043 -14.01506,11.28477 -32.94894,17.00533 -48.092212,14.53026 z m 15.547462,-14.88415 c 7.10348,-1.40769 15.52473,-5.35444 21.62925,-10.13688 0.52384,-0.41038 0.70107,-1.34896 0.98351,-5.2084 2.6993,-36.88439 24.95838,-86.28031 54.84026,-121.69799 3.05753,-3.62395 2.97217,-2.99569 1.39971,-10.302 -3.97001,-18.44638 -11.08706,-37.6107 -18.15676,-48.89128 -3.56962,-5.695793 -2.66911,-10.683274 2.26947,-12.569333 5.4629,-2.0863 8.16815,0.288135 14.28744,12.540303 1.59896,3.20146 2.94398,5.86228 2.98894,5.91293 0.15107,0.17022 9.15692,-3.02114 12.18596,-4.31828 6.87218,-2.94289 14.55749,-7.367659 17.98795,-10.356453 l 1.58379,-1.379869 -2.28934,-0.238527 C 202.33824,92.070675 186.24224,87.786835 167.96797,79.584829 162.95412,77.334477 162.9062,77.297181 159.53924,73.024997 146.94186,57.040731 132.97815,47.861248 117.12222,45.140852 91.972039,40.82584 69.537236,50.317142 52.223307,72.597091 c -2.750873,3.539885 -3.135792,3.890166 -5.516203,5.019767 -14.499806,6.880754 -38.7961394,13.477575 -57.819612,15.698897 -1.940278,0.226565 -3.572327,0.455041 -3.626771,0.507728 -0.05445,0.05269 0.863088,0.986515 2.038967,2.075173 6.3723,5.899624 18.8053506,11.869404 27.644057,13.273414 l 1.714585,0.27235 0.733365,-1.80554 C 22.756394,94.430949 27.3514,89.99642 33.009673,92.566349 c 4.308532,1.956894 5.381298,6.582876 2.626664,11.326701 -6.140683,10.57502 -11.718863,27.2887 -16.385993,49.0967 -1.664667,7.77846 -1.739706,7.19001 1.386808,10.87512 29.470233,34.73552 54.775997,91.2019 54.860745,122.4143 0.0096,3.51918 0.214447,3.92847 2.940022,5.87304 11.050137,7.88376 23.392671,10.97331 34.803751,8.71198 z 

m -25.226641,-28.6485 c -7.308999,-3.32041 -5.234066,-14.30353 3.59083,-19.00715 7.309193,-3.89576 20.792981,-3.89576 28.102171,0 8.81114,4.69629 10.88843,15.69192 3.59083,19.00715 -4.34385,1.97337 -8.5698,-0.27207 -10.18695,-5.41278 -0.74458,-2.36693 -14.165345,-2.36693 -14.909924,0 -1.617152,5.14071 -5.843102,7.38615 -10.186957,5.41278 z M 55.915275,183.66153 c -10.98573,-2.85912 -12.259152,-23.18225 -1.770711,-28.25962 8.474202,-4.10229 16.829445,6.74543 14.103372,18.31058 -1.595847,6.77025 -7.194004,11.28641 -12.332661,9.94904 z 

m 95.134765,-0.19424 c -8.91467,-2.8826 -11.55043,-17.99412 -4.46058,-25.57373 7.26263,-7.76435 17.80499,-1.09529 17.80499,11.26338 0,9.44435 -6.57786,16.49835 -13.34441,14.31035 z 

M -51.465065,142.82766 C -55.666441,126.19518 -57.375559,100.56577 -55.084801,88.547219 -47.932698,51.023421 -18.99706,25.085135 10.258013,29.973055 23.262034,32.14576 36.765494,40.244349 47.016,52.018357 l 1.982096,2.27669 2.04748,-1.845645 C 60.929095,43.540161 69.476347,38.0483 79.217586,34.348056 l 2.952451,-1.121498 -1.474294,-1.796616 C 49.769999,-6.2569675 -4.2747428,-10.833293 -36.513893,21.50503 c -22.114931,22.182956 -31.525541,57.165544 -25.010079,92.97136 1.640643,9.01617 4.549525,18.27058 8.514525,27.08836 2.221691,4.94083 2.538965,5.20028 1.544382,1.26291 z 

M 266.70107,135.8841 c 9.78553,-24.8848 10.81592,-54.180555 2.76308,-78.557715 -9.79228,-29.642664 -31.60171,-50.4039457 -58.50303,-55.6914094 -29.60245,-5.8183714 -55.70887,3.225177 -77.96113,27.0065754 -4.19231,4.480398 -4.15458,4.303995 -1.14929,5.372495 8.71906,3.099972 21.9481,11.649001 28.62096,18.495776 l 1.54527,1.585539 4.98112,-5.033229 c 19.48484,-19.688659 41.88521,-24.800751 62.67876,-14.304204 16.46516,8.311585 30.03611,26.687674 35.42525,47.968458 3.74621,14.793115 2.78276,39.883214 -2.30516,60.030994 -0.37565,1.48754 -0.66949,2.83692 -0.65298,2.99862 0.0562,0.55035 2.77345,-5.33591 4.55715,-9.8719 z
"/>
</svg>
