<?xml version="1.0" encoding="iso-8859-1"?>
<!-- Generator: Adobe Illustrator 17.1.0, SVG Export Plug-In . SVG Version: 6.00 Build 0)  -->
<!DOCTYPE svg PUBLIC "-//W3C//DTD SVG 1.1//EN" "http://www.w3.org/Graphics/SVG/1.1/DTD/svg11.dtd">
<svg version="1.1" id="Capa_1" xmlns="http://www.w3.org/2000/svg" xmlns:xlink="http://www.w3.org/1999/xlink" x="0px" y="0px"
	 viewBox="0 0 512 512" style="enable-background:new 0 0 512 512;" xml:space="preserve">
<g>
	<path d="M160,184c-8.822,0-16,7.178-16,16s7.178,16,16,16s16-7.178,16-16S168.822,184,160,184z
	M352,184c-8.822,0-16,7.178-16,16s7.178,16,16,16s16-7.178,16-16S360.822,184,352,184z
	M499.19,71.508c-14.438-9.297-45.668-21.147-74.281-20.575c-0.833-0.247-1.718-0.37-2.637-0.329
		c-5.338,0.237-10.443,1.103-15.285,2.576c-3.569,0.889-7.02,2.048-10.297,3.537c-27.887,12.676-51.903,6.958-79.709,0.337
		C299.155,52.811,278.952,48,256,48s-43.155,4.811-60.98,9.055c-27.807,6.621-51.821,12.339-79.709-0.338
		c-3.277-1.49-6.728-2.648-10.297-3.537c-4.842-1.473-9.947-2.339-15.285-2.576c-0.914-0.04-1.796,0.082-2.627,0.329
		C58.484,50.358,27.25,62.21,12.81,71.508C4.07,77.136,0,82.376,0,88c0,16.751,16.485,48,48,48c16.199,0,33.101,0.239,46.093,3.099
		C112,143.041,112,149.55,112,152c0,20.864,2.123,40.589,4.176,59.665c1.966,18.268,3.824,35.523,3.824,53.028
		c0,73.779,16.6,109.125,73.833,156.584C200.666,445.766,225.939,464,256,464s55.334-18.234,62.167-42.723
		C375.4,373.818,392,338.472,392,264.693c0-17.505,1.857-34.76,3.824-53.028C397.877,192.589,400,172.864,400,152
		c0-2.45,0-8.959,17.907-12.901C430.899,136.239,447.801,136,464,136c31.515,0,48-31.249,48-48
		C512,82.376,507.93,77.136,499.19,71.508z M256,448c-21.883,0-40.378-12.271-46.134-28.985c0.539,0.31,1.079,0.62,1.63,0.908
		c7.424,3.878,14.718,5.093,20.946,5.093c3.459,0,6.591-0.375,9.231-0.877c5.003-0.952,9.916-2.702,13.833-4.929
		c0.17-0.097,0.33-0.196,0.495-0.293c0.165,0.098,0.324,0.197,0.495,0.293c3.917,2.227,8.83,3.977,13.833,4.929
		c2.64,0.502,5.771,0.877,9.231,0.877c6.228,0,13.522-1.215,20.946-5.093c0.551-0.288,1.091-0.598,1.63-0.908
		C296.379,435.729,277.883,448,256,448z M464,120c-17.079,0-34.972,0.268-49.532,3.473C400.568,126.532,384,133.965,384,152
		c0,20.006-2.077,39.296-4.084,57.953c-2.014,18.707-3.916,36.376-3.916,54.74c0,61.464-11.715,92.949-52.32,130.548
		c1.349-2.605,2.604-5.373,3.761-8.304c1.622-4.11-0.395-8.756-4.504-10.379c-4.112-1.622-8.757,0.394-10.379,4.504
		c-6.209,15.732-15.262,24.928-26.907,27.333c-9.711,2.007-18.324-1.337-21.652-3.328v-17.011
		c7.264-5.393,23.178-17.408,28.823-21.673c3.525-2.664,4.224-7.68,1.56-11.206c-2.663-3.525-7.681-4.224-11.206-1.56
		c-8.314,6.282-20.545,15.5-27.132,20.417L228.8,353.6c-3.534-2.652-8.549-1.936-11.2,1.6c-2.651,3.534-1.935,8.549,1.6,11.2
		L248,388v17.073c-3.339,1.992-11.957,5.327-21.652,3.323c-11.645-2.405-20.697-11.601-26.907-27.333
		c-1.622-4.109-6.267-6.125-10.379-4.504c-4.109,1.623-6.126,6.269-4.504,10.379c1.157,2.931,2.412,5.698,3.761,8.304
		C147.715,357.642,136,326.157,136,264.693c0-18.364-1.902-36.034-3.916-54.74C130.077,191.296,128,172.006,128,152
		c0-18.035-16.568-25.468-30.468-28.527C82.972,120.268,65.079,120,48,120c-20.284,0-31.13-20.704-31.95-30.816
		c3.011-3.585,16.474-11.688,36.201-17.297c18.419-5.237,35.496-6.347,48.374-3.304c10.415,3.247,19.092,10.355,25.877,21.259
		c7.285,11.706,9.615,23.53,9.638,23.648c0.727,3.835,4.082,6.511,7.851,6.511c0.488,0,0.984-0.045,1.481-0.138
		c4.343-0.813,7.204-4.993,6.391-9.336c-0.109-0.584-2.778-14.464-11.481-28.661c-0.45-0.734-0.911-1.452-1.377-2.162
		c20.563,2.229,39.767-2.335,59.72-7.085C216.523,68.382,234.927,64,256,64s39.477,4.382,57.274,8.62
		c19.954,4.751,39.158,9.314,59.72,7.086c-0.466,0.71-0.926,1.427-1.376,2.161c-8.703,14.196-11.372,28.077-11.481,28.661
		c-0.813,4.343,2.048,8.523,6.391,9.336c0.498,0.093,0.993,0.138,1.481,0.138c3.775,0,7.134-2.684,7.854-6.529
		c0.075-0.403,7.114-36.108,35.827-44.962c12.842-2.951,29.79-1.818,48.059,3.376c19.727,5.609,33.19,13.712,36.201,17.297
		C495.13,99.296,484.284,120,464,120z"/>
</g>
<g>
</g>
<g>
</g>
<g>
</g>
<g>
</g>
<g>
</g>
<g>
</g>
<g>
</g>
<g>
</g>
<g>
</g>
<g>
</g>
<g>
</g>
<g>
</g>
<g>
</g>
<g>
</g>
<g>
</g>
</svg>
