<?xml version="1.0" encoding="UTF-8" standalone="no"?>
<svg
   xmlns:dc="http://purl.org/dc/elements/1.1/"
   xmlns:cc="http://creativecommons.org/ns#"
   xmlns:rdf="http://www.w3.org/1999/02/22-rdf-syntax-ns#"
   xmlns:svg="http://www.w3.org/2000/svg"
   xmlns="http://www.w3.org/2000/svg"
   xmlns:xlink="http://www.w3.org/1999/xlink"
   xmlns:sodipodi="http://sodipodi.sourceforge.net/DTD/sodipodi-0.dtd"
   xmlns:inkscape="http://www.inkscape.org/namespaces/inkscape"
   sodipodi:docname="goose-1.svg"
   inkscape:version="1.0beta2 (2b71d25, 2019-12-03)"
   id="svg8"
   version="1.1"
   viewBox="0 0 210 297"
   height="297mm"
   width="210mm">
    <path
       d="
M 97.061463,206.52578 c -1.049211,-0.82531 -1.108668,-1.36954 -0.526422,-4.81854 0.272736,-1.61557 0.301258,-3.35652 0.08819,-5.38315 l -0.314903,-2.99535 -1.5875,-0.23403 c -2.081802,-0.30689 -3.289557,-0.79593 -5.066107,-2.05135 l -1.460282,-1.03192 -2.479092,0.84376 c -4.077434,1.38777 -11.534326,1.47364 -12.357142,0.1423 -0.109153,-0.17662 -0.510554,-0.32112 -0.892002,-0.32112 -5.316786,0 -20.824499,-16.13714 -18.113229,-18.84841 0.812284,-0.81228 1.923392,-0.6784 3.010061,0.36269 0.777228,0.74463 1.16225,0.87202 2.047776,0.67753 1.340364,-0.2944 1.341053,-0.33422 0.03159,-1.82562 -4.443665,-5.06105 -5.444032,-14.98562 -2.376944,-23.58146 1.262908,-3.53944 3.553969,-2.8141 3.893228,1.23257 0.458453,5.46843 5.187148,10.72271 5.187148,5.76368 0,-7.35911 2.097018,-9.42158 5.171486,-5.08628 4.957292,6.99026 10.312275,6.53221 18.464623,-1.57944 6.328332,-6.29674 11.530868,-9.58952 19.492548,-12.3372 6.15696,-2.12485 6.64379,-3.10876 5.74971,-11.62065 -2.57747,-24.538162 1.03813,-39.642666 10.3603,-43.28108 7.23996,-2.825732 16.32087,1.273918 20.72915,9.35834 2.5045,4.59304 5.70455,6.926447 9.49899,6.926447 2.4906,0 3.39477,1.607497 1.76525,3.13836 -2.89064,2.715613 -11.11479,2.819253 -18.61376,0.234563 -3.50535,-1.208198 -6.94054,-0.493815 -8.7685,1.8235 -1.44602,1.83312 -0.93416,4.31193 2.20507,10.67858 8.72529,17.6957 11.94512,40.38895 7.62303,53.72689 -3.00251,9.26573 -8.7443,14.8788 -17.66135,17.26543 -2.66778,0.71402 -3.09034,0.95404 -4.86285,2.76214 -2.113,2.15542 -4.44808,3.26664 -8.06819,3.83948 -1.09279,0.17292 -3.30809,0.80315 -4.92288,1.40051 -1.6148,0.59735 -3.23868,1.0861 -3.60864,1.0861 -0.56386,0 -0.737816,8.28049 -0.19036,9.06156 0.0253,0.0361 2.34482,-1.19038 5.15441,-2.72562 8.63416,-4.71794 11.48181,-4.38351 13.72497,1.61188 1.78788,4.77855 -0.16054,7.32599 -4.5959,6.00883 -2.37735,-0.706 -7.84645,-0.71472 -12.45665,-0.0198 -4.378515,0.65995 -4.165952,0.66817 -5.274828,-0.20407 z M 116.24027,202.723 c 0,-2.94388 -2.59137,-3.78264 -5.99944,-1.94186 -3.09809,1.67335 -3.08629,1.72184 0.4432,1.82098 1.60072,0.045 3.38666,0.22392 3.96874,0.39769 1.52443,0.45507 1.5875,0.44407 1.5875,-0.27681 z m -15.39675,-13.66065 c 1.19217,-0.30563 3.04071,-0.92139 4.10787,-1.36835 1.06715,-0.44696 3.01387,-0.97675 4.32604,-1.17732 4.42643,-0.67657 7.31562,-3.5195 7.31562,-7.19845 0,-1.31641 0.93254,-2.75296 1.78708,-2.75296 1.16854,0 1.7407,0.76701 1.7407,2.3335 v 1.60312 l 1.14653,-0.24117 c 4.26115,-0.89633 9.80938,-4.8169 12.29227,-8.68614 7.32182,-11.41007 5.39641,-37.53476 -4.15541,-56.38216 -4.11136,-8.11241 -4.72101,-11.33124 -2.77509,-14.65171 1.54049,-2.628658 5.99203,-4.761546 9.93778,-4.761546 1.12366,0 3.36696,-2.176706 4.657,-4.518745 l 0.81835,-1.485711 -2.12306,-2.123064 c -7.14112,-7.141119 -15.91204,-5.566279 -19.40208,3.483689 -2.61282,6.775259 -3.39979,19.327217 -1.99425,31.807717 1.24627,11.06628 0.16088,13.06236 -8.80898,16.20012 -7.14646,2.49991 -11.002373,5.0099 -18.046265,11.74711 -8.401794,8.03599 -14.280069,9.13454 -20.351868,3.80343 -1.83491,-1.61108 -1.974007,-1.12769 -1.074727,3.73481 0.665035,3.59594 -6.058772,2.68923 -9.827834,-1.32529 l -1.675695,-1.78482 v 2.61181 c 0,4.99043 1.823036,9.46437 5.150631,12.64023 2.652145,2.53121 2.264972,3.80034 -1.575487,5.16435 -2.336377,0.82981 -2.323787,0.88451 1.028086,4.46707 6.447152,6.89087 13.641412,9.52506 20.532185,7.51789 2.203753,-0.64192 2.261997,-0.75354 1.513695,-2.90077 -0.603218,-1.73093 -0.402741,-2.75223 0.632869,-3.22406 1.372719,-0.62542 2.23659,0.0395 2.866464,2.20616 1.412494,4.8588 5.872635,6.82124 11.957576,5.26126 z m -22.490817,-14.9267 c -0.822572,-0.90894 -0.508752,-2.41335 0.591178,-2.83404 0.431143,-0.16489 1.086312,-0.63553 1.455935,-1.04585 l 0.672038,-0.74604 -2.612316,-0.004 c -5.827754,-0.009 -10.077461,-2.21471 -8.603258,-4.46463 0.666242,-1.01681 1.201582,-0.99286 4.403442,0.19698 2.891462,1.07449 5.441505,0.97545 7.975981,-0.30981 3.773829,-1.91373 5.008911,-0.68123 3.438366,3.43119 -0.765711,2.00498 -0.704356,2.02623 2.735904,0.94765 5.63572,-1.76691 9.901223,-4.50632 12.764397,-8.19762 0.4337,-0.55913 0.92183,-0.78106 1.55192,-0.70555 1.05682,0.12663 1.9886,1.32939 1.24023,1.60092 -0.3547,0.12869 -0.36275,0.27733 -0.0363,0.67064 0.32507,0.39168 0.31739,0.72112 -0.0341,1.465 -0.35739,0.75629 -0.83626,6.07497 -0.54696,6.07497 0.30489,0 5.06083,-2.07516 7.05705,-3.0792 11.3881,-5.72788 16.15271,-12.77702 13.81361,-20.43691 -1.44842,-4.74319 1.55742,-6.25892 3.24298,-1.63531 4.10812,11.26882 -5.60572,22.95426 -24.01493,28.88922 l -3.09109,0.99653 -0.739856,-0.73986 c -0.701587,-0.70158 -0.717765,-0.87085 -0.312734,-3.27214 0.500214,-2.96561 0.401771,-3.17111 -1.030517,-2.15123 -4.922618,3.50521 -18.331277,7.10578 -19.920894,5.34928 z 

M 131.91776,89.975604 c -1.16993,-1.785536 0.69837,-3.693452 2.47612,-2.528627 1.06276,0.696345 1.17682,1.971826 0.25125,2.809455 -0.92574,0.837788 -2.07174,0.719788 -2.72737,-0.280828 z 

m 14.45052,6.420921 c -2.58621,-2.738598 -2.2753,-2.652471 -3.60447,-0.99849 -1.19561,1.487777 -1.39813,2.130914 -0.68257,2.167667 0.24254,0.01246 1.39348,0.237278 2.55764,0.499601 3.99174,0.899463 4.07702,0.817171 1.7294,-1.668778 z
"/>
</svg>
