<?xml version="1.0" encoding="iso-8859-1"?>
<!-- Generator: Adobe Illustrator 19.0.0, SVG Export Plug-In . SVG Version: 6.00 Build 0)  -->
<svg version="1.1" id="Capa_1" xmlns="http://www.w3.org/2000/svg" xmlns:xlink="http://www.w3.org/1999/xlink" x="0px" y="0px"
	 viewBox="0 0 470.001 470.001" style="enable-background:new 0 0 470.001 470.001;" xml:space="preserve">
	
	<path d="M347.455,308.424c-2.74-9.907-12.56-45.468-15.841-58.168c-2.546-9.855-6.504-19.158-11.791-27.731
		c20.114-22.501,36.535-48.445,48.858-77.206c19.311-45.067,26.714-93.023,21.409-138.683c-0.311-2.67-2.025-4.97-4.496-6.028
		c-2.472-1.061-5.319-0.715-7.466,0.902C341.41,29.163,311.793,67.6,292.483,112.667c-9.723,22.691-16.444,46.163-20.031,69.914
		c-11.791-4.709-24.555-7.167-37.451-7.167s-25.66,2.458-37.451,7.167c-3.587-23.751-10.309-47.223-20.031-69.914
		C158.207,67.6,128.591,29.163,91.872,1.51c-2.146-1.617-4.993-1.963-7.466-0.902c-2.471,1.059-4.186,3.358-4.496,6.028
		c-5.305,45.659,2.099,93.615,21.409,138.683c12.324,28.76,28.747,54.707,48.857,77.206c-5.286,8.573-9.244,17.876-11.79,27.731
		c-3.281,12.7-13.101,48.261-15.841,58.168c-20.724,15.102-33.012,39.143-33.012,64.872c0,44.242,35.994,80.236,80.237,80.236
		h18.072c13.383,10.641,30.017,16.469,47.156,16.469s33.773-5.828,47.156-16.469h18.072c44.243,0,80.237-35.994,80.237-80.236
		C380.466,347.566,368.178,323.525,347.455,308.424z M300.229,438.532h-20.768c-1.792,0-3.524,0.642-4.884,1.809
		c-11.017,9.454-25.072,14.66-39.577,14.66s-28.561-5.206-39.577-14.66c-1.359-1.167-3.092-1.809-4.884-1.809h-20.768
		c-35.972,0-65.237-29.265-65.237-65.236c0-21.686,10.739-41.898,28.727-54.07c1.477-0.999,2.549-2.491,3.024-4.209
		c0.054-0.193,2.315-8.354,5.204-18.859l25.144,7.83l2.87,13.239c0.762,3.513,3.869,5.913,7.323,5.913
		c0.526,0,1.061-0.057,1.596-0.172c4.049-0.878,6.618-4.871,5.741-8.919l-3.797-17.512c-0.573-2.641-2.521-4.769-5.101-5.572
		l-29.807-9.281c2.983-10.91,5.918-21.744,7.45-27.676c2.604-10.077,6.936-19.471,12.876-27.92c2.041-2.903,1.768-6.84-0.654-9.433
		c-20.75-22.215-37.581-48.204-50.025-77.245C98.761,101.264,91.419,61,93.624,22.119c29.672,25.223,53.761,58.31,70.106,96.456
		c9.873,23.043,16.479,46.917,19.664,71.038c-3.579,2.155-7.039,4.527-10.313,7.117c-3.249,2.569-3.8,7.286-1.229,10.534
		c1.479,1.872,3.673,2.848,5.887,2.848c1.629,0,3.271-0.528,4.647-1.618c3.901-3.085,8.1-5.823,12.478-8.159
		c0.034-0.018,0.071-0.03,0.105-0.048c12.315-6.551,25.784-9.872,40.031-9.872s27.716,3.321,40.031,9.872
		c0.036,0.019,0.074,0.031,0.11,0.05c4.377,2.336,8.574,5.073,12.473,8.157c1.377,1.09,3.018,1.618,4.647,1.618
		c2.214,0,4.407-0.976,5.887-2.848c2.57-3.248,2.02-7.965-1.229-10.534c-3.274-2.59-6.733-4.961-10.313-7.117
		c3.185-24.121,9.791-47.995,19.664-71.037c16.346-38.146,40.435-71.233,70.106-96.456c2.205,38.881-5.137,79.145-21.482,117.291
		c-12.443,29.04-29.273,55.028-50.024,77.244c-2.423,2.593-2.696,6.529-0.655,9.433c5.94,8.45,10.272,17.844,12.876,27.921
		c1.533,5.932,4.468,16.765,7.45,27.676l-29.807,9.281c-2.58,0.804-4.527,2.932-5.101,5.572l-3.797,17.512
		c-0.877,4.048,1.692,8.041,5.741,8.919c0.535,0.116,1.069,0.172,1.596,0.172c3.454-0.001,6.562-2.4,7.323-5.913l2.87-13.239
		l25.144-7.83c2.89,10.505,5.151,18.666,5.204,18.859c0.476,1.718,1.548,3.21,3.024,4.209c17.987,12.172,28.727,32.385,28.727,54.07
		C365.466,409.267,336.201,438.532,300.229,438.532z

M251.331,409.977h-8.83v-15.816l13.419-10.382c3.276-2.534,3.878-7.245,1.343-10.521
		c-1.471-1.903-3.677-2.896-5.908-2.904c-1.613-0.006-3.239,0.499-4.612,1.561L235,381l-11.741-9.083
		c-1.373-1.063-3-1.567-4.613-1.561c-2.231,0.009-4.436,1.002-5.907,2.904c-2.535,3.275-1.934,7.986,1.343,10.521l13.419,10.382
		v15.816h-8.83c-4.143,0-7.5,3.357-7.5,7.5s3.357,7.5,7.5,7.5h32.66c4.143,0,7.5-3.357,7.5-7.5S255.473,409.977,251.331,409.977z"/>
	
</svg>
