<?xml version="1.0" encoding="UTF-8" standalone="no"?>
<svg
   xmlns:dc="http://purl.org/dc/elements/1.1/"
   xmlns:cc="http://creativecommons.org/ns#"
   xmlns:rdf="http://www.w3.org/1999/02/22-rdf-syntax-ns#"
   xmlns:svg="http://www.w3.org/2000/svg"
   xmlns="http://www.w3.org/2000/svg"
   xmlns:sodipodi="http://sodipodi.sourceforge.net/DTD/sodipodi-0.dtd"
   xmlns:inkscape="http://www.inkscape.org/namespaces/inkscape"
   inkscape:version="1.0beta2 (2b71d25, 2019-12-03)"
   sodipodi:docname="rabbit-3a.svg"
   xml:space="preserve"
   style="enable-background:new 0 0 512 512;"
   viewBox="0 0 512 512"
   y="0px"
   x="0px"
   id="Capa_1"
   version="1.1"><metadata
   id="metadata63"><rdf:RDF><cc:Work
       rdf:about=""><dc:format>image/svg+xml</dc:format><dc:type
         rdf:resource="http://purl.org/dc/dcmitype/StillImage" /><dc:title></dc:title></cc:Work></rdf:RDF></metadata><defs
   id="defs61" /><sodipodi:namedview
   inkscape:current-layer="Capa_1"
   inkscape:window-maximized="0"
   inkscape:window-y="23"
   inkscape:window-x="0"
   inkscape:cy="256"
   inkscape:cx="256"
   inkscape:zoom="2.0371094"
   showgrid="false"
   id="namedview59"
   inkscape:window-height="480"
   inkscape:window-width="790"
   inkscape:pageshadow="2"
   inkscape:pageopacity="0"
   guidetolerance="10"
   gridtolerance="10"
   objecttolerance="10"
   borderopacity="1"
   inkscape:document-rotation="0"
   bordercolor="#666666"
   pagecolor="#ffffff" />

		<path
   d="

M 200,290 c 0,9 9,15 15,15 c 9,0 15,-9 15,-15 c 0,-9 -9,-15 -15,-15 c -9,0 -15,9 -15,15 z
M 282,290 c 0,9 9,15 15,15 c 9,0 15,-9 15,-15 c 0,-9 -9,-15 -15,-15 c -9,0 -15,9 -15,15 z

M 211,287 
M445.291,180.701c22.5-54.318,22.816-116.755,0.868-171.301c-1.505-3.74-4.451-6.716-8.176-8.259    c-3.723-1.542-7.912-1.521-11.621,0.059c-53.401,22.757-96.632,66.52-119.653,122.099c-4.702,11.352-8.448,23.045-11.239,34.929    C282.852,154.136,269.558,152,256,152c-13.558,0-26.852,2.136-39.47,6.228c-2.792-11.885-6.537-23.578-11.239-34.929    C182.311,67.821,139.129,23.996,85.638,1.201c-3.71-1.58-7.896-1.602-11.621-0.059c-3.724,1.542-6.671,4.519-8.176,8.259    C43.893,63.946,44.21,126.383,66.709,180.702c13.701,33.077,35.142,62.446,62.258,85.451c-0.159,1.494-0.302,2.991-0.409,4.495    c-0.051,0.67-0.453,4.941-1.42,14.771c-1.518,15.415-7.899,28.688-17.508,36.416c-27.944,22.474-39.677,58.385-30.619,93.72    c6.533,25.482,25.176,47.269,49.867,58.28c36.385,16.225,47.373-1.346,84.201,24.588C225.691,507.305,240.532,512,256,512    s30.309-4.695,42.92-13.576c37.479-26.393,48.173-8.224,84.696-24.818c24.621-11.186,43.131-33.096,49.514-58.61    c8.798-35.169-3.013-70.886-30.825-93.212h0.001c-16.679-13.389-17.247-34.999-18.878-51.338    c-0.105-1.436-0.242-2.866-0.395-4.293C410.15,243.147,431.591,213.778,445.291,180.701z M94.426,169.22    c-17.472-42.179-19.524-90.004-6.111-133.509c39.551,21.08,71.61,56.459,89.259,99.068c4.883,11.789,8.583,23.995,11.08,36.398    c-6.987,4.342-13.595,9.378-19.721,15.082c-14.121,13.148-24.915,29.089-31.829,46.654    C118.912,214.811,104.334,193.141,94.426,169.22z M383.524,345.179C383.525,345.179,383.525,345.179,383.524,345.179    c18.567,14.905,26.424,38.868,20.502,62.537c-4.183,16.72-16.451,31.142-32.818,38.577c-27.739,12.601-45.133-3.685-89.562,27.603    c-3.316,2.335-6.893,4.184-10.646,5.524v-66.207l25.606-25.606c5.858-5.858,5.858-15.355,0-21.213    c-5.857-5.858-15.355-5.858-21.213,0L256,385.787l-19.394-19.394c-5.857-5.858-15.355-5.858-21.213,0    c-5.858,5.858-5.858,15.355,0,21.213L241,413.213v66.207c-3.754-1.34-7.331-3.189-10.646-5.524    c-43.87-30.894-61.298-14.992-89.256-27.46c-16.401-7.313-28.747-21.643-33.025-38.33c-6.099-23.789,1.703-47.888,20.359-62.893    c16.083-12.935,26.227-33.126,28.563-56.855c1.37-13.923,1.458-15.148,1.487-15.556C162.118,221.885,204.953,182,256,182    c51.045,0,93.881,39.885,97.519,90.802c0.01,0.141,0.022,0.281,0.036,0.422C355.272,290.419,356.003,323.086,383.524,345.179z     M374.894,232.915c-6.914-17.568-17.707-33.509-31.827-46.657c-6.126-5.704-12.734-10.74-19.721-15.082    c2.496-12.402,6.196-24.607,11.079-36.397c17.649-42.609,49.709-77.989,89.259-99.069c13.414,43.506,11.361,91.331-6.11,133.51    C407.666,193.141,393.087,214.813,374.894,232.915z" />
</svg>
