<?xml version="1.0" encoding="iso-8859-1"?>
<!-- Generator: Adobe Illustrator 19.0.0, SVG Export Plug-In . SVG Version: 6.00 Build 0)  -->
<svg version="1.1" id="Layer_1" xmlns="http://www.w3.org/2000/svg" xmlns:xlink="http://www.w3.org/1999/xlink" x="0px" y="0px"
	 viewBox="0 0 512 512" style="enable-background:new 0 0 512 512;" xml:space="preserve">
<g>
	<g>
		<path d="M382.268,137.377c-12.744-10.507-27.422-19.148-43.519-25.774c0.977-2.352,1.933-4.865,2.806-7.489
			c8.695-26.155,2.376-42.295-4.455-51.228c-8.766-11.465-19.622-15.684-29.007-16.447c-1.631-3.388-3.723-7.167-6.35-10.967
			C290.224,8.807,274.407,0,256.001,0s-34.224,8.807-45.74,25.469c-2.627,3.801-4.719,7.579-6.35,10.967
			c-9.384,0.763-20.243,4.984-29.007,16.446c-6.833,8.935-13.151,25.074-4.456,51.229c0.872,2.625,1.829,5.137,2.806,7.489
			c-16.098,6.627-30.776,15.268-43.519,25.774c-35.244,29.061-53.874,69.669-53.874,117.435c0,47.667,18.998,96.412,52.123,133.733
			c23.358,26.318,51.407,44.722,81.643,54.049c-0.431,2.513-0.949,5.128-1.485,7.813c-2.913,14.574-6.538,32.715,4.829,46.577
			C221.255,507.088,235.33,512,256.001,512s34.747-4.912,43.032-15.016c11.367-13.864,7.743-32.003,4.83-46.577
			c-0.536-2.683-1.054-5.3-1.486-7.813c30.236-9.328,58.284-27.732,81.642-54.049c33.124-37.323,52.123-86.066,52.123-133.733
			C436.142,207.044,417.513,166.437,382.268,137.377z M199.804,71.924c3.49-4.563,7.144-4.549,9.166-4.044l15.655,7.049l4.729-17.82
			c0.018-0.067,1.993-7.018,6.693-13.817c8.258-11.946,17.061-11.946,19.954-11.946c19.26,0,26.376,24.794,26.647,25.763
			l3.746,18.221l16.635-7.45c2.024-0.503,5.678-0.522,9.169,4.045c4.179,5.464,1.654,15.998-0.224,21.79
			c-0.964,2.975-2.096,5.78-3.213,8.266c-16.715-3.962-34.445-6.016-52.761-6.016c-18.334,0-36.079,2.056-52.808,6.026
			C198.531,91.49,195.025,78.172,199.804,71.924z M274.793,477.109c-0.029,0.034-3.089,3.544-18.792,3.544
			c-15.704,0-18.763-3.51-18.791-3.545c-1.961-2.392,0.4-14.211,1.67-20.56c0.508-2.543,1.017-5.118,1.478-7.717
			c5.182,0.521,10.399,0.8,15.644,0.8c5.245,0,10.463-0.279,15.645-0.801c0.461,2.6,0.97,5.175,1.477,7.719
			C274.392,462.898,276.754,474.717,274.793,477.109z M360.575,367.737c-28.93,32.597-66.068,50.548-104.574,50.548
			s-75.644-17.951-104.574-50.548c-28.103-31.665-44.22-72.823-44.22-112.925c0-38.096,14.686-70.34,42.469-93.249
			c26.785-22.085,64.545-34.248,106.326-34.248c41.78,0,79.541,12.164,106.326,34.248c27.783,22.908,42.469,55.153,42.469,93.249
			C404.795,294.913,388.678,336.073,360.575,367.737z"/>
	</g>
</g>
<g>
	<g>
		<path d="M256.001,219.494l-74.713,67.191l74.713,118.643l74.713-118.643L256.001,219.494z M221.888,292.332l34.113-30.678
			l34.113,30.678l-34.113,54.17L221.888,292.332z"/>
	</g>
</g>
<g>
	<g>
		<path d="M176.464,206.443c-11.34,0-20.569,9.323-20.569,20.835c0,11.511,9.229,20.842,20.569,20.842
			c11.356,0,20.582-9.331,20.582-20.842C197.046,215.765,187.819,206.443,176.464,206.443z"/>
	</g>
</g>
<g>
	<g>
		<path d="M335.381,206.281c-11.45,0-20.738,9.401-20.738,20.998c0,11.597,9.288,20.998,20.738,20.998
			c11.436,0,20.724-9.401,20.724-20.998C356.106,215.681,346.818,206.281,335.381,206.281z"/>
	</g>
</g>
<g>
</g>
<g>
</g>
<g>
</g>
<g>
</g>
<g>
</g>
<g>
</g>
<g>
</g>
<g>
</g>
<g>
</g>
<g>
</g>
<g>
</g>
<g>
</g>
<g>
</g>
<g>
</g>
<g>
</g>
</svg>
