<?xml version="1.0" encoding="UTF-8" standalone="no"?>
<svg
   xmlns:dc="http://purl.org/dc/elements/1.1/"
   xmlns:cc="http://creativecommons.org/ns#"
   xmlns:rdf="http://www.w3.org/1999/02/22-rdf-syntax-ns#"
   xmlns:svg="http://www.w3.org/2000/svg"
   xmlns="http://www.w3.org/2000/svg"
   xmlns:xlink="http://www.w3.org/1999/xlink"
   xmlns:sodipodi="http://sodipodi.sourceforge.net/DTD/sodipodi-0.dtd"
   xmlns:inkscape="http://www.inkscape.org/namespaces/inkscape"
   sodipodi:docname="horse-2.svg"
   inkscape:version="1.0beta2 (2b71d25, 2019-12-03)"
   id="svg8"
   version="1.1"
   viewBox="0 0 210 297"
   height="297mm"
   width="210mm">

    <path    
       
       d="m 136.37448,188.14803 c -1.1071,-0.2365 -2.23891,-0.95162 -4.52001,-2.85591 -3.63037,-3.03069 -10.30306,-7.21336 -13.67391,-8.57128 -0.38806,-0.15633 -1.26118,-0.51609 -1.94028,-0.79949 -8.90296,-3.71524 -19.743721,-3.05712 -29.456945,1.78829 -2.192436,1.09369 -7.178625,4.3635 -8.375424,5.49238 -2.319902,2.18824 -4.366994,3.06465 -7.158334,3.06465 -4.646372,0 -10.56901,-1.95509 -14.981519,-4.94548 -2.640252,-1.78931 -6.712624,-5.95651 -7.638651,-7.81652 -1.504851,-3.02263 -1.886349,-3.93666 -1.886349,-4.51951 0,-0.32591 -0.113524,-0.70609 -0.252278,-0.84484 -0.376389,-0.37639 -1.570052,-4.91257 -2.238918,-8.50837 -0.776478,-4.17432 -1.041465,-7.39135 -1.031574,-12.52361 0.0124,-6.43452 0.566101,-10.86562 1.939624,-15.52223 0.314769,-1.06715 0.659299,-2.37878 0.765623,-2.91473 0.106323,-0.53595 0.333763,-1.06126 0.505421,-1.16735 0.171654,-0.10609 0.312102,-0.41857 0.312102,-0.69441 0,-0.27583 0.61122,-1.81428 1.358269,-3.41876 1.978734,-4.24987 2.259573,-5.07634 2.001375,-5.88985 -0.238838,-0.7525 -1.502452,-1.00606 -2.14256,-0.42992 -0.184327,0.16591 -1.717125,0.7334 -3.406221,1.2611 -2.519221,0.78704 -3.755559,0.96254 -6.880178,0.97666 -5.381284,0.0243 -8.158479,-0.99622 -11.215406,-4.12137 -4.122709,-4.2147 -4.92266,-9.0582 -2.360469,-14.29202 0.894858,-1.827941 6.279191,-7.762126 7.042899,-7.762126 0.177708,0 0.78436,-0.396413 1.348115,-0.880918 1.494135,-1.284097 1.354581,-3.093128 -0.51514,-6.677699 -1.491449,-2.859359 -1.800845,-4.557563 -1.017489,-5.584778 0.496101,-0.650538 3.650552,-2.129995 9.613194,-4.508646 2.470932,-0.985719 7.079749,-2.211036 11.288889,-3.001306 12.280896,-2.30575 23.406029,0.546957 30.81432,7.90141 6.803615,6.754175 8.344012,10.964429 8.344012,22.806103 0,6.24211 -0.227464,8.47173 -1.223652,11.99445 -0.164606,0.58208 -0.400907,1.79901 -0.525113,2.7043 -0.195629,1.42587 -0.117397,1.74768 0.585079,2.40669 0.904261,0.84831 1.386787,0.83142 5.39702,-0.18887 3.189192,-0.81141 13.229858,-1.12059 16.051388,-0.49427 3.16012,0.70148 6.81506,1.65496 7.77224,2.02758 4.61149,1.79522 7.9188,3.60918 11.57225,6.34702 3.57734,2.68081 3.92202,2.86908 5.27928,2.88366 1.50339,0.0161 2.8025,-0.67315 5.07864,-2.69469 3.41168,-3.03005 7.61997,-5.41514 11.74898,-6.65885 2.6869,-0.80933 11.15246,-0.93898 13.58194,-0.208 5.86176,1.76366 9.77556,4.07642 13.81436,8.16326 2.63313,2.66444 3.62155,3.98702 5.4967,7.35493 0.50238,0.90231 1.20479,2.16134 1.5609,2.79783 0.35612,0.63649 0.64749,1.43818 0.64749,1.78153 0,0.34335 0.13198,0.77508 0.2933,0.95941 0.47797,0.54613 1.11781,3.14056 1.11781,4.53253 0,2.7922 -0.65757,3.53236 -11.44328,12.88052 -1.15206,0.99851 -2.44697,1.9039 -2.87756,2.01197 -0.9898,0.24843 -2.25972,-0.41262 -2.25972,-1.17628 0,-0.872 -1.04175,-5.12401 -1.42743,-5.82618 -0.18505,-0.33692 -0.33646,-0.7624 -0.33646,-0.94552 0,-0.65289 -2.09288,-4.83005 -3.54977,-7.08496 -2.20033,-3.40559 -6.52945,-7.57458 -9.02689,-8.69299 -1.77598,-0.79533 -2.58452,-0.93001 -5.80081,-0.96627 -3.6552,-0.0412 -4.10197,0.0511 -6.66975,1.37849 -1.20844,0.62468 -1.82192,1.87648 -1.61508,3.2956 0.0953,0.65364 0.98939,2.87614 1.98695,4.93888 2.52764,5.22667 3.51458,7.79876 4.28171,11.15879 0.1772,0.77611 0.57437,2.52236 0.88261,3.88056 0.37604,1.65701 0.60841,4.85339 0.7063,9.71559 0.13269,6.59131 0.084,7.38833 -0.53936,8.81945 -1.34331,3.08425 -2.6441,4.43009 -5.60057,5.79456 -1.51161,0.69764 -3.0408,1.43277 -3.39819,1.63363 -0.74152,0.41675 -4.91934,0.71051 -6.2035,0.43618 z M 73.21051,174.44286 c 0.837685,-0.52881 1.694261,-1.09864 1.903501,-1.26629 0.20924,-0.16765 0.879602,-0.70408 1.489696,-1.19208 0.61009,-0.488 1.21914,-0.88726 1.353439,-0.88726 0.134299,0 0.905132,-0.45558 1.712962,-1.01239 2.864986,-1.97474 7.052521,-4.1492 10.288227,-5.34237 0.388056,-0.14309 1.181806,-0.454 1.763889,-0.69089 2.110334,-0.85886 4.677921,-1.18558 9.348606,-1.18959 4.50781,-0.004 6.4408,0.24714 8.46667,1.09942 0.48507,0.20406 1.83445,0.72574 2.99861,1.15927 1.89354,0.70516 2.93984,1.12274 5.29167,2.1119 2.17279,0.91388 9.11977,4.37638 10.93611,5.45076 3.49103,2.06499 5.03979,2.64722 7.04172,2.64722 2.9425,0 5.24774,-1.33733 6.49712,-3.76917 0.47376,-0.92215 0.5258,-5.03854 0.0781,-6.1802 -0.17477,-0.4457 -0.56268,-1.6041 -0.86202,-2.57424 -1.18637,-3.84494 -2.18192,-6.11876 -3.86143,-8.81945 -1.67005,-2.68545 -3.87549,-5.88526 -4.65295,-6.75079 -0.198,-0.22044 -1.15027,-1.31854 -2.11615,-2.44023 -3.97982,-4.62182 -11.25186,-9.59294 -16.41191,-11.21907 -4.9637,-1.56425 -6.01419,-1.69468 -12.34722,-1.53303 -4.401331,0.11234 -6.831889,0.33745 -8.466668,0.78414 -4.561198,1.24631 -9.068915,1.05108 -11.641667,-0.50422 -2.021321,-1.22194 -3.887417,-4.39757 -3.882301,-6.60671 0.0018,-0.7186 0.820603,-3.74593 1.418572,-5.24398 1.212553,-3.03769 2.11081,-9.00356 2.098096,-13.93472 -0.0145,-5.61906 -0.80403,-9.538113 -2.523045,-12.523612 C 78.797,93.433195 78.259374,92.439946 77.937436,91.808054 76.385179,88.761352 70.705382,85.185695 65.788782,84.159992 60.989597,83.158787 51.23539,83.609941 46.883129,85.034424 c -0.602058,0.197051 -1.450944,0.737527 -1.886409,1.201063 -0.838572,0.892616 -0.836381,0.809269 -0.169245,6.438587 0.155568,1.31271 0.07386,2.038618 -0.287566,2.554622 -0.533368,0.761489 -3.246417,2.843527 -3.705326,2.843527 -0.613855,0 -4.110842,3.201047 -5.06012,4.631897 -1.494963,2.25337 -1.408094,3.8211 0.289252,5.2202 1.119036,0.9224 1.605535,1.08339 3.263194,1.07983 2.186123,-0.005 4.700038,-0.60175 7.063372,-1.67752 2.055311,-0.93557 3.166716,-1.18636 6.15994,-1.38998 2.916058,-0.19837 4.679135,0.30139 5.658115,1.60384 1.043075,1.38772 0.930338,5.83655 -0.269625,10.64007 -0.508935,2.03729 -1.336703,5.52979 -1.839489,7.76111 -0.502782,2.23132 -1.067354,4.54446 -1.254601,5.14032 -0.187247,0.59586 -0.340036,1.38961 -0.339531,1.76389 0,0.37428 -0.226797,1.71239 -0.505125,2.97357 -0.688721,3.1208 -1.171529,6.45269 -1.64707,11.36654 -0.434569,4.49048 -0.02843,9.91229 0.970633,12.9583 1.36901,4.17385 6.09721,11.07173 9.535759,13.91155 2.334715,1.92818 7.598128,2.12497 10.351223,0.38702 z"
       style="fill:#000000;stroke-width:0.352778" />

</svg>
