<?xml version="1.0" encoding="UTF-8" standalone="no"?>
<svg
   xmlns:dc="http://purl.org/dc/elements/1.1/"
   xmlns:cc="http://creativecommons.org/ns#"
   xmlns:rdf="http://www.w3.org/1999/02/22-rdf-syntax-ns#"
   xmlns:svg="http://www.w3.org/2000/svg"
   xmlns="http://www.w3.org/2000/svg"
   xmlns:xlink="http://www.w3.org/1999/xlink"
   xmlns:sodipodi="http://sodipodi.sourceforge.net/DTD/sodipodi-0.dtd"
   xmlns:inkscape="http://www.inkscape.org/namespaces/inkscape"
   sodipodi:docname="horse-5.svg"
   inkscape:version="1.0beta2 (2b71d25, 2019-12-03)"
   id="svg8"
   version="1.1"
   viewBox="-65 -10 335 250"
   height="350mm"
   width="300mm">
     <path
          d="m 32.478798,301.79826 c -1.642517,-0.34532 -3.240281,-1.54635 -3.995554,-3.00345 -0.264745,-0.51075 -0.992104,-3.88981 -1.34617,-6.25385 -0.366652,-2.44806 -0.318016,-10.40463 0.07871,-12.87639 1.489035,-9.27722 5.098934,-17.7756 11.913156,-28.04583 3.824811,-5.76465 8.294753,-11.48725 20.046703,-25.66458 7.22111,-8.7114 10.580804,-12.97774 14.584972,-18.52083 12.015185,-16.63298 18.352447,-31.49145 20.162009,-47.27222 0.288043,-2.51196 0.569249,-8.29028 0.403452,-8.29028 -0.05363,0 -1.197218,0.69995 -2.541305,1.55543 -3.557702,2.26441 -6.07063,3.66802 -10.426229,5.82363 -6.04087,2.98965 -11.201068,5.09882 -18.460388,7.54542 -3.913814,1.31907 -5.650669,2.12411 -9.137214,4.23506 -3.829417,2.31856 -8.102854,5.73132 -12.107282,9.66886 -7.048077,6.93034 -10.854089,11.83903 -21.538893,27.7791 -3.15884,4.71251 -6.41707,9.48101 -7.24051,10.59667 -6.9308381,9.39041 -12.78993012,13.95384 -19.2524838,14.99504 -1.9601903,0.31581 -3.2478415,0.0553 -4.7341822,-0.95777 -0.630636,-0.42984 -1.582803,-0.95278 -2.115928,-1.16209 -1.706173,-0.66983 -4.380046,-2.12386 -5.461852,-2.9701 -1.308043,-1.02322 -2.651956,-2.68861 -3.332347,-4.12948 -0.848521,-1.79691 -1.13305,-3.32576 -1.058138,-5.68568 l 0.06545,-2.06176 -0.68671,0.10982 c -3.13966,0.50206 -7.119521,0.43418 -10.337729,-0.1763 -6.221662,-1.18023 -12.834564,-5.14713 -17.124073,-10.27227 -6.421647,-7.67263 -8.977525,-16.8865 -7.32998,-26.42438 0.149148,-0.86344 0.438372,-2.66356 0.642719,-4.00027 0.627233,-4.10296 1.836984,-8.42745 3.610279,-12.90565 3.599738,-9.09061 8.4303,-17.15885 20.018275,-33.4355 8.05028,-11.30754 11.103545,-16.03079 13.626985,-21.08025 1.64335,-3.28838 2.502784,-5.4303 3.063782,-7.63569 l 0.435271,-1.711137 -0.525526,-1.940278 c -1.058965,-3.909776 -1.42806,-6.588751 -1.42806,-10.365171 0,-4.530852 0.61895,-8.414471 2.048723,-12.854742 2.19727,-6.823803 5.548866,-12.815595 10.9115887,-19.507126 3.5215124,-4.394096 8.2613288,-9.188984 12.7313777,-12.879305 l 1.6146074,-1.332966 0.101219,-2.486593 C 8.4131929,36.837727 8.584172,26.273135 8.7374769,14.728483 8.8907817,3.1838315 9.0577673,-6.4602303 9.1085567,-6.702765 c 0.4793545,-2.289039 2.2328963,-3.994168 4.5476193,-4.422068 2.068315,-0.382349 1.175225,-0.828541 23.678021,11.82964183 11.38338,6.40333297 20.761265,11.64242517 20.83974,11.64242517 0.07848,0 4.962605,-5.6715236 10.853614,-12.60338542 C 79.512976,-12.594187 79.762309,-12.871267 80.870285,-13.416721 c 2.193834,-1.080021 4.745556,-0.645787 6.47688,1.102189 0.662464,0.668836 1.812043,3.0001172 9.031032,18.314426 4.549573,9.651417 8.330763,17.614477 8.402653,17.695688 0.0719,0.08121 1.38983,-0.01743 2.92875,-0.219177 9.60157,-1.258796 19.01432,-1.411548 27.58068,-0.44759 27.37871,3.080882 50.77573,17.517763 69.3725,42.805544 10.02547,13.632588 18.41241,29.657438 25.73477,49.171201 11.03496,29.40767 19.05524,64.92139 24.55825,108.74374 2.0011,15.93536 3.31696,29.21649 5.48755,55.38611 0.63567,7.66409 1.22872,14.64498 1.31787,15.5131 0.17762,1.72958 0.0433,2.67915 -0.54106,3.82457 -0.8093,1.58637 -2.21641,2.63326 -3.97585,2.95801 -0.50183,0.0926 -39.51203,0.20355 -93.20264,0.26504 -50.78677,0.0582 -100.991457,0.14139 -111.56597,0.18494 -11.338994,0.0467 -19.542483,0.0127 -19.996902,-0.0828 z M 162.6056,290.51676 c 48.05664,-0.0881 87.40593,-0.19034 87.44285,-0.22726 0.14753,-0.14751 -2.27111,-28.41378 -3.46738,-40.52284 C 240.88685,192.12809 231.80194,148.91908 218.06144,114.12361 212.86139,100.95538 206.50292,88.525262 199.83507,78.493062 194.71646,70.791793 189.89146,64.824284 184.06722,58.991522 166.09431,40.99235 144.70756,32.621479 119.43146,33.69278 c -5.38009,0.22803 -9.33056,0.6685 -16.37025,1.825251 -2.40078,0.394492 -4.048507,-0.06215 -5.467291,-1.51517 C 96.970322,33.364219 95.740075,30.883496 89.525854,17.73409 85.493103,9.2007171 82.125357,2.1506425 82.041975,2.06726 81.957428,1.9827132 77.998706,6.5032338 73.092063,12.287288 68.252994,17.991686 63.976255,22.999009 63.5882,23.414673 62.989626,24.055834 59.544484,25.921063 40.867095,35.716084 28.758543,42.066196 18.589632,47.334061 18.269513,47.422449 17.065216,47.754972 12.076677,51.925146 8.0193254,55.991105 -0.88828521,64.91761 -6.1955164,74.089076 -7.6046272,82.990978 c -0.3123953,1.973524 -0.2722439,6.329978 0.077354,8.392985 0.1575346,0.929614 0.5815312,2.675864 0.9422165,3.880556 0.8366072,2.794274 0.9166154,4.104415 0.4050118,6.632061 -1.2659501,6.25459 -3.9760001,12.21743 -9.5293041,20.96703 -2.075817,3.27058 -4.554082,6.86063 -10.283015,14.89611 -10.487629,14.7101 -15.163687,22.66042 -18.362831,31.22084 -1.244244,3.32939 -2.269081,7.39113 -2.648088,10.49513 -0.05923,0.48507 -0.272335,1.87414 -0.473572,3.08681 -1.336625,8.05464 2.255408,16.1548 9.200472,20.74739 5.304481,3.5077 11.560676,4.0108 17.240829,1.3864 2.762657,-1.27642 4.676069,-2.73444 7.982782,-6.08288 1.697743,-1.71916 3.3646185,-3.26919 3.7041671,-3.4445 0.9744304,-0.50312 3.0421879,-0.55364 4.2333333,-0.10342 1.3235728,0.50026 2.6270567,1.6824 3.2586083,2.95527 0.4170486,0.84053 0.5141048,1.26639 0.5185198,2.2751 0.00723,1.65329 -0.4469871,2.54776 -2.728789,5.37358 -4.2359827,5.24589 -7.4398825,10.73342 -7.8398845,13.42789 -0.115548,0.77835 -0.09386,0.83654 0.468878,1.25836 0.324515,0.24324 1.5377096,0.84477 2.6959866,1.33674 l 2.1059563,0.89449 1.1572381,-0.61013 c 0.6364799,-0.33558 1.9509864,-1.312 2.9211252,-2.16983 3.17098363,-2.80388 5.7843896,-6.2336 13.1919198,-17.31252 10.870075,-16.25758 14.953144,-21.54706 22.340607,-28.94155 6.658215,-6.66455 12.186516,-10.81864 19.467331,-14.62818 1.760387,-0.92108 3.437149,-1.59466 6.790478,-2.72781 7.597265,-2.56726 12.222517,-4.48614 18.554802,-7.69787 17.529334,-8.89086 29.142035,-21.19321 32.909605,-34.86405 1.13772,-4.12828 1.34939,-5.76218 1.46764,-11.32942 0.10415,-4.903771 0.11754,-5.048151 0.54541,-5.885934 0.55912,-1.094747 1.55822,-2.093861 2.6138,-2.613801 0.68068,-0.335275 1.11079,-0.407614 2.41563,-0.406278 1.37624,0.0014 1.70635,0.06414 2.48064,0.471365 1.10818,0.582853 2.10023,1.661532 2.66737,2.900345 0.39342,0.859326 0.44242,1.241963 0.53365,4.166303 0.45281,14.51701 -4.87341,27.78071 -15.96857,39.76585 l -2.15358,2.32633 0.21282,4.12736 c 0.31249,6.06051 -0.0782,12.77626 -1.10546,19.00123 -2.29994,13.93748 -8.216056,28.07871 -17.662788,42.21919 -5.110279,7.64941 -9.704268,13.59655 -21.548355,27.89539 -11.584012,13.98487 -15.91862,19.78131 -19.87234,26.5742 -3.843131,6.60289 -6.003983,12.24125 -6.98594,18.22858 -0.325743,1.98615 -0.465175,8.63017 -0.195266,9.30451 0.149406,0.37327 -2.891286,0.36994 124.463829,0.13656 z M 9.2604223,95.634148 C 8.3639769,95.209378 8.0701695,94.872027 7.4622928,93.569527 7.0147148,92.610501 6.9650437,92.301044 6.9086451,90.120347 6.8361422,87.31696 7.109127,85.542742 8.046297,82.726395 c 1.3572984,-4.078903 3.256315,-7.297924 5.778611,-9.795326 3.002453,-2.972817 5.447196,-3.491847 7.179211,-1.524174 0.895008,1.016783 1.236784,2.144283 1.349105,4.450616 0.276375,5.674964 -2.728999,13.242536 -6.898479,17.370464 -2.342859,2.319512 -4.559794,3.180676 -6.1943227,2.406173 z M 33.775782,26.775554 c 7.617074,-3.99713 13.845942,-7.311036 13.841933,-7.364235 -0.004,-0.0532 -6.175415,-3.558411 -13.714236,-7.789361 L 20.196533,3.9293197 20.086387,6.4681395 c -0.06058,1.3963508 -0.161378,7.5567865 -0.223996,13.6898585 -0.06262,6.133073 -0.160219,11.766196 -0.216893,12.518054 -0.07019,0.931172 -0.04181,1.367013 0.08901,1.367013 0.105631,0 6.424204,-3.27038 14.041274,-7.267511 z

M 82.550781 -14.033203 C 81.966918 -13.948192 81.388669 -13.770126 80.832031 -13.496094 C 80.553559 -13.359002 80.317195 -13.231777 79.96875 -12.931641 C 79.620305 -12.631504 79.157143 -12.159322 78.400391 -11.318359 C 76.886886 -9.6364349 74.203662 -6.4815324 68.960938 -0.3125 C 66.015535 3.1533104 63.320544 6.3037467 61.353516 8.5878906 C 60.370002 9.7299626 59.568465 10.655269 59.007812 11.294922 C 58.727486 11.614748 58.507429 11.863301 58.355469 12.03125 C 58.279489 12.115224 58.220034 12.178695 58.179688 12.220703 C 58.17004 12.230748 58.165611 12.234747 58.158203 12.242188 C 58.140264 12.233076 58.121824 12.22378 58.09375 12.208984 C 58.018654 12.169407 57.908531 12.109034 57.765625 12.03125 C 57.479812 11.875682 57.061288 11.647119 56.527344 11.351562 C 55.459456 10.76045 53.925654 9.9046725 52.037109 8.8496094 C 48.26002 6.7394831 43.068581 3.830538 37.376953 0.62890625 C 26.125604 -5.7001578 20.724441 -8.7541431 17.871094 -10.179688 C 16.44442 -10.89246 15.65487 -11.199565 15.080078 -11.304688 C 14.505287 -11.40981 14.153573 -11.305761 13.640625 -11.210938 C 11.292548 -10.776872 9.5078821 -9.0433753 9.0214844 -6.7207031 C 9.0171414 -6.6999642 9.0175184 -6.6850977 9.015625 -6.6582031 C 9.0137316 -6.6313085 9.0118098 -6.5965301 9.0097656 -6.5527344 C 9.0056772 -6.465143 9.0009646 -6.3444314 8.9960938 -6.1894531 C 8.9863521 -5.8794966 8.9754901 -5.4364051 8.9628906 -4.8769531 C 8.9376917 -3.7580492 8.9066775 -2.1688575 8.8730469 -0.2265625 C 8.8057856 3.6580274 8.7250912 8.9541377 8.6484375 14.726562 C 8.4951347 26.271058 8.3247491 36.844657 8.2695312 38.201172 L 8.1699219 40.648438 L 6.5859375 41.957031 C 2.1105691 45.651744 -2.6321197 50.44981 -6.1582031 54.849609 C -11.525779 61.547196 -14.885264 67.550394 -17.085938 74.384766 C -18.518033 78.832249 -19.138672 82.726741 -19.138672 87.265625 C -19.138672 91.047792 -18.767302 93.7397 -17.707031 97.654297 L -17.1875 99.572266 L -17.617188 101.26172 C -18.176244 103.45947 -19.031827 105.59323 -20.673828 108.87891 C -23.194382 113.92259 -26.245261 118.6406 -34.294922 129.94727 C -45.884167 146.2257 -50.719161 154.30323 -54.322266 163.40234 C -56.097661 167.88585 -57.309106 172.21562 -57.9375 176.32617 C -58.141756 177.66229 -58.431175 179.46219 -58.580078 180.32422 C -60.231849 189.88656 -57.667028 199.12987 -51.230469 206.82031 C -46.926702 211.96249 -40.302612 215.93821 -34.056641 217.12305 C -30.826528 217.73579 -26.839859 217.80487 -23.6875 217.30078 L -23.107422 217.20703 L -23.167969 219.16211 C -23.243144 221.53031 -22.955081 223.08118 -22.101562 224.88867 C -21.413229 226.34636 -20.065672 228.01506 -18.744141 229.04883 C -17.645401 229.90831 -14.977175 231.35896 -13.259766 232.0332 C -12.739904 232.23731 -11.786115 232.76023 -11.162109 233.18555 C -9.6619949 234.208 -8.336979 234.47424 -6.3632812 234.15625 C 0.13096047 233.10994 6.0084787 228.52549 12.945312 219.12695 C 13.774046 218.00412 17.028363 213.2403 20.1875 208.52734 C 30.871573 192.58836 34.670294 187.68859 41.714844 180.76172 C 45.71507 176.82831 49.985156 173.41923 53.806641 171.10547 C 57.290583 168.99609 59.014775 168.19703 62.925781 166.87891 C 70.187652 164.43145 75.354452 162.31932 81.398438 159.32812 C 85.755591 157.17175 88.272386 155.76565 91.832031 153.5 C 92.503708 153.07249 93.125976 152.68387 93.585938 152.40234 C 93.815918 152.26158 94.005903 152.1487 94.140625 152.07031 C 94.19534 152.03848 94.234324 152.01733 94.269531 151.99805 C 94.273637 152.03425 94.276553 152.07021 94.279297 152.12891 C 94.286752 152.28839 94.288919 152.52294 94.285156 152.8125 C 94.277632 153.39163 94.249789 154.19172 94.207031 155.07031 C 94.121516 156.82751 93.979457 158.89879 93.835938 160.15039 C 92.028317 175.91423 85.698659 190.75616 73.689453 207.38086 C 69.686419 212.92238 66.328081 217.18758 59.107422 225.89844 C 47.355043 240.07629 42.882134 245.80169 39.054688 251.57031 C 32.236007 261.84726 28.62014 270.35947 27.128906 279.65039 C 26.727666 282.15028 26.679814 290.07781 27.050781 292.55469 C 27.228213 293.73937 27.498241 295.17498 27.757812 296.38086 C 27.887598 296.9838 28.013556 297.5296 28.125 297.95703 C 28.236444 298.38447 28.327419 298.68762 28.404297 298.83594 C 29.173844 300.32058 30.789398 301.53334 32.460938 301.88477 C 32.543358 301.90209 32.709067 301.90991 33 301.91992 C 33.290933 301.92993 33.693834 301.93736 34.199219 301.94531 C 35.209989 301.96121 36.631812 301.97317 38.394531 301.98047 C 41.919971 301.99507 46.80689 301.9921 52.476562 301.96875 C 63.050388 301.9252 113.25428 301.84336 164.04102 301.78516 C 190.88636 301.75441 214.06316 301.71106 230.58984 301.66406 C 238.85319 301.64056 245.4527 301.61618 250.01953 301.5918 C 252.30295 301.5796 254.079 301.56671 255.29883 301.55469 C 255.90874 301.54868 256.38018 301.54303 256.70703 301.53711 C 256.87046 301.53415 256.99695 301.5303 257.08789 301.52734 C 257.13336 301.52587 257.1696 301.52495 257.19727 301.52344 C 257.22493 301.52192 257.23959 301.5213 257.25977 301.51758 C 259.04422 301.18821 260.47786 300.12291 261.29883 298.51367 C 261.88967 297.35555 262.02803 296.37601 261.84961 294.63867 C 261.76131 293.77881 261.16691 286.79289 260.53125 279.12891 C 258.36062 252.95881 257.04423 239.67491 255.04297 223.73828 C 249.53937 179.91126 241.5187 144.39099 230.48047 114.97461 C 223.15591 95.454976 214.76548 79.4215 204.73438 65.78125 C 186.12618 40.477933 162.70437 26.025087 135.30078 22.941406 C 126.72626 21.97653 117.30529 22.12903 107.69727 23.388672 C 106.92919 23.489364 106.21791 23.563966 105.68945 23.603516 C 105.42522 23.62329 105.20685 23.635761 105.05273 23.636719 C 104.97568 23.637197 104.91337 23.63497 104.87305 23.630859 C 104.85862 23.629389 104.85178 23.626568 104.84375 23.625 C 104.84325 23.624055 104.84233 23.62405 104.8418 23.623047 C 104.83294 23.606323 104.81896 23.583046 104.80273 23.550781 C 104.77029 23.486252 104.72356 23.391543 104.66406 23.269531 C 104.54507 23.025508 104.37405 22.669132 104.15625 22.214844 C 103.72066 21.306268 103.09935 20.002053 102.33789 18.398438 C 100.81496 15.191207 98.731789 10.788537 96.457031 5.9628906 C 92.847503 -1.6943357 90.755672 -6.1054196 89.482422 -8.6875 C 88.209171 -11.26958 87.759492 -12.024257 87.410156 -12.376953 C 86.09265 -13.707131 84.302371 -14.288237 82.550781 -14.033203 z M 82.578125 -13.859375 C 84.275238 -14.107479 86.005676 -13.543739 87.285156 -12.251953 C 87.598284 -11.935813 88.052316 -11.190675 89.324219 -8.6113281 C 90.596121 -6.0319817 92.689368 -1.6199731 96.298828 6.0371094 C 98.573644 10.86288 100.65665 15.267153 102.17969 18.474609 C 102.9412 20.078337 103.56228 21.38207 103.99805 22.291016 C 104.21593 22.745488 104.38654 23.101002 104.50586 23.345703 C 104.56552 23.468054 104.61342 23.563155 104.64648 23.628906 C 104.66302 23.661782 104.67561 23.688269 104.68555 23.707031 C 104.69052 23.716412 104.69545 23.723896 104.69922 23.730469 C 104.7011 23.733755 104.701 23.73689 104.70312 23.740234 C 104.70525 23.743578 104.71428 23.753272 104.71484 23.753906 C 104.74297 23.785671 104.7659 23.789323 104.78711 23.794922 C 104.80832 23.80052 104.82971 23.802062 104.85547 23.804688 C 104.90699 23.809939 104.97208 23.813001 105.05273 23.8125 C 105.21405 23.811498 105.43457 23.799249 105.70117 23.779297 C 106.23438 23.739392 106.94986 23.665508 107.7207 23.564453 C 117.31582 22.306503 126.72305 22.154148 135.28125 23.117188 C 162.63508 26.19527 186.00645 40.614474 204.5918 65.886719 C 214.61163 79.511645 222.9943 95.529216 230.31445 115.03711 C 241.34615 144.43607 249.36672 179.94208 254.86914 223.75977 C 256.87008 239.69386 258.18492 252.97343 260.35547 279.14258 C 260.99115 286.80677 261.58383 293.78183 261.67383 294.6582 C 261.85065 296.38002 261.7185 297.30088 261.14062 298.43359 C 260.34299 299.99709 258.96294 301.02362 257.22852 301.34375 C 257.23301 301.34292 257.21294 301.34626 257.1875 301.34766 C 257.16206 301.34905 257.12673 301.35011 257.08203 301.35156 C 256.99263 301.35447 256.86609 301.35838 256.70312 301.36133 C 256.37719 301.36723 255.90654 301.3729 255.29688 301.37891 C 254.07755 301.39092 252.30281 301.40187 250.01953 301.41406 C 245.45298 301.43845 238.85115 301.46283 230.58789 301.48633 C 214.06137 301.53333 190.88628 301.57668 164.04102 301.60742 C 113.25422 301.66562 63.049809 301.74942 52.474609 301.79297 C 46.805288 301.81632 41.921143 301.81929 38.396484 301.80469 C 36.634155 301.79739 35.210705 301.78541 34.201172 301.76953 C 33.696405 301.76159 33.294827 301.75213 33.005859 301.74219 C 32.716892 301.73224 32.527278 301.71944 32.496094 301.71289 C 30.8826 301.37367 29.303499 300.18347 28.5625 298.75391 C 28.507005 298.64685 28.407335 298.33577 28.296875 297.91211 C 28.186415 297.48845 28.059093 296.94492 27.929688 296.34375 C 27.670876 295.1414 27.401244 293.7067 27.224609 292.52734 C 26.862273 290.1081 26.910523 282.12137 27.302734 279.67773 C 28.78957 270.41422 32.393361 261.93148 39.203125 251.66797 C 43.025301 245.90729 47.49262 240.18658 59.244141 226.00977 C 66.465702 217.29782 69.826729 213.02903 73.832031 207.48438 C 85.853196 190.84312 92.198262 175.96957 94.009766 160.17188 C 94.154289 158.91152 94.297163 156.83808 94.382812 155.07812 C 94.425637 154.19815 94.453365 153.39726 94.460938 152.81445 C 94.464724 152.52305 94.464807 152.28547 94.457031 152.11914 C 94.453143 152.03597 94.44749 151.97133 94.439453 151.92188 C 94.435435 151.89715 94.430474 151.87738 94.421875 151.85547 C 94.417576 151.84452 94.41291 151.83306 94.400391 151.81836 C 94.397261 151.81468 94.393158 151.81051 94.388672 151.80664 C 94.384186 151.80277 94.373667 151.79527 94.373047 151.79492 C 94.371806 151.79422 94.327467 151.7832 94.326172 151.7832 C 94.325334 151.7832 94.306218 151.7838 94.300781 151.78516 C 94.295344 151.78651 94.292875 151.7877 94.289062 151.78906 C 94.281437 151.79179 94.274827 151.79551 94.267578 151.79883 C 94.25308 151.80547 94.235247 151.81334 94.214844 151.82422 C 94.174037 151.84598 94.119175 151.87817 94.050781 151.91797 C 93.913995 151.99756 93.724771 152.11079 93.494141 152.25195 C 93.032879 152.53427 92.410691 152.92359 91.738281 153.35156 C 88.182522 155.61474 85.674357 157.01508 81.320312 159.16992 C 75.282558 162.15803 70.12591 164.2652 62.869141 166.71094 C 58.952518 168.03095 57.203991 168.84255 53.714844 170.95508 C 49.877494 173.27844 45.600426 176.69505 41.591797 180.63672 C 34.540193 187.57053 30.72655 192.48853 20.041016 208.42969 C 16.882472 213.14176 13.620881 217.91495 12.802734 219.02344 C 5.877892 228.40572 0.038287517 232.94633 -6.3925781 233.98242 C -8.339261 234.29606 -9.589933 234.04274 -11.0625 233.03906 C -11.699767 232.6047 -12.648925 232.0817 -13.195312 231.86719 C -14.890249 231.20177 -17.571846 229.74315 -18.636719 228.91016 C -19.931273 227.89749 -21.270911 226.23655 -21.943359 224.8125 C -22.786883 223.02617 -23.066836 221.5196 -22.992188 219.16797 L -22.923828 217 L -23.716797 217.125 C -26.843758 217.62503 -30.817134 217.55744 -34.023438 216.94922 C -40.22079 215.7736 -46.820452 211.81514 -51.095703 206.70703 C -57.502438 199.05222 -60.049569 189.86888 -58.40625 180.35547 C -58.256858 179.49061 -57.96811 177.69082 -57.763672 176.35352 C -57.1376 172.25815 -55.929398 167.93969 -54.158203 163.4668 C -50.561832 154.38469 -45.737096 146.32369 -34.150391 130.04883 C -26.099491 118.74042 -23.041951 114.01227 -20.515625 108.95703 C -18.870926 105.66595 -18.008252 103.51771 -17.445312 101.30469 L -17.005859 99.570312 L -17.537109 97.607422 C -18.594769 93.702467 -18.960938 91.036298 -18.960938 87.265625 C -18.960938 82.742805 -18.345419 78.870558 -16.917969 74.4375 C -14.724102 67.624266 -11.379354 61.64446 -6.0214844 54.958984 C -2.504543 50.570592 2.2325362 45.779679 6.6972656 42.09375 L 8.34375 40.734375 L 8.4453125 38.208984 C 8.5014348 36.83025 8.6728649 26.275277 8.8261719 14.730469 C 8.902823 8.9582421 8.981573 3.6596281 9.0488281 -0.22460938 C 9.0824557 -2.1667281 9.1134857 -3.754706 9.1386719 -4.8730469 C 9.151265 -5.4322173 9.1621643 -5.8746217 9.171875 -6.1835938 C 9.1767303 -6.3380798 9.1815345 -6.4589601 9.1855469 -6.5449219 C 9.1875531 -6.5879027 9.1896793 -6.6219536 9.1914062 -6.6464844 C 9.1931332 -6.6710151 9.1964811 -6.6911274 9.1953125 -6.6855469 C 9.6676238 -8.9409527 11.390506 -10.617328 13.671875 -11.039062 C 14.193085 -11.135413 14.506148 -11.230109 15.048828 -11.130859 C 15.591508 -11.03161 16.371526 -10.731643 17.792969 -10.021484 C 20.635855 -8.6011663 26.039569 -5.5478688 37.291016 0.78125 C 42.982767 3.9829512 48.173855 6.8936532 51.951172 9.0039062 C 53.83983 10.059033 55.375092 10.914538 56.443359 11.505859 C 56.977493 11.80152 57.395113 12.031543 57.681641 12.1875 C 57.824904 12.265479 57.935264 12.324941 58.011719 12.365234 C 58.049946 12.385381 58.077971 12.39943 58.099609 12.410156 C 58.110429 12.415519 58.1191 12.420349 58.126953 12.423828 C 58.13088 12.425568 58.135762 12.42791 58.140625 12.429688 C 58.143057 12.430576 58.146088 12.430476 58.150391 12.431641 C 58.154693 12.432805 58.173522 12.435547 58.173828 12.435547 C 58.174135 12.435547 58.206578 12.42986 58.207031 12.429688 C 58.207484 12.429515 58.217293 12.42384 58.220703 12.421875 C 58.227524 12.417945 58.230668 12.414977 58.234375 12.412109 C 58.241788 12.406375 58.24889 12.401037 58.255859 12.394531 C 58.269799 12.381519 58.287245 12.365978 58.308594 12.34375 C 58.351291 12.299294 58.409741 12.233083 58.486328 12.148438 C 58.639502 11.979147 58.859981 11.730345 59.140625 11.410156 C 59.701913 10.769778 60.504578 9.8454167 61.488281 8.703125 C 63.455688 6.4185417 66.150096 3.2668326 69.095703 -0.19921875 C 74.338403 -6.3682219 77.021738 -9.5217308 78.53125 -11.199219 C 79.286006 -12.037963 79.746391 -12.508039 80.083984 -12.798828 C 80.421577 -13.089617 80.634641 -13.202255 80.910156 -13.337891 C 81.450435 -13.603869 82.012421 -13.776674 82.578125 -13.859375 z M 82.025391 1.9785156 C 82.019508 1.9792865 82.015966 1.9812084 82.011719 1.9824219 C 81.994731 1.9872758 81.985404 1.9925862 81.976562 1.9980469 C 81.95888 2.0089682 81.943021 2.0206494 81.923828 2.0371094 C 81.885443 2.0700294 81.83528 2.1193463 81.771484 2.1835938 C 81.643894 2.3120886 81.462678 2.5042654 81.232422 2.7558594 C 80.77191 3.2590474 80.115619 3.9964151 79.308594 4.9179688 C 77.694543 6.761076 75.478949 9.3381623 73.025391 12.230469 C 70.605912 15.082601 68.326 17.760611 66.603516 19.777344 C 64.881031 21.794076 63.707202 23.156677 63.523438 23.353516 C 63.388036 23.49855 63.064005 23.737521 62.367188 24.154297 C 61.67037 24.571073 60.59975 25.169535 58.964844 26.054688 C 55.695032 27.824993 50.164802 30.741195 40.826172 35.638672 C 34.772006 38.81367 29.203039 41.718166 25.107422 43.839844 C 23.059613 44.900683 21.380598 45.765739 20.193359 46.371094 C 19.59974 46.673771 19.128679 46.911534 18.796875 47.076172 C 18.630973 47.158491 18.500388 47.221054 18.40625 47.265625 C 18.312112 47.310196 18.240807 47.33935 18.246094 47.337891 C 17.914489 47.429451 17.3829 47.754573 16.679688 48.257812 C 15.976475 48.761052 15.111798 49.441122 14.158203 50.238281 C 12.251013 51.832599 9.9878238 53.894587 7.9570312 55.929688 C -0.95954247 64.865175 -6.2784114 74.050124 -7.6914062 82.976562 C -8.0071176 84.971035 -7.9661105 89.316362 -7.6132812 91.398438 C -7.454431 92.335815 -7.0318769 94.08013 -6.6699219 95.289062 C -5.8350441 98.07756 -5.7555516 99.35882 -6.265625 101.87891 C -7.5288822 108.12019 -10.232657 114.07115 -15.783203 122.81641 C -17.857649 126.08483 -20.335749 129.67383 -26.064453 137.70898 C -36.553608 152.42123 -41.234759 160.37917 -44.4375 168.94922 C -45.684419 172.28577 -46.711593 176.35105 -47.091797 179.46484 C -47.150397 179.94476 -47.363351 181.33697 -47.564453 182.54883 C -48.906819 190.63806 -45.29741 198.77162 -38.324219 203.38281 C -32.996362 206.90597 -26.704479 207.41193 -20.998047 204.77539 C -18.226251 203.49475 -16.299905 202.02722 -12.990234 198.67578 C -12.142191 197.81704 -11.301032 197.00015 -10.630859 196.37695 C -10.295773 196.06536 -10.004416 195.801 -9.7753906 195.60547 C -9.5463651 195.40994 -9.3725433 195.28106 -9.3085938 195.24805 C -8.8429056 195.0076 -8.0892461 194.86668 -7.3105469 194.84766 C -6.5318477 194.82863 -5.7252487 194.92968 -5.1464844 195.14844 C -3.8479803 195.63922 -2.5552869 196.81148 -1.9355469 198.06055 C -1.5213486 198.89533 -1.430172 199.29371 -1.4257812 200.29688 C -1.4222019 201.11537 -1.5297177 201.73166 -1.921875 202.50391 C -2.3140323 203.27615 -2.9949252 204.20168 -4.1347656 205.61328 C -6.2553723 208.23947 -8.1187376 210.9258 -9.5019531 213.29492 C -10.885169 215.66405 -11.790394 217.71152 -11.994141 219.08398 C -12.052079 219.47427 -12.082193 219.69625 -12.009766 219.89062 C -11.937339 220.085 -11.772726 220.21403 -11.490234 220.42578 C -11.31369 220.55811 -10.931835 220.7666 -10.441406 221.00977 C -9.9509775 221.25293 -9.3581889 221.52673 -8.7773438 221.77344 L -6.6328125 222.68359 L -5.4375 222.05469 C -4.7829022 221.70955 -3.4748759 220.73507 -2.5 219.87305 C 0.67970577 217.06145 3.2988482 213.62287 10.707031 202.54297 C 21.576347 186.28652 25.653025 181.00634 33.037109 173.61523 C 39.691024 166.95499 45.208693 162.80779 52.482422 159.00195 C 54.238075 158.08335 55.909985 157.41386 59.261719 156.28125 C 66.861326 153.7132 71.493027 151.79128 77.828125 148.57812 C 95.372716 139.67953 107.00495 127.36073 110.78125 113.6582 C 111.91981 109.52688 112.13366 107.87575 112.25195 102.30664 C 112.30403 99.854817 112.33507 98.592749 112.4043 97.845703 C 112.47352 97.098657 112.57589 96.87638 112.78906 96.458984 C 113.33871 95.382781 114.32809 94.394664 115.36328 93.884766 C 116.03526 93.553776 116.43867 93.486949 117.74023 93.488281 C 119.11381 93.489679 119.41123 93.545064 120.17969 93.949219 C 121.26738 94.521298 122.24764 95.587556 122.80664 96.808594 C 123.00187 97.235012 123.10777 97.530327 123.17969 98.091797 C 123.2516 98.653266 123.28838 99.477655 123.33398 100.93945 C 123.78607 115.43325 118.47135 128.67092 107.38867 140.64258 L 105.20898 142.99805 L 105.42383 147.16211 C 105.73595 153.2155 105.3465 159.92607 104.32031 166.14453 C 102.02277 180.06749 96.111015 194.19609 86.669922 208.32812 C 81.561476 215.97479 76.970523 221.91858 65.126953 236.2168 C 53.542199 250.20256 49.202939 256.00448 45.246094 262.80273 C 41.399212 269.41207 39.23387 275.06155 38.25 281.06055 C 38.084912 282.06714 37.969616 284.22309 37.927734 286.21875 C 37.906794 287.21658 37.903976 288.17293 37.923828 288.92383 C 37.933754 289.29928 37.949079 289.62208 37.970703 289.875 C 37.992327 290.12792 38.017039 290.30341 38.060547 290.41211 C 38.060424 290.4118 38.060742 290.41746 38.064453 290.43359 C 38.068165 290.44973 38.077533 290.47782 38.097656 290.50195 C 38.137904 290.55022 38.195781 290.57084 38.292969 290.58984 C 38.487344 290.62785 38.876035 290.65539 39.740234 290.67969 C 41.468633 290.72829 45.082748 290.75534 52.671875 290.76367 C 67.850128 290.78033 98.927913 290.72216 162.60547 290.60547 C 186.63381 290.56142 208.48493 290.51384 224.33398 290.47266 C 232.25851 290.45206 238.68378 290.43217 243.12891 290.41602 C 245.35147 290.40794 247.07849 290.40103 248.25195 290.39453 C 248.83868 290.39128 249.28766 290.38757 249.58984 290.38477 C 249.74093 290.38337 249.85421 290.38215 249.93164 290.38086 C 249.97036 290.38022 250.001 290.37954 250.02148 290.37891 C 250.03173 290.37859 250.03829 290.37929 250.04492 290.37891 C 250.04824 290.37871 250.05254 290.3774 250.05664 290.37695 C 250.06074 290.37651 250.11118 290.35171 250.11133 290.35156 C 250.1119 290.35099 250.13006 290.32432 250.13281 290.31641 C 250.13557 290.30849 250.13772 290.30202 250.13867 290.29688 C 250.14057 290.28659 250.13996 290.27747 250.14062 290.26758 C 250.14195 290.2478 250.14273 290.22359 250.14258 290.19336 C 250.14228 290.1329 250.13975 290.04912 250.13477 289.93945 C 250.12481 289.72013 250.10532 289.40176 250.07812 288.99609 C 250.02373 288.18477 249.93658 287.02193 249.82422 285.5918 C 249.5995 282.73153 249.27414 278.80531 248.90625 274.50586 C 248.17047 265.90695 247.26619 255.81324 246.66797 249.75781 C 240.97327 192.1144 231.88736 148.89811 218.14258 114.0918 C 212.94047 100.91836 206.58034 88.482002 199.9082 78.443359 C 194.78708 70.738303 189.95719 64.766499 184.12891 58.929688 C 166.14094 40.915436 144.72536 32.533256 119.42773 33.605469 C 114.04467 33.833625 110.08824 34.274614 103.04688 35.431641 C 100.66321 35.82332 99.057641 35.376614 97.65625 33.941406 C 97.364076 33.642183 96.897931 32.863787 95.736328 30.521484 C 94.574725 28.179182 92.712534 24.271873 89.605469 17.697266 C 87.58905 13.430488 85.739345 9.5331381 84.382812 6.6933594 C 83.704546 5.27347 83.148407 4.1187744 82.757812 3.3125 C 82.562515 2.9093628 82.408968 2.5929126 82.300781 2.375 C 82.246688 2.2660437 82.204508 2.1822127 82.173828 2.1230469 C 82.158488 2.093464 82.146435 2.0701724 82.136719 2.0527344 C 82.13186 2.0440154 82.127124 2.0358887 82.123047 2.0292969 C 82.121009 2.0260009 82.119704 2.0231203 82.117188 2.0195312 C 82.114671 2.0159422 82.104167 2.0065108 82.103516 2.0058594 C 82.103185 2.0055291 82.07662 1.9845649 82.076172 1.984375 C 82.075724 1.9841851 82.047441 1.9785656 82.046875 1.9785156 C 82.046309 1.9784656 82.031273 1.9777448 82.025391 1.9785156 z M 82.013672 2.1953125 C 82.015354 2.1985403 82.015808 2.1997107 82.017578 2.203125 C 82.04736 2.2605591 82.088728 2.3446591 82.142578 2.453125 C 82.250278 2.6700568 82.404443 2.985805 82.599609 3.3886719 C 82.989942 4.1944057 83.544469 5.3498075 84.222656 6.7695312 C 85.57903 9.6089787 87.42898 13.50489 89.445312 17.771484 C 92.552468 24.346283 94.41515 28.254539 95.578125 30.599609 C 96.7411 32.94468 97.199827 33.725034 97.53125 34.064453 C 98.967427 35.535286 100.65828 36.002773 103.07617 35.605469 C 110.11419 34.448993 114.05843 34.009154 119.43555 33.78125 C 144.69012 32.710861 166.04605 41.070595 184.00391 59.054688 C 189.8241 64.8834 194.64563 70.843534 199.76172 78.541016 C 206.42529 88.566773 212.78052 100.99323 217.97852 114.15625 C 231.71473 148.94087 240.8004 192.14166 246.49414 249.77539 C 247.09219 255.82903 247.99474 265.92312 248.73047 274.52148 C 249.09833 278.82067 249.42377 282.74591 249.64844 285.60547 C 249.76077 287.03525 249.84804 288.19779 249.90234 289.00781 C 249.9295 289.41282 249.94914 289.73042 249.95898 289.94727 C 249.96391 290.05569 249.96652 290.13942 249.9668 290.19531 C 249.96682 290.19982 249.96681 290.20093 249.9668 290.20508 C 249.95382 290.20535 249.94621 290.2048 249.92969 290.20508 C 249.85311 290.20635 249.73876 290.20759 249.58789 290.20898 C 249.28614 290.21178 248.83857 290.2155 248.25195 290.21875 C 247.07871 290.22525 245.34946 290.23216 243.12695 290.24023 C 238.68194 290.25639 232.25848 290.27433 224.33398 290.29492 C 208.485 290.33611 186.63377 290.38368 162.60547 290.42773 C 98.927909 290.54442 67.849406 290.60454 52.671875 290.58789 C 45.08311 290.57956 41.469433 290.55237 39.746094 290.50391 C 38.884424 290.47968 38.491587 290.44836 38.326172 290.41602 C 38.245052 290.40015 38.229187 290.38235 38.234375 290.38867 C 38.232971 290.38113 38.232864 290.36828 38.224609 290.34766 C 38.20064 290.28777 38.167625 290.10859 38.146484 289.86133 C 38.125344 289.61407 38.111431 289.29126 38.101562 288.91797 C 38.081825 288.17139 38.082619 287.21839 38.103516 286.22266 C 38.145309 284.23118 38.263173 282.0694 38.423828 281.08984 C 39.403872 275.11418 41.559057 269.48707 45.398438 262.89062 C 49.349033 256.1031 53.680402 250.31405 65.263672 236.33008 C 77.108276 222.03061 81.704294 216.07794 86.816406 208.42578 C 96.268778 194.27686 102.19181 180.12387 104.49414 166.17188 C 105.52247 159.9404 105.91247 153.21998 105.59961 147.15234 L 105.38867 143.0625 L 107.51758 140.76367 C 118.62522 128.76505 123.9633 115.47577 123.50977 100.93555 C 123.46414 99.473005 123.42922 98.644125 123.35547 98.068359 C 123.28172 97.492594 123.16695 97.167283 122.96875 96.734375 C 122.39347 95.477787 121.39038 94.386596 120.26172 93.792969 C 119.48159 93.382674 119.11914 93.31195 117.74023 93.310547 C 116.43211 93.309208 115.97454 93.387002 115.28516 93.726562 C 114.20919 94.256544 113.19945 95.265616 112.63086 96.378906 C 112.41616 96.799294 112.29899 97.069546 112.22852 97.830078 C 112.15804 98.59061 112.12825 99.850787 112.07617 102.30273 C 111.95796 107.86811 111.74821 109.48609 110.61133 113.61133 C 106.85249 127.25048 95.262124 139.5368 77.748047 148.41992 C 71.418575 151.63023 66.800001 153.54681 59.205078 156.11328 C 55.850154 157.24697 54.165511 157.92215 52.400391 158.8457 C 45.112489 162.65895 39.574625 166.82138 32.912109 173.49023 C 25.521267 180.88811 21.431381 186.1866 10.560547 202.44531 C 3.1536695 213.52326 0.54702711 216.94407 -2.6152344 219.74023 C -3.5806361 220.59388 -4.9011692 221.57241 -5.5195312 221.89844 L -6.640625 222.49023 L -8.7070312 221.61133 C -9.2844631 221.36607 -9.8764147 221.09296 -10.363281 220.85156 C -10.850148 220.61016 -11.236795 220.39607 -11.384766 220.28516 C -11.665012 220.07509 -11.793536 219.96484 -11.84375 219.83008 C -11.893964 219.69532 -11.877922 219.49744 -11.820312 219.10938 C -11.624057 217.78737 -10.72734 215.7445 -9.3496094 213.38477 C -7.9718788 211.02504 -6.1134229 208.34432 -3.9980469 205.72461 C -2.8560854 204.31039 -2.1692192 203.3768 -1.765625 202.58203 C -1.3620308 201.78726 -1.2463494 201.12971 -1.25 200.29492 C -1.2544393 199.28066 -1.3574449 198.8287 -1.7773438 197.98242 C -2.420707 196.68575 -3.7353428 195.49216 -5.0839844 194.98242 C -5.6963655 194.75096 -6.5178796 194.65241 -7.3144531 194.67188 C -8.1110266 194.69134 -8.8799297 194.82717 -9.3886719 195.08984 C -9.4944966 195.14448 -9.6566058 195.27453 -9.8886719 195.47266 C -10.120738 195.67078 -10.415659 195.93533 -10.751953 196.24805 C -11.424541 196.87349 -12.265535 197.69036 -13.115234 198.55078 C -16.418989 201.89623 -18.318747 203.34499 -21.072266 204.61719 C -26.726139 207.22945 -32.947411 206.72857 -38.228516 203.23633 C -45.145453 198.66234 -48.721509 190.59622 -47.390625 182.57617 C -47.189254 181.36269 -46.975875 179.97655 -46.916016 179.48633 C -46.538205 176.39213 -45.515007 172.33395 -44.273438 169.01172 C -41.07789 160.46092 -36.406025 152.51851 -25.919922 137.81055 C -20.19076 129.77475 -17.711954 126.1829 -15.634766 122.91016 C -10.078703 114.15621 -7.362393 108.18196 -6.09375 101.91406 C -5.5806162 99.378856 -5.6616633 98.038332 -6.5 95.238281 C -6.8594156 94.03783 -7.2832342 92.290991 -7.4394531 91.369141 C -7.7858196 89.325202 -7.8266574 84.956481 -7.5175781 83.003906 C -6.1123514 74.126541 -0.81661625 64.970257 8.0820312 56.052734 C 10.10859 54.021876 12.368993 51.96539 14.271484 50.375 C 15.22273 49.579805 16.083611 48.901595 16.78125 48.402344 C 17.478889 47.903093 18.022425 47.582513 18.292969 47.507812 C 18.33827 47.495304 18.384566 47.471188 18.480469 47.425781 C 18.576371 47.380375 18.70856 47.316961 18.875 47.234375 C 19.207881 47.069203 19.679508 46.830179 20.273438 46.527344 C 21.461296 45.921673 23.139497 45.057034 25.1875 43.996094 C 29.283506 41.874214 34.853817 38.970035 40.908203 35.794922 C 50.246962 30.897378 55.777078 27.982292 59.048828 26.210938 C 60.684703 25.32526 61.755867 24.724063 62.457031 24.304688 C 63.158196 23.885312 63.488458 23.650155 63.652344 23.474609 C 63.856635 23.255784 65.015616 21.907569 66.738281 19.890625 C 68.460947 17.873681 70.740566 15.196015 73.160156 12.34375 C 75.613241 9.4520023 77.828299 6.8771862 79.441406 5.0351562 C 80.24796 4.1141413 80.904422 3.3763825 81.363281 2.875 C 81.592711 2.6243087 81.772233 2.431773 81.896484 2.3066406 C 81.947669 2.2550933 81.982997 2.2229472 82.013672 2.1953125 z M 20.115234 3.78125 L 19.998047 6.4648438 C 19.937164 7.8681844 19.836059 14.022815 19.773438 20.15625 C 19.742129 23.222594 19.703369 26.164979 19.664062 28.433594 C 19.624756 30.702208 19.584022 32.306671 19.556641 32.669922 C 19.521401 33.137425 19.512118 33.481008 19.527344 33.714844 C 19.534957 33.831762 19.547056 33.920254 19.572266 33.990234 C 19.58487 34.025225 19.60109 34.056986 19.626953 34.083984 C 19.652817 34.110983 19.693537 34.130859 19.734375 34.130859 C 19.734788 34.130859 19.746199 34.131489 19.75 34.130859 C 19.753801 34.13023 19.757219 34.129547 19.759766 34.128906 C 19.764858 34.127625 19.767659 34.126301 19.771484 34.125 C 19.779134 34.122398 19.788209 34.118812 19.796875 34.115234 C 19.814206 34.10808 19.835703 34.098683 19.863281 34.085938 C 19.918439 34.060446 19.994535 34.02339 20.09375 33.974609 C 20.292181 33.877048 20.578106 33.733447 20.941406 33.548828 C 21.668008 33.17959 22.705915 32.645004 23.978516 31.986328 C 26.523718 30.668977 30.00775 28.852145 33.816406 26.853516 C 37.625065 24.854887 41.08663 23.026293 43.595703 21.691406 C 44.85024 21.023963 45.867531 20.480426 46.570312 20.099609 C 46.921703 19.909201 47.193388 19.760157 47.378906 19.65625 C 47.471665 19.604296 47.543196 19.564125 47.591797 19.535156 C 47.616097 19.520672 47.634086 19.50959 47.648438 19.5 C 47.655613 19.495205 47.662904 19.490093 47.669922 19.484375 C 47.673431 19.481516 47.675525 19.479488 47.681641 19.472656 C 47.684698 19.46924 47.693185 19.455385 47.693359 19.455078 C 47.693534 19.454771 47.705094 19.404505 47.705078 19.404297 C 47.705063 19.404089 47.69161 19.363594 47.691406 19.363281 C 47.691203 19.362968 47.684316 19.352469 47.681641 19.349609 C 47.67629 19.34389 47.673174 19.340558 47.669922 19.337891 C 47.663418 19.332556 47.657462 19.329112 47.650391 19.324219 C 47.636249 19.314432 47.616014 19.302291 47.591797 19.287109 C 47.543363 19.256746 47.473098 19.212988 47.380859 19.158203 C 47.196382 19.048634 46.926753 18.89065 46.578125 18.689453 C 45.880868 18.287059 44.871858 17.711826 43.628906 17.005859 C 41.143002 15.593925 37.716784 13.660457 33.947266 11.544922 L 20.115234 3.78125 z M 20.279297 4.0761719 L 33.859375 11.699219 C 37.628678 13.814633 41.05746 15.748447 43.542969 17.160156 C 44.785723 17.866011 45.791684 18.441737 46.488281 18.84375 C 46.83658 19.044756 47.10778 19.201715 47.291016 19.310547 C 47.363727 19.353733 47.410783 19.382887 47.455078 19.410156 C 47.411167 19.435746 47.364258 19.462024 47.292969 19.501953 C 47.108859 19.605072 46.837347 19.755106 46.486328 19.945312 C 45.784291 20.325726 44.767985 20.869785 43.513672 21.537109 C 41.005045 22.871758 37.542791 24.698764 33.734375 26.697266 C 29.925962 28.695767 26.443197 30.512956 23.898438 31.830078 C 22.626058 32.488639 21.587201 33.021757 20.861328 33.390625 C 20.498392 33.575059 20.214667 33.719505 20.017578 33.816406 C 19.919034 33.864857 19.841787 33.901415 19.789062 33.925781 C 19.770422 33.934396 19.758381 33.938026 19.746094 33.943359 C 19.743357 33.938289 19.741591 33.938876 19.738281 33.929688 C 19.72357 33.888849 19.710186 33.811564 19.703125 33.703125 C 19.689003 33.486247 19.699424 33.147263 19.734375 32.683594 C 19.763668 32.294986 19.800527 30.704727 19.839844 28.435547 C 19.87916 26.166367 19.91986 23.224932 19.951172 20.158203 C 20.013786 14.025494 20.113551 7.8620172 20.173828 6.4726562 L 20.279297 4.0761719 z M 17.873047 70.230469 C 16.643343 70.49154 15.271579 71.376117 13.763672 72.869141 C 11.230178 75.37763 9.3235812 78.610122 7.9628906 82.699219 C 7.023837 85.521226 6.7476368 87.312979 6.8203125 90.123047 C 6.8485263 91.213957 6.8743376 91.837734 6.9511719 92.316406 C 7.0280061 92.795079 7.1580148 93.125748 7.3828125 93.607422 C 7.6878197 94.260962 7.9163812 94.676981 8.1875 94.988281 C 8.4586188 95.299581 8.7696384 95.498233 9.2226562 95.712891 C 10.065294 96.112165 11.05568 96.088445 12.123047 95.673828 C 13.190413 95.259212 14.340143 94.456718 15.517578 93.291016 C 19.710298 89.140079 22.719478 81.563312 22.441406 75.853516 C 22.32873 73.539895 21.979328 72.380353 21.070312 71.347656 C 20.188166 70.345485 19.102751 69.969398 17.873047 70.230469 z M 17.910156 70.402344 C 19.086441 70.152614 20.087631 70.499342 20.9375 71.464844 C 21.8185 72.465713 22.153659 73.562282 22.265625 75.861328 C 22.540304 81.50146 19.538818 89.061096 15.392578 93.166016 C 14.227154 94.319826 13.095995 95.107548 12.060547 95.509766 C 11.025099 95.911983 10.090719 95.929916 9.2988281 95.554688 C 8.8554006 95.344575 8.5721779 95.16224 8.3203125 94.873047 C 8.0684471 94.583854 7.8458383 94.182163 7.5429688 93.533203 C 7.3201884 93.055851 7.1989954 92.750049 7.125 92.289062 C 7.0510046 91.828076 7.0242785 91.206975 6.9960938 90.117188 C 6.9237636 87.320482 7.195573 85.564593 8.1308594 82.753906 C 9.4847656 78.685197 11.375621 75.480455 13.886719 72.994141 C 15.381264 71.514347 16.733871 70.652074 17.910156 70.402344 z "
          />
</svg>
