<?xml version="1.0" encoding="iso-8859-1"?>
<!-- Generator: Adobe Illustrator 17.1.0, SVG Export Plug-In . SVG Version: 6.00 Build 0)  -->
<!DOCTYPE svg PUBLIC "-//W3C//DTD SVG 1.1//EN" "http://www.w3.org/Graphics/SVG/1.1/DTD/svg11.dtd">
<svg version="1.1" id="Capa_1" xmlns="http://www.w3.org/2000/svg" xmlns:xlink="http://www.w3.org/1999/xlink" x="0px" y="0px"
	 viewBox="0 0 512.113 512.113" style="enable-background:new 0 0 512.113 512.113;" xml:space="preserve">
<g>
	<path d="M347.508,413.071c-4.016-1.84-8.765-0.077-10.605,3.94c-11.542,25.185-31.487,24.823-60.594,21.397
		c-4.221-0.497-8.301-0.973-12.252-1.283v-17.53c9.946-1.54,20.331-5.794,28.978-12.041c12.126-8.76,19.084-20.008,19.088-30.861v0
		c0.008-21.104-20.196-36.429-48.039-36.44l-16.021-0.006c-12.583-0.01-24.195,3.182-32.771,8.971
		c-9.861,6.658-15.293,16.4-15.297,27.433c-0.004,10.853,6.952,22.106,19.083,30.875c8.648,6.25,19.033,10.513,28.979,12.059v17.54
		c-3.951,0.31-8.031,0.786-12.252,1.283c-29.109,3.426-49.051,3.787-60.593-21.397c-1.841-4.017-6.589-5.78-10.605-3.94
		c-4.017,1.841-5.78,6.589-3.939,10.606c17.256,37.654,51.792,33.59,77.009,30.622c6.655-0.784,12.942-1.523,18.381-1.523
		c5.439,0,11.726,0.74,18.382,1.523c7.317,0.861,15.417,1.814,23.653,1.814c20.149,0,41.106-5.708,53.355-32.436
		C353.288,419.66,351.524,414.912,347.508,413.071z M215.994,376.658c0.002-5.713,2.778-10.483,8.251-14.179
		c5.952-4.019,14.399-6.232,23.79-6.232c0.007,0,0.015,0,0.022,0l16.021,0.006c15.928,0.006,32.05,7.027,32.045,20.434
		c-0.005,12.308-21.878,27.415-39.796,27.556c-0.088-0.003-0.176-0.004-0.264-0.004
		C238.083,404.232,215.989,389.024,215.994,376.658z"/>
	<path d="M506.554,94.969c-14.122-46.114-51.735-85.748-78.894-83.15c-21.606,2.064-50.665,34.09-88.837,97.907
		c-0.175,0.293-0.33,0.595-0.465,0.903c-2.431,3.575-5.379,4.87-10.781,4.87c-6.657,0-19.046-6.975-23.951-25.692
		c-1.12-4.274-5.491-6.828-9.767-5.711c-4.274,1.12-6.831,5.493-5.71,9.767c0.409,1.562,0.867,3.076,1.366,4.544
		c-11.505-5.482-23.032-19.565-25.253-31.809c-0.007-0.041-0.02-0.079-0.028-0.119c-0.033-0.166-0.072-0.33-0.116-0.493
		c-0.026-0.1-0.052-0.201-0.083-0.299c-0.044-0.142-0.093-0.282-0.145-0.421c-0.042-0.115-0.084-0.23-0.131-0.342
		c-0.049-0.116-0.103-0.228-0.157-0.341c-0.06-0.127-0.121-0.253-0.187-0.375c-0.053-0.097-0.111-0.191-0.168-0.287
		c-0.076-0.127-0.152-0.253-0.234-0.375c-0.063-0.094-0.132-0.183-0.199-0.274c-0.084-0.113-0.167-0.226-0.256-0.334
		c-0.083-0.101-0.172-0.196-0.259-0.292c-0.081-0.089-0.161-0.179-0.245-0.264c-0.109-0.109-0.224-0.212-0.339-0.315
		c-0.072-0.064-0.142-0.13-0.216-0.192c-0.132-0.11-0.27-0.212-0.409-0.313c-0.066-0.048-0.131-0.098-0.198-0.144
		c-0.144-0.098-0.293-0.188-0.444-0.277c-0.073-0.043-0.144-0.087-0.218-0.128c-0.142-0.078-0.288-0.148-0.436-0.217
		c-0.094-0.044-0.186-0.089-0.281-0.129c-0.128-0.054-0.26-0.103-0.392-0.151c-0.124-0.045-0.247-0.089-0.373-0.128
		c-0.111-0.034-0.224-0.064-0.337-0.093c-0.152-0.04-0.304-0.077-0.459-0.107c-0.044-0.009-0.086-0.023-0.131-0.031
		c-0.062-0.011-0.123-0.014-0.184-0.024c-0.156-0.025-0.312-0.046-0.47-0.061c-0.121-0.012-0.242-0.02-0.362-0.026
		c-0.134-0.007-0.268-0.011-0.403-0.011c-0.148,0-0.295,0.004-0.442,0.012c-0.108,0.006-0.215,0.013-0.323,0.023
		c-0.171,0.016-0.34,0.039-0.508,0.066c-0.054,0.009-0.108,0.011-0.162,0.021c-0.04,0.007-0.077,0.02-0.116,0.027
		c-0.168,0.033-0.334,0.073-0.5,0.117c-0.099,0.026-0.198,0.052-0.295,0.082c-0.142,0.044-0.281,0.093-0.42,0.144
		c-0.116,0.043-0.233,0.085-0.346,0.133c-0.112,0.047-0.221,0.1-0.331,0.152c-0.131,0.062-0.262,0.125-0.388,0.194
		c-0.091,0.05-0.178,0.104-0.267,0.157c-0.134,0.08-0.268,0.16-0.396,0.248c-0.084,0.057-0.165,0.119-0.246,0.179
		c-0.123,0.091-0.246,0.181-0.364,0.279c-0.088,0.073-0.172,0.151-0.257,0.228c-0.102,0.092-0.204,0.183-0.301,0.28
		c-0.096,0.095-0.186,0.197-0.276,0.297c-0.078,0.086-0.157,0.171-0.23,0.26c-0.097,0.117-0.187,0.239-0.277,0.362
		c-0.061,0.082-0.123,0.163-0.18,0.247c-0.087,0.129-0.168,0.263-0.248,0.397c-0.053,0.088-0.107,0.176-0.156,0.266
		c-0.069,0.127-0.132,0.259-0.195,0.39c-0.052,0.109-0.104,0.217-0.151,0.328c-0.048,0.115-0.091,0.232-0.134,0.35
		c-0.051,0.137-0.1,0.275-0.143,0.415c-0.03,0.1-0.057,0.201-0.083,0.302c-0.043,0.163-0.082,0.326-0.115,0.492
		c-0.008,0.041-0.021,0.079-0.028,0.12c-2.272,12.529-14.289,26.981-26.054,32.175c0.55-1.583,1.054-3.216,1.498-4.91
		c1.12-4.274-1.437-8.646-5.71-9.767c-4.277-1.122-8.647,1.437-9.767,5.711c-4.905,18.717-17.294,25.692-23.952,25.692
		c-5.398,0-8.346-1.294-10.776-4.863c-0.135-0.311-0.292-0.614-0.468-0.91c-38.172-63.817-67.231-95.843-88.837-97.907
		C57.301,9.222,19.681,48.855,5.559,94.969c-14.673,47.914,0.019,87.991,40.311,109.956c1.136,0.619,2.37,1.159,3.773,1.65
		c10.976,3.838,19.829,8.968,16.953,31.681c-0.024,0.126-0.05,0.249-0.073,0.375c-0.066,0.354-0.098,0.707-0.116,1.058
		c-0.12,0.835-0.252,1.689-0.403,2.57c-9.046,52.919,3.023,110.234,33.113,157.25c13.441,21.001,37.061,49.834,73.254,67.93
		c8.417,4.208,15.633,8.384,22.611,12.423c19.058,11.029,35.517,20.554,61.074,20.554c25.959,0,42.184-9.468,60.971-20.432
		c6.987-4.078,14.212-8.294,22.714-12.545c36.193-18.096,59.813-46.929,73.254-67.93c30.089-47.015,42.159-104.331,33.113-157.25
		c-0.149-0.871-0.28-1.715-0.399-2.541c-0.017-0.36-0.05-0.722-0.117-1.087c-0.026-0.142-0.056-0.28-0.083-0.421
		c-2.858-22.675,5.991-27.8,16.96-31.635c1.401-0.49,2.635-1.03,3.773-1.65C506.535,182.961,521.228,142.883,506.554,94.969z
		 M458.586,190.876c-0.362,0.197-0.832,0.397-1.396,0.595c-7.863,2.749-16.102,6.873-21.625,14.856
		c-7.173-15.912-16.215-27.887-24.048-38.255c-13.641-18.053-19.356-26.634-11.865-40.841c2.061-3.908,0.563-8.747-3.345-10.808
		c-3.908-2.059-8.747-0.563-10.808,3.345c-12.549,23.801-0.017,40.388,13.252,57.949c11.303,14.96,25.346,33.557,30.985,63.187
		c0.172,1.318,0.365,2.66,0.603,4.05c8.383,49.04-2.85,102.229-30.818,145.929c-12.356,19.307-33.999,45.778-66.933,62.244
		c-8.964,4.482-16.752,9.027-23.624,13.037c-18.156,10.596-31.273,18.251-52.906,18.251c-21.261,0-34.599-7.719-53.06-18.402
		c-6.852-3.965-14.617-8.459-23.47-12.885c-32.934-16.466-54.577-42.938-66.933-62.244c-27.968-43.7-39.201-96.889-30.818-145.929
		c0.235-1.377,0.427-2.706,0.598-4.012c5.634-29.653,19.684-48.259,30.993-63.226c13.269-17.561,25.801-34.148,13.252-57.949
		c-2.061-3.908-6.899-5.406-10.808-3.345c-3.908,2.061-5.406,6.9-3.345,10.808c7.491,14.208,1.776,22.788-11.865,40.841
		c-7.834,10.369-16.876,22.344-24.049,38.258c-5.524-7.984-13.763-12.108-21.626-14.858c-0.566-0.198-1.037-0.398-1.397-0.595
		c-45.188-24.633-39.865-67.727-32.67-91.222c5.816-18.992,16.721-38.118,29.918-52.473C62.509,34.419,74.83,26.97,82.931,27.746
		c7.198,0.688,28.971,10.766,75.967,89.091c0.153,0.378,0.336,0.746,0.549,1.102c5.458,9.124,13.663,13.56,25.086,13.56
		c10.099,0,21.886-6.109,30.371-17.954c1.48,1.478,3.5,2.358,5.643,2.358c0.662,0,1.334-0.083,2.005-0.256
		c12.825-3.31,25.709-14.068,33.838-26.918c8.129,12.85,21.014,23.608,33.838,26.918c0.671,0.173,1.343,0.256,2.005,0.256
		c1.959,0,3.807-0.744,5.243-1.997c8.464,11.604,20.107,17.593,30.102,17.593c11.423,0,19.629-4.435,25.086-13.56
		c0.212-0.354,0.394-0.72,0.546-1.095c46.996-78.325,68.773-88.41,75.972-89.098c8.099-0.772,20.422,6.673,32.155,19.435
		c13.197,14.355,24.102,33.48,29.918,52.473C498.451,123.149,503.774,166.243,458.586,190.876z"/>
	<path d="M352.186,260.115c-8.828,0-16.011,7.182-16.011,16.011s7.183,16.011,16.011,16.011s16.011-7.182,16.011-16.011
		S361.014,260.115,352.186,260.115z"/>
	<path d="M175.939,276.126c0-8.828-7.183-16.011-16.011-16.011s-16.011,7.182-16.011,16.011s7.183,16.011,16.011,16.011
		S175.939,284.954,175.939,276.126z"/>
</g>
<g>
</g>
<g>
</g>
<g>
</g>
<g>
</g>
<g>
</g>
<g>
</g>
<g>
</g>
<g>
</g>
<g>
</g>
<g>
</g>
<g>
</g>
<g>
</g>
<g>
</g>
<g>
</g>
<g>
</g>
</svg>
