<?xml version="1.0" encoding="UTF-8" standalone="no"?>
<svg
   xmlns:dc="http://purl.org/dc/elements/1.1/"
   xmlns:cc="http://creativecommons.org/ns#"
   xmlns:rdf="http://www.w3.org/1999/02/22-rdf-syntax-ns#"
   xmlns:svg="http://www.w3.org/2000/svg"
   xmlns="http://www.w3.org/2000/svg"
   xmlns:xlink="http://www.w3.org/1999/xlink"
   xmlns:sodipodi="http://sodipodi.sourceforge.net/DTD/sodipodi-0.dtd"
   xmlns:inkscape="http://www.inkscape.org/namespaces/inkscape"
   sodipodi:docname="jaguar-4a.svg"
   inkscape:version="1.0beta2 (2b71d25, 2019-12-03)"
   id="svg8"
   version="1.1"
   viewBox="80 120 50 50"
   height="100mm"
   width="110mm">
  
    <path
          d="
m 104.30452,168.15072 c -1.72385,-0.67139 -3.13701,-2.03497 -5.113033,-1.90683 -2.581493,-0.57414 -3.618289,-3.07978 -4.981642,-5.00282 -5.600387,-4.73713 -7.821985,-12.87199 -5.688918,-19.85012 0.395167,-0.98154 -0.395201,-1.91122 -0.5943,-2.86676 -0.883554,-2.76507 -2.090011,-5.59479 -1.836188,-8.55169 0.34226,-2.70374 3.540628,-2.20694 5.316582,-1.33075 1.492381,0.57174 2.769775,1.54127 4.015657,2.51793 3.161116,-1.88324 7.042072,-2.12698 10.565102,-1.27713 1.76765,0.0818 3.53049,-0.47281 5.3119,-0.1628 2.14526,0.15219 4.18106,0.88392 6.0998,1.81654 2.29243,-1.65155 4.68494,-3.92353 7.71402,-3.53273 2.23911,0.57884 2.35765,3.35553 2.02068,5.22723 -0.4452,2.84065 -1.77568,5.4138 -3.01846,7.97147 1.78601,4.66842 1.28104,10.02504 -1.06817,14.40521 -1.22934,2.64257 -3.44599,4.56985 -5.21899,6.81585 -1.03702,2.01165 -2.8043,3.84708 -5.21016,3.94767 -2.26967,0.21329 -3.87467,2.43318 -6.30632,2.09429 -0.67973,-0.006 -1.35864,-0.11184 -2.00756,-0.31456 z 

m 4.57602,-1.57413 c 1.47961,-0.52702 -0.36762,-0.91178 -0.82218,-1.53357 -0.73829,-0.20054 -1.28754,-2.19232 -1.9825,-1.43549 -0.89585,0.92541 -1.89912,1.84523 -2.86753,2.59843 1.52384,1.14847 3.96674,1.2154 5.67221,0.37063 z 

m -5.62882,-2.03852 c 2.12813,-0.87942 3.28834,-3.97064 1.46935,-5.70162 -1.36677,-1.05113 -3.89775,-1.88935 -3.54306,-4.0267 1.71954,-0.77106 3.94953,-0.0152 5.86337,-0.26924 1.36299,0.38327 4.97913,-1.13957 4.45755,1.27372 -0.66566,2.15709 -3.55761,2.09125 -4.33029,4.11005 -0.59736,2.99054 2.62555,5.94612 5.58798,5.21955 2.34085,-0.39964 3.81866,-2.60183 4.2155,-4.80749 1.1657,-0.92353 3.10537,-1.49528 3.79968,-3.30369 2.01232,-2.99579 3.30359,-6.55776 3.00555,-10.20486 -0.0226,-1.90845 -0.33746,-3.81164 -1.07307,-5.57739 1.51345,-3.36178 3.5078,-6.78593 3.25598,-10.58853 -0.52869,-2.76838 -3.7266,-1.01617 -5.17209,-0.0391 -1.14563,0.69995 -2.16183,1.58165 -3.12646,2.50954 -1.47201,-0.66124 -2.91353,-1.45124 -4.40414,-2.03391 -4.5623,-0.0593 -9.12831,-0.33966 -13.688179,-0.15632 -2.010498,0.005 -4.172003,2.80204 -5.827372,0.56465 -1.617147,-1.27934 -3.706198,-2.49452 -5.830247,-2.14421 -1.182887,1.63791 -0.0062,4.03806 0.268851,5.89299 0.183438,2.21295 2.293006,4.13263 1.640774,6.35742 -1.235879,3.99984 -1.330404,8.56138 0.732653,12.31609 1.139367,2.08864 2.224579,4.46124 4.26434,5.81552 1.825395,0.63822 1.178972,3.75658 3.199129,4.64138 1.517757,1.12267 3.623581,1.0138 5.234201,0.15214 z 

m -7.64828,-6.46731 c -0.111673,-2.13479 2.222436,0.76783 0.221936,0.29534 l -0.221936,-0.29531 z 

m 20.57623,0.16721 c -1.10446,-1.38757 2.00187,-1.20303 0.55375,0.003 -0.16626,0.10045 -0.38962,0.10533 -0.55375,-0.003 z 

m -19.048452,-2.23099 c -0.426992,-1.86788 2.264192,0.0924 0.28652,0.26496 l -0.28652,-0.26495 z 

m 17.269322,-0.0224 c -0.3905,-1.86804 2.28617,-0.28702 0.58663,0.32235 -0.24845,0.15149 -0.54273,-0.073 -0.58663,-0.32235 z 

m -15.710956,-2.26163 c 0.778413,-1.67995 1.802666,1.33983 0.02859,0.26815 z m 14.022916,0 c 1.32132,-2.13917 1.33297,2.08042 0,0 z 

m -12.61114,-2.00216 c -0.287291,-1.73027 1.89227,-0.1765 0.44031,0.41466 l -0.24534,-0.12181 z 

m 11.38877,0.0304 c -0.29313,-1.95877 2.24038,-0.11456 0.3572,0.36745 l -0.2012,-0.10293 -0.156,-0.26454 z 

m -10.71547,-2.46006 c -0.0233,-1.06972 0.047,-2.13886 0.0784,-3.20795 -1.715348,1.07206 -4.085853,1.61372 -5.783355,0.19799 -2.074094,-1.3933 -1.170271,-4.90309 1.576255,-3.87505 2.011461,0.0828 4.76171,0.45904 5.38793,2.75263 0.31019,1.19611 0.40654,4.79404 -1.2592,4.13238 z 

m -1.41512,-3.88911 c 2.4199,-1.53837 -2.223805,-1.92824 -3.393512,-1.71559 -2.521167,1.37965 2.319108,2.86361 3.393512,1.71559 z 

m 11.09007,2.89625 c -0.35994,-2.0123 -0.0121,-4.91083 2.31196,-5.51967 1.88563,-0.28349 3.85108,-0.5498 5.7405,-0.21393 0.88637,1.94704 -1.59217,4.69464 -3.72828,4.3316 -1.28248,0.38659 -3.67529,-2.00773 -3.09643,0.47518 0.48284,1.08135 -0.71975,3.41988 -1.15967,1.29626 z 

m 6.16549,-3.38131 c 1.80672,-1.98309 -2.78771,-1.13188 -3.88352,-0.77563 -1.07502,1.57202 2.73172,1.93798 3.67445,0.94337 l 0.20907,-0.16778 z 

m 4.12375,-6.16081 c 0.24736,-2.59626 2.44169,1.62798 0,0 z M 90.752084,137.8479 c 1.321325,-2.13917 1.332976,2.08042 0,0 z 

m 28.935946,-1.45344 c -0.13856,-2.14677 2.43212,0.47439 0.25676,0.28663 l -0.15019,-0.11194 z 

m -28.056763,-0.82222 c 0.336338,-2.22092 1.753845,1.12745 0.107672,0.19319 l -0.107672,-0.19317 z 

m 26.819383,-1.07022 c -1.12019,-2.47546 2.25181,-0.18638 0,0 z 

M 93.133334,133.35 c 0.778429,-1.67993 1.802657,1.33982 0.02859,0.26815 z 

m 13.578576,24.76682 c 0.61588,-1.00352 3.04045,-1.20545 2.96387,-2.15198 -2.23216,-0.0477 -4.48628,0.24125 -6.70232,-0.18397 0.0305,0.9096 2.7871,1.93921 3.57923,2.59602 l 0.15922,-0.26001 z" 
/>
</svg>
