<?xml version="1.0" encoding="iso-8859-1"?>
<!-- Generator: Adobe Illustrator 19.0.0, SVG Export Plug-In . SVG Version: 6.00 Build 0)  -->
<svg version="1.1" id="Layer_1" xmlns="http://www.w3.org/2000/svg" xmlns:xlink="http://www.w3.org/1999/xlink" x="0px" y="0px"
	 viewBox="0 0 512 512" style="enable-background:new 0 0 512 512;" xml:space="preserve">
<g>
	<g>
		<g>
			<path d="M476.843,12.546l-2.55-10.147l-10.35-1.536c-2.348-0.346-57.991-8.086-102.471,30.282
				c-30.782,26.553-48.026,67.779-51.414,122.708c-16.06-3.63-34.089-5.464-54.058-5.464c-19.968,0-37.997,1.834-54.057,5.463
				c-3.389-54.927-20.633-96.154-51.414-122.706C106.049-7.222,50.404,0.517,48.057,0.863l-10.35,1.536l-2.551,10.147
				c-0.378,1.503-9.167,37.316-1.328,80.36c6.819,37.442,27.703,86.974,87.417,118.166c-10.965,21.838-14.474,48.842-10.423,80.626
				c4.192,32.898,13.701,53.29,23.767,74.879c4.006,8.594,8.15,17.48,12.341,27.849c1.905,4.715,2.568,20.275,1.992,31.847
				l-0.02,0.792c0,32.464,14.84,57.172,42.913,71.451C213.725,509.662,238.813,512,256,512c17.188,0,42.276-2.339,64.185-13.482
				c28.074-14.28,42.913-38.987,42.913-71.451l-0.021-0.792c-0.573-11.315,0.106-27.177,1.993-31.847
				c4.191-10.371,8.335-19.259,12.342-27.852c10.065-21.589,19.573-41.981,23.766-74.876c4.051-31.785,0.541-58.788-10.424-80.626
				c59.714-31.192,80.598-80.725,87.417-118.166C486.01,49.863,477.222,14.049,476.843,12.546z M64.862,88.332
				C60.445,64.964,61.934,43.73,63.6,31.385c15.241,0.163,43.517,3.547,66.736,23.74c25.416,22.107,39.097,58.758,40.728,109.036
				c-12.059,5.601-22.46,12.677-31.14,21.232C98.458,165.166,73.221,132.557,64.862,88.332z M235.549,410.691
				c-8.109-8.106-12.353-16.613-12.353-20.828c0-3.764,0.645-4.034,3.043-5.044c6.835-2.876,20.258-3.208,29.761-3.208
				c9.502,0,22.925,0.332,29.76,3.208c2.398,1.009,3.043,1.281,3.043,5.044c0,4.214-4.243,12.722-12.353,20.828
				c-7.974,7.969-16.487,12.269-20.45,12.269C252.038,422.96,243.524,418.661,235.549,410.691z M370.083,287.736
				c-3.575,28.045-11.299,44.615-21.081,65.592c-4.177,8.96-8.497,18.224-12.995,29.353c-5.278,13.058-4.63,37.025-4.257,44.752
				c-0.096,20.535-8.294,34.251-25.777,43.143c-10.96,5.575-23.628,8.131-34.3,9.256v-28.654
				c12.306-4.749,22.328-13.711,26.935-18.316c6.476-6.473,21.541-23.62,21.541-42.999c0-15.853-7.896-27.905-22.232-33.937
				c-9.558-4.022-21.703-5.661-41.917-5.661c-20.216,0-32.36,1.639-41.917,5.661c-14.337,6.032-22.233,18.085-22.233,33.937
				c0,19.379,15.064,36.527,21.541,42.999c4.607,4.605,14.63,13.567,26.936,18.316v28.654c-10.672-1.124-23.34-3.681-34.3-9.256
				c-17.482-8.892-25.68-22.606-25.777-43.142c0.372-7.726,1.021-31.694-4.257-44.753c-4.497-11.127-8.817-20.391-12.994-29.349
				c-9.781-20.979-17.507-37.551-21.082-65.597c-4.252-33.36,1.386-59.123,16.755-76.576c18.362-20.85,51.107-31.422,97.328-31.422
				s78.966,10.572,97.327,31.422C368.698,228.611,374.335,254.375,370.083,287.736z M447.138,88.332
				c-8.359,44.225-33.596,76.834-75.059,97.061c-8.68-8.556-19.081-15.631-31.14-21.232c1.632-50.277,15.312-86.929,40.728-109.036
				c23.227-20.202,51.519-23.578,66.733-23.743C450.068,43.738,451.554,64.969,447.138,88.332z"/>
			<path d="M203.837,245.614c-11.34,0-20.57,9.324-20.57,20.835c0,11.511,9.229,20.843,20.57,20.843
				c11.355,0,20.582-9.332,20.582-20.843C224.419,254.938,215.193,245.614,203.837,245.614z"/>
			<path d="M308.008,245.451c-11.45,0-20.738,9.401-20.738,20.998c0,11.597,9.288,20.998,20.738,20.998
				c11.436,0,20.724-9.401,20.724-20.998C328.732,254.852,319.444,245.451,308.008,245.451z"/>
		</g>
	</g>
</g>
<g>
</g>
<g>
</g>
<g>
</g>
<g>
</g>
<g>
</g>
<g>
</g>
<g>
</g>
<g>
</g>
<g>
</g>
<g>
</g>
<g>
</g>
<g>
</g>
<g>
</g>
<g>
</g>
<g>
</g>
</svg>
