<?xml version="1.0" encoding="iso-8859-1"?>
<!-- Generator: Adobe Illustrator 19.0.0, SVG Export Plug-In . SVG Version: 6.00 Build 0)  -->
<svg version="1.1" id="Layer_1" xmlns="http://www.w3.org/2000/svg" xmlns:xlink="http://www.w3.org/1999/xlink" x="0px" y="0px"
	 viewBox="0 0 512 512" style="enable-background:new 0 0 512 512;" xml:space="preserve">
<g>
	<g>
		<g>
			<path d="M484.01,158.244l14.342-15.03l-12.221-10.782c-33.598-29.642-67.662-33.727-99.469-33.727
				c-16.283,0-32.37,3.589-47.024,10.412c-22.233-11.472-50.231-17.298-83.607-17.298c-0.021,0-0.04,0-0.056,0
				c-33.376,0-61.376,5.826-83.611,17.298c-14.655-6.823-30.742-10.412-47.025-10.412c-31.807,0-65.871,4.086-99.469,33.727
				L13.65,143.214l14.342,15.03C15.464,170.086,0,190.839,0,221.111v19.387l19.378-4.151c3.679,25.05,14.806,45.817,32.722,60.746
				c14.202,11.834,32.516,19.646,52.873,22.765c3.41,21.744,10.892,41.191,24.534,57.272C154.084,406.1,195.46,420.182,256,420.182
				s101.916-14.083,126.493-43.052c13.643-16.081,21.125-35.528,24.534-57.272c20.357-3.119,38.671-10.93,52.873-22.765
				c17.916-14.93,29.044-35.696,32.722-60.746L512,240.498v-19.387C512,190.839,496.536,170.086,484.01,158.244z M112.203,196.892
				c-5.228,31.65-9.604,62.56-9.552,90.898c-49.028-10.583-53.278-55.513-53.278-70.539v-19.387l-13.951,2.988
				c7.488-17.74,22.747-26.772,23.532-27.227l17.813-9.676l-17.114-17.934c22.576-14.558,44.722-15.965,65.686-15.965
				c5.674,0,11.311,0.612,16.814,1.791C126.647,148.568,116.587,170.364,112.203,196.892z M358.59,356.851
				c-18.26,21.522-51.816,31.983-102.59,31.983s-84.331-10.463-102.59-31.983c-27.716-32.671-20.677-91.89-10.28-154.85
				c4.198-25.4,14.253-44.007,30.741-56.884c18.65-14.566,46.269-21.951,82.105-21.951c0.013-0.001,0.033-0.001,0.051,0
				c35.828,0,63.452,7.385,82.101,21.951c16.487,12.877,26.542,31.485,30.74,56.883C379.268,264.96,386.306,324.181,358.59,356.851z
				 M462.628,197.863v19.387c0,48.362-29.806,64.786-53.278,70.216c0.018-28.25-4.346-59.045-9.554-90.576
				c-4.382-26.526-14.443-48.323-29.949-65.048c5.503-1.179,11.141-1.791,16.815-1.791c20.965,0,43.11,1.409,65.686,15.965
				l-16.92,17.731l17.619,9.878c0.209,0.117,15.915,9.133,23.54,27.229L462.628,197.863z"/>
			<path d="M209.87,210.049c0-9.303-7.455-16.835-16.631-16.835c-9.164,0-16.62,7.533-16.62,16.835
				c0,9.301,7.457,16.841,16.62,16.841C202.413,226.889,209.87,219.349,209.87,210.049z"/>
			<path d="M318.636,193.081c-9.253,0-16.757,7.596-16.757,16.967c0,9.371,7.504,16.967,16.757,16.967
				c9.241,0,16.746-7.596,16.746-16.967S327.876,193.081,318.636,193.081z"/>
			<path d="M256.013,225.164c-0.007-0.001-0.017-0.001-0.022,0c-31.057,0-50.479,16.597-54.686,46.736
				c-4.062,29.111-6.387,56.756,9.532,75.05c9.752,11.208,24.947,16.89,45.164,16.89c20.217,0,35.412-5.682,45.164-16.89
				c15.919-18.294,13.593-45.939,9.532-75.052C306.486,241.759,287.069,225.164,256.013,225.164z M277.517,326.373
				c-3.534,4.062-10.774,6.12-21.517,6.12c-10.743,0-17.983-2.06-21.517-6.12c-7.258-8.34-4.906-30.255-2.133-50.139
				c2.007-14.377,8.412-19.721,23.643-19.721c0.005,0.001,0.013,0,0.016,0c15.225,0,21.633,5.346,23.639,19.719
				C282.422,296.118,284.774,318.031,277.517,326.373z"/>
		</g>
	</g>
</g>
<g>
</g>
<g>
</g>
<g>
</g>
<g>
</g>
<g>
</g>
<g>
</g>
<g>
</g>
<g>
</g>
<g>
</g>
<g>
</g>
<g>
</g>
<g>
</g>
<g>
</g>
<g>
</g>
<g>
</g>
</svg>
