<?xml version="1.0" encoding="iso-8859-1"?>
<!-- Generator: Adobe Illustrator 16.0.0, SVG Export Plug-In . SVG Version: 6.00 Build 0)  -->
<!DOCTYPE svg PUBLIC "-//W3C//DTD SVG 1.1//EN" "http://www.w3.org/Graphics/SVG/1.1/DTD/svg11.dtd">
<svg version="1.1" id="Capa_1" xmlns="http://www.w3.org/2000/svg" xmlns:xlink="http://www.w3.org/1999/xlink" x="0px" y="0px"
	 width="414.481px" height="414.481px" viewBox="0 0 414.481 414.481" style="enable-background:new 0 0 414.481 414.481;"
	 xml:space="preserve">

	<path d="
M 0,0
M 420,0
M407.655,202.306c-14.938-26.545-38.188-45.074-58.214-54.244c2.452-6.104,3.67-12.668,3.526-19.348
		c-0.282-13.296-5.824-25.716-15.604-34.971c-7.924-7.499-17.915-12.232-28.678-13.689c-8.06-18.003-26.277-29.931-47.115-29.931
		c-0.381,0-0.761,0.004-1.144,0.012c-4.281,0.091-8.461,0.682-12.509,1.765c-9.825-11.726-24.643-18.587-40.678-18.329
		c-16.04-0.266-30.854,6.604-40.678,18.329c-4.048-1.083-8.228-1.674-12.509-1.765C132.726,49.683,114,61.723,105.794,80.053
		C95.031,81.51,85.04,86.244,77.116,93.742c-9.779,9.254-15.321,21.674-15.604,34.971c-0.143,6.681,1.075,13.245,3.527,19.349
		c-20.026,9.171-43.275,27.7-58.214,54.244c-9.103,16.175-9.099,36.689,0.009,52.266c6.893,11.788,17.922,18.549,30.261,18.549
		c16.213,0,38.527-11.209,60.489-58.479c5.092,24.686,11.302,47.687,18.369,67.885c22.843,65.288,53.557,98.392,91.286,98.392
		c37.719,0,68.426-33.088,91.269-98.347c5.356-15.303,12.211-37.997,18.389-67.931c21.961,47.269,44.274,58.478,60.487,58.479
		c0,0,0.002,0,0.005,0c12.338,0,23.366-6.76,30.26-18.545C416.757,238.999,416.76,218.482,407.655,202.306z M58.29,233.467
		c-7.597,9.685-15.321,15.238-21.193,15.238c-4.471,0-7.462-3.512-9.185-6.458c-3.815-6.525-5.383-18.062,0.192-27.967
		c16.423-29.183,43.58-44.58,57.827-47.809l4.427-1.003C80.532,195.99,69.743,218.865,58.29,233.467z M312.913,156.813h-0.469
		c-3.899,0-10.854,2.311-12.179,10.973c-0.064,0.425-0.156,1.056-0.275,1.877c-7.14,49.14-17.277,84.136-24.524,104.841
		c-13.094,37.407-35.56,81.998-68.225,81.998c-32.678,0-55.146-44.614-68.241-82.04c-7.247-20.712-17.382-55.71-24.509-104.819
		c-0.118-0.814-0.209-1.439-0.273-1.86c-1.324-8.66-8.277-10.97-12.178-10.97h-0.47l-9.216-10.36
		c-4.281-4.813-6.565-10.928-6.431-17.22c0.296-13.92,12.421-25.245,27.028-25.245c0.207,0,0.416,0.002,0.567,0.005l10.71,0.41
		l2.302-9.78c2.739-11.638,13.834-20.085,26.381-20.085c0.206,0,0.415,0.002,0.623,0.006c4.299,0.092,8.398,1.117,12.184,3.049
		l10.797,5.509l5.586-10.757c4.693-9.039,14.252-14.592,24.88-14.36l0.26,0.006l0.26-0.006c10.569-0.233,20.188,5.321,24.88,14.361
		l5.586,10.756l10.797-5.509c3.785-1.932,7.886-2.957,12.185-3.049c0.209-0.004,0.416-0.006,0.623-0.006
		c12.547,0,23.642,8.447,26.381,20.085l2.302,9.78l10.04-0.378l0.614-0.031c0.208-0.004,0.415-0.006,0.623-0.006
		c14.607,0,26.732,11.325,27.028,25.246c0.135,6.291-2.149,12.406-6.433,17.219L312.913,156.813z M386.573,242.25
		c-1.722,2.945-4.713,6.455-9.184,6.455c-0.001,0-0.001,0-0.001,0c-5.873-0.001-13.599-5.556-21.195-15.242
		c-11.452-14.6-22.24-37.473-32.066-67.994l4.424,1.003c14.248,3.229,41.405,18.625,57.827,47.809
		C391.955,224.189,390.389,235.725,386.573,242.25z

M 148,190 c 0,12 12,20 20,20 c 12,0 20,-12 20,-20 c 0,-12 -12,-20 -20,-20 c -12,0 -20,12 -20,20 z

M 225,190 c 0,12 12,20 20,20 c 12,0 20,-12 20,-20 c 0,-12 -12,-20 -20,-20 c -12,0 -20,12 -20,20 z

"/>

</svg>
