<?xml version="1.0" encoding="UTF-8" standalone="no"?>
<svg
   xmlns:dc="http://purl.org/dc/elements/1.1/"
   xmlns:cc="http://creativecommons.org/ns#"
   xmlns:rdf="http://www.w3.org/1999/02/22-rdf-syntax-ns#"
   xmlns:svg="http://www.w3.org/2000/svg"
   xmlns="http://www.w3.org/2000/svg"
   xmlns:sodipodi="http://sodipodi.sourceforge.net/DTD/sodipodi-0.dtd"
   xmlns:inkscape="http://www.inkscape.org/namespaces/inkscape"
   inkscape:version="1.0beta2 (2b71d25, 2019-12-03)"
   sodipodi:docname="leopard-2.svg"
   xml:space="preserve"
   style="enable-background:new 0 0 512 512;"
   viewBox="0 0 512 512"
   y="0px"
   x="0px"
   id="Layer_1"
   version="1.1"><metadata
   id="metadata75"><rdf:RDF><cc:Work
       rdf:about=""><dc:format>image/svg+xml</dc:format><dc:type
         rdf:resource="http://purl.org/dc/dcmitype/StillImage" /></cc:Work></rdf:RDF></metadata><defs
   id="defs73" /><sodipodi:namedview
   inkscape:current-layer="Layer_1"
   inkscape:window-maximized="0"
   inkscape:window-y="23"
   inkscape:window-x="0"
   inkscape:cy="256"
   inkscape:cx="256"
   inkscape:zoom="2.0371094"
   showgrid="false"
   id="namedview71"
   inkscape:window-height="480"
   inkscape:window-width="790"
   inkscape:pageshadow="2"
   inkscape:pageopacity="0"
   guidetolerance="10"
   gridtolerance="10"
   objecttolerance="10"
   borderopacity="1"
   inkscape:document-rotation="0"
   bordercolor="#666666"
   pagecolor="#ffffff" />
<path
     
     d="M 172.522,217.032 c 0,9.22095 -7.47505,16.696 -16.696,16.696 -9.22095,0 -16.696,-7.47505 -16.696,-16.696 0,-9.22095 7.47505,-16.696 16.696,-16.696 9.22095,0 16.696,7.47505 16.696,16.696M 155.82617 199.83594 C 146.33501 199.83594 138.63086 207.54008 138.63086 217.03125 C 138.63086 226.52242 146.33501 234.22852 155.82617 234.22852 C 165.31734 234.22852 173.02148 226.52242 173.02148 217.03125 C 173.02148 207.54008 165.31734 199.83594 155.82617 199.83594 z M 155.82617 200.83594 C 164.7769 200.83594 172.02148 208.08052 172.02148 217.03125 C 172.02148 225.98198 164.7769 233.22852 155.82617 233.22852 C 146.87545 233.22852 139.63086 225.98198 139.63086 217.03125 C 139.63086 208.08052 146.87545 200.83594 155.82617 200.83594 z 
M 205.925,100.166 c 0,9.22095 -7.47505,16.696 -16.696,16.696 -9.22095,0 -16.696,-7.47505 -16.696,-16.696 0,-9.220946 7.47505,-16.696 16.696,-16.695999 9.22095,0 16.696,7.475053 16.696,16.695999M 189.22852 82.970703 C 179.73735 82.970703 172.0332 90.67485 172.0332 100.16602 C 172.0332 109.65718 179.73735 117.36133 189.22852 117.36133 C 198.71968 117.36133 206.42578 109.65718 206.42578 100.16602 C 206.42578 90.67485 198.71968 82.970703 189.22852 82.970703 z M 189.22852 83.970703 C 198.17924 83.970703 205.42578 91.21529 205.42578 100.16602 C 205.42578 109.11674 198.17924 116.36133 189.22852 116.36133 C 180.27779 116.36133 173.0332 109.11674 173.0332 100.16602 C 173.0332 91.21529 180.27779 83.970703 189.22852 83.970703 z 
M 339.49001,100.185 c 0,9.22095 -7.47505,16.696 -16.696,16.696 -9.22095,0 -16.696,-7.47505 -16.696,-16.696 0,-9.220947 7.47505,-16.696003 16.696,-16.696002 9.22095,0 16.696,7.475055 16.696,16.696002
M 322.79492 82.988281 C 313.30375 82.988281 305.59765 90.69438 305.59766 100.18555 C 305.59766 109.67671 313.30376 117.38086 322.79492 117.38086 C 332.28609 117.38086 339.99023 109.67671 339.99023 100.18555 C 339.99024 90.69438 332.28609 82.988281 322.79492 82.988281 z M 322.79492 83.988281 C 331.74565 83.988281 338.99024 91.23482 338.99023 100.18555 C 338.99023 109.13627 331.74565 116.38086 322.79492 116.38086 C 313.8442 116.38086 306.59766 109.13627 306.59766 100.18555 C 306.59765 91.23482 313.84419 83.988281 322.79492 83.988281 z
M 372.87001,217.05499 c 0,9.22095 -7.47505,16.696 -16.696,16.696 -9.22095,0 -16.696,-7.47505 -16.696,-16.696 0,-9.22095 7.47505,-16.696 16.696,-16.696 9.22095,0 16.696,7.47505 16.696,16.696
M 356.17383 199.85938 C 346.68266 199.85937 338.97852 207.56352 338.97852 217.05469 C 338.97852 226.54585 346.68266 234.25195 356.17383 234.25195 C 365.66499 234.25195 373.36914 226.54585 373.36914 217.05469 C 373.36914 207.56352 365.66499 199.85937 356.17383 199.85938 z M 356.17383 200.85938 C 365.12455 200.85937 372.36914 208.10396 372.36914 217.05469 C 372.36914 226.00541 365.12455 233.25195 356.17383 233.25195 C 347.2231 233.25195 339.97852 226.00541 339.97852 217.05469 C 339.97852 208.10396 347.2231 200.85937 356.17383 200.85938 z 
M 506.435,83.478 C 506.435,37.448 468.986,0 422.957,0 399.835,0 378.167,9.448 362.561,25.834 329.186,9.11 292.425,0.004 256.027,0 h -0.026 C 219.596,0 182.823,9.106 149.44,25.834 133.835,9.447 112.167,0 89.044,0 43.014,0 5.565,37.448 5.565,83.478 c 0,24.844 11.139,48.205 29.802,63.914 -8.609,22.259 -13.102,45.705 -13.105,69.622 -0.011,90.469 70.618,187.857 150.26,229.954 v 14.945 c 0,27.618 22.469,50.087 50.087,50.087 h 66.783 c 27.618,0 50.087,-22.469 50.087,-50.087 V 446.96 C 418.74,405.054 489.73,307.847 489.741,217.071 c 0.002,-23.936 -4.492,-47.402 -13.108,-69.678 18.661,-15.709 29.802,-39.071 29.802,-63.915 z m -467.478,0 c 0,-27.618 22.469,-50.087 50.087,-50.087 11.157,0 21.739,3.686 30.333,10.239 -8.546,5.898 -16.75,12.333 -24.518,19.297 C 77.05,78.893 62.296,96.708 50.836,115.81 43.304,106.89 38.957,95.478 38.957,83.478 Z m 16.902,141.254 c 43.695,-15.964 47.961,-26.528 64.557,-43.123 19.532,-19.527 51.307,-19.521 70.834,0.009 9.196,9.199 14.685,24.52 14.683,40.984 -0.001,16.463 -5.495,31.784 -14.693,40.98 -21.901,21.896 -67.432,54.56 -72.508,97.665 C 84.306,322.46 58.399,272.826 55.859,224.732 Z m 250.228,237.181 c 0,9.206 -7.49,16.696 -16.696,16.696 h -66.783 c -9.206,0 -16.696,-7.49 -16.696,-16.696 v -15.144 c 9.219,-2.29 18.997,-5.925 29.558,-9.856 6.133,-2.284 12.928,-4.813 20.297,-7.361 7.388,2.552 14.202,5.087 20.35,7.375 10.72,3.988 20.629,7.669 29.969,9.95 v 15.036 z m 53.824,-91.733 c -0.446,13.687 -10.006,28.063 -28.413,42.73 -4.628,3.685 -7.355,2.286 -10.949,2.768 -6.843,-0.639 -16.703,-4.064 -32.784,-10.047 -4.654,-1.732 -9.685,-3.602 -15.087,-5.53 l 0.002,-14.748 28.505,-28.498 c 6.52,-6.519 6.521,-17.091 0.003,-23.612 -6.52,-6.519 -17.091,-6.522 -23.612,-0.003 l -21.589,21.584 -21.583,-21.589 c -6.519,-6.519 -17.09,-6.522 -23.612,-0.003 -6.52,6.519 -6.521,17.091 -0.003,23.612 l 28.498,28.505 -0.002,14.602 c -5.549,1.978 -10.702,3.896 -15.465,5.669 -15.577,5.8 -25.317,9.195 -32.134,9.986 -1.704,-0.253 -7.457,-0.275 -9.388,-1.371 -5.133,-2.913 -29.933,-22.472 -30.638,-44.054 -0.994,-30.472 41.196,-61.001 63.189,-82.983 15.553,-15.549 24.474,-39.091 24.476,-64.591 0.003,-25.5 -8.913,-49.044 -24.462,-64.597 -15.777,-15.781 -36.739,-24.472 -59.025,-24.475 h -0.01 c -22.282,0 -43.244,8.687 -59.02,24.461 -13.852,13.852 -16.122,20.248 -38.403,29.876 7.322,-38.769 28.682,-73.13 58.744,-100.083 C 155.709,53.217 206.315,33.39 256,33.39 h 0.022 c 49.692,0.006 100.304,19.846 138.863,54.431 30.166,27.058 51.497,61.589 58.749,100.251 -22.727,-9.742 -24.946,-16.152 -38.871,-30.078 -32.55,-32.541 -85.51,-32.535 -118.057,0.014 -32.593,32.604 -32.585,96.593 0.016,129.188 22.021,22.011 64.185,52.517 63.189,82.984 z m 32.971,-8.497 c -4.821,-43.321 -50.577,-76.13 -72.554,-98.101 -19.536,-19.531 -19.541,-62.427 -0.01,-81.965 19.527,-19.531 51.303,-19.536 70.835,-0.009 16.632,16.632 20.87,27.215 64.982,43.276 -2.591,48.227 -28.665,97.989 -63.253,136.799 z m 68.28,-245.871 C 449.711,96.723 434.97,78.921 417.182,62.965 c -7.78,-6.979 -15.998,-13.424 -24.557,-19.334 8.593,-6.552 19.174,-10.24 30.332,-10.24 27.618,0 50.087,22.469 50.087,50.087 0,12 -4.349,23.413 -11.882,32.334 z
M 89.044922 -0.5 C 42.743736 -0.5 5.0644531 37.177323 5.0644531 83.478516 C 5.0644531 108.35325 16.176989 131.73639 34.791016 147.53711 C 26.241536 169.75577 21.764712 193.14944 21.761719 217.01367 C 21.7507 307.64068 92.316316 404.99018 172.02148 447.25586 L 172.02148 461.91211 C 172.02148 489.8013 194.72019 512.5 222.60938 512.5 L 289.39258 512.5 C 317.28177 512.5 339.97852 489.8013 339.97852 461.91211 L 339.97852 447.25 C 419.30497 405.17556 490.22922 308.00479 490.24023 217.07031 C 490.24223 193.18644 485.76588 169.77334 477.20898 147.53711 C 495.82104 131.73639 506.93555 108.35328 506.93555 83.478516 C 506.93555 37.177323 469.25722 -0.5 422.95703 -0.5 C 399.8241 -0.5 378.14473 8.9160923 362.46484 25.236328 C 329.10764 8.579991 292.3935 -0.4960035 256.02734 -0.5 L 256.00195 -0.5 C 219.62878 -0.5 182.90235 8.5760027 149.53711 25.236328 C 133.85819 8.9150662 112.17885 -0.5 89.044922 -0.5 z M 89.044922 0.5 C 112.03174 0.5 133.56635 9.8905797 149.07812 26.179688 L 149.33398 26.447266 L 149.66406 26.28125 C 182.98056 9.5865762 219.68033 0.5 256.00195 0.5 L 256.02734 0.5 C 292.34199 0.50399084 329.02937 9.5905627 362.33789 26.28125 L 362.66797 26.447266 L 362.92383 26.179688 C 378.43662 9.8915522 399.97124 0.5 422.95703 0.5 C 468.71484 0.5 505.93555 37.719708 505.93555 83.478516 C 505.93555 108.17304 494.85971 131.39491 476.31055 147.00977 L 476.03711 147.24023 L 476.16602 147.57422 C 484.7605 169.79459 489.24223 193.19692 489.24023 217.07031 C 489.22927 307.58568 418.3337 404.70325 339.24609 446.51758 L 338.97852 446.6582 L 338.97852 461.91211 C 338.97852 489.25892 316.73939 511.5 289.39258 511.5 L 222.60938 511.5 C 195.26256 511.5 173.02148 489.25892 173.02148 461.91211 L 173.02148 446.66602 L 172.75586 446.52539 C 93.287551 404.5202 22.75075 307.2224 22.761719 217.01367 C 22.764711 193.15925 27.246483 169.77568 35.833984 147.57227 L 35.962891 147.24023 L 35.689453 147.00977 C 17.138305 131.39491 6.0644531 108.17306 6.0644531 83.478516 C 6.0644531 37.719708 43.286107 0.5 89.044922 0.5 z M 89.044922 32.890625 C 61.155734 32.890625 38.457031 55.589328 38.457031 83.478516 C 38.457031 95.599266 42.846684 107.12465 50.453125 116.13281 L 50.904297 116.66602 L 51.265625 116.06641 C 62.698783 97.009147 77.419807 79.233049 95.193359 63.298828 C 102.94506 56.349436 111.13097 49.927415 119.66016 44.041016 L 120.22852 43.650391 L 119.67969 43.232422 C 111.00021 36.614242 100.31205 32.890625 89.044922 32.890625 z M 256 32.890625 C 206.18198 32.890625 155.4656 52.762294 116.81445 87.416016 C 86.68284 114.43143 65.258973 148.88899 57.914062 187.7793 L 57.738281 188.70508 L 58.603516 188.33008 C 80.947181 178.675 83.345213 172.16651 97.162109 158.34961 C 112.84641 142.66729 133.67608 134.03516 155.82812 134.03516 L 155.83789 134.03516 C 177.99394 134.03814 198.82443 142.67397 214.50977 158.36328 C 229.94796 173.80544 238.82721 197.22401 238.82422 222.60742 C 238.82223 247.99083 229.93824 271.40557 214.49609 286.84375 C 203.5308 297.80356 187.47308 310.94133 174.26758 325.16602 C 161.06208 339.3907 150.65546 354.72544 151.16016 370.19727 C 151.51874 381.17455 157.97116 391.53901 164.94141 399.53711 C 171.91165 407.5352 179.36712 413.14693 182.05078 414.66992 C 183.20041 415.32243 185.12075 415.55861 187.03125 415.73438 C 188.94175 415.91014 190.84006 415.98481 191.61328 416.09961 L 191.67773 416.10938 L 191.74414 416.10352 C 198.66969 415.29992 208.41306 411.88941 223.99414 406.08789 C 228.75713 404.31489 233.9082 402.39842 239.45312 400.42188 L 239.78516 400.30273 L 239.78711 385.14258 L 211.14258 356.49023 C 204.81562 350.16036 204.8176 339.91385 211.14648 333.58594 C 217.47746 327.25906 227.7232 327.2603 234.05078 333.58789 L 255.98633 355.53125 L 277.92969 333.59375 C 284.25956 327.26582 294.50502 327.26771 300.83398 333.5957 C 307.16095 339.92558 307.16091 350.17404 300.83203 356.50195 L 272.17969 385.14648 L 272.17773 400.45312 L 272.50977 400.57227 C 277.90793 402.4989 282.93598 404.36766 287.58984 406.09961 C 303.675 412.08416 313.53854 415.52554 320.50195 416.17578 L 320.55859 416.18164 L 320.61523 416.17383 C 322.33256 415.94351 323.90162 416.17076 325.68555 415.99219 C 327.46947 415.81361 329.43304 415.1923 331.80859 413.30078 L 331.81055 413.30078 C 350.27524 398.58781 359.95613 384.10474 360.41016 370.19727 C 360.91586 354.72803 350.51671 339.39967 337.31445 325.17773 C 324.1122 310.9558 308.05551 297.81615 297.07617 286.8418 C 280.89135 270.65995 272.76861 246.6401 272.76562 222.60547 C 272.76264 198.57084 280.87969 174.54765 297.06055 158.36133 C 329.4159 126.00511 382.0523 125.99874 414.41016 158.34766 C 428.29969 172.23819 430.64833 178.7626 453.4375 188.53125 L 454.29883 188.90039 L 454.125 187.98047 C 446.85019 149.19688 425.45494 114.57018 395.21875 87.449219 C 356.56861 52.782472 305.84653 32.896641 256.02148 32.890625 L 256 32.890625 z M 422.95703 32.890625 C 411.68886 32.890625 401.0007 36.615279 392.32227 43.232422 L 391.77344 43.650391 L 392.3418 44.042969 C 400.88408 49.941424 409.08404 56.373585 416.84766 63.337891 C 434.60026 79.26214 449.30825 97.02409 460.73242 116.06836 L 461.09375 116.66797 L 461.54492 116.13477 C 469.15236 107.12562 473.54391 95.599267 473.54492 83.478516 C 473.54492 55.589328 450.84622 32.890625 422.95703 32.890625 z M 89.044922 33.890625 C 99.855459 33.890625 110.08987 37.428426 118.49805 43.658203 C 110.15399 49.452693 102.12525 55.741422 94.525391 62.554688 C 76.879901 78.374098 62.251815 96.01915 50.820312 114.92383 C 43.63585 106.17263 39.457031 95.120308 39.457031 83.478516 C 39.457031 56.131703 61.69811 33.890625 89.044922 33.890625 z M 256 33.890625 L 256.02148 33.890625 C 305.58044 33.896609 356.08292 53.690106 394.55078 88.193359 C 424.38932 114.95764 445.50715 149.04833 452.91211 187.18945 C 431.1945 177.72011 428.86679 171.39121 415.11719 157.64062 C 382.37539 124.90788 329.0903 124.91355 296.35156 157.6543 C 279.93942 174.07198 271.76261 198.34585 271.76562 222.60547 C 271.76864 246.86509 279.95296 271.13567 296.36914 287.54883 C 307.41081 298.58548 323.44604 311.70686 336.58203 325.85742 C 349.71803 340.00798 359.9024 355.16629 359.41211 370.16406 C 358.97331 383.63 349.534 397.89918 331.18555 412.51953 C 328.93389 414.312 327.22063 414.83441 325.58594 414.99805 C 323.98403 415.1584 322.41335 414.94997 320.58594 415.17773 C 313.86354 414.54785 304.00936 411.14098 287.93945 405.16211 C 283.38764 403.46814 278.4487 401.63635 273.17773 399.75195 L 273.17969 385.56055 L 301.53906 357.20898 C 308.25018 350.4989 308.25005 339.6008 301.54102 332.88867 C 294.82998 326.17867 283.93478 326.17665 277.22266 332.88672 L 255.98633 354.11719 L 234.75781 332.88086 C 228.04776 326.17081 217.15257 326.16888 210.43945 332.87891 L 210.4375 332.87891 C 203.72638 339.589 203.72651 350.48514 210.43555 357.19727 L 238.78711 385.55664 L 238.78516 399.60156 C 233.36788 401.53598 228.30733 403.41737 223.64648 405.15234 C 208.09512 410.9428 198.3677 414.31899 191.66016 415.10352 C 190.71192 414.97141 188.95753 414.90706 187.12305 414.73828 C 185.24829 414.5658 183.32629 414.24427 182.54492 413.80078 C 180.09558 412.41077 172.58456 406.78601 165.69531 398.88086 C 158.80606 390.9757 152.50657 380.76878 152.16016 370.16406 C 151.67085 355.16389 161.86075 339.99902 175 325.8457 C 188.13925 311.69238 204.17541 298.57298 215.20312 287.55078 C 230.86697 271.89096 239.82221 248.22401 239.82422 222.60742 C 239.82723 196.99084 230.87661 173.32009 215.2168 157.65625 C 199.34813 141.78356 178.25384 133.03817 155.83789 133.03516 L 155.82812 133.03516 C 133.41617 133.03516 112.32277 141.77689 96.455078 157.64258 C 82.782612 171.31504 80.400328 177.63027 59.128906 186.98438 C 66.603135 148.74316 87.747433 114.82192 117.48242 88.162109 C 155.95127 53.671831 206.44802 33.890625 256 33.890625 z M 422.95703 33.890625 C 450.30384 33.890625 472.54492 56.131703 472.54492 83.478516 C 472.54395 95.120307 468.36318 106.17359 461.17773 114.92578 C 449.75527 96.034148 435.14015 78.403112 417.51562 62.59375 C 409.90365 55.765479 401.86098 49.464462 393.50391 43.658203 C 401.91101 37.429607 412.1459 33.890625 422.95703 33.890625 z M 355.73438 166.46875 C 342.77916 166.47052 329.82421 171.40229 319.96484 181.26367 C 310.06998 191.16208 305.17194 206.88964 305.17383 222.60156 C 305.17572 238.31348 310.07719 254.04066 319.97461 263.93555 C 342.021 285.97592 387.59916 318.73533 392.38477 361.73828 L 392.50977 362.85352 L 393.25586 362.01562 C 427.90206 323.14032 454.03511 273.2982 456.63477 224.91016 L 456.6543 224.54102 L 456.30664 224.41406 C 412.25132 208.3737 408.18282 197.93087 391.50586 181.25391 C 381.64397 171.39454 368.68959 166.46698 355.73438 166.46875 z M 155.83398 166.4707 C 142.87903 166.46881 129.92439 171.39649 120.0625 181.25586 C 103.42177 197.89559 99.325572 208.31852 55.6875 224.26172 L 55.339844 224.38867 L 55.359375 224.75781 C 57.907863 273.01253 83.873517 322.72588 118.35742 361.57812 L 119.09766 362.41211 L 119.22852 361.30469 C 124.26733 318.51545 169.62354 285.90074 191.59375 263.93555 C 200.91772 254.61361 206.43259 239.17578 206.43359 222.60156 C 206.43561 206.02639 200.92543 190.58863 191.60352 181.26367 C 181.74416 171.4028 168.78894 166.47259 155.83398 166.4707 z M 355.73438 167.46289 C 368.43191 167.46116 381.12872 172.2933 390.79883 181.96094 C 407.33554 198.49765 411.81087 209.21236 455.60547 225.21289 C 452.93294 272.84026 427.28466 321.99707 393.19141 360.5293 C 387.68731 317.44401 342.40266 284.94361 320.68164 263.22852 C 311.04306 253.5924 306.17569 238.10489 306.17383 222.60156 C 306.17197 207.09823 311.03574 191.61029 320.67188 181.9707 C 330.33951 172.30109 343.03684 167.46462 355.73438 167.46289 z M 155.83398 167.46484 C 168.53128 167.4667 181.22884 172.30158 190.89648 181.9707 C 199.96657 191.04374 205.43558 206.24873 205.43359 222.60156 C 205.4326 238.95334 199.95875 254.15845 190.88672 263.22852 C 169.2401 284.87019 124.17766 317.22921 118.42969 360.10156 C 84.494681 321.59296 59.008722 272.5583 56.386719 225.06055 C 99.768716 209.15605 104.26845 198.46298 120.76953 181.96289 C 130.43964 172.29526 143.13669 167.46298 155.83398 167.46484 z M 255.76758 429.02344 L 255.60352 429.08008 C 248.22766 431.63045 241.42799 434.16129 235.29492 436.44531 C 224.73404 440.37627 214.97015 444.00311 205.79102 446.2832 L 205.41211 446.37891 L 205.41211 461.91211 C 205.41211 471.38931 213.13022 479.10937 222.60742 479.10938 L 289.39062 479.10938 C 298.86782 479.10938 306.58789 471.38931 306.58789 461.91211 L 306.58789 461.41211 L 306.58594 461.41211 L 306.58594 446.48438 L 306.20508 446.39062 C 296.90634 444.1197 287.01088 440.44693 276.29102 436.45898 C 270.14298 434.17097 263.32459 431.63446 255.92969 429.08008 L 255.76758 429.02344 z M 255.76758 430.08398 C 263.0801 432.61279 269.8449 435.12692 275.94336 437.39648 C 286.52289 441.33223 296.31365 444.953 305.58594 447.25 L 305.58594 461.93164 C 305.57508 470.85725 298.31874 478.10937 289.39062 478.10938 L 222.60742 478.10938 C 213.67262 478.10938 206.41211 470.84691 206.41211 461.91211 L 206.41211 447.13867 C 215.56235 444.83434 225.22325 441.25985 235.64453 437.38086 C 241.72847 435.11513 248.47331 432.60898 255.76758 430.08398 z" />
</svg>
