<?xml version="1.0" encoding="utf-8"?>
<!-- Svg Vector Icons : http://www.onlinewebfonts.com/icon -->
<!DOCTYPE svg PUBLIC "-//W3C//DTD SVG 1.1//EN" "http://www.w3.org/Graphics/SVG/1.1/DTD/svg11.dtd">
<svg version="1.1" xmlns="http://www.w3.org/2000/svg" xmlns:xlink="http://www.w3.org/1999/xlink" x="0px" y="0px" viewBox="0 0 1000 1000" enable-background="new 0 0 1000 1000" xml:space="preserve">
<metadata> Svg Vector Icons : http://www.onlinewebfonts.com/icon </metadata>

<path d="

M610.8,468c21.1-2.5,36.5-18.1,34.5-34.7c-1-8.3-6.2-15.3-13.7-19.9c20.4-19.9,30.4-29.5,30.4-29.5h-65.8c-24.2,0-43.8,19.6-43.8,43.8v64.2c10.8-10.8,20.7-20.7,29.9-29.8C589.9,466.9,600.1,469.3,610.8,468z

M354.6,433.2c-2,16.6,13.5,32.2,34.5,34.7c10.8,1.3,21-1.1,28.6-5.9c9.2,9.1,19.1,19,29.9,29.8v-64.2c0-24.2-19.6-43.8-43.8-43.8H338c0,0,10,9.5,30.4,29.5C360.8,417.9,355.6,424.9,354.6,433.2z

M104.3,267.9c-25.8,57.7-36.8,125.6-32.6,201.6l1.5,27.4l36.8-8.8c0,22.6,1.5,55.6,8.2,93.1c7.2,40.7,19.1,78.4,35.1,112.1c20.3,42.7,47.6,79.1,80.9,108.1l21.9,19l12.6-24.1c10.8,15.5,25.4,35.1,43.5,56.1c38.6,44.6,101,104.2,179.8,134.5l8.2,3.1l8.2-3.1c78.7-30.2,141.2-89.8,179.7-134.5c18.1-21,32.7-40.5,43.5-56.1l12.6,24.1l21.9-19c33.3-29,60.6-65.4,80.9-108.1c16.1-33.7,27.9-71.5,35.1-112.1c6.7-37.6,8.2-70.5,8.2-93.1l36.8,8.8l1.5-27.4c4.2-76-6.8-143.9-32.6-201.6c-20.9-46.8-51.4-86.9-90.7-119.2c-27.9-23-56.1-38.7-79.8-49.2l64.9-28.7L753.6,48c-40.3-25.2-90.1-38-148.2-38c-49.1,0-89.9,9.3-105.5,13.4C484.5,19.3,443.6,10,394.6,10c-58.1,0-107.9,12.8-148.2,38l-36.5,22.8l64.9,28.7c-23.6,10.5-51.9,26.2-79.7,49.2C155.7,181,125.2,221.2,104.3,267.9z 

M116.5,439.5c-0.1-33.1,3.2-64.1,9.7-92.9c27.8-1,51.2,5.8,69.9,20.1c14.2,10.9,21.5,23.3,23.7,27.6c-6.9,32.7-7.2,57.1-7.2,59.4l0,8.9l26.3,28.8c-4.7,1.4-9.5,3.1-14.5,5.2c-19.6,8.2-43.8,23.2-65,50.7c-6-49.6-2.7-85.9-2.6-86.3l3.2-32L116.5,439.5z 

M330.8,282.3c39.8-32.4,95.2-41.8,164.8-28l4.4,0.9l4.4-0.9c69.5-13.8,124.9-4.4,164.8,28c59.4,48.3,70.1,135.6,72,163.1l-78.2,85.9c-16.5-26.3-33.3-43.4-34.7-44.8L596,518.7c0.1,0.1,14.7,15,28.6,37.2c12.6,20,27.2,50.3,25.7,80.8c-1.1,22.2-10.4,41.7-28.4,59.4l-10.9-4l0,0L507.6,654c1.9-15,6.2-33.3,15.7-40.1c17.3-12.2,46.7-31.5,0-34.5c0,0-11.2,6.1-23.4,6.1c-12.2,0-23.3-6.1-23.3-6.1c-46.7,3-17.3,22.3,0,34.5c9.6,6.8,13.8,25.1,15.7,40.1L389,692.1l0,0l-10.9,4c-17.9-17.6-27.2-37.1-28.4-59.2c-3.1-59.4,53.7-117.7,54.3-118.2l-16.2-16.1l16.2,16.1l-32.4-32.2c-1.4,1.4-18.2,18.5-34.7,44.8l-78.2-85.9C260.7,417.9,271.5,330.6,330.8,282.3z 

M571.6,755.4c-0.6,0.3-1.5,0.7-3.6,0.7l0,0c-5.2,0-13.1-2.2-21.5-4.6c-12.7-3.6-28.6-8.1-46.5-8.1c-17.9,0-33.8,4.5-46.5,8.1c-8.4,2.4-16.2,4.6-21.5,4.6c-2.2,0-3.1-0.4-3.6-0.7c-2.4-3.4-2.9-15.7-0.8-28.8l72.5-26.7l72.5,26.7C574.4,739,574.2,751.7,571.6,755.4z 

M805.2,674.3c-13,27.2-29.2,51.3-48.2,72.1L734.3,703l-20.7,36.7c-0.2,0.4-22.2,39.1-60.9,83.7c-33.6,38.8-86.9,90-152.7,117.6c-65.8-27.7-119.1-78.8-152.7-117.6c-38.6-44.6-60.6-83.3-60.9-83.7l-20.7-36.8l-22.7,43.5c-19.1-20.7-35.2-44.9-48.3-72.1c-8.7-18.2-16-37.7-21.9-58.5c28.8-72.8,81-83.6,101.9-85L315,575c-7.4,19.7-12,41.4-10.9,64c1.9,38.9,20.3,72.8,54.5,100.9l10.1,8.3l11.8-4.4c0.4,18.1,5.3,37.7,21.7,49c8.6,5.9,18.6,8.9,29.7,8.9c11.6,0,22.9-3.2,33.9-6.3c11.1-3.1,22.5-6.4,34.1-6.4c11.6,0,23,3.2,34.1,6.4c11,3.1,22.4,6.3,33.9,6.3l0,0c11.1,0,21.1-3,29.7-8.9c16.5-11.3,21.4-30.8,21.7-49l11.8,4.4l10.1-8.3c34.2-28.1,52.6-62.1,54.5-100.9c1.1-22.5-3.5-44.3-10.9-64l40.1-44.1c7.7,0.5,19.7,2.3,33,7.8c30.6,12.7,53.8,38.7,68.9,77.1C821.2,636.6,813.9,656.2,805.2,674.3z 

M840.3,429.2l3.1,31.9c0,0.4,3.4,36.7-2.6,86.3c-21.2-27.5-45.4-42.6-65-50.7c-5-2.1-9.9-3.8-14.5-5.2l26.3-28.8l0-8.9c0-2.3-0.3-26.7-7.2-59.4c4.2-8.3,28.5-49.6,93.7-47.6c6.5,28.8,9.8,59.8,9.7,92.9L840.3,429.2z 

M854,286.6c2.1,4.8,4.1,9.6,6,14.5c-40.6,2-68.7,17.1-86.4,31.3c-3.4,2.7-6.5,5.5-9.4,8.3c-13.1-33-33.7-67.3-65.9-93.7c-1-0.8-2-1.6-2.9-2.3c4.9-18.8,20.5-51.8,70.1-69.1c3.5,2.6,7,5.4,10.5,8.3C809.8,211.8,836,246.3,854,286.6z 

M314.1,66.9c23.9-7.5,50.8-11.3,80.5-11.3c54.4,0,98.4,13.1,98.8,13.2l6.7,2l6.6-2c0.4-0.1,44.4-13.2,98.8-13.2c29.7,0,56.6,3.8,80.5,11.3l-100.1,44.3l72.4,13.5c0.4,0.1,26.3,5.1,60.5,22.1c-29,16.8-45.8,38.1-55.4,55.7c-3.4,6.2-6,12.3-8.2,18c-43.2-19.2-95.2-23.2-155.2-12c-60.1-11.3-112-7.2-155.2,12c-2.1-5.7-4.8-11.7-8.2-18c-9.6-17.6-26.3-38.9-55.3-55.7c34-16.9,60.1-22.1,60.4-22.2l72.4-13.5L314.1,66.9z 

M222.5,185.2c4-3.4,8.1-6.5,12.1-9.6c28.1,9.7,48.6,25.5,60.9,47c4.7,8.2,7.4,15.9,9.1,22.2c-0.9,0.7-1.9,1.5-2.8,2.2c-32.2,26.3-52.8,60.6-65.9,93.7c-2.9-2.8-6-5.6-9.4-8.3c-17.7-14.2-45.8-29.4-86.4-31.3c1.7-4.5,3.5-9,5.5-13.3C163.2,247.6,189.1,213.1,222.5,185.2z
"/>
</svg>
