<svg id="Layer_1" enable-background="new 0 0 512 512" height="512" viewBox="0 0 512 512" width="512" xmlns="http://www.w3.org/2000/svg">

<path d="
M207.8 168.7h-16.066c-8.284 0-15 6.716-15 15s6.716 15 15 15h16.066c8.284 0 15-6.716 15-15s-6.716-15-15-15z

M289.2 183.7c0 8.284 6.716 15 15 15h16.066c8.284 0 15-6.716 15-15s-6.716-15-15-15h-16.066c-8.284 0-15 6.716-15 15z

M393.533 131.533 l -64.267-48.2c-3.614-2.71-8.255-3.648-12.638-2.552l-60.628 15.157-60.628-15.157c-4.382-1.094-9.024-.158-12.638 2.552l-64.267 48.2c-3.777 2.833-6 7.279-6 12v75.056c0 12.583 4.901 24.419 13.807 33.334l18.327 18.324v9.853c0 41.618 34.31 58.404 49.672 61.738 6.209 28.362 31.515 49.662 61.727 49.662 30.204 0 55.513-21.303 61.727-49.67 28.367-6.206 49.673-31.512 49.673-61.714v-9.869l18.334-18.331c8.898-8.908 13.799-20.744 13.799-33.327v-75.056c0-4.721-2.223-9.167-6-12z

m-137.549 229.967c-13.865 0-25.764-8.551-30.719-20.652 12.121-3.488 22.76-10.513 30.718-19.882 10.877 12.8 23.58 17.835 30.747 19.884-4.962 12.101-16.867 20.65-30.746 20.65z

m113.549-142.911c0 4.576-1.784 8.882-5.017 12.118l-22.723 22.72c-2.813 2.813-4.394 6.628-4.394 10.607v16.083c0 18.297-14.886 33.184-33.2 33.184-18.38 0-33.2-14.876-33.2-33.2v-1.067h17.133c8.284 0 15-6.716 15-15s-6.716-15-15-15h-64.267c-8.284 0-15 6.716-15 15s6.716 15 15 15h17.135v1.083c0 18.297-14.886 33.184-33.2 33.184-18.379 0-33.2-14.876-33.2-33.2v-16.067c0-3.979-1.581-7.794-4.394-10.607l-22.716-22.712c-3.24-3.243-5.024-7.549-5.024-12.125v-67.556l52.555-39.416 57.34 14.335c2.38 9.597 4.888 0.597 7.276 0l57.34-14.335 52.555 39.416v67.555z

M470.232 179.557c-.039-.053-.079-.107-.119-.16-.99-1.313-.858-3.17 2.311-4.33l21.068-20.88c4.978-4.935 5.875-12.659 2.16-18.603l-20.729-33.17c-19.538-31.26-46.908-57.229-79.15-75.098-32.242-17.871-68.77-27.316-105.64-27.316-2.329 0-4.62 5.542-6.708 1.583l-25.425 12.713-25.425-12.713c-2.083-1.041-4.386-1.583-6.715-1.583-36.864 0-73.392 9.445-105.634 27.315-32.243 17.87-59.612 43.838-79.151 75.099l-20.729 33.169c-3.715 5.944-2.818 13.668 2.16 18.603l21.072 20.884c1.166 1.154 1.298 3.014 0.308 4.327-.04 0.053-.08 0.106-.119 0.16-26.935 35.761-41.767 80.102-41.767 124.876v15.833c0 4.98 2.472 9.636 6.598 12.426 7.835 5.298 15.702 0.81 16.486 0.497 12.875-5.151 27.421-3.586 38.908 4.19 11.485 7.775 18.342 20.7 18.342 34.574v9.978c0 36.857 23.49 69.449 58.453 81.1 7.451 2.484 14.117-1.246 17.227-5.908l8.263-12.396c2.983-4.474 7.969-7.316 13.339-7.601 5.387-.287 10.638 2.008 14.078 6.134l52.784 63.344c2.85 3.42 7.071 5.397 11.523 5.397s8.673-1.977 11.523-5.397l52.781-63.34c3.443-4.129 8.711-6.423 14.082-6.138 5.369 0.285 10.355 3.127 13.335 7.597l8.266 12.401c3.078 4.615 9.759 8.397 17.227 5.908 34.962-11.651 58.453-44.242 58.453-81.1v-9.978c0-13.874 6.857-26.798 18.342-34.574 11.488-7.777 26.034-9.343 38.921-4.186 0.844 0.338 8.662 4.78 16.473-.501 4.126-2.79 6.598-7.445 6.598-12.426v-15.833c-.002-44.775-14.834-89.116-41.77-124.877z

m-37.042 132.98c-19.739 13.363-31.524 35.575-31.524 59.417v9.978c0 20.122-10.787 38.286-27.717 48.049l-1.264-1.896c-8.209-12.312-21.931-20.131-36.707-20.917-14.782-.783-29.247 5.527-38.72 16.889l-41.258 49.511-41.262-49.517c-8.941-10.725-22.343-16.951-36.246-16.951-6.612 0-26.449 1.892-39.18 20.986l-1.261 1.892c-16.931-9.763-27.717-27.927-27.717-48.049v-9.978c0-23.841-11.785-46.053-31.524-59.417-14.496-9.813-31.829-13.873-48.769-11.833 0.795-37.081 13.431-73.6 35.784-103.221 0.055-.073 0.109-.146 0.163-.22 9.828-13.235 8.429-31.895-3.295-43.505l-12.552-12.44 14.376-23.004c16.848-26.957 40.45-49.35 68.254-64.759 26.79-14.848 57.009-22.951 87.621-23.522l28.901 14.451c4.224 2.111 9.193 2.111 13.417 0l28.901-14.451c30.608 0.57 60.829 8.673 87.621 23.522 27.804 15.41 51.406 37.803 68.253 64.758l14.377 23.005-12.548 12.437c-11.728 11.614-13.126 30.274-3.299 43.509 0.054 0.074 0.108 0.147 0.163 0.22 22.353 29.622 34.988 66.142 35.784 103.222-16.947-2.036-34.276 2.021-48.772 11.834z
"/>
</svg>
