<?xml version="1.0" encoding="iso-8859-1"?>
<!-- Generator: Adobe Illustrator 16.0.0, SVG Export Plug-In . SVG Version: 6.00 Build 0)  -->
<!DOCTYPE svg PUBLIC "-//W3C//DTD SVG 1.1//EN" "http://www.w3.org/Graphics/SVG/1.1/DTD/svg11.dtd">
<svg version="1.1" id="Capa_1" xmlns="http://www.w3.org/2000/svg" xmlns:xlink="http://www.w3.org/1999/xlink" x="0px" y="0px"
	 width="613.637px" height="613.637px" viewBox="0 0 613.637 613.637" style="enable-background:new 0 0 613.637 613.637;"
	 xml:space="preserve">
<g>
	<g>
		<path d="M0.815,287.641l9.656,6.167c16.577,10.596,30.308,33.971,39.699,67.609c7.523,26.938,9.442,50.757,9.459,50.987
			l1.109,14.49l14.484-1.193c28.192-2.329,54.145,1.385,77.143,11.029c17.185,7.208,26.211,15.232,26.301,15.312l-0.067-0.062
			l0.208-0.226c5.926,12.959,14.344,26.347,26.026,39.795l6.544,7.529l12.025-4.429l-1.863,23.719l0.456,2.088
			c0.253,1.153,6.477,28.473,31.05,42.513c6.123,3.494,11.918,6.038,17.033,8.271c11.992,5.25,19.228,8.418,25.75,20.01
			l12.593,22.385l12.594-22.385c6.521-11.597,13.758-14.76,25.75-20.01c5.114-2.239,10.916-4.777,17.033-8.271
			c24.573-14.04,30.797-41.359,31.05-42.513l0.456-2.088l-1.862-23.719l12.024,4.429l6.545-7.529
			c12.639-14.552,21.456-29.024,27.432-42.963c4.063-2.864,10.929-7.157,20.551-11.311c16.015-6.91,42.62-14.529,78.42-11.569
			l14.483,1.193l1.109-14.49c0.017-0.23,1.873-23.623,9.329-50.525c9.397-33.887,23.167-57.425,39.829-68.072l9.656-6.167
			l-3.81-10.804c-0.929-2.639-22.57-63.108-71.392-123.33c4.091-9.792,9.285-25.215,11.592-44.432
			c4.001-33.369-1.728-66.298-17.039-97.872l-2.802-5.785l-6.173-1.789c-0.855-0.248-21.311-6.043-48.585-2.465
			c-23.318,3.056-56.158,13.68-84.626,46.21c-26.588-8.52-54.516-12.83-83.169-12.83s-56.586,4.316-83.169,12.836
			c-28.468-32.536-61.313-43.16-84.621-46.222c-27.275-3.579-47.729,2.212-48.584,2.459l-6.179,1.789l-2.802,5.785
			C66.152,42.771,60.418,75.701,64.424,109.07c2.302,19.217,7.501,34.635,11.592,44.432C27.19,213.729,5.553,274.192,4.625,276.832
			L0.815,287.641z M366.128,515.922c-1.424,4.384-6.032,15.874-16.667,21.951c-4.783,2.729-9.611,4.846-14.288,6.894
			c-8.671,3.793-18.107,7.923-26.757,16.026c-8.648-8.098-18.085-12.233-26.757-16.026c-4.67-2.043-9.504-4.158-14.287-6.894
			c-10.635-6.077-15.244-17.567-16.667-21.951l2.538-32.277l55.169-20.325l55.174,20.325L366.128,515.922z M103.955,165.077
			l6.235-7.354l-4.4-8.582c-2.932-5.711-10.028-21.389-12.678-43.503c-3.066-25.57,0.782-50.931,11.435-75.477
			c6.443-1.024,17.517-2.071,30.718-0.338c28.698,3.765,52.957,18.328,72.106,43.278l6.449,8.401l9.955-3.624
			c26.295-9.572,54.234-14.428,83.039-14.428c28.806,0,56.738,4.856,83.04,14.428l9.954,3.624l6.448-8.401
			c18.879-24.602,42.755-39.108,70.958-43.121c13.663-1.941,25.21-0.867,31.872,0.191c10.652,24.546,14.496,49.901,11.429,75.471
			c-2.65,22.115-9.752,37.792-12.678,43.503l-4.4,8.581l6.234,7.355c37.877,44.662,59.912,91.817,68.235,111.665
			c-18.356,16.009-32.599,41.979-42.424,77.418c-4.563,16.459-7.214,31.624-8.677,42.023c-32.851-0.658-58.662,6.257-77.142,14.073
			c1.288-11.4,0.99-21.974-0.152-31.365c8.497-4.569,20.117-12.076,31.63-23.527c19.757-19.645,43.301-55.23,43.301-113.207h-28.89
			c0,38.022-11.39,68.899-33.847,91.779c-6.635,6.758-13.331,11.816-19.037,15.475c-2.65-7.676-5.604-14.248-8.277-19.453
			c4.513-3.309,9.645-7.732,14.754-13.505c12.453-14.085,27.304-39.407,27.304-80.086h-28.896c0,57.701-35.755,74.042-38.23,75.1
			l-17.72,6.449l11.36,15.485c0.124,0.175,12.622,17.726,17.09,43.645c3.18,18.429,1.648,36.351-4.535,53.614
			c-0.028,0.028-0.062,0.057-0.079,0.073l0.039,0.04c-4.209,11.704-10.556,23.11-19.036,34.173l-73.794-27.189v-27.011
			c28.35-11.012,41.146-40.679,45.827-55.106c6.601-18.89,4.034-35.558-5.661-72.775c-1.559-5.981-2.003-11.75-1.345-17.264
			c5.278,3.866,11.8,5.942,18.924,5.942l0,0c9.397,0,18.795-3.618,26.471-10.196c7.241-6.201,12.171-14.439,13.888-23.184
			c1.93-9.853-0.45-19.577-6.533-26.678c-5.841-6.82-14.344-10.573-23.927-10.573c-7.444,0-14.884,2.279-21.474,6.494l-0.039-0.068
			c-1.255,0.732-12.525,7.535-22.255,20.708c-13.466,18.237-17.501,39.705-11.671,62.095c10.388,39.891,10.162,48.574,4.35,60.993
			c-19.003,4.395-30.454,11.243-30.454,11.243s-11.451-6.854-30.454-11.243c-6.021-12.808-6.482-21.839,3.714-60.993
			c5.83-22.39,1.795-43.863-11.671-62.095c-9.729-13.173-21-19.976-22.255-20.708l-0.04,0.068
			c-6.589-4.215-14.034-6.494-21.479-6.494c-9.589,0-18.086,3.753-23.927,10.579c-6.083,7.102-8.463,16.825-6.533,26.678
			c1.716,8.745,6.646,16.977,13.888,23.184c7.676,6.572,17.073,10.196,26.47,10.196c7.124,0,13.646-2.077,18.924-5.942
			c0.659,5.515,0.214,11.277-1.345,17.264c-9.561,36.711-11.986,53.683-4.8,73.434c4.789,14.462,17.343,42.851,44.51,54.015v27.606
			l-73.338,27.021c-21.012-27.403-28.957-56.935-23.617-87.9c4.468-25.925,16.966-43.47,17.056-43.6l11.643-15.373l-17.967-6.601
			c-2.454-1.047-38.236-17.376-38.236-75.1h-28.896c0,40.679,14.85,66,27.303,80.085c5.109,5.773,10.242,10.196,14.754,13.505
			c-2.847,5.549-6.021,12.65-8.795,20.989c-6.19-3.736-13.888-9.251-21.507-17.016c-22.458-22.875-33.847-53.756-33.847-91.779
			H89.409c0,57.976,23.55,93.562,43.301,113.207c12.847,12.773,25.823,20.641,34.449,24.995c-1.041,9.432-1.221,20.005,0.197,31.377
			c-18.659-8.401-45.625-16.251-80.53-15.559c-1.463-10.399-4.113-25.559-8.677-42.023c-9.831-35.445-24.073-61.42-42.434-77.423
			C43.998,256.917,65.96,209.874,103.955,165.077z M382.615,233.063c2.369-2.031,5.239-3.241,7.67-3.241
			c1.035,0,1.778,0.242,1.986,0.479c0.676,0.788,0.265,5.284-4.209,9.116c-2.369,2.032-5.239,3.241-7.67,3.241
			c-1.029,0-1.778-0.242-1.986-0.478C377.731,241.386,378.142,236.896,382.615,233.063z M238.438,242.18
			c-0.203,0.236-0.951,0.478-1.981,0.478c-2.431,0-5.301-1.209-7.669-3.241c-4.474-3.832-4.89-8.328-4.215-9.116
			c0.203-0.236,0.951-0.479,1.986-0.479c2.431,0,5.301,1.21,7.67,3.241c2.29,1.964,3.871,4.44,4.333,6.798
			C238.809,241.15,238.618,241.966,238.438,242.18z"/>
		<path d="M200.089,89.488c0,0-30.471-46.272-84.042-45.214c0,0-23.988,47.881,11.125,101.351
			C127.167,145.624,165.904,109.47,200.089,89.488z"/>
		<path d="M496.818,44.291c-53.57-1.058-83.276,45.197-83.276,45.197c34.185,19.982,72.922,56.136,72.922,56.136
			C521.577,92.155,496.818,44.291,496.818,44.291z"/>
		<path d="M308.607,109.261c13.888,0,27.19,1.75,38.467,5.07l8.148-27.725c-13.888-4.085-30.01-6.24-46.62-6.24
			c-17.096,0-33.617,2.279-47.769,6.583l8.413,27.641C280.72,111.107,294.326,109.261,308.607,109.261z"/>
		<path d="M308.821,158.245c20.14,0,39.48,2.555,55.917,7.389l8.148-27.725c-19.054-5.599-41.208-8.559-64.071-8.559
			c-23.532,0-46.227,3.123-65.64,9.032l8.413,27.646C268.312,160.935,288.103,158.245,308.821,158.245z"/>
	</g>
</g>
<g>
</g>
<g>
</g>
<g>
</g>
<g>
</g>
<g>
</g>
<g>
</g>
<g>
</g>
<g>
</g>
<g>
</g>
<g>
</g>
<g>
</g>
<g>
</g>
<g>
</g>
<g>
</g>
<g>
</g>
</svg>
