<?xml version="1.0" encoding="iso-8859-1"?>
<!-- Generator: Adobe Illustrator 19.0.0, SVG Export Plug-In . SVG Version: 6.00 Build 0)  -->
<svg version="1.1" id="Capa_1" xmlns="http://www.w3.org/2000/svg" xmlns:xlink="http://www.w3.org/1999/xlink" x="0px" y="0px"
	 viewBox="0 0 463 463" style="enable-background:new 0 0 463 463;" xml:space="preserve">
<g>
	<path d="M441.988,139.492c-8.437-5.81-19.343-8.896-31.541-8.927c-0.061,0-0.121,0-0.182,0c-7.188,0-14.665,1.04-21.644,2.979
		C359.073,74.07,298.126,36,231.5,36S103.927,74.07,74.379,133.545c-6.98-1.939-14.455-2.979-21.644-2.979c-0.061,0-0.122,0-0.182,0
		c-12.198,0.03-23.104,3.117-31.541,8.927C7.069,149.095,0,165.247,0,187.5c0,53.059,40.403,89.493,76.084,105.227
		c14.929,28.518,37.294,52.34,64.831,69.028C153.598,399.63,189.411,427,231.5,427c42.098,0,77.918-27.382,90.593-65.271
		c0.126-0.067,0.254-0.13,0.378-0.205c27.358-16.676,49.591-40.423,64.444-68.798C422.597,276.993,463,240.559,463,187.5
		C463,165.247,455.931,149.095,441.988,139.492z M299.793,252.867C280.652,226.514,256.398,212,231.5,212
		s-49.152,14.514-68.293,40.867c-6.675,9.189-12.29,19.292-16.658,29.731c-3.949-18.286-10.477-35.168-19.443-49.975
		c-6.944-11.469-9.501-24.688-7.395-38.229c3.717-23.901,23.024-43.116,46.949-46.726c13.721-2.07,27.072,0.632,38.61,7.813
		c16.179,10.072,36.281,10.07,52.46,0c11.539-7.18,24.891-9.884,38.61-7.813c23.925,3.609,43.232,22.824,46.949,46.726
		c2.106,13.541-0.451,26.76-7.395,38.229c-8.966,14.808-15.494,31.689-19.443,49.975
		C312.083,272.16,306.468,262.057,299.793,252.867z M231.5,412c-44.388,0-80.5-36.112-80.5-80.5
		c0-22.393,9.328-49.146,24.343-69.817C197.261,231.506,219.935,227,231.5,227s34.239,4.506,56.157,34.683
		C302.672,282.354,312,309.107,312,331.5C312,375.888,275.888,412,231.5,412z
                M378.598,279.973c-1.656,0.689-3.01,1.948-3.817,3.551
		c-11.419,22.666-27.95,42.193-48.225,57.171c0.29-3.027,0.444-6.093,0.444-9.194v-6.053c0-32.171,7.512-61.582,21.725-85.055
		c8.796-14.527,12.042-31.229,9.386-48.303c-4.714-30.311-29.196-54.676-59.534-59.253c-17.048-2.573-34.371,0.947-48.773,9.91
		c-11.462,7.133-25.147,7.133-36.608,0c-14.402-8.962-31.723-12.481-48.773-9.91c-30.338,4.577-54.82,28.942-59.534,59.253
		c-2.656,17.073,0.589,33.775,9.386,48.303C128.488,263.865,136,293.276,136,325.447v6.053c0,3.103,0.154,6.17,0.445,9.197
		c-20.276-14.976-36.8-34.498-48.225-57.174c-0.807-1.603-2.161-2.861-3.817-3.551C52.387,266.653,15,234.442,15,187.5
		c0-17.022,4.885-29.019,14.52-35.654c6.844-4.713,24.265-10.463,46.137-2.114c0.216,0.082,0.434,0.152,0.653,0.213
		c0.126,0.059,0.248,0.124,0.378,0.177c3.561,1.448,5.429,2.697,6.226,3.313c1.366,1.055,2.979,1.565,4.581,1.565
		c2.243,0,4.462-1.002,5.94-2.914c2.533-3.277,1.929-7.987-1.348-10.521c-1.085-0.839-2.328-1.651-3.705-2.436
		C115.609,85.361,170.985,51,231.5,51s115.891,34.361,143.118,88.129c-1.376,0.785-2.619,1.597-3.704,2.436
		c-3.277,2.533-3.881,7.243-1.349,10.521c1.478,1.912,3.696,2.914,5.94,2.914c1.601,0,3.215-0.511,4.581-1.565
		c0.798-0.617,2.669-1.868,6.234-3.316c0.13-0.053,0.252-0.117,0.377-0.176c0.216-0.061,0.432-0.129,0.646-0.211
		c21.874-8.347,39.294-2.599,46.137,2.114c9.635,6.636,14.52,18.632,14.52,35.654C448,234.442,410.613,266.653,378.598,279.973z
                M269.536,343.454c-9.962,2.428-20.22,3.862-30.536,4.335V331.5c0-4.143-3.358-7.5-7.5-7.5s-7.5,3.357-7.5,7.5v16.289
		c-10.365-0.476-20.672-1.92-30.677-4.37c-4.027-0.984-8.083,1.479-9.068,5.502c-0.985,4.023,1.478,8.083,5.501,9.068
		C203.34,361.314,217.384,363,231.5,363c14.062,0,28.054-1.673,41.589-4.974c4.024-0.98,6.491-5.038,5.51-9.063
		C277.618,344.94,273.564,342.474,269.536,343.454z
                M246.792,379.279c-10.088,0.957-20.498,0.957-30.586,0c-4.122-0.382-7.783,2.636-8.174,6.759
		c-0.391,4.124,2.635,7.784,6.759,8.175c5.513,0.522,11.135,0.787,16.709,0.787c5.574,0,11.195-0.265,16.707-0.787
		c4.124-0.391,7.15-4.051,6.759-8.175C254.575,381.914,250.908,378.895,246.792,379.279z
                M66.037,208.025c-5.316-4.206-9.156-7.246-11.344-14.65c-0.962-3.256-1.305-7.586,2.524-9.721
		c2.919-1.626,6.819-1.248,8.693,0.847c2.762,3.086,7.503,3.352,10.59,0.588c3.087-2.762,3.35-7.503,0.588-10.59
		c-6.605-7.384-18.035-9.042-27.176-3.946c-7.307,4.073-13.667,13.325-9.606,27.072c3.536,11.966,10.381,17.383,16.42,22.163
		c6.739,5.333,12.56,9.939,15.401,25.094c0.676,3.604,3.825,6.119,7.363,6.119c0.458,0,0.923-0.042,1.391-0.13
		c4.071-0.763,6.752-4.682,5.989-8.753C82.996,221.447,73.592,214.006,66.037,208.025z
                M421.087,170.553c-9.141-5.097-20.57-3.436-27.176,3.946c-2.762,3.087-2.499,7.828,0.588,10.59
		c3.085,2.762,7.828,2.499,10.59-0.588c1.874-2.094,5.774-2.474,8.693-0.847c3.83,2.135,3.487,6.465,2.524,9.721
		c-2.188,7.404-6.028,10.444-11.344,14.65c-7.556,5.98-16.959,13.422-20.835,34.093c-0.763,4.071,1.918,7.99,5.989,8.753
		c0.467,0.088,0.932,0.13,1.391,0.13c3.538,0,6.688-2.515,7.363-6.119c2.841-15.154,8.662-19.761,15.401-25.094
		c6.04-4.78,12.885-10.197,16.42-22.163C434.754,183.878,428.394,174.626,421.087,170.553z
                M175.5,188c-4.142,0-7.5,3.357-7.5,7.5v16c0,4.143,3.358,7.5,7.5,7.5s7.5-3.357,7.5-7.5v-16
		C183,191.357,179.642,188,175.5,188z
                M287.5,188c-4.142,0-7.5,3.357-7.5,7.5v16c0,4.143,3.358,7.5,7.5,7.5s7.5-3.357,7.5-7.5v-16
		C295,191.357,291.642,188,287.5,188z
                M196.146,290.208l16,8c1.077,0.539,2.221,0.794,3.348,0.794c2.751,0,5.4-1.52,6.714-4.147
		c1.853-3.705,0.351-8.21-3.354-10.063l-16-8c-3.702-1.854-8.208-0.352-10.062,3.354
		C190.939,283.851,192.441,288.355,196.146,290.208z
                M247.506,299.002c1.127,0,2.271-0.256,3.348-0.794l16-8c3.705-1.853,5.207-6.357,3.354-10.063
		c-1.852-3.704-6.357-5.206-10.062-3.354l-16,8c-3.705,1.853-5.207,6.357-3.354,10.063
		C242.106,297.482,244.754,299.002,247.506,299.002z"/>
</g>
<g>
</g>
<g>
</g>
<g>
</g>
<g>
</g>
<g>
</g>
<g>
</g>
<g>
</g>
<g>
</g>
<g>
</g>
<g>
</g>
<g>
</g>
<g>
</g>
<g>
</g>
<g>
</g>
<g>
</g>
</svg>
