<?xml version="1.0"?>
<svg xmlns="http://www.w3.org/2000/svg" width="24" height="24" viewBox="0 0 24 24">
    <path d="M 12 1 C 8.90625 1 6.1763916 2.6625244 4.78125 5.09375 C 4.4989848 5.0043099 4.2890449 5 4 5 C 2.3 5 1 6.3 1 8 C 1 9.7 2.3 11 4 11 C 2.7533111 12.380943 2 14.050608 2 15.90625 C 2 20.40625 6.5 24 12 24 C 17.5 24 22 20.40625 22 15.90625 C 22 14.050608 21.246689 12.380943 20 11 C 21.7 11 23 9.7 23 8 C 23 6.3 21.7 5 20 5 C 19.710955 5 19.501015 5.0043099 19.21875 5.09375 C 17.823608 2.6625244 15.09375 1 12 1 z M 9.1875 4 C 10.6875 4 11.90625 5.2125 11.90625 6.8125 C 11.90625 5.3125 13.09375 4 14.59375 4 C 15.89375 4 18.1875 5.6 18.1875 9.5 C 18.1875 10.2 18.10625 10.9 17.90625 11.5 C 19.20625 12.6 20 14.2125 20 15.8125 C 20.2 19.3125 16.5 22.1875 12 22.1875 C 7.5 22.1875 3.8125 19.3125 3.8125 15.8125 C 3.8125 14.1125 4.60625 12.6 5.90625 11.5 C 5.70625 10.9 5.59375 10.2 5.59375 9.5 C 5.59375 5.6 7.9875 4 9.1875 4 z M 9.5 9 C 8.6715729 9 8 9.6715729 8 10.5 C 8 11.328427 8.6715729 12 9.5 12 C 10.328427 12 11 11.328427 11 10.5 C 11 9.6715729 10.328427 9 9.5 9 z M 14.5 9 C 13.671573 9 13 9.6715729 13 10.5 C 13 11.328427 13.671573 12 14.5 12 C 15.328427 12 16 11.328427 16 10.5 C 16 9.6715729 15.328427 9 14.5 9 z M 11.09375 13 C 10.49375 13 10 13.1125 10 13.3125 C 10 13.6125 10.49375 14 11.09375 14 C 11.473396 14 11.801758 13.818627 12 13.625 C 12.198242 13.818627 12.526604 14 12.90625 14 C 13.50625 14 14 13.6125 14 13.3125 C 14 13.1125 13.50625 13 12.90625 13 C 12.534332 13 12.199804 12.991049 12 13.0625 C 11.818051 12.996576 11.516164 13 11.09375 13 z M 6.71875 16.28125 L 5.28125 17.71875 C 5.28125 17.71875 5.943243 18.346622 7.0625 18.90625 C 8.181757 19.465878 9.8333333 20 12 20 C 14.166667 20 15.818243 19.465878 16.9375 18.90625 C 18.056757 18.346622 18.71875 17.71875 18.71875 17.71875 L 17.28125 16.28125 C 17.28125 16.28125 16.943243 16.653378 16.0625 17.09375 C 15.181757 17.534122 13.833333 18 12 18 C 10.166667 18 8.818243 17.534122 7.9375 17.09375 C 7.056757 16.653378 6.71875 16.28125 6.71875 16.28125 z"/>
</svg>
