<?xml version="1.0" encoding="iso-8859-1"?>
<!-- Generator: Adobe Illustrator 19.0.0, SVG Export Plug-In . SVG Version: 6.00 Build 0)  -->
<svg version="1.1" id="Layer_1" xmlns="http://www.w3.org/2000/svg" xmlns:xlink="http://www.w3.org/1999/xlink" x="0px" y="0px"
	 viewBox="0 0 512 512" style="enable-background:new 0 0 512 512;" xml:space="preserve">
<g>
	<g>
		<path d="M506.667,122.667C506.667,55.028,451.638,0,384,0c-38.421,0-73.937,17.634-97.099,47.688
			c-10.084-1.896-20.417-2.877-30.901-2.877c-10.485,0-20.818,0.981-30.902,2.877C201.937,17.633,166.422,0,128,0
			C60.362,0,5.333,55.028,5.333,122.667c0,54.594,36.485,102.558,88.085,117.708c3.82,20.784,11.563,40.513,22.878,58.292h-41.63v32
			h68.041l23.188,23.188l-41.366,9.193l6.942,31.237l61.245-13.611l40.887,40.889C218.391,429.626,208,445.619,207.999,464
			c0.001,26.468,21.535,48,48,48c26.467,0,48-21.532,48.001-48.001c-0.001-18.38-10.391-34.372-25.604-42.434l40.89-40.89
			l61.244,13.611l6.942-31.237l-41.365-9.193l23.188-23.189h68.039v-32h-41.685c11.45-18.057,19.057-37.862,22.825-58.249
			C470.201,225.321,506.667,177.5,506.667,122.667z M90.741,205.343c-31.838-14.4-53.408-46.576-53.408-82.676
			C37.333,72.673,78.006,32,128,32c24.118,0,46.686,9.408,63.431,25.854c-19.311,8.19-37.059,20.101-52.339,35.381
			C108.998,123.328,91.941,162.979,90.741,205.343z M255.999,480c-8.821,0-16-7.178-16-15.999c0-8.823,7.18-16.002,15.999-16.003
			c8.822,0.001,16.002,7.181,16.002,16.001C272,472.822,264.821,480,255.999,480z M355.699,298.667H288v32h36.039l-14.96,14.96
			l-17.609-3.912l-6.149,27.67L256,398.706l-29.322-29.323l-6.149-27.669l-17.607,3.912l-14.96-14.96H224v-32h-67.701
			c-21.741-24.422-33.632-55.556-33.632-88.523c0-35.615,13.869-69.098,39.052-94.282C186.901,90.679,220.385,76.811,256,76.811
			s69.097,13.869,94.281,39.052C400.389,165.973,402.192,246.37,355.699,298.667z M372.908,93.235
			c-15.28-15.28-33.028-27.19-52.338-35.381C337.315,41.408,359.883,32,384,32c49.994,0,90.667,40.673,90.667,90.667
			c0,36.265-21.574,68.365-53.487,82.716C420.017,164.645,403.931,124.258,372.908,93.235z
                        M218.667,234.667c-11.759,0-21.329,9.568-21.333,21.333c0,11.763,9.569,21.333,21.331,21.333h0.002
			c11.763,0,21.333-9.57,21.333-21.333S230.43,234.667,218.667,234.667z
                        M293.333,234.667c-11.759,0-21.329,9.568-21.333,21.333c0,11.763,9.569,21.333,21.331,21.333h0.002
			c11.763,0,21.333-9.57,21.333-21.333S305.097,234.667,293.333,234.667z"/>
	</g>
</g>
<g>
</g>
<g>
</g>
<g>
</g>
<g>
</g>
<g>
</g>
<g>
</g>
<g>
</g>
<g>
</g>
<g>
</g>
<g>
</g>
<g>
</g>
<g>
</g>
<g>
</g>
<g>
</g>
<g>
</g>
</svg>
