<?xml version="1.0" encoding="iso-8859-1"?>
<!-- Generator: Adobe Illustrator 19.0.0, SVG Export Plug-In . SVG Version: 6.00 Build 0)  -->
<svg version="1.1" id="Capa_1" xmlns="http://www.w3.org/2000/svg" xmlns:xlink="http://www.w3.org/1999/xlink" x="0px" y="0px"
	 viewBox="0 0 60.003 60.003" style="enable-background:new 0 0 60.003 60.003;" xml:space="preserve">
<g>
	<path d="M57.988,1.42c0.071-0.501-0.171-1.008-0.627-1.262c-0.524-0.293-1.18-0.17-1.563,0.291L54.496,2.01
		c-0.451,0.541-1.05,0.962-1.685,1.408c-1.58,1.109-3.519,2.471-3.78,6.256h-0.03c0,2.65-1.423,5.325-4.602,5.325h-3.85
		c-1.025-2.583-3.775-3.573-6.128-3.359c-1.614,0.145-3.314,0.889-4.369,2.247c-1.046-1.434-2.802-2.221-4.466-2.37
		c-2.398-0.221-5.189,0.807-6.174,3.482h-3.809c-3.179,0-4.602-2.674-4.602-5.325h-0.03c-0.262-3.785-2.201-5.147-3.78-6.256
		C6.557,2.972,5.957,2.551,5.506,2.01L4.205,0.449c-0.383-0.46-1.042-0.582-1.563-0.291C2.186,0.412,1.944,0.919,2.015,1.42
		L2.012,1.904C2.006,3.255,2.12,4.563,2.352,5.794c0.328,1.74,0.649,4.363,0.649,5.294v2.911c0,6.065,4.935,11,11,11h1.925
		c-0.43,0.682-0.823,1.24-1.111,1.624c-0.755,1.008-1.239,1.994-1.481,3.013c-0.963,4.062,1.717,6.813,3.667,7.964v6.022
		l0.559,0.274c0.042,0.021,4.221,2.13,4.442,7.146c0.23,5.224,3.238,7.891,4.157,8.585c0.298,0.225,0.676,0.301,1.037,0.218
		c0.317-0.075,0.589-0.27,0.763-0.542l2.033-2.647l2.051,2.761c0.174,0.278,0.45,0.476,0.772,0.551
		c0.094,0.022,0.189,0.033,0.284,0.033c0.269,0,0.533-0.087,0.751-0.253c0.917-0.692,3.925-3.357,4.155-8.583
		c0.22-4.978,4.272-7.062,4.442-7.146l0.559-0.274v-6.022c1.95-1.15,4.63-3.902,3.667-7.963v0c-0.242-1.021-0.727-2.006-1.481-3.013
		c-0.304-0.406-0.727-1.011-1.185-1.747h1.994c6.065,0,11-4.935,11-11v-2.911c0-0.932,0.322-3.554,0.649-5.294
		c0.232-1.23,0.346-2.539,0.34-3.891L57.988,1.42z M25.408,13.509c1.767,0.158,3.563,1.252,3.593,3.342l0.001,0.145
		c0,0.001-0.001,0.002-0.001,0.003v2c0,0.552,0.448,1,1,1s1-0.448,1-1v-1.689l0.005-0.34c0.03-2.087,1.827-3.18,3.594-3.338
		c1.771-0.163,3.724,0.582,4.224,2.554l0.01,0.044l0.048,0.144c0.053,0.271,0.097,0.557,0.13,0.859
		c0.065,0.582,0.164,1.154,0.287,1.714c0.005,0.021,0.008,0.042,0.012,0.063c0.135,0.603,0.3,1.191,0.487,1.76
		c0.007,0.021,0.015,0.043,0.022,0.064c0.203,0.611,0.43,1.198,0.671,1.759c0.008,0.018,0.015,0.035,0.023,0.053
		c0.35,0.81,0.727,1.561,1.104,2.239l0.061,0.115h0.002c0.118,0.211,0.235,0.414,0.352,0.609l-7.849,4.161l-3.184-3.184v-2.586
		c0-0.552-0.448-1-1-1s-1,0.448-1,1v2.586l-3.184,3.184l-7.9-4.189c0.112-0.187,0.226-0.38,0.34-0.582h0l0.016-0.03
		c0.399-0.704,0.802-1.496,1.176-2.351c0.009-0.02,0.017-0.039,0.026-0.059c0.243-0.56,0.473-1.146,0.678-1.757
		c0.013-0.037,0.027-0.075,0.039-0.113c0.189-0.572,0.357-1.162,0.494-1.768c0.004-0.017,0.007-0.033,0.011-0.05
		c0.128-0.572,0.229-1.156,0.295-1.751c0-0.004,0.002-0.008,0.002-0.013c0.004-0.034,0.01-0.061,0.014-0.094
		c0.032-0.26,0.068-0.512,0.113-0.748l0.005-0.025C21.547,14.128,23.577,13.349,25.408,13.509z M41.998,30.485
		c-0.008-0.269-0.226-0.486-0.497-0.486c-0.276,0-0.5,0.224-0.5,0.5c0,0.276,0.224,0.5,0.5,0.5c0.064,0,0.124-0.015,0.181-0.036
		c-0.325,0.45-0.718,0.874-1.202,1.233c-0.155,0.115-0.32,0.195-0.486,0.267c-0.019-0.258-0.229-0.464-0.493-0.464
		c-0.276,0-0.5,0.224-0.5,0.5c0,0.06,0.015,0.116,0.034,0.169c-0.346,0.009-0.696-0.03-1.043-0.126
		c0.001-0.015,0.009-0.028,0.009-0.043c0-0.276-0.224-0.5-0.5-0.5c-0.161,0-0.298,0.081-0.389,0.199
		c-0.152-0.074-0.303-0.148-0.448-0.232c0.195-0.068,0.337-0.249,0.337-0.467c0-0.276-0.224-0.5-0.5-0.5s-0.5,0.224-0.5,0.5
		c0,0.012,0.006,0.022,0.007,0.033c-0.124-0.091-0.249-0.182-0.36-0.274l1.361-0.722c0.02,0.258,0.23,0.463,0.492,0.463
		c0.276,0,0.5-0.224,0.5-0.5c0-0.159-0.079-0.294-0.194-0.386l0.407-0.216c0.082,0.059,0.178,0.102,0.287,0.102
		c0.276,0,0.5-0.224,0.5-0.5c0-0.006-0.003-0.011-0.003-0.017l2.021-1.072c-0.006,0.03-0.018,0.058-0.018,0.089
		c0,0.276,0.224,0.5,0.5,0.5s0.5-0.224,0.5-0.5c0-0.203-0.122-0.375-0.295-0.454l0.421-0.223c0.092,0.106,0.223,0.177,0.374,0.177
		c0.13,0,0.247-0.053,0.336-0.134c-0.023,0.353-0.093,0.746-0.213,1.159c-0.04-0.011-0.08-0.025-0.123-0.025
		c-0.276,0-0.5,0.224-0.5,0.5c0,0.195,0.115,0.36,0.278,0.442C42.194,30.124,42.104,30.306,41.998,30.485z M30.001,34.411
		l-2.685-3.313l2.685-2.685l2.685,2.685L30.001,34.411z M23.501,30.999c-0.276,0-0.5,0.224-0.5,0.5c0,0.219,0.143,0.4,0.34,0.468
		c-0.145,0.085-0.297,0.159-0.449,0.233c-0.091-0.119-0.229-0.201-0.39-0.201c-0.276,0-0.5,0.224-0.5,0.5
		c0,0.016,0.007,0.029,0.009,0.044c-0.347,0.096-0.697,0.135-1.043,0.125c0.019-0.053,0.034-0.109,0.034-0.169
		c0-0.276-0.224-0.5-0.5-0.5c-0.263,0-0.473,0.205-0.493,0.463c-0.166-0.072-0.33-0.151-0.486-0.267
		c-0.484-0.359-0.878-0.784-1.202-1.233c0.056,0.022,0.117,0.036,0.181,0.036c0.276,0,0.5-0.224,0.5-0.5c0-0.276-0.224-0.5-0.5-0.5
		c-0.271,0-0.49,0.217-0.497,0.486c-0.106-0.18-0.196-0.362-0.281-0.544c0.163-0.082,0.278-0.247,0.278-0.442
		c0-0.276-0.224-0.5-0.5-0.5c-0.044,0-0.083,0.014-0.123,0.025c-0.119-0.413-0.189-0.807-0.212-1.159
		c0.089,0.082,0.205,0.134,0.336,0.134c0.151,0,0.282-0.071,0.374-0.177l0.421,0.223c-0.173,0.079-0.295,0.251-0.295,0.454
		c0,0.276,0.224,0.5,0.5,0.5s0.5-0.224,0.5-0.5c0-0.032-0.012-0.059-0.018-0.089l2.021,1.072c0,0.006-0.003,0.011-0.003,0.017
		c0,0.276,0.224,0.5,0.5,0.5c0.109,0,0.205-0.042,0.287-0.102l0.407,0.216c-0.116,0.092-0.194,0.227-0.194,0.386
		c0,0.276,0.224,0.5,0.5,0.5c0.263,0,0.472-0.205,0.492-0.463l1.362,0.722c-0.112,0.093-0.237,0.184-0.361,0.276
		c0.001-0.012,0.007-0.023,0.007-0.035C24.001,31.223,23.777,30.999,23.501,30.999z M17.057,22.999h-3.056c-4.962,0-9-4.038-9-9
		v-2.911c0-1.064-0.326-3.764-0.684-5.665C4.194,4.772,4.108,4.093,4.06,3.396c0.601,0.689,1.303,1.182,1.982,1.659
		c1.587,1.115,2.959,2.079,2.959,5.509h0.042c0.36,3.778,3.008,6.435,6.561,6.435h3.386c-0.06,0.5-0.142,0.994-0.251,1.478
		c-0.049,0.217-0.121,0.439-0.18,0.659c-0.076,0.283-0.146,0.569-0.235,0.844C18,20.968,17.579,21.976,17.057,22.999z
		 M41.584,36.215l-0.578,0.27v6.059c-1.372,0.861-4.777,3.494-4.999,8.534c-0.155,3.523-1.777,5.612-2.783,6.577l-2.223-2.992
		v-0.665c0-0.552-0.448-1-1-1s-1,0.448-1,1v0.665l-2.209,2.877c-1.004-0.961-2.636-3.053-2.792-6.585
		c-0.222-5.041-3.627-7.674-4.999-8.534l-0.003-6.056l-0.571-0.271c-0.167-0.079-4.096-1.993-3.146-5.997
		c0.042-0.178,0.097-0.357,0.162-0.535c0.45,1.559,1.42,3.151,2.889,4.24c0.85,0.63,1.771,0.885,2.689,0.885
		c1.858,0,3.692-1.046,4.895-2.141l3.085,3.807v9.646c0,0.552,0.448,1,1,1s1-0.448,1-1v-9.646l3.086-3.807
		c1.203,1.095,3.037,2.141,4.895,2.141c0.918,0,1.839-0.255,2.689-0.885c1.45-1.075,2.412-2.641,2.87-4.18
		c0.075,0.2,0.139,0.399,0.186,0.599v0C45.676,34.224,41.748,36.138,41.584,36.215z M55.685,5.424
		c-0.358,1.901-0.684,4.601-0.684,5.665v2.911c0,4.962-4.038,9-9,9h-3.113c-0.256-0.51-0.487-1.016-0.694-1.518
		c-0.028-0.067-0.051-0.14-0.078-0.208c-0.166-0.415-0.318-0.827-0.449-1.236c-0.078-0.244-0.141-0.499-0.209-0.75
		c-0.067-0.248-0.143-0.498-0.198-0.743c-0.111-0.502-0.203-1.013-0.26-1.532c0-0.004-0.001-0.009-0.001-0.013h3.4
		c3.553,0,6.201-2.657,6.561-6.435h0.042c0-3.431,1.372-4.394,2.959-5.509c0.68-0.478,1.381-0.97,1.982-1.659
		C55.894,4.094,55.808,4.772,55.685,5.424z"/>
	<circle cx="40.501" cy="29.499" r="0.5"/>
	<circle cx="40.501" cy="31.499" r="0.5"/>
	<circle cx="38.501" cy="31.499" r="0.5"/>
	<circle cx="39.501" cy="30.499" r="0.5"/>
	<circle cx="19.501" cy="29.499" r="0.5"/>
	<circle cx="19.501" cy="31.499" r="0.5"/>
	<circle cx="21.501" cy="31.499" r="0.5"/>
	<circle cx="20.501" cy="30.499" r="0.5"/>
	<path d="M35.294,43.292l-5.293,5.293l-5.293-5.293c-0.391-0.391-1.023-0.391-1.414,0s-0.391,1.023,0,1.414l5.293,5.293
		l-0.586,0.586l-1.293-1.293c-0.391-0.391-1.023-0.391-1.414,0s-0.391,1.023,0,1.414l2,2c0.195,0.195,0.451,0.293,0.707,0.293
		s0.512-0.098,0.707-0.293l1.293-1.293l1.293,1.293c0.195,0.195,0.451,0.293,0.707,0.293c0.256,0,0.512-0.098,0.707-0.293l2-2
		c0.391-0.391,0.391-1.023,0-1.414s-1.023-0.391-1.414,0l-1.293,1.293l-0.586-0.586l5.293-5.293c0.391-0.391,0.391-1.023,0-1.414
		S35.685,42.902,35.294,43.292z"/>
</g>
<g>
</g>
<g>
</g>
<g>
</g>
<g>
</g>
<g>
</g>
<g>
</g>
<g>
</g>
<g>
</g>
<g>
</g>
<g>
</g>
<g>
</g>
<g>
</g>
<g>
</g>
<g>
</g>
<g>
</g>
</svg>
