<?xml version="1.0" encoding="UTF-8" standalone="no"?>
<svg
   xmlns:dc="http://purl.org/dc/elements/1.1/"
   xmlns:cc="http://creativecommons.org/ns#"
   xmlns:rdf="http://www.w3.org/1999/02/22-rdf-syntax-ns#"
   xmlns:svg="http://www.w3.org/2000/svg"
   xmlns="http://www.w3.org/2000/svg"
   xmlns:sodipodi="http://sodipodi.sourceforge.net/DTD/sodipodi-0.dtd"
   xmlns:inkscape="http://www.inkscape.org/namespaces/inkscape"
   inkscape:version="1.0beta2 (2b71d25, 2019-12-03)"
   sodipodi:docname="panther-1.svg"
   xml:space="preserve"
   style="enable-background:new 0 0 124.805 124.805;"
   viewBox="0 0 124.805 124.805"
   height="124.805px"
   width="124.805px"
   y="0px"
   x="0px"
   id="Capa_1"
   version="1.1">

<path
     d="
M 111.1,5.103 c -1.8,0 -3.5,0.3 -5.199,1 l -19.601,7.9 c -7.5,-2.7 -15.5,-4.1 -23.8,-4.1 -8.2,0 -16.2,1.4 -23.8,4.1 l -19.6,-7.9 c -1.7,-0.7 -3.4,-1 -5.2,-1 -7.7,0 -13.9,6.2 -13.9,13.9 l 0.1,48.4 v 1.101 c 2.2,28.699 29.6,51.199 62.3,51.199 32.8,0 60.2,-22.5 62.3,-51.199 v -1.101 l 0.1,-48.5 c 0.2,-7.601 -6,-13.8 -13.7,-13.8 z m -2.2,62.199 c -1.5,20.4 -21.9,36.4 -46.4,36.4 -24.4,0 -44.8,-16 -46.4,-36.4 l -0.1,-45.3 17.4,7.1 c 3.2,1.3 6.9,1.4 10.1,0.2 6,-2.2 12.3,-3.4 18.9,-3.4 6.6,0 13,1.1 19,3.4 3.199,1.2 6.899,1.2 10.1,-0.2 l 17.4,-7.1 z

M 13.900391 4.6035156 C 5.9319924 4.6035156 -0.5 11.035508 -0.5 19.003906 L -0.40039062 67.404297 L -0.40039062 68.523438 L -0.3984375 68.542969 C 1.8242228 97.537572 29.471033 120.20312 62.400391 120.20312 C 95.429049 120.20312 123.07751 97.536752 125.19922 68.541016 L 125.19922 68.521484 L 125.19922 67.404297 L 125.30078 18.916016 C 125.50812 11.036258 119.06796 4.6035156 111.09961 4.6035156 C 109.24549 4.6035156 107.47459 4.9142918 105.71484 5.6386719 L 86.277344 13.472656 C 78.777148 10.797209 70.78666 9.4023438 62.5 9.4023438 C 54.310393 9.4023438 46.319727 10.797185 38.722656 13.472656 L 19.291016 5.640625 L 19.287109 5.6386719 C 17.526448 4.9143407 15.754508 4.6035156 13.900391 4.6035156 z 

M 13.900391 5.6035156 C 15.644835 5.6035156 17.272166 5.8899866 18.910156 6.5644531 L 18.912109 6.5664062 L 38.689453 14.537109 L 38.867188 14.474609 C 46.414266 11.79341 54.356911 10.402344 62.5 10.402344 C 70.743775 10.402344 78.685648 11.79238 86.130859 14.472656 L 86.310547 14.537109 L 106.08984 6.5664062 L 106.0918 6.5644531 C 107.7287 5.8900365 109.35516 5.6035156 111.09961 5.6035156 C 118.53125 5.6035156 124.49345 11.568383 124.30078 18.890625 L 124.30078 18.896484 L 124.19922 67.402344 L 124.19922 68.482422 C 122.112 96.877151 94.965679 119.20312 62.400391 119.20312 C 29.93578 119.20312 2.7858211 96.876335 0.59960938 68.480469 L 0.59960938 67.402344 L 0.5 19.001953 C 0.5010642 11.571275 6.4694515 5.6035156 13.900391 5.6035156 z 

M 15.498047 21.257812 L 15.599609 67.322266 L 15.601562 67.341797 C 17.225873 88.051761 37.881421 104.20117 62.5 104.20117 C 87.217687 104.20117 107.87553 88.04947 109.39844 67.337891 L 109.40039 67.320312 L 109.40039 67.302734 L 109.40039 21.257812 L 91.304688 28.640625 L 91.298828 28.644531 C 88.22743 29.987848 84.656467 29.989456 81.576172 28.833984 L 81.578125 28.835938 C 75.516916 26.512474 69.055946 25.402344 62.400391 25.402344 C 55.739785 25.402344 49.379161 26.613318 43.328125 28.832031 L 43.326172 28.833984 L 43.324219 28.833984 C 40.252005 29.986065 36.673212 29.890768 33.589844 28.638672 L 33.587891 28.638672 L 15.498047 21.257812 z 

M 16.501953 22.746094 L 33.210938 29.564453 C 36.525834 30.91113 40.34562 31.017595 43.671875 29.771484 L 43.675781 29.769531 C 49.623533 27.589186 55.862474 26.402344 62.400391 26.402344 C 68.944835 26.402344 75.281913 27.492995 81.220703 29.769531 L 81.222656 29.769531 L 81.224609 29.769531 C 84.538526 31.012638 88.361521 31.016146 91.689453 29.564453 L 108.40039 22.746094 L 108.40039 67.265625 C 106.9233 87.354045 86.782313 103.20117 62.5 103.20117 C 38.322619 103.20117 18.181238 87.3587 16.599609 67.273438 L 16.501953 22.746094 z 

M 52.299999,68.502998 c 0,5.522847 -4.477153,10 -10,10 -5.522847,0 -10,-4.477153 -10,-10 0,-5.522847 4.477153,-10 10,-10 5.522847,0 10,4.477153 10,10 z

M 92.699997,68.502998 c 0,5.522847 -4.477153,10 -10,10 -5.522847,0 -10,-4.477153 -10,-10 0,-5.522847 4.477153,-10 10,-10 5.522847,0 10,4.477153 10,10 z

 
" />
</svg>
