<?xml version="1.0"?>
<svg xmlns="http://www.w3.org/2000/svg" viewBox="0 0 32 32">
    <path d="M 16 4 C 12.141 4 9 7.196 9 11.125 L 9 12 C 9 12.429744 8.970216 12.839982 8.9277344 13.242188 C 8.075745 15.929085 4.7259323 19.870228 3 21 C 3.9386193 21 6.0242626 20.880369 7.4902344 20.298828 C 7.4613275 22.041907 7.9445638 23.654898 8.9453125 24.982422 C 9.2427284 25.377218 9.5849242 25.727696 9.9511719 26.048828 L 8 28 L 15.552734 28 L 16.447266 28 L 24 28 L 22.046875 26.046875 C 22.412914 25.72566 22.755577 25.377348 23.052734 24.982422 C 24.053276 23.655172 24.538134 22.041511 24.509766 20.298828 C 25.975737 20.880369 28.061381 21 29 21 C 27.274068 19.870228 23.924255 15.929975 23.072266 13.242188 C 23.029784 12.839993 23 12.429744 23 12 L 23 11.125 C 23 7.196 19.859 4 16 4 z M 14 7 C 14.772 7 15.468 7.3002969 16 7.7792969 C 16.532 7.3002969 17.228 7 18 7 C 19.657 7 21 8.343 21 10 L 21 12 C 21 14.178 21.523297 15.970125 22.029297 17.703125 L 22.210938 18.328125 C 22.806938 20.406125 22.538078 22.342297 21.455078 23.779297 C 20.376078 25.211297 18.598266 26 16.447266 26 L 15.552734 26 C 13.402734 26 11.623922 25.211297 10.544922 23.779297 C 9.4619219 22.341297 9.1930625 20.406125 9.7890625 18.328125 L 9.9707031 17.703125 C 10.476703 15.970125 11 14.178 11 12 L 11 10 C 11 8.343 12.343 7 14 7 z 

M 16 12 L 14 13.5 L 16 15 L 18 13.5 L 16 12 z

M 13,10 c 0,0.6 0.6,1.0 1.0,1.0 c 0.6,0 1.0,-0.6 1.0,-1.0 c 0,-0.6 -0.6,-1.0 -1.0,-1.0 c -0.6,0 -1.0,0.6 -1.0,1.0 z

M 17,10 c 0,0.6 0.6,1.0 1.0,1.0 c 0.6,0 1.0,-0.6 1.0,-1.0 c 0,-0.6 -0.6,-1.0 -1.0,-1.0 c -0.6,0 -1.0,0.6 -1.0,1.0 z

"/>
</svg>
