<?xml version="1.0" encoding="iso-8859-1"?>
<!-- Generator: Adobe Illustrator 19.0.0, SVG Export Plug-In . SVG Version: 6.00 Build 0)  -->
<svg version="1.1" id="Layer_1" xmlns="http://www.w3.org/2000/svg" xmlns:xlink="http://www.w3.org/1999/xlink" x="0px" y="0px"
	 viewBox="0 0 512.002 512.002" style="enable-background:new 0 0 512.002 512.002;" xml:space="preserve">
<g>
	<g>
		<path d="M467.872,152.936c-37.465-53.635-96.424-88.701-161.759-96.208c-0.06-0.007-0.119-0.006-0.181-0.011
			c-9.438-4.819-20.109-7.556-31.413-7.556H118.175c-5.632,0-10.199,4.567-10.199,10.199c0,45.112,23.378,84.861,58.652,107.785
			H99.389c-40.458,0-73.372-32.915-73.372-73.373c0-40.458,32.914-73.374,73.372-73.374h70.463c5.632,0,10.199-4.567,10.199-10.199
			C180.051,4.567,175.484,0,169.852,0H99.389C47.683,0,5.617,42.066,5.617,93.771c0,51.705,42.066,93.77,93.77,93.77h128.742
			c2.748,0.176,5.515,0.276,8.306,0.276h38.084c10.333,0,20.136-2.289,28.955-6.359c0.152,0.007,0.301,0.022,0.454,0.022h6.191
			c16.703,1.014,32.703,6.134,46.9,14.926c-19.158,16.449-31.316,40.833-31.316,68.004c0,17.25,14.034,31.284,31.285,31.284
			c17.25,0,31.284-14.034,31.284-31.284c0-8.511,3.955-16.113,10.12-21.076c5.786,12.251,9.467,25.581,10.736,39.039
			c-0.407,23.467-6.12,66.716-39.289,96.777c-18.032,16.343-37.053,22.827-57.922,27.779c-9.95-18.201-40.72-29.291-58.231-29.291
			c-22.786,0-41.324,18.538-41.324,41.324c0,9.539,3.273,18.618,9.084,25.857c-5.812,7.239-9.084,16.318-9.084,25.857
			c0,22.786,18.538,41.324,41.324,41.324c18.549,0,51.976-12.446,59.772-32.605l1.092-0.061
			c42.845-2.349,84.964-19.381,118.598-47.961c33.3-28.295,57.2-66.909,67.297-108.727
			C514.688,263.668,503.119,203.397,467.872,152.936z M294.721,470.676c0,2.761-4.299,8.004-13.737,12.99
			c-10.319,5.453-21.384,7.935-27.299,7.935c-11.538,0-20.926-9.387-20.926-20.926c0-6.985,3.47-13.486,9.284-17.389
			c2.822-1.894,4.514-5.07,4.514-8.468s-1.692-6.573-4.514-8.468c-5.814-3.902-9.284-10.403-9.284-17.389
			c0-11.538,9.387-20.926,20.926-20.926c5.916,0,16.981,2.484,27.299,7.934c9.438,4.987,13.737,10.23,13.737,12.991V470.676z
			 M274.519,167.42h-26.967c-0.748-0.174-1.522-0.276-2.322-0.276h-16.544c-52.602-3.746-94.917-45.311-99.835-97.586h145.668
			c26.981,0,48.932,21.95,48.932,48.932C323.451,145.469,301.501,167.42,274.519,167.42z M367.874,264.411
			c0,6.002-4.883,10.886-10.886,10.886c-6.003,0-10.887-4.883-10.887-10.886c0-38.169,31.052-69.221,69.221-69.221
			c6.003,0,10.887,4.883,10.887,10.886c0,6.003-4.883,10.887-10.887,10.887C389.16,216.963,367.874,238.248,367.874,264.411z
			 M480.618,317.858c-18.876,78.172-86.788,135.921-165.499,140.996V427.13c23.568-5.505,46.532-13.028,68.418-32.863
			c39.141-35.474,45.618-85.483,45.995-112.135c0.005-0.353-0.008-0.704-0.04-1.055c-1.349-15.06-5.279-29.993-11.465-43.841
			c15.988-1.377,28.58-14.821,28.58-31.161c0-17.25-14.034-31.284-31.285-31.284c-14.34,0-27.901,3.391-39.933,9.405
			c-14.428-10.494-30.714-17.6-47.946-20.993c10.223-12.081,16.405-27.685,16.405-44.713c0-13.078-3.643-25.321-9.964-35.771
			c47.308,12.608,89.007,41.446,117.263,81.899C483.003,210.219,493.468,264.642,480.618,317.858z
                        M198.619,86.509c-7.208,0-13.072,5.865-13.072,13.072s5.865,13.071,13.072,13.071s13.071-5.864,13.071-13.071
			S205.827,86.509,198.619,86.509z
                        M245.229,0h-19.663c-5.632,0-10.199,4.567-10.199,10.199c0,5.632,4.567,10.199,10.199,10.199h19.663
			c5.632,0,10.199-4.567,10.199-10.199C255.428,4.567,250.861,0,245.229,0z"/>
	</g>
</g>
<g>
</g>
<g>
</g>
<g>
</g>
<g>
</g>
<g>
</g>
<g>
</g>
<g>
</g>
<g>
</g>
<g>
</g>
<g>
</g>
<g>
</g>
<g>
</g>
<g>
</g>
<g>
</g>
<g>
</g>
</svg>
