<?xml version="1.0" encoding="UTF-8" standalone="no"?>
<svg
   xmlns:dc="http://purl.org/dc/elements/1.1/"
   xmlns:cc="http://creativecommons.org/ns#"
   xmlns:rdf="http://www.w3.org/1999/02/22-rdf-syntax-ns#"
   xmlns:svg="http://www.w3.org/2000/svg"
   xmlns="http://www.w3.org/2000/svg"
   xmlns:xlink="http://www.w3.org/1999/xlink"
   xmlns:sodipodi="http://sodipodi.sourceforge.net/DTD/sodipodi-0.dtd"
   xmlns:inkscape="http://www.inkscape.org/namespaces/inkscape"
   sodipodi:docname="puma-2a.svg"
   inkscape:version="1.0beta2 (2b71d25, 2019-12-03)"
   id="svg8"
   version="1.1"
   viewBox="-95 -70 410 460"
   height="297mm"
   width="210mm">

      <path
         
         d="
M 67.82909,360.8975 C 43.460885,355.69521 40.409226,328.39075 31.848973,309.53975 6.8906607,265.18516 -43.793797,241.22207 -64.260953,193.57749 -87.747163,145.17799 -83.308036,87.402779 -63.322562,38.630852 -90.870729,25.293287 -101.19664,-15.460496 -78.545244,-37.820163 c 19.365171,-20.848309 54.128333,-13.572703 70.7899359,7.073988 33.3547671,-25.279556 75.7895341,-36.326868 117.2928181,-33.84468 41.48888,-2.550356 83.96964,8.572856 117.29281,33.84468 16.65213,-20.520358 51.08861,-27.905398 70.57212,-7.30853 22.53704,21.990265 12.93127,62.742756 -14.37071,76.364252 7.36117,22.662984 15.37607,47.313766 15.76471,72.109893 4.93633,52.44363 -18.58351,105.00302 -58.28248,138.97962 -25.1036,24.74547 -55.19158,49.00391 -62.5755,85.42504 -5.2117,17.932 -23.64698,29.60835 -41.93195,26.94423 -22.37212,-0.39957 -44.942677,0.75884 -67.190611,-0.61571 l -0.986809,-0.25505 z m 35.35842,-9.20673 c 20.8309,-2.5536 50.58708,8.7783 62.566,-14.96581 6.67659,-18.49316 12.398,-38.01868 26.29931,-52.74072 28.0054,-33.89902 68.36184,-58.72567 84.7661,-101.21504 6.61853,-15.77799 10.89011,-32.65966 11.75268,-49.77198 -22.63846,-2.03273 -49.62559,-5.26439 -61.8291,-27.37059 -2.92474,-10.364455 -28.85096,-34.814804 -20.74796,-9.489664 -2.83391,23.230574 -27.45635,18.769234 -41.72107,13.596104 -12.4091,2.01574 -32.6411,0.56524 -29.79522,18.92747 2.44839,6.55159 -4.58911,20.60765 3.458,22.88067 9.66854,-0.50578 -2.91939,-26.64689 12.02068,-30.49499 10.77786,-10.45977 20.32412,8.40369 5.01886,9.065 -9.18842,15.25138 8.13719,48.64216 -20.84234,48.01107 -13.54927,8.67577 -29.26546,25.09316 -7.69981,36.75923 22.45392,16.29085 60.57587,4.78696 64.42303,-24.35776 6.70908,-23.87866 -21.51876,-33.79809 -29.46901,-47.29821 19.04774,-6.96021 38.72581,19.46124 40.21741,37.97384 3.45014,36.47398 -13.22237,70.33153 -28.11478,102.42894 -9.38232,17.18169 -7.47678,39.8471 -20.56545,54.42947 -10.21016,6.0017 -22.73213,1.8549 -34.00013,3.07832 -16.02374,-0.523 -32.37897,1.06668 -48.192746,-0.79449 C 50.954418,328.6004 56.157011,299.62443 44.671436,281.25698 28.956669,248.05111 11.350181,211.52457 18.929232,173.83072 c 2.245106,-14.3988 28.494352,-43.7945 39.122766,-27.41075 -15.391084,8.78697 -34.050611,23.04867 -29.803631,44.21873 3.732473,27.52737 38.717276,39.90145 61.341982,26.14328 15.456161,-7.22006 18.906571,-23.33319 3.714217,-31.84242 -9.720108,-10.43027 -32.420342,-8.22414 -26.256946,-29.14423 2.457209,-14.02574 -1.104442,-25.55531 -11.622383,-32.72447 12.965718,-14.49487 27.02079,12.40294 22.183125,25.56936 -0.533482,8.30112 11.56084,0.32446 7.054506,-6.19989 2.248888,-15.55339 -1.125383,-34.85283 -21.562005,-31.53176 -10.686368,-4.52354 -18.15541,2.2977 -28.238587,4.2161 -20.448808,3.81319 -21.442561,-26.22128 -23.434913,-30.066219 -18.1747501,7.932462 -20.4266278,33.285869 -40.24502,39.650449 -11.180898,7.77511 -32.754221,3.07588 -40.400254,10.59857 3.024,42.35986 25.260135,81.7112 57.46654,108.89097 24.586659,24.31441 53.950605,48.41243 61.530778,83.96489 3.613961,19.43505 24.14892,26.79609 41.746797,23.67121 3.887004,-0.0555 7.774127,-0.10246 11.661306,-0.14377 z 

M 82.724843,327.81876 c 1.161377,-18.22746 -7.340981,14.31913 0,0 z m 43.013097,2.11666 c -0.41376,-10.974 2.89486,-46.49933 15.58781,-22.98831 5.47265,10.28228 9.383,29.10837 11.55356,6.80991 6.65005,-33.59376 27.59106,-61.9646 35.15014,-95.16792 -10.37602,8.6606 -25.38152,10.27817 -24.86377,26.83338 -0.90812,13.82428 -18.56492,40.39448 -20.29014,12.57931 -1.74688,-15.27319 -0.9785,-31.35354 -20.09917,-33.13706 -9.85794,-8.37955 -14.38882,-15.57182 -23.342388,-2.07182 -16.79423,4.51839 -23.690457,13.86509 -22.664274,31.50739 2.910773,13.72578 -11.955918,25.23942 -15.247794,6.26587 -7.566811,-10.82096 -3.144363,-30.84453 -18.609027,-33.84154 -20.908119,-19.53484 -5.230568,13.01161 -0.897496,23.95504 12.302607,23.84557 21.186997,49.26577 27.494801,75.287 1.388789,-17.51711 24.812607,-42.09071 22.572223,-10.05416 -3.647915,15.31758 5.612379,16.79731 17.455095,15.16944 4.90804,-0.80153 12.99937,1.58013 16.20043,-1.14653 z 

m 14.12638,0 c -3.32615,-20.01053 -6.86334,8.25602 0,0 z M 68.433592,239.88889 c 1.5575,-19.55442 -11.55823,4.25617 -0.604572,3.9422 z m 84.798838,2.74591 c 10.08222,-13.13376 -10.44284,-13.41653 -2.09792,0.56449 0.0626,1.65734 1.5041,7.60966 2.09792,-0.56449 z 

m -41.17494,-56.87054 c 5.33301,-12.16801 20.63411,-17.67631 29.06458,-21.58356 -17.9156,-7.80796 -39.29019,-5.80354 -58.224066,-2.40947 -15.179925,7.8846 20.888596,5.36532 20.018576,18.85099 1.91583,3.20381 4.70358,7.71764 9.14091,5.14204 z 

m -2.51998,-37.24482 c 12.05234,3.17221 17.32224,-0.27988 14.62006,-12.30231 -4.07601,-18.40851 7.93121,-37.511005 28.1706,-35.253 17.87873,3.26318 5.14982,-18.271407 18.11197,-24.774353 17.09304,-10.289821 42.27739,-4.893416 55.6445,9.552916 9.15354,16.840477 22.46022,33.279247 43.27925,34.316517 17.60069,7.52268 23.25037,0.0991 18.58249,-16.83769 C 283.59243,40.052755 243.46399,-21.127482 183.06781,-43.418711 149.10132,-57.302268 111.66495,-54.915403 75.842664,-53.334379 13.631525,-47.002231 -40.907239,-0.86296964 -59.600803,58.457912 c -7.10743,20.614915 -9.957367,42.452128 -10.004079,64.196588 19.940236,-2.16042 44.722702,-4.11715 54.602854,-24.771729 9.4904309,-22.880752 39.158578,-32.782842 61.153848,-23.432377 15.884403,5.10807 2.295984,29.532476 20.551871,26.502626 22.753867,-2.864324 31.980303,19.67897 28.192126,38.49808 -2.614776,14.27693 4.145774,8.30244 14.641693,9.06834 z 

m -2.64942,-22.1368 c -6.32493,-8.80655 -0.52153,-22.27285 -3.80583,-32.109723 -6.943143,-4.721101 -39.417757,-2.656341 -23.448336,-15.426543 22.182366,6.813055 40.263256,3.029341 62.476256,0.766243 9.69557,19.446547 -35.88919,2.059669 -27.10097,25.446233 -1.35121,6.21083 4.34118,25.33963 -8.12112,21.32379 z 

M 51.267803,51.863903 C 41.847388,35.980923 73.861498,4.4834482 79.655779,18.506949 69.564785,28.584669 62.296973,44.690431 51.267803,51.863903 Z 

m 114.449577,-0.12078 c -6.8984,-12.129682 -27.52271,-27.346375 -24.9286,-38.185314 16.66138,2.823282 31.88674,21.442195 27.03055,38.29761 l -0.96452,0.482687 z

M 39.742319,103.72505 C 63.370392,89.194878 19.686378,68.056098 23.684628,96.501331 c 1.747518,6.645569 9.932106,10.198209 16.057691,7.223719 z 

m 149.433881,-0.085 c 23.05956,-14.351161 -19.19639,-34.729372 -16.3101,-7.835591 1.61952,6.956481 9.81824,11.163901 16.3101,7.835591 z 

M -57.15542,26.998234 c 16.213596,-13.83759 -17.551497,-20.1137742 -7.623699,-37.757967 6.299114,-23.509533 32.111159,-8.422813 42.00087,-7.332549 15.5224464,-14.28646 -24.492993,-27.177255 -36.756371,-20.116296 -25.380727,8.93202 -27.700442,46.2919031 -7.214001,61.787072 2.493118,0.685961 7.952283,9.31984 9.593201,3.41974 z 

m 337.96654,0.366578 c 22.36451,-12.62258 26.39129,-49.445813 2.99059,-63.086344 -14.62442,-9.846686 -43.35873,-1.797295 -46.68148,13.26107 9.85465,15.787339 28.37268,-15.17817 41.94233,3.884816 13.22118,11.7667908 0.77264,29.970435 -7.8163,36.863164 2.9952,2.250671 4.60812,15.044155 9.56486,9.077294 z 

M -42.934514,4.5379192 c 14.012991,-7.6629935 8.989931,-21.6499422 -6.448594,-18.0444932 -12.916283,2.611368 -1.054393,29.575997 6.448594,18.0444932 z 

M 266.10018,7.7124678 c 23.25067,-10.767049 -8.42788,-33.5478638 -12.79574,-13.9710555 4.49657,3.5118669 8.00205,12.9773694 12.79574,13.9710555 z
" />
</svg>
