<svg xmlns="http://www.w3.org/2000/svg" viewBox="0 0 32 32">
    <path d="M 14.03125 2.0625 L 13.3125 3.25 C 12.977808 3.7980767 12.73296 4.4395824 12.53125 5.03125 C 10.368928 3.2378938 8.2539896 3.0155789 8.09375 3 L 6.875 2.875 L 7 4.09375 C 7.391 8.00875 9.21125 12.36275 11.40625 14.84375 C 9.17125 16.60475 8.32475 19.525 8.09375 20.5 L 5 24 C 5 24 8.1335198 30 16 30 L 17 30 C 17 28.37 17.292 27.2635 17.875 26.6875 C 18.602 25.9685 19.9165 25.98 21.3125 26 L 22 26 C 24.533 26 25.59325 23.747 25.90625 22 C 25.90625 22 27 22 27 21 L 26.96875 20.625 C 25.85167 15.356105 21.420243 13.505116 18.0625 13.09375 C 18.100596 11.149161 17.834655 6.5857653 14.90625 3.125 L 14.03125 2.0625 z M 9.21875 5.375 C 11.00175 6.092 14.041 8.16625 15 14.15625 L 15.15625 15.0625 L 16.0625 15 C 16.3555 14.982 22.82975 14.631 24.71875 20 L 24.03125 20 L 24 20.96875 C 23.999 20.99875 23.884 24 22 24 L 21.34375 24 C 19.68175 23.98 17.79075 23.945 16.46875 25.25 C 15.801408 25.907933 15.402062 26.793464 15.1875 27.96875 C 10.889652 27.718315 8.5552441 25.537618 7.5 24.1875 L 9.9375 21.5 L 9.96875 21.1875 C 9.97575 21.1485 10.7505 17.22325 13.4375 15.90625 L 14.8125 15.21875 L 13.65625 14.21875 C 11.93225 12.77475 9.94775 9.239 9.21875 5.375 z M 14.34375 6.125 C 14.748702 6.8918991 15.017286 7.6837247 15.25 8.46875 C 14.905365 7.825621 14.512719 7.2507263 14.125 6.75 C 14.209105 6.5156156 14.275298 6.3602509 14.34375 6.125 z M 19 17 C 18.447715 17 18 17.447715 18 18 C 18 18.552285 18.447715 19 19 19 C 19.552285 19 20 18.552285 20 18 C 20 17.447715 19.552285 17 19 17 z"/>
</svg>
