<?xml version="1.0" encoding="iso-8859-1"?>
<!-- Generator: Adobe Illustrator 19.0.0, SVG Export Plug-In . SVG Version: 6.00 Build 0)  -->
<svg version="1.1" id="Layer_1" xmlns="http://www.w3.org/2000/svg" xmlns:xlink="http://www.w3.org/1999/xlink" x="0px" y="0px"
	 viewBox="0 0 512.001 512.001" style="enable-background:new 0 0 512.001 512.001;" xml:space="preserve">
<path d="M429.147,271.25V68.877C429.147,30.899,398.25,0,360.27,0c-37.973,0-68.864,30.899-68.864,68.877v81.104
	c-23.117-5.848-46.697-6.113-70.811,0.03V68.877C220.596,30.899,189.703,0,151.731,0c-37.98,0-68.877,30.899-68.877,68.877v202.369
	c-19.517,36.752-30.253,75.004-30.253,108.193c0,103.341,100.406,132.554,203.362,132.56c0.013,0,0.025,0.002,0.038,0.002
	c0.013,0,0.025-0.002,0.038-0.002c102.939-0.007,203.362-29.211,203.362-132.56C459.4,346.089,448.289,307.374,429.147,271.25z
	 M327.127,68.877c0-18.282,14.868-33.156,33.143-33.156c18.282,0,33.156,14.874,33.156,33.156v149.489
	c-20.257-23.888-42.7-42.276-66.299-54.611L327.127,68.877L327.127,68.877z M118.575,68.877c0-18.282,14.873-33.156,33.156-33.156
	c18.276,0,33.144,14.874,33.144,33.156v94.988c-25.181,13.257-47.914,33.018-66.3,54.586
	C118.575,218.451,118.575,68.877,118.575,68.877z M256.001,406.549l-12.274-12.863h24.546L256.001,406.549z M273.861,475.966
	v-36.389l35.23-36.924c16.015-16.78,4.103-44.687-19.125-44.687h-67.933c-23.194,0-35.161,27.883-19.126,44.686l35.233,36.924
	v36.389c-74.461-2.627-149.818-22.34-149.818-96.529c0-78.793,77.497-198.218,167.679-198.218
	c85.135,0,167.679,112.792,167.679,198.218C423.679,453.625,348.323,473.339,273.861,475.966z M188.994,304.986
	c0.012-13.049-10.557-23.637-23.606-23.648c-13.049-0.012-23.637,10.557-23.648,23.606c-0.012,13.049,10.557,23.637,23.606,23.648
	C178.395,328.604,188.983,318.035,188.994,304.986z M369.334,305.144c0.012-13.049-10.557-23.637-23.606-23.648
	c-13.049-0.012-23.637,10.557-23.648,23.606c-0.012,13.049,10.557,23.637,23.606,23.648
	C358.734,328.761,369.322,318.193,369.334,305.144z"/>
<g>
</g>
<g>
</g>
<g>
</g>
<g>
</g>
<g>
</g>
<g>
</g>
<g>
</g>
<g>
</g>
<g>
</g>
<g>
</g>
<g>
</g>
<g>
</g>
<g>
</g>
<g>
</g>
<g>
</g>
</svg>
