<?xml version="1.0"?>
<svg xmlns="http://www.w3.org/2000/svg" viewBox="-7 9 32 32">
    <path d="M 10.59375 2.96875 L 9.9375 3 C 8.2285 3.098 5 4.48 5 9 C 5 11.037 6.0895 12.3985 7.1875 13.1875 C 6.1875 14.2075 5 16.017 5 19 C 5 19.36 5.056 19.696 5.125 20 L 3 20 L 3 22 L 10 22 C 10.018 22.322 10.064 22.713 10.125 23.125 L 3.84375 24 L 4.15625 26 L 10.625 25.0625 C 10.918 25.8735 11.33775 26.67175 11.96875 27.34375 C 12.99575 28.43575 14.345 29 16 29 C 17.655 29 19.00425 28.43575 20.03125 27.34375 C 20.66225 26.67275 21.082 25.8735 21.375 25.0625 L 27.84375 26 L 28.15625 24 L 21.875 23.125 C 21.936 22.714 21.983 22.322 22 22 L 29 22 L 29 20 L 26.875 20 C 26.945 19.696 27 19.36 27 19 C 27 16.017 25.8125 14.2075 24.8125 13.1875 C 25.9105 12.3985 27 11.037 27 9 C 27 4.48 23.7715 3.099 22.0625 3 L 21.40625 2.96875 L 19.71875 6.34375 C 19.48375 6.23775 19.246 6.14775 19 6.09375 C 17.725 5.81375 16.641 6.33925 16 6.78125 C 15.359 6.33825 14.285 5.81375 13 6.09375 C 12.755 6.14775 12.51625 6.23775 12.28125 6.34375 L 10.59375 2.96875 z M 9.4375 5.125 L 10.6875 7.59375 C 9.8505 8.52275 9.0945 9.876 8.4375 11.625 C 7.7865 11.194 7 10.386 7 9 C 7 6.257 8.5335 5.396 9.4375 5.125 z M 22.5625 5.125 C 23.4705 5.397 25 6.26 25 9 C 25 10.387 24.2125 11.196 23.5625 11.625 C 22.9055 9.875 22.1505 8.52275 21.3125 7.59375 L 22.5625 5.125 z M 13.78125 8.03125 C 14.572072 8.0457285 15.18575 8.68575 15.1875 8.6875 L 15.46875 9 L 16.53125 9 L 16.8125 8.6875 C 16.8205 8.6795 17.6135 7.8545 18.5625 8.0625 C 19.2805 8.2195 20.7005 9.1115 22.0625 13.3125 L 22.1875 13.71875 L 22.5625 13.90625 C 22.5865 13.91725 25 15.145 25 19 C 25 19.388 24.88525 19.74 24.78125 20 L 19.9375 20 L 20 21.0625 C 20.002 21.0945 20.18275 24.316 18.59375 26 C 17.95075 26.68 17.095 27 16 27 C 14.906 27 14.05025 26.681 13.40625 26 C 11.81825 24.316 11.998 21.0955 12 21.0625 L 12.0625 20 L 7.21875 20 C 7.11375 19.74 7 19.388 7 19 C 7 15.206 9.3465 13.95325 9.4375 13.90625 L 9.8125 13.71875 L 9.9375 13.3125 C 11.2945 9.1285 12.7225 8.2255 13.4375 8.0625 C 13.556375 8.035625 13.668275 8.0291816 13.78125 8.03125 z M 13 15 C 12.447715 15 12 15.447715 12 16 C 12 16.552285 12.447715 17 13 17 C 13.552285 17 14 16.552285 14 16 C 14 15.447715 13.552285 15 13 15 z M 19 15 C 18.447715 15 18 15.447715 18 16 C 18 16.552285 18.447715 17 19 17 C 19.552285 17 20 16.552285 20 16 C 20 15.447715 19.552285 15 19 15 z M 16 24 C 14.895431 24 14 24.447715 14 25 C 14 25.552285 14.89543 26 16 26 C 17.104569 26 18 25.552285 18 25 C 18 24.447715 17.104569 24 16 24 z" transform="translate(-7 9)"/>
</svg>
