<?xml version="1.0" encoding="UTF-8" standalone="no"?>
<svg
   xmlns:dc="http://purl.org/dc/elements/1.1/"
   xmlns:cc="http://creativecommons.org/ns#"
   xmlns:rdf="http://www.w3.org/1999/02/22-rdf-syntax-ns#"
   xmlns:svg="http://www.w3.org/2000/svg"
   xmlns="http://www.w3.org/2000/svg"
   xmlns:sodipodi="http://sodipodi.sourceforge.net/DTD/sodipodi-0.dtd"
   xmlns:inkscape="http://www.inkscape.org/namespaces/inkscape"
   inkscape:version="1.0beta2 (2b71d25, 2019-12-03)"
   sodipodi:docname="rhino-1.svg"
   xml:space="preserve"
   style="enable-background:new 0 0 512 512;"
   viewBox="0 0 512 512"
   y="0px"
   x="0px"
   id="Layer_1"
   version="1.1">


<path
     d="m 481.581,4.883 c -6.503,-6.506 -17.069,-6.511 -23.578,0 l -51.75,51.749 C 378.723,22.551 336.613,0.71 289.492,0.71 h -66.69 C 180.087,0.71 139.268,19 110.812,50.891 V 50.89 c -1.697,1.902 -3.336,3.846 -4.927,5.822 L 54.054,4.883 c -6.51,-6.51 -17.067,-6.51 -23.578,0 -32.576,32.576 -32.584,85.309 0,117.891 11.8,11.801 26.215,19.6 42.151,22.787 -0.145,4.183 -0.099,-10.64 -0.099,192.242 0,19.463 7.085,38.417 19.545,53.368 l 47.368,56.842 v 13.97 c 0,27.58 22.438,50.017 50.018,50.017 h 133.38 c 27.58,0 50.018,-22.438 50.018,-50.017 v -13.975 l 47.369,-56.838 c 12.46,-14.952 18.988,-33.905 18.988,-53.368 0,-202.906 0.046,-188.027 -0.102,-192.294 15.844,-3.218 30.732,-10.994 42.473,-22.735 32.499,-32.501 32.499,-85.387 -0.004,-117.89 z M 77.708,112.486 c -8.873,-2.115 -17.014,-6.65 -23.654,-13.289 -15.7,-15.7 -18.491,-38.76 -9.787,-56.942 l 43.355,43.353 c -4.155,8.618 -7.474,17.618 -9.914,26.878 z m 316.9,257.337 -51.233,61.475 c -2.498,2.997 -3.866,6.775 -3.866,10.675 v 20.011 c 0,9.193 -7.479,16.672 -16.672,16.672 h -133.38 c -9.193,0 -16.673,-7.479 -16.673,-16.672 v -20.007 c 0,-3.9 -1.367,-7.677 -3.865,-10.674 L 117.687,369.824 C 110.21,360.853 105.759,349.48 105.759,337.803 V 150.762 c 0,-28.697 10.845,-56.282 29.932,-77.67 V 73.091 C 157.828,48.283 189.576,34.055 222.8,34.055 h 66.69 c 64.352,0 116.485,52.355 116.485,116.707 v 187.041 h 0.002 c 0,11.678 -3.894,23.049 -11.369,32.02 z M 458.003,99.197 c -6.582,6.582 -14.648,11.079 -23.434,13.219 -2.479,-9.371 -5.839,-18.386 -9.995,-26.948 l 43.197,-43.195 c 8.859,18.587 5.602,41.553 -9.768,56.924 z
M 42.265625 -0.49609375 C 37.869757 -0.49609503 33.474097 1.1787617 30.123047 4.5292969 C -2.6436979 37.296042 -2.6517265 90.354191 30.123047 123.12695 C 41.887344 134.89225 56.257548 142.68163 72.126953 145.93945 C 71.984313 149.99984 72.027344 135.3392 72.027344 337.80273 C 72.027344 357.38708 79.156078 376.45119 91.689453 391.49023 L 138.94141 448.19336 L 138.94141 461.98242 C 138.94141 489.83361 161.60781 512.5 189.45898 512.5 L 322.83984 512.5 C 350.69103 512.5 373.35742 489.83262 373.35742 461.98242 L 373.35742 448.18945 L 420.60938 391.49023 C 433.14742 376.44458 439.71484 357.37754 439.71484 337.80273 C 439.71484 135.31513 439.75697 150.03094 439.61133 145.88672 C 455.39716 142.59975 470.22775 134.83866 481.93945 123.12695 C 514.63022 90.434179 514.62835 37.224054 481.93359 4.5292969 C 475.23915 -2.1670468 464.34844 -2.1727648 457.64844 4.5292969 L 406.27148 55.908203 C 378.64427 21.961002 336.56917 0.2109375 289.49219 0.2109375 L 222.80273 0.2109375 C 180.35995 0.2109375 139.82387 18.254232 111.3125 49.679688 L 111.3125 49.578125 L 110.43945 50.556641 C 110.43914 50.556987 110.43976 50.558247 110.43945 50.558594 C 108.86 52.328889 107.33992 54.140967 105.85352 55.974609 L 54.408203 4.5292969 C 51.057646 1.1787397 46.661493 -0.49609247 42.265625 -0.49609375 z M 42.265625 0.49804688 C 46.403507 0.49804559 50.541729 2.0768853 53.701172 5.2363281 L 105.92578 57.458984 L 106.27539 57.025391 C 107.85153 55.067845 109.47502 53.143258 111.1543 51.259766 C 111.16475 51.248039 111.17509 51.236333 111.18555 51.224609 C 111.18586 51.224263 111.18524 51.223003 111.18555 51.222656 C 139.54659 19.438672 180.23093 1.2109375 222.80273 1.2109375 L 289.49219 1.2109375 C 336.45868 1.2109375 378.42428 22.976963 405.86328 56.945312 L 406.21289 57.378906 L 458.35742 5.2363281 C 464.67505 -1.0832453 474.91491 -1.0782352 481.22656 5.2363281 C 513.53781 37.547571 513.53771 90.110696 481.23047 122.41992 C 469.56102 134.08895 454.76115 141.81879 439.01172 145.01758 L 438.59766 145.10156 L 438.61133 145.52539 C 438.7606 149.82905 438.71484 134.89666 438.71484 337.80273 C 438.71484 357.15393 432.22375 375.99127 419.8418 390.84961 L 372.35742 447.82617 L 372.35742 461.98242 C 372.35742 489.29023 350.14866 511.5 322.83984 511.5 L 189.45898 511.5 C 162.15016 511.5 139.94141 489.29124 139.94141 461.98242 L 139.94141 447.83203 L 92.457031 390.85156 C 80.070407 375.98861 73.027344 357.14439 73.027344 337.80273 C 73.027344 134.92066 72.980663 149.79834 73.126953 145.57812 L 73.140625 145.1543 L 72.724609 145.07031 C 56.885567 141.9027 42.563998 134.15484 30.830078 122.41992 C -1.5631485 90.028684 -1.5551771 37.621583 30.830078 5.2363281 C 33.990028 2.0768633 38.127743 0.49804816 42.265625 0.49804688 z M 222.80078 33.554688 C 189.43403 33.554688 157.55024 47.843479 135.31836 72.757812 L 135.31836 72.759766 L 135.19141 72.900391 L 135.19141 72.916016 C 116.10835 94.371946 105.25977 122.00619 105.25977 150.76172 L 105.25977 337.80273 C 105.25977 349.60679 109.75515 361.08885 117.30273 370.14453 L 168.53516 431.62305 C 170.95831 434.53025 172.2832 438.1934 172.2832 441.97656 L 172.2832 461.98438 C 172.2832 471.4486 179.99285 479.15625 189.45703 479.15625 L 322.83789 479.15625 C 332.30208 479.15625 340.00977 471.44856 340.00977 461.98438 L 340.00977 441.97266 C 340.00977 438.18958 341.3366 434.5244 343.75977 431.61719 L 394.99219 370.14258 C 402.54553 361.07755 406.47656 349.59188 406.47656 337.80273 L 406.47656 337.30273 L 406.47461 337.30273 L 406.47461 150.76172 C 406.47461 86.139678 354.11343 33.554688 289.49023 33.554688 L 222.80078 33.554688 z M 222.80078 34.554688 L 289.49023 34.554688 C 353.57104 34.554688 405.47461 86.67976 405.47461 150.76172 L 405.47461 337.82617 C 405.46935 349.3847 401.61621 360.63104 394.22461 369.50195 L 342.99023 430.97852 C 340.4174 434.0653 339.00977 437.95573 339.00977 441.97266 L 339.00977 461.98438 C 339.00977 470.90619 331.75971 478.15625 322.83789 478.15625 L 189.45703 478.15625 C 180.53522 478.15625 173.2832 470.90615 173.2832 461.98438 L 173.2832 441.97656 C 173.2832 437.95972 171.87558 434.06921 169.30273 430.98242 L 118.07031 369.50391 C 110.66389 360.61759 106.25977 349.35268 106.25977 337.80273 L 106.25977 150.76172 C 106.25977 122.19069 117.05701 94.724634 136.06445 73.425781 L 136.06445 73.423828 C 136.07 73.417611 136.07648 73.412466 136.08203 73.40625 C 158.12341 48.716103 189.72786 34.554688 222.80078 34.554688 z M 44.121094 41.402344 L 43.816406 42.039062 C 35.023338 60.40712 37.849024 83.698633 53.701172 99.550781 C 60.405166 106.25377 68.629083 110.83627 77.591797 112.97266 L 78.066406 113.08594 L 78.191406 112.61328 C 80.62328 103.38412 83.93117 94.413379 88.072266 85.824219 L 88.226562 85.505859 L 44.121094 41.402344 z M 467.91797 41.419922 L 423.96875 85.365234 L 424.125 85.685547 C 428.26702 94.218751 431.61523 103.20331 434.08594 112.54297 L 434.21094 113.01758 L 434.6875 112.90234 C 443.56162 110.74088 451.71152 106.19668 458.35742 99.550781 C 473.87853 84.028667 477.17096 60.832962 468.22266 42.058594 L 467.91797 41.419922 z M 44.455078 43.150391 L 87.03125 85.724609 C 83.010941 94.115077 79.784746 102.86519 77.380859 111.86133 C 68.773533 109.72285 60.871026 105.3056 54.408203 98.84375 C 39.050397 83.485944 36.220257 61.041277 44.455078 43.150391 z M 467.58203 43.169922 C 475.96121 61.449586 472.68621 83.806957 457.65039 98.84375 C 451.24559 105.24855 443.41657 109.62778 434.89453 111.78906 C 432.45268 102.68807 429.18833 93.922024 425.16602 85.583984 L 467.58203 43.169922 z 
M 239.472,428.638 c 0,9.20769 -7.46431,16.672 -16.672,16.672 -9.20769,0 -16.672,-7.46431 -16.672,-16.672 0,-9.20769 7.46431,-16.672 16.672,-16.672 9.20769,0 16.672,7.46431 16.672,16.672
M 222.80078 411.4668 C 213.32287 411.4668 205.62891 419.16076 205.62891 428.63867 C 205.62891 438.11658 213.32287 445.81055 222.80078 445.81055 C 232.27869 445.81055 239.97266 438.11658 239.97266 428.63867 C 239.97266 419.16076 232.27869 411.4668 222.80078 411.4668 z M 222.80078 412.4668 C 231.73825 412.4668 238.97266 419.7012 238.97266 428.63867 C 238.97266 437.57614 231.73825 444.81055 222.80078 444.81055 C 213.86331 444.81055 206.62891 437.57614 206.62891 428.63867 C 206.62891 419.7012 213.86331 412.4668 222.80078 412.4668 z 
M 306.16199,428.638 c 0,9.20769 -7.46431,16.672 -16.672,16.672 -9.20769,0 -16.672,-7.46431 -16.672,-16.672 0,-9.20769 7.46431,-16.672 16.672,-16.672 9.20769,0 16.672,7.46431 16.672,16.672
M 289.49023 411.4668 C 280.01232 411.4668 272.31836 419.16076 272.31836 428.63867 C 272.31836 438.11658 280.01232 445.81055 289.49023 445.81055 C 298.96815 445.81055 306.66211 438.11658 306.66211 428.63867 C 306.66211 419.16076 298.96815 411.4668 289.49023 411.4668 z M 289.49023 412.4668 C 298.42771 412.4668 305.66211 419.7012 305.66211 428.63867 C 305.66211 437.57614 298.42771 444.81055 289.49023 444.81055 C 280.55276 444.81055 273.31836 437.57614 273.31836 428.63867 C 273.31836 419.7012 280.55276 412.4668 289.49023 412.4668 z 
M 172.782,217.453 c 0,9.20769 -7.46431,16.672 -16.672,16.672 -9.20769,0 -16.672,-7.46431 -16.672,-16.672 0,-9.20769 7.46431,-16.672 16.672,-16.672 9.20769,0 16.672,7.46431 16.672,16.672
M 156.10938 200.28125 C 146.63146 200.28125 138.9375 207.97521 138.9375 217.45312 C 138.9375 226.93104 146.63146 234.625 156.10938 234.625 C 165.58729 234.625 173.28125 226.93104 173.28125 217.45312 C 173.28125 207.97521 165.58729 200.28125 156.10938 200.28125 z M 156.10938 201.28125 C 165.04685 201.28125 172.28125 208.51565 172.28125 217.45312 C 172.28125 226.3906 165.04685 233.625 156.10938 233.625 C 147.1719 233.625 139.9375 226.3906 139.9375 217.45312 C 139.9375 208.51565 147.1719 201.28125 156.10938 201.28125 z 
M 372.85199,217.453 c 0,9.20769 -7.46431,16.672 -16.672,16.672 -9.20769,0 -16.672,-7.46431 -16.672,-16.672 0,-9.20769 7.46431,-16.672 16.672,-16.672 9.20769,0 16.672,7.46431 16.672,16.672
M 356.17969 200.28125 C 346.70178 200.28125 339.00781 207.97521 339.00781 217.45312 C 339.00781 226.93104 346.70178 234.625 356.17969 234.625 C 365.6576 234.625 373.35156 226.93104 373.35156 217.45312 C 373.35156 207.97521 365.6576 200.28125 356.17969 200.28125 z M 356.17969 201.28125 C 365.11716 201.28125 372.35156 208.51565 372.35156 217.45312 C 372.35156 226.3906 365.11716 233.625 356.17969 233.625 C 347.24222 233.625 340.00781 226.3906 340.00781 217.45312 C 340.00781 208.51565 347.24222 201.28125 356.17969 201.28125 z 
M 341.357,342.672 c -28.831,-9.43 -33.196,-35.071 -36.434,-39.953 -1.587,-25.733 -4.615,-66.012 -8.613,-104.988 -3.491,-34.037 -7.121,-61.318 -10.792,-81.084 C 280.516,89.703 274.853,67.4 256.146,67.4 c -18.705,0 -24.37,22.302 -29.371,49.247 -3.671,19.767 -7.301,47.046 -10.793,81.083 -4.184,40.79 -7.306,83.005 -8.824,108.482 -0.054,0.15 -0.122,0.292 -0.173,0.446 -6.139,18.419 -17.745,30.536 -34.494,36.014 -8.752,2.862 -13.527,12.277 -10.665,21.028 2.869,8.774 12.302,13.521 21.028,10.665 12.114,-3.961 22.672,-10.141 31.498,-18.333 8.951,13.593 24.339,22.588 41.795,22.588 17.842,0 33.523,-9.398 42.377,-23.496 9.018,8.646 19.909,15.133 32.468,19.241 8.739,2.86 18.163,-1.903 21.029,-10.665 2.863,-8.752 -1.912,-18.165 -10.664,-21.028 z m -85.21,2.603 c -9.193,0 -16.672,-7.479 -16.672,-16.672 0,-6.959 3.003,-58.936 8.467,-115.31 2.939,-30.318 5.724,-52.907 8.205,-69.702 2.481,16.795 5.266,39.384 8.206,69.703 5.464,56.372 8.466,108.349 8.466,115.309 0,9.194 -7.479,16.672 -16.672,16.672 z
M 256.14648 66.900391 C 246.59527 66.900391 240.297 72.664815 235.87305 81.699219 C 231.44909 90.733622 228.78537 103.07517 226.2832 116.55664 C 222.60793 136.34666 218.9772 163.63467 215.48438 197.67969 C 211.30275 238.44654 208.18389 280.61222 206.66406 306.10352 C 206.6211 306.21322 206.56517 306.33269 206.50977 306.5 C 200.40974 324.80207 188.94275 336.76577 172.33594 342.19727 C 163.3271 345.14325 158.40555 354.84759 161.35156 363.85547 C 164.30463 372.88655 174.02686 377.77993 183.00977 374.83984 C 195.00308 370.9183 205.47055 364.80796 214.26758 356.75195 C 223.3503 370.22041 238.71816 379.11914 256.14648 379.11914 C 273.95905 379.11914 289.61825 369.82447 298.61328 355.85547 C 307.6048 364.3569 318.40219 370.77281 330.83594 374.83984 C 339.83189 377.78394 349.54605 372.8744 352.49609 363.85547 C 355.44311 354.84664 350.52044 345.14425 341.51172 342.19727 C 327.2164 337.52157 319.02262 328.85498 313.9668 320.72656 C 311.43889 316.66235 309.70092 312.73384 308.39062 309.50781 C 307.11369 306.36393 306.28572 303.99087 305.41797 302.62305 C 303.82966 276.8808 300.80288 236.63857 296.80664 197.67969 C 293.31482 163.63467 289.68504 136.34567 286.00977 116.55664 C 283.5071 103.07569 280.84375 90.733748 276.41992 81.699219 C 271.9961 72.66469 265.69869 66.900391 256.14648 66.900391 z M 256.14648 67.900391 C 265.30128 67.900391 271.18656 73.285701 275.52148 82.138672 C 279.85641 90.991643 282.52801 103.27523 285.02734 116.73828 C 288.69407 136.48125 292.32232 163.75227 295.8125 197.78125 C 299.80955 236.74796 302.83726 277.02401 304.42383 302.75 L 304.43164 302.88281 L 304.50586 302.99609 C 305.23253 304.09171 306.14505 306.6334 307.46484 309.88281 C 308.78464 313.13222 310.54522 317.11887 313.11719 321.25391 C 318.26112 329.52399 326.66549 338.39218 341.20117 343.14648 C 349.69645 345.9255 354.32391 355.04975 351.54492 363.54492 C 348.76296 372.04999 339.63049 376.66653 331.14844 373.89062 L 331.14648 373.89062 C 318.65413 369.80442 307.83216 363.35696 298.86914 354.76367 L 298.42773 354.33789 L 298.09961 354.85742 C 289.33379 368.81501 273.81291 378.11914 256.14648 378.11914 C 238.86225 378.11914 223.63149 369.2156 214.76953 355.75781 L 214.44531 355.26367 L 214.01172 355.66602 C 205.23954 363.80806 194.74877 369.9507 182.69922 373.89062 C 174.23013 376.66254 165.08572 372.06184 162.30078 363.54492 C 159.52279 355.0508 164.15132 345.9245 172.64648 343.14648 C 189.53767 337.62198 201.28101 325.35234 207.45898 306.81641 L 207.45898 306.81445 C 207.49712 306.69929 207.56366 306.5621 207.62891 306.38086 L 207.65234 306.31445 L 207.65625 306.24219 C 209.17378 280.77308 212.29551 238.56153 216.47852 197.78125 C 219.96969 163.75226 223.5989 136.48227 227.26562 116.73828 L 227.26758 116.73828 C 229.76641 103.27475 232.43644 90.991519 236.77148 82.138672 C 241.10653 73.285825 246.9927 67.900391 256.14648 67.900391 z M 255.65234 143.51758 C 253.16978 160.32318 250.38298 182.91969 247.44336 213.24414 C 244.71078 241.43707 242.59419 268.53033 241.16016 289.44531 C 239.72612 310.36029 238.97461 325.05209 238.97461 328.60352 C 238.97461 338.0677 246.6823 345.77539 256.14648 345.77539 C 265.61063 345.77539 273.31939 338.06874 273.31836 328.60352 C 273.31836 325.05163 272.56855 310.35822 271.13477 289.44336 C 269.70098 268.5285 267.58414 241.43803 264.85156 213.24609 C 261.91094 182.92065 259.12514 160.32318 256.64258 143.51758 L 255.65234 143.51758 z M 256.14844 147.41406 C 258.5071 163.83266 261.10126 184.93876 263.85547 213.3418 C 266.58689 241.52186 268.7035 268.60508 270.13672 289.51172 C 271.56994 310.41836 272.31836 325.1954 272.31836 328.60352 C 272.31933 337.52629 265.06834 344.77539 256.14648 344.77539 C 247.22467 344.77539 239.97461 337.52533 239.97461 328.60352 C 239.97461 325.19594 240.72473 310.42044 242.1582 289.51367 C 243.59167 268.6069 245.70803 241.52286 248.43945 213.3418 C 251.19274 184.93958 253.78977 163.83268 256.14844 147.41406 z " />

</svg>
