<?xml version="1.0" encoding="iso-8859-1"?>
<!-- Generator: Adobe Illustrator 19.0.0, SVG Export Plug-In . SVG Version: 6.00 Build 0)  -->
<svg version="1.1" id="Layer_1" xmlns="http://www.w3.org/2000/svg" xmlns:xlink="http://www.w3.org/1999/xlink" x="0px" y="0px"
	 viewBox="0 0 511.999 511.999" style="enable-background:new 0 0 511.999 511.999;" xml:space="preserve">
<g>
	<g>
		<circle cx="373.621" cy="83.85" r="9.341"/>
	</g>
</g>
<g>
	<g>
		<path d="M505.834,461.606c-0.103-0.037-10.903-4.48-22.962-20.805c-7.737-10.475-16.82-27.05-23.753-52.372
			c19.919-24.772,29.177-55.88,27.534-92.862c-0.097-26.313-17.684-52.465-36.301-80.149
			c-36.647-54.497-55.669-90.303-10.894-127.966c7.26-6.107,10.991-15.192,9.981-24.302c-0.961-8.665-6.01-15.968-13.844-20.031
			c-13.847-7.201-28.663-10.851-44.038-10.851c-6.891,0-13.939,0.752-20.949,2.236c-53.662,11.372-90.895,61.653-87.091,117.289
			c0.03,0.445,0.225,2.913,0.25,3.214c4.008,49.854,8.303,106.201-27.65,151.183l-1.203,1.514
			c-4.352,5.502-12.45,15.743-24.551,25.687c-15.799,12.983-33.796,22.591-38.935,25.226c-10.432,5.35-19.138,8.062-25.875,8.062
			c-12.49,0-22.651-10.156-22.651-22.64c0-6.073,2.373-11.776,6.642-16.022c0.613-0.581,3.374-2.852,5.811-4.856
			c8.636-7.103,16.052-13.286,19.327-17.014c15.055-17.143,19.608-33.425,24.43-50.665c5.107-18.259,10.387-37.14,29.572-60.749
			c2.599-3.198,2.795-7.721,0.483-11.133c-2.312-3.409-6.584-4.904-10.52-3.673c-1.8,0.563-44.609,14.11-88.083,41.746
			c-7.699,4.895-14.928,9.933-21.692,15.097c-38.924-50.512-95.773-58.67-98.295-59.007c-3.886-0.517-7.68,1.442-9.504,4.91
			c-1.825,3.469-1.29,7.707,1.338,10.613c0.39,0.432,38.987,44.044,37.718,122.989c-0.218,13.576-0.134,26.18,0.249,37.464
			c0.05,27.426,7.47,51.169,22.065,70.572c12.271,16.314,29.415,29.009,49.579,36.714c16.638,6.358,40.783,9.583,71.763,9.583
			c56.023,0,114.919-10.212,126.157-12.26c27.056-4.93,50.62-11.086,70.973-18.551c26.218,20.217,65.095,39.475,118.333,39.927
			c0.633,0.006,3.471,0.003,3.471,0.003c4.524-0.03,8.376-3.301,9.143-7.76C512.63,467.512,510.09,463.145,505.834,461.606z
			 M31.38,202.735c18.104,6.774,43.327,20.231,63.006,45.94c-9.662,8.56-18.093,17.418-25.202,26.528
			c-4.147,5.315-7.955,10.794-11.212,16.274C54.573,251.134,41.887,221.238,31.38,202.735z M306.596,439.973
			c-10.96,1.997-68.392,11.957-122.809,11.957c-28.691,0-50.593-2.809-65.094-8.352c-17.931-6.852-59.635-29.348-59.635-90.112
			c0-76.735,91.232-125.42,138.091-145.362c-8.577,15.71-12.461,29.597-16.028,42.35c-4.416,15.788-8.229,29.425-20.475,43.369
			c-2.541,2.893-12.048,10.713-17.157,14.914c-4.184,3.441-6.076,5.004-7.076,5.997c-7.863,7.816-12.193,18.225-12.193,29.309
			c0,22.785,18.541,41.321,41.333,41.321c9.867,0,21.118-3.31,34.399-10.121c5.559-2.85,25.033-13.252,42.272-27.416
			c13.65-11.217,22.899-22.913,27.343-28.533l1.138-1.435c40.51-50.682,35.772-113.479,31.697-164.179
			c-0.029-0.357-0.238-3.017-0.27-3.502c-2.998-46.255,27.88-87.973,72.347-97.397c5.739-1.214,11.484-1.83,17.078-1.83
			c12.345,0,24.262,2.942,35.43,8.748c2.871,1.49,3.698,3.819,3.886,5.511c0.321,2.896-0.964,5.866-3.439,7.948
			c-27.273,22.941-37.262,48.866-30.533,79.258c5.609,25.338,22.05,49.786,37.949,73.429c16.48,24.507,32.076,47.698,33.072,67.916
			c0.034,0.678,0.125,3.997,0.151,4.764c0.821,25.274-3.951,46.82-14.449,65.06c-1.562-8.98-2.855-18.768-3.785-29.443
			c-0.227-37.38-30.706-67.721-68.136-67.721c-37.571,0-68.138,30.567-68.138,68.139c0,13.872,4.146,27.198,11.999,38.599
			c2.315,4.907,14.254,28.633,39.039,52.556C347.611,431.274,328.33,436.013,306.596,439.973z M378.557,413.217
			c-25.159-23.923-36.217-48.281-36.318-48.508c-0.251-0.567-0.559-1.109-0.918-1.616c-5.937-8.385-9.075-18.251-9.075-28.533
			c0-27.27,22.186-49.457,49.456-49.457c27.27,0,49.456,22.186,49.456,49.457c0,0.267,0.012,0.535,0.035,0.802
			c5.852,67.929,25.751,104.578,42.584,123.847C437.346,454.155,405.406,438.746,378.557,413.217z"/>
	</g>
</g>
<g>
</g>
<g>
</g>
<g>
</g>
<g>
</g>
<g>
</g>
<g>
</g>
<g>
</g>
<g>
</g>
<g>
</g>
<g>
</g>
<g>
</g>
<g>
</g>
<g>
</g>
<g>
</g>
<g>
</g>
</svg>
