<?xml version="1.0" encoding="UTF-8" standalone="no"?>
<svg
   xmlns:dc="http://purl.org/dc/elements/1.1/"
   xmlns:cc="http://creativecommons.org/ns#"
   xmlns:rdf="http://www.w3.org/1999/02/22-rdf-syntax-ns#"
   xmlns:svg="http://www.w3.org/2000/svg"
   xmlns="http://www.w3.org/2000/svg"
   xmlns:sodipodi="http://sodipodi.sourceforge.net/DTD/sodipodi-0.dtd"
   xmlns:inkscape="http://www.inkscape.org/namespaces/inkscape"
   inkscape:version="1.0beta2 (2b71d25, 2019-12-03)"
   sodipodi:docname="sheep-2.svg"
   id="svg12"
   version="1.1"
   viewBox="0 0 50 50">

  <path

     d="
M 2.5 1
M 0 50
M 25,1 C 22.587367,0.3758335 21.212303,3.7435794 19.450232,3.3027014 16.948636,2.336364 14.035284,3.8538085 12.824219,6.1230469 9.236763,5.3415821 5.5768207,8.820562 6.0507812,12.433594 2.6463786,13.460623 0.83579152,17.866942 2.8417969,20.888672 0.56632954,22.90279 0.3742744,26.70878 2.5768331,28.852221 c 1.182396,1.604554 -0.1762415,4.769578 2.1665757,6.278998 1.3967636,1.029173 2.6484183,1.435167 2.4462338,3.364242 0.6310203,2.589034 3.1558334,4.558678 5.8259824,4.502586 1.271221,2.236422 4.200274,3.757662 6.677734,2.585937 1.465045,3.44543 6.398813,4.582904 9.13024,1.957386 C 29.884551,46.414975 30.283094,45.078874 32,46 c 2.517434,0.403228 3.873559,-2.271572 5.611474,-3.03111 3.104503,-0.248582 5.722468,-3.282366 5.337745,-6.402484 2.809876,-0.90086 4.802549,-4.175832 3.769531,-7.048828 2.471875,-1.809882 3.076571,-5.65022 1.006813,-7.989247 -0.888699,-1.600523 1.327134,-4.284088 -0.402016,-6.236296 C 46.352953,13.554067 44.381713,13.01119 44.877606,10.79426 44.325943,7.8210222 41.188507,5.4806836 38.175781,6.1230469 36.721433,3.2587616 32.746855,2.035302 30.044922,3.9003906 28.997667,2.1584852 27.051336,0.97654813 25,1 Z m 0,2 c 2.125497,-0.07946 3.654858,1.732768 4.114177,3.6505724 0.561583,0.6979505 1.702551,-1.6642216 2.78641,-1.4931978 2.265437,-0.7387594 4.606489,0.9537065 5.113241,3.1690511 1.465251,-0.3019345 3.611452,-0.6372996 4.818813,0.8409338 1.54772,1.1933115 1.037963,3.4321305 0.88192,4.8346195 2.392899,0.525238 4.061352,3.272086 2.949817,5.576619 -0.331419,0.875897 -1.755203,1.708301 -0.287425,2.224136 2.461273,1.653392 1.960161,5.698761 -0.711225,6.862061 -0.313307,1.007304 0.97683,2.813877 -0.05321,4.056251 -0.676375,1.565322 -2.354882,2.233619 -3.944552,2.388329 0.69377,1.949113 0.240511,4.418721 -1.756353,5.41011 -1.02879,1.052757 -3.119163,-0.452839 -3.355498,1.30963 -1.037817,2.185483 -4.018714,2.795921 -5.948815,1.420828 -1.059953,-0.480075 -0.663076,2.141241 -1.749526,2.529165 -1.965192,2.257992 -6.077517,1.163786 -6.702172,-1.752686 -0.02999,-1.716457 -1.283984,-0.313594 -2.232153,-0.142576 -2.130241,0.593498 -4.306824,-0.927633 -4.88439,-2.97369 C 11.749173,41.443968 9.1835092,39.849679 9.0205281,37.410828 8.7499773,36.40093 10.055966,34.726344 8.3007812,34.927734 5.6640665,34.565008 4.1811131,31.358766 5.4699025,29.069144 4.7925397,27.900085 2.3328321,26.627913 3.0293219,24.514812 2.5309533,22.714834 5.7302704,21.945005 5.1020011,20.76812 3.145306,18.818441 3.9556475,15.104116 6.6200111,14.255276 7.9652536,14.145626 8.6822514,13.826335 8.0271158,12.43371 7.5713231,9.5543624 10.818183,7.1118847 13.47066,8.2785699 14.603282,8.490203 14.406958,6.0339097 15.71558,5.7211786 17.322413,4.493683 19.470229,5.0156166 20.96875,6.140625 21.669465,4.45088 23.021603,2.9475253 25,3 Z m -6.970703,12 c -0.913364,-0.04708 -1.133429,0.98211 -1.070208,1.685627 -1.229272,2.169519 -4.262553,0.904375 -6.254011,1.591717 -2.7181737,-0.234963 -3.4108178,2.76564 -1.8436824,4.526102 1.03064,2.368211 4.8073264,1.047723 5.4336634,3.063038 1.516131,4.844732 3.378843,9.87576 7.071416,13.505036 1.710952,1.780367 4.671442,2.216709 6.610902,0.536705 3.776508,-3.117427 5.621591,-7.897791 7.209449,-12.391193 0.318852,-1.747774 0.76606,-3.08827 2.824276,-2.633417 2.454057,-0.136984 4.957263,-1.918816 4.979117,-4.555575 -0.400084,-2.770025 -4.33393,-2.067903 -6.433116,-2.325896 -1.671763,0.240492 -3.570038,-0.573547 -3.660826,-2.447446 -0.358209,-0.79505 -1.565597,-0.6785 -1.873288,0.100678 -1.266538,2.383866 -4.284116,1.59357 -5.422303,-0.455607 -0.983655,-0.714775 -1.765257,0.633294 -2.345275,1.193308 -1.548239,1.711418 -3.728519,0.374409 -4.682246,-1.212369 C 18.414614,15.069169 18.223064,15.005531 18.029297,15 Z M 25,17.394531 c 1.499765,1.896808 4.594224,2.568987 6.374502,0.683678 0.895977,0.47868 2.820306,2.048642 4.575497,1.930334 1.701116,-0.03986 6.916798,-0.238204 3.876173,2.257082 -1.511057,0.877504 -3.310411,0.643142 -4.954854,0.743363 -1.034199,0.538053 -0.735074,2.023555 -1.240418,2.927667 -1.461681,4.323 -3.132969,8.859369 -6.493968,12.086655 -1.805244,2.015662 -4.486073,0.394103 -5.645397,-1.449122 C 18.549398,32.720265 16.96304,28.039743 15.61703,23.445552 14.785429,22.48338 13.232731,23.271324 12.192325,22.675458 10.388639,22.543166 9.0952235,19.693105 11.784881,20.14794 14.11298,19.892315 17.14102,20.324517 18.556641,17.982422 20.349729,20.000705 23.421927,19.322078 25,17.394531 Z m -5.996094,5.621094 c -3.296224,1.424677 2.462614,4.997905 2.955438,1.387281 0.306704,-1.464523 -1.123735,-1.679853 -1.574767,-0.480074 -0.622426,0.28656 -1.393548,-0.224858 -1.380671,-0.907207 z m 10,0 c -3.296224,1.424677 2.462614,4.997905 2.955438,1.387281 0.306704,-1.464523 -1.123735,-1.679853 -1.574767,-0.480074 -0.622426,0.28656 -1.393548,-0.224858 -1.380671,-0.907207 z M 24,34 c -1.165853,-0.08063 -1.379418,1.793867 -0.225306,1.977553 0.951508,-0.07687 2.070813,0.297108 2.915742,-0.240785 C 27.479786,35.066474 26.700294,33.745315 25.728471,34 25.152314,34 24.576157,34 24,34 Z"
      />
</svg>
