<?xml version="1.0"?>
<svg xmlns="http://www.w3.org/2000/svg" width="24" height="24" viewBox="0 0 24 24">
    <path d="
M 3.8125 0 C 2.8402778 0 1.8113928 0.35108982 1.09375 1.15625 C 0.37610723 1.9614102 0 3.1270833 0 4.59375 C 0 5.70625 0.4873115 6.6848173 1.09375 7.46875 C 1.5187866 8.0181875 2.0178265 8.4620216 2.53125 8.8125 C 1.6718599 10.258935 0.03125 13.54909 0.03125 18 L 0.03125 18.4375 L 0.34375 18.71875 C 1.0626112 19.357738 2.0626256 19.726852 3.28125 20.09375 C 4.3748633 20.42301 5.6288613 20.671553 6.84375 20.875 C 7.1183396 21.368919 7.3937576 21.871151 7.8125 22.34375 C 7.9103425 22.56616 8.0518382 22.724265 8.28125 22.8125 C 9.1456169 23.519709 10.381379 23.96875 12 23.96875 C 13.618621 23.96875 14.854383 23.519709 15.71875 22.8125 C 15.948162 22.724265 16.089658 22.56616 16.1875 22.34375 C 16.606242 21.871151 16.88166 21.368919 17.15625 20.875 C 18.371139 20.671553 19.625137 20.42301 20.71875 20.09375 C 21.937374 19.726852 22.937389 19.357738 23.65625 18.71875 L 23.96875 18.4375 L 23.96875 18 C 23.96875 13.54909 22.32814 10.258935 21.46875 8.8125 C 21.982173 8.4620216 22.481213 8.0181875 22.90625 7.46875 C 23.512689 6.6848173 24 5.70625 24 4.59375 C 24 3.1270833 23.623893 1.9614102 22.90625 1.15625 C 22.188607 0.35108982 21.159722 0 20.1875 0 C 19.481944 0 19.178174 0.43619146 18.96875 0.6875 C 18.759326 0.93880854 18.605757 1.1646783 18.4375 1.375 C 18.100985 1.7956434 17.883333 2 17.5 2 C 16.560258 1.3796436 15.427385 1.03125 14.1875 1.03125 C 13.146765 1.03125 12.530605 1.248581 12 1.4375 C 11.469395 1.248581 10.853235 1.03125 9.8125 1.03125 C 8.5726149 1.03125 7.4397415 1.3796436 6.5 2 C 6.1166667 2 5.8990147 1.7956434 5.5625 1.375 C 5.3942426 1.1646783 5.2406738 0.93880854 5.03125 0.6875 C 4.8218262 0.43619146 4.5180556 3.7007434e-17 3.8125 0 z M 3.59375 2.09375 C 3.6986589 2.2325563 3.8216211 2.4020264 4 2.625 C 4.2246121 2.9057651 4.5408984 3.2328148 4.9375 3.5 C 4.1944098 4.4669371 3.6716022 5.6293256 3.3125 6.90625 C 3.0991195 6.7217868 2.8777552 6.4959397 2.6875 6.25 C 2.2689385 5.7089327 2 5.08125 2 4.59375 C 2 3.4604167 2.2863928 2.8448398 2.59375 2.5 C 2.8455858 2.2174526 3.2028406 2.1382679 3.59375 2.09375 z M 20.40625 2.09375 C 20.797159 2.138268 21.154414 2.2174526 21.40625 2.5 C 21.713607 2.8448398 22 3.4604167 22 4.59375 C 22 5.08125 21.731061 5.7089327 21.3125 6.25 C 21.122245 6.4959397 20.900881 6.7217868 20.6875 6.90625 C 20.328398 5.6293256 19.80559 4.4669371 19.0625 3.5 C 19.459102 3.2328148 19.775388 2.9057651 20 2.625 C 20.178379 2.4020264 20.301341 2.2325563 20.40625 2.09375 z M 9.8125 2.96875 C 10.793955 2.96875 11.166749 3.1291998 11.625 3.3125 L 12 3.46875 L 12.375 3.3125 C 12.833251 3.1291998 13.206045 2.96875 14.1875 2.96875 C 15.512438 2.96875 16.501541 3.5001572 17.3125 4.4375 C 18.123459 5.3748428 18.705137 6.7756869 19.03125 8.40625 L 19.09375 8.59375 L 19.21875 8.78125 C 19.21875 8.78125 19.621023 9.4048481 20.125 10.4375 C 19.71649 10.810255 18.973233 11.421574 17.625 12.125 L 18.5625 13.875 C 19.61752 13.324555 20.371156 12.789861 20.9375 12.34375 C 21.083915 12.751272 21.215401 13.19534 21.34375 13.65625 C 20.917414 14.01889 20.155039 14.598676 18.9375 15.0625 L 19.65625 16.9375 C 20.549136 16.597353 21.240062 16.192798 21.8125 15.8125 C 21.888866 16.339837 21.945975 16.874291 21.96875 17.4375 C 21.625708 17.643125 21.073779 17.942505 20.15625 18.21875 C 19.485715 18.420631 18.713615 18.592851 17.9375 18.75 C 17.599223 14.538684 15.597613 11.646709 13.5 10.1875 C 13.5 10.1875 16.026227 13.624679 16.03125 19.09375 L 15.96875 19.09375 L 15.75 19.53125 C 15.479812 20.037852 15.242537 20.503758 14.9375 20.875 C 12.992503 20.653176 12 18.8125 12 18.8125 C 12 18.8125 10.923494 20.612013 9.0625 20.84375 C 8.7640736 20.476031 8.5155524 20.029161 8.25 19.53125 L 8.03125 19.09375 L 7.96875 19.09375 C 7.9737735 13.624679 10.5 10.1875 10.5 10.1875 C 8.4023874 11.646709 6.4007771 14.538684 6.0625 18.75 C 5.2863851 18.592851 4.514285 18.420631 3.84375 18.21875 C 2.9262213 17.942505 2.3742916 17.643125 2.03125 17.4375 C 2.0540247 16.874291 2.1111339 16.339837 2.1875 15.8125 C 2.7599378 16.192798 3.4508638 16.597353 4.34375 16.9375 L 5.0625 15.0625 C 3.8449607 14.598676 3.0825856 14.01889 2.65625 13.65625 C 2.7845993 13.19534 2.9160847 12.751272 3.0625 12.34375 C 3.6288445 12.789861 4.3824796 13.324555 5.4375 13.875 L 6.375 12.125 C 5.0267669 11.421574 4.28351 10.810255 3.875 10.4375 C 4.3789774 9.4048481 4.78125 8.78125 4.78125 8.78125 L 4.90625 8.59375 L 4.96875 8.40625 C 5.2948626 6.7756869 5.8765405 5.3748428 6.6875 4.4375 C 7.4984595 3.5001572 8.4875625 2.96875 9.8125 2.96875 z M 8.46875 3.96875 C 8.1271948 3.9692767 7.90625 4 7.90625 4 L 8.09375 6 C 8.09375 6 8.6988086 5.929214 9.40625 6.0625 C 10.113691 6.1957861 10.777153 6.4929226 11.125 7.09375 L 11.96875 8.5625 L 12.84375 7.125 C 13.181476 6.5723567 13.90576 6.2396828 14.625 6.09375 C 15.34424 5.9478172 15.9375 6 15.9375 6 L 16.0625 4 C 16.0625 4 15.22451 3.952183 14.21875 4.15625 C 13.514818 4.2990769 12.737698 4.6990989 12.03125 5.28125 C 11.31355 4.6542265 10.505726 4.2302454 9.78125 4.09375 C 9.2724707 3.9978931 8.8103052 3.9682233 8.46875 3.96875 z M 6.59375 8 C 6.59375 8 6.1875 10.20625 8.1875 10.90625 C 9.3875 11.40625 10.5 10.09375 10.5 10.09375 L 6.59375 8 z M 17.40625 8 L 13.5 10.09375 C 13.5 10.09375 14.6125 11.40625 15.8125 10.90625 C 17.8125 10.20625 17.40625 8 17.40625 8 z M 12 14 C 10.4875 13.9875 9 14.2625 9 14.8125 L 9 15.59375 C 9 15.59375 9.40625 15.9125 9.90625 16.3125 C 10.20625 16.0125 10.5125 15.9875 10.8125 16.1875 C 11.0125 16.3875 11.0125 16.70625 10.8125 16.90625 C 11.4125 17.30625 11.9 17.59375 12 17.59375 C 12.2 17.59375 12.7125 17.30625 13.3125 16.90625 C 13.1125 16.60625 13.0875 16.29375 13.1875 16.09375 C 13.3875 15.89375 13.79375 15.8875 14.09375 16.1875 C 14.09375 16.1875 14.0875 16.3125 14.1875 16.3125 C 14.6875 15.9125 15.09375 15.5125 15.09375 15.3125 L 15.09375 14.8125 C 15.04375 14.3125 13.5125 14.0125 12 14 z M 12 20.09375 C 12.231507 20.741969 12.659442 21.396997 13.1875 21.90625 C 12.853912 21.981185 12.480517 22.03125 12 22.03125 C 11.519483 22.03125 11.146088 21.981185 10.8125 21.90625 C 11.340558 21.396997 11.768493 20.741969 12 20.09375 z
"/>
</svg>
