<?xml version="1.0" encoding="iso-8859-1"?>
<!-- Generator: Adobe Illustrator 19.0.0, SVG Export Plug-In . SVG Version: 6.00 Build 0)  -->
<svg version="1.1" id="Layer_1" xmlns="http://www.w3.org/2000/svg" xmlns:xlink="http://www.w3.org/1999/xlink" x="0px" y="0px"
	 viewBox="0 0 511.999 511.999" style="enable-background:new 0 0 511.999 511.999;" xml:space="preserve">

		<path d="
M 18 0
M 493 515
M454.399,212.126c-0.008-0.02-0.065-0.026-0.072-0.046l-5.363-15.528l-4.932-23.608l19.834-16.631
			c16.872-14.146,27.22-34.011,29.148-55.944c1.928-21.932-4.798-43.302-18.943-60.175l-28.08-33.495
			c-6.648-7.928-18.462-8.967-26.391-2.32L365.454,49.77C329.789,38.924,291.204,39.651,256,51.708
			c-35.203-12.058-73.789-12.783-109.454-1.938L92.399,4.378c-7.928-6.646-19.744-5.609-26.391,2.32L37.927,40.195
			C23.783,57.067,17.057,78.437,18.985,100.37c1.928,21.932,12.282,41.799,29.155,55.944l19.841,16.633l-4.919,23.612L25.22,306.715
			c-13.229,38.512-5.037,81.439,21.38,112.427c22.024,25.836,54.124,40.405,88.073,40.405h9.865
			c1.991,4.995,4.301,8.386,6.934,12.234c6.335,9.261,14.209,17.26,23.149,23.511c0.721,0.578,1.484,1.155,2.268,1.614
			c14.734,9.661,32.156,15.094,50.295,15.094h57.632c20.82,0,40.696-7.065,56.647-19.589c0.435-0.321,0.855-0.671,1.265-1.032
			c6.745-5.494,12.761-12.228,17.8-19.593c2.631-3.846,4.942-7.242,6.934-12.238h9.865c33.949,0,66.002-14.57,88.481-40.405v0.125
			c26.226-30.989,34.406-74.102,21.176-112.614L454.399,212.126z M429.316,45.124l16.047,19.141
			c15.925,18.996,13.426,47.409-5.571,63.336l-4.442,3.724l-3.472-16.666c-3.956-18.994-14.396-35.601-29.03-47.346L429.316,45.124z
			 M66.64,64.264l16.047-19.141l26.467,22.19c-14.633,11.745-25.072,28.353-29.03,47.346l-3.472,16.666l-4.442-3.724
			C53.212,111.674,50.713,83.262,66.64,64.264z M141.69,386.738c-4.475,11.507-6.518,24.105-6.213,35.345h-0.803
			c-22.958-0.001-44.667-9.774-59.56-27.246c-17.865-20.956-23.405-50.03-14.458-76.075l13.862-40.293l17.865,68.372
			c1.375,5.259,4.967,9.677,9.842,12.08l42.272,20.843L141.69,386.738z M284.816,474.534h-57.632c-0.773,0-1.537-0.052-2.304-0.084
			l31.844-24.907l35.64,24.456C289.891,474.334,287.375,474.534,284.816,474.534z M354.314,345.861l-25.117-64.584l12.801-3.336
			c3.04,1.382,6.405,2.172,9.963,2.172c13.324,0,24.127-10.801,24.127-24.127c0-13.325-10.801-24.127-24.127-24.127
			c-7.963,0-15.002,3.875-19.397,9.822l-33.176,8.646c-5.173,1.349-9.524,4.842-11.957,9.602
			c-2.433,4.761-2.716,10.332-0.779,15.315l48.74,125.325c6.594,16.956,4.485,35.294-5.787,50.309
			c-0.503,0.733-1.031,1.439-1.562,2.143l-53.311-36.564v-21.962l19.112-19.15c9.007-9.007,2.628-24.445-10.111-24.445h-55.472
			c-12.738,0-19.117,15.438-10.111,24.445l19.112,19.15v22.698l-50.386,39.396c-1.596-1.787-3.101-3.687-4.486-5.712
			c-10.272-15.015-12.381-33.353-5.787-50.309l48.74-125.325c1.938-4.982,1.655-10.554-0.779-15.315
			c-2.433-4.761-6.784-8.254-11.957-9.602l-33.176-8.646c-4.393-5.948-11.435-9.822-19.397-9.822
			c-13.325,0-24.127,10.801-24.127,24.127s10.801,24.127,24.127,24.127c3.557,0,6.922-0.789,9.962-2.172l12.799,3.336
			l-24.675,63.447l-31.663-15.607l-29.953-114.6l2.37-6.899c0.255-0.742,0.462-1.497,0.622-2.265l17.302-83.051
			c3.337-16.018,15.135-28.926,30.788-33.688l9.85-2.995c13.262-4.034,27.029-6.041,40.794-6.041c17.349,0,34.689,3.191,50.971,9.53
			c4.371,1.701,9.223,1.701,13.594,0c29.197-11.37,61.787-12.608,91.765-3.489l9.848,2.995
			c15.654,4.762,27.451,17.669,30.788,33.688l17.302,83.051c0.16,0.768,0.367,1.524,0.622,2.265l3.931,11.446l-28.769,110.054
			L354.314,345.861z M437.085,394.957v-0.119h-0.001c-14.986,17.471-36.8,27.244-59.758,27.244h-0.803
			c0.306-11.24-1.737-23.834-6.213-35.341l-2.364-5.956l44.58-21.911c4.876-2.403,8.467-6.774,9.842-12.033l16.676-63.78
			l12.4,35.817C460.391,344.923,454.569,374,437.085,394.957z
M365.464,108.469c-35.669-10.848-74.257-10.124-109.463,1.936c-35.205-12.06-73.796-12.785-109.463-1.936
			c-9.898,3.011-15.481,13.476-12.47,23.374c3.008,9.898,13.471,15.486,23.371,12.47c29.976-9.118,62.566-7.879,91.765,3.489
			c2.185,0.85,4.491,1.276,6.796,1.276c2.305,0,4.611-0.426,6.796-1.276c29.198-11.37,61.788-12.608,91.765-3.489
			c9.897,3.012,20.364-2.573,23.374-12.47C380.945,121.944,375.361,111.48,365.464,108.469z
M365.463,167.08c-35.667-10.849-74.256-10.122-109.463,1.936c-35.205-12.056-73.795-12.783-109.463-1.936
			c-9.898,3.011-15.482,13.475-12.471,23.374c3.011,9.897,13.475,15.483,23.374,12.471c29.977-9.119,62.568-7.879,91.765,3.489
			c2.185,0.852,4.491,1.276,6.796,1.276c2.305,0,4.611-0.426,6.796-1.276c29.198-11.368,61.787-12.608,91.765-3.489
			c9.897,3.01,20.363-2.574,23.374-12.471S375.36,170.091,365.463,167.08z"/>
</svg>
