<?xml version="1.0" encoding="iso-8859-1"?>
<!-- Generator: Adobe Illustrator 19.0.0, SVG Export Plug-In . SVG Version: 6.00 Build 0)  -->
<svg version="1.1" id="Layer_1" xmlns="http://www.w3.org/2000/svg" xmlns:xlink="http://www.w3.org/1999/xlink" x="0px" y="0px"
	 viewBox="0 0 512.003 512.003" style="enable-background:new 0 0 512.003 512.003;" xml:space="preserve">
<g>
	<g>
		<g>
			<path d="M164.614,73.656c-4.417,0-7.995,3.58-7.995,7.995s3.579,7.995,7.995,7.995h16.23c4.417,0,7.995-3.58,7.995-7.995
				s-3.579-7.995-7.995-7.995H164.614z"/>
			<path d="M339.267,46.643c-19.302,0-35.007,15.704-35.007,35.007c0,19.304,15.705,35.007,35.007,35.007
				s35.007-15.704,35.007-35.007C374.274,62.347,358.57,46.643,339.267,46.643z M339.267,100.668
				c-10.485,0-19.017-8.531-19.017-19.017s8.531-19.017,19.017-19.017c10.485,0,19.017,8.531,19.017,19.017
				C358.283,92.137,349.752,100.668,339.267,100.668z"/>
			<path d="M331.152,73.656c-4.417,0-7.995,3.58-7.995,7.995s3.579,7.995,7.995,7.995h16.23c4.417,0,7.995-3.58,7.995-7.995
				s-3.579-7.995-7.995-7.995H331.152z"/>
			<path d="M487.751,376.928c-7.796-0.296-15.118,2.994-20.055,8.785h-4.503c1.953-6.844,2.938-13.92,2.938-21.149
				c0-28.209-15.373-54.038-39.692-67.637c2.31-8.597,3.973-17.422,4.972-26.414c18.5-18.449,31.033-43.002,34.259-70.704
				c0.02-0.142,0.036-0.285,0.049-0.429c0.052-0.576,0.078-1.172,0.078-1.772c0-5.859-2.584-11.113-6.655-14.727
				c-1.123-42.732-26.039-80.638-64.616-98.65c0.04-0.862,0.062-1.724,0.062-2.581c0-30.503-24.816-55.32-55.319-55.32
				c-27.789,0-50.859,20.596-54.744,47.325h-57.049c-3.887-26.728-26.955-47.325-54.745-47.325
				c-30.502,0-55.319,24.816-55.319,55.32c0,0.858,0.021,1.718,0.062,2.581c-38.577,18.011-63.494,55.917-64.616,98.65
				c-4.071,3.614-6.655,8.868-6.655,14.727c0,0.6,0.026,1.196,0.078,1.772c0.013,0.144,0.029,0.287,0.049,0.427
				c3.225,27.702,15.758,52.256,34.259,70.704c1,8.993,2.662,17.817,4.972,26.415c-24.319,13.599-39.692,39.428-39.692,67.637
				c0,7.229,0.985,14.304,2.938,21.149h-4.503c-4.939-5.791-12.261-9.07-20.055-8.785c-13.871,0.517-24.74,12.225-24.23,26.107
				c0.513,13.554,11.703,24.237,25.158,24.236c0.277,0,0.556-0.004,0.836-0.014c1.863-0.015,30.667-0.07,51.268-0.108
				c1.359,12.737,12.025,22.474,25.021,22.474c0.317,0,0.633-0.005,0.947-0.017c0.58-0.021,1.116-0.068,1.593-0.12h5.578
				c-1.758,3.601-2.682,7.671-2.524,11.948c0.514,13.591,11.564,24.236,25.155,24.237h0.003c0.314,0,0.629-0.005,0.947-0.018
				c10.511-0.391,19.639-7.402,22.93-17.159l30.26-19.968c12.714-3.225,22.023-14.211,23.21-27.207
				c14.811,3.952,30.104,5.951,45.603,5.951c15.499,0,30.793-2,45.603-5.951c1.186,12.996,10.496,23.983,23.209,27.207l30.26,19.968
				c3.291,9.755,12.418,16.767,22.93,17.159c0.319,0.012,0.634,0.018,0.95,0.018c13.591,0,24.64-10.646,25.156-24.247
				c0.157-4.274-0.766-8.341-2.523-11.939h5.576c0.477,0.051,1.012,0.099,1.588,0.119c0.318,0.012,0.634,0.018,0.951,0.018
				c12.993,0,23.656-9.734,25.019-22.474c20.597,0.038,49.398,0.093,51.268,0.108c0.283,0.01,0.561,0.014,0.841,0.014
				c13.449-0.001,24.64-10.684,25.155-24.246C512.492,389.153,501.621,377.445,487.751,376.928z M129.012,96.644
				c3.458-1.398,5.49-5.001,4.897-8.685c-0.337-2.098-0.51-4.22-0.51-6.308c0-21.686,17.643-39.33,39.329-39.33
				c21.687,0,39.331,17.643,39.331,39.33c0,4.415,3.579,7.995,7.995,7.995h71.888c4.417,0,7.995-3.58,7.995-7.995
				c0-21.686,17.644-39.33,39.331-39.33c21.686,0,39.329,17.643,39.329,39.33c0,2.087-0.172,4.21-0.51,6.309
				c-0.594,3.683,1.439,7.286,4.897,8.684c34.09,13.775,56.928,45.136,59.885,81.255H69.127
				C72.084,141.78,94.923,110.419,129.012,96.644z M62.195,197.832c-0.003-0.074-0.005-0.148-0.005-0.223
				c0-2.051,1.667-3.72,3.718-3.72h380.178c2.051,0,3.718,1.668,3.718,3.72c0,0.075-0.002,0.149-0.005,0.223
				c-6.016,52.222-50.211,91.589-102.845,91.589H165.04C112.406,289.422,68.212,250.054,62.195,197.832z M356.764,305.006
				c20.488-1.666,39.602-8.504,55.951-19.275c-6.314,28.6-20.304,54.723-40.679,75.957v-27.645
				C372.036,322.015,365.981,311.379,356.764,305.006z M155.232,305.006c-9.217,6.373-15.272,17.009-15.272,29.038v27.645
				c-20.375-21.235-34.364-47.358-40.679-75.957C115.629,296.502,134.744,303.34,155.232,305.006z M80.934,411.153
				c-54.807,0.099-55.232,0.115-55.41,0.122c-0.116,0.004-0.232,0.006-0.346,0.006c-4.91,0-8.996-3.902-9.183-8.842
				c-0.187-5.067,3.782-9.344,8.846-9.532c3.511-0.119,6.656,1.677,8.355,4.71c1.414,2.524,4.082,4.087,6.975,4.087h20.117
				c2.728,0,5.269-1.392,6.738-3.692c1.469-2.3,1.663-5.19,0.515-7.666c-3.773-8.137-5.686-16.811-5.686-25.781
				c0-21.285,11.025-40.869,28.697-52.023c10.13,27.228,26.949,51.64,49.408,71.227v24.297h-18.541
				c-4.934-5.755-12.275-9.077-20.047-8.785C92.707,399.604,85.214,404.294,80.934,411.153z M194.54,418.507h-0.002
				c0,7.144-5.082,13.326-12.082,14.7c-1.021,0.201-1.995,0.599-2.863,1.173l-34.024,22.451c-1.831,1.208-3.086,3.116-3.469,5.276
				c-0.749,4.226-4.409,7.408-8.7,7.568c-5.106,0.193-9.338-3.764-9.529-8.836c-0.187-5.067,3.782-9.344,8.841-9.532
				c0.102-0.004,0.203-0.005,0.304-0.005c0.679,0,1.39,0.085,2.116,0.252c2.129,0.49,4.372,0.087,6.199-1.117l3.443-2.272
				c2.947-1.944,4.269-5.591,3.255-8.972c-1.015-3.381-4.128-5.697-7.658-5.697h-35.992c-0.323,0-0.644,0.019-0.964,0.059
				c-0.249,0.03-0.501,0.063-0.761,0.072c-5.12,0.165-9.338-3.764-9.529-8.836c-0.187-5.067,3.782-9.344,8.846-9.532
				c3.49-0.12,6.669,1.698,8.355,4.709c1.414,2.524,4.082,4.088,6.975,4.088h30.657c4.417,0,7.995-3.58,7.995-7.995v-82.016
				c0-10.639,8.655-19.295,19.295-19.295c10.639,0,19.294,8.656,19.294,19.295V418.507z M301.467,334.044v70.703
				c-14.703,4.334-29.97,6.535-45.469,6.535c-15.501,0-30.768-2.2-45.469-6.535v-70.703c0-11.779-5.807-22.22-14.701-28.632h120.342
				C307.274,311.824,301.467,322.266,301.467,334.044z M409.699,433.634c-0.117,0-0.237-0.002-0.359-0.006
				c-0.256-0.01-0.507-0.043-0.757-0.072c-0.32-0.039-0.642-0.059-0.964-0.059h-35.992c-3.53,0-6.643,2.315-7.658,5.697
				c-1.015,3.381,0.308,7.028,3.255,8.972l3.442,2.272c1.827,1.205,4.068,1.608,6.199,1.117c0.835-0.192,1.66-0.276,2.417-0.247
				c5.063,0.189,9.031,4.466,8.845,9.524c-0.193,5.082-4.434,9.024-9.529,8.845c-4.291-0.16-7.95-3.342-8.7-7.568
				c-0.383-2.16-1.637-4.068-3.469-5.276l-34.024-22.451c-0.869-0.574-1.842-0.972-2.863-1.173
				c-7.001-1.373-12.082-7.556-12.082-14.7v-84.463c0-10.639,8.655-19.295,19.294-19.295s19.295,8.656,19.295,19.295v82.016
				c0,4.415,3.579,7.995,7.995,7.995h30.657c2.893,0,5.561-1.563,6.975-4.088c1.688-3.01,4.886-4.827,8.356-4.709
				c5.064,0.189,9.032,4.464,8.847,9.524C418.685,429.746,414.654,433.634,409.699,433.634z M486.475,411.275
				c-0.182-0.007-0.607-0.022-55.413-0.122c-4.279-6.859-11.774-11.549-20.44-11.872c-7.779-0.296-15.114,3.029-20.047,8.785
				h-18.541v-24.298c22.458-19.588,39.278-44,49.408-71.227c17.672,11.154,28.697,30.738,28.697,52.023
				c0,8.971-1.914,17.644-5.686,25.781c-1.147,2.475-0.954,5.366,0.515,7.666c1.469,2.3,4.01,3.692,6.738,3.692h20.117
				c2.893,0,5.561-1.563,6.975-4.087c1.7-3.033,4.871-4.827,8.355-4.71c5.064,0.189,9.032,4.466,8.847,9.524
				C495.809,407.496,491.484,411.461,486.475,411.275z"/>
			<path d="M172.729,46.643c-19.302,0-35.007,15.704-35.007,35.007c0,19.304,15.705,35.007,35.007,35.007
				c19.302,0,35.007-15.704,35.007-35.007C207.736,62.347,192.031,46.643,172.729,46.643z M172.729,100.668
				c-10.485,0-19.017-8.531-19.017-19.017s8.531-19.017,19.017-19.017c10.485,0,19.017,8.531,19.017,19.017
				S183.214,100.668,172.729,100.668z"/>
		</g>
	</g>
</g>
<g>
</g>
<g>
</g>
<g>
</g>
<g>
</g>
<g>
</g>
<g>
</g>
<g>
</g>
<g>
</g>
<g>
</g>
<g>
</g>
<g>
</g>
<g>
</g>
<g>
</g>
<g>
</g>
<g>
</g>
</svg>
