<?xml version="1.0" encoding="UTF-8" standalone="no"?>
<svg
   xmlns:dc="http://purl.org/dc/elements/1.1/"
   xmlns:cc="http://creativecommons.org/ns#"
   xmlns:rdf="http://www.w3.org/1999/02/22-rdf-syntax-ns#"
   xmlns:svg="http://www.w3.org/2000/svg"
   xmlns="http://www.w3.org/2000/svg"
   xmlns:sodipodi="http://sodipodi.sourceforge.net/DTD/sodipodi-0.dtd"
   xmlns:inkscape="http://www.inkscape.org/namespaces/inkscape"
   inkscape:version="1.0beta2 (2b71d25, 2019-12-03)"
   sodipodi:docname="wolf-2.svg"
   xml:space="preserve"
   style="enable-background:new 0 0 512.002 512.002;"
   viewBox="0 0 512.002 512.002"
   y="0px"
   x="0px"
   id="Capa_1"
   version="1.1"><metadata
   id="metadata63"><rdf:RDF><cc:Work
       rdf:about=""><dc:format>image/svg+xml</dc:format><dc:type
         rdf:resource="http://purl.org/dc/dcmitype/StillImage" /></cc:Work></rdf:RDF></metadata><defs
   id="defs61" /><sodipodi:namedview
   inkscape:current-layer="Capa_1"
   inkscape:window-maximized="0"
   inkscape:window-y="23"
   inkscape:window-x="0"
   inkscape:cy="256.00101"
   inkscape:cx="256.00101"
   inkscape:zoom="2.0371014"
   showgrid="false"
   id="namedview59"
   inkscape:window-height="480"
   inkscape:window-width="790"
   inkscape:pageshadow="2"
   inkscape:pageopacity="0"
   guidetolerance="10"
   gridtolerance="10"
   objecttolerance="10"
   borderopacity="1"
   inkscape:document-rotation="0"
   bordercolor="#666666"
   pagecolor="#ffffff" />

		<path
  d="M451.001,173.589V45.058h0.001c0-17.456-9.773-32.997-25.507-40.559c-15.733-7.562-33.975-5.484-47.604,5.42    c-0.031,0.025-0.063,0.05-0.094,0.075l-70.055,56.967c-16.762-3.926-34.094-5.959-51.74-5.959s-34.978,2.033-51.74,5.959    L134.206,9.994c-0.031-0.025-0.062-0.05-0.093-0.075C120.482-0.985,102.241-3.062,86.508,4.5    c-15.733,7.562-25.506,23.103-25.506,40.558V173.59c-19.564,33.809-30,72.306-30,112.412v151c0,4.993,2.484,9.658,6.627,12.445    c4.141,2.787,9.399,3.33,14.025,1.449l47.036-19.133l-7.309,31.887c-1.21,5.277,0.518,10.797,4.521,14.442    c4.002,3.645,9.659,4.852,14.8,3.154l64.831-21.395c13.975,31.096,45.268,52.151,80.469,52.151    c34.803,0,65.776-20.588,79.979-51.107l53.492,20.145c5.367,2.022,11.417,0.805,15.585-3.132c4.17-3.938,5.729-9.907,4.018-15.381    L399.063,430.5l62.195,20.732c4.573,1.524,9.602,0.758,13.514-2.062c3.912-2.819,6.229-7.347,6.229-12.168v-151    C481.001,245.896,470.565,207.398,451.001,173.589z M396.675,33.311c4.606-3.66,10.52-4.322,15.825-1.773    c5.323,2.559,8.502,7.613,8.502,13.52v87.992c-22.478-24.203-49.332-42.854-79.153-55.155L396.675,33.311z M99.504,31.539    c5.309-2.552,11.222-1.887,15.829,1.774l54.824,44.582c-29.761,12.276-56.632,30.905-79.155,55.156c0,0,0-87.993,0-87.993    C91.002,39.151,94.18,34.098,99.504,31.539z M256.002,427.989l-14.333-17.917c1.894-6.116,7.603-10.572,14.333-10.572    c6.73,0,12.439,4.456,14.333,10.572L256.002,427.989z M331.294,344.06l-18.233,91.166c-4.41,22.044-21.108,39.171-42.059,44.798    v-22.762l26.713-33.391c2.128-2.66,3.287-5.964,3.287-9.371c0-24.813-20.187-45-45-45c-24.813,0-45,20.187-45,45    c0,3.406,1.159,6.711,3.287,9.371l26.713,33.391v22.762c-20.952-5.626-37.649-22.754-42.058-44.799l-18.233-91.165    c-1.402-7.011-7.558-12.058-14.708-12.058h-45v-46c0-16.025,8.428-30.498,22.545-38.713c4.616-2.687,7.455-7.624,7.455-12.964    v-5.111c0-23.665,16.049-44.122,37.332-47.584c13.508-2.196,26.578,1.381,36.8,10.075c10.084,8.576,15.868,21.078,15.868,34.299    c0,8.284,6.716,15,15,15s15-6.716,15-15c0-13.221,5.784-25.723,15.868-34.299c10.224-8.695,23.291-12.271,36.801-10.075    c21.282,3.462,37.331,23.919,37.331,47.584v5.111c0,5.34,2.84,10.278,7.455,12.964c14.117,8.216,22.545,22.688,22.545,38.713v46    h-45C338.853,332.002,332.696,337.049,331.294,344.06z M380.745,392.771c-5.338-1.78-11.23-0.419-15.25,3.525    c-4.019,3.944-5.49,9.807-3.81,15.181l9.581,30.649l-26.962-10.153l13.994-69.971h47.703c8.284,0,15-6.716,15-15v-61    c0-23.477-11.327-45.646-30.053-59.729c-1.338-36.959-27.74-68.606-62.462-74.254c-22.013-3.582-44.265,2.554-61.053,16.832    c-4.292,3.65-8.117,7.729-11.433,12.144c-3.315-4.416-7.141-8.494-11.433-12.144c-16.788-14.277-39.041-20.411-61.053-16.832    c-34.721,5.648-61.124,37.295-62.461,74.254C102.326,240.356,91,262.525,91,286.002v61c0,8.284,6.716,15,15,15h47.703    l13.783,68.913l-40.921,13.504l7.808-34.066c1.25-5.455-0.639-11.151-4.901-14.777c-4.26-3.625-10.186-4.578-15.371-2.469    L61,414.707V286.002c0-107.523,87.477-195,195.001-195c107.523,0,195,87.477,195,195V416.19L380.745,392.771z

M 180,280 c 0,12 12,20 20,20 c 12,0 20,-12 20,-20 c 0,-12 -12,-20 -20,-20 c -12,0 -20,12 -20,20 z

M 290,280 c 0,12 12,20 20,20 c 12,0 20,-12 20,-20 c 0,-12 -12,-20 -20,-20 c -12,0 -20,12 -20,20 z

"/>	
</svg>
