<?xml version="1.0" encoding="iso-8859-1"?>
<!-- Generator: Adobe Illustrator 19.0.0, SVG Export Plug-In . SVG Version: 6.00 Build 0)  -->
<svg version="1.1" id="Layer_1" xmlns="http://www.w3.org/2000/svg" xmlns:xlink="http://www.w3.org/1999/xlink" x="0px" y="0px"
	 viewBox="0 0 512.005 512.005" style="enable-background:new 0 0 512.005 512.005;" xml:space="preserve">
<g>
	<g>
		<path d="M509.504,305.5l-59.383-59.383c7.34-4.486,12.082-10.723,13.167-17.943c1.23-8.168-2.213-16.072-9.552-22.395
			l23.659-70.969c0.872-2.606,0.427-5.468-1.179-7.698s-4.187-3.546-6.929-3.546h-25.633c-2.948,0-5.682,1.521-7.246,4.016
			L403.461,180.3l-29.589-44.388c-1.598-2.375-4.264-3.802-7.117-3.802h-25.633c-2.683,0-5.203,1.256-6.818,3.401
			s-2.136,4.913-1.393,7.493l13.97,48.916H235.326l45.08-90.168c1.324-2.649,1.179-5.793-0.376-8.314
			c-1.555-2.512-4.306-4.05-7.263-4.05H238.59c-2.264,0-4.443,0.897-6.041,2.503L132.436,191.997
			c-57.768,1.521-78.702,14.577-104.437,44.499C3.049,250.961-2.419,270.545,0.862,284.207
			c3.879,16.089,19.549,26.556,41.209,27.333h53.838c-1.598,3.896-2.572,8.211-2.572,12.816c0,16.491,11.501,29.905,25.633,29.905
			c32.503,0,66.868-6.707,79.915-21.079l137.632,88.083c1.376,0.88,2.973,1.35,4.605,1.35h59.81c3.589,0,6.793-2.247,8.023-5.614
			s0.222-7.152-2.521-9.467L278.227,299.579c55.316-9.279,97.362-21.711,120.748-29.606l82.529,57.136
			c1.461,1.008,3.161,1.521,4.87,1.521c1.307,0,2.615-0.299,3.819-0.897l17.089-8.544c2.461-1.23,4.17-3.563,4.614-6.271
			C512.332,310.199,511.444,307.439,509.504,305.5z M448.387,140.655h9.048l-20.549,61.639c-7.844,2.068-17.9,0.487-24.744-3.64
			L448.387,140.655z M362.183,149.199l28.478,42.721h-26.009l-12.21-42.721H362.183z M242.127,106.477h16.815l-42.721,85.443
			h-59.537L242.127,106.477z M118.97,337.173c-4.554,0-8.544-5.99-8.544-12.816s3.99-12.816,8.544-12.816s8.544,5.99,8.544,12.816
			S123.515,337.173,118.97,337.173z M142.612,335.883c1.273-3.554,1.991-7.442,1.991-11.526c0-4.605-0.974-8.92-2.572-12.816h23.035
			l19.105,12.227C178.344,327.911,164.366,333.423,142.612,335.883z M377.52,405.528h-33.904L156.71,285.908h78.761L377.52,405.528z
			 M260.95,285.019l-16.858-14.192c-1.538-1.299-3.486-2.008-5.503-2.008H127.514c-3.794,0-7.135,2.503-8.203,6.143
			c-1.068,3.64,0.402,7.553,3.597,9.595l15.457,9.894h-19.378c-0.009,0-0.009,0-0.017,0s-0.009,0-0.017,0H42.379
			c-13.355-0.478-22.89-5.938-24.89-14.243c-2.358-9.817,5.562-21.421,20.19-29.563c0.889-0.496,1.683-1.145,2.35-1.922
			c3.443-4.05,6.741-7.716,10.04-11.091l11.586,11.586c0.786,0.786,1.734,1.41,2.777,1.846c1.051,0.436,2.162,0.666,3.272,0.666
			h17.089c4.716,0,8.544-3.828,8.544-8.544c0-4.716-3.828-8.544-8.544-8.544H71.241l-8.271-8.271
			c15.653-11.261,35.425-16.678,73.088-17.362H397.42c8.066,7.186,17.302,8.544,29.145,8.544c4.332,0,8.544,0,17.089,0
			c2.99,2.452,3.059,5.904,2.734,8.083c-0.367,2.444-3.384,5.503-8.989,7.758l-4.793-4.793c-1.948-1.948-4.708-2.845-7.451-2.384
			l-51.266,8.544c-3.426,0.573-6.169,3.17-6.938,6.562c-0.76,3.392,0.615,6.912,3.478,8.895l10.885,7.536
			C354.869,266.034,313.361,277.133,260.95,285.019z M487.075,310.182L397.48,248.15l26.154-4.358l65.407,65.407L487.075,310.182z"
			/>
	</g>
</g>
<g>
	<g>
		<path d="M127.514,234.642h-8.544c-4.716,0-8.544,3.828-8.544,8.544c0,4.716,3.828,8.544,8.544,8.544h8.544
			c4.716,0,8.544-3.828,8.544-8.544C136.058,238.47,132.231,234.642,127.514,234.642z"/>
	</g>
</g>
<g>
	<g>
		<path d="M170.236,234.642h-8.544c-4.716,0-8.544,3.828-8.544,8.544c0,4.716,3.828,8.544,8.544,8.544h8.544
			c4.716,0,8.544-3.828,8.544-8.544C178.78,238.47,174.952,234.642,170.236,234.642z"/>
	</g>
</g>
<g>
	<g>
		<path d="M212.957,234.642h-8.544c-4.716,0-8.544,3.828-8.544,8.544c0,4.716,3.828,8.544,8.544,8.544h8.544
			c4.716,0,8.544-3.828,8.544-8.544C221.501,238.47,217.674,234.642,212.957,234.642z"/>
	</g>
</g>
<g>
	<g>
		<path d="M255.679,234.642h-8.544c-4.716,0-8.544,3.828-8.544,8.544c0,4.716,3.828,8.544,8.544,8.544h8.544
			c4.716,0,8.544-3.828,8.544-8.544C264.223,238.47,260.395,234.642,255.679,234.642z"/>
	</g>
</g>
<g>
	<g>
		<path d="M298.4,234.642h-8.544c-4.716,0-8.544,3.828-8.544,8.544c0,4.716,3.828,8.544,8.544,8.544h8.544
			c4.716,0,8.544-3.828,8.544-8.544C306.944,238.47,303.117,234.642,298.4,234.642z"/>
	</g>
</g>
<g>
	<g>
		<path d="M341.122,234.642h-8.544c-4.716,0-8.544,3.828-8.544,8.544c0,4.716,3.828,8.544,8.544,8.544h8.544
			c4.716,0,8.544-3.828,8.544-8.544C349.666,238.47,345.838,234.642,341.122,234.642z"/>
	</g>
</g>
<g>
</g>
<g>
</g>
<g>
</g>
<g>
</g>
<g>
</g>
<g>
</g>
<g>
</g>
<g>
</g>
<g>
</g>
<g>
</g>
<g>
</g>
<g>
</g>
<g>
</g>
<g>
</g>
<g>
</g>
</svg>
