<?xml version="1.0" encoding="iso-8859-1"?>
<!-- Generator: Adobe Illustrator 16.0.0, SVG Export Plug-In . SVG Version: 6.00 Build 0)  -->
<!DOCTYPE svg PUBLIC "-//W3C//DTD SVG 1.1//EN" "http://www.w3.org/Graphics/SVG/1.1/DTD/svg11.dtd">
<svg version="1.1" id="Capa_1" xmlns="http://www.w3.org/2000/svg" xmlns:xlink="http://www.w3.org/1999/xlink" x="0px" y="0px"
	 width="464.508px" height="464.508px" viewBox="0 0 464.508 464.508" style="enable-background:new 0 0 464.508 464.508;"
	 xml:space="preserve">
<g>
	<path d="M123.9,303.24L96.222,421.628c-1.16,4.962,0.808,10.131,4.975,13.066l39.098,27.533c2.133,1.502,4.652,2.28,7.198,2.28
		c1.318,0,2.644-0.208,3.926-0.633c3.76-1.244,6.707-4.196,7.946-7.958l30.824-93.621l68.564-24.776l8.146,26.883
		c0.978,3.229,3.22,5.926,6.216,7.477l133.968,69.356c3.457,1.79,7.549,1.866,11.07,0.209c3.521-1.657,6.069-4.86,6.894-8.665
		l9.688-44.736c1.141-5.27-1.227-10.678-5.872-13.415l-83.604-49.25L287.164,167.11l4.136-0.635l44.699,51.761
		c2.856,3.308,7.236,4.882,11.546,4.155c4.311-0.729,7.927-3.658,9.536-7.722l20-50.5c1.433-3.617,1.1-7.695-0.901-11.031
		l-38.136-63.595c-2.781-4.637-8.226-6.959-13.498-5.759l-93.64,21.337c7.402-12.296,10.808-26.546,9.657-41.14
		c-1.382-17.527-9.267-33.733-22.2-45.632C205.502,6.516,188.824,0,171.402,0c-1.831,0-3.689,0.073-5.522,0.218
		c-38.17,3.01-66.773,36.513-63.764,74.683c1.383,17.527,9.267,33.733,22.201,45.632c2.767,2.545,5.719,4.829,8.808,6.87
		l-18.156,4.137L71.911,99.916c-2.79-2.049-6.302-2.85-9.706-2.21c-3.401,0.639-6.387,2.659-8.243,5.58L31.441,138.72
		c-2.497,3.928-2.604,8.917-0.279,12.949l36.604,63.479c2.408,4.177,6.996,6.594,11.812,6.217l87.74-6.92l18.999,60.194
		l-54.491,19.691C127.845,295.768,124.864,299.121,123.9,303.24z M167.844,25.141C169.026,25.048,170.222,25,171.4,25
		c22.996,0,42.427,17.986,44.238,40.947c0.934,11.833-2.797,23.322-10.504,32.349c-7.708,9.027-18.469,14.513-30.302,15.446
		c-1.182,0.093-2.377,0.141-3.552,0.141c-0.001,0-0.002,0-0.003,0c-22.997-0.002-42.429-17.989-44.24-40.948
		C125.111,48.508,143.417,27.067,167.844,25.141z M206.095,294.072c6.305-2.277,9.69-9.125,7.672-15.518l-25.602-81.116
		c-1.751-5.55-7.102-9.148-12.903-8.699l-89.783,7.081l-28.88-50.082l11.288-17.759l36.886,27.091
		c2.925,2.148,6.638,2.92,10.177,2.113l206.312-47.011l30.3,50.529l-10.13,25.579l-35.734-41.379
		c-2.813-3.257-7.104-4.838-11.356-4.186l-26.075,4.002c-3.707,0.569-6.961,2.771-8.868,6s-2.264,7.143-0.972,10.663l64.9,176.807
		c0.996,2.713,2.899,4.998,5.39,6.463l79.669,46.933l-4.316,19.94l-114.775-59.42l-10.436-34.44
		c-0.994-3.282-3.293-6.011-6.358-7.55c-3.065-1.536-6.628-1.748-9.853-0.582l-86.678,31.32c-3.612,1.305-6.424,4.199-7.625,7.848
		l-27.45,83.375l-18.41-12.964l24.215-103.572L206.095,294.072z"/>
</g>
<g>
</g>
<g>
</g>
<g>
</g>
<g>
</g>
<g>
</g>
<g>
</g>
<g>
</g>
<g>
</g>
<g>
</g>
<g>
</g>
<g>
</g>
<g>
</g>
<g>
</g>
<g>
</g>
<g>
</g>
</svg>
