<?xml version="1.0" encoding="iso-8859-1"?>
<!-- Generator: Adobe Illustrator 19.0.0, SVG Export Plug-In . SVG Version: 6.00 Build 0)  -->
<svg version="1.1" id="Capa_1" xmlns="http://www.w3.org/2000/svg" xmlns:xlink="http://www.w3.org/1999/xlink" x="0px" y="0px"
	 viewBox="0 0 470.007 470.007" style="enable-background:new 0 0 470.007 470.007;" xml:space="preserve">
<g>
	<path d="M58.485,445.003c18.464,0,33.485-15.021,33.485-33.485s-15.021-33.485-33.485-33.485S25,393.054,25,411.518
		S40.021,445.003,58.485,445.003z M58.485,393.033c10.193,0,18.485,8.292,18.485,18.485s-8.292,18.485-18.485,18.485
		S40,421.711,40,411.518S48.292,393.033,58.485,393.033z"/>
	<g>
		<path d="M99.225,453.423C99.029,453.619,99.436,453.253,99.225,453.423L99.225,453.423z"/>
		<path d="M16.586,370.773C16.756,370.561,16.39,370.969,16.586,370.773L16.586,370.773z"/>
		<path d="M470.007,58.489c0-32.249-26.236-58.485-58.485-58.485c-15.62,0-30.306,6.082-41.352,17.126L16.586,370.773
			C6.333,381.313,0,395.686,0,411.518c0,32.249,26.236,58.485,58.485,58.485c15.829,0,30.199-6.33,40.739-16.58L452.873,99.848
			C463.922,88.801,470.007,74.113,470.007,58.489z M58.485,455.003C34.507,455.003,15,435.496,15,411.518
			s19.507-43.485,43.485-43.485s43.485,19.507,43.485,43.485S82.463,455.003,58.485,455.003z M116.888,414.614
			c0.054-1.026,0.083-2.057,0.083-3.096c0-32.249-26.236-58.485-58.485-58.485c-1.038,0-2.07,0.029-3.095,0.083L380.776,27.737
			c8.213-8.211,19.132-12.733,30.746-12.733c23.978,0,43.485,19.507,43.485,43.485c0,11.617-4.524,22.538-12.74,30.752
			L116.888,414.614z"/>
	</g>
	<path d="M383.434,99.003c-4.411,0-8,3.589-8,8s3.589,8,8,8s8-3.589,8-8S387.845,99.003,383.434,99.003z"/>
	<path d="M397.434,60.003c-4.411,0-8,3.589-8,8s3.589,8,8,8s8-3.589,8-8S401.845,60.003,397.434,60.003z"/>
</g>
<g>
</g>
<g>
</g>
<g>
</g>
<g>
</g>
<g>
</g>
<g>
</g>
<g>
</g>
<g>
</g>
<g>
</g>
<g>
</g>
<g>
</g>
<g>
</g>
<g>
</g>
<g>
</g>
<g>
</g>
</svg>
