<?xml version="1.0" encoding="utf-8"?>
<!-- Uploaded to SVGRepo https://www.svgrepo.com -->
<!DOCTYPE svg PUBLIC "-//W3C//DTD SVG 1.1//EN" "http://www.w3.org/Graphics/SVG/1.1/DTD/svg11.dtd">
<svg width="1000px" height="1000px" viewBox="0 0 1000 1000" version="1.1" xmlns="http://www.w3.org/2000/svg" xmlns:xlink="http://www.w3.org/1999/xlink" x="0px" y="0px" enable-background="new 0 0 1000 1000" xml:space="preserve">

<g><g transform="translate(0.000000,511.000000) scale(0.100000,-0.100000)"><path d="M3135.9,4814.8c-94.1-58.8-197.5-211.6-315.1-460.9c-84.7-181.1-258.7-672.6-244.6-689c4.7-4.7,89.4,16.5,190.5,42.3c124.6,32.9,289.2,54.1,493.8,63.5c329.2,14.1,531.5-9.4,771.3-89.4c75.3-25.9,143.4-42.3,148.1-35.3c23.5,21.2-202.2,536.2-312.8,712.5C3610.9,4772.5,3342.8,4939.4,3135.9,4814.8z"/><path d="M7016,3688.4c-326.9-49.4-371.5-82.3-350.4-246.9c11.8-110.5,7.1-122.3-143.5-348c-84.6-127-169.3-232.8-185.8-232.8c-16.5,0-630.2-84.7-1366.3-185.8c-733.7-103.5-1396.8-192.8-1469.7-202.2l-136.4-16.5v159.9c0,228.1,54.1,432.7,127,496.2c84.6,72.9,242.2,89.4,538.5,56.4c141.1-16.5,261-23.5,268.1-18.8c4.7,7.1-2.3,58.8-18.8,117.6c-25.9,105.8-30.6,110.5-195.2,176.4c-197.5,82.3-343.3,115.2-595,136.4c-315.1,23.5-943-101.1-983-197.5c-9.4-21.2-21.1-129.3-28.2-239.9c-16.4-239.9,30.6-451.5,136.4-620.8c37.6-63.5,65.8-117.6,61.1-122.3c-4.7-4.7-397.4-82.3-872.4-174c-475-89.4-881.8-174-903-185.8c-192.8-103.5-225.7-399.8-54.1-517.4c32.9-23.5,357.4-150.5,719.6-284.5c362.2-131.7,672.6-254,689-268.1c65.9-61.1,350.4-992.4,392.7-1288.7c16.5-110.5,16.5-110.5,124.6-127c157.6-23.5,811.3,4.7,1027.6,44.7c430.3,80,747.8,181.1,729,235.2c-18.8,51.7-82.3,935.9-82.3,1145.2v206.9l265.7-68.2c143.5-37.6,341-91.7,435-119.9c270.4-80,265.7-82.3,853.6,524.4c275.1,286.9,587.9,595,693.7,682l190.5,159.9l423.3-119.9c359.8-101.1,430.3-129.3,451.5-174c32.9-72.9,112.9-89.4,265.7-58.8c397.4,82.3,745.5,406.8,790.1,738.4c4.7,47,16.5,87,25.9,87c7.1,0,124.6,16.5,258.7,35.3c272.8,35.3,317.5,63.5,315.1,188.1c-2.3,44.7,4.7,82.3,14.1,82.3c84.6,0,420.9,56.4,444.4,75.3c37.6,32.9,35.3,110.5-4.7,127c-16.4,7.1-268.1-21.2-557.3-63.5c-496.2-70.5-526.8-72.9-550.3-32.9c-131.7,221-272.8,331.6-529.1,416.2C8017.8,3733.1,7392.3,3747.2,7016,3688.4z M8121.2,3347.4c117.6-37.6,268.1-127,284.6-169.3c9.4-23.5-1787.2-286.9-1808.4-265.7c-16.5,14.1,244.6,395.1,277.5,406.8c16.5,7.1,138.8,25.9,275.1,47C7451,3408.5,7959,3396.8,8121.2,3347.4z M8466.9,2761.9c0-14.1-25.9-70.5-56.4-122.3c-87-150.5-249.3-254-465.6-298.7c-68.2-14.1-136.4-35.3-150.5-47c-25.9-21.2-684.3,152.9-724.3,190.5c-25.8,23.5,178.7,129.3,322.2,164.6c101.1,25.9,879.5,131.7,1011.2,138.7C8438.7,2787.7,8466.9,2778.3,8466.9,2761.9z M5393.4,2190.4c141.1-32.9,265.7-65.8,279.8-72.9c11.8-7.1-80-72.9-204.6-143.5l-225.8-129.3l-423.3,171.7c-230.4,91.7-416.2,176.4-406.8,183.4c25.9,28.2,446.8,68.2,585.5,58.8C5075.9,2251.6,5254.6,2221,5393.4,2190.4z"/><path d="M4410.4-528c-341-138.8-921.8-218.7-1483.8-206.9l-331.6,9.4l-265.7-865.4c-145.8-475-261-867.7-256.3-872.5c18.8-16.5,430.3-105.8,620.8-134c420.9-61.1,1100.5-21.2,1126.4,68.2c4.7,23.5,40,284.5,75.3,580.8c35.3,298.7,70.5,547.9,79.9,559.7c7.1,9.4,72.9-223.4,141.1-515c72.9-301,141.1-536.2,157.6-543.2c63.5-23.5,395.1,70.5,590.2,169.3c475,239.9,841.9,686.7,1037,1269.9c37.6,115.2,65.9,214,61.2,218.7c-14.1,14.1-1338,308-1387.4,308C4549.2-481,4476.3-502.1,4410.4-528z"/><path d="M6192.9-1087.7c-91.7-277.5-286.9-637.3-451.5-841.9l-119.9-148.2h235.2c232.8,0,235.2,0,223.4-51.7c-7.1-30.6-117.6-529.1-246.9-1107.6c-263.4-1178.2-263.4-1168.8-105.8-1307.5c167-145.8,432.7-110.5,529.1,68.2c14.1,25.9,230.4,698.4,482.1,1498c500.9,1580.2,493.8,1554.4,371.6,1702.5c-32.9,37.6-79.9,79.9-108.2,94.1c-25.9,16.5-216.4,49.4-423.3,77.6C6242.3-1057.1,6202.4-1054.8,6192.9-1087.7z"/><path d="M2446.9-3284.1v-458.6l-87-14.2c-49.4-7-512.6-47-1030-87c-1077-84.6-1110-91.7-1187.6-261c-56.4-127-56.4-169.3,0-293.9c75.3-169.3,127-185.8,630.2-204.6c242.2-7,858.3-16.4,1368.6-18.8c893.6-4.7,933.6-4.7,1011.2,42.3c141.1,82.3,155.2,134.1,270.4,921.8c58.8,402.1,105.8,743.1,105.8,757.2c0,16.5-61.1,18.8-181.1,9.4c-164.6-14.1-468,7.1-787.8,51.7l-112.9,16.5V-3284.1z"/></g></g>
</svg>