<?xml version="1.0" encoding="iso-8859-1"?>
<!-- Generator: Adobe Illustrator 18.1.1, SVG Export Plug-In . SVG Version: 6.00 Build 0)  -->
<svg version="1.1" id="Capa_1" xmlns="http://www.w3.org/2000/svg" xmlns:xlink="http://www.w3.org/1999/xlink" x="0px" y="0px"
	 viewBox="0 0 25.549 25.549" style="enable-background:new 0 0 25.549 25.549;" xml:space="preserve">
<g>
	<path style="fill:#030104;" d="M25.171,9.968c-0.252,0.088-0.517-0.016-0.656-0.228l-9.963,5.096
		c-0.355-0.602-0.885-1.105-1.562-1.429c-0.449-0.215-0.92-0.329-1.39-0.352l-1.555-4.399l13.108-2.75
		c-0.038-0.264,0.103-0.525,0.36-0.618c0.296-0.105,0.625,0.052,0.729,0.348l1.273,3.605C25.623,9.537,25.464,9.863,25.171,9.968z
		 M11.009,13.078L9.488,8.773L9.362,8.799c-1.583-0.043-3.122,0.827-3.849,2.35c-0.44,0.922-0.505,1.927-0.262,2.843
		c-1.313-0.238-2.246-0.806-2.77-1.69c-1.028-1.731-0.192-4.143-0.184-4.167l-0.55-0.197c-0.037,0.11-0.937,2.689,0.23,4.661
		c0.385,0.652,0.953,1.158,1.689,1.51c0.475,0.227,1.02,0.389,1.633,0.488l0.046-0.289c0.354,1,1.087,1.861,2.118,2.355
		c0.099,0.047,0.201,0.088,0.304,0.127c-0.014-0.558,0.094-1.125,0.35-1.66C8.682,13.951,9.798,13.215,11.009,13.078z M0,8.896
		h1.205V8.312H0V8.896z M0.807,6.73L0.396,7.143l0.853,0.85L1.661,7.58L0.807,6.73z M2.599,6.334H2.014v1.205h0.585
		C2.599,7.539,2.599,6.334,2.599,6.334z M2.948,8.331L3.8,7.479L3.388,7.066L2.536,7.918L2.948,8.331z M14.891,16.848
		c0,1.899-1.546,3.446-3.447,3.446s-3.448-1.547-3.448-3.446c0-1.905,1.547-3.45,3.448-3.45
		C13.347,13.398,14.891,14.943,14.891,16.848z M12.686,16.848c0-0.685-0.557-1.242-1.242-1.242c-0.684,0-1.242,0.556-1.242,1.242
		c0,0.683,0.558,1.239,1.242,1.239C12.129,18.087,12.686,17.531,12.686,16.848z"/>
</g>
<g>
</g>
<g>
</g>
<g>
</g>
<g>
</g>
<g>
</g>
<g>
</g>
<g>
</g>
<g>
</g>
<g>
</g>
<g>
</g>
<g>
</g>
<g>
</g>
<g>
</g>
<g>
</g>
<g>
</g>
</svg>
