<?xml version="1.0" encoding="iso-8859-1"?>
<!-- Generator: Adobe Illustrator 19.0.0, SVG Export Plug-In . SVG Version: 6.00 Build 0)  -->
<svg version="1.1" id="Layer_1" xmlns="http://www.w3.org/2000/svg" xmlns:xlink="http://www.w3.org/1999/xlink" x="0px" y="0px"
	 viewBox="0 0 512.001 512.001" style="enable-background:new 0 0 512.001 512.001;" xml:space="preserve">
<g>
	<g>
		<g>
			<path d="M416.803,249.423l8.678,34.712c0.816,3.254,3.428,5.745,6.717,6.404l43.39,8.678c0.564,0.113,1.128,0.174,1.701,0.174
				c2.282,0,4.487-0.902,6.135-2.543l26.034-26.034c2.152-2.161,3.029-5.285,2.282-8.244l-8.678-34.712
				c-0.616-2.456-2.274-4.521-4.539-5.658l-9.945-4.972c3.922-16.098,6.066-35.901,6.066-56.684c0-29.141-4.382-59.635-13.65-78.102
				h4.972c4.799,0,8.678-3.888,8.678-8.678V21.696c0-4.799-3.879-8.678-8.678-8.678h-52.068c-4.799,0-8.678,3.879-8.678,8.678
				v20.662l-156.203,78.11v-5.111c0-8.583-6.986-15.56-15.56-15.56h-73.016c-8.574,0-15.56,6.977-15.56,15.56v30.39L49.152,187.08
				v0.009c-0.052,0.017-0.095,0.043-0.148,0.061c-0.052,0.017-0.104,0.026-0.156,0.043l-43.39,17.356
				C2.161,205.868,0,209.062,0,212.611v43.39c0,4.79,3.879,8.678,8.678,8.678h43.39h43.39c4.799,0,8.678-3.888,8.678-8.678v-43.39
				c0-3.549-2.161-6.743-5.458-8.062l-22.094-8.834l88.298-31.536v11.663L81.417,342.78H18.935C8.487,342.78,0,351.267,0,361.707
				v66.274c0,10.44,8.487,18.935,18.935,18.935h16.471c4.235,29.384,29.514,52.068,60.052,52.068s55.817-22.684,60.052-52.068
				h105.524c4.235,29.384,29.514,52.068,60.052,52.068c30.538,0,55.817-22.684,60.052-52.068h16.471
				c10.44,0,18.935-8.496,18.935-18.935v-24.455h26.034v17.356c0,4.79,3.879,8.678,8.678,8.678c4.799,0,8.678-3.888,8.678-8.678
				v-17.356h17.356c4.799,0,8.678-3.888,8.678-8.678c0-4.799-3.879-8.678-8.678-8.678h-60.746v-24.463
				c0-10.44-8.496-18.927-18.935-18.927h-45.125l-83.465-166.938v-35.97L425.22,61.77v11.993c0,4.79,3.879,8.678,8.678,8.678h4.964
				c-9.259,18.467-13.642,48.961-13.642,78.102c0,25.027,3.141,48.562,8.678,65.831l-14.813,14.813
				C416.933,243.34,416.056,246.472,416.803,249.423z M43.39,247.323H17.356v-28.837l26.034-10.414V247.323z M86.78,218.486v28.837
				H60.746v-39.25L86.78,218.486z M182.237,117.153h69.424v52.068h-29.748h-9.928h-29.748V117.153z M213.79,186.577h6.318
				l31.588,67.48l-34.747,76.436l-34.747-76.436L213.79,186.577z M172.535,274.71l30.937,68.07H140.67L172.535,274.71z
				 M95.458,455.594c-9.589,0-17.356-7.775-17.356-17.356c0-9.589,7.767-17.356,17.356-17.356c9.581,0,17.356,7.767,17.356,17.356
				C112.814,447.819,105.038,455.594,95.458,455.594z M321.085,455.594c-9.589,0-17.356-7.775-17.356-17.356
				c0-9.589,7.767-17.356,17.356-17.356c9.58,0,17.356,7.767,17.356,17.356C338.441,447.819,330.665,455.594,321.085,455.594z
				 M361.16,360.136h36.447c0.877,0,1.579,0.703,1.579,1.571v66.274c0,0.876-0.703,1.579-1.579,1.579h-16.393
				c-0.096-0.677-0.26-1.319-0.382-1.979c-0.148-0.824-0.286-1.64-0.469-2.447c-0.243-1.12-0.538-2.204-0.842-3.298
				c-0.217-0.755-0.408-1.51-0.651-2.256c-0.373-1.146-0.798-2.256-1.241-3.376c-0.252-0.651-0.477-1.31-0.755-1.944
				c-0.555-1.293-1.18-2.543-1.822-3.792c-0.226-0.425-0.408-0.868-0.642-1.293c-0.903-1.649-1.883-3.254-2.933-4.816
				c-0.182-0.278-0.399-0.538-0.599-0.816c-0.876-1.25-1.779-2.491-2.751-3.671c-0.408-0.495-0.85-0.963-1.267-1.449
				c-0.807-0.92-1.614-1.84-2.473-2.716c-0.512-0.512-1.05-0.998-1.579-1.501c-0.824-0.79-1.657-1.562-2.525-2.3
				c-0.59-0.495-1.198-0.963-1.796-1.441c-0.868-0.677-1.744-1.345-2.647-1.979c-0.651-0.451-1.31-0.885-1.979-1.319
				c-0.911-0.581-1.831-1.146-2.777-1.684c-0.703-0.399-1.406-0.79-2.117-1.163c-0.972-0.495-1.953-0.963-2.942-1.414
				c-0.738-0.33-1.467-0.66-2.213-0.963c-1.033-0.417-2.083-0.79-3.141-1.154c-0.746-0.252-1.493-0.521-2.248-0.746
				c-1.119-0.33-2.256-0.607-3.393-0.876c-0.738-0.174-1.467-0.373-2.213-0.521c-1.276-0.243-2.569-0.417-3.87-0.59
				c-0.642-0.078-1.267-0.2-1.918-0.269c-1.953-0.191-3.94-0.295-5.944-0.295c-2.005,0-3.992,0.104-5.944,0.295
				c-0.651,0.069-1.276,0.182-1.918,0.269c-1.302,0.174-2.603,0.347-3.879,0.59c-0.738,0.148-1.467,0.347-2.195,0.521
				c-1.146,0.269-2.282,0.547-3.402,0.876c-0.764,0.226-1.501,0.495-2.248,0.746c-1.059,0.364-2.109,0.738-3.141,1.154
				c-0.746,0.304-1.484,0.633-2.213,0.963c-0.989,0.451-1.979,0.92-2.942,1.414c-0.712,0.373-1.414,0.764-2.117,1.163
				c-0.946,0.538-1.866,1.102-2.786,1.692c-0.659,0.425-1.319,0.859-1.97,1.31c-0.902,0.633-1.779,1.302-2.647,1.987
				c-0.607,0.469-1.215,0.937-1.796,1.432c-0.868,0.738-1.701,1.51-2.525,2.3c-0.529,0.503-1.067,0.989-1.579,1.501
				c-0.859,0.876-1.666,1.796-2.473,2.716c-0.417,0.486-0.868,0.955-1.267,1.449c-0.981,1.198-1.9,2.447-2.786,3.714
				c-0.182,0.26-0.391,0.503-0.564,0.772c-1.05,1.553-2.031,3.167-2.933,4.816c-0.234,0.425-0.417,0.868-0.642,1.293
				c-0.642,1.25-1.267,2.499-1.831,3.792c-0.269,0.634-0.495,1.293-0.746,1.944c-0.443,1.12-0.868,2.23-1.241,3.376
				c-0.243,0.746-0.434,1.501-0.651,2.256c-0.304,1.093-0.599,2.187-0.85,3.298c-0.174,0.807-0.312,1.623-0.46,2.43
				c-0.122,0.668-0.286,1.319-0.382,1.996H155.587c-0.095-0.677-0.26-1.319-0.382-1.979c-0.148-0.824-0.286-1.64-0.469-2.447
				c-0.243-1.12-0.538-2.204-0.842-3.298c-0.217-0.755-0.408-1.51-0.651-2.256c-0.373-1.146-0.798-2.256-1.241-3.376
				c-0.252-0.651-0.477-1.31-0.755-1.944c-0.555-1.293-1.18-2.543-1.822-3.792c-0.226-0.425-0.408-0.868-0.642-1.293
				c-0.903-1.649-1.883-3.254-2.933-4.816c-0.182-0.278-0.399-0.538-0.599-0.816c-0.876-1.25-1.779-2.491-2.751-3.671
				c-0.408-0.495-0.85-0.963-1.267-1.449c-0.807-0.92-1.614-1.84-2.473-2.716c-0.512-0.512-1.05-0.998-1.579-1.501
				c-0.824-0.79-1.657-1.562-2.525-2.3c-0.59-0.495-1.198-0.963-1.796-1.441c-0.868-0.677-1.744-1.345-2.647-1.979
				c-0.651-0.451-1.31-0.885-1.979-1.319c-0.911-0.581-1.831-1.146-2.777-1.684c-0.703-0.399-1.406-0.79-2.117-1.163
				c-0.972-0.495-1.953-0.963-2.942-1.414c-0.738-0.33-1.467-0.66-2.213-0.963c-1.033-0.417-2.083-0.79-3.141-1.154
				c-0.746-0.252-1.493-0.521-2.248-0.746c-1.119-0.33-2.256-0.607-3.393-0.876c-0.738-0.174-1.467-0.373-2.213-0.521
				c-1.276-0.243-2.569-0.417-3.87-0.59c-0.642-0.078-1.267-0.2-1.918-0.269c-1.953-0.191-3.94-0.295-5.944-0.295
				s-3.992,0.104-5.944,0.295c-0.651,0.069-1.276,0.182-1.918,0.269c-1.302,0.174-2.603,0.347-3.879,0.59
				c-0.738,0.148-1.467,0.347-2.196,0.521c-1.145,0.269-2.282,0.547-3.402,0.876c-0.764,0.226-1.501,0.495-2.248,0.746
				c-1.059,0.364-2.109,0.738-3.141,1.154c-0.746,0.304-1.484,0.633-2.213,0.963c-0.989,0.451-1.979,0.92-2.942,1.414
				c-0.712,0.373-1.414,0.764-2.117,1.163c-0.946,0.538-1.866,1.102-2.786,1.692c-0.66,0.425-1.319,0.859-1.97,1.31
				c-0.903,0.633-1.779,1.302-2.647,1.987c-0.607,0.469-1.215,0.937-1.796,1.432c-0.868,0.738-1.701,1.51-2.525,2.3
				c-0.529,0.503-1.067,0.989-1.579,1.501c-0.859,0.876-1.666,1.796-2.473,2.716c-0.417,0.486-0.868,0.955-1.267,1.449
				c-0.981,1.198-1.9,2.447-2.786,3.714c-0.182,0.26-0.391,0.503-0.564,0.772c-1.05,1.553-2.031,3.167-2.933,4.816
				c-0.234,0.425-0.417,0.868-0.642,1.293c-0.642,1.25-1.267,2.499-1.831,3.792c-0.269,0.634-0.495,1.293-0.746,1.944
				c-0.443,1.12-0.868,2.23-1.241,3.376c-0.243,0.746-0.434,1.501-0.651,2.256c-0.304,1.093-0.599,2.187-0.85,3.298
				c-0.174,0.807-0.312,1.623-0.46,2.43c-0.121,0.668-0.286,1.319-0.382,1.996H18.935c-0.877,0-1.579-0.703-1.579-1.579v-66.274
				c0-0.868,0.703-1.571,1.579-1.571h53.803h59.809h168.795H361.16z M293.22,342.78h-62.794l30.937-68.07L293.22,342.78z
				 M459.785,82.441h0.043c4.825,1.388,17.46,27.396,17.46,78.102c0,17.79-1.64,34.677-4.669,48.701l-8.808-4.4
				c-3.341-1.657-7.359-1.024-10.014,1.631l-5.832,5.823c-3.436-14.501-5.389-32.855-5.389-51.755
				C442.576,109.838,455.203,83.83,459.785,82.441z"/>
			<circle cx="216.948" cy="143.185" r="8.678"/>
		</g>
	</g>
</g>
<g>
</g>
<g>
</g>
<g>
</g>
<g>
</g>
<g>
</g>
<g>
</g>
<g>
</g>
<g>
</g>
<g>
</g>
<g>
</g>
<g>
</g>
<g>
</g>
<g>
</g>
<g>
</g>
<g>
</g>
</svg>
