<?xml version="1.0" encoding="iso-8859-1"?>
<!-- Generator: Adobe Illustrator 18.0.0, SVG Export Plug-In . SVG Version: 6.00 Build 0)  -->
<!DOCTYPE svg PUBLIC "-//W3C//DTD SVG 1.1//EN" "http://www.w3.org/Graphics/SVG/1.1/DTD/svg11.dtd">
<svg version="1.1" id="Capa_1" xmlns="http://www.w3.org/2000/svg" xmlns:xlink="http://www.w3.org/1999/xlink" x="0px" y="0px"
	 viewBox="0 0 297 297" style="enable-background:new 0 0 297 297;" xml:space="preserve">
<path d="M238.037,151.193c8.018-14.571,12.586-31.297,12.586-49.07C250.623,45.813,204.81,0,148.5,0h-0.001l0,0l0,0
	C92.188,0.001,46.377,45.813,46.377,102.123c0,17.773,4.568,34.499,12.586,49.07l49.73,139.4c1.275,3.826,4.855,6.406,8.889,6.406
	h61.836c4.033,0,7.613-2.58,8.889-6.406L238.037,151.193z M188.346,231.885h-14.008c0.715-14.645,3.032-25.238,5.449-32.548
	c8.933-2.881,17.328-6.96,25.002-12.049L188.346,231.885z M141.425,231.885c-0.487-11.208-1.828-20.525-3.562-28.191
	c3.497,0.364,7.045,0.553,10.636,0.553l0,0l0,0h0.001c3.591,0,7.14-0.188,10.637-0.553c-1.733,7.666-3.074,16.983-3.562,28.191
	H141.425z M108.654,231.885l-16.443-44.597c7.679,5.092,16.081,9.173,25.018,12.055c2.404,7.297,4.721,17.89,5.434,32.542H108.654z
	 M111.491,102.123c0-40.436,13.207-70.765,27.639-80.248v160.496C124.698,172.888,111.491,142.559,111.491,102.123z
	 M157.868,182.373v-160.5c14.433,9.483,27.641,39.813,27.641,80.25S172.301,172.891,157.868,182.373z M231.885,102.123
	c0,31.835-17.934,59.554-44.227,73.6c0.688-1.237,1.36-2.512,2.017-3.822c9.397-18.795,14.572-43.576,14.572-69.777
	c0-26.201-5.175-50.982-14.572-69.776c-0.656-1.311-1.329-2.586-2.017-3.823C213.951,42.569,231.885,70.288,231.885,102.123z
	 M109.342,28.523c-0.688,1.237-1.36,2.512-2.017,3.823c-9.397,18.794-14.572,43.575-14.572,69.776
	c0,26.201,5.175,50.982,14.572,69.777c0.593,1.186,1.201,2.337,1.821,3.462c-0.033,0.068-0.07,0.134-0.102,0.204
	c-26.131-14.096-43.93-41.729-43.93-73.443C65.115,70.288,83.049,42.569,109.342,28.523z M172.664,278.262h-48.33l-9.213-27.639
	h66.756L172.664,278.262z"/>
<g>
</g>
<g>
</g>
<g>
</g>
<g>
</g>
<g>
</g>
<g>
</g>
<g>
</g>
<g>
</g>
<g>
</g>
<g>
</g>
<g>
</g>
<g>
</g>
<g>
</g>
<g>
</g>
<g>
</g>
</svg>
