<?xml version="1.0" encoding="iso-8859-1"?>
<!-- Generator: Adobe Illustrator 18.0.0, SVG Export Plug-In . SVG Version: 6.00 Build 0)  -->
<!DOCTYPE svg PUBLIC "-//W3C//DTD SVG 1.1//EN" "http://www.w3.org/Graphics/SVG/1.1/DTD/svg11.dtd">
<svg version="1.1" id="Capa_1" xmlns="http://www.w3.org/2000/svg" xmlns:xlink="http://www.w3.org/1999/xlink" x="0px" y="0px"
	 viewBox="0 0 401.575 401.575" style="enable-background:new 0 0 401.575 401.575;" xml:space="preserve">
<path style="stroke:#000000;stroke-width:0;stroke-linecap:round;stroke-linejoin:round;" d="M16.004,168.027
	c-7.921-5.698-18.722,2.584-15.38,11.701c3.181,8.687,15.908,8.641,19.022-0.083c1.875,10.305,3.196,20.688,5.586,30.902
	c2.623,11.199,6.266,22.216,11.537,32.466c9.807,19.067,25.094,34.49,44.486,43.786c2.823,1.354,5.696,2.554,8.606,3.632
	l-26.483,34.276c-5.204-2.16-11.407-0.688-15.018,3.984l-12.734,16.485c-4.318,5.59-3.287,13.622,2.301,17.941
	c5.59,4.319,13.622,3.289,17.941-2.299l12.736-16.487c3.612-4.669,3.473-11.042,0.068-15.533l27.908-36.12
	c11.781,3.519,24.09,5.135,36.422,5.682c1.355,0.059,2.709,0.12,4.064,0.18l-20.217,26.167c-5.202-2.16-11.402-0.686-15.016,3.984
	l-12.738,16.485c-4.318,5.59-3.287,13.622,2.305,17.941c5.588,4.319,13.619,3.289,17.942-2.299l12.738-16.487
	c3.61-4.669,3.47-11.042,0.065-15.533l23.099-29.896c14.574,0.647,29.142,1.271,43.728,1.669l-18.649,24.135
	c-5.206-2.158-11.404-0.686-15.013,3.985l-12.736,16.485c-4.318,5.59-3.287,13.622,2.3,17.941
	c5.586,4.319,13.625,3.289,17.943-2.299l12.736-16.487c3.611-4.671,3.47-11.046,0.066-15.537l21.654-28.024
	c0.689,0.015,1.379,0.033,2.067,0.047c14.149,0.269,28.343,0.515,42.528,0.501l-18.071,23.39
	c-5.206-2.161-11.407-0.689-15.018,3.983l-12.734,16.485c-4.318,5.59-3.287,13.622,2.298,17.941
	c5.595,4.319,13.625,3.289,17.944-2.299l12.735-16.487c3.609-4.669,3.47-11.042,0.069-15.532l21.269-27.527
	c7.301-0.067,14.596-0.21,21.878-0.481c8.747-0.328,17.511-1.382,26.059-3.299l-21.027,27.215
	c-5.203-2.16-11.407-0.688-15.021,3.984l-12.734,16.485c-4.317,5.59-3.286,13.622,2.307,17.941
	c5.587,4.319,13.618,3.289,17.937-2.299l12.742-16.487c3.609-4.67,3.469-11.043,0.064-15.534l26.426-34.202
	c9.244-2.986,18.09-7.142,26.202-12.694c16.314-11.17,28.164-27.2,35.678-45.367c3.703-9.313,6.345-18.966,8.165-28.817
	c1.633-8.799,2.505-17.689,3.598-26.564c3.816,6.86,13.999,6.799,17.743-0.083c3.598-6.624-1.374-14.94-8.899-14.94
	c-5.212,0-8.563,4.025-10.96,8.186c-2.455,4.259-4.177,8.939-5.986,13.5c-4.147,10.454-8.304,20.905-13.523,30.886
	c-0.369,0.707-0.76,1.401-1.141,2.102c-4.991-12.064-16.883-20.577-30.728-20.577c-15.324,0-28.254,10.422-32.086,24.547
	c-3.833-14.125-16.76-24.547-32.081-24.547c-15.323,0-28.252,10.419-32.089,24.54c-3.26-12.006-13.088-21.336-25.375-23.861v-16.602
	l27.431-0.001l60.579,0.002l-7.203-11.294c-21.084-33.063-23.934-69.488-7.815-99.934l0.141-0.266h15.798V54.503h-88.93V35.788
	h-13.369v18.716h-88.977v18.309h15.799l0.141,0.267c16.111,30.428,13.262,66.853-7.816,99.935l-7.194,11.29l13.388,0.001
	l74.66-0.001v16.594c-12.309,2.514-22.158,11.851-25.422,23.87c-3.836-14.122-16.764-24.542-32.087-24.542
	c-15.321,0-28.249,10.421-32.082,24.545c-3.834-14.124-16.762-24.545-32.084-24.545c-14.988,0-27.687,9.972-31.821,23.628
	c-5.223-9.852-9.34-20.359-13.038-30.833c-1.731-4.903-3.375-9.846-5.294-14.681C20.871,174.705,19.305,170.398,16.004,168.027z
	 M329.142,222.676c5.95,0,10.791,4.842,10.791,10.793c0,5.951-4.841,10.792-10.791,10.792c-5.953,0-10.797-4.841-10.797-10.792
	C318.346,227.518,323.189,222.676,329.142,222.676z M264.975,222.676c5.95,0,10.791,4.842,10.791,10.793
	c0,5.951-4.841,10.792-10.791,10.792c-5.956,0-10.801-4.841-10.801-10.792C254.175,227.518,259.019,222.676,264.975,222.676z
	 M262.567,76.986c-2.671,6.802-4.579,13.796-5.747,20.909H144.786c-1.168-7.114-3.074-14.107-5.744-20.908L262.567,76.986z
	 M146.05,110.036h109.505c-0.394,8.72,0.298,17.558,2.065,26.394H143.981C145.75,127.592,146.441,118.754,146.05,110.036z
	 M136.229,169.616l-4.046,0c3.541-6.846,6.408-13.79,8.607-20.771H260.81c2.199,6.982,5.068,13.925,8.609,20.771l-34.477-0.001
	L136.229,169.616z M200.808,222.676c5.95,0,10.791,4.842,10.791,10.793c0,5.951-4.841,10.792-10.791,10.792
	c-5.956,0-10.801-4.841-10.801-10.792C190.008,227.518,194.852,222.676,200.808,222.676z M136.634,222.676
	c5.954,0,10.799,4.842,10.799,10.793c0,5.951-4.845,10.792-10.799,10.792c-5.951,0-10.793-4.841-10.793-10.792
	C125.841,227.518,130.682,222.676,136.634,222.676z M72.468,222.676c5.952,0,10.795,4.842,10.795,10.793
	c0,5.951-4.843,10.792-10.795,10.792c-5.952,0-10.794-4.841-10.794-10.792C61.674,227.518,66.515,222.676,72.468,222.676z"/>
<g>
</g>
<g>
</g>
<g>
</g>
<g>
</g>
<g>
</g>
<g>
</g>
<g>
</g>
<g>
</g>
<g>
</g>
<g>
</g>
<g>
</g>
<g>
</g>
<g>
</g>
<g>
</g>
<g>
</g>
</svg>
