<?xml version="1.0" encoding="utf-8"?>
<!-- Uploaded to SVGRepo https://www.svgrepo.com -->
<svg version="1.1" id="Layer_1" xmlns="http://www.w3.org/2000/svg" xmlns:xlink="http://www.w3.org/1999/xlink" x="0px" y="0px"
	 width="243px" height="260px" viewBox="0 0 243 260" enable-background="new 0 0 243 260" xml:space="preserve">
<path d="M218.97,42.44c0-16.84,8.79-31.63,22.03-40.01C237.97,2.14,234.61,2,231.51,2c-28.96,0-54.69,12.55-72.64,32.5
	c5.9,9.44,9.4,21.21,9.4,33.95c0,16.84-6.11,31.94-15.78,42.27c-9.49-12.82-26.03-21.06-33.8-26.07c-2.55-1.65-4.66-4.37-4.66-7.59
	c0-4.41,3.59-8,8-8c3.58,0,5.73,2.9,7.79,5.59c1.95,2.54,6.82,8.2,9.17,10.93c1.13,1.31,2.96,1.78,4.58,1.17l4.42-1.65l-3.53-1.51
	c0,0-3.5-7.69-4.76-10.83l11.4,5.71l-0.57,4.83l5.69-5.61c1.17-1.16,1.16-3.05-0.03-4.18l-4.57-4.37
	c-3.16-3.73-3.54-9.26-6.01-14.83c-3.57-8.1-8.47-12.85-8.47-12.85c0,5.91-1.98,9.85-1.98,9.85s-7.026-3.742-16.188-2.637
	c-8.413,0.053-16.256-5.006-19.498-13.054c0,0.001,0,0.001,0,0.002l-0.001-0.003c0,0-2.495,10.936,6.951,17.813
	c-0.144,0.097-0.287,0.194-0.43,0.295c-5.875,1.924-12.494,0.107-16.52-4.828c0,0-0.934,7.141,3.62,11.421
	c1.397,1.313,2.93,1.878,4.386,2.036c-2.713,3.974-4.607,8.65-4.709,13.585c-0.29,13.59,3.971,18.836,13.22,28.49
	c1.568,1.636,2.21,3.71,2.21,5.34c0,4.17-3.37,7.55-7.54,7.55c-2.12,0-4.577-1.153-6.15-2.538
	C83.705,105.263,74.82,87.81,74.82,68.45c0-12.71,3.48-24.45,9.37-33.88C66.24,14.58,40.5,2,11.51,2C8.41,2,5.03,2.14,2,2.43
	c13.24,8.38,22.03,23.17,22.03,40.01c0,14.58-6.61,27.63-16.98,36.32c20.65,3.52,36.38,21.5,36.38,43.16c0,2.46-0.22,4.87-0.61,7.22
	c1.58-0.12,3.19-0.14,4.81-0.18c23.49-0.55,50.13,10.28,54.41,34.65c3.001,17.083,8.651,34.848,19.044,51.649
	c6.887,11.134,9.048,20.47,0.406,27.359c-6.999,5.58-21.841,5.69-28.254-19.934c4.904,0.215,9.421,1.975,13.04,4.836l-14.892-28.477
	l-13.847,29c3.422-2.914,7.733-4.824,12.477-5.284c0.087,8.824,1.582,19.814,7.546,25.859c5.677,5.754,13.29,9.382,20.95,9.382
	c8,0,15.367-3.168,21.48-8.95c7.488-7.082,14.878-18.717,6.016-42.533c-7.1-19.08-8.282-31.556-4.191-45.483
	c5.955-20.274,30.127-32.074,53.555-32.074c1.62,0,3.22,0.06,4.81,0.18c-0.39-2.36-0.61-4.76-0.61-7.22
	c0-21.66,15.73-39.64,36.38-43.16C225.58,70.07,218.97,57.02,218.97,42.44z"/>
</svg>
