<?xml version="1.0" encoding="utf-8"?>
<!-- Uploaded to SVGRepo https://www.svgrepo.com -->
<!DOCTYPE svg PUBLIC "-//W3C//DTD SVG 1.1//EN" "http://www.w3.org/Graphics/SVG/1.1/DTD/svg11.dtd">
<svg width="1000px" height="1000px" viewBox="0 0 1000 1000" version="1.1" xmlns="http://www.w3.org/2000/svg" xmlns:xlink="http://www.w3.org/1999/xlink" x="0px" y="0px" enable-background="new 0 0 1000 1000" xml:space="preserve">

<g><g transform="translate(0.000000,511.000000) scale(0.100000,-0.100000)"><path d="M5777.8,4904.8c-26.8-72.2-82.5-150.6-183.6-257.9l-146.5-154.7l-45.4,43.3c-49.5,45.4-134.1,53.6-171.3,16.5c-30.9-30.9-33-132-4.1-150.6c39.2-24.8,20.6-51.6-92.8-125.8c-61.9-41.3-113.5-80.5-113.5-84.6c0-24.8,53.6-107.3,107.3-165.1l61.9-64l107.3,111.4l105.2,111.4l288.8-371.4c158.8-206.3,286.8-383.8,282.6-398.2c-8.2-24.8-435.3-926.4-443.6-936.7c-4.1-2.1-179.5-20.6-392-39.2c-437.4-39.2-507.5-26.8-319.8,57.8c198.1,90.8,303.3,231.1,319.8,429.1c12.4,138.2,43.3,121.7-313.6,177.4c-123.8,18.6-239.3,41.3-251.7,47.4c-16.5,8.2,47.5,68.1,163,154.7l189.8,142.4l-61.9,49.5c-163,130-470.4,175.4-687,101.1c-309.5-107.3-458-468.3-311.5-755.1c57.8-111.4,185.7-249.6,278.5-301.2c39.2-20.6,72.2-47.5,72.2-59.8c0-43.3-105.2-175.4-138.2-175.4c-20.6,0-251.7-214.6-513.7-476.6L3083.3,1352l-383.8,43.3c-212.5,22.7-387.9,45.4-392,49.5c-8.3,8.2-443.6,907.8-443.6,916c0,4.1,64,26.8,142.4,49.5l142.4,43.3l-22.7,66c-12.4,37.1-39.2,97-61.9,132.1l-39.2,68.1l-84.6-53.6c-146.5-88.7-185.7-103.2-196-74.3c-30.9,92.8-148.5,115.5-200.1,37.1c-24.8-37.1-26.8-59.8-10.3-105.2c26.8-70.1,20.6-74.3-165.1-138.2c-86.7-28.9-185.7-45.4-278.5-47.5c-78.4,0-150.6-8.3-158.9-20.6c-28.9-39.2-16.5-196,24.8-301.2c72.2-196,193.9-323.9,334.2-356.9l55.7-12.4l-28.9,72.2c-43.3,101.1-37.1,200.1,16.5,280.6c49.5,74.3,301.2,276.5,319.8,257.9c4.1-6.2,105.2-204.3,220.8-441.5l210.4-429.1l-47.5-57.8c-55.7-64-66-193.9-22.7-280.6c37.1-72.2,152.7-144.4,233.1-144.4c66,0,74.3-8.3,160.9-181.6c105.2-208.4,136.2-241.4,208.4-222.8c92.8,22.7,103.2,84.6,41.3,222.8c-30.9,68.1-51.6,127.9-45.4,132c4.1,4.1,136.2-6.2,295-24.8c156.8-16.5,313.6-26.8,348.7-20.6c43.3,10.3,142.4,94.9,344.6,295c156.8,154.7,286.8,278.5,290.9,274.4c4.1-6.2,33-249.6,64-540.6c70.1-674.6,142.4-936.7,293-1068.7c101.1-86.7,519.9-208.4,1081.1-311.5l134.1-24.8l227-288.8c125.8-158.9,224.9-303.3,220.8-321.9c-12.4-68.1-148.6-334.2-231.1-456c-94.9-140.3-249.6-309.5-282.6-309.5c-12.4,0-26.8,53.6-35.1,119.7c-14.4,125.9-55.7,282.6-94.9,356.9c-20.6,35.1-28.9,39.2-43.3,16.5c-10.3-16.5-18.6-55.7-18.6-86.7c0-90.8-59.8-200.1-169.2-307.4c-99-101.1-344.5-268.2-369.3-253.8c-6.2,6.2-18.6,59.8-26.8,123.8c-18.6,156.8-53.6,319.8-70.1,319.8c-8.3,0-30.9-39.2-53.6-84.6c-22.7-49.5-84.6-121.7-154.7-175.4c-111.4-90.8-408.5-276.5-439.5-276.5c-8.2,0,8.3,51.6,37.1,115.5c107.3,243.5,138.2,509.6,82.5,697.4c-16.5,53.6-66,154.7-111.4,224.9c-142.4,220.8-181.6,456-119.7,722.1c33,138.2,35.1,138.2-150.6,28.9c-163-94.9-392-319.8-482.8-470.4c-125.9-212.5-167.1-379.6-165.1-658.1c2.1-253.8,39.2-435.3,140.3-689.1l53.6-132l-288.8-530.2l-286.8-530.2l317.7-528.2l319.8-530.2l-14.4-158.9l-12.4-160.9H3564H3888l-24.8,47.4c-14.4,24.8-59.8,101.1-101.1,169.2c-66,111.4-515.8,1074.9-515.8,1105.8c0,8.3,57.8,35.1,130,59.8c148.5,53.6,309.5,152.7,464.2,284.7c109.4,92.9,332.2,354.9,394.1,462.2c31,53.6,70.1,66,625.1,202.2c713.8,175.4,986.2,255.8,1367.9,406.4c443.6,175.4,815,375.5,1039.8,559.1l90.8,74.3l445.7-90.8c245.5-49.5,447.7-90.8,451.8-94.9c4.1-2.1-53.6-94.9-127.9-208.4l-136.2-202.2l229-107.3c127.9-59.8,237.3-109.4,243.5-109.4c6.2,0,57.8,173.3,113.5,383.7c82.5,321.9,94.9,387.9,72.2,408.5c-16.5,14.4-231.1,144.4-476.6,288.8l-447.7,264.1l72.2,94.9c101.1,134.1,206.3,359,247.6,530.2c37.1,160.9,31,534.4-12.4,724.2L8010.2,568l-158.9-68.1c-359-154.7-802.6-220.8-1176-175.4c-264.1,33-1301.9,239.3-1328.7,266.1c-8.2,8.3-22.7,76.3-28.9,150.6c-8.3,99,8.2,235.2,59.8,534.4l72.2,402.3l-125.8,115.5L5198.1,1907l297.1,26.8c163,14.4,311.5,33,330.1,43.3c74.3,39.2,130,136.2,321.8,542.6c111.4,235.2,208.4,427.1,214.6,427.1c8.3,0,43.3-41.3,80.5-92.8c84.6-117.6,127.9-142.4,198.1-109.3c99,45.4,88.7,105.2-49.5,284.7c-115.5,148.6-123.8,167.1-105.2,218.7c39.2,99-18.6,251.7-111.4,301.2c-24.7,14.4-84.6,30.9-134.1,37.1c-90.8,10.3-94.9,14.4-375.5,371.4c-156.8,198.1-278.5,367.2-274.4,375.5c14.5,22.7,251.7,142.4,326,163c84.6,24.8,202.2-10.3,280.6-84.6c37.1-35.1,70.1-61.9,74.3-61.9c4.1,0,8.3,51.6,8.3,113.5c0,142.4-63.9,274.4-189.8,396.1C6013,4933.7,5883,5010,5831.4,5010C5821.1,5010,5798.4,4962.5,5777.8,4904.8z"/><path d="M3504.2,3732.9c-169.2-41.3-336.3-179.5-425-352.8c-43.3-80.5-49.5-123.8-51.6-348.7c-4.1-216.6-10.3-262-43.3-309.5c-59.8-76.3-134.1-99-239.3-66c-181.6,53.6-179.5,53.6-179.5-10.3c0-111.4,138.2-290.9,276.5-363.1c150.6-76.3,373.4-28.9,524,113.5c82.5,80.5,119.7,198.1,138.2,451.8c16.5,216.6,49.5,299.2,123.8,317.7c35.1,8.3,51.6,26.8,51.6,57.8c0,68.1,90.8,243.5,163,309.5l64,61.9l-55.7,57.8C3768.3,3739.1,3646.6,3765.9,3504.2,3732.9z"/><path d="M7620.2,3163.5c-705.6-142.4-1169.8-687-1361.7-1603.1c-51.6-239.3-107.3-726.2-99-843.8l6.2-88.7l134.1-31c92.9-20.6,262-30.9,546.7-30.9c361.1-2.1,435.3,4.1,592.1,43.3c173.3,45.4,511.7,183.6,511.7,210.4c0,6.2-12.4,51.6-26.8,99c-22.7,78.4-39.2,92.8-173.3,160.9c-200.1,99-340.4,231.1-418.8,387.9c-101.1,210.4-103.2,406.4-4.1,406.4c53.7,0,86.7-41.3,86.7-111.4c2.1-35.1,14.4-99,28.9-142.4c74.3-208.4,243.5-348.7,575.6-476.6c222.8-86.7,332.2-171.3,373.4-290.9c33-101.1,97-140.3,206.3-123.8c119.6,16.5,272.3,107.3,301.2,177.4c41.3,97-8.3,295-144.4,585.9c-61.9,134.1-66,150.6-49.5,278.5c43.3,332.2,14.5,453.9-185.7,761.3l-92.9,146.5l68.1,226.9c68.1,227,68.1,227,24.7,237.3C8270.1,3198.5,7845.1,3208.9,7620.2,3163.5z M8373.3,2049.4c68.1-66,70.2-183.6,6.2-251.7c-105.2-111.4-305.3-28.9-305.3,127.9C8074.1,2082.4,8263.9,2160.8,8373.3,2049.4z"/><path d="M8515.6-180.9l-288.8-72.2L8179.3-412c-24.7-86.7-78.4-218.7-115.5-290.9c-39.2-74.3-68.1-136.2-66-140.3c4.1-2.1,148.5,64,321.9,148.5l315.7,154.7L8740.5-641l107.3-103.2l-88.7-179.5c-49.5-99.1-82.5-185.7-72.2-194c35.1-33,441.5-288.8,458-288.8c39.2,0,94.9,280.6,94.9,484.8c0,189.8-6.2,216.6-68.1,348.7c-107.3,229-274.4,466.3-323.9,464.2C8825.1-110.8,8676.6-141.7,8515.6-180.9z"/><path d="M2049.7-428.5c-396.1-74.3-660.2-410.6-660.2-841.8c0-144.4,10.3-191.9,101.1-453.9c26.8-76.3,43.3-173.3,43.3-260c0-311.5-210.4-519.9-629.3-619l-144.4-35.1l175.4-57.8c336.3-107.3,726.2-88.7,973.8,45.4c115.5,63.9,264.1,212.5,321.8,328c61.9,121.7,94.9,317.7,78.4,478.7c-39.2,379.6-39.2,456-4.1,509.6c57.8,88.7,144.4,117.6,321.9,109.3l156.8-6.2l24.8,101.1c14.4,57.8,51.6,160.9,86.7,233.1l59.8,130l-86.7,64C2594.4-502.8,2258.1-391.3,2049.7-428.5z"/><path d="M4948.4-2665c-204.3-53.6-396.1-103.2-425-109.3c-45.4-12.4-57.8-30.9-78.4-132.1c-28.9-125.8-167.1-441.5-270.3-606.6l-59.8-99.1l524-464.2l524.1-466.3l-41.3-117.6c-20.6-63.9-39.2-119.6-39.2-123.8c0-2.1,125.8-6.2,278.5-6.2h278.5l-12.4,57.8c-57.8,226.9-111.4,297.1-850,1081.1l-111.4,117.6l66,33c103.2,53.6,332.2,297.1,416.8,443.6c76.3,130,191.9,437.4,177.4,472.5C5321.9-2576.2,5152.7-2611.3,4948.4-2665z"/></g></g>
</svg>