<?xml version="1.0" encoding="utf-8"?>
<!-- Uploaded to SVGRepo https://www.svgrepo.com -->
<!DOCTYPE svg PUBLIC "-//W3C//DTD SVG 1.1//EN" "http://www.w3.org/Graphics/SVG/1.1/DTD/svg11.dtd">
<svg width="1000px" height="1000px" viewBox="0 0 1000 1000" version="1.1" xmlns="http://www.w3.org/2000/svg" xmlns:xlink="http://www.w3.org/1999/xlink" x="0px" y="0px" enable-background="new 0 0 1000 1000" xml:space="preserve">

<g><g transform="translate(0.000000,511.000000) scale(0.100000,-0.100000)"><path d="M5357.7,4987.7c-35.7-27.7-75.3-152.6-75.3-233.8c0-31.7-184.3-354.7-463.7-820.3c-255.6-422.1-467.6-770.8-471.6-774.8c-4-4-91.1,17.8-194.2,51.5c-103,31.7-245.7,63.4-317,69.4c-112.9,9.9-134.7,7.9-184.3-31.7c-87.2-69.4-263.5-451.8-225.9-489.4c7.9-5.9,53.5,4,103,23.8c51.5,17.8,95.1,29.7,101.1,25.8c4-5.9,21.8-81.2,37.6-166.4c13.9-85.2,37.6-186.3,51.5-221.9c11.9-35.7,19.8-69.4,15.8-73.3c-4-2-283.3-61.4-622.2-126.8c-336.9-67.4-638-132.8-667.8-142.7c-73.3-29.7-114.9-99.1-114.9-194.2c0-146.6,37.6-168.4,495.4-287.3C3075,1532,3287,1464.6,3370.2,1423c136.7-67.4,138.7-67.4,416.1-67.4c309.1,0,515.2,43.6,689.6,144.6c77.3,45.6,382.4,319,366.6,328.9c-53.5,33.7-326.9,118.9-428,134.7c-148.6,21.8-221.9,45.6-221.9,71.3c0,17.9,544.9,35.7,1674.4,53.5l614.3,9.9l-317-111c-275.4-95.1-352.7-112.9-584.6-136.7c-146.6-15.8-323-29.7-392.3-29.7c-160.5,0-208.1-25.8-416.1-221.9c-277.4-261.6-556.8-362.6-1004.6-360.6c-188.2,0-261.6,7.9-352.7,41.6l-116.9,39.6l11.9-41.6c27.7-116.9,130.8-743.1,130.8-804.5c0-132.8,15.8-154.6,126.8-180.3C3721,259.9,4254,248,4460,273.7c259.6,35.7,267.5,37.7,267.5,99.1c2,47.5,4,49.5,27.7,15.9c15.9-19.8,120.9-198.2,237.8-398.3l210-364.6l-11.9-107c-9.9-85.2-6-114.9,21.8-140.7c75.3-75.3,188.3-11.9,188.3,107c0,166.5,128.8,354.7,394.3,574.6c323,267.5,574.6,586.5,760.9,959c95.1,190.2,200.2,497.4,221.9,646c11.9,85.2,19.8,93.1,89.2,114.9c154.6,45.6,233.8,174.4,180.3,291.3l-21.8,47.5l154.6,2c83.2,2,227.9,7.9,321,13.9l168.4,13.9v59.4v59.5h-434h-435.9l-33.7,190.2c-107,612.3-380.4,1083.9-881.8,1521.8c-317,279.4-437.9,539-384.4,828.3c21.8,112.9,21.8,130.8-9.9,164.5C5448.8,5017.5,5403.2,5021.4,5357.7,4987.7z M5442.9,4157.5c45.6-69.4,150.6-188.2,233.8-265.5c340.8-313.1,485.5-481.5,630.1-733.2c134.7-233.8,229.9-517.2,271.5-816.4l11.9-85.2h-103c-57.4-2-600.4-13.9-1204.7-27.7c-604.4-15.9-1105.7-23.8-1111.6-19.8c-7.9,4-5.9,49.5,4,101.1c19.8,101,57.5,144.6,126.8,144.6c23.8,0,85.2,13.9,134.7,31.7c152.6,51.5,255.6-6,214-116.9c-15.9-41.6-13.9-47.6,17.8-39.6c19.8,5.9,59.4,35.7,89.2,65.4c51.5,53.5,53.5,67.4,43.6,176.3c-15.9,180.3-114.9,366.6-241.7,453.8c-53.5,35.7-101.1,73.3-105,83.2c-4,9.9,182.3,328.9,414.1,713.3l422.1,695.5l35.6-116.9C5343.8,4337.8,5397.3,4228.8,5442.9,4157.5z M6528.7,1520.1c-134.7-487.4-455.7-967-863.9-1295.9c-180.3-144.7-313.1-291.3-374.5-410.2c-17.9-31.7-37.7-49.5-47.6-41.6c-7.9,9.9-124.8,204.1-255.6,430l-239.8,412.1l35.7,356.7c19.8,194.2,41.6,358.7,45.6,362.6c4,4,253.6,35.7,556.8,69.4c525.1,61.4,558.8,67.4,832.2,160.5c154.6,51.5,299.2,97.1,317.1,97.1C6564.4,1662.8,6564.4,1650.9,6528.7,1520.1z"/><path d="M3431.7,14.2c-19.8-79.3-99.1-327-174.4-550.9c-77.3-223.9-142.7-428-148.6-455.7c-27.7-150.6,267.5-340.8,648-418.1c285.3-55.5,661.8-55.5,881.8,0c192.2,49.5,408.2,154.6,542.9,259.6l99.1,79.3l-25.8,73.3c-15.9,41.6-101.1,243.7-190.2,449.8c-89.2,208.1-186.3,451.8-214,541l-53.5,166.4l-79.3-11.9c-408.2-63.4-774.8-63.4-1169.1,0l-81.2,13.9L3431.7,14.2z"/><path d="M3281.1-1414.5c0-13.9-13.9-146.6-29.7-295.2l-27.7-273.4l-111-160.5c-61.4-89.2-107-174.4-101.1-188.2c6-15.8,47.6-51.5,91.2-81.2l81.2-55.5l-9.9-247.7c-6-136.7-21.8-624.2-35.7-1083.9c-23.8-834.2-23.8-838.2,17.8-891.7c21.8-31.7,71.3-67.4,109-81.2c59.4-23.8,79.3-21.8,140.7,2c37.7,17.8,85.2,51.5,101.1,77.3c23.8,35.7,55.5,307.1,130.8,1093.8c53.5,576.6,99.1,1054.1,99.1,1062.1c0,7.9,39.6,29.7,89.2,47.5c49.5,19.8,93.1,43.6,101.1,53.5c5.9,9.9-13.9,91.2-43.6,182.3l-53.5,164.5l53.5,221.9c63.4,273.4,63.4,281.4,4,281.4c-85.2,0-430,97.1-519.2,146.6C3314.7-1410.5,3281.1-1400.6,3281.1-1414.5z"/><path d="M4965.3-1438.3c-93.1-53.5-267.5-112.9-430-146.6l-160.5-31.7l109-297.2l109-297.2l-21.8-138.7c-11.9-75.3-27.7-158.5-33.7-182.3c-9.9-37.7-2-43.6,93.1-59.4l103-15.8L5106-3637.7c204.1-566.7,382.5-1046.2,394.3-1066s53.5-49.5,91.1-65.4c130.8-55.5,287.3,41.6,285.4,178.3c-2,33.7-124.8,529-275.4,1101.7L5326-2448.8l43.6,49.5c107,120.9,109,107-31.7,253.6L5211-2012.9l-77.3,303.2c-41.6,164.5-85.2,301.2-97.1,301.2C5024.8-1410.5,4993.1-1422.4,4965.3-1438.3z"/></g></g>
</svg>