<?xml version="1.0" encoding="utf-8"?>
<!-- Uploaded to SVGRepo https://www.svgrepo.com -->
<!DOCTYPE svg PUBLIC "-//W3C//DTD SVG 1.1//EN" "http://www.w3.org/Graphics/SVG/1.1/DTD/svg11.dtd">
<svg width="1000px" height="1000px" viewBox="0 0 1000 1000" version="1.1" xmlns="http://www.w3.org/2000/svg" xmlns:xlink="http://www.w3.org/1999/xlink" x="0px" y="0px" enable-background="new 0 0 1000 1000" xml:space="preserve">

<g><g transform="translate(0.000000,511.000000) scale(0.100000,-0.100000)"><path d="M4251.8,4993.3c-85-27-174.1-78.8-217.6-126.4c-82.9-93.3-201-165.8-273.6-165.8c-82.9,0-161.7,72.5-182.4,165.8c-29,134.7-107.8,107.8-167.9-56c-66.3-190.7-10.4-366.8,151.3-476.7c184.4-120.2,304.7-109.8,538.9,47.7c76.7,53.9,209.3,132.6,294.3,178.2c130.6,70.5,174.1,85,279.8,85c70.5,0,147.1-10.4,174.1-24.9c41.5-22.8,45.6-20.7,45.6,26.9c0,130.6-126.4,277.7-286,331.6C4508.8,5014,4340.9,5020.2,4251.8,4993.3z"/><path d="M3014.5,4576.7c-85-35.2-116.1-109.8-99.5-246.6c14.5-120.2,12.4-124.4-37.3-136.8c-26.9-8.3-97.4-4.2-155.4,6.2l-105.7,18.7l33.2-64.3c18.6-35.2,82.9-116.1,145.1-180.3c223.8-234.2,588.6-323.3,922.3-221.8c116.1,33.1,277.7,184.5,292.2,269.4c8.3,37.3,18.7,89.1,26.9,114l12.4,47.7l-97.4-43.5c-126.4-56-310.9-72.5-414.5-39.4c-153.4,51.8-342,273.6-342,404.1c0,37.3-14.5,58-53.9,72.5C3078.8,4601.6,3074.6,4601.6,3014.5,4576.7z"/><path d="M4513,4506.3c-124.4-45.6-223.8-138.9-292.2-271.5c-56-109.8-62.2-140.9-62.2-319.2c0-225.9,31.1-310.9,136.8-364.8c33.2-18.6,93.3-82.9,132.6-145.1c93.3-143,172-172,375.1-138.9c147.2,24.9,188.6,51.8,277.7,180.3c111.9,161.7,159.6,474.6,103.6,677.7c-33.1,120.2-147.1,269.4-252.8,333.7C4815.5,4531.1,4635.2,4551.8,4513,4506.3z M5068.4,4149.8c49.7-103.6,62.2-308.8,29-420.7c-43.5-143-68.4-145.1-257-37.3c-161.7,93.3-344,159.6-437.3,159.6c-41.5,0-47.7,10.4-47.7,89.1v89.1l161.7,24.9c107.8,16.6,203.1,47.7,294.3,95.3C4987.6,4243,5022.8,4243,5068.4,4149.8z"/><path d="M4253.9,3196.4c-47.7-68.4-49.7-76.7-18.7-128.5c39.4-68.4,252.8-215.5,371-252.9c82.9-29,91.2-26.9,217.6,39.4c147.1,76.7,298.4,211.4,298.4,265.3c0,20.7-18.7,60.1-41.5,89.1l-39.4,51.8l-47.7-45.6c-157.5-149.2-480.8-147.1-638.3,4.2l-51.8,49.7L4253.9,3196.4z"/><path d="M3858,3026.5c-97.4-29-178.2-53.9-180.3-53.9c-6.2-4.2,217.6-1900.5,223.8-1906.7c6.2-4.2,594.8-244.6,675.6-275.7c22.8-8.3,26.9,170,24.9,918.1v930.5l-167.9,80.8c-180.3,85-337.8,223.8-360.6,310.9c-6.2,29-18.7,53.9-26.9,51.8C4040.4,3080.4,3955.5,3055.5,3858,3026.5z"/><path d="M5230,2983c-58-93.3-252.8-246.6-402.1-315l-58-24.9v-930.6c0-509.8,6.2-928.5,16.6-926.4c8.3,0,159.6,64.2,335.8,138.8c269.4,118.1,321.2,147.1,317.1,180.3c-41.5,352.3-60.1,1268.4-33.1,1550.2l12.4,143l118.1-14.5c111.9-12.4,120.2-10.4,130.6,35.2c18.7,66.3,18.7,161.7-2.1,161.7c-8.3,0-95.3,22.8-194.8,49.7l-178.2,49.7L5230,2983z"/><path d="M3447.7,2518.7l-109.8-240.4l53.9-232.1c29-126.4,51.8-234.2,51.8-238.3c0-4.1,56-35.2,126.4-70.5l124.4-64.3l-10.4,68.4c-6.2,37.3-35.2,273.6-66.3,524.3c-29,250.8-53.9,464.2-58,474.6C3557.5,2750.8,3507.8,2651.4,3447.7,2518.7z"/><path d="M6705.7,2688.7c-18.7-31.1-234.2-134.7-360.6-174.1c-68.4-20.7-221.8-41.5-383.4-49.7l-269.4-12.4l6.2-362.7C5729.5,361.2,6108.8-915.4,6685-1218c109.8-56,116.1-58,182.4-24.9c335.8,161.7,625.9,713,771,1467.3c95.3,493.3,120.2,791.7,130.6,1556.5l10.4,719.2l-213.5-10.4c-273.6-12.4-470.5,26.9-688.1,136.8C6790.6,2670,6711.9,2699,6705.7,2688.7z M6937.8,2180.9c82.9-26.9,199-53.9,259.1-60.1c62.2-6.2,134.7-16.6,161.7-22.8l49.7-10.4l-14.5-418.6C7362.7,757.1,7257,98,7072.5-364.1c-74.6-186.5-240.4-447.7-281.9-447.7c-47.7,0-217.6,259.1-304.7,460.1C6280.8,125,6148.2,817.2,6096.3,1693.9c-22.8,391.7-22.8,395.8,85,395.8c76.7,0,354.4,74.6,458,122.3c49.7,20.7,103.6,35.2,120.2,29S6857,2207.8,6937.8,2180.9z"/><path d="M3165.8,1894.9c-64.2-147.1-66.3-149.2-8.3-325.4l43.5-138.9l172-45.6c93.3-24.9,180.3-39.4,190.7-33.2c31.1,18.7,76.7,163.7,53.9,172c-10.4,4.1-82.9,41.4-163.7,85l-145.1,76.7l-33.2,134.7C3225.9,2027.5,3225.9,2027.5,3165.8,1894.9z"/><path d="M2755.5,1111.5c-319.2-526.4-294.3-495.3-333.7-416.6c-39.4,72.5-82.9,95.3-116.1,62.2c-31.1-31.1-29-49.8,20.7-172l45.6-107.8l-68.4-109.9c-138.9-225.9-39.4-416.6,199-383.4c80.8,10.4,89.1,6.2,111.9-51.8c14.5-33.2,22.8-64.3,18.7-66.3c-4.1-4.1-99.5-47.7-209.3-97.4c-169.9-74.6-203.1-97.4-203.1-134.7c0-26.9,14.5-58,31.1-72.5c26.9-22.8,62.2-12.4,201,49.7c93.3,41.5,176.2,68.4,184.4,60.1c8.3-8.3,385.5-851.8,837.3-1871.5c451.8-1019.7,845.6-1894.3,872.5-1941.9c72.5-126.4,298.4-420.7,321.2-420.7c31.1,0,20.7,124.3-31.1,352.3c-43.5,190.7-157.5,464.3-880.8,2093.2c-456,1032.1-831.1,1888.1-835.2,1904.6c-4.1,18.6,58,56,170,107.8c147.1,64.2,178.2,87,182.4,130.6c12.4,101.5-51.8,101.5-275.6,0c-114-49.7-215.5-89.1-228-82.9c-12.4,4.2-37.3,45.6-56,91.2l-31.1,82.9L3085,647.2c456,603.1,439.4,534.7,153.4,603.1c-143,35.2-153.4,41.4-180.3,111.9c-16.6,41.4-37.3,91.2-45.6,111.9C3002.1,1501.1,2939.9,1414.1,2755.5,1111.5z"/><path d="M3810.4,879.4c-6.2-14.5-101.6-149.2-211.4-298.4c-228-308.8-225.9-298.5-47.7-433.2C3713,25.5,3789.7-7.7,3940.9-18c74.6-4.1,209.3-29,300.5-51.8c230-62.2,574.1-62.2,824.8,0c101.6,24.9,221.8,45.6,269.4,45.6c89.1,0,211.4,29,261.2,60.1c22.8,14.5,20.7,47.7-14.5,201c-24.9,101.5-60.1,288.1-78.8,412.4c-20.7,126.4-37.3,230-39.4,234.2c-6.2,6.2-654.9-263.2-669.4-275.6c-4.2-4.2,26.9-22.8,68.4-43.5c43.5-18.7,105.7-74.6,138.9-120.2c78.7-105.7,147.1-263.2,126.4-283.9c-8.3-8.3-95.3-31.1-192.7-51.8c-263.2-51.8-725.4-12.4-725.4,62.2c0,82.9,215.5,346.1,339.9,416.6c29,16.6-35.2,49.7-333.7,172c-203.1,82.9-375.1,149.2-381.3,149.2C3827,908.4,3816.6,895.9,3810.4,879.4z"/><path d="M3495.4-154.8c-89.1-540.9-114-708.8-103.6-739.9c10.4-33.2,33.2-39.4,155.4-37.3c178.2,2.1,290.2-49.7,420.7-188.6l93.3-99.5l157.5,416.6c87,232.1,157.5,429,157.5,441.4c0,47.7-217.6,116.1-416.6,130.6c-161.7,12.4-223.8,26.9-327.5,78.7l-124.4,62.2L3495.4-154.8z"/><path d="M5578.2-194.2c-76.7-26.9-161.7-41.4-259.1-41.4c-118.1,2.1-176.2-10.4-304.7-64.2c-89.1-37.3-161.7-76.7-161.7-87.1c0-18.6,184.5-493.3,302.6-775.1l29-70.5l82.9,95.3c47.7,51.8,134.7,120.2,196.9,151.3c97.4,47.7,132.6,53.9,259.1,45.6c78.8-4.1,145.1-2.1,145.1,4.2c0,16.6-122.3,686-134.7,742C5721.2-140.3,5723.3-140.3,5578.2-194.2z"/><path d="M3514-1097.8c-16.6-10.4,24.9-126.4,134.7-371c87.1-194.8,161.7-360.6,170-366.8c6.2-6.2,45.6,85,89.1,203.1l78.8,215.5l-64.2,93.3c-82.9,120.2-172,194.8-267.4,221.8C3563.7-1077.1,3545.1-1077.1,3514-1097.8z"/><path d="M5520.2-1137.2c-68.4-33.2-182.4-157.5-230-250.8c-26.9-49.8,2.1-145.1,126.4-439.4l41.5-93.3l29,72.5c43.5,103.6,128.5,184.5,217.6,207.3c74.6,20.7,124.3,12.4,275.7-51.8c31.1-14.5,35.2-8.3,26.9,22.8c-6.2,20.7-26.9,124.4-45.6,225.9c-53.9,308.8-49.7,296.4-118.1,319.2C5750.2-1091.6,5599-1097.8,5520.2-1137.2z"/><path d="M3124.4-2339.3c-6.2-20.7-91.2-451.8-188.6-957.5l-178.2-918.1l-163.7-184.4c-176.2-194.8-199-252.9-132.6-346.1c53.9-78.8,130.6-58,385.5,101.5c128.5,80.8,244.6,159.6,259.1,172c20.7,20.7,441.4,1566.8,447.7,1651.8c0,18.6-33.1,114-78.8,211.4c-60.1,134.7-89.1,180.3-118.1,180.3c-49.7,0-116.1,33.2-176.2,87.1C3138.9-2301.9,3136.8-2301.9,3124.4-2339.3z"/><path d="M6098.4-2343.4c-53.9-99.5-275.6-138.9-429-74.6c-74.6,31.1-74.6,31.1-62.2-18.6c39.4-157.5,555.4-1956.5,569.9-1991.7c10.4-22.8,140.9-116.1,290.2-205.2c246.6-147.1,277.7-161.7,323.3-140.9c66.3,31.1,103.6,109.8,85,182.4c-8.3,31.1-87,130.6-172,219.7l-157.5,161.7L6343-3265.7c-111.9,520.2-207.2,951.3-213.5,955.4C6125.4-2304,6110.9-2320.6,6098.4-2343.4z"/></g></g>
</svg>