<?xml version="1.0" encoding="utf-8"?>
<!-- Uploaded to SVGRepo https://www.svgrepo.com -->
<!DOCTYPE svg PUBLIC "-//W3C//DTD SVG 1.1//EN" "http://www.w3.org/Graphics/SVG/1.1/DTD/svg11.dtd">
<svg width="1000px" height="1000px" viewBox="0 0 1000 1000" version="1.1" xmlns="http://www.w3.org/2000/svg" xmlns:xlink="http://www.w3.org/1999/xlink" x="0px" y="0px" enable-background="new 0 0 1000 1000" xml:space="preserve">

<g><g transform="translate(0.000000,511.000000) scale(0.100000,-0.100000)"><path d="M6501.9,4630.7c-30.7-30.7-35.1-131.5-4.4-162.1c19.7-19.7-438.2-867.6-479.8-880.7c-11-4.4-26.3,13.1-35,37.2c-19.7,61.3-188.4,210.3-311.1,271.7c-192.8,98.6-344,131.5-563.1,120.5c-138-6.6-225.7-21.9-287-50.4l-87.6-43.8l6.6-208.1c4.4-131.5-6.6-269.5-26.3-372.5c-46-214.7-43.8-304.5,6.6-438.2c30.7-78.9,35.1-113.9,15.3-127.1c-13.1-11-225.7-50.4-471-89.8c-243.2-37.2-473.2-83.3-508.3-100.8c-129.3-67.9-173.1-278.3-81.1-394.4c63.5-81.1,144.6-111.7,390-142.4c113.9-15.3,216.9-35.1,227.9-43.8c26.3-26.3-225.7-265.1-398.7-381.2c-166.5-109.5-438.2-210.3-571.8-210.3c-103,0-107.4-13.1-57-153.4c133.7-381.2,685.8-766.8,1097.7-766.8c188.4,0,230,39.4,324.3,308.9c70.1,197.2,223.5,777.8,276.1,1053.8l24.1,124.9l70.1-13.1c39.4-6.6,76.7-17.5,85.5-26.3c19.7-17.5-120.5-646.3-214.7-966.2c-41.6-138-111.7-324.2-153.4-411.9c-67.9-138-92-168.7-170.9-203.8c-124.9-57-361.5-54.8-528,2.2c-100.8,35.1-131.5,37.3-146.8,17.5c-26.3-41.6-21.9-181.8,8.8-247.6c57-124.9,433.8-230.1,981.5-276c162.1-13.2,315.5-28.5,339.6-32.9c28.5-4.4,138-135.8,293.6-350.5L5803-872.9l-41.6-76.7c-87.6-164.3-407.5-440.4-512.7-440.4c-11,0-21.9,30.7-21.9,65.7c0,70.1-54.8,190.6-129.3,282.6l-41.6,54.8l-35.1-81.1c-83.3-199.4-256.3-396.6-422.9-484.2c-98.6-48.2-138-46-138,15.3c0,50.4-83.3,322.1-98.6,322.1c-4.4,0-28.5-41.6-50.4-94.2c-46-105.2-138-190.6-287-265.1c-100.8-52.6-333-129.3-346.2-116.1c-2.2,4.4,24.1,78.9,61.4,164.3c138,330.8,135.8,646.3-6.6,869.8c-153.4,241-179.6,313.3-188.4,523.6c-4.4,127.1,4.4,241,24.1,315.5c28.5,105.2,28.5,116.1-4.4,103c-212.5-78.9-582.8-418.5-696.7-635.4c-96.4-184-142.4-381.2-142.4-613.5c0-254.1,32.9-433.8,127.1-685.8l76.7-203.8l-298-547.7c-164.3-302.3-293.6-563.1-287-580.6c6.6-17.5,155.6-271.7,333-567.5l319.9-536.8l-15.3-175.3l-15.3-175.3h341.8h344l-26.3,50.4c-13.1,26.3-63.5,111.7-109.5,192.8c-127.1,221.3-552.1,1163.4-530.2,1180.9c8.8,8.8,70.1,32.9,133.6,54.8c249.8,81.1,648.5,418.5,847.9,720.8l81.1,120.5l637.5,155.5c352.8,87.6,769,181.8,924.6,210.3c341.8,63.5,900.5,113.9,929,85.4c10.9-13.1,188.4-346.2,394.4-744.9c333-646.3,390-775.6,547.7-1222.5c155.5-440.4,177.5-519.2,177.5-652.9v-151.2h328.6c181.8,0,328.6,6.6,328.6,15.3c0,8.8-48.2,89.8-109.5,181.8c-87.6,133.6-144.6,267.3-293.6,701.1c-168.7,488.6-604.7,1945.5-604.7,2017.9c0,17.5,52.6,74.5,116.1,131.5l113.9,98.6l449.1-52.6c247.6-28.5,460.1-63.5,475.4-76.7c24.1-26.3,357.1-655.1,357.1-677c0-6.6-74.5-43.8-164.3-83.3l-162.1-70.1l70.1-100.8c109.6-151.2,256.3-311.1,291.4-311.1c41.6,0,162.1,170.9,273.9,385.6l89.8,177.5l-195,565.3l-197.2,565.3l-457.9,135.8c-252,74.5-455.7,144.6-453.5,155.6c2.2,11,67.9,157.7,144.6,326.4L8202-42.6l-146.8,15.3C7461.5,38.5,6951,257.6,6464.6,656.3l-153.4,124.9l-361.5-8.8c-306.7-8.8-370.3-6.6-420.7,24.1c-37.2,21.9-57,50.4-52.6,70.1c6.6,17.5,17.5,83.3,26.3,142.4c19.7,138,311.1,762.4,350.5,747.1c65.7-24.1,819.4-523.6,819.4-543.3c0-11-35-70.1-76.7-133.6c-41.6-61.3-76.7-122.7-76.7-135.8c2.2-32.9,339.6-280.4,539-394.4c188.4-107.4,438.2-210.3,639.8-262.9c153.4-41.6,503.9-78.9,567.5-63.5c30.6,8.8,61.3,50.4,92,124.9l46,111.7l-52.6,54.8c-149,162.1-245.4,405.3-221.3,563.1c26.3,181.8,124.9,149,164.3-57c37.2-199.4,103-304.5,330.8-525.8c227.9-221.3,260.7-276.1,260.7-427.2c0-111.7,32.9-153.4,149-186.2c100.8-26.3,109.5-26.3,247.6,2.2c103,21.9,113.9,30.7,155.6,122.7c35.1,78.9,43.8,144.6,41.6,359.3c0,142.4-4.4,278.2-11,300.1c-8.8,24.1,28.5,127.1,96.4,258.5c103,205.9,109.6,225.7,109.6,392.2c0,96.4-19.7,258.5-41.6,357.1l-39.4,184.1l153.4,197.2l153.4,199.4l-52.6,41.6c-103,81.1-407.5,214.7-589.4,258.5c-414.1,98.6-850.1,32.9-1281.7-192.8c-175.3-92-197.2-92-273.9,19.7c-46,63.5-46,67.9-10.9,142.4c35,74.5,35,155.6,0,262.9c-13.1,41.6,4.4,46,530.2,105.2c298,35,560.9,70.1,582.8,81.1c43.8,24.1,48.2,92,8.8,127.1c-21.9,17.5-201.6,2.2-674.8-52.6c-354.9-41.6-650.7-67.9-659.5-59.2c-8.8,8.8-21.9,144.6-28.5,300.2c-8.8,157.8-28.5,359.3-46,449.1c-76.7,374.6-313.3,694.5-624.4,843.5C6609.2,4661.4,6545.7,4674.5,6501.9,4630.7z M6762.6,4348.1c212.5-135.8,359.3-346.2,427.2-613.5c28.5-113.9,78.9-760.2,61.4-784.3c-2.2-2.2-289.2-39.4-633.2-78.9c-346.2-41.6-631-76.7-635.4-81.1c-30.7-30.7-116.1-170.9-103-170.9c8.8,0,295.8,35.1,639.8,74.5c344,39.4,626.6,70.1,631,67.9c6.6-4.4-293.6-151.2-528-258.5l-151.2-65.7l-319.9,57c-177.5,32.9-361.5,65.7-409.7,72.3c-269.5,39.4-324.2,184-177.5,479.8c70.1,142.4,297.9,427.2,341.8,427.2c11,0,32.9-39.4,46-87.6c15.3-48.2,32.9-87.6,39.5-87.6c8.8,0,155.5,252,328.6,558.7c173.1,306.7,319.9,558.7,326.4,558.7C6653,4416,6705.6,4385.3,6762.6,4348.1z M7538.2,2247l81.1-98.6l-72.3-54.8c-168.7-127.1-436-376.8-598.1-560.9c-94.2-107.4-184-195-197.2-195c-13.1,0-212.5,122.7-444.8,271.7l-420.7,271.7l41.6,81.1l41.6,81.1l284.8-54.8l287-52.6l442.6,210.3c245.4,116.1,451.3,208.1,457.9,203.8C7450.5,2347.7,7494.4,2301.7,7538.2,2247z M9214.2,1151.5c89.8-89.8,26.3-262.9-98.6-262.9c-67.9,0-164.3,89.8-164.3,153.4s96.4,153.4,164.3,153.4C9146.3,1195.3,9190.2,1175.6,9214.2,1151.5z"/><path d="M461.5,1026.6C334.4,998.1,100,923.6,100,912.7c0-8.8,57-26.3,127.1-41.6c149-30.7,361.5-127.1,460.1-212.5c39.4-32.9,98.6-105.2,131.5-162.1c52.6-89.8,59.2-122.7,57-287c-2.2-149-13.1-216.9-61.3-339.6c-87.6-221.3-107.4-352.7-78.9-530.2c48.2-302.3,232.2-569.6,468.9-685.8c146.8-70.1,396.6-85.4,574-32.9c162.1,46,376.8,157.8,545.5,284.8l129.3,98.6l6.6,146.8c2.2,83.3,15.3,197.2,28.5,256.3c13.1,59.2,19.7,111.7,15.3,113.9c-4.4,4.4-65.7-11-138-37.3c-179.6-63.5-482-81.1-574-32.9c-113.9,59.2-144.6,146.8-122.7,341.8c8.8,89.8,17.5,267.3,19.7,394.4c0,203.8-6.6,243.2-59.2,354.9c-157.7,335.2-464.5,501.7-915.8,497.3C599.5,1037.6,485.6,1033.2,461.5,1026.6z"/><path d="M4755.7-2178.7c-216.9-57-420.7-109.5-451.3-116.1c-50.4-13.1-59.1-30.7-72.3-118.3c-17.5-124.9-129.3-390-256.3-602.5l-92-155.5l74.5-67.9c41.6-35,289.2-256.3,549.9-488.6l475.4-425l-43.8-122.7c-21.9-67.9-41.6-131.5-41.6-142.4c0-8.8,133.6-17.5,295.8-17.5c162.1,0,295.8,8.8,295.8,17.5c0,11-24.1,89.8-52.6,175.3c-50.4,149-74.5,177.5-499.5,639.8c-245.4,265.1-446.9,490.8-449.1,499.5c-2.2,8.8,46,50.4,107.4,92c153.4,107.4,333,330.8,433.8,536.8c78.9,162.1,149,374.7,129.3,392.2C5154.5-2077.9,4972.6-2121.7,4755.7-2178.7z"/></g></g>
</svg>