<?xml version="1.0" encoding="utf-8"?>
<!-- Uploaded to SVGRepo https://www.svgrepo.com -->
<svg version="1.1" id="Layer_1" xmlns="http://www.w3.org/2000/svg" xmlns:xlink="http://www.w3.org/1999/xlink" x="0px" y="0px"
	 width="162px" height="256px" viewBox="0 0 162 256" enable-background="new 0 0 162 256" xml:space="preserve">
<path d="M145.217,208.344c-2.658-1.024-3.987-4.272-3.002-6.93c1.132-3.662,4.873-8.397,5.769-9.637
	c14.687-20.219,13.703-37.584,8.377-47.359c-3.583-6.546-9.037-12.482-27.386-20.249c-12.364-5.247-17.433-9.893-18.881-14.087
	c8.308-0.197,14.982-6.969,14.982-15.327c0-5.414-2.815-10.159-7.048-12.895c4.005-11.496,6.338-20.485,6.338-31.569
	C124.366,23.006,105.997,2,84.093,2C59.792,2,42.802,24.823,42.802,50.292c0,10.585,1.25,20.111,6.556,31.658
	c-4.164,2.746-6.91,7.452-6.91,12.807c0,7.865,5.916,14.333,13.535,15.228c-0.61,7.166-4.646,17.305-20.564,20.022
	c-22.483,3.839-32.406,16.213-32.406,32.071c0,14.165,9.755,18.27,9.686,30.112c-0.03,5.345-4.046,10.582-10.641,10.1
	c0,0,1.132,2.983,4.804,3.721c9.283,1.851,15.12-5.739,14.933-14.421c-0.345-16.41-11.567-25.18-1.496-38.253
	c8.505-11.055,24.127-6.989,39.336-16.518c-6.123,6.723-13.89,18.073-13.89,32.485c0,10.644,5.87,20.082,11.323,28.803
	c5.658,9.049,13.517,19.888,12.474,31.156c-0.729,7.875-7.352,14.106-15.312,14.106c-8.269,0-14.992-6.487-15.415-14.648
	C33.48,230.69,37.309,254,57.43,254c16.203,0,25.072-13.919,25.072-26.254c0-28.892-21.233-40.842-18.063-63.532
	c1.467-10.444,13.378-24.098,19.875-36.215c1.9,6.615,5.463,12.009,8.997,17.01c3.544,5.001,7.048,9.627,8.85,14.697
	c6.704,18.959-15.662,36.481-9.903,58.344c7.117,27.061,33.282,19.461,33.991,19.245c-9.056-1.919-16.626-8.672-19.589-17.424
	c-3.317-9.824,0.453-20.396,5.139-29.128c3.642-6.763,7.088-13.634,7.088-21.499c0-13.004-5.188-21.794-11.448-32.908
	c-1.014-1.801-1.811-3.632-2.461-5.453c12.177,7.206,30.496,5.857,38.568,20.82c5.788,10.749-2.815,26.805-6.33,33.627
	c-2.235,4.341-6.674,10.543-6.625,18.743c0.02,4.321,3.751,10.238,10.996,10.238c2.953,0,5.847-1.004,7.806-3.278
	c0.876-1.024,2.067-2.756,2.087-4.144C150.237,207.921,147.648,209.27,145.217,208.344z M57.784,103.064
	c-4.587,0-8.308-3.721-8.308-8.308c0-2.579,1.171-4.883,3.012-6.398l8.672,13.988C60.127,102.808,58.985,103.064,57.784,103.064z
	 M106.127,102.238l8.653-14.077c1.988,1.506,3.268,3.898,3.268,6.595c0,4.587-3.721,8.308-8.308,8.308
	C108.45,103.064,107.22,102.769,106.127,102.238z"/>
</svg>
