<?xml version="1.0" encoding="UTF-8"?>
<!DOCTYPE svg  PUBLIC '-//W3C//DTD SVG 1.1//EN'  'http://www.w3.org/Graphics/SVG/1.1/DTD/svg11.dtd'>
<svg width="128px" height="128px" viewBox="0 0 128 128" enable-background="new 0 0 128 128" version="1.1" xml:space="preserve" xmlns="http://www.w3.org/2000/svg">
	<path d="m64.266 92.241s0.593 3.587 6.382 7.804c0 0 1.322 12.712 7.048 12.838 0 0 1.51-0.063 1.322-1.385-0.16-1.123-0.503-2.769 0.629-3.272 1.519-0.675 4.216-0.063 4.279 2.517s0 6.167-5.16 7.111c0 0-4.594 0.629-6.923-2.643s-6.697-13.656-7.578-15.293c-0.881 1.636-5.25 12.02-7.578 15.293s-6.923 2.643-6.923 2.643c-5.16-0.944-5.223-4.531-5.16-7.111s2.76-3.193 4.279-2.517c1.133 0.503 0.79 2.149 0.629 3.272-0.189 1.322 1.322 1.385 1.322 1.385 5.727-0.126 7.048-12.838 7.048-12.838 5.792-4.217 6.384-7.804 6.384-7.804zm9.041-70.44l-0.101-3.707c-4.6-5.16-8.952-7.997-8.952-7.997s-19.572 12.76-19.572 33.371c0 15.379 6.964 21.183 6.964 21.183s1.451 2.902-2.176 4.933c0 0 0.58 4.498 2.902 7.254 0 0-1.161 1.886-3.917 1.596-2.757-0.29-10.592-2.176-9.866-11.027s3.192-13.929 2.321-20.893-4.789-14.074-11.027-13.784c-6.239 0.29-10.31 5.039-10.446 9.141-0.145 4.353 3.047 7.69 6.384 7.69s4.208-1.741 4.062-2.757c-0.145-1.016-0.435-1.886-2.467-2.031s-2.902-0.871-2.902-2.467 1.016-3.627 4.643-3.482 5.949 6.819 5.513 10.011c-0.435 3.192-3.627 14.654-3.047 18.716 0.58 4.063 1.596 13.348 14.074 16.685 0 0 6.529 1.596 8.996-1.161 0 0-1.016 2.902 0.58 5.368 0 0 0.913 5.208-5.513 7.545-4.788 1.741-12.913 2.321-13.783-2.321 0 0-0.419-4.597 2.612-4.063 2.467 0.435 3.047 2.467 2.176 4.498 0 0 2.612 2.612 5.368 0.145 0 0 1.628-9.192-7.98-9.576-7.254-0.29-7.69 7.254-7.69 8.56s-0.145 8.27 12.333 9.286 18.267-8.27 21.458-14.074c3.192 5.804 8.981 15.089 21.458 14.074s12.333-7.98 12.333-9.286-0.435-8.85-7.69-8.56c-9.608 0.384-7.98 9.576-7.98 9.576 2.757 2.467 5.368-0.145 5.368-0.145-0.871-2.031-0.29-4.063 2.176-4.498 3.031-0.535 2.612 4.063 2.612 4.063-0.871 4.643-8.996 4.062-13.783 2.321-6.426-2.337-5.513-7.545-5.513-7.545 1.596-2.467 0.58-5.368 0.58-5.368 2.467 2.757 8.996 1.161 8.996 1.161 12.477-3.336 13.493-12.622 14.073-16.684s-2.612-15.525-3.047-18.716c-0.435-3.192 1.886-9.866 5.513-10.011s4.643 1.886 4.643 3.482-0.871 2.321-2.902 2.467-2.321 1.016-2.467 2.031c-0.145 1.016 0.725 2.757 4.062 2.757s6.529-3.337 6.384-7.69c-0.137-4.101-4.208-8.85-10.446-9.141-6.239-0.29-10.156 6.819-11.027 13.783s1.596 12.042 2.321 20.893c0.725 8.85-7.109 10.737-9.866 11.027s-3.917-1.596-3.917-1.596c2.321-2.757 2.902-7.254 2.902-7.254-3.627-2.031-2.176-4.933-2.176-4.933s6.964-5.804 6.964-21.183c0-8.702-3.489-16.004-7.521-21.538l-2.997-0.129zm-12.339 52.064l-1.888 3.021s-4.909-2.895-4.657-5.286 1.007-2.266 1.385-2.266 5.16 4.531 5.16 4.531zm12.199-4.531c0.378 0 1.133-0.126 1.385 2.266 0.252 2.391-4.657 5.286-4.657 5.286l-1.888-3.021s4.782-4.531 5.16-4.531zm-53.546 21.775c-0.378-4.405 6.356-9.566 7.174-10.321s0.532-1.569 0.126-2.266c-0.441-0.755-1.762-1.007-3.021-0.755-1.441 0.288-10.069 4.909-9.377 14.223s8.685 14.537 15.607 14.412c6.923-0.126 8.37-2.266 8.37-2.266-2.014-0.441-5.853-2.958-5.853-2.958-8.306 0.377-12.649-5.664-13.026-10.069zm88.758 0c0.378-4.405-6.356-9.566-7.174-10.321s-0.532-1.569-0.126-2.266c0.441-0.755 1.762-1.007 3.021-0.755 1.441 0.288 10.069 4.909 9.377 14.223s-8.685 14.537-15.607 14.412c-6.923-0.126-9.086-1.825-9.086-1.825 2.014-0.441 6.545-2.769 6.545-2.769 8.307 0.377 12.673-6.294 13.05-10.699z"/>
</svg>
