<?xml version="1.0" encoding="utf-8"?>
<!-- Uploaded to SVGRepo https://www.svgrepo.com -->
<!DOCTYPE svg PUBLIC "-//W3C//DTD SVG 1.1//EN" "http://www.w3.org/Graphics/SVG/1.1/DTD/svg11.dtd">
<svg width="1000px" height="1000px" viewBox="0 0 1000 1000" version="1.1" xmlns="http://www.w3.org/2000/svg" xmlns:xlink="http://www.w3.org/1999/xlink" x="0px" y="0px" enable-background="new 0 0 1000 1000" xml:space="preserve">

<g><g transform="translate(0.000000,511.000000) scale(0.100000,-0.100000)"><path d="M6619.3,4995c-12.4-8.2-37.1-65.9-53.5-127.7c-16.5-61.8-37.1-111.2-47.4-109.1c-420.1,80.3-747.5,90.6-883.4,28.8c-109.1-49.4-142.1-90.6-185.3-236.8c-74.1-238.9-271.8-471.5-492.1-578.6c-300.6-144.1-617.7-156.5-1165.5-43.2c-436.5,90.6-803.1,127.7-978.1,98.8l-123.5-20.6l164.7-2.1c255.3-6.2,455.1-49.4,776.3-173c325.3-125.6,570.4-199.7,661-199.7c115.3,0,30.9-37.1-115.3-51.5c-187.4-18.5-374.8,10.3-716.6,105c-152.4,41.2-345.9,78.2-463.3,88.5c-205.9,18.5-267.7,14.4-160.6-8.2c187.4-41.2,442.7-123.5,615.7-197.7c304.7-129.7,527.1-168.8,947.2-168.8c796.9,2,1079,173,1120.2,683.6c8.2,96.8,26.8,197.7,39.1,220.3c59.7,113.3,317.1,117.4,628,12.4c100.9-32.9,185.3-65.9,189.4-70c8.2-8.2-947.2-3183.4-961.6-3197.8c-4.1-6.2-133.8,41.2-288.3,105c-220.3,90.6-284.2,125.6-302.7,166.8c-14.4,28.8-20.6,53.5-18.5,55.6c4.1,2.1,45.3,22.7,94.7,43.2c177.1,76.2,313,275.9,313,455.1c0,55.6-4.1,57.7-298.6,103c-123.6,18.5-232.7,41.2-243,47.4c-8.2,8.2,59.7,70,150.3,135.9c90.6,67.9,162.7,131.8,158.6,144.1c-2.1,10.3-68,51.5-144.1,90.6c-121.5,61.8-160.6,70-288.3,70c-551.9,0-766-566.3-352.1-930.7c53.5-47.4,105-84.4,115.3-84.4c28.8,0-2.1-133.8-111.2-471.5c-80.3-247.1-100.9-333.6-90.6-395.4c14.4-86.5,12.4-88.5-164.7-111.2l-103-12.4l26.8-220.3c74.1-591,348-1142.8,722.7-1455.8c193.6-162.7,500.4-310.9,745.4-360.4c313-63.8,337.7-61.8,492.1,76.2c107.1,96.8,127.7,107.1,115.3,65.9c-26.8-92.7-152.4-348-224.5-457.1c-88.5-133.8-257.4-306.8-282.1-290.3c-10.3,6.2-18.5,51.5-18.5,100.9c0,100.9-74.1,360.4-103,360.4c-10.3,0-24.7-35-30.9-78.2c-22.7-131.8-32.9-152.4-131.8-257.4c-84.4-92.7-313-261.5-354.2-261.5c-16.5,0-18.5,12.4-59.7,253.3c-14.4,76.2-30.9,138-39.1,138s-30.9-30.9-49.4-70c-18.5-39.1-80.3-109.1-140-156.5c-121.5-94.7-385-257.4-399.5-243c-4.1,4.1,14.4,67.9,45.3,140c123.5,306.8,111.2,539.5-37.1,784.5c-142.1,236.8-173,426.2-113.3,683.6l26.8,117.4l-94.7-53.5c-665.1-385-838.1-976-516.8-1770.8c24.7-59.7,16.5-80.3-234.7-539.5c-142.1-263.6-259.5-483.9-259.5-490.1s131.8-230.6,290.3-496.3l290.3-483.9l-12.4-142.1l-14.4-142.1h288.3c160.6,0,290.3,6.2,290.3,12.3c0,6.2-39.1,78.3-86.5,158.6c-78.2,133.8-490.1,1011-490.1,1044c0,6.2,49.4,28.8,111.2,47.4c269.7,86.5,553.9,337.7,827.8,733.1c4.1,4.1,278,74.1,609.5,156.5c640.4,160.6,984.3,267.7,1334.3,416c333.6,142.1,683.6,341.8,825.7,473.6l53.6,49.4l407.7-84.4c224.5-45.3,413.9-86.5,418-90.6c4.1-6.2-47.4-90.6-115.3-191.5l-123.5-185.3l216.2-96.8c117.4-53.5,218.3-94.7,222.4-90.6c8.2,8.3,195.6,704.2,189.4,708.3c-2.1,2.1-189.4,113.3-415.9,245c-226.5,133.8-420.1,249.2-430.4,257.4c-8.2,10.3,12.4,59.7,49.4,113.3c90.6,131.8,195.6,368.6,224.5,500.4c39.1,185.3,14.4,654.8-37.1,710.4c-8.2,8.2-82.4-12.4-162.7-47.4c-284.2-121.5-467.4-152.4-873.1-154.4c-199.7,0-368.6,4.1-374.8,10.3c-4.1,6.2-16.5,59.7-24.7,121.5c-14.4,107.1-12.4,109.1,30.9,94.7c76.2-22.6,599.2-16.5,743.3,8.2c263.6,47.4,597.1,179.2,597.1,236.8c0,96.8-47.4,156.5-179.1,222.4c-255.3,125.6-434.5,358.3-444.8,574.5c-4.1,80.3,4.1,111.2,30.9,129.7c61.8,39.1,107.1-8.2,121.5-127.7c28.8-232.7,212.1-399.5,586.9-537.4c164.7-59.7,269.8-148.3,296.5-247.1c28.8-113.3,103-140,253.3-96.8c267.7,78.3,288.3,222.4,92.7,654.8c-78.2,175-80.3,185.3-59.7,298.6c47.4,255.3,18.5,383-154.4,658.9l-96.8,156.5l61.8,210l61.8,212.1l-140,22.7c-203.9,32.9-591,28.8-766-10.3c-457.1-100.9-842.2-440.6-1039.9-920.4c-78.2-183.3-162.7-471.5-181.2-611.6c-8.2-55.6-20.6-103-28.8-103s-47.4,59.7-84.4,133.8c-43.3,80.3-80.3,129.7-94.7,123.5c-14.4-4.1-26.8,4.1-26.8,18.5c0,16.5,55.6,308.9,121.5,652.8c67.9,343.9,222.4,1130.5,341.8,1748.2c119.4,617.7,230.6,1190.2,247.1,1274.6c22.6,113.3,24.7,158.6,8.3,179.2C6687.3,5015.6,6656.4,5017.6,6619.3,4995z M8180.1,1471.8c70-72.1,76.2-140,16.5-216.2c-86.5-109.1-286.2-43.2-286.2,94.7C7910.4,1517.1,8064.8,1585.1,8180.1,1471.8z M5929.5,436.1c205.9-630.1,100.9-1202.5-290.3-1579.3l-94.7-92.7l-158.6,35C4875.2-1089.7,4473.7-669.7,4309-74.6c-61.8,220.3-63.8,216.2,90.6,253.3c243,59.7,469.5,203.9,568.3,362.4c28.8,47.4,30.9,47.4,111.2,12.4c129.7-57.7,415.9-51.5,597.1,14.4c80.3,28.8,154.4,53.5,166.8,55.6C5855.4,623.5,5894.5,539,5929.5,436.1z"/><path d="M3596.5,2511.7c-127.7-57.7-263.6-208-306.8-335.6c-20.6-59.7-32.9-166.8-32.9-288.3c0-339.8-59.7-385-374.8-280c-59.7,18.5-45.3-94.7,22.7-205.9c88.6-135.9,205.9-210,339.8-208c203.9,4.1,366.5,117.4,420.1,296.5c12.4,39.1,28.8,156.5,37.1,257.4c14.4,193.6,41.2,265.6,109.1,288.3c24.7,6.2,45.3,39.1,55.6,78.2c18.5,90.6,59.7,164.7,133.8,251.2c53.5,61.8,59.7,78.2,37.1,105C3954.8,2571.4,3761.2,2589.9,3596.5,2511.7z"/><path d="M1341.8-109.6c-28.8-4.1-119.4-28.8-201.8-51.5c-156.5-45.3-160.6-61.8-16.5-86.5c105-20.6,282.1-98.9,372.7-168.9c41.2-30.9,98.8-98.8,129.7-150.3c49.4-82.4,55.6-115.3,53.5-259.5c0-133.8-12.4-191.5-61.8-308.9c-51.5-125.6-59.7-168.8-59.7-339.7c0-175,8.2-210,65.9-331.5c129.7-278,315-411.8,593-426.3c243-12.3,459.2,70,737.2,280c88.5,68,96.8,82.4,96.8,160.6c0,80.3,28.8,263.6,53.5,341.8c8.2,28.8-4.1,28.8-119.4-8.2c-189.4-59.7-422.1-72.1-508.6-28.8c-109.1,57.6-135.9,148.3-105,366.5c35,245,18.5,473.6-43.2,603.3c-127.7,269.8-418,426.3-780.4,420.1C1463.3-99.3,1370.6-105.5,1341.8-109.6z"/><path d="M8620.8-496.7c-10.3-4.1-148.3-37.1-302.7-72.1c-205.9-47.4-284.2-74.1-284.2-96.8c0-57.6-103-337.7-154.4-418c-28.8-45.3-51.5-86.5-51.5-92.7s49.4,14.4,109.1,43.3c57.7,30.9,191.5,94.7,294.5,142.1l189.4,88.5l98.8-88.5l100.9-88.5l-80.3-166.8c-45.3-90.6-74.1-173-65.9-181.2c8.2-8.2,105-74.1,214.1-144.1c148.3-94.7,203.9-119.4,214.2-100.9c39.1,72.1,78.2,284.2,78.2,434.5c0,152.4-6.2,181.2-82.4,337.7c-65.9,133.8-243,422.1-255.3,411.8C8641.4-488.5,8633.1-492.6,8620.8-496.7z"/><path d="M5037.9-2842.1c-181.2-49.4-352.1-94.7-380.9-100.9c-45.3-10.3-57.7-30.9-78.2-133.9c-24.7-121.5-140-380.9-238.9-535.4c-28.8-47.4-53.5-88.5-53.5-94.7c0-6.2,821.6-741.3,914.2-817.5c37.1-30.9,37.1-37.1,6.2-131.8c-20.6-55.6-35-107.1-35-117.4c0-8.2,115.3-16.5,255.3-16.5h257.4l-49.4,144.2c-47.4,135.9-70,166.8-444.8,570.4L4797-3647.2l57.7,41.2c123.5,84.4,313,294.4,383,422.1c65.9,115.3,160.6,364.5,160.6,415.9C5398.3-2745.3,5412.7-2743.2,5037.9-2842.1z"/></g></g>
</svg>