<?xml version="1.0" encoding="iso-8859-1"?>
<!-- Generator: Adobe Illustrator 18.0.0, SVG Export Plug-In . SVG Version: 6.00 Build 0)  -->
<!DOCTYPE svg PUBLIC "-//W3C//DTD SVG 1.1//EN" "http://www.w3.org/Graphics/SVG/1.1/DTD/svg11.dtd">
<svg version="1.1" id="Capa_1" xmlns="http://www.w3.org/2000/svg" xmlns:xlink="http://www.w3.org/1999/xlink" x="0px" y="0px"
	 viewBox="0 0 433.011 433.011" style="enable-background:new 0 0 433.011 433.011;" xml:space="preserve">
<g>
	<path d="M274,313.231c0,13.781,11.212,24.993,24.993,24.993s24.993-11.211,24.993-24.993s-11.211-24.993-24.993-24.993
		S274,299.45,274,313.231z M308.986,313.231c0,5.51-4.483,9.993-9.993,9.993c-5.51,0-9.993-4.483-9.993-9.993
		c0-5.51,4.483-9.993,9.993-9.993C304.503,303.238,308.986,307.721,308.986,313.231z"/>
	<path d="M68.77,324.428c-0.17-0.83-0.42-1.65-0.74-2.43c-0.33-0.79-0.73-1.54-1.2-2.25c-0.24-0.35-0.49-0.7-0.76-1.03
		s-0.56-0.64-0.86-0.94c-0.3-0.3-0.62-0.59-0.95-0.86c-0.32-0.27-0.67-0.53-1.02-0.76c-0.71-0.47-1.46-0.87-2.25-1.2
		c-0.78-0.32-1.6-0.57-2.43-0.74c-0.42-0.08-0.84-0.15-1.26-0.19c-0.85-0.08-1.71-0.08-2.56,0c-0.42,0.04-0.84,0.11-1.26,0.19
		c-0.83,0.17-1.65,0.42-2.43,0.74c-0.79,0.33-1.54,0.73-2.25,1.2c-0.35,0.23-0.69,0.49-1.02,0.76c-0.33,0.27-0.65,0.56-0.95,0.86
		c-2.42,2.41-3.81,5.77-3.81,9.19c0,0.42,0.02,0.85,0.07,1.28c0.04,0.42,0.1,0.84,0.19,1.26c0.16,0.83,0.41,1.65,0.74,2.43
		c0.32,0.78,0.72,1.54,1.19,2.24c0.24,0.36,0.49,0.7,0.76,1.03c0.27,0.33,0.56,0.65,0.86,0.95s0.62,0.59,0.95,0.86
		c0.33,0.27,0.67,0.52,1.02,0.76c0.71,0.46,1.46,0.87,2.25,1.19c0.78,0.33,1.6,0.58,2.43,0.74c0.42,0.09,0.84,0.15,1.26,0.19
		c0.43,0.05,0.86,0.07,1.28,0.07s0.85-0.02,1.28-0.07c0.42-0.04,0.84-0.1,1.26-0.19c0.83-0.16,1.65-0.41,2.43-0.74
		c0.79-0.32,1.54-0.73,2.25-1.19c0.35-0.24,0.7-0.49,1.02-0.76c0.33-0.27,0.65-0.56,0.95-0.86c0.3-0.3,0.59-0.62,0.86-0.95
		c0.27-0.33,0.52-0.67,0.76-1.03c0.47-0.7,0.87-1.46,1.2-2.24c0.32-0.78,0.57-1.6,0.74-2.43c0.08-0.42,0.14-0.84,0.19-1.26
		c0.04-0.43,0.06-0.86,0.06-1.28c0-0.43-0.02-0.86-0.06-1.28C68.91,325.268,68.85,324.839,68.77,324.428z"/>
	<path d="M431.694,143.96l-22.286-68.255c-2.207-6.757-6.912-12.251-13.25-15.469c-6.337-3.218-13.549-3.775-20.307-1.569
		c-6.757,2.207-12.251,6.912-15.469,13.25c-0.796,1.568-1.428,3.189-1.897,4.844l-147.848,37.344L106.25,140.485
		c-30.502,7.696-51.805,35.022-51.805,66.452c0,4.79,0.513,9.55,1.508,14.226l-11.454,4.036c-4.584-5.72-11.622-9.393-19.506-9.393
		C11.212,215.805,0,227.017,0,240.798c0,13.781,11.212,24.993,24.993,24.993s24.993-11.212,24.993-24.993
		c0-0.541-0.023-1.076-0.057-1.609l10.722-3.778c1.442,3.177,3.117,6.222,5.015,9.126l-13.786,9.113
		c-2.101,1.389-3.365,3.739-3.365,6.257v18.934c-23.305,3.621-41.199,23.822-41.199,48.125c0,26.856,21.849,48.705,48.705,48.705
		c25.142,0,45.893-19.15,48.44-43.629h134.993c8,25.264,31.663,43.629,59.539,43.629c34.43,0,62.44-28.01,62.44-62.44
		c0-31.89-24.035-58.254-54.938-61.974v-44.401l83.462-33.703c1.356,1.061,2.825,1.998,4.394,2.794
		c3.789,1.924,7.889,2.896,12.019,2.896c2.778,0,5.571-0.44,8.288-1.328C428.606,172.963,436.249,157.909,431.694,143.96z
		 M24.993,250.791c-5.51,0-9.993-4.483-9.993-9.993c0-5.51,4.483-9.993,9.993-9.993c5.51,0,9.993,4.483,9.993,9.993
		C34.986,246.308,30.503,250.791,24.993,250.791z M381.124,160.545l-39.318,15.876l-24.122-73.88l41.111-10.386
		c0.007,0.023,0.013,0.046,0.021,0.068l22.286,68.256C381.108,160.502,381.116,160.523,381.124,160.545z M144.57,192.38
		l-13.902-42.593l76.854-19.416l7.133,21.845h-7.07c-1.471,0-2.909,0.433-4.136,1.244L144.57,192.38z M72.112,223.602
		c-1.77-5.404-2.667-11.012-2.667-16.666c0-24.549,16.644-45.895,40.48-51.909l6.166-1.558l15.501,47.49l-53.415,35.308
		C75.633,232.362,73.593,228.128,72.112,223.602z M56.021,360.671c-18.585,0-33.705-15.12-33.705-33.705s15.12-33.705,33.705-33.705
		c18.585,0,33.706,15.12,33.706,33.705S74.606,360.671,56.021,360.671z M103.707,317.042c-4.097-19.711-20.142-35.094-40.193-38.204
		V263.94l146.325-96.723h23.055c3.257,11.251,13.646,19.503,25.932,19.503s22.675-8.252,25.932-19.503h6.736v84.041
		c-30.905,3.718-54.942,30.083-54.942,61.974c0,1.281,0.051,2.549,0.127,3.811H103.707z M246.827,159.721
		c0-6.616,5.383-11.999,11.999-11.999s11.999,5.383,11.999,11.999s-5.383,11.999-11.999,11.999S246.827,166.337,246.827,159.721z
		 M346.433,313.231c0,26.159-21.281,47.44-47.44,47.44s-47.44-21.281-47.44-47.44s21.282-47.44,47.44-47.44
		S346.433,287.073,346.433,313.231z M298.995,152.217h-14.239c-3.26-11.246-13.647-19.495-25.93-19.495s-22.67,8.248-25.93,19.495
		h-2.464l-8.335-25.528l81.009-20.465l24.758,75.827l-21.37,8.629v-30.963C306.495,155.574,303.137,152.217,298.995,152.217z
		 M410.002,163.258C410.001,163.258,410.001,163.258,410.002,163.258c-2.949,0.962-6.096,0.719-8.861-0.685
		c-2.766-1.404-4.819-3.801-5.782-6.749l-22.324-68.395c-0.911-2.908-0.66-5.999,0.722-8.722c1.404-2.765,3.801-4.818,6.75-5.781
		c1.186-0.387,2.404-0.579,3.616-0.579c1.801,0,3.591,0.424,5.244,1.264c2.765,1.404,4.818,3.801,5.781,6.75l22.286,68.255
		C419.422,154.702,416.088,161.271,410.002,163.258z"/>
</g>
<g>
</g>
<g>
</g>
<g>
</g>
<g>
</g>
<g>
</g>
<g>
</g>
<g>
</g>
<g>
</g>
<g>
</g>
<g>
</g>
<g>
</g>
<g>
</g>
<g>
</g>
<g>
</g>
<g>
</g>
</svg>
