<?xml version="1.0" encoding="iso-8859-1"?>
<!-- Generator: Adobe Illustrator 19.0.0, SVG Export Plug-In . SVG Version: 6.00 Build 0)  -->
<svg version="1.1" id="Capa_1" xmlns="http://www.w3.org/2000/svg" xmlns:xlink="http://www.w3.org/1999/xlink" x="0px" y="0px"
	 viewBox="0 0 463 463" style="enable-background:new 0 0 463 463;" xml:space="preserve">
<g>
	<path d="M455.462,363.999c-9.769,0-15.082,2.657-19.351,4.792c-3.724,1.862-6.414,3.208-12.641,3.208
		c-3.241,0-5.52-0.367-7.489-0.98l46.328-100.377c1.072-2.322,0.886-5.031-0.492-7.185c-1.378-2.155-3.76-3.458-6.317-3.458H431
		v-24.5v-32v-32v-32c0-4.142-3.358-7.5-7.5-7.5h-48c-4.142,0-7.5,3.358-7.5,7.5v32v32v32v24.5h-72.5
		c-1.989,0-3.897,0.79-5.303,2.197l-29.803,29.803H207v-68.93l105-85.313v50.243h-16.5c-4.142,0-7.5,3.358-7.5,7.5v32
		c0,4.142,3.358,7.5,7.5,7.5h48c4.142,0,7.5-3.358,7.5-7.5v-32c0-4.142-3.358-7.5-7.5-7.5H327v-62.43l5.229-4.249
		c3.04-2.47,3.667-6.862,1.441-10.084l-12.667-18.333c-2.301-3.331-6.832-4.235-10.233-2.041l-113.478,73.138H151.5
		c-4.142,0-7.5,3.358-7.5,7.5v48c0,4.142,3.358,7.5,7.5,7.5h8.5v65h-33v-120.5c0-4.142-3.358-7.5-7.5-7.5H103v-57h24.5
		c4.142,0,7.5-3.358,7.5-7.5s-3.358-7.5-7.5-7.5H103v-8.5c0-4.142-3.358-7.5-7.5-7.5s-7.5,3.358-7.5,7.5v8.5h-8.5
		c-4.142,0-7.5,3.358-7.5,7.5s3.358,7.5,7.5,7.5H88v57H23.5c-4.142,0-7.5,3.358-7.5,7.5v48c0,4.142,3.358,7.5,7.5,7.5H40v41H7.5
		c-2.38,0-4.619,1.13-6.033,3.044c-1.414,1.915-1.835,4.386-1.136,6.661l28.292,91.948c-0.569-0.271-1.145-0.558-1.749-0.861
		c-4.266-2.136-9.576-4.793-19.339-4.793c-4.142,0-7.5,3.358-7.5,7.5s3.358,7.5,7.5,7.5c6.219,0,8.906,1.345,12.625,3.207
		c4.261,2.133,9.564,4.786,19.305,4.793c0.011,0,0.021,0.003,0.032,0.003c0.011,0,0.022-0.002,0.033-0.002
		c9.749-0.006,15.057-2.659,19.321-4.792c3.724-1.862,6.415-3.208,12.643-3.208c6.222,0,8.911,1.345,12.632,3.207
		c4.267,2.136,9.578,4.793,19.344,4.793c9.769,0,15.082-2.657,19.351-4.792c3.724-1.862,6.414-3.208,12.641-3.208
		c6.231,0,8.923,1.346,12.649,3.208c4.27,2.135,9.584,4.792,19.356,4.792c9.772,0,15.086-2.657,19.356-4.792
		c3.726-1.863,6.418-3.208,12.649-3.208c6.231,0,8.923,1.346,12.649,3.208c4.27,2.135,9.585,4.792,19.356,4.792
		c9.77,0,15.083-2.657,19.353-4.792c3.724-1.862,6.416-3.208,12.644-3.208c6.23,0,8.921,1.346,12.646,3.208
		c4.27,2.135,9.584,4.792,19.355,4.792c9.772,0,15.087-2.657,19.358-4.792c3.726-1.863,6.419-3.208,12.701-3.208
		c6.219,0,8.906,1.345,12.625,3.207c4.266,2.136,9.576,4.793,19.339,4.793c9.77,0,15.083-2.657,19.352-4.792
		c3.724-1.862,6.415-3.208,12.643-3.208c6.222,0,8.911,1.345,12.632,3.207c4.267,2.136,9.578,4.793,19.344,4.793
		c9.769,0,15.082-2.657,19.351-4.792c3.724-1.862,6.414-3.208,12.641-3.208c4.142,0,7.5-3.358,7.5-7.5
		S459.604,363.999,455.462,363.999z M336,219.999h-33v-17h33V219.999z M416,195.999h-33v-17h33V195.999z M383,210.999h33v17h-33
		V210.999z M383,146.999h33v17h-33V146.999z M383,242.999h33v17h-33V242.999z M312.792,107.404l4.594,6.649L207,203.742v-28.154
		L312.792,107.404z M159,178.999h33v33h-33V178.999z M175,226.999h17v65h-17V226.999z M31,178.999h81v33H31V178.999z M55,226.999h57
		v65H98.606l-21.803-21.803c-1.406-1.407-3.314-2.197-5.303-2.197H55V226.999z M372.143,368.791
		c-3.724,1.862-6.415,3.208-12.643,3.208c-6.219,0-8.906-1.345-12.625-3.207c-4.266-2.136-9.576-4.793-19.389-4.793
		c-9.772,0-15.087,2.657-19.358,4.792c-3.726,1.863-6.419,3.208-12.651,3.208c-6.23,0-8.922-1.346-12.647-3.208
		c-4.27-2.135-9.584-4.792-19.354-4.792c-9.77,0-15.083,2.657-19.353,4.792c-3.725,1.862-6.416,3.208-12.644,3.208
		c-6.231,0-8.923-1.346-12.649-3.208c-4.27-2.135-9.585-4.792-19.356-4.792s-15.086,2.657-19.356,4.792
		c-3.726,1.863-6.418,3.208-12.649,3.208c-6.231,0-8.923-1.346-12.649-3.208c-4.27-2.135-9.584-4.792-19.356-4.792
		c-9.769,0-15.082,2.657-19.351,4.792c-3.724,1.862-6.414,3.208-12.641,3.208c-6.222,0-8.911-1.345-12.632-3.207
		c-4.267-2.136-9.578-4.793-19.344-4.793c-9.77,0-15.083,2.657-19.352,4.792c-2.43,1.215-4.425,2.207-7.244,2.752l-27.244-88.544
		h50.739l21.803,21.803c1.406,1.407,3.314,2.197,5.303,2.197h168c1.989,0,3.897-0.79,5.303-2.197l29.803-29.803H375.5h48h20.278
		l-41.668,90.28c-2.867-0.761-6.307-1.28-10.616-1.28C381.726,363.999,376.412,366.656,372.143,368.791z"/>
	<path d="M87.5,202.999h8c4.142,0,7.5-3.358,7.5-7.5s-3.358-7.5-7.5-7.5h-8c-4.142,0-7.5,3.358-7.5,7.5S83.358,202.999,87.5,202.999
		z"/>
	<path d="M55.5,202.999c4.142,0,7.5-3.358,7.5-7.5s-3.358-7.5-7.5-7.5h-8c-4.142,0-7.5,3.358-7.5,7.5s3.358,7.5,7.5,7.5H55.5z"/>
	<path d="M119.5,323.999h-8c-4.142,0-7.5,3.358-7.5,7.5s3.358,7.5,7.5,7.5h8c4.142,0,7.5-3.358,7.5-7.5
		S123.642,323.999,119.5,323.999z"/>
	<path d="M151.5,323.999h-8c-4.142,0-7.5,3.358-7.5,7.5s3.358,7.5,7.5,7.5h8c4.142,0,7.5-3.358,7.5-7.5
		S155.642,323.999,151.5,323.999z"/>
	<path d="M183.5,323.999h-8c-4.142,0-7.5,3.358-7.5,7.5s3.358,7.5,7.5,7.5h8c4.142,0,7.5-3.358,7.5-7.5
		S187.642,323.999,183.5,323.999z"/>
	<path d="M215.5,323.999h-8c-4.142,0-7.5,3.358-7.5,7.5s3.358,7.5,7.5,7.5h8c4.142,0,7.5-3.358,7.5-7.5
		S219.642,323.999,215.5,323.999z"/>
	<path d="M247.5,323.999h-8c-4.142,0-7.5,3.358-7.5,7.5s3.358,7.5,7.5,7.5h8c4.142,0,7.5-3.358,7.5-7.5
		S251.642,323.999,247.5,323.999z"/>
</g>
<g>
</g>
<g>
</g>
<g>
</g>
<g>
</g>
<g>
</g>
<g>
</g>
<g>
</g>
<g>
</g>
<g>
</g>
<g>
</g>
<g>
</g>
<g>
</g>
<g>
</g>
<g>
</g>
<g>
</g>
</svg>
