<?xml version="1.0" encoding="iso-8859-1"?>
<!-- Generator: Adobe Illustrator 18.0.0, SVG Export Plug-In . SVG Version: 6.00 Build 0)  -->
<!DOCTYPE svg PUBLIC "-//W3C//DTD SVG 1.1//EN" "http://www.w3.org/Graphics/SVG/1.1/DTD/svg11.dtd">
<svg version="1.1" id="Capa_1" xmlns="http://www.w3.org/2000/svg" xmlns:xlink="http://www.w3.org/1999/xlink" x="0px" y="0px"
	 viewBox="0 0 466.578 466.578" style="enable-background:new 0 0 466.578 466.578;" xml:space="preserve">
<g>
	<path d="M251.573,94.118h-36.576c-3.59,0-6.5,2.91-6.5,6.5s2.91,6.5,6.5,6.5h36.576c3.59,0,6.5-2.91,6.5-6.5
		S255.162,94.118,251.573,94.118z"/>
	<path d="M334.597,396.742c0.284,0.038,0.568,0.056,0.852,0.056c1.567,0,3.092-0.567,4.285-1.612
		c1.408-1.234,2.215-3.016,2.215-4.888v-57.914c15.922-6.749,27.12-22.536,27.12-40.891V188.704c0-16.233-4.19-32.255-12.117-46.335
		l0.001,0.002c-13.251-23.555-35.467-40.059-61.522-45.924v-34.3C295.431,27.879,267.552,0,233.284,0s-62.146,27.879-62.146,62.146
		v34.324c-19.723,4.472-37.645,15.239-50.917,30.74c-14.646,17.104-22.711,38.943-22.711,61.493v102.791
		c0,16.289,8.825,30.547,21.94,38.269v32.855c0,3.261,2.417,6.018,5.65,6.444l7.24,0.957v50.995
		c-7.561,1.311-14.522,4.904-20.056,10.438c-7.096,7.095-11.004,16.526-11.004,26.556v2.07c0,3.59,2.91,6.5,6.5,6.5h65.22
		c11.502,0,21.248-8.61,22.67-20.027l8.351-67.061l59.509,7.862l7.37,59.199c1.422,11.417,11.168,20.027,22.67,20.027h65.22
		c3.59,0,6.5-2.91,6.5-6.5v-2.07c0-18.49-13.436-33.901-31.06-36.987v-24.327L334.597,396.742z M347.774,152.835
		c5.439,11.108,8.295,23.414,8.295,35.868v102.791c0,17.307-14.08,31.387-31.387,31.387h-0.322c-2.589,0-4.696-2.107-4.696-4.696
		v-7.527c0-3.59-2.91-6.5-6.5-6.5h-5.688c-0.115,0-0.465,0-0.707-0.4c-0.238-0.395-0.083-0.689-0.023-0.802l12.169-23.101
		c0.648-1.231,0.885-2.638,0.674-4.013l-10.069-65.755C305.506,183.867,322.522,158.744,347.774,152.835z M282.431,109.912
		c0,5.693-3.366,10.857-8.575,13.156L238.6,138.622c-3.377,1.49-7.251,1.49-10.63,0l-35.257-15.554
		c-5.209-2.298-8.575-7.462-8.575-13.156V84.115c4.109,2.513,8.929,3.972,14.088,3.972h70.117c5.158,0,9.98-1.455,14.088-3.967
		V109.912z M253.988,17.589c-6.389,3.135-13.408,4.769-20.698,4.769c-7.289,0-14.311-1.634-20.705-4.771
		C218.881,14.651,225.892,13,233.284,13C240.679,13,247.691,14.651,253.988,17.589z M200.455,25.611
		c9.768,6.387,21.027,9.747,32.835,9.747c11.81,0,23.066-3.36,32.826-9.746c9.831,8.844,16.077,21.587,16.296,35.77
		c-0.205,7.591-6.43,13.705-14.068,13.705h-28.559V53.917h14.758v4.138c0,3.59,2.91,6.5,6.5,6.5s6.5-2.91,6.5-6.5v-4.429
		c2.648-0.822,4.572-3.291,4.572-6.209c0-3.59-2.91-6.5-6.5-6.5h-64.659c-3.59,0-6.5,2.91-6.5,6.5c0,2.919,1.924,5.388,4.572,6.209
		v4.429c0,3.59,2.91,6.5,6.5,6.5s6.5-2.91,6.5-6.5v-4.138h14.757v21.171h-28.558c-7.639,0-13.864-6.115-14.069-13.705
		C184.376,47.199,190.622,34.455,200.455,25.611z M110.509,291.494V188.704c0-19.451,6.956-38.287,19.586-53.038
		c10.805-12.619,25.173-21.605,41.042-25.82v0.066c0,10.841,6.409,20.673,16.328,25.049l35.257,15.554
		c3.356,1.481,6.959,2.221,10.562,2.221s7.207-0.74,10.563-2.221l23.66-10.438c-4.691,16.479-14.074,31.343-27.135,42.699
		c-16.157,14.048-36.847,21.785-58.258,21.785h-11.069l3.786-24.727c0.543-3.548-1.893-6.866-5.441-7.409
		c-3.55-0.539-6.865,1.893-7.409,5.441l-15.002,97.975c-0.21,1.375,0.026,2.782,0.674,4.013l12.17,23.103
		c0.059,0.111,0.214,0.407-0.025,0.803c-0.24,0.397-0.583,0.397-0.695,0.397h-5.699c-3.59,0-6.5,2.91-6.5,6.5v7.527
		c0,2.589-2.107,4.696-4.696,4.696h-0.312C124.589,322.881,110.509,308.801,110.509,291.494z M141.896,335.881h0.312
		c9.758,0,17.696-7.938,17.696-17.696v-1.05c4.561-0.257,8.64-2.705,11.025-6.659c2.524-4.184,2.671-9.26,0.395-13.579
		l-11.17-21.206l8.901-58.13h13.059c24.546,0,48.265-8.87,66.788-24.975c17.676-15.368,29.465-36.343,33.473-59.352
		c8.03-4.931,13.056-13.728,13.056-23.323v-0.078c4.773,1.256,9.376,2.946,13.781,5.01v17.138c0,3.59,2.91,6.5,6.5,6.5
		s6.5-2.91,6.5-6.5v-9.492c7.124,5.144,13.434,11.44,18.641,18.742c-13.383,4.043-24.997,12.423-33.214,24.097
		c-9.599,13.637-13.494,30.23-10.969,46.725l9.745,63.638l-11.169,21.204c-2.277,4.319-2.13,9.395,0.394,13.578
		c2.385,3.952,6.463,6.401,11.025,6.661v1.05c0,9.758,7.938,17.696,17.696,17.696h0.322c1.44,0,2.862-0.075,4.267-0.209v47.211
		l-196.5-25.963v-22.061C135.495,335.522,138.654,335.881,141.896,335.881z M182.769,444.945c-0.613,4.922-4.813,8.633-9.77,8.633
		h-58.324c0.883-4.872,3.222-9.356,6.8-12.934c4.634-4.634,10.801-7.187,17.364-7.187c0.026,0,0.051-0.004,0.077-0.004h26.667
		c3.59,0,6.5-2.91,6.5-6.5s-2.91-6.5-6.5-6.5h-20.244v-48.717l45.793,6.05L182.769,444.945z M321.229,420.454h-20.245
		c-3.59,0-6.5,2.91-6.5,6.5s2.91,6.5,6.5,6.5h26.667c0.026,0,0.051,0.004,0.077,0.004c12.03,0,22.067,8.69,24.159,20.12h-58.319
		c-4.957,0-9.157-3.711-9.77-8.633l-6.951-55.833l44.381,5.864V420.454z"/>
	<path d="M184.614,263.238c3.59,0,6.5-2.91,6.5-6.5V236.65c0-3.59-2.91-6.5-6.5-6.5s-6.5,2.91-6.5,6.5v20.088
		C178.114,260.328,181.024,263.238,184.614,263.238z"/>
	<path d="M220.56,294.955c3.59,0,6.5-2.91,6.5-6.5v-20.088c0-3.59-2.91-6.5-6.5-6.5s-6.5,2.91-6.5,6.5v20.088
		C214.06,292.045,216.97,294.955,220.56,294.955z"/>
	<path d="M273.389,254.478c3.59,0,6.5-2.91,6.5-6.5V227.89c0-3.59-2.91-6.5-6.5-6.5s-6.5,2.91-6.5,6.5v20.088
		C266.889,251.567,269.8,254.478,273.389,254.478z"/>
	<path d="M259.249,331.615c3.59,0,6.5-2.91,6.5-6.5v-20.088c0-3.59-2.91-6.5-6.5-6.5s-6.5,2.91-6.5,6.5v20.088
		C252.749,328.705,255.659,331.615,259.249,331.615z"/>
	<path d="M184.457,308.542v20.088c0,3.59,2.91,6.5,6.5,6.5s6.5-2.91,6.5-6.5v-20.088c0-3.59-2.91-6.5-6.5-6.5
		S184.457,304.953,184.457,308.542z"/>
	<path d="M290.181,358.233c0,3.59,2.91,6.5,6.5,6.5s6.5-2.91,6.5-6.5v-20.088c0-3.59-2.91-6.5-6.5-6.5s-6.5,2.91-6.5,6.5V358.233z"
		/>
	<path d="M285.052,187.116c3.59,0,6.5-2.91,6.5-6.5v-20.087c0-3.59-2.91-6.5-6.5-6.5s-6.5,2.91-6.5,6.5v20.087
		C278.552,184.206,281.462,187.116,285.052,187.116z"/>
</g>
<g>
</g>
<g>
</g>
<g>
</g>
<g>
</g>
<g>
</g>
<g>
</g>
<g>
</g>
<g>
</g>
<g>
</g>
<g>
</g>
<g>
</g>
<g>
</g>
<g>
</g>
<g>
</g>
<g>
</g>
</svg>
