<?xml version="1.0" encoding="iso-8859-1"?>
<!-- Generator: Adobe Illustrator 19.0.0, SVG Export Plug-In . SVG Version: 6.00 Build 0)  -->
<svg version="1.1" id="Capa_1" xmlns="http://www.w3.org/2000/svg" xmlns:xlink="http://www.w3.org/1999/xlink" x="0px" y="0px"
	 viewBox="0 0 511 511" style="enable-background:new 0 0 511 511;" xml:space="preserve">
<g>
	<path d="M503.5,340h-32.028c-0.007,0-0.014,0-0.021,0H345.618c-13.795,0-26.773,7.348-33.871,19.177L275.253,420h-44.279
		c0.011-0.166,0.025-0.331,0.025-0.5v-80c0-4.142-3.358-7.5-7.5-7.5s-7.5,3.358-7.5,7.5v80c0,0.169,0.014,0.334,0.025,0.5H175v-16.5
		c0-8.547-6.953-15.5-15.5-15.5H143v-32.5c0-4.142-3.358-7.5-7.5-7.5H7.5c-4.142,0-7.5,3.358-7.5,7.5v40c0,4.142,3.358,7.5,7.5,7.5
		h16c9.098,0,16.5,7.402,16.5,16.5v24c0,6.046,1.716,11.698,4.681,16.5H31.5c-4.142,0-7.5,3.358-7.5,7.5s3.358,7.5,7.5,7.5h344
		c4.142,0,7.5-3.358,7.5-7.5s-3.358-7.5-7.5-7.5h-14.47c1.244-2.026,2.28-4.211,3.056-6.539l6.735-20.205
		c1.634-4.901,5.535-8.802,10.436-10.436l34.576-11.525c18.366-6.123,34.395-18.366,45.134-34.474L475.514,355H503.5
		c4.142,0,7.5-3.358,7.5-7.5S507.642,340,503.5,340z M96,388H79v-25h17V388z M47,388v-25h17v25H47z M15,363h17v25h-8.5H15V363z
		 M448.485,368.501c-8.898,13.347-22.179,23.491-37.397,28.564l-34.576,11.525c-9.355,3.119-16.803,10.567-19.922,19.923
		l-6.735,20.205c-2.249,6.748-8.54,11.282-15.653,11.282H71.5c-9.098,0-16.5-7.402-16.5-16.5v-24c0-6.046-1.716-11.698-4.681-16.5
		H103.5c4.142,0,7.5-3.358,7.5-7.5V363h17v32.5c0,4.142,3.358,7.5,7.5,7.5h24c0.276,0,0.5,0.224,0.5,0.5v24
		c0,4.142,3.358,7.5,7.5,7.5h112c2.634,0,5.076-1.382,6.431-3.641l38.678-64.464c4.402-7.337,12.452-11.895,21.009-11.895h111.868
		L448.485,368.501z"/>
	<path d="M105.664,312.21c1.424,1.765,3.569,2.79,5.836,2.79h31.458c0.009,0,0.018,0.001,0.028,0.001
		c0.006,0,0.011-0.001,0.017-0.001h31.955c0.009,0,0.018,0.001,0.028,0.001c0.006,0,0.011-0.001,0.017-0.001h31.955
		c0.009,0,0.018,0.001,0.028,0.001c0.006,0,0.011-0.001,0.017-0.001h31.955c0.009,0,0.018,0.001,0.028,0.001
		c0.006,0,0.011-0.001,0.017-0.001h32.477c0.009,0,0.018,0.001,0.028,0.001c0.006,0,0.011-0.001,0.017-0.001h31.433
		c0.009,0,0.018,0.001,0.028,0.001c0.006,0,0.011-0.001,0.017-0.001h31.976c3.532,0,6.585-2.464,7.331-5.916
		c11.533-53.373,11.533-109.795,0-163.168c-0.746-3.452-3.799-5.916-7.331-5.916h-32.056c-0.009,0-0.019,0-0.028,0h-31.45
		c-0.009,0-0.019,0-0.028,0h-32.494c-0.009,0-0.019,0-0.028,0H231v-25h80.5c3.034,0,5.768-1.827,6.929-4.63
		c1.161-2.803,0.519-6.028-1.626-8.173L298.106,83.5l18.697-18.697c2.145-2.145,2.787-5.371,1.626-8.173
		c-1.161-2.803-3.896-4.63-6.929-4.63H231v-8.5c0-4.142-3.358-7.5-7.5-7.5s-7.5,3.358-7.5,7.5V140h-9.078c-0.01,0-0.019,0-0.028,0
		h-31.973c-0.01,0-0.019,0-0.028,0h-31.972c-0.009,0-0.019,0-0.028,0H111.5c-2.267,0-4.413,1.025-5.836,2.79
		c-1.424,1.764-1.973,4.078-1.495,6.294c11.084,51.3,11.084,105.532,0,156.832C103.69,308.132,104.24,310.446,105.664,312.21z
		 M293.394,67l-11.197,11.197c-2.929,2.929-2.929,7.678,0,10.606L293.394,100H231V67H293.394z M168.868,155
		c9.449,47.565,9.449,97.435,0,145h-16.718c9.071-47.625,9.071-97.375,0-145H168.868z M200.868,155c9.449,47.565,9.449,97.435,0,145
		h-16.718c9.071-47.625,9.071-97.375,0-145H200.868z M232.868,155c9.449,47.565,9.449,97.435,0,145h-16.718
		c9.071-47.625,9.071-97.375,0-145H232.868z M265.39,155c9.449,47.565,9.449,97.435,0,145h-17.24c9.071-47.625,9.071-97.375,0-145
		H265.39z M296.868,155c9.449,47.565,9.449,97.435,0,145h-16.196c9.071-47.625,9.071-97.375,0-145H296.868z M328.874,300H312.15
		c9.071-47.625,9.071-97.375,0-145h16.724C338.324,202.567,338.324,252.433,328.874,300z M120.677,155h16.191
		c9.449,47.565,9.449,97.435,0,145h-16.191C129.747,252.378,129.747,202.622,120.677,155z"/>
</g>
<g>
</g>
<g>
</g>
<g>
</g>
<g>
</g>
<g>
</g>
<g>
</g>
<g>
</g>
<g>
</g>
<g>
</g>
<g>
</g>
<g>
</g>
<g>
</g>
<g>
</g>
<g>
</g>
<g>
</g>
</svg>
