<?xml version="1.0" encoding="iso-8859-1"?>
<!-- Generator: Adobe Illustrator 19.0.0, SVG Export Plug-In . SVG Version: 6.00 Build 0)  -->
<svg version="1.1" id="Layer_1" xmlns="http://www.w3.org/2000/svg" xmlns:xlink="http://www.w3.org/1999/xlink" x="0px" y="0px"
	 viewBox="0 0 504.786 504.786" style="enable-background:new 0 0 504.786 504.786;" xml:space="preserve">
<g transform="translate(1 1)">
	<g>
		<g>
			<path d="M503.786,221.544c0-7.68-3.413-14.507-8.533-19.627C477.932,185.868,460.5,171.76,443.2,159.32V85.01
				c0-3.413-1.707-5.973-5.12-7.68l-51.2-25.6c-2.56-1.707-6.827-0.853-9.387,1.707l-47.017,44.666
				c-84.245-32.494-148.074-30.159-151.81-30.159c-60.051,0-111.288,27.885-143.405,65.573c-0.062,0.072-0.123,0.144-0.185,0.216
				c-0.605,0.712-1.204,1.428-1.796,2.147c-0.481,0.581-0.955,1.164-1.426,1.749c-0.159,0.198-0.318,0.396-0.476,0.595
				C11.449,163.18,0.17,191.265-0.493,218.955c-0.686,1.745-0.639,3.663,0.005,5.482c0.675,25.222,10.153,50.761,26.943,73.955
				c0.374,0.522,0.756,1.041,1.137,1.56c0.157,0.211,0.311,0.423,0.469,0.634c20.788,28.029,51.756,51.737,89.048,64.483
				l9.503,79.194c0.853,4.267,4.267,7.68,8.533,7.68h153.6c4.267,0,7.68-3.413,7.68-7.68l11.151-90.799
				c7.514-2.463,15.237-5.205,23.138-8.253l46.777,44.438c1.707,1.707,3.413,2.56,5.973,2.56c1.707,0,2.56,0,2.56-0.853l51.2-25.6
				c3.413-1.707,5.12-4.267,5.12-7.68v-73.491c17.58-12.638,35.299-27.019,52.907-43.416
				C500.373,236.05,503.786,229.224,503.786,221.544z M385.173,69.65l40.96,20.48v57.419c-26.912-17.772-53.298-31.59-78.227-42.325
				L385.173,69.65z M55.048,305.899c-1.999-1.981-3.936-4.01-5.813-6.08c-15.458-17.67-25.8-37.086-30.237-56.691l22.281,19.375
				c1.707,0.853,4.267,1.707,5.973,1.707c2.56,0,5.12-0.853,5.973-2.56c3.413-3.413,2.56-8.533-0.853-11.947l-22.571-19.627h20.864
				c5.12,0,8.533-3.413,8.533-8.533c0-5.12-3.413-8.533-8.533-8.533H32.32l23.467-18.773c4.267-2.56,4.267-8.533,1.707-11.947
				c-2.56-4.267-8.533-4.267-11.947-1.707l-27.032,21.625c4.04-19.893,14.179-39.656,29.603-57.659
				c2.227-2.507,4.554-4.949,6.961-7.329c18.684,19.638,29.721,51.13,29.721,84.323C84.8,254.755,73.751,286.264,55.048,305.899z
				 M142.826,434.877l-3.032-25.6h144.4l-3.129,25.6H142.826z M286.281,392.21H137.774l-2.601-21.962
				c13.583,3.164,27.846,4.896,42.64,4.896c0.221,0,0.503,0,0.853,0c0.442,0,1.593,0.014,3.387,0c0.527,0,1.091,0,1.733,0
				c14.868,0,54.527-1.519,106.585-16.397L286.281,392.21z M426.133,352.957l-40.96,20.48l-37.028-35.345
				c24.867-10.724,51.166-24.531,77.988-42.307V352.957z M483.306,228.37c-63.284,59.165-129.36,91.379-183.737,108.905
				c-0.792-0.009-1.575,0.084-2.29,0.322c-68.267,21.333-117.76,19.627-118.613,19.627c-17.03,0-34.06-2.55-51.09-7.648
				c-21.613-7.042-42.384-18.196-60.001-32.465c21.817-22.153,34.29-57.125,34.29-95.567c0-38.362-13.112-73.267-34.364-95.427
				C99.01,100.614,140.71,85.01,179.52,85.01c0,0,0.853,0,3.413,0c24.747,0,168.107,5.973,300.373,129.707
				c2.56,1.707,3.413,4.267,3.413,6.827C486.72,224.104,485.013,226.664,483.306,228.37z"/>
			<path d="M417.6,213.01h-256c-5.12,0-8.533,3.413-8.533,8.533c0,5.12,3.413,8.533,8.533,8.533h256c5.12,0,8.533-3.413,8.533-8.533
				C426.133,216.424,422.72,213.01,417.6,213.01z"/>
			<path d="M366.4,255.677H212.8c-5.12,0-8.533,3.413-8.533,8.533s3.413,8.533,8.533,8.533h153.6c5.12,0,8.533-3.413,8.533-8.533
				S371.52,255.677,366.4,255.677z"/>
			<path d="M212.8,187.41h153.6c5.12,0,8.533-3.413,8.533-8.533s-3.413-8.533-8.533-8.533H212.8c-5.12,0-8.533,3.413-8.533,8.533
				S207.68,187.41,212.8,187.41z"/>
		</g>
	</g>
</g>
<g>
</g>
<g>
</g>
<g>
</g>
<g>
</g>
<g>
</g>
<g>
</g>
<g>
</g>
<g>
</g>
<g>
</g>
<g>
</g>
<g>
</g>
<g>
</g>
<g>
</g>
<g>
</g>
<g>
</g>
</svg>
