<?xml version="1.0" encoding="iso-8859-1"?>
<!-- Generator: Adobe Illustrator 19.0.0, SVG Export Plug-In . SVG Version: 6.00 Build 0)  -->
<svg version="1.1" id="Layer_1" xmlns="http://www.w3.org/2000/svg" xmlns:xlink="http://www.w3.org/1999/xlink" x="0px" y="0px"
	 viewBox="0 0 511.999 511.999" style="enable-background:new 0 0 511.999 511.999;" xml:space="preserve">
<g>
	<g>
		<path d="M455.007,319.815h-29.387v-12.68c0-4.218-3.419-7.637-7.637-7.637H198.954v-8.726h18.727
			c7.58,0,13.747-6.167,13.747-13.747v-23.124h35.597c3.94,0,7.234-2.997,7.603-6.92l2.843-30.144
			c0.001-0.006,0.001-0.011,0.002-0.017l8.792-93.228c0.001-0.006,0.001-0.011,0.002-0.017l0.005-0.054
			c0.008-0.09,0.006-0.178,0.011-0.267c0.009-0.15,0.022-0.298,0.022-0.45V88.032c0-4.218-3.419-7.637-7.637-7.637h-84.743v-18.79
			c0-5.499-3.253-10.241-7.929-12.437V13.747c0-7.58-6.167-13.747-13.747-13.747h-8.719c-7.58,0-13.747,6.167-13.747,13.747v35.366
			c-4.738,2.172-8.043,6.948-8.043,12.492v18.79H56.994c-4.218,0-7.637,3.419-7.637,7.637v34.771c0,0.152,0.014,0.3,0.022,0.45
			c0.005,0.089,0.003,0.178,0.011,0.267l0.005,0.054c0.001,0.006,0.001,0.011,0.002,0.017l8.792,93.225
			c0.001,0.007,0.001,0.015,0.002,0.022l2.842,30.142c0.37,3.923,3.664,6.92,7.603,6.92h35.711v23.124
			c0,7.58,6.167,13.747,13.747,13.747h18.613v213.591c0,4.218,3.419,7.637,7.637,7.637h46.974h50.404h31.473h50.404h31.473h50.172
			h31.473c4.218,0,7.637-3.419,7.637-7.637V366.56h10.651c4.218,0,7.637-3.419,7.637-7.637V327.45
			C462.644,323.235,459.224,319.815,455.007,319.815z M410.345,314.772v5.043H198.954v-5.043H410.345z M262.923,208.413h-34.102
			v-77.972h41.455L262.923,208.413z M165.055,15.274h5.665v32.585h-5.665V15.274z M157.011,63.133h0.001h0.406h20.939h0.292v17.263
			h-21.638V63.133z M64.631,95.669H271.03v19.497H64.631V95.669z M213.547,130.44v77.972h-38.079V130.44H213.547z M160.193,130.44
			v77.972h-40.572V130.44H160.193z M65.385,130.44h38.962v77.972H72.738L65.385,130.44z M118.093,238.627H75.588l-1.409-14.941
			h187.303l-1.409,14.941H217.68H118.093z M183.68,307.135v20.318v31.473v56.982v22.452v58.367h-31.7V290.772h31.7V307.135z
			 M191.316,275.498h-46.974H119.62v-21.596h0.001h96.532v21.596H191.316z M234.084,496.726h-35.13v-50.73h35.13V496.726z
			 M234.084,430.722h-35.13v-7.178h35.13V430.722z M234.084,408.27h-35.13v-41.708h35.13V408.27z M265.557,415.907v22.452v58.367
			h-16.199v-58.367v-22.452v-49.345h16.199V415.907z M315.962,496.726h-35.13v-50.73h35.13V496.726z M315.962,430.722h-35.13v-7.178
			h35.13V430.722z M315.962,408.27h-35.13v-41.708h35.13V408.27z M347.435,415.907v22.452v58.367h-16.199v-58.367v-22.452v-49.345
			h16.199V415.907z M397.607,496.726h-34.898v-50.73h34.898V496.726z M397.608,430.722H362.71v-7.178h34.898V430.722z
			 M397.608,408.27H362.71v-41.708h34.898V408.27z M429.08,496.726h-16.199v-56.529c0.146-0.59,0.232-1.204,0.232-1.839v-22.452
			c0-0.635-0.086-1.248-0.232-1.839V366.56h16.199V496.726z M447.373,351.288h-0.003h-10.651h-31.473h-50.172h-31.473h-50.404
			h-31.473h-42.767v-16.199h219.028h29.387V351.288z"/>
	</g>
</g>
<g>
</g>
<g>
</g>
<g>
</g>
<g>
</g>
<g>
</g>
<g>
</g>
<g>
</g>
<g>
</g>
<g>
</g>
<g>
</g>
<g>
</g>
<g>
</g>
<g>
</g>
<g>
</g>
<g>
</g>
</svg>
