<?xml version="1.0" encoding="iso-8859-1"?>
<!-- Generator: Adobe Illustrator 19.0.0, SVG Export Plug-In . SVG Version: 6.00 Build 0)  -->
<svg version="1.1" id="Layer_1" xmlns="http://www.w3.org/2000/svg" xmlns:xlink="http://www.w3.org/1999/xlink" x="0px" y="0px"
	 viewBox="0 0 512 512" style="enable-background:new 0 0 512 512;" xml:space="preserve">
<g transform="translate(1 1)">
	<g>
		<path d="M504.724,137.96c4.074-12.905,6.276-26.621,6.276-40.826c0-5.12-3.413-8.533-8.533-8.533H152.6
			c-5.12,0-8.533,3.413-8.533,8.533V114.2H7.533c-5.12,0-8.533,3.413-8.533,8.533c0,61.44,49.493,110.933,110.933,110.933H152.6
			h13.79c8.898,8.688,15.684,18.143,20.343,29.013c0.655,1.309,1.437,2.362,2.343,3.169c4.636,11.454,7.044,23.769,7.044,36.084
			c0,26.034-10.865,50.512-28.886,68.267h-31.701c-14.507,0-25.6,11.093-25.6,25.6c0,14.507,11.093,25.6,25.6,25.6h238.933
			c14.507,0,25.6-11.093,25.6-25.6c0-14.507-11.093-25.6-25.6-25.6h-30.949c-18.692-17.826-28.785-43.043-28.785-68.267
			c0-25.223,10.092-50.441,28.044-68.267h31.689c54.908,0,102.511-32.852,124.138-79.869c0.476-0.6,0.914-1.275,1.302-2.051
			C501.702,147.259,503.314,142.652,504.724,137.96z M161.133,105.667h332.8c-0.853,11.947-3.413,23.04-7.68,34.133h-325.12v-17.067
			V105.667z M189.293,233.667h131.413c-3.982,5.388-7.496,11.106-10.525,17.067H200.387
			C196.973,244.76,193.56,238.787,189.293,233.667z M16.92,131.267h127.147v17.067V216.6h-33.28
			C61.293,216.6,21.187,179.053,16.92,131.267z M383,395.8c0,5.12-3.413,8.533-8.533,8.533H135.533c-5.12,0-8.533-3.413-8.533-8.533
			s3.413-8.533,8.533-8.533h34.133h170.667h34.133C379.587,387.267,383,390.68,383,395.8z M320.707,370.2H189.293
			c15.36-19.627,23.04-43.52,23.04-68.267c0-11.691-1.736-23.184-5.164-34.133h95.962c-3.539,10.95-5.464,22.443-5.464,34.133
			C297.667,326.68,306.2,350.573,320.707,370.2z M374.467,216.6H339.48H168.813h-7.68v-59.733h317.18
			C457.601,192.662,418.765,216.6,374.467,216.6z"/>
	</g>
</g>
<g>
</g>
<g>
</g>
<g>
</g>
<g>
</g>
<g>
</g>
<g>
</g>
<g>
</g>
<g>
</g>
<g>
</g>
<g>
</g>
<g>
</g>
<g>
</g>
<g>
</g>
<g>
</g>
<g>
</g>
</svg>
