<?xml version="1.0" encoding="iso-8859-1"?>
<!-- Generator: Adobe Illustrator 19.0.0, SVG Export Plug-In . SVG Version: 6.00 Build 0)  -->
<svg version="1.1" id="Layer_1" xmlns="http://www.w3.org/2000/svg" xmlns:xlink="http://www.w3.org/1999/xlink" x="0px" y="0px"
	 viewBox="0 0 512 512" style="enable-background:new 0 0 512 512;" xml:space="preserve">
<g transform="translate(1 1)">
	<g>
		<g>
			<path d="M220.867,186.733c-5.12,0-8.533,3.413-8.533,8.533v273.067c0,5.12,3.413,8.533,8.533,8.533
				c5.12,0,8.533-3.413,8.533-8.533V195.267C229.4,190.147,225.987,186.733,220.867,186.733z"/>
			<path d="M186.733,186.733c-5.12,0-8.533,3.413-8.533,8.533v273.067c0,5.12,3.413,8.533,8.533,8.533s8.533-3.413,8.533-8.533
				V195.267C195.267,190.147,191.853,186.733,186.733,186.733z"/>
			<path d="M323.267,186.733c-5.12,0-8.533,3.413-8.533,8.533v273.067c0,5.12,3.413,8.533,8.533,8.533s8.533-3.413,8.533-8.533
				V195.267C331.8,190.147,328.387,186.733,323.267,186.733z"/>
			<path d="M255,186.733c-5.12,0-8.533,3.413-8.533,8.533v273.067c0,5.12,3.413,8.533,8.533,8.533c5.12,0,8.533-3.413,8.533-8.533
				V195.267C263.533,190.147,260.12,186.733,255,186.733z"/>
			<path d="M289.133,186.733c-5.12,0-8.533,3.413-8.533,8.533v273.067c0,5.12,3.413,8.533,8.533,8.533s8.533-3.413,8.533-8.533
				V195.267C297.667,190.147,294.253,186.733,289.133,186.733z"/>
			<path d="M255,118.467c-5.12,0-8.533,3.413-8.533,8.533v34.133c0,5.12,3.413,8.533,8.533,8.533c5.12,0,8.533-4.267,8.533-8.533
				V127C263.533,121.88,260.12,118.467,255,118.467z"/>
			<path d="M255,67.267c-5.12,0-8.533,3.413-8.533,8.533v17.067c0,5.12,3.413,8.533,8.533,8.533c5.12,0,8.533-3.413,8.533-8.533
				V75.8C263.533,70.68,260.12,67.267,255,67.267z"/>
			<path d="M220.867,118.467c-5.12,0-8.533,3.413-8.533,8.533v34.133c0,5.12,3.413,8.533,8.533,8.533
				c5.12,0,8.533-4.267,8.533-8.533V127C229.4,121.88,225.987,118.467,220.867,118.467z"/>
			<path d="M289.133,118.467c-5.12,0-8.533,3.413-8.533,8.533v34.133c0,5.12,3.413,8.533,8.533,8.533s8.533-4.267,8.533-8.533V127
				C297.667,121.88,294.253,118.467,289.133,118.467z"/>
			<path d="M493.933,220.867h-25.6v-25.6c0-5.12-3.413-8.533-8.533-8.533h-25.6v-17.067c0-5.12-3.413-8.533-8.533-8.533
				s-8.533,3.413-8.533,8.533v17.067h-25.6c-5.12,0-8.533,3.413-8.533,8.533v25.6h-17.067v-59.733c0-5.12-3.413-8.533-8.533-8.533
				h-25.6V92.867c0-5.12-3.413-8.533-8.533-8.533h-25.6V41.667c0-5.12-3.413-8.533-8.533-8.533h-25.6v-25.6
				C263.533,2.413,260.12-1,255-1c-5.12,0-8.533,3.413-8.533,8.533v25.6h-25.6c-5.12,0-8.533,3.413-8.533,8.533v42.667h-25.6
				c-5.12,0-8.533,3.413-8.533,8.533V152.6h-25.6c-5.12,0-8.533,3.413-8.533,8.533v25.6H127v-25.6c0-5.12-3.413-8.533-8.533-8.533
				h-25.6v-17.067c0-5.12-3.413-8.533-8.533-8.533s-8.533,3.413-8.533,8.533V152.6H50.2c-5.12,0-8.533,3.413-8.533,8.533v25.6h-25.6
				c-5.12,0-8.533,3.413-8.533,8.533v307.2c0,5.12,3.413,8.533,8.533,8.533H152.6h204.8h136.533c5.12,0,8.533-3.413,8.533-8.533
				V229.4C502.467,224.28,499.053,220.867,493.933,220.867z M400.067,203.8h51.2v17.067h-51.2V203.8z M58.733,169.667h51.2v17.067
				h-51.2V169.667z M24.6,203.8h25.6h68.267h25.6v290.133H24.6V203.8z M161.133,195.267v-25.6h25.6c5.12,0,8.533-3.413,8.533-8.533
				V101.4h25.6c5.12,0,8.533-3.413,8.533-8.533V50.2h51.2v42.667c0,5.12,3.413,8.533,8.533,8.533h25.6v59.733
				c0,5.12,3.413,8.533,8.533,8.533h25.6V229.4v264.533H161.133V195.267z M485.4,493.933H365.933v-256h25.6H459.8h25.6V493.933z"/>
			<path d="M118.467,220.867H50.2c-5.12,0-8.533,3.413-8.533,8.533s3.413,8.533,8.533,8.533h68.267c5.12,0,8.533-3.413,8.533-8.533
				S123.587,220.867,118.467,220.867z"/>
			<path d="M118.467,255H50.2c-5.12,0-8.533,3.413-8.533,8.533s3.413,8.533,8.533,8.533h68.267c5.12,0,8.533-3.413,8.533-8.533
				S123.587,255,118.467,255z"/>
			<path d="M118.467,289.133H50.2c-5.12,0-8.533,3.413-8.533,8.533S45.08,306.2,50.2,306.2h68.267c5.12,0,8.533-3.413,8.533-8.533
				S123.587,289.133,118.467,289.133z"/>
			<path d="M118.467,323.267H50.2c-5.12,0-8.533,3.413-8.533,8.533c0,5.12,3.413,8.533,8.533,8.533h68.267
				c5.12,0,8.533-3.413,8.533-8.533C127,326.68,123.587,323.267,118.467,323.267z"/>
			<path d="M118.467,357.4H50.2c-5.12,0-8.533,3.413-8.533,8.533s3.413,8.533,8.533,8.533h68.267c5.12,0,8.533-3.413,8.533-8.533
				S123.587,357.4,118.467,357.4z"/>
			<path d="M118.467,391.533H50.2c-5.12,0-8.533,3.413-8.533,8.533c0,5.12,3.413,8.533,8.533,8.533h68.267
				c5.12,0,8.533-3.413,8.533-8.533C127,394.947,123.587,391.533,118.467,391.533z"/>
			<path d="M118.467,425.667H50.2c-5.12,0-8.533,3.413-8.533,8.533s3.413,8.533,8.533,8.533h68.267c5.12,0,8.533-3.413,8.533-8.533
				S123.587,425.667,118.467,425.667z"/>
			<path d="M118.467,459.8H50.2c-5.12,0-8.533,3.413-8.533,8.533s3.413,8.533,8.533,8.533h68.267c5.12,0,8.533-3.413,8.533-8.533
				S123.587,459.8,118.467,459.8z"/>
			<path d="M391.533,255c-5.12,0-8.533,3.413-8.533,8.533s3.413,8.533,8.533,8.533H459.8c5.12,0,8.533-3.413,8.533-8.533
				S464.92,255,459.8,255H391.533z"/>
			<path d="M459.8,289.133h-68.267c-5.12,0-8.533,3.413-8.533,8.533s3.413,8.533,8.533,8.533H459.8c5.12,0,8.533-3.413,8.533-8.533
				S464.92,289.133,459.8,289.133z"/>
			<path d="M459.8,323.267h-68.267c-5.12,0-8.533,3.413-8.533,8.533c0,5.12,3.413,8.533,8.533,8.533H459.8
				c5.12,0,8.533-3.413,8.533-8.533C468.333,326.68,464.92,323.267,459.8,323.267z"/>
			<path d="M459.8,357.4h-68.267c-5.12,0-8.533,3.413-8.533,8.533s3.413,8.533,8.533,8.533H459.8c5.12,0,8.533-3.413,8.533-8.533
				S464.92,357.4,459.8,357.4z"/>
			<path d="M459.8,391.533h-68.267c-5.12,0-8.533,3.413-8.533,8.533c0,5.12,3.413,8.533,8.533,8.533H459.8
				c5.12,0,8.533-3.413,8.533-8.533C468.333,394.947,464.92,391.533,459.8,391.533z"/>
			<path d="M459.8,425.667h-68.267c-5.12,0-8.533,3.413-8.533,8.533s3.413,8.533,8.533,8.533H459.8c5.12,0,8.533-3.413,8.533-8.533
				S464.92,425.667,459.8,425.667z"/>
			<path d="M459.8,459.8h-68.267c-5.12,0-8.533,3.413-8.533,8.533s3.413,8.533,8.533,8.533H459.8c5.12,0,8.533-3.413,8.533-8.533
				S464.92,459.8,459.8,459.8z"/>
		</g>
	</g>
</g>
<g>
</g>
<g>
</g>
<g>
</g>
<g>
</g>
<g>
</g>
<g>
</g>
<g>
</g>
<g>
</g>
<g>
</g>
<g>
</g>
<g>
</g>
<g>
</g>
<g>
</g>
<g>
</g>
<g>
</g>
</svg>
