<?xml version="1.0" encoding="iso-8859-1"?>
<!-- Generator: Adobe Illustrator 19.0.0, SVG Export Plug-In . SVG Version: 6.00 Build 0)  -->
<svg version="1.1" id="Layer_1" xmlns="http://www.w3.org/2000/svg" xmlns:xlink="http://www.w3.org/1999/xlink" x="0px" y="0px"
	 viewBox="0 0 512 512" style="enable-background:new 0 0 512 512;" xml:space="preserve">
<g>
	<g>
		<g>
			<path d="M509.739,409.429c-2.027-2.581-5.12-4.096-8.405-4.096h-78.123l-17.067-42.667h31.189
				c5.888,0,10.667-4.779,10.667-10.667V245.333c0-5.888-4.779-10.667-10.667-10.667h-10.667V97.728l20.779-62.357
				c0.171-0.469,0.128-0.96,0.213-1.429c0.107-0.555,0.213-1.067,0.235-1.643c0.021-0.96-0.128-1.856-0.341-2.773
				c-0.064-0.299,0-0.597-0.107-0.896c-0.021-0.085-0.107-0.149-0.149-0.256c-0.363-1.024-0.939-1.963-1.621-2.837
				c-0.149-0.213-0.256-0.469-0.427-0.661c-0.661-0.747-1.515-1.323-2.411-1.877c-0.277-0.171-0.469-0.427-0.768-0.555
				L399.445,1.131C397.952,0.384,396.331,0,394.667,0H96c-5.888,0-10.667,4.779-10.667,10.667v42.667C85.333,59.221,90.112,64,96,64
				h12.629c3.221,9.045,10.325,16.149,19.371,19.371v52.075L90.304,192H74.667C68.779,192,64,196.779,64,202.667v64
				c0,5.888,4.779,10.667,10.667,10.667h128c5.888,0,10.667-4.779,10.667-10.667v-64c0-5.888-4.779-10.667-10.667-10.667h-15.659
				l-37.675-56.533V83.371c9.045-3.221,16.149-10.325,19.371-19.371h193.963v170.667H352c-5.888,0-10.667,4.779-10.667,10.667
				v53.333h-96c-5.888,0-10.667,4.779-10.667,10.667v96H192v-32c0-5.888-4.779-10.667-10.667-10.667H128V352
				c0-5.888-4.779-10.667-10.667-10.667h-64c-5.888,0-10.667,4.779-10.667,10.667v53.333H32c-4.907,0-9.152,3.328-10.347,8.085
				L0.32,498.752c-0.789,3.2-0.085,6.571,1.941,9.152c2.027,2.581,5.12,4.096,8.405,4.096h381.376
				c56.704,0,105.877-38.421,119.637-93.419C512.469,415.381,511.765,412.011,509.739,409.429z M192,213.333V256H85.333v-42.667H192
				z M161.387,192h-45.461l22.741-34.091L161.387,192z M106.667,42.667V21.333h285.483l17.387,8.704l-37.909,12.629H106.667z
				 M420.48,48.853l-14.592,43.776c-0.363,1.088-0.555,2.219-0.555,3.371v138.667H384V61.013L420.48,48.853z M362.667,256h64v85.333
				h-29.056l-14.379-35.968c-1.621-4.032-5.525-6.699-9.899-6.699h-10.667V256z M256,320h110.123l14.379,35.968c0,0,0,0,0,0.021
				l19.755,49.344H256V320z M128,384h42.667v21.333H128V384z M64,362.667h42.667v42.667H64V362.667z M392.064,490.667H24.341l16-64
				H486.72C471.403,464.939,434.24,490.667,392.064,490.667z"/>
			<path d="M202.667,480c11.776,0,21.333-9.557,21.333-21.333s-9.557-21.333-21.333-21.333s-21.333,9.557-21.333,21.333
				S190.891,480,202.667,480z"/>
			<path d="M330.667,480c11.776,0,21.333-9.557,21.333-21.333s-9.557-21.333-21.333-21.333s-21.333,9.557-21.333,21.333
				S318.891,480,330.667,480z"/>
		</g>
	</g>
</g>
<g>
</g>
<g>
</g>
<g>
</g>
<g>
</g>
<g>
</g>
<g>
</g>
<g>
</g>
<g>
</g>
<g>
</g>
<g>
</g>
<g>
</g>
<g>
</g>
<g>
</g>
<g>
</g>
<g>
</g>
</svg>
