<?xml version="1.0" encoding="iso-8859-1"?>
<!-- Generator: Adobe Illustrator 19.0.0, SVG Export Plug-In . SVG Version: 6.00 Build 0)  -->
<svg version="1.1" id="Layer_1" xmlns="http://www.w3.org/2000/svg" xmlns:xlink="http://www.w3.org/1999/xlink" x="0px" y="0px"
	 viewBox="0 0 485 485" style="enable-background:new 0 0 485 485;" xml:space="preserve">
<g>
	<g>
		<g>
			<path d="M340,22.5v68.946l-95,77.727V80l-120,90V79.173L0,181.446V462.5h340h7.5H485v-440H340z M15,252.5h40v35H15V252.5z
				 M15,352.5h40v35H15V352.5z M340,447.5H15v-45h310v-65H15v-35h310v-65H15v-48.946l95-77.728V200l120-90v90.827l110-90V447.5z
				 M70,387.5v-35h35v35H70z M120,387.5v-35h35v35H120z M170,387.5v-35h35v35H170z M220,387.5v-35h35v35H220z M270,387.5v-35h40v35
				H270z M70,287.5v-35h35v35H70z M120,287.5v-35h35v35H120z M170,287.5v-35h35v35H170z M220,287.5v-35h35v35H220z M270,287.5v-35
				h40v35H270z M470,447.5H355v-410h115V447.5z"/>
			<rect x="377.5" y="77.5" width="30" height="15"/>
			<rect x="417.5" y="77.5" width="30" height="15"/>
			<rect x="377.5" y="117.5" width="30" height="15"/>
			<rect x="417.5" y="117.5" width="30" height="15"/>
			<rect x="377.5" y="157.5" width="30" height="15"/>
			<rect x="417.5" y="157.5" width="30" height="15"/>
			<rect x="377.5" y="197.5" width="30" height="15"/>
			<rect x="417.5" y="197.5" width="30" height="15"/>
			<rect x="377.5" y="237.5" width="30" height="15"/>
			<rect x="417.5" y="237.5" width="30" height="15"/>
			<rect x="377.5" y="277.5" width="30" height="15"/>
			<rect x="417.5" y="277.5" width="30" height="15"/>
			<rect x="377.5" y="317.5" width="30" height="15"/>
			<rect x="417.5" y="317.5" width="30" height="15"/>
			<rect x="377.5" y="357.5" width="30" height="15"/>
			<rect x="417.5" y="357.5" width="30" height="15"/>
			<rect x="377.5" y="397.5" width="30" height="15"/>
			<rect x="417.5" y="397.5" width="30" height="15"/>
		</g>
	</g>
</g>
<g>
</g>
<g>
</g>
<g>
</g>
<g>
</g>
<g>
</g>
<g>
</g>
<g>
</g>
<g>
</g>
<g>
</g>
<g>
</g>
<g>
</g>
<g>
</g>
<g>
</g>
<g>
</g>
<g>
</g>
</svg>
