<?xml version="1.0" encoding="iso-8859-1"?>
<!-- Generator: Adobe Illustrator 19.0.0, SVG Export Plug-In . SVG Version: 6.00 Build 0)  -->
<svg version="1.1" id="Layer_1" xmlns="http://www.w3.org/2000/svg" xmlns:xlink="http://www.w3.org/1999/xlink" x="0px" y="0px"
	 viewBox="0 0 512 512" style="enable-background:new 0 0 512 512;" xml:space="preserve">
<g transform="translate(1 1)">
	<g>
		<g>
			<path d="M311.796,223.427c-3.413,3.413-3.413,8.533,0,11.947s8.533,3.413,11.947,0s3.413-8.533,0-11.947
				S315.21,220.013,311.796,223.427z"/>
			<path d="M289.61,240.493c-3.413-3.413-8.533-3.413-11.947,0s-3.413,8.533,0,11.947s8.533,3.413,11.947,0
				S293.023,243.907,289.61,240.493z"/>
			<path d="M294.73,257.56c-3.413,3.413-3.413,8.533,0,11.947s8.533,3.413,11.947,0c3.413-3.413,3.413-8.533,0-11.947
				S298.143,254.147,294.73,257.56z"/>
			<path d="M269.13,283.16c-3.413,3.413-3.413,8.533,0,11.947s8.533,3.413,11.947,0s3.413-8.533,0-11.947
				S272.543,279.747,269.13,283.16z"/>
			<path d="M255.476,278.04c3.413-3.413,3.413-8.533,0-11.947s-8.533-3.413-11.947,0s-3.413,8.533,0,11.947
				S252.063,281.453,255.476,278.04z"/>
			<path d="M252.063,308.76c-3.413,3.413-3.413,8.533,0,11.947c3.413,3.413,8.533,3.413,11.947,0c3.413-3.413,3.413-8.533,0-11.947
				S255.476,305.347,252.063,308.76z"/>
			<path d="M226.463,291.693c-3.413,3.413-3.413,8.533,0,11.947s8.533,3.413,11.947,0s3.413-8.533,0-11.947
				C234.996,288.28,229.876,288.28,226.463,291.693z"/>
			<path d="M226.463,325.827c-3.413,3.413-3.413,8.533,0,11.947c3.413,3.413,8.533,3.413,11.947,0c3.413-3.413,3.413-8.533,0-11.947
				C234.996,322.413,229.876,322.413,226.463,325.827z"/>
			<path d="M209.396,351.427c-3.413,3.413-3.413,8.533,0,11.947s8.533,3.413,11.947,0s3.413-8.533,0-11.947
				C217.93,348.013,212.81,348.013,209.396,351.427z"/>
			<path d="M334.836-1c-52.053,0-93.867,41.813-93.867,93.867V127v34.133v68.028c-5.74,4.316-11.41,8.798-16.941,13.366
				c0.885-14.627,0.22-29.134-2.686-42.994c-0.853-4.267-3.413-6.827-7.68-6.827s-7.68,2.56-8.533,5.973
				c0,0-14.507,46.08-41.813,72.533l-3.413,3.413c-26.453,24.747-53.76,51.2-53.76,125.44c0,6.827-3.413,12.8-9.387,15.36
				C84.81,421.4,78.836,434.2,82.25,447c1.707,8.533,6.827,16.213,14.507,23.04c1.707,1.707,13.653,14.507,28.16,14.507
				c1.707,0,2.56,0,3.413,0.853c10.24-1.707,17.92-8.533,23.04-20.48c1.968-4.263,3.554-8.527,4.765-12.79
				c11.496,4.139,22.992,5.964,34.488,5.964c17.509,0,34.489-4.468,49.493-12.954v57.327c0,5.12,3.413,8.533,8.533,8.533h60.587
				h51.2h58.88c5.12,0,8.533-3.413,9.387-8.533V161.133V127V92.867C428.703,40.813,386.89-1,334.836-1z M258.036,135.533h153.6
				V152.6h-153.6V135.533z M258.036,92.867c0-42.667,34.133-76.8,76.8-76.8c42.667,0,76.8,34.133,76.8,76.8v25.6h-153.6V92.867z
				 M339.956,206.36c4.267,5.12,4.267,20.48-11.093,50.347c-15.36,29.013-40.96,62.293-72.533,93.867l-1.69,1.352
				c-33.328,17.35-64.895,41.505-69.99,45.581c0,0-9.299,6.337-20.755,11.877c1.828-5.216,4.886-9.748,7.955-13.584
				c11.093-14.507,18.773-26.453,23.893-39.253c9.387-24.747,20.48-56.32,26.453-90.453c54.558-48.011,94.847-64.391,112.422-62.366
				C336.893,204.218,338.693,205.097,339.956,206.36z M125.77,466.627c-5.973,0.853-14.507-5.973-17.067-9.387
				c-5.12-4.267-8.533-10.24-10.24-15.36c-0.853-4.267,1.707-8.533,5.973-11.093c11.947-5.12,18.773-17.067,18.773-30.72
				c0-67.413,22.187-88.747,48.64-113.493l3.413-3.413c13.653-13.653,24.747-30.72,32.427-46.08
				c-1.707,40.107-16.213,81.92-28.16,113.493c-4.267,10.24-11.093,21.333-21.333,34.133c-7.68,8.533-12.8,20.48-14.507,33.28
				c-0.681,2.042-0.817,3.539-0.844,4.929c-0.002,0.064-0.009,0.127-0.009,0.191c0,1.707,0,4.267,0,5.973
				c0,0.278,0,0.57-0.001,0.867c-0.854,8.529-2.561,17.058-6.825,26.44C133.45,460.653,130.036,465.773,125.77,466.627z
				 M159.05,435.907c0-1.5,0.001-3,0.581-4.5c4.891-1.828,9.67-4.014,14.056-6.235c11.725-5.573,20.579-11.68,21.203-12.304
				c0.853,0,34.133-26.453,68.267-44.373c0.237-0.237,0.405-0.405,0.547-0.547c17.889-9.526,35.143-16.363,47.11-15.807
				c-20.068,14.381-37.664,32.072-52.776,53.901l-0.853,0.853c-3.413,5.12-8.533,10.24-13.653,14.507
				c-1.485,0.99-2.382,2.27-2.885,3.668C217.614,442.141,187.032,446.566,159.05,435.907z M317.77,493.933v-51.2
				c0-9.387,7.68-17.067,17.067-17.067s17.067,7.68,17.067,17.067v51.2H317.77z M410.783,493.933H368.97v-51.2
				c0-18.773-15.36-34.133-34.133-34.133c-18.773,0-34.133,15.36-34.133,34.133v51.2h-43.52v-60.969
				c5.278-4.67,10.146-9.954,14.507-15.831v-0.853c17.067-23.893,36.693-42.667,58.88-56.32l1.707-0.853
				c2.56-1.707,3.413-3.413,4.267-5.973s0-5.12-0.853-6.827c-4.267-6.827-11.093-10.24-18.773-11.947
				c-6.582-1.097-14.248-0.38-22.508,1.613c21.474-24.314,38.812-48.892,50.668-70.733c17.92-33.28,20.48-58.027,7.68-70.827
				c-4.301-4.301-9.713-6.742-15.964-7.64c-23.412-4.151-57.007,14.759-79.609,29.827v-46.933h153.6V493.933z"/>
		</g>
	</g>
</g>
<g>
</g>
<g>
</g>
<g>
</g>
<g>
</g>
<g>
</g>
<g>
</g>
<g>
</g>
<g>
</g>
<g>
</g>
<g>
</g>
<g>
</g>
<g>
</g>
<g>
</g>
<g>
</g>
<g>
</g>
</svg>
