<?xml version="1.0" encoding="iso-8859-1"?>
<!-- Generator: Adobe Illustrator 18.0.0, SVG Export Plug-In . SVG Version: 6.00 Build 0)  -->
<!DOCTYPE svg PUBLIC "-//W3C//DTD SVG 1.1//EN" "http://www.w3.org/Graphics/SVG/1.1/DTD/svg11.dtd">
<svg version="1.1" id="Capa_1" xmlns="http://www.w3.org/2000/svg" xmlns:xlink="http://www.w3.org/1999/xlink" x="0px" y="0px"
	 viewBox="0 0 480.04 480.04" style="enable-background:new 0 0 480.04 480.04;" xml:space="preserve">
<g>
	<circle cx="205.406" cy="262.239" r="12.846"/>
	<path d="M457.084,283.848c0-13.59,7.104-23.803,13.373-32.813c6.188-8.895,12.585-18.091,8.055-28.337
		c-2.619-5.926-8.461-9.422-16.024-9.594c-9.71-0.177-22.364,4.881-34.68,13.994c-7.224,5.346-16.663,13.824-25.101,26.145
		c-10.006-11.346-23.786-22.67-39.152-31.983c0.507-11.237-0.084-32.248-10.207-43.51c-4.565-5.079-10.57-7.764-17.366-7.764
		c-24.068,0-56.478,11.878-73.284,26.475c-29.719,2.885-54.455,14.2-70.807,23.91c-21.546,12.794-40.216,29.677-49.941,45.16
		l-4.131,6.576l11.153,11.741l-11.153,11.739l4.131,6.577c9.726,15.484,28.396,32.366,49.94,45.161
		c15.938,9.464,39.837,20.459,68.557,23.682c16.007,15.524,50.339,28.541,75.534,28.541c6.796,0,12.801-2.685,17.366-7.764
		c10.687-11.891,10.751-34.644,10.114-45.291c15.404-9.324,29.219-20.671,39.245-32.04c8.438,12.32,17.877,20.799,25.101,26.145
		c12.059,8.925,24.43,14.001,34.07,14.001c0.204,0,0.407-0.003,0.609-0.007c7.563-0.172,13.405-3.668,16.024-9.594
		c4.53-10.246-1.867-19.442-8.055-28.337C464.188,307.651,457.084,297.438,457.084,283.848z M338.469,191.115
		c3.072,3.411,4.557,11.42,5.01,19.563c-12.218-5.515-26.77-10.475-43.042-13.052c11.844-4.617,24.957-7.64,35.545-7.64
		C337.095,189.986,337.699,190.26,338.469,191.115z M335.981,379.548c-11.588,0-26.197-3.62-38.86-8.988
		c17.695-2.41,33.46-7.703,46.537-13.622c-0.42,11.114-2.954,18.993-5.186,21.476C337.701,379.273,337.096,379.548,335.981,379.548z
		 M352.143,329.975c-16.807,10.021-43.486,21.965-75.149,21.965c-11.657,0-22.635-1.623-32.694-4.168
		c12.781-18.749,19.696-40.96,19.696-63.924c0-18.019-4.1-35.253-12.186-51.223l-17.844,9.033
		c6.655,13.145,10.029,27.339,10.029,42.189c0,20.874-6.95,40.982-19.659,57.345c-8.578-3.49-16.074-7.406-22.235-11.064
		c-18.069-10.729-31.111-22.86-38.744-32.385l13.2-13.896l-13.201-13.896c7.634-9.523,20.676-21.654,38.745-32.384
		c16.757-9.95,43.352-21.811,74.892-21.811c31.663,0,58.344,11.944,75.149,21.964c19.959,11.9,33.687,25.429,40.804,35.287
		c-0.744,3.776-1.167,7.853-1.353,9.961l-0.046,0.512l0.008,0.513c0.037,2.516,0.272,6.643,1.245,10.9
		C385.641,304.733,371.96,318.159,352.143,329.975z M441.79,326.013c-11.891-8.215-22.147-20.135-28.912-33.592
		c-0.57-1.491-1.21-4.409-1.313-8.218c0.313-3.288,0.93-7.558,1.386-9.073c12.936-25.623,34.806-38.854,45.147-41.565
		c-1.2,1.939-2.759,4.18-4.059,6.048c-7.155,10.286-16.955,24.373-16.955,44.235s9.8,33.949,16.955,44.235
		c1.279,1.838,2.809,4.036,4,5.954C454.263,333.057,448.594,330.714,441.79,326.013z"/>
	<path d="M74.03,291.99l8.214-10.34v23.424c0,17.161-13.961,31.122-31.122,31.122S20,322.235,20,305.074V80.492H0v224.582
		c0,28.188,22.934,51.122,51.122,51.122s51.122-22.934,51.122-51.122v-80.752L58.37,279.548L74.03,291.99z"/>
</g>
<g>
</g>
<g>
</g>
<g>
</g>
<g>
</g>
<g>
</g>
<g>
</g>
<g>
</g>
<g>
</g>
<g>
</g>
<g>
</g>
<g>
</g>
<g>
</g>
<g>
</g>
<g>
</g>
<g>
</g>
</svg>
