<?xml version="1.0" encoding="iso-8859-1"?>
<!-- Generator: Adobe Illustrator 19.0.0, SVG Export Plug-In . SVG Version: 6.00 Build 0)  -->
<svg version="1.1" id="Capa_1" xmlns="http://www.w3.org/2000/svg" xmlns:xlink="http://www.w3.org/1999/xlink" x="0px" y="0px"
	 viewBox="0 0 463 463" style="enable-background:new 0 0 463 463;" xml:space="preserve">
<path d="M455.5,352H447V247.5c0-30.603-24.897-55.5-55.5-55.5H383v-40.5c0-12.958-10.542-23.5-23.5-23.5H359v-8.5
	c0-12.958-10.542-23.5-23.5-23.5h-208c-12.958,0-23.5,10.542-23.5,23.5v8.5h-0.5C90.542,128,80,138.542,80,151.5V216h-0.5
	C62.131,216,48,230.131,48,247.5v0.5h-0.5C30.131,248,16,262.131,16,279.5V352H7.5c-4.142,0-7.5,3.358-7.5,7.5s3.358,7.5,7.5,7.5
	h448c4.142,0,7.5-3.358,7.5-7.5S459.642,352,455.5,352z M391.5,207c22.332,0,40.5,18.168,40.5,40.5V352h-17V247.5
	c0-12.958-10.542-23.5-23.5-23.5H383v-17H391.5z M383,239h8.5c4.687,0,8.5,3.813,8.5,8.5V352h-17V239z M368,151.5V352H175V143h184.5
	C364.187,143,368,146.813,368,151.5z M160,143v17h-33v-17H160z M160,239v17h-33v-17H160z M127,224v-17h33v17H127z M160,271v17h-33
	v-17H160z M160,192h-33v-17h33V192z M127,303h33v17h-33V303z M127,335h33v17h-33V335z M119,119.5c0-4.687,3.813-8.5,8.5-8.5h208
	c4.687,0,8.5,3.813,8.5,8.5v8.5H119V119.5z M95,151.5c0-4.687,3.813-8.5,8.5-8.5h8.5v209H95V151.5z M80,352H63v-89h17V352z
	 M63,247.5c0-9.098,7.402-16.5,16.5-16.5H80v17H63V247.5z M31,279.5c0-9.098,7.402-16.5,16.5-16.5H48v89H31V279.5z"/>
<g>
</g>
<g>
</g>
<g>
</g>
<g>
</g>
<g>
</g>
<g>
</g>
<g>
</g>
<g>
</g>
<g>
</g>
<g>
</g>
<g>
</g>
<g>
</g>
<g>
</g>
<g>
</g>
<g>
</g>
</svg>
