<?xml version="1.0" encoding="iso-8859-1"?>
<!-- Generator: Adobe Illustrator 19.0.0, SVG Export Plug-In . SVG Version: 6.00 Build 0)  -->
<svg version="1.1" id="Layer_1" xmlns="http://www.w3.org/2000/svg" xmlns:xlink="http://www.w3.org/1999/xlink" x="0px" y="0px"
	 viewBox="0 0 511.999 511.999" style="enable-background:new 0 0 511.999 511.999;" xml:space="preserve">
<g>
	<g>
		<path d="M389.25,497.523l-51.652-317.774V83.518c0-2.83-1.155-5.39-3.016-7.237c-0.003-0.003-0.004-0.007-0.008-0.01
			L263.175,5.589c-3.974-3.934-10.377-3.934-14.35,0l-71.4,70.681c-0.003,0.003-0.004,0.007-0.008,0.01
			c-1.862,1.848-3.016,4.408-3.016,7.238v96.232l-51.652,317.774c-0.48,2.953,0.36,5.966,2.298,8.245
			c1.938,2.277,4.778,3.591,7.769,3.591h246.369v-0.001c2.991,0,5.831-1.313,7.769-3.591
			C388.89,503.49,389.73,500.476,389.25,497.523z M255.999,27.189l46.599,46.13H209.4L255.999,27.189z M194.799,93.717H317.2v76.655
			H194.799V93.717z M230.056,488.961l10.495-64.571c1.238-7.615,7.735-13.141,15.448-13.141c7.713,0,14.21,5.526,15.448,13.141
			l10.495,64.571H230.056z M302.608,488.961l-11.027-67.844c-2.851-17.536-17.815-30.266-35.582-30.266
			s-32.731,12.729-35.582,30.266l-11.027,67.844h-64.584l48.468-298.191h125.449l48.468,298.191H302.608z"/>
	</g>
</g>
<g>
	<g>
		<path d="M511.683,78.899c-1.385-5.46-6.937-8.77-12.393-7.377L357.93,107.391c-5.461,1.384-8.763,6.934-7.377,12.393
			c1.171,4.618,5.322,7.693,9.879,7.693c0.829,0,1.675-0.102,2.515-0.316l141.361-35.868
			C509.766,89.908,513.069,84.359,511.683,78.899z"/>
	</g>
</g>
<g>
	<g>
		<path d="M476.424,163.197l-14.771-3.037c-5.521-1.136-10.909,2.418-12.044,7.936c-1.134,5.517,2.418,10.909,7.936,12.044
			l14.771,3.037c0.693,0.143,1.383,0.211,2.064,0.211c4.739,0,8.987-3.323,9.979-8.147
			C485.495,169.724,481.942,164.331,476.424,163.197z"/>
	</g>
</g>
<g>
	<g>
		<path d="M408.911,149.315l-45.365-9.327c-5.514-1.135-10.909,2.417-12.044,7.936c-1.134,5.517,2.418,10.909,7.936,12.044
			l45.365,9.327c0.693,0.143,1.383,0.211,2.064,0.211c4.739,0,8.987-3.323,9.979-8.147
			C417.981,155.843,414.429,150.449,408.911,149.315z"/>
	</g>
</g>
<g>
	<g>
		<path d="M154.069,107.391L12.709,71.522C7.246,70.132,1.7,73.441,0.316,78.899c-1.385,5.46,1.917,11.009,7.377,12.393
			l141.361,35.868c0.841,0.214,1.685,0.316,2.514,0.316c4.557,0,8.707-3.075,9.879-7.693
			C162.831,114.324,159.529,108.775,154.069,107.391z"/>
	</g>
</g>
<g>
	<g>
		<path d="M160.496,147.925c-1.134-5.518-6.537-9.073-12.044-7.936L35.575,163.197c-5.518,1.134-9.071,6.526-7.936,12.044
			c0.992,4.824,5.239,8.147,9.979,8.147c0.681,0,1.373-0.068,2.064-0.211l112.878-23.208
			C158.078,158.834,161.631,153.442,160.496,147.925z"/>
	</g>
</g>
<g>
	<g>
		<path d="M255.999,304.348c-5.632,0-10.199,4.567-10.199,10.199v27.428c0,5.632,4.567,10.199,10.199,10.199
			s10.199-4.567,10.199-10.199v-27.429C266.199,308.915,261.631,304.348,255.999,304.348z"/>
	</g>
</g>
<g>
	<g>
		<path d="M255.999,228.393c-5.632,0-10.199,4.567-10.199,10.199v27.429c0,5.632,4.567,10.199,10.199,10.199
			s10.199-4.567,10.199-10.199v-27.429C266.199,232.96,261.631,228.393,255.999,228.393z"/>
	</g>
</g>
<g>
</g>
<g>
</g>
<g>
</g>
<g>
</g>
<g>
</g>
<g>
</g>
<g>
</g>
<g>
</g>
<g>
</g>
<g>
</g>
<g>
</g>
<g>
</g>
<g>
</g>
<g>
</g>
<g>
</g>
</svg>
