<?xml version="1.0" encoding="iso-8859-1"?>
<!-- Generator: Adobe Illustrator 19.0.0, SVG Export Plug-In . SVG Version: 6.00 Build 0)  -->
<svg version="1.1" id="Capa_1" xmlns="http://www.w3.org/2000/svg" xmlns:xlink="http://www.w3.org/1999/xlink" x="0px" y="0px"
	 viewBox="0 0 60.198 60.198" style="enable-background:new 0 0 60.198 60.198;" xml:space="preserve">
<g>
	<path d="M54.168,17.551l-3.072-2.245V6.198h-8v3.261l-12.36-9.033L30.07,0L6.062,16.62c-0.726,0.501-0.949,1.492-0.51,2.257
		l1.293,2.248c0.238,0.413,0.642,0.711,1.106,0.815c0.463,0.103,0.955,0.009,1.347-0.263l3.797-2.629v15.149h2.834l-1.209,7.857
		c0,0.001,0,0.001,0,0.001l-2.483,16.141h-1.142c-0.553,0-1,0.447-1,1s0.447,1,1,1h4c0.553,0,1-0.447,1-1s-0.447-1-1-1h-0.834
		l0.489-3.18l11.345-4.364v9.544h2v-2h4v2h2v-9.544l11.345,4.364l0.489,3.18h-0.834c-0.553,0-1,0.447-1,1s0.447,1,1,1h4
		c0.553,0,1-0.447,1-1s-0.447-1-1-1h-1.142L45.47,42.058c0,0,0-0.001,0-0.002l-1.209-7.857h2.834V19.814l3.735,2.73
		c0.294,0.215,0.649,0.329,1.009,0.329c0.114,0,0.229-0.012,0.343-0.035c0.471-0.097,0.882-0.39,1.127-0.804l1.322-2.235
		C55.081,19.037,54.881,18.07,54.168,17.551z M45.095,8.198h4v5.646l-4-2.923V8.198z M25.095,34.198h1v4.23l-9.164,2.415
		l1.022-6.644H25.095z M33.095,32.198h-6v-5v-5h6V32.198z M32.095,48.198h-4v-2h4V48.198z M32.095,44.198h-4v-2h4V44.198z
		 M32.095,40.198h-4v-2h4V40.198z M32.095,50.198v2h-4v-2H32.095z M32.095,36.198h-4v-2h4V36.198z M15.101,52.74l1.499-9.742
		l9.496-2.502v8.015L15.101,52.74z M28.095,56.198v-2h4v2H28.095z M34.095,48.511v-8.015l9.496,2.502l1.499,9.742L34.095,48.511z
		 M43.26,40.843l-9.164-2.415v-4.23h1h7.142L43.26,40.843z M35.095,32.198v-12h-10v12h-10v-3h5c0.553,0,1-0.447,1-1s-0.447-1-1-1h-5
		v-3h7c0.553,0,1-0.447,1-1s-0.447-1-1-1h-7v-3h5c0.553,0,1-0.447,1-1s-0.447-1-1-1h-4.326l4.333-3h4.993c0.553,0,1-0.447,1-1
		s-0.447-1-1-1h-2.104l7.026-4.864l6.656,4.864h-4.578c-0.553,0-1,0.447-1,1s0.447,1,1,1h7c0.088,0,0.166-0.029,0.247-0.05
		l4.173,3.05h-7.42c-0.553,0-1,0.447-1,1s0.447,1,1,1h9v3h-5c-0.553,0-1,0.447-1,1s0.447,1,1,1h5v3h-7c-0.553,0-1,0.447-1,1
		s0.447,1,1,1h7v3H35.095z M51.751,20.74l-4.656-3.403v0L30.048,4.879L13.095,16.615v0.001L8.42,19.853l-1-1.739L30.08,2.426
		l13.667,9.986l7.349,5.371v-0.001l1.68,1.227L51.751,20.74z"/>
	<circle cx="28.095" cy="27.198" r="1"/>
	<path d="M48.095,5.198c0.553,0,1-0.447,1-1v-3c0-0.553-0.447-1-1-1s-1,0.447-1,1v3C47.095,4.751,47.543,5.198,48.095,5.198z"/>
	<path d="M45.095,4.198c0.553,0,1-0.447,1-1v-1c0-0.553-0.447-1-1-1s-1,0.447-1,1v1C44.095,3.751,44.543,4.198,45.095,4.198z"/>
</g>
<g>
</g>
<g>
</g>
<g>
</g>
<g>
</g>
<g>
</g>
<g>
</g>
<g>
</g>
<g>
</g>
<g>
</g>
<g>
</g>
<g>
</g>
<g>
</g>
<g>
</g>
<g>
</g>
<g>
</g>
</svg>
