<?xml version="1.0" encoding="iso-8859-1"?>
<!-- Generator: Adobe Illustrator 19.0.0, SVG Export Plug-In . SVG Version: 6.00 Build 0)  -->
<svg version="1.1" id="Layer_1" xmlns="http://www.w3.org/2000/svg" xmlns:xlink="http://www.w3.org/1999/xlink" x="0px" y="0px"
	 viewBox="0 0 512 512" style="enable-background:new 0 0 512 512;" xml:space="preserve">
<g transform="translate(1 1)">
	<g>
		<g>
			<path d="M54.467,454.68c4.267-2.56,5.973-7.68,3.413-11.947s-7.68-15.36-7.68-34.133c0-18.773,5.12-29.867,7.68-34.133
				s0.853-9.387-3.413-11.947c-4.267-1.707-9.387-0.853-11.947,3.413c-2.56,5.12-9.387,19.627-9.387,42.667
				c0,23.04,6.827,37.547,9.387,42.667c1.707,2.56,5.12,4.267,7.68,4.267C51.907,455.533,53.613,455.533,54.467,454.68z"/>
			<path d="M504.142,365.191c-0.13-1.939-0.768-3.605-1.818-4.891c-9.067-22.493-24.472-37.034-42.524-37.034H330.308
				c9.565-15.957,22.005-31.606,38.185-47.787l2.133-2.133l11.52,11.52c1.707,1.707,3.413,2.56,5.973,2.56
				c2.56,0,5.12-0.853,5.973-2.56l30.72-30.72c1.707-1.707,2.56-3.413,2.56-5.973c0-2.56-0.853-4.267-2.56-5.973l-11.52-11.52
				l6.4-6.4c3.413-3.413,3.413-8.533,0-11.947l-78.507-78.507c-3.413-3.413-8.533-3.413-11.947,0l-1.908,1.908
				c-26.871-14.521-40.519-28.865-51.852-53.961c-3.728-8.632-8.048-16.442-12.907-23.44c-0.324-0.613-0.736-1.197-1.224-1.747
				c-6.638-9.201-14.253-16.917-22.739-23.132c-0.396-0.719-0.904-1.402-1.53-2.028c-1.526-1.526-3.393-2.364-5.295-2.526
				c-10.491-6.372-22.145-10.671-34.811-12.834c-2.56,0-5.12,0.853-5.973,1.707l-36.693,36.693c-1.707,1.707-2.56,5.12-1.707,8.533
				c0.853,3.413,3.413,5.12,6.827,5.973c36.693,5.973,56.32,33.28,65.707,55.467c11.457,27.497,27.025,44.054,54.029,59.464
				l-1.122,1.122c-17.92,17.92-38.4,32.427-62.293,44.373l-32.427,16.213c-4.267,1.707-5.973,5.973-4.267,10.24l5.12,14.507
				c7.541,19.482,18.334,37.565,32.355,52.907H50.2C21.187,323.267-1,360.813-1,408.6c0,47.787,22.187,85.333,51.2,85.333h409.6
				c29.013,0,51.2-37.547,51.2-85.333C511,392.646,508.516,377.846,504.142,365.191z M239.64,117.613
				c-13.653-31.573-35.84-52.053-63.147-61.44l23.04-22.187c6.332,1.266,12.104,3.211,17.369,5.671l-2.863,2.863
				c-3.413,3.413-3.413,8.533,0,11.947c1.707,1.707,3.413,2.56,5.973,2.56c1.707,0,4.267,0,5.973-2.56l5.685-5.685
				c4.712,3.714,8.859,7.862,12.519,12.228l-6.257,6.257c-3.413,3.413-3.413,8.533,0,11.947c1.707,1.707,3.413,2.56,5.973,2.56
				s4.267-0.853,5.973-2.56l4.169-4.169c2.709,4.592,4.999,9.181,6.924,13.556c11.947,27.307,26.453,43.52,53.76,58.88
				l-23.893,23.893C264.387,156.867,250.733,142.36,239.64,117.613z M406.893,247.32l-18.773,18.773l-5.12-5.12l18.773-18.773
				L406.893,247.32z M289.133,196.973l45.227-46.08l66.56,66.56l-45.227,45.227c-19.594,20.446-34.934,40.042-46.023,60.485
				l-6.883-2.458c-34.987-11.093-61.44-37.547-72.533-73.387l-2.173-6.084C251.366,229.59,271.721,214.386,289.133,196.973z
				 M199.533,263.533l-2.316-6.949l16.064-8.032l0.758,3.034c10.24,30.72,29.867,56.32,56.32,71.68h-29.013
				C222.573,307.053,208.067,286.573,199.533,263.533z M16.067,408.6c0-40.107,17.92-68.267,34.133-68.267
				s34.133,28.16,34.133,68.267c0,40.107-17.92,68.267-34.133,68.267S16.067,448.707,16.067,408.6z M459.8,476.867H81.773
				c3.752-4.824,7.166-10.576,10.086-17.067h77.807c5.12,0,8.533-3.413,8.533-8.533s-3.413-8.533-8.533-8.533H97.874
				c2.778-10.419,4.38-21.954,4.38-34.133s-1.602-23.714-4.38-34.133h63.26c5.12,0,8.533-3.413,8.533-8.533
				s-3.413-8.533-8.533-8.533H91.859c-2.92-6.491-6.334-12.243-10.086-17.067h156.16h74.24h2.56H459.8
				c7.64,0,15.658,6.257,22.002,17.067H365.933c-5.12,0-8.533,3.413-8.533,8.533s3.413,8.533,8.533,8.533h123.182
				c2.314,7.581,3.918,16.195,4.531,25.6h-76.513c-5.12,0-8.533,3.413-8.533,8.533c0,5.12,3.413,8.533,8.533,8.533h76.513
				C491.329,452.639,474.836,476.867,459.8,476.867z"/>
			<path d="M195.267,374.467H331.8c5.12,0,8.533-3.413,8.533-8.533s-3.413-8.533-8.533-8.533H195.267
				c-5.12,0-8.533,3.413-8.533,8.533S190.147,374.467,195.267,374.467z"/>
			<path d="M263.533,400.067c-5.12,0-8.533,3.413-8.533,8.533c0,5.12,3.413,8.533,8.533,8.533h25.6c5.12,0,8.533-3.413,8.533-8.533
				c0-5.12-3.413-8.533-8.533-8.533H263.533z"/>
			<path d="M220.867,408.6c0-5.12-3.413-8.533-8.533-8.533H127c-5.12,0-8.533,3.413-8.533,8.533c0,5.12,3.413,8.533,8.533,8.533
				h85.333C217.453,417.133,220.867,413.72,220.867,408.6z"/>
			<path d="M314.733,408.6c0,5.12,3.413,8.533,8.533,8.533h51.2c5.12,0,8.533-3.413,8.533-8.533c0-5.12-3.413-8.533-8.533-8.533
				h-51.2C318.147,400.067,314.733,403.48,314.733,408.6z"/>
			<path d="M451.267,442.733H383c-5.12,0-8.533,3.413-8.533,8.533S377.88,459.8,383,459.8h68.267c5.12,0,8.533-3.413,8.533-8.533
				S456.387,442.733,451.267,442.733z"/>
			<path d="M323.267,442.733h-102.4c-5.12,0-8.533,3.413-8.533,8.533s3.413,8.533,8.533,8.533h102.4c5.12,0,8.533-3.413,8.533-8.533
				S328.387,442.733,323.267,442.733z"/>
		</g>
	</g>
</g>
<g>
</g>
<g>
</g>
<g>
</g>
<g>
</g>
<g>
</g>
<g>
</g>
<g>
</g>
<g>
</g>
<g>
</g>
<g>
</g>
<g>
</g>
<g>
</g>
<g>
</g>
<g>
</g>
<g>
</g>
</svg>
