<?xml version="1.0" encoding="iso-8859-1"?>
<!-- Generator: Adobe Illustrator 18.0.0, SVG Export Plug-In . SVG Version: 6.00 Build 0)  -->
<!DOCTYPE svg PUBLIC "-//W3C//DTD SVG 1.1//EN" "http://www.w3.org/Graphics/SVG/1.1/DTD/svg11.dtd">
<svg version="1.1" id="Capa_1" xmlns="http://www.w3.org/2000/svg" xmlns:xlink="http://www.w3.org/1999/xlink" x="0px" y="0px"
	 viewBox="0 0 456.86 456.86" style="enable-background:new 0 0 456.86 456.86;" xml:space="preserve">
<g>
	<path d="M405.432,297.895l-92.808-80.171l-5.254-33.313h27.495c3.037,0,5.5-2.462,5.5-5.5c0-18.081-4.385-35.895-12.697-51.818
		l77.765-67.177c1.156-0.999,1.845-2.435,1.9-3.961c0.056-1.527-0.526-3.009-1.607-4.09L355.471,1.611
		c-1.08-1.081-2.561-1.663-4.089-1.607c-1.527,0.056-2.963,0.745-3.962,1.901l-67.175,77.763
		c-15.915-8.313-33.726-12.698-51.81-12.698c-18.08,0-35.895,4.385-51.818,12.698L109.441,1.905
		c-0.999-1.157-2.435-1.845-3.961-1.901c-1.539-0.057-3.009,0.527-4.09,1.607L51.136,51.865c-1.081,1.081-1.663,2.563-1.607,4.09
		c0.056,1.527,0.745,2.962,1.901,3.961l77.764,67.176c-8.314,15.923-12.699,33.738-12.699,51.818c0,3.038,2.462,5.5,5.5,5.5h27.494
		l-5.255,33.317L51.43,297.895c-1.157,0.999-1.845,2.434-1.901,3.961c-0.056,1.527,0.527,3.009,1.607,4.09L101.39,356.2
		c1.033,1.033,2.433,1.611,3.889,1.611c0.066,0,0.133-0.001,0.201-0.003c1.527-0.056,2.962-0.745,3.961-1.901l15.895-18.401
		l-17.834,112.997c-0.251,1.589,0.207,3.208,1.251,4.431c1.045,1.223,2.573,1.927,4.181,1.927h231c1.608,0,3.137-0.704,4.182-1.927
		c1.045-1.223,1.502-2.842,1.251-4.431l-17.834-112.988l15.887,18.391c0.999,1.157,2.435,1.845,3.962,1.901
		c0.066,0.002,0.134,0.003,0.2,0.003c1.456,0,2.855-0.578,3.889-1.611l50.254-50.254c1.081-1.081,1.663-2.563,1.607-4.09
		S406.588,298.894,405.432,297.895z M299.732,206.587l-20.844-18.006c-2.182-1.884-5.447-1.765-7.484,0.273l-12.623,12.623
		l-12.43-12.429c0.822-1.447,1.466-3.002,1.921-4.638h47.963L299.732,206.587z M218.821,178.906c0-5.299,4.311-9.61,9.61-9.61
		s9.609,4.311,9.609,9.61s-4.311,9.609-9.609,9.609S218.821,184.205,218.821,178.906z M329.215,173.41h-80.941
		c-0.455-1.64-1.1-3.198-1.924-4.647l12.43-12.429l12.624,12.624c1.069,1.07,2.478,1.611,3.89,1.611
		c1.277,0,2.559-0.443,3.595-1.338l40.203-34.729C325.022,146.62,328.478,159.873,329.215,173.41z M275.565,157.564l-9.008-9.008
		L376.713,38.409l17.051,17.051L275.565,157.564z M351.877,13.573l17.058,17.058L258.78,140.778l-9.008-9.008L351.877,13.573z
		 M228.435,77.97c15.439,0,30.658,3.535,44.407,10.269l-34.736,40.21c-1.884,2.181-1.765,5.446,0.273,7.484l12.623,12.623
		l-12.43,12.429c-2.998-1.703-6.454-2.689-10.141-2.689c-3.688,0-7.144,0.986-10.142,2.69l-12.429-12.429l12.623-12.623
		c2.038-2.038,2.157-5.304,0.273-7.484l-34.735-40.21C197.777,81.505,212.998,77.97,228.435,77.97z M104.984,13.573L207.089,131.77
		l-9.008,9.008L87.93,30.627L104.984,13.573z M80.152,38.406l110.151,110.151l-9.008,9.008L63.098,55.459L80.152,38.406z
		 M137.769,134.5l40.205,34.73c1.036,0.895,2.316,1.338,3.594,1.338c1.412,0,2.82-0.541,3.89-1.611l12.623-12.623l12.429,12.429
		c-0.823,1.449-1.468,3.007-1.923,4.646h-80.943C128.381,159.872,131.837,146.619,137.769,134.5z M160.624,184.41h47.965
		c0.455,1.636,1.098,3.191,1.92,4.637l-12.429,12.429l-12.622-12.622c-2.039-2.037-5.304-2.157-7.484-0.273l-20.848,18.009
		L160.624,184.41z M181.295,200.247l9.007,9.007L80.151,319.405l-17.053-17.053L181.295,200.247z M104.984,344.238l-17.055-17.055
		L198.08,217.033l9.008,9.008L104.984,344.238z M208.935,445.86v-47.5c0-10.752,8.748-19.5,19.5-19.5c10.752,0,19.5,8.748,19.5,19.5
		v47.5H208.935z M337.498,445.86h-78.563v-47.5c0-16.818-13.683-30.5-30.5-30.5c-16.818,0-30.5,13.682-30.5,30.5v47.5h-78.564
		l19.591-124.128l79.794-92.37c1.884-2.181,1.765-5.446-0.273-7.484l-12.624-12.624l12.429-12.429
		c2.998,1.704,6.455,2.69,10.143,2.69c3.688,0,7.144-0.986,10.142-2.689l12.43,12.429l-12.623,12.623
		c-2.038,2.038-2.157,5.304-0.273,7.484l79.802,92.38L337.498,445.86z M351.877,344.238L249.772,226.041l9.008-9.008
		l110.155,110.147L351.877,344.238z M376.714,319.401L266.558,209.255l9.007-9.007l118.198,102.104L376.714,319.401z"/>
	<path d="M161.604,403.36c0-3.038-2.462-5.5-5.5-5.5h-19c-3.038,0-5.5,2.462-5.5,5.5s2.462,5.5,5.5,5.5h19
		C159.142,408.86,161.604,406.398,161.604,403.36z"/>
	<path d="M170.104,414.86h-19c-3.038,0-5.5,2.462-5.5,5.5s2.462,5.5,5.5,5.5h19c3.038,0,5.5-2.462,5.5-5.5
		S173.142,414.86,170.104,414.86z"/>
	<path d="M266.104,359.86h19c3.037,0,5.5-2.462,5.5-5.5s-2.463-5.5-5.5-5.5h-19c-3.037,0-5.5,2.462-5.5,5.5
		S263.067,359.86,266.104,359.86z"/>
	<path d="M310.104,410.86h7c3.037,0,5.5-2.462,5.5-5.5s-2.463-5.5-5.5-5.5h-7c-3.037,0-5.5,2.462-5.5,5.5
		S307.067,410.86,310.104,410.86z"/>
	<path d="M147.104,344.86h7c3.038,0,5.5-2.462,5.5-5.5s-2.462-5.5-5.5-5.5h-7c-3.038,0-5.5,2.462-5.5,5.5
		S144.067,344.86,147.104,344.86z"/>
	<path d="M219.604,289.36c0-3.038-2.462-5.5-5.5-5.5h-19c-3.038,0-5.5,2.462-5.5,5.5s2.462,5.5,5.5,5.5h19
		C217.142,294.86,219.604,292.398,219.604,289.36z"/>
	<path d="M227.104,302.86h-19c-3.038,0-5.5,2.462-5.5,5.5s2.462,5.5,5.5,5.5h19c3.037,0,5.5-2.462,5.5-5.5
		S230.142,302.86,227.104,302.86z"/>
</g>
<g>
</g>
<g>
</g>
<g>
</g>
<g>
</g>
<g>
</g>
<g>
</g>
<g>
</g>
<g>
</g>
<g>
</g>
<g>
</g>
<g>
</g>
<g>
</g>
<g>
</g>
<g>
</g>
<g>
</g>
</svg>
