<?xml version="1.0" encoding="iso-8859-1"?>
<!-- Generator: Adobe Illustrator 19.0.0, SVG Export Plug-In . SVG Version: 6.00 Build 0)  -->
<svg version="1.1" id="Layer_1" xmlns="http://www.w3.org/2000/svg" xmlns:xlink="http://www.w3.org/1999/xlink" x="0px" y="0px"
	 viewBox="0 0 512 512" style="enable-background:new 0 0 512 512;" xml:space="preserve">
<g>
	<g>
		<g>
			<path d="M499.786,457.561h-15.021v-75.125c0-7.879-6.41-14.289-14.289-14.289h-24.479v-78.151c0-7.879-6.41-14.289-14.289-14.289
				H396.49c-3.126-35.372-4.107-66.047-4.107-81.084V184.44c0-6.26-3.199-11.784-8.048-15.029
				c-0.785-6.487-2.348-12.783-4.698-18.83c11.802-2.46,22.719-8.203,31.533-16.72c10.239-9.895,16.837-22.746,18.927-36.669
				c16.926-5.763,28.678-21.776,28.678-40.107c0-23.367-19.011-42.378-42.378-42.378c-11.11,0-21.531,4.254-29.382,11.84
				c-6.615-2.241-13.515-3.373-20.581-3.373c-22.811,0-43.9,12.208-55.404,31.594c-4.297-0.832-8.664-1.252-13.045-1.252
				c-15.65,0-30.957,5.41-43.103,15.235c-10.533,8.519-18.347,20.044-22.375,32.871c-33.397,6.434-58.953,33.728-63.179,67.511
				c-5.097,3.201-8.504,8.856-8.504,15.307v10.181c0,3.94-0.09,17.45-1.142,38.335h-56.287c-8.689,0-15.759,7.068-15.759,15.758
				v7.854c0,54.306-10.133,172.98-41.224,200.995H12.214C5.479,457.561,0,463.042,0,469.777v15.302
				c0,6.734,5.479,12.214,12.214,12.214h487.573c6.734,0,12.214-5.48,12.214-12.214v-15.302
				C512,463.042,506.52,457.561,499.786,457.561z M468.887,384.025v5.822h-54.255c-0.5-1.893-0.994-3.833-1.485-5.822H468.887z
				 M421.521,412.603c-0.768-2.2-1.534-4.492-2.295-6.88h49.661v6.88H421.521z M468.887,428.48v29.082h-21.615
				c-5.952-5.173-12.719-14.046-19.477-29.082H468.887z M409.53,368.147c-2.2-10.478-4.298-22.077-6.251-34.93h26.84v34.93H409.53z
				 M430.119,291.584v25.757h-29.087c-1.141-8.663-2.143-17.291-3.021-25.757H430.119z M426.138,457.561H311.093
				c-16.739-15.079-27.404-56.426-33.682-99.872h113.887C399.881,403.988,411.548,437.411,426.138,457.561z M385.252,319.114
				c0.563,4.292,1.156,8.589,1.788,12.88c0.492,3.334,1,6.593,1.52,9.817H275.316c-0.917-7.635-1.706-15.244-2.377-22.697H385.252z
				 M239.789,116.54c3.324-0.409,6.034-2.857,6.775-6.122c5.483-24.153,26.628-41.022,51.422-41.022
				c5.051,0,10.077,0.727,14.936,2.159c3.773,1.111,7.801-0.71,9.452-4.288c7.912-17.139,25.206-28.214,44.06-28.214
				c6.799,0,13.39,1.39,19.591,4.132c3.327,1.472,7.232,0.493,9.47-2.377c5.067-6.497,12.686-10.223,20.902-10.223
				c14.613,0,26.501,11.889,26.501,26.501c0,12.743-9.077,23.694-21.584,26.037c-3.584,0.672-6.248,3.698-6.462,7.338
				c-1.468,25-22.246,45.023-47.304,45.586c-2.797,0.064-5.352,1.591-6.729,4.024c-1.379,2.432-1.375,5.411,0.008,7.84
				c3.314,5.82,5.616,12.002,6.931,18.449H185.851C191.175,140.222,212.677,119.865,239.789,116.54z M176.703,194.621V184.44
				c0-1.213,0.988-2.202,2.201-2.202h195.403c1.212,0,2.2,0.989,2.2,2.202v10.181c0,18.921,1.522,62.138,6.804,108.615H271.67
				c-1.246-17.753-1.802-33.974-1.802-46.67v-7.854c0-8.689-7.07-15.758-15.759-15.758h-78.529
				C176.613,212.144,176.703,198.606,176.703,194.621z M95.371,362.787c6.442-43.711,8.145-88.594,8.145-106.221v-7.734h150.476
				v7.734c0,17.626,1.702,62.511,8.144,106.221c0.541,3.667,1.102,7.245,1.685,10.74H93.686
				C94.268,370.033,94.83,366.454,95.371,362.787z M90.771,389.406h175.965c1.142,5.674,2.35,11.083,3.621,16.224H87.148
				C88.421,400.488,89.628,395.08,90.771,389.406z M82.754,421.507h192c4.621,14.913,9.929,26.948,15.901,36.055H66.851
				C72.825,448.456,78.131,436.42,82.754,421.507z M496.123,481.416H15.877v-7.978h480.246V481.416z"/>
			<circle cx="276.605" cy="201.553" r="7.873"/>
			<circle cx="211.628" cy="201.554" r="7.873"/>
			<circle cx="341.581" cy="201.553" r="7.873"/>
			<circle cx="227.443" cy="270.003" r="7.873"/>
			<circle cx="130.063" cy="270.003" r="7.873"/>
			<circle cx="178.753" cy="270.003" r="7.873"/>
		</g>
	</g>
</g>
<g>
</g>
<g>
</g>
<g>
</g>
<g>
</g>
<g>
</g>
<g>
</g>
<g>
</g>
<g>
</g>
<g>
</g>
<g>
</g>
<g>
</g>
<g>
</g>
<g>
</g>
<g>
</g>
<g>
</g>
</svg>
