<?xml version="1.0" encoding="iso-8859-1"?>
<!-- Generator: Adobe Illustrator 19.0.0, SVG Export Plug-In . SVG Version: 6.00 Build 0)  -->
<svg version="1.1" id="Capa_1" xmlns="http://www.w3.org/2000/svg" xmlns:xlink="http://www.w3.org/1999/xlink" x="0px" y="0px"
	 viewBox="0 0 463 463" style="enable-background:new 0 0 463 463;" xml:space="preserve">
<path d="M455.5,396H447v-32.5c0-10.336-6.71-19.128-16-22.266V107.5c0-17.369-14.131-31.5-31.5-31.5S368,90.131,368,107.5V164h-8.5
	c-12.958,0-23.5,10.542-23.5,23.5v80c0,4.687-3.813,8.5-8.5,8.5H319V107.5c0-17.369-14.131-31.5-31.5-31.5S256,90.131,256,107.5V164
	h-8.5c-12.958,0-23.5,10.542-23.5,23.5v80c0,4.687-3.813,8.5-8.5,8.5H207V107.5c0-14.785-10.241-27.216-24-30.591V75.5
	c0-12.958-10.542-23.5-23.5-23.5h-80C66.542,52,56,62.542,56,75.5V172h-0.5c-8.547,0-15.5,6.953-15.5,15.5v17.409
	c-13.759,3.374-24,15.806-24,30.591V396H7.5c-4.142,0-7.5,3.358-7.5,7.5s3.358,7.5,7.5,7.5h448c4.142,0,7.5-3.358,7.5-7.5
	S459.642,396,455.5,396z M432,396h-25v-17.909c10.543-2.586,19.013-10.49,22.399-20.697c1.6,1.547,2.601,3.71,2.601,6.106V396z
	 M369.601,357.394c3.386,10.207,11.857,18.111,22.399,20.697V396h-25v-32.5C367,361.104,368,358.94,369.601,357.394z M416,347.5
	c0,9.098-7.402,16.5-16.5,16.5s-16.5-7.402-16.5-16.5V323h33V347.5z M383,107.5c0-9.098,7.402-16.5,16.5-16.5s16.5,7.402,16.5,16.5
	V308h-33V107.5z M327.5,291c12.958,0,23.5-10.542,23.5-23.5v-80c0-4.687,3.813-8.5,8.5-8.5h8.5v162.234
	c-9.29,3.138-16,11.93-16,22.266V396h-17v-32.5c0-10.336-6.71-19.128-16-22.266V291H327.5z M257.601,357.394
	c3.386,10.207,11.857,18.111,22.399,20.697V396h-25v-32.5C255,361.104,256,358.94,257.601,357.394z M304,347.5
	c0,9.098-7.402,16.5-16.5,16.5s-16.5-7.402-16.5-16.5V323h33V347.5z M295,378.091c10.543-2.586,19.013-10.49,22.399-20.697
	c1.6,1.547,2.601,3.71,2.601,6.106V396h-25V378.091z M271,107.5c0-9.098,7.402-16.5,16.5-16.5s16.5,7.402,16.5,16.5V308h-33V107.5z
	 M215.5,291c12.958,0,23.5-10.542,23.5-23.5v-80c0-4.687,3.813-8.5,8.5-8.5h8.5v162.234c-9.29,3.138-16,11.93-16,22.266V396h-17
	v-32.5c0-10.336-6.71-19.128-16-22.266V291H215.5z M145.601,357.394c3.386,10.207,11.857,18.111,22.399,20.697V396h-25v-32.5
	C143,361.104,144,358.94,145.601,357.394z M192,347.5c0,9.098-7.402,16.5-16.5,16.5s-16.5-7.402-16.5-16.5V323h33V347.5z
	 M183,378.091c10.543-2.586,19.013-10.49,22.399-20.697c1.6,1.547,2.601,3.71,2.601,6.106V396h-25V378.091z M192,107.5V308h-33
	V107.5c0-9.098,7.402-16.5,16.5-16.5S192,98.402,192,107.5z M71,75.5c0-4.687,3.813-8.5,8.5-8.5h80c4.687,0,8.5,3.813,8.5,8.5v1.409
	c-13.759,3.374-24,15.806-24,30.591v233.734c-9.29,3.138-16,11.93-16,22.266V396h-17V235.5c0-14.785-10.241-27.216-24-30.591V187.5
	c0-8.547-6.953-15.5-15.5-15.5H71V75.5z M96,332H31v-81h65V332z M31,347h65v17H31V347z M55.5,187h16c0.276,0,0.5,0.224,0.5,0.5V204
	H55v-16.5C55,187.224,55.224,187,55.5,187z M47.5,219h32c9.098,0,16.5,7.402,16.5,16.5v0.5H31v-0.5C31,226.402,38.402,219,47.5,219z
	 M31,379h65v17H31V379z"/>
<g>
</g>
<g>
</g>
<g>
</g>
<g>
</g>
<g>
</g>
<g>
</g>
<g>
</g>
<g>
</g>
<g>
</g>
<g>
</g>
<g>
</g>
<g>
</g>
<g>
</g>
<g>
</g>
<g>
</g>
</svg>
