<?xml version="1.0" encoding="iso-8859-1"?>
<!-- Generator: Adobe Illustrator 19.0.0, SVG Export Plug-In . SVG Version: 6.00 Build 0)  -->
<svg version="1.1" id="Layer_1" xmlns="http://www.w3.org/2000/svg" xmlns:xlink="http://www.w3.org/1999/xlink" x="0px" y="0px"
	 viewBox="0 0 512 512" style="enable-background:new 0 0 512 512;" xml:space="preserve">
<g>
	<g>
		<path d="M489.966,5.799H292.909c-12.15,0-22.034,9.885-22.034,22.035v30.702c0,8.394,4.718,15.704,11.641,19.423v47.343H23.145
			C10.384,125.301,0,135.685,0,148.447v29.875c0,12.762,10.384,23.145,23.145,23.145H23.9v294.534
			c0,5.632,4.567,10.199,10.199,10.199h456.059c5.632,0,10.199-4.567,10.199-10.199V77.96C507.281,74.241,512,66.93,512,58.536
			V27.835C512,15.684,502.116,5.799,489.966,5.799z M153.362,485.803h-28.775v-69.471c0-17.931,12.224-33.056,28.775-37.493V485.803
			z M202.226,485.802h-28.465V378.927c16.392,4.544,28.465,19.587,28.465,37.406V485.802z M282.515,485.802h-59.891v-69.47
			c0-32.653-26.565-59.218-59.218-59.218c-32.654,0-59.219,26.565-59.219,59.218v69.47H44.299V201.468h238.216V485.802z
			 M282.515,181.071H23.145v-0.001c-1.515,0-2.747-1.232-2.747-2.747v-29.875c0-1.515,1.232-2.747,2.747-2.747h259.37V181.071z
			 M479.959,485.802H302.913V80.571h177.046V485.802z M491.601,58.536c0,0.903-0.734,1.636-1.636,1.636H292.909
			c-0.903,0-1.636-0.734-1.636-1.636V27.835h-0.001c0-0.904,0.734-1.637,1.636-1.637h197.057c0.903,0,1.636,0.734,1.636,1.637
			V58.536z"/>
	</g>
</g>
<g>
	<g>
		<path d="M391.437,115.827c-29.518,0-53.533,24.015-53.533,53.534v83.513c-0.001,5.632,4.565,10.199,10.198,10.199h86.669
			c5.632,0,10.199-4.567,10.199-10.199v-83.513C444.971,139.842,420.956,115.827,391.437,115.827z M391.436,136.225
			c14.343,0,26.583,9.162,31.185,21.941h-62.368C364.854,145.388,377.094,136.225,391.436,136.225z M424.572,242.675h-66.27v-64.11
			h66.27V242.675z"/>
	</g>
</g>
<g>
	<g>
		<path d="M391.437,287.253c-29.518,0-53.533,24.015-53.533,53.534V424.3c-0.001,5.632,4.565,10.199,10.198,10.199h86.669
			c5.632,0,10.199-4.567,10.199-10.199v-83.513C444.971,311.268,420.956,287.253,391.437,287.253z M391.436,307.652
			c14.292,0,26.499,9.096,31.138,21.802H360.3C364.939,316.747,377.145,307.652,391.436,307.652z M424.572,414.101h-66.27v-64.249
			h66.27V414.101z"/>
	</g>
</g>
<g>
	<g>
		<path d="M241.258,227.876H85.557c-10.006,0-18.146,8.14-18.146,18.146v31.906c0,10.006,8.14,18.146,18.146,18.146h155.701
			c10.006,0,18.146-8.14,18.146-18.146v-31.906C259.405,236.016,251.265,227.876,241.258,227.876z M152.367,275.676H87.809v-27.402
			h64.558V275.676z M239.006,275.676h-66.241v-27.402h66.241V275.676z"/>
	</g>
</g>
<g>
</g>
<g>
</g>
<g>
</g>
<g>
</g>
<g>
</g>
<g>
</g>
<g>
</g>
<g>
</g>
<g>
</g>
<g>
</g>
<g>
</g>
<g>
</g>
<g>
</g>
<g>
</g>
<g>
</g>
</svg>
