<?xml version="1.0" encoding="iso-8859-1"?>
<!-- Generator: Adobe Illustrator 19.0.0, SVG Export Plug-In . SVG Version: 6.00 Build 0)  -->
<svg version="1.1" id="Layer_1" xmlns="http://www.w3.org/2000/svg" xmlns:xlink="http://www.w3.org/1999/xlink" x="0px" y="0px"
	 viewBox="0 0 512 512" style="enable-background:new 0 0 512 512;" xml:space="preserve">
<g transform="translate(1 1)">
	<g>
		<g>
			<path d="M511,331.8c0-33.28-26.453-59.733-59.733-59.733h-64.241l-23.644-28.816c-0.319-0.99-0.878-1.92-1.716-2.758
				c-23.297-27.632-53.824-48.026-87.638-59.681c-0.805-0.28-1.614-0.552-2.423-0.822c-0.577-0.191-1.154-0.381-1.733-0.567
				c-11.439-3.704-23.24-6.39-35.281-7.991c-0.306-0.041-0.614-0.075-0.921-0.115c-1.28-0.164-2.561-0.328-3.847-0.468
				c-5.512-0.615-11.062-1.016-16.637-1.183c-0.296,0-0.579,0.014-0.853,0.037v-8.57h7.68c11.316,0,21.287-6.676,25.218-17.067
				h120.702c5.12,0,8.533-3.413,8.533-8.533S371.053,127,365.933,127h-120.94c-1.01-2.719-2.487-5.332-4.5-7.68
				c-5.12-5.973-11.947-9.387-19.627-9.387h-49.493c-17.92,0-33.28,10.24-40.96,26.453c-5.401,12.828-4.903,26.717,1.025,38.723
				c-14.661,7.154-25.502,20.765-28.906,37.223h-9.666v-153.6c0-5.12-3.413-8.533-8.533-8.533c-5.12,0-8.533,3.413-8.533,8.533
				v154.026c-14.596,2.413-25.6,14.975-25.6,30.294v29.616C21.045,276.744-1,301.422-1,331.8c0,2.05,0.102,4.073,0.299,6.067
				C-0.893,338.635-1,339.457-1,340.333v24.747c0,52.907,42.667,94.72,94.72,94.72h322.56c52.053,0,94.72-41.813,94.72-94.72
				v-24.747c0-0.809-0.117-1.569-0.317-2.286C510.891,335.996,511,333.912,511,331.8z M334.36,237.933h-59.733
				c-28.16,0-52.053-22.187-53.76-50.347C263.533,191,303.64,208.92,334.36,237.933z M148.333,169.667
				c-5.12-7.68-5.973-17.067-1.707-26.453C150.893,132.973,160.28,127,171.373,127h49.493c2.56,0,5.12,1.707,6.827,3.413
				s1.707,4.267,1.707,6.827c-0.853,3.413-5.12,6.827-9.387,6.827H203.8c-5.12,0-8.533,3.413-8.533,8.533v17.067H155.16H148.333z
				 M154.307,186.733H203.8h0.918C206.058,224.788,237.085,255,275.48,255h74.861l14.739,17.067H118.467v-51.2
				c0-1.062-0.154-2.044-0.433-2.944C120.761,200.117,136.476,186.733,154.307,186.733z M67.267,243.053
				c0-7.68,5.973-13.653,13.653-13.653h20.48v42.667H67.267V243.053z M58.733,289.133h51.2H383h68.267
				c23.893,0,42.667,18.773,42.667,42.667c0,1.702-0.106,3.374-0.291,5.02c-0.24,0.563-0.433,1.163-0.562,1.807
				c-3.304,19.824-20.2,34.849-39.852,35.792c-0.65,0.028-1.303,0.048-1.961,0.048H58.733c-0.679,0-1.353-0.02-2.023-0.05
				c-0.444-0.021-0.885-0.054-1.325-0.088c-0.184-0.014-0.368-0.025-0.551-0.041c-18.815-1.71-34.719-15.695-37.913-35.662
				c-0.111-0.445-0.283-0.889-0.502-1.326c-0.223-1.799-0.351-3.632-0.351-5.5C16.067,307.907,34.84,289.133,58.733,289.133z
				 M449.56,391.533c-3.413,10.24-12.8,17.067-23.893,17.067s-20.48-6.827-23.893-17.067H449.56z M381.293,391.533
				c-3.413,10.24-12.8,17.067-23.893,17.067s-20.48-6.827-23.893-17.067H381.293z M313.027,391.533
				c-3.413,10.24-12.8,17.067-23.893,17.067s-20.48-6.827-23.893-17.067H313.027z M244.76,391.533
				c-3.413,10.24-12.8,17.067-23.893,17.067s-20.48-6.827-23.893-17.067H244.76z M176.493,391.533
				c-3.413,10.24-12.8,17.067-23.893,17.067c-11.093,0-20.48-6.827-23.893-17.067H176.493z M108.227,391.533
				c-3.413,10.24-12.8,17.067-23.893,17.067c-11.093,0-20.48-6.827-23.893-17.067H108.227z M416.28,442.733H93.72
				c-39.179,0-72.403-29.755-76.771-68.051c0.747,0.728,1.515,1.434,2.3,2.121c6.305,5.947,14.198,10.173,22.872,12.531
				c2.983,20.794,20.476,36.332,42.212,36.332c13.653,0,26.453-6.827,34.133-17.067c7.68,10.24,20.48,17.067,34.133,17.067
				c13.653,0,26.453-6.827,34.133-17.067c7.68,10.24,20.48,17.067,34.133,17.067c13.653,0,26.453-6.827,34.133-17.067
				c7.68,10.24,20.48,17.067,34.133,17.067s26.453-6.827,34.133-17.067c7.68,10.24,20.48,17.067,34.133,17.067
				s26.453-6.827,34.133-17.067c7.68,10.24,20.48,17.067,34.133,17.067c21.756,0,39.261-15.567,42.22-36.39
				c5.034-1.415,9.8-3.482,14.229-6.179c3.977-2.376,7.641-5.207,10.935-8.416C488.686,412.978,456.311,442.733,416.28,442.733z"/>
			<path d="M67.267,323.267h375.467c5.12,0,8.533-3.413,8.533-8.533s-3.413-8.533-8.533-8.533H67.267
				c-5.12,0-8.533,3.413-8.533,8.533S62.147,323.267,67.267,323.267z"/>
			<path d="M67.267,357.4h375.467c5.12,0,8.533-3.413,8.533-8.533c0-5.12-3.413-8.533-8.533-8.533H67.267
				c-5.12,0-8.533,3.413-8.533,8.533C58.733,353.987,62.147,357.4,67.267,357.4z"/>
		</g>
	</g>
</g>
<g>
</g>
<g>
</g>
<g>
</g>
<g>
</g>
<g>
</g>
<g>
</g>
<g>
</g>
<g>
</g>
<g>
</g>
<g>
</g>
<g>
</g>
<g>
</g>
<g>
</g>
<g>
</g>
<g>
</g>
</svg>
