<?xml version="1.0" encoding="iso-8859-1"?>
<!-- Generator: Adobe Illustrator 19.0.0, SVG Export Plug-In . SVG Version: 6.00 Build 0)  -->
<svg version="1.1" id="Layer_1" xmlns="http://www.w3.org/2000/svg" xmlns:xlink="http://www.w3.org/1999/xlink" x="0px" y="0px"
	 viewBox="0 0 512 512" style="enable-background:new 0 0 512 512;" xml:space="preserve">
<g>
	<g>
		<path d="M180.423,292.946c-23.055,0-41.81,18.756-41.81,41.81s18.756,41.81,41.81,41.81c23.054,0,41.81-18.756,41.81-41.81
			S203.478,292.946,180.423,292.946z M180.423,360.34c-14.108,0-25.584-11.477-25.584-25.584s11.477-25.584,25.584-25.584
			c14.107,0,25.584,11.477,25.584,25.584S194.531,360.34,180.423,360.34z"/>
	</g>
</g>
<g>
	<g>
		<path d="M511.183,131.468l-11.413-23.481c-1.938-3.989-6.721-5.682-10.739-3.8l-59.197,27.735
			c-1.967,0.922-3.482,2.593-4.206,4.641c-0.725,2.048-0.598,4.3,0.352,6.253l2.16,4.444l-31.001,15.068l-2.16-4.444
			c-0.941-1.935-2.611-3.418-4.645-4.121c-2.034-0.703-4.263-0.57-6.198,0.37l-154.213,74.959l-42.798-72.841
			c-2.269-3.863-7.242-5.153-11.105-2.885c-3.863,2.269-5.155,7.241-2.885,11.105l21.531,36.643l-64.809,31.502
			c-2.806,1.364-4.582,4.217-4.566,7.337l0.201,39.9l-42.256,20.54c-4.029,1.959-5.709,6.813-3.75,10.842l11.412,23.484
			c0.941,1.936,2.611,3.418,4.645,4.121c0.861,0.297,1.758,0.446,2.651,0.446c1.217,0,2.432-0.274,3.547-0.817l4.893-2.379
			c0.043,2.414,0.199,4.802,0.469,7.156H64.546c-2.969,0-5.702,1.623-7.123,4.229l-15.002,27.518H8.113
			c-4.48,0-8.113,3.632-8.113,8.113s3.632,8.113,8.113,8.113h7.377v9.249c0,4.48,3.632,8.113,8.113,8.113s8.113-3.632,8.113-8.113
			v-9.249h15.523c2.969,0,5.702-1.623,7.123-4.23l15.002-27.518h41.505c10.189,28.587,37.515,49.109,69.556,49.109
			c40.707,0,73.825-33.118,73.825-73.825c0-23.043-10.617-43.646-27.21-57.195l9.757-4.742l19.892,33.855
			c1.511,2.572,4.22,4.005,7.002,4.005c1.396,0,2.811-0.36,4.102-1.12c3.863-2.269,5.156-7.241,2.885-11.105l-19.243-32.75
			l151.207-73.493c4.029-1.959,5.708-6.813,3.75-10.843l-2.16-4.446l31.002-15.068l2.16,4.443c1.402,2.885,4.291,4.568,7.302,4.568
			c1.153,0,2.325-0.247,3.437-0.768l59.197-27.735c1.967-0.922,3.482-2.593,4.206-4.641
			C512.26,135.673,512.133,133.42,511.183,131.468z M202.91,215.146l12.374,21.06l-73.607,35.778l-0.136-27.008L202.91,215.146z
			 M108.547,317.118l-6.605,3.212l-4.319-8.89l15.695-7.629C111.271,307.889,109.671,312.325,108.547,317.118z M238.023,334.755
			c0,31.76-25.839,57.599-57.599,57.599c-31.76,0-57.599-25.839-57.599-57.599s25.839-57.599,57.599-57.599
			C212.184,277.156,238.023,302.995,238.023,334.755z M210.711,267.456c-4.234-1.914-8.676-3.437-13.288-4.528l26.107-12.69
			l5.021,8.547L210.711,267.456z M243.189,251.67l-5.021-8.547l145.765-70.851l4.32,8.89L243.189,251.67z M448.49,152.01
			l-4.319-8.885l44.502-20.851l4.319,8.885L448.49,152.01z"/>
	</g>
</g>
<g>
</g>
<g>
</g>
<g>
</g>
<g>
</g>
<g>
</g>
<g>
</g>
<g>
</g>
<g>
</g>
<g>
</g>
<g>
</g>
<g>
</g>
<g>
</g>
<g>
</g>
<g>
</g>
<g>
</g>
</svg>
