<?xml version="1.0" encoding="iso-8859-1"?>
<!-- Generator: Adobe Illustrator 18.0.0, SVG Export Plug-In . SVG Version: 6.00 Build 0)  -->
<!DOCTYPE svg PUBLIC "-//W3C//DTD SVG 1.1//EN" "http://www.w3.org/Graphics/SVG/1.1/DTD/svg11.dtd">
<svg version="1.1" id="Capa_1" xmlns="http://www.w3.org/2000/svg" xmlns:xlink="http://www.w3.org/1999/xlink" x="0px" y="0px"
	 viewBox="0 0 459.91 459.91" style="enable-background:new 0 0 459.91 459.91;" xml:space="preserve">
<g>
	<path d="M458.668,221.808c-1.388-2.102-3.739-3.366-6.258-3.366h-98.417c-4.142,0-7.5,3.358-7.5,7.5
		c0,9.068-6.764,16.567-15.507,17.766l-10.412-42.506h21.71c4.142,0,7.5-3.358,7.5-7.5s-3.358-7.5-7.5-7.5h-77.996v-79.496
		c0-4.142-3.358-7.5-7.5-7.5H219.29c-4.142,0-7.5,3.358-7.5,7.5v79.496h-13.499v-79.496c0-4.142-3.358-7.5-7.5-7.5h-37.499
		c-4.142,0-7.5,3.358-7.5,7.5v79.496h-13.499v-79.496c0-4.142-3.358-7.5-7.5-7.5H87.296c-4.142,0-7.5,3.358-7.5,7.5v79.496H61.145
		c-3.296,0-6.206,2.152-7.171,5.303l-16.048,52.389H7.5c-2.145,0-4.187,0.918-5.61,2.523c-1.423,1.604-2.092,3.741-1.836,5.871
		l12.217,101.81c0.453,3.77,3.65,6.606,7.447,6.606h378.394c3.004,0,5.719-1.793,6.898-4.557l54.299-127.262
		C460.297,226.568,460.056,223.91,458.668,221.808z M249.288,114.206v10.496H226.79v-10.496H249.288z M226.79,139.702h22.498v46.499
		H226.79V139.702z M183.291,114.206v10.496h-22.499v-10.496H183.291z M160.793,139.702h22.499v46.499h-22.499V139.702z
		 M117.294,114.206v10.496H94.796v-10.496H117.294z M94.796,139.702h22.498v46.499H94.796V139.702z M66.692,201.202H305.13
		l10.458,42.692H53.614L66.692,201.202z M393.157,345.704H26.371l-2.945-24.538h380.2L393.157,345.704z M410.027,306.166h-388.4
		l-5.673-47.272h312.587c15.59,0,28.687-10.884,32.091-25.452h80.423L410.027,306.166z"/>
	<path d="M297.304,215.048h-18.659c-4.142,0-7.5,3.358-7.5,7.5s3.358,7.5,7.5,7.5h18.659c4.142,0,7.5-3.358,7.5-7.5
		S301.446,215.048,297.304,215.048z"/>
	<path d="M265.568,219.674c-1.783-4.225-7.033-5.902-10.934-3.458c-4.043,2.533-4.575,8.262-1.296,11.638
		c2.59,2.516,6.644,2.911,9.621,0.824C265.802,226.685,266.892,222.879,265.568,219.674
		C265.378,219.224,265.758,220.134,265.568,219.674z"/>
	<path d="M237.645,215.048h-153.5c-4.142,0-7.5,3.358-7.5,7.5s3.358,7.5,7.5,7.5h153.5c4.142,0,7.5-3.358,7.5-7.5
		S241.787,215.048,237.645,215.048z"/>
	<path d="M377.902,298.382c11.438,0,20.744-9.306,20.744-20.744c0-11.438-9.306-20.744-20.744-20.744s-20.744,9.306-20.744,20.744
		C357.158,289.077,366.464,298.382,377.902,298.382z M377.902,271.895c3.167,0,5.744,2.577,5.744,5.744
		c0,3.167-2.577,5.744-5.744,5.744s-5.744-2.577-5.744-5.744C372.158,274.472,374.735,271.895,377.902,271.895z"/>
</g>
<g>
</g>
<g>
</g>
<g>
</g>
<g>
</g>
<g>
</g>
<g>
</g>
<g>
</g>
<g>
</g>
<g>
</g>
<g>
</g>
<g>
</g>
<g>
</g>
<g>
</g>
<g>
</g>
<g>
</g>
</svg>
