<?xml version="1.0" encoding="iso-8859-1"?>
<!-- Generator: Adobe Illustrator 19.0.0, SVG Export Plug-In . SVG Version: 6.00 Build 0)  -->
<svg version="1.1" id="Layer_1" xmlns="http://www.w3.org/2000/svg" xmlns:xlink="http://www.w3.org/1999/xlink" x="0px" y="0px"
	 viewBox="0 0 199.5 199.5" style="enable-background:new 0 0 199.5 199.5;" xml:space="preserve">
<g>
	<g>
		<g>
			<path d="M166.238,91H122.5V70H175v7h7V66.5V56V42h-7v10.5h-52.5v-7c0-1.934-1.567-3.5-3.5-3.5H55.99C40.556,42,28,54.561,28,70
				v21.457C12.157,93.991,0,107.71,0,124.25c0,18.334,14.921,33.25,33.262,33.25h132.976c18.341,0,33.262-14.916,33.262-33.25
				S184.579,91,166.238,91z M122.5,59.5H175V63h-52.5V59.5z M35,70c0-11.58,9.416-21,20.99-21h59.51v7v10.5V91H35V70z
				 M166.238,150.5H33.262C18.782,150.5,7,138.725,7,124.25C7,109.775,18.782,98,33.262,98H119h47.238
				c14.48,0,26.262,11.775,26.262,26.25S180.718,150.5,166.238,150.5z"/>
			<path d="M166.25,101.5c-12.544,0-22.75,10.206-22.75,22.75S153.706,147,166.25,147S189,136.794,189,124.25
				S178.794,101.5,166.25,101.5z M166.25,140c-8.685,0-15.75-7.065-15.75-15.75s7.065-15.75,15.75-15.75S182,115.565,182,124.25
				S174.935,140,166.25,140z"/>
			<path d="M120.75,105c-10.614,0-19.25,8.637-19.25,19.25s8.636,19.25,19.25,19.25S140,134.863,140,124.25
				C140,113.637,131.364,105,120.75,105z M120.75,136.5c-6.754,0-12.25-5.496-12.25-12.25c0-6.754,5.496-12.25,12.25-12.25
				c6.754,0,12.25,5.496,12.25,12.25C133,131.004,127.504,136.5,120.75,136.5z"/>
			<path d="M78.75,105c-10.614,0-19.25,8.637-19.25,19.25s8.636,19.25,19.25,19.25S98,134.863,98,124.25
				C98,113.637,89.364,105,78.75,105z M78.75,136.5c-6.754,0-12.25-5.496-12.25-12.25c0-6.754,5.496-12.25,12.25-12.25
				c6.754,0,12.25,5.496,12.25,12.25C91,131.004,85.504,136.5,78.75,136.5z"/>
			<path d="M33.25,101.5c-12.544,0-22.75,10.206-22.75,22.75S20.706,147,33.25,147S56,136.794,56,124.25S45.794,101.5,33.25,101.5z
				 M33.25,140c-8.685,0-15.75-7.065-15.75-15.75s7.065-15.75,15.75-15.75S49,115.565,49,124.25S41.935,140,33.25,140z"/>
		</g>
	</g>
</g>
<g>
</g>
<g>
</g>
<g>
</g>
<g>
</g>
<g>
</g>
<g>
</g>
<g>
</g>
<g>
</g>
<g>
</g>
<g>
</g>
<g>
</g>
<g>
</g>
<g>
</g>
<g>
</g>
<g>
</g>
</svg>
