<?xml version="1.0" encoding="iso-8859-1"?>
<!-- Generator: Adobe Illustrator 19.0.0, SVG Export Plug-In . SVG Version: 6.00 Build 0)  -->
<svg version="1.1" id="Layer_1" xmlns="http://www.w3.org/2000/svg" xmlns:xlink="http://www.w3.org/1999/xlink" x="0px" y="0px"
	 viewBox="0 0 511.985 511.985" style="enable-background:new 0 0 511.985 511.985;" xml:space="preserve">
<g>
	<g>
		<path d="M492.629,103.143l-102.409-25.6c-2.057-0.512-4.139-0.768-6.212-0.768c-6.707,0-13.244,2.637-18.099,7.501l-85.931,85.931
			c-0.316-0.845-0.674-1.664-1.075-2.475l-25.6-51.2c-4.335-8.67-13.201-14.157-22.895-14.157H153.6c-14.14,0-25.6,11.46-25.6,25.6
			v76.834H25.6c-14.14,0-25.6,11.46-25.6,25.6v51.2c0,14.14,11.46,25.6,25.6,25.6h102.409v25.6h-51.2
			c-28.237,0-51.2,22.972-51.2,51.2c0,28.237,22.972,51.2,51.2,51.2h256.017c28.237,0,51.2-22.972,51.2-51.2
			c0-28.237-22.972-51.2-51.2-51.2H230.417v-25.6h25.6c7.663,0,14.925-3.43,19.78-9.353l127.036-154.684l76.476,9.719
			l-26.377,98.517l-59.409-13.687l6.554-23.654c1.903-6.81-2.099-13.867-8.9-15.753c-6.955-1.826-13.875,2.116-15.753,8.926
			c0,0-22.639,67.038-13.978,88.832c4.173,10.547,12.279,18.5,23.373,22.989c16.205,6.554,30.003,9.822,41.626,9.822
			c7.825,0,14.703-1.485,20.651-4.454c9.626-4.813,16.375-13.466,19.473-25.011l45.201-168.132
			C513.434,118.486,505.301,106.309,492.629,103.143z M332.826,358.418c14.14,0,25.6,11.46,25.6,25.6s-11.46,25.6-25.6,25.6H76.809
			c-14.14,0-25.6-11.46-25.6-25.6s11.46-25.6,25.6-25.6H332.826z M153.609,332.818v-25.6h51.2v25.6H153.609z M256.017,281.61H25.6
			v-51.2h128.009h102.409V281.61z M256.017,204.801H153.609v-76.809h76.809l25.6,51.208V204.801z M441.839,292.814
			c-1.527,5.777-4.104,7.697-6.153,8.73c-4.301,2.15-15.454,4.224-41.25-6.187c-4.651-1.886-7.552-4.642-9.173-8.661
			c-2.85-7.117-1.425-16.862,0.623-24.44l60.425,13.918L441.839,292.814z M485.99,127.95l-93.961-11.947L281.626,250.437V204.81
			l102.409-102.409l101.973,25.498L485.99,127.95z"/>
	</g>
</g>
<g>
</g>
<g>
</g>
<g>
</g>
<g>
</g>
<g>
</g>
<g>
</g>
<g>
</g>
<g>
</g>
<g>
</g>
<g>
</g>
<g>
</g>
<g>
</g>
<g>
</g>
<g>
</g>
<g>
</g>
</svg>
