<?xml version="1.0" encoding="iso-8859-1"?>
<!-- Generator: Adobe Illustrator 19.0.0, SVG Export Plug-In . SVG Version: 6.00 Build 0)  -->
<svg version="1.1" id="Layer_1" xmlns="http://www.w3.org/2000/svg" xmlns:xlink="http://www.w3.org/1999/xlink" x="0px" y="0px"
	 viewBox="0 0 512 512" style="enable-background:new 0 0 512 512;" xml:space="preserve">
<g>
	<g>
		<path d="M512,228.19c0-4.966-4.025-8.993-8.993-8.993h-61.414c-7.801-7.999-18.682-12.979-30.711-12.979h-67.75
			c-4.968,0-8.993,4.026-8.993,8.993v40.888h-24.901c-3.35,0-6.422,1.862-7.972,4.833l-20.5,39.293h-52.704v-60.673h4.685
			c4.966,0,8.993-4.026,8.993-8.993c0-4.966-4.026-8.993-8.993-8.993h-13.678h-12.717V191.68h9.71c4.966,0,8.993-4.026,8.993-8.993
			c0-4.966-4.026-8.993-8.993-8.993h-78.169v-13.999h22.088c14.143,0,25.65-11.506,25.65-25.65v-31.557
			c0-14.143-11.506-25.65-25.65-25.65h-22.088v-6.432c0-4.966-4.026-8.993-8.993-8.993c-4.966,0-8.993,4.026-8.993,8.993v6.432
			H97.819c-14.143,0-25.65,11.506-25.65,25.65v31.555c0,14.143,11.506,25.65,25.65,25.65h22.088v13.999H41.738
			c-4.966,0-8.993,4.026-8.993,8.993c0,4.966,4.026,8.993,8.993,8.993h9.71v29.886H38.729H25.053c-4.966,0-8.993,4.026-8.993,8.993
			s4.026,8.993,8.993,8.993h4.684v60.673H8.993c-2.71,0-5.275,1.222-6.982,3.325s-2.375,4.866-1.819,7.517L28.01,443.442
			c0.875,4.163,4.547,7.144,8.801,7.144h391.375c3.701,0,7.025-2.269,8.374-5.716l69.067-176.503
			c1.083-2.767,0.728-5.892-0.947-8.347c-1.675-2.454-4.456-3.923-7.427-3.923h-43.448v-6.957c0-4.15-0.603-8.161-1.707-11.959
			h50.909C507.975,237.183,512,233.156,512,228.19z M137.892,94.825h22.088c4.225,0,7.664,3.438,7.664,7.664v31.555
			c0,4.225-3.438,7.664-7.664,7.664h-22.088V94.825z M352.124,224.204h58.757c13.751,0,24.938,11.187,24.938,24.938v6.957h-83.695
			V224.204z M97.819,141.708c-4.225,0-7.664-3.438-7.664-7.664v-31.555c0-4.225,3.438-7.664,7.664-7.664h22.088v46.884H97.819z
			 M69.434,191.68h118.932v29.886H69.434V191.68z M47.722,239.552h162.353v12.602H73.169c-4.966,0-8.993,4.026-8.993,8.993
			c0,4.966,4.026,8.993,8.993,8.993h136.908v30.085H47.722V239.552z M422.048,432.602H44.111l-6.795-32.336h397.386L422.048,432.602
			z M484.078,274.085L441.739,382.28H33.536l-13.464-64.069h266.145c3.35,0,6.422-1.862,7.973-4.833l20.501-39.293H484.078z"/>
	</g>
</g>
<g>
	<g>
		<path d="M411.239,336.676c-4.968,0-8.993,4.026-8.993,8.993c0,2.975-2.421,5.396-5.396,5.396c-2.975,0-5.397-2.421-5.397-5.396
			v-35.492c0-4.966-4.025-8.993-8.993-8.993c-4.968,0-8.993,4.026-8.993,8.993v35.492c0,2.975-2.421,5.396-5.396,5.396
			s-5.396-2.421-5.396-5.396c0-4.966-4.025-8.993-8.993-8.993c-4.968,0-8.993,4.026-8.993,8.993
			c0,12.892,10.489,23.382,23.382,23.382c5.428,0,10.416-1.875,14.389-4.99c3.972,3.115,8.962,4.99,14.39,4.99
			c12.892,0,23.382-10.489,23.382-23.382C420.232,340.703,416.207,336.676,411.239,336.676z"/>
	</g>
</g>
<g>
</g>
<g>
</g>
<g>
</g>
<g>
</g>
<g>
</g>
<g>
</g>
<g>
</g>
<g>
</g>
<g>
</g>
<g>
</g>
<g>
</g>
<g>
</g>
<g>
</g>
<g>
</g>
<g>
</g>
</svg>
