<?xml version="1.0" encoding="iso-8859-1"?>
<!-- Generator: Adobe Illustrator 19.0.0, SVG Export Plug-In . SVG Version: 6.00 Build 0)  -->
<svg version="1.1" id="Layer_1" xmlns="http://www.w3.org/2000/svg" xmlns:xlink="http://www.w3.org/1999/xlink" x="0px" y="0px"
	 viewBox="0 0 512 512" style="enable-background:new 0 0 512 512;" xml:space="preserve">
<g transform="translate(1 1)">
	<g>
		<g>
			<path d="M179.053,180.488c-1.707-6.827-8.533-11.947-16.213-11.947H101.4c-9.387,0-17.067,7.68-17.067,17.067v42.667
				c0,9.387,7.68,17.067,17.067,17.067h74.24c5.12,0,10.24-2.56,12.8-6.827c3.413-5.12,4.267-10.24,2.56-15.36L179.053,180.488z
				 M101.4,228.275v-42.667h61.44l12.8,42.667H101.4z"/>
			<path d="M118.467,424.541c-5.12,0-8.533,3.413-8.533,8.533s3.413,8.533,8.533,8.533s8.533-3.413,8.533-8.533
				S123.587,424.541,118.467,424.541z"/>
			<path d="M161.133,424.541c-5.12,0-8.533,3.413-8.533,8.533s3.413,8.533,8.533,8.533s8.533-3.413,8.533-8.533
				S166.253,424.541,161.133,424.541z"/>
			<path d="M203.8,424.541c-5.12,0-8.533,3.413-8.533,8.533s3.413,8.533,8.533,8.533c5.12,0,8.533-3.413,8.533-8.533
				S208.92,424.541,203.8,424.541z"/>
			<path d="M246.467,424.541c-5.12,0-8.533,3.413-8.533,8.533s3.413,8.533,8.533,8.533s8.533-3.413,8.533-8.533
				S251.587,424.541,246.467,424.541z"/>
			<path d="M289.133,424.541c-5.12,0-8.533,3.413-8.533,8.533s3.413,8.533,8.533,8.533s8.533-3.413,8.533-8.533
				S294.253,424.541,289.133,424.541z"/>
			<path d="M468.333,194.871V83.208c0-0.324-0.014-0.641-0.041-0.952c1.548-4.528,2.168-9.364,1.748-14.408
				c-0.853-10.24-5.973-19.627-13.653-25.6c-14.507-11.947-35.84-10.24-48.64,3.413L242.324,220.721l-17.19-76.926
				c-3.413-15.36-17.067-26.453-33.28-26.453h-22.187v-17.067c0-18.773-15.36-34.133-34.133-34.133
				c-18.773,0-34.133,15.36-34.133,34.133v17.067H75.8c-18.773,0-34.133,15.36-34.133,34.133v128v17.067v93.867
				C17.773,390.408-1,409.181-1,433.075s18.773,42.667,42.667,42.667h324.267c23.893,0,42.667-18.773,42.667-42.667
				s-18.773-42.667-42.667-42.667h-11.545L383,309.341c3.413-5.973,2.56-13.653-0.853-19.627c-4.267-6.827-10.24-10.24-17.92-10.24
				h-80.774l167.814-174.556v89.953c-24.134,4.095-42.667,25.217-42.667,50.47c0,28.16,23.04,51.2,51.2,51.2
				c28.16,0,51.2-23.04,51.2-51.2C511,220.088,492.467,198.966,468.333,194.871z M118.467,100.275
				c0-9.387,7.68-17.067,17.067-17.067s17.067,7.68,17.067,17.067v17.067h-34.133V100.275z M58.733,151.475
				c0-9.387,7.68-17.067,17.067-17.067h25.6h68.267H191c8.533,0,15.36,5.973,17.067,13.653l29.867,131.413h-179.2V151.475z
				 M331.597,458.675H76.003c5.25-7.09,8.33-15.924,8.33-25.6s-3.08-18.51-8.33-25.6h255.594c-5.25,7.09-8.33,15.924-8.33,25.6
				S326.347,451.585,331.597,458.675z M16.067,433.075c0-14.507,11.093-25.6,25.6-25.6c14.507,0,25.6,11.093,25.6,25.6
				s-11.093,25.6-25.6,25.6C27.16,458.675,16.067,447.581,16.067,433.075z M391.533,433.075c0,14.507-11.093,25.6-25.6,25.6
				s-25.6-11.093-25.6-25.6s11.093-25.6,25.6-25.6S391.533,418.568,391.533,433.075z M367.64,299.101c0,0,0.853,1.707,0,3.413
				l-30.72,86.187c-0.853,0.853-1.707,1.707-3.413,1.707H58.733v-25.6h187.733c5.12,0,8.533-3.413,8.533-8.533
				c0-5.12-3.413-8.533-8.533-8.533H58.733v-17.067h136.533c5.12,0,8.533-3.413,8.533-8.533s-3.413-8.533-8.533-8.533H58.733
				v-16.213h305.493C365.933,297.395,367.64,298.248,367.64,299.101z M260.12,279.475h-4.267l-6.112-25.56l-3.1-13.875
				L420.547,58.461c6.827-6.827,17.92-7.68,25.6-1.707c4.267,2.56,6.827,7.68,6.827,12.8s-1.707,10.24-5.12,13.653L260.12,279.475z
				 M459.8,279.475c-18.773,0-34.133-15.36-34.133-34.133c0-18.773,15.36-34.133,34.133-34.133c18.773,0,34.133,15.36,34.133,34.133
				C493.933,264.115,478.573,279.475,459.8,279.475z"/>
		</g>
	</g>
</g>
<g>
</g>
<g>
</g>
<g>
</g>
<g>
</g>
<g>
</g>
<g>
</g>
<g>
</g>
<g>
</g>
<g>
</g>
<g>
</g>
<g>
</g>
<g>
</g>
<g>
</g>
<g>
</g>
<g>
</g>
</svg>
