<?xml version="1.0" encoding="iso-8859-1"?>
<!-- Generator: Adobe Illustrator 19.0.0, SVG Export Plug-In . SVG Version: 6.00 Build 0)  -->
<svg version="1.1" id="Layer_1" xmlns="http://www.w3.org/2000/svg" xmlns:xlink="http://www.w3.org/1999/xlink" x="0px" y="0px"
	 viewBox="0 0 511.999 511.999" style="enable-background:new 0 0 511.999 511.999;" xml:space="preserve">
<g>
	<g>
		<path d="M499.985,251.415c-14.243-7.173-26.809-12.23-37.389-15.047l-18.174-13.374c-15.05-11.073-33.502-15.572-51.949-12.676
			c-26.635,4.183-73.283,11.01-121.349,15.724l-68.688-45.992c-1.339-0.898-2.918-1.376-4.53-1.376h-61.78
			c-4.497,0-8.141,3.645-8.141,8.141s3.644,8.141,8.141,8.141h13.265l16.332,36.027c-5.784-0.207-11.289-0.539-16.447-1.014
			l-70.798-72.274c-1.531-1.563-3.628-2.443-5.815-2.443H36.232H15.024c-4.497,0-8.141,3.645-8.141,8.141s3.644,8.141,8.141,8.141
			h15.092L47.4,231.159H36.01c-4.497,0-8.141,3.645-8.141,8.141v34.439L2.52,297.934c-2.406,2.298-3.173,5.828-1.935,8.917
			c1.237,3.088,4.229,5.113,7.557,5.113h30.364c1.13,0,2.247-0.236,3.28-0.69l58.239-25.642c23.066,3.122,46.718,5.902,70.476,8.279
			l-21.106,46.556h-17.606c-4.497,0-8.141,3.645-8.141,8.141s3.644,8.141,8.141,8.141h66.122c1.613,0,3.189-0.479,4.53-1.376
			l79.87-53.485c21.045,0.853,41.375,1.285,60.959,1.284c56.611,0,106.993-3.563,150.331-10.652
			c9.546-1.563,16.663-8.748,18.131-18.304C513.194,264.703,508.585,255.754,499.985,251.415z M394.998,226.402
			c14.131-2.219,28.252,1.229,39.774,9.705l4.973,3.66c-16.017,2.213-41.738,2.615-68.631-9.742
			C380.155,228.7,388.221,227.466,394.998,226.402z M195.432,194.954v0.001l49.861,33.385c-21.463,1.702-42.542,2.809-61.577,2.897
			l-16.448-36.283H195.432z M44.151,247.44h5.944v5.083l-5.944,5.674V247.44z M36.793,295.681h-8.331l32.914-31.417l43.143,1.598
			L36.793,295.681z M195.436,340.467h-28.164l31.332-69.113h100.041L195.436,340.467z M495.639,271.743
			c-0.147,0.95-0.914,4.093-4.669,4.709c-51.861,8.483-114.169,11.809-185.496,9.923l24.489-16.399
			c2.979-1.994,4.302-5.702,3.26-9.132s-4.205-5.774-7.789-5.774H193.356c-3.195,0-6.095,1.869-7.415,4.779l-8.34,18.397
			c-16.322-1.59-32.613-3.368-48.713-5.325l14.614-6.435c3.471-1.529,5.427-5.253,4.715-8.979c-0.711-3.726-3.903-6.467-7.695-6.607
			l-74.146-2.745v-8.857c0-0.767-0.109-1.531-0.322-2.266l-18.986-65.5h22.172l70.475,71.943c1.325,1.352,3.08,2.2,4.962,2.399
			c51.551,5.429,138.11-3.754,200.009-12.126c27.596,18.727,55.541,23.62,77.211,23.62c18.111,0,31.829-3.415,37.308-5.031
			c9.335,2.566,20.56,7.123,33.451,13.616C495.901,267.59,495.822,270.548,495.639,271.743z"/>
	</g>
</g>
<g>
</g>
<g>
</g>
<g>
</g>
<g>
</g>
<g>
</g>
<g>
</g>
<g>
</g>
<g>
</g>
<g>
</g>
<g>
</g>
<g>
</g>
<g>
</g>
<g>
</g>
<g>
</g>
<g>
</g>
</svg>
