<?xml version="1.0" encoding="iso-8859-1"?>
<!-- Generator: Adobe Illustrator 19.0.0, SVG Export Plug-In . SVG Version: 6.00 Build 0)  -->
<svg version="1.1" id="Layer_1" xmlns="http://www.w3.org/2000/svg" xmlns:xlink="http://www.w3.org/1999/xlink" x="0px" y="0px"
	 viewBox="0 0 512 512" style="enable-background:new 0 0 512 512;" xml:space="preserve">
<g>
	<g>
		<path d="M499.776,294.605l-42.683-18.059c-3.509-1.483-6.355-4.189-8.016-7.616l-8.479-17.487
			c-4.605-9.498-13.575-16.184-23.99-17.886l-94.72-15.477l-9.294-28.274c-1.131-3.441-4.344-5.766-7.965-5.766h-6.147v-12.313
			c67.675-0.423,135.331-5.941,202.532-16.584c4.574-0.724,7.695-5.019,6.969-9.593c-0.723-4.573-5.021-7.697-9.592-6.969
			c-66.332,10.506-133.112,15.955-199.909,16.377v-2.779c0-4.63-3.753-8.384-8.384-8.384s-8.384,3.754-8.384,8.384v2.779
			c-66.798-0.421-133.577-5.871-199.909-16.377c-4.579-0.723-8.868,2.397-9.592,6.969c-0.724,4.573,2.396,8.868,6.969,9.593
			c67.201,10.644,134.857,16.161,202.532,16.584v12.313h-10.62c-2.904,0-5.601,1.503-7.129,3.971l-13.804,22.299l-73.189,60.274
			L99.923,282.91l-57.314-64.743c-1.591-1.798-3.877-2.827-6.277-2.827H8.384c-2.779,0-5.379,1.377-6.939,3.679
			c-1.561,2.301-1.879,5.224-0.851,7.807l41.773,104.92c1.168,2.935,3.886,4.962,7.031,5.249l38.716,3.517
			c1.606,0.146,3.213-0.173,4.636-0.917l23.563-12.294l112.857,9.278v17.383c0,4.346,3.322,7.972,7.652,8.352l127.441,11.179
			c0.249,0.022,0.496,0.032,0.742,0.032c4.299,0,7.959-3.289,8.343-7.652c0.404-4.612-3.007-8.681-7.62-9.084l-119.79-10.507v-8.324
			l194.388,15.977c0.229,0.019,0.458,0.028,0.686,0.028c1.047,0,2.087-0.197,3.065-0.581l55.218-21.692
			c7.717-3.032,12.704-10.348,12.704-18.64C512,304.987,507.202,297.748,499.776,294.605z M390.43,246.272l23.473,3.836
			c5.041,0.823,9.379,4.058,11.607,8.653l6.298,12.99l-47.638-8.649L390.43,246.272z M275.762,200.81h22.797l4.675,14.223
			l-32.945-5.383L275.762,200.81z M493.165,316.081l-53.404,20.981l-324.488-26.67c-0.229-0.019-0.458-0.028-0.686-0.028
			c-1.347,0-2.679,0.325-3.878,0.951L87.179,323.59l-31.137-2.829L20.746,232.11h11.81l57.866,65.366
			c1.902,2.149,4.77,3.174,7.602,2.722l83.843-13.415c1.472-0.235,2.855-0.86,4.005-1.807l73.085-60.188l114.609,18.727
			l-8.601,23.122c-0.865,2.326-0.656,4.914,0.572,7.072c1.227,2.156,3.347,3.658,5.789,4.102l80.093,14.543l41.825,17.695
			c1.208,0.511,1.989,1.689,1.989,3C495.232,314.398,494.42,315.588,493.165,316.081z"/>
	</g>
</g>
<g>
	<g>
		<path d="M359.148,288.05l-108.437-11.179c-4.617-0.476-8.725,2.874-9.2,7.48c-0.474,4.606,2.874,8.725,7.48,9.2l108.437,11.179
			c0.293,0.03,0.582,0.045,0.87,0.045c4.245,0,7.886-3.212,8.331-7.525C367.103,292.645,363.754,288.525,359.148,288.05z"/>
	</g>
</g>
<g>
</g>
<g>
</g>
<g>
</g>
<g>
</g>
<g>
</g>
<g>
</g>
<g>
</g>
<g>
</g>
<g>
</g>
<g>
</g>
<g>
</g>
<g>
</g>
<g>
</g>
<g>
</g>
<g>
</g>
</svg>
