<?xml version="1.0" encoding="iso-8859-1"?>
<!-- Generator: Adobe Illustrator 19.0.0, SVG Export Plug-In . SVG Version: 6.00 Build 0)  -->
<svg version="1.1" id="Layer_1" xmlns="http://www.w3.org/2000/svg" xmlns:xlink="http://www.w3.org/1999/xlink" x="0px" y="0px"
	 viewBox="0 0 511.999 511.999" style="enable-background:new 0 0 511.999 511.999;" xml:space="preserve">
<g>
	<g>
		<path d="M508.165,271.468l-26.05-17.646c-1.444-0.979-3.149-1.502-4.895-1.502h-21.815l-64.182-41.234
			c-1.407-0.904-3.044-1.385-4.718-1.385h-73.308l-4.581-20.405l58.829-12.336c32.265-6.765,63.147-20.947,89.307-41.008
			c2.663-2.042,3.92-5.432,3.229-8.718c-0.689-3.285-3.2-5.885-6.46-6.686c-32.016-7.861-65.994-8.441-98.259-1.676l-59.649,12.508
			l-0.09-0.401c-1.056-4.704-5.723-7.659-10.428-6.604c-4.704,1.056-7.661,5.725-6.606,10.427l0.036,0.162l-130.87,27.443
			l-0.62-2.204c-1.306-4.64-6.123-7.347-10.765-6.039c-4.64,1.305-7.345,6.125-6.039,10.765l0.3,1.07l-57.614,12.083
			c-2.266,0.475-4.25,1.831-5.516,3.768c-1.266,1.939-1.711,4.3-1.235,6.566l8.413,40.118v23.787h-7.525
			c-16.474,0-32.506,3.291-47.647,9.78l-14.119,6.05c-4.432,1.899-6.483,7.03-4.584,11.461c1.899,4.43,7.031,6.486,11.461,4.584
			l14.119-6.05c12.957-5.552,26.675-8.369,40.771-8.369h407.486l23.833,16.144c1.5,1.016,3.203,1.504,4.887,1.504
			c2.798,0,5.548-1.343,7.234-3.835C513.199,279.598,512.157,274.171,508.165,271.468z M429.37,133.654
			c-17.626,10.887-36.951,19.116-57.002,24.242l-4.937-23.542C387.853,130.994,408.856,130.764,429.37,133.654z M350.307,137.749
			l5.016,23.918l-50.528,10.595l-5.353-23.846L350.307,137.749z M295.307,209.701H211.31l80.222-16.822L295.307,209.701z
			 M282.355,151.998l5.353,23.847l-128.68,26.984l-6.631-23.578L282.355,151.998z M85.047,193.375l50.228-10.533l6.631,23.578
			l-51.843,10.872L85.047,193.375z M92.039,252.321v-17.609l36.024-7.554h255.881l39.165,25.163H92.039z"/>
	</g>
</g>
<g>
	<g>
		<path d="M468.819,289.603c-0.006,0-0.012,0-0.017,0l-423.116,0.84c-20.095,0.01-36.441,16.361-36.441,36.458
			c0,15.491,9.716,28.747,23.371,34.018l65.381,31.486c0.165,0.079,0.332,0.154,0.502,0.222c8.458,3.437,17.36,5.18,26.461,5.18
			h284.224c15.812,0,30.804-6.031,42.212-16.979l35.761-34.323c7.914-5.709,13.08-15.003,13.08-25.485
			C500.235,303.696,486.141,289.603,468.819,289.603z M45.703,345.901c-10.477,0-19.001-8.523-19.001-19.001
			S35.225,307.9,45.703,307.9s19.001,8.523,19.001,19.001S56.18,345.901,45.703,345.901z M125.014,380.351h-0.056
			c-0.035,0-0.07-0.002-0.106-0.002c-13.409-0.058-24.302-10.979-24.302-24.402c0-13.458,10.949-24.408,24.408-24.408
			s24.408,10.95,24.408,24.408C149.366,369.386,138.447,380.319,125.014,380.351z M250.391,380.351h-0.113
			c-13.433-0.031-24.352-10.965-24.352-24.404c0-13.458,10.949-24.408,24.408-24.408c13.459,0,24.408,10.95,24.408,24.408
			C274.742,369.386,263.824,380.321,250.391,380.351z M375.766,380.351h-0.113c-13.432-0.031-24.352-10.965-24.352-24.404
			c0-13.458,10.949-24.408,24.408-24.408s24.408,10.95,24.408,24.408C400.116,369.386,389.198,380.321,375.766,380.351z
			 M439.306,368.233c-8.127,7.801-18.802,12.101-30.064,12.116c5.229-6.645,8.329-15.024,8.329-24.403
			c0-23.083-18.781-41.864-41.864-41.864c-23.083,0-41.864,18.781-41.864,41.864c0,9.379,3.1,17.759,8.33,24.404h-58.308
			c5.23-6.645,8.33-15.025,8.33-24.404c0-23.083-18.781-41.864-41.864-41.864s-41.864,18.781-41.864,41.864
			c0,9.379,3.1,17.759,8.33,24.404h-58.306c5.23-6.645,8.33-15.025,8.33-24.404c0-23.083-18.781-41.864-41.864-41.864
			s-41.864,18.781-41.864,41.864c0,3.697,0.486,7.236,1.391,10.577l-18.889-9.096c9.962-6.515,16.563-17.761,16.563-30.527
			c0-6.984-1.977-13.512-5.396-19.062l363.894-0.723c-2.08,4.194-3.254,8.913-3.254,13.904c0,13.46,8.511,24.966,20.432,29.43
			L439.306,368.233z M468.819,334.978c-7.697,0-13.959-6.262-13.959-13.959c0-7.697,6.262-13.959,13.959-13.959
			c7.697,0,13.959,6.262,13.959,13.959S476.516,334.978,468.819,334.978z"/>
	</g>
</g>
<g>
</g>
<g>
</g>
<g>
</g>
<g>
</g>
<g>
</g>
<g>
</g>
<g>
</g>
<g>
</g>
<g>
</g>
<g>
</g>
<g>
</g>
<g>
</g>
<g>
</g>
<g>
</g>
<g>
</g>
</svg>
