<?xml version="1.0" encoding="iso-8859-1"?>
<!-- Generator: Adobe Illustrator 19.0.0, SVG Export Plug-In . SVG Version: 6.00 Build 0)  -->
<svg version="1.1" id="Layer_1" xmlns="http://www.w3.org/2000/svg" xmlns:xlink="http://www.w3.org/1999/xlink" x="0px" y="0px"
	 viewBox="0 0 511.999 511.999" style="enable-background:new 0 0 511.999 511.999;" xml:space="preserve">
<g>
	<g>
		<path d="M420.588,225.28c-2.172,0-4.319,0.103-6.453,0.254l-6.282-22.425c6.752-4.208,10.229-12.495,7.976-20.543l-7.21-25.735
			c-2.255-8.047-9.529-13.322-17.487-13.41l-4.97-17.743c-1.901-6.785-7.515-11.886-14.449-13.131l-46.585-8.362
			c-9.979-1.79-19.542,4.85-21.333,14.841c-1.794,9.99,4.852,19.542,14.841,21.334l35.243,6.325l5.114,18.254l-32.41,8.186
			c-3.738-8.141-12.956-12.548-21.806-9.971l-19.602,5.701c-8.177,2.378-13.415,9.942-13.223,18.071l-38.11,9.627L95.413,165.677
			c-9.904-2.214-19.728,4.029-21.937,13.935c-2.209,9.906,4.029,19.728,13.936,21.937l35.05,7.819
			c0.888,1.965,2.12,3.814,3.735,5.429l46.284,46.285l-4.66,5.522c-16.354-24.864-44.489-41.321-76.409-41.321
			C41.007,225.28,0,266.288,0,316.692s41.007,91.412,91.412,91.412c39.497,0,73.217-25.184,85.963-60.335
			c4.921,2.393,10.009,3.615,15.245,3.615H294.97c13.441,0,26.304-3.729,37.433-10.667c10.578,38.784,46.095,67.388,88.185,67.388
			c50.405,0,91.412-41.007,91.412-91.412S470.993,225.28,420.588,225.28z M91.412,371.35c-30.138,0-54.658-24.52-54.658-54.658
			s24.52-54.658,54.658-54.658c16.798,0,31.845,7.623,41.878,19.585l-48.249,17.835c-9.52,3.52-14.384,14.089-10.866,23.609
			c2.742,7.419,9.767,12.01,17.239,12.01c2.116,0,4.268-0.369,6.368-1.144l48.271-17.843c0.002,0.202,0.015,0.402,0.015,0.605
			C146.069,346.83,121.55,371.35,91.412,371.35z M329.179,280.423c0,9.137-3.558,17.726-10.02,24.188
			c-6.461,6.46-15.051,10.019-24.188,10.019H193.266c-2.27-1.056-5.892-5.198-9.241-10.245l27.435-32.505
			c6.159-7.297,5.703-18.095-1.049-24.847l-23.228-23.228l42.92,9.574c1.317,0.294,2.66,0.441,4.001,0.441
			c1.512,0,3.025-0.186,4.501-0.56l90.574-22.879V280.423z M365.932,201.096l2.977-0.752l9.838,35.117
			c-4.496,2.325-8.79,4.991-12.815,8.003V201.096z M420.588,371.35c-30.138,0-54.657-24.52-54.657-54.658
			c0-18.382,9.131-34.661,23.085-44.574l13.876,49.531c2.274,8.115,9.653,13.425,17.687,13.425c1.64,0,3.309-0.222,4.968-0.686
			c9.773-2.738,15.476-12.88,12.738-22.653l-13.882-49.553c28.364,1.966,50.844,25.654,50.844,54.51
			C475.246,346.83,450.727,371.35,420.588,371.35z"/>
	</g>
</g>
<g>
</g>
<g>
</g>
<g>
</g>
<g>
</g>
<g>
</g>
<g>
</g>
<g>
</g>
<g>
</g>
<g>
</g>
<g>
</g>
<g>
</g>
<g>
</g>
<g>
</g>
<g>
</g>
<g>
</g>
</svg>
