<?xml version="1.0" encoding="iso-8859-1"?>
<!-- Generator: Adobe Illustrator 19.0.0, SVG Export Plug-In . SVG Version: 6.00 Build 0)  -->
<svg version="1.1" id="Layer_1" xmlns="http://www.w3.org/2000/svg" xmlns:xlink="http://www.w3.org/1999/xlink" x="0px" y="0px"
	 viewBox="0 0 511.999 511.999" style="enable-background:new 0 0 511.999 511.999;" xml:space="preserve">
<g>
	<g>
		<path d="M508.165,278.151l-16.497-11.176l13.727-11.563c2.407-2.027,3.537-5.193,2.956-8.286c-0.581-3.092-2.78-5.634-5.758-6.65
			l-71.406-24.381c-0.908-0.311-1.861-0.468-2.82-0.468h-41.928l-65.369-45.885c-1.469-1.031-3.22-1.584-5.015-1.584h-13.302
			v-19.316h103.584c4.82,0,8.728-3.908,8.728-8.728s-3.908-8.728-8.728-8.728h-11.15v-8.168c0-4.82-3.908-8.728-8.728-8.728
			s-8.728,3.908-8.728,8.728v8.168h-75.016c-0.393-4.456-4.131-7.952-8.689-7.952s-8.295,3.496-8.689,7.952H266.66
			c-0.393-4.456-4.131-7.952-8.689-7.952c-4.557,0-8.295,3.496-8.689,7.952h-30.793c-4.82,0-8.728,3.908-8.728,8.728
			s3.908,8.728,8.728,8.728h30.754v19.316H75.031c-1.285,0-2.552,0.284-3.715,0.83l-49.234,23.155
			c-3.06,1.438-5.013,4.517-5.013,7.898v33.33c0,1.784,0.547,3.524,1.565,4.988l17.224,24.733c-5.58,1.493-11.071,3.387-16.448,5.69
			l-14.118,6.05c-4.43,1.899-6.483,7.03-4.584,11.461c1.899,4.43,7.031,6.482,11.461,4.584l14.118-6.05
			c12.957-5.552,26.676-8.369,40.772-8.369h407.485l23.832,16.144c1.5,1.016,3.203,1.504,4.888,1.504
			c2.798,0,5.547-1.343,7.234-3.833C513.199,286.281,512.155,280.854,508.165,278.151z M266.697,148.842h18.599v19.316h-18.599
			V148.842z M76.98,185.616h146.379l-9.409,17.333H40.126L76.98,185.616z M289.291,224.355v34.648H67.058
			c-4.144,0.001-8.26,0.209-12.342,0.625l-20.191-28.995v-10.228h184.619c3.2,0,6.143-1.752,7.67-4.564l16.408-30.225h14.702
			c0.015,0,0.03,0.002,0.045,0.002c0.015,0,0.03-0.002,0.045-0.002h35.966c0.015,0,0.03,0.002,0.045,0.002
			c0.015,0,0.03-0.002,0.045-0.002h19.227l42.757,30.012h-58.036C293.199,215.627,289.291,219.535,289.291,224.355z
			 M474.034,259.002H306.746v-25.919h120.17l55.423,18.924L474.034,259.002z"/>
	</g>
</g>
<g>
	<g>
		<path d="M468.818,289.303c-0.006,0-423.133,0.841-423.133,0.841c-20.095,0.009-36.44,16.36-36.44,36.457
			c0,15.491,9.715,28.746,23.368,34.018l65.383,31.487c0.164,0.079,0.332,0.154,0.5,0.222c8.458,3.437,17.361,5.18,26.462,5.18
			h284.224c15.812,0,30.804-6.031,42.212-16.979l35.762-34.323c7.914-5.709,13.078-15.003,13.078-25.485
			C500.234,303.397,486.141,289.303,468.818,289.303z M45.703,345.602c-10.477,0-19.001-8.523-19.001-19.001
			S35.225,307.6,45.703,307.6s19.001,8.523,19.001,19.001S56.18,345.602,45.703,345.602z M147.277,380.051h-0.112
			c-13.085-0.03-23.722-10.683-23.722-23.776c0-13.111,10.667-23.778,23.778-23.778s23.778,10.667,23.778,23.778
			C170.999,369.368,160.362,380.02,147.277,380.051z M257.74,380.051h-0.112c-12.273-0.031-22.248-10.021-22.248-22.3
			c0-12.297,10.005-22.302,22.304-22.302c12.298,0,22.302,10.005,22.302,22.302C279.987,370.03,270.012,380.02,257.74,380.051z
			 M375.766,380.05h-0.112c-13.098-0.03-23.744-10.691-23.744-23.795c0-13.123,10.676-23.799,23.799-23.799
			c13.123,0,23.799,10.676,23.799,23.799C399.508,369.359,388.862,380.02,375.766,380.05z M439.306,367.933
			c-8.142,7.815-18.839,12.118-30.124,12.118h-0.243c5.04-6.504,8.025-14.666,8.025-23.795c0-22.748-18.507-41.255-41.255-41.255
			c-22.748,0-41.255,18.507-41.255,41.255c0,9.13,2.986,17.291,8.025,23.795h-52.313c4.577-6.155,7.277-13.784,7.277-22.3
			c0-21.923-17.836-39.759-39.759-39.759s-39.76,17.836-39.76,39.759c0,8.516,2.7,16.145,7.277,22.3h-44.762
			c5.033-6.5,8.016-14.654,8.016-23.776c0-22.736-18.498-41.234-41.234-41.234s-41.234,18.498-41.234,41.234
			c0,8.483,2.577,16.13,6.985,22.387c-2.595-0.607-5.153-1.405-7.658-2.408l-39.717-19.126c9.962-6.515,16.562-17.761,16.562-30.527
			c0-6.971-1.97-13.489-5.378-19.033l363.891-0.786c-2.09,4.204-3.271,8.934-3.271,13.937c0,13.46,8.511,24.966,20.432,29.43
			L439.306,367.933z M468.818,334.678c-7.697,0-13.959-6.262-13.959-13.959c0-7.697,6.262-13.959,13.959-13.959
			c7.697,0,13.959,6.262,13.959,13.959C482.777,328.416,476.515,334.678,468.818,334.678z"/>
	</g>
</g>
<g>
</g>
<g>
</g>
<g>
</g>
<g>
</g>
<g>
</g>
<g>
</g>
<g>
</g>
<g>
</g>
<g>
</g>
<g>
</g>
<g>
</g>
<g>
</g>
<g>
</g>
<g>
</g>
<g>
</g>
</svg>
