<?xml version="1.0" encoding="iso-8859-1"?>
<!-- Generator: Adobe Illustrator 19.0.0, SVG Export Plug-In . SVG Version: 6.00 Build 0)  -->
<svg version="1.1" id="Layer_1" xmlns="http://www.w3.org/2000/svg" xmlns:xlink="http://www.w3.org/1999/xlink" x="0px" y="0px"
	 viewBox="0 0 512 512" style="enable-background:new 0 0 512 512;" xml:space="preserve">
<g>
	<g>
		<path d="M511.342,234.798c-1.315-3.133-4.381-5.171-7.78-5.171h-56.165l-31.492-34.478c-1.598-1.75-3.859-2.747-6.23-2.747
			h-35.884l-14.298-19.069l127.712-35.267c4.492-1.241,7.126-5.886,5.887-10.378c-1.241-4.491-5.882-7.126-10.378-5.887
			L347.066,159.26c-11.339-9.741-25.966-15.323-41.128-15.323h-77.984c-8.615,0-16.845,4.115-22.015,11.006l-28.103,37.461H84.871
			c-2.032,0-3.996,0.733-5.53,2.064l-40.515,35.16h-0.294v0.254L2.908,260.8c-1.936,1.679-3.002,4.147-2.901,6.708
			c0.102,2.56,1.361,4.935,3.424,6.456l40.15,29.594c-2.05,6.399-3.167,13.214-3.167,20.285c0,36.757,29.904,66.662,66.661,66.662
			c32.629,0,59.839-23.572,65.543-54.577c5.704,31.005,32.914,54.577,65.543,54.577s59.839-23.572,65.544-54.577
			c5.704,31.005,32.914,54.577,65.543,54.577c36.757,0,66.662-29.904,66.662-66.662c0-1.547-0.072-3.077-0.177-4.596l73.852-75.273
			C511.965,241.548,512.657,237.931,511.342,234.798z M219.438,165.068c2-2.666,5.183-4.258,8.518-4.258h77.984
			c14.449,0,28.25,6.901,36.919,18.462l9.846,13.131H198.933L219.438,165.068z M88.022,209.276h317.934l18.59,20.351H64.57
			L88.022,209.276z M107.075,373.63c-27.453,0-49.787-22.335-49.787-49.788c0-27.454,22.335-49.788,49.787-49.788
			c27.453,0,49.788,22.335,49.788,49.788C156.864,351.296,134.528,373.63,107.075,373.63z M238.162,373.63
			c-27.453,0-49.788-22.335-49.788-49.788c0-27.454,22.335-49.788,49.788-49.788s49.788,22.335,49.788,49.788
			C287.95,351.296,265.615,373.63,238.162,373.63z M369.248,373.63c-27.453,0-49.788-22.335-49.788-49.788
			c0-27.454,22.335-49.788,49.788-49.788c27.454,0,49.788,22.335,49.788,49.788C419.036,351.296,396.702,373.63,369.248,373.63z
			 M431.339,299.632c-9.711-24.818-33.874-42.451-62.091-42.451c-32.629,0-59.839,23.572-65.544,54.577
			c-5.704-31.005-32.914-54.577-65.543-54.577s-59.839,23.572-65.543,54.577c-5.704-31.005-32.914-54.577-65.544-54.577
			c-23.57,0-44.305,12.306-56.161,30.82l-28.987-21.366l23.2-20.133h438.339L431.339,299.632z"/>
	</g>
</g>
<g>
	<g>
		<path d="M369.248,295.178c-15.805,0-28.663,12.859-28.663,28.663s12.859,28.663,28.663,28.663
			c15.805,0,28.663-12.859,28.663-28.663S385.054,295.178,369.248,295.178z M369.248,335.633c-6.501,0-11.79-5.289-11.79-11.79
			s5.289-11.79,11.79-11.79c6.501,0,11.79,5.289,11.79,11.79S375.75,335.633,369.248,335.633z"/>
	</g>
</g>
<g>
	<g>
		<path d="M238.162,295.178c-15.805,0-28.663,12.859-28.663,28.663s12.859,28.663,28.663,28.663
			c15.805,0,28.663-12.859,28.663-28.663S253.967,295.178,238.162,295.178z M238.162,335.633c-6.501,0-11.79-5.289-11.79-11.79
			s5.289-11.79,11.79-11.79c6.501,0,11.79,5.289,11.79,11.79S244.663,335.633,238.162,335.633z"/>
	</g>
</g>
<g>
	<g>
		<path d="M107.075,295.178c-15.805,0-28.663,12.859-28.663,28.663s12.859,28.663,28.663,28.663
			c15.806,0,28.664-12.859,28.664-28.663S122.881,295.178,107.075,295.178z M107.075,335.633c-6.501,0-11.79-5.289-11.79-11.79
			s5.289-11.79,11.79-11.79c6.502,0,11.791,5.289,11.791,11.79S113.577,335.633,107.075,335.633z"/>
	</g>
</g>
<g>
</g>
<g>
</g>
<g>
</g>
<g>
</g>
<g>
</g>
<g>
</g>
<g>
</g>
<g>
</g>
<g>
</g>
<g>
</g>
<g>
</g>
<g>
</g>
<g>
</g>
<g>
</g>
<g>
</g>
</svg>
