<?xml version="1.0" encoding="iso-8859-1"?>
<!-- Generator: Adobe Illustrator 19.0.0, SVG Export Plug-In . SVG Version: 6.00 Build 0)  -->
<svg version="1.1" id="Layer_1" xmlns="http://www.w3.org/2000/svg" xmlns:xlink="http://www.w3.org/1999/xlink" x="0px" y="0px"
	 viewBox="0 0 511.999 511.999" style="enable-background:new 0 0 511.999 511.999;" xml:space="preserve">
<g>
	<g>
		<path d="M457.049,255.999H433.54v-42.2c0-11.71-9.527-21.237-21.237-21.237h-6.03v-35.056c0-4.61-3.736-8.347-8.347-8.347
			s-8.347,3.737-8.347,8.347v35.056h-5.625v-58.427c0-4.61-3.736-8.347-8.347-8.347s-8.347,3.737-8.347,8.347v58.427h-12.647
			c-11.709,0-21.235,9.527-21.235,21.237v42.2H8.347c-4.61,0-8.347,3.737-8.347,8.347v64.84c0,10.301,5.919,19.13,15.447,23.044
			c3.162,1.299,6.421,1.933,9.629,1.932c6.462,0,12.718-2.571,17.555-7.467l9.318-9.429l4.86,1.519
			c100.702,31.469,205.257,47.426,310.76,47.426h5.115c37.85,0,75.671-9.105,109.373-26.332
			c18.469-9.439,29.941-28.188,29.941-48.929C512,280.649,487.35,255.999,457.049,255.999z M41.239,324.354l-10.482,10.608
			c-3.593,3.635-7.773,2.316-8.967,1.825c-1.195-0.491-5.095-2.49-5.095-7.6v-56.493h24.544V324.354z M350.072,213.799
			c0-2.504,2.037-4.542,4.541-4.542h57.691c2.504,0,4.542,2.038,4.542,4.542v6.03h-17.868c-4.611,0-8.347,3.737-8.347,8.347
			c0,4.61,3.736,8.347,8.347,8.347h17.868v19.476h-66.774V213.799z M57.933,272.693h283.792h83.468h31.856
			c18.227,0,33.507,12.817,37.328,29.909H57.933V272.693z M474.462,345.014c-31.363,16.029-66.556,24.502-101.776,24.502h-5.115
			c-103.813,0-206.692-15.701-305.781-46.666l-3.856-1.205v-2.348h436.452C491.951,330.286,484.78,339.74,474.462,345.014z"/>
	</g>
</g>
<g>
</g>
<g>
</g>
<g>
</g>
<g>
</g>
<g>
</g>
<g>
</g>
<g>
</g>
<g>
</g>
<g>
</g>
<g>
</g>
<g>
</g>
<g>
</g>
<g>
</g>
<g>
</g>
<g>
</g>
</svg>
