<?xml version="1.0" encoding="iso-8859-1"?>
<!-- Generator: Adobe Illustrator 19.0.0, SVG Export Plug-In . SVG Version: 6.00 Build 0)  -->
<svg version="1.1" id="Layer_1" xmlns="http://www.w3.org/2000/svg" xmlns:xlink="http://www.w3.org/1999/xlink" x="0px" y="0px"
	 viewBox="0 0 512.002 512.002" style="enable-background:new 0 0 512.002 512.002;" xml:space="preserve">
<g>
	<g>
		<path d="M382.607,316.208c-0.006,0-343.907,0.684-343.907,0.684c-17.196,0.009-31.184,14.002-31.184,31.2
			c0,13.229,8.28,24.554,19.928,29.085l53.095,25.569c0.163,0.079,0.329,0.152,0.497,0.221c7.063,2.869,14.497,4.325,22.097,4.325
			h231.004c13.26,0,25.83-5.056,35.396-14.237l28.988-27.821c6.775-4.931,11.191-12.918,11.191-21.921
			C409.711,328.366,397.552,316.208,382.607,316.208z M38.717,361.966c-7.65,0-13.874-6.224-13.874-13.874
			s6.224-13.874,13.874-13.874c7.65,0,13.874,6.224,13.874,13.874S46.367,361.966,38.717,361.966z M121.273,389.964h-0.089
			c-8.688-0.024-15.75-7.097-15.75-15.79c0-8.709,7.085-15.794,15.794-15.794c8.709,0,15.794,7.085,15.794,15.794
			C137.021,382.868,129.96,389.94,121.273,389.964z M211.052,389.964h-0.089c-6.342-0.024-11.494-5.188-11.494-11.536
			c0-6.362,5.176-11.538,11.538-11.538c6.362,0,11.538,5.175,11.538,11.538C222.544,384.775,217.392,389.939,211.052,389.964z
			 M306.977,389.964h-0.089c-9.55-0.024-17.311-7.799-17.311-17.353c0-9.569,7.786-17.355,17.355-17.355s17.355,7.786,17.355,17.355
			C324.287,382.165,316.526,389.94,306.977,389.964z M357.534,380.554c-5.693,5.464-12.998,8.709-20.794,9.303
			c3.092-4.924,4.876-10.78,4.876-17.244c0-19.124-15.559-34.683-34.683-34.683c-19.124,0-34.683,15.559-34.683,34.683
			c0,6.512,1.807,12.407,4.941,17.353h-39.867c1.632-3.435,2.548-7.318,2.548-11.536c0-15.916-12.948-28.865-28.865-28.865
			c-15.917,0-28.865,12.948-28.865,28.865c0,4.218,0.916,8.099,2.548,11.536h-34.373c2.561-4.698,4.032-10.073,4.032-15.79
			c0-18.263-14.858-33.121-33.121-33.121c-18.263,0-33.12,14.857-33.12,33.12c0,5.018,1.138,9.77,3.144,14.038
			c-1.162-0.35-2.314-0.746-3.451-1.2l-29.852-14.376c7.28-5.717,11.97-14.59,11.97-24.543c0-5.004-1.191-9.733-3.293-13.929
			l290.691-0.578c-1.166,3.021-1.811,6.299-1.811,9.725c0,10.747,6.286,20.051,15.375,24.432L357.534,380.554z M382.609,353.087
			c-5.391,0-9.776-4.385-9.776-9.775c0-5.391,4.385-9.776,9.776-9.776c5.389,0,9.775,4.385,9.775,9.776
			C392.384,348.702,387.999,353.087,382.609,353.087z"/>
	</g>
</g>
<g>
	<g>
		<path d="M511.348,146.824l-15.147-36.751c-0.876-2.124-2.559-3.814-4.681-4.697c-2.122-0.884-4.506-0.888-6.631-0.012
			l-58.573,24.14c-3.843,1.584-5.934,5.613-5.224,9.544l-145.962,60.159c-9.356-9.084-20.866-15.17-33.372-17.767v-6.931
			c0-11.519-9.372-20.89-20.89-20.89h-42.912c-11.519,0-20.89,9.371-20.89,20.89v6.055c-14.879,1.881-28.64,8.575-39.417,19.351
			c-12.843,12.843-19.916,29.918-19.916,48.081v2.509H59.819c-3.217,0-6.169,1.782-7.667,4.629l-17.417,33.091
			c-6.136,1.343-12.155,3.248-18.008,5.756L5.253,298.9c-4.398,1.885-6.435,6.978-4.55,11.376c1.885,4.399,6.978,6.434,11.376,4.55
			l11.474-4.918c10.334-4.429,21.275-6.675,32.519-6.675H352.34h34.438l18.97,12.851c1.489,1.008,3.179,1.492,4.852,1.492
			c2.777,0,5.506-1.333,7.181-3.805c2.683-3.962,1.647-9.349-2.314-12.032l-21.171-14.341c-1.435-0.971-3.127-1.491-4.86-1.491
			h-34.08l-42.353-33.53c-1.531-1.212-3.425-1.871-5.377-1.871h-11.831v-2.509c0-3.395-0.248-6.752-0.734-10.05l142.596-58.769
			c1.629,2.361,4.303,3.754,7.115,3.754c1.1,0,2.218-0.211,3.298-0.656l58.573-24.14c2.124-0.876,3.814-2.559,4.697-4.681
			C512.22,151.333,512.224,148.949,511.348,146.824z M174.395,174.509L174.395,174.509c0-1.965,1.598-3.563,3.563-3.563h42.912
			c1.965,0,3.563,1.598,3.563,3.563v5.492h-50.037V174.509z M115.063,247.997c0-13.534,5.271-26.257,14.841-35.828
			c9.569-9.569,22.294-14.841,35.828-14.841h62.066c13.534,0,26.258,5.271,35.828,14.841c9.569,9.571,14.841,22.295,14.841,35.828
			v2.509H115.063V247.997z M304.611,267.833l22.829,18.074H56.075h-0.536l9.512-18.074H304.611z M290.299,221.168
			c-1.155-2.689-2.477-5.306-3.977-7.831l141.191-58.192l1.635,3.96l1.704,4.134L290.299,221.168z M449.479,162.952l-4.524-10.961
			l-4.025-9.767l42.552-17.538l8.544,20.731L449.479,162.952z"/>
	</g>
</g>
<g>
</g>
<g>
</g>
<g>
</g>
<g>
</g>
<g>
</g>
<g>
</g>
<g>
</g>
<g>
</g>
<g>
</g>
<g>
</g>
<g>
</g>
<g>
</g>
<g>
</g>
<g>
</g>
<g>
</g>
</svg>
