<?xml version="1.0" encoding="iso-8859-1"?>
<!-- Generator: Adobe Illustrator 19.0.0, SVG Export Plug-In . SVG Version: 6.00 Build 0)  -->
<svg version="1.1" id="Layer_1" xmlns="http://www.w3.org/2000/svg" xmlns:xlink="http://www.w3.org/1999/xlink" x="0px" y="0px"
	 viewBox="0 0 512 512" style="enable-background:new 0 0 512 512;" xml:space="preserve">
<g>
	<g>
		<path d="M490.667,362.667h-64v-21.333c0-11.776-9.536-21.333-21.333-21.333H354.24l-91.008-173.739
			c8.683-10.923,14.101-24.576,14.101-39.595c0-0.192-0.064-0.363-0.064-0.555l149.397-54.315v58.795
			C401.899,119.424,384,142.891,384,170.667c0,35.285,28.715,64,64,64s64-28.715,64-64c0-27.776-17.899-51.243-42.667-60.075V21.333
			c0-1.323-0.512-2.475-0.747-3.733c-0.213-1.195-0.107-2.389-0.555-3.563c-0.043-0.171-0.192-0.277-0.256-0.427
			c-0.597-1.557-1.6-2.816-2.539-4.16c-0.661-0.96-1.131-2.069-1.941-2.88c-0.917-0.96-2.112-1.579-3.221-2.347
			c-1.131-0.811-2.155-1.749-3.413-2.325c-1.067-0.469-2.283-0.533-3.413-0.832c-1.557-0.405-3.072-0.917-4.693-0.96
			C448.363,0.107,448.192,0,448,0c-1.301,0-2.411,0.512-3.648,0.747c-1.216,0.192-2.432,0.107-3.648,0.533L262.421,66.112
			c-11.755-14.208-29.269-23.445-49.088-23.445c-35.285,0-64,28.715-64,64c0,0.299,0.085,0.555,0.085,0.853l-42.88,19.883
			c-0.32-11.477-9.621-20.736-21.205-20.736h-64C9.536,106.667,0,116.224,0,128v85.333c0,11.776,9.536,21.333,21.333,21.333h64
			c11.797,0,21.333-9.557,21.333-21.333V174.4l55.531-25.771L72.427,320H21.333C9.536,320,0,329.557,0,341.333V448
			c0,11.776,9.536,21.333,21.333,21.333h25.259C55.424,494.101,78.891,512,106.667,512s51.243-17.899,60.075-42.667h93.184
			C268.757,494.101,292.224,512,320,512s51.243-17.899,60.075-42.667h25.259c11.797,0,21.333-9.557,21.333-21.333v-42.667h42.667
			v21.333c0,11.776,9.536,21.333,21.333,21.333S512,438.443,512,426.667V384C512,372.224,502.464,362.667,490.667,362.667z
			 M106.667,469.333c-11.776,0-21.333-9.579-21.333-21.333c0-11.755,9.557-21.333,21.333-21.333S128,436.245,128,448
			C128,459.755,118.443,469.333,106.667,469.333z M120.597,320l79.04-150.891c4.416,0.981,8.981,1.557,13.696,1.557
			s9.28-0.597,13.696-1.557L306.069,320H120.597z M320,469.333c-11.776,0-21.333-9.579-21.333-21.333
			c0-11.755,9.557-21.333,21.333-21.333s21.333,9.579,21.333,21.333C341.333,459.755,331.776,469.333,320,469.333z"/>
	</g>
</g>
<g>
</g>
<g>
</g>
<g>
</g>
<g>
</g>
<g>
</g>
<g>
</g>
<g>
</g>
<g>
</g>
<g>
</g>
<g>
</g>
<g>
</g>
<g>
</g>
<g>
</g>
<g>
</g>
<g>
</g>
</svg>
