<?xml version="1.0" encoding="iso-8859-1"?>
<!-- Generator: Adobe Illustrator 19.0.0, SVG Export Plug-In . SVG Version: 6.00 Build 0)  -->
<svg version="1.1" id="Layer_1" xmlns="http://www.w3.org/2000/svg" xmlns:xlink="http://www.w3.org/1999/xlink" x="0px" y="0px"
	 viewBox="0 0 512 512" style="enable-background:new 0 0 512 512;" xml:space="preserve">
<g>
	<g>
		<path d="M505.414,406.483l-210.081-348.4C287.072,44.382,272,35.869,255.999,35.869s-31.072,8.512-39.334,22.213L6.588,406.482
			c-8.54,14.161-8.794,31.904-0.663,46.305c8.132,14.4,23.457,23.344,39.994,23.344h420.159c16.538,0,31.863-8.945,39.994-23.344
			C514.205,438.387,513.952,420.645,505.414,406.483z M477.178,436.469c-2.257,3.995-6.51,6.477-11.099,6.477H45.92
			c-4.589,0-8.842-2.482-11.099-6.477c-2.258-3.996-2.188-8.92,0.184-12.851l210.08-348.401c2.292-3.803,6.475-6.164,10.915-6.164
			s8.623,2.362,10.915,6.164l210.081,348.4C479.366,427.548,479.435,432.472,477.178,436.469z"/>
	</g>
</g>
<g>
	<g>
		<path d="M329.956,263.13c-4.621-9.111-13.839-14.769-24.054-14.769h-20.169l12.346-60.359
			c2.154-10.544-3.425-21.357-13.267-25.713c-10.112-4.473-21.698-1.075-27.952,7.477l-78.973,107.981
			c-6.031,8.244-6.906,19.024-2.282,28.132c4.622,9.109,13.839,14.768,24.054,14.768h20.169l-12.346,60.359
			c-2.154,10.544,3.425,21.357,13.267,25.714c10.112,4.473,21.698,1.075,27.952-7.477l78.973-107.982
			C333.705,283.018,334.58,272.238,329.956,263.13z M249.285,342.23l7.128-34.852c0.999-4.882-0.25-9.955-3.4-13.816
			c-3.151-3.862-7.87-6.101-12.854-6.101h-28.265l44.383-60.687l-7.128,34.852c-0.999,4.883,0.25,9.955,3.4,13.816
			c3.151,3.862,7.871,6.101,12.854,6.101h28.265L249.285,342.23z"/>
	</g>
</g>
<g>
</g>
<g>
</g>
<g>
</g>
<g>
</g>
<g>
</g>
<g>
</g>
<g>
</g>
<g>
</g>
<g>
</g>
<g>
</g>
<g>
</g>
<g>
</g>
<g>
</g>
<g>
</g>
<g>
</g>
</svg>
