<?xml version="1.0" encoding="iso-8859-1"?>
<!-- Generator: Adobe Illustrator 19.0.0, SVG Export Plug-In . SVG Version: 6.00 Build 0)  -->
<svg version="1.1" id="Layer_1" xmlns="http://www.w3.org/2000/svg" xmlns:xlink="http://www.w3.org/1999/xlink" x="0px" y="0px"
	 viewBox="0 0 512.001 512.001" style="enable-background:new 0 0 512.001 512.001;" xml:space="preserve">
<g>
	<g>
		<g>
			<path d="M122.987,365.576c2.304,0,4.631-0.685,6.658-2.109c5.246-3.682,6.513-10.921,2.829-16.167
				c-2.438-3.475-3.782-6.821-3.782-9.423c0-6.41-5.196-11.606-11.606-11.606c-6.41,0-11.606,5.196-11.606,11.606
				c0,7.438,2.766,15.308,7.997,22.76C115.737,363.855,119.333,365.576,122.987,365.576z"/>
			<path d="M170.295,392.499c6.331,1.223,12.112,2.214,17.674,3.03c0.571,0.084,1.137,0.124,1.699,0.124
				c5.664,0,10.622-4.153,11.468-9.923c0.93-6.34-3.457-12.236-9.799-13.166c-5.212-0.765-10.654-1.698-16.637-2.855
				c-6.288-1.217-12.381,2.899-13.597,9.192C159.887,385.195,164.002,391.283,170.295,392.499z"/>
			<path d="M247.468,397.051c0.464,0,0.934-0.028,1.407-0.085c6.1-0.737,12.239-1.778,18.248-3.095
				c6.261-1.373,10.225-7.561,8.851-13.822c-1.373-6.26-7.552-10.225-13.821-8.852c-5.288,1.159-10.691,2.076-16.06,2.725
				c-6.363,0.768-10.899,6.55-10.131,12.914C236.672,392.726,241.679,397.051,247.468,397.051z"/>
			<path d="M318.724,373.657c1.855,0,3.736-0.446,5.484-1.385c5.184-2.787,10.465-5.85,15.692-9.106
				c5.441-3.388,7.106-10.545,3.718-15.986s-10.543-7.105-15.986-3.717c-4.812,2.995-9.659,5.807-14.412,8.362
				c-5.646,3.034-7.763,10.07-4.729,15.716C310.586,371.44,314.588,373.657,318.724,373.657z"/>
			<path d="M500.396,399.331h-122.44c17.053-11.446,34.164-24.902,51.421-40.424c6.413,5.219,10.949,4.616,12.406,4.616
				c2.415,0,4.81-0.753,6.823-2.217c32.427-23.561,42.851-65.344,24.957-95.8c8.438-7.683,21.371-22.38,24.708-42.579
				c1.044-6.324-3.234-12.297-9.558-13.342c-6.324-1.047-12.299,3.236-13.342,9.558c-2.189,13.247-11.203,23.462-17.08,28.878
				c-12.981-10.164-29.655-14.93-46.779-13.993l19.615-30.645c0.095-0.149,0.187-0.301,0.275-0.454
				c6.045-10.471,7.652-22.668,4.522-34.346c-2.903-10.832-9.561-20.008-18.865-26.106l62.486-39.747
				c5.408-3.44,7.003-10.613,3.563-16.022c-3.44-5.408-10.612-7.005-16.022-3.563l-42.362,26.947l36.117-65.311
				c3.102-5.609,1.069-12.671-4.54-15.772c-5.604-3.101-12.67-1.07-15.772,4.54l-37.749,68.263l-0.612-56.775
				c-0.07-6.41-5.298-11.551-11.729-11.48c-6.409,0.07-11.549,5.32-11.48,11.73l0.815,75.633
				c-10.032-5.184-21.469-6.431-32.452-3.49c-11.679,3.129-21.439,10.619-27.483,21.089c-0.073,0.128-0.145,0.258-0.215,0.388
				l-25.855,49.01c-6.152-13.76-14.338-26.643-24.396-38.179c-18.8-21.578-48.804-30.45-76.447-22.593
				c-0.825,0.236-1.67,0.454-2.51,0.677c-3.696-66.203-46.308-81.278-51.45-82.854c-9.489-2.933-19.553-1.992-28.336,2.645
				c-8.784,4.639-15.236,12.422-18.168,21.919c-5.42,17.573,3.04,36.574,19.372,44.452c1.006,1.47,3.258,5.696,4.132,14.921
				c-1.125-0.261-2.247-0.527-3.36-0.815c-28.492-7.322-58.822,2.29-77.266,24.497c-22.909,27.61-35.459,62.609-35.339,98.552
				c0.174,49.979,24.747,94.695,62.367,122.696c4.078,8.956,9.67,17.539,16.63,25.497H12.183c-6.41,0-11.606,5.196-11.606,11.606
				c0,40.529,32.973,73.502,73.502,73.502h364.419c40.529,0,73.502-32.973,73.502-73.502
				C512.002,404.527,506.805,399.331,500.396,399.331z M451.489,274.077c13.687,18.837,8.379,46.513-11.407,64.311
				c-6.471-3.53-7.612-6.945-10.037-14.204c-2.132-6.383-5.052-15.125-12.533-25.421c-7.48-10.297-14.891-15.774-20.303-19.775
				c-4.401-3.253-7.131-5.283-8.827-8.82l5.52-8.623C415.335,252.607,439.183,257.139,451.489,274.077z M303.785,218.677
				l13.763-26.088l21.858,12.62c1.828,1.055,3.823,1.556,5.791,1.556c4.011,0,7.912-2.081,10.062-5.804
				c3.205-5.551,1.303-12.649-4.248-15.853l-22.626-13.063l11.654-22.09c2.952-5.011,7.664-8.595,13.29-10.103
				c5.688-1.525,11.63-0.743,16.732,2.203l33.168,19.149c5.101,2.946,8.75,7.7,10.275,13.389c1.504,5.613,0.763,11.471-2.086,16.525
				l-33.497,52.335c-0.022,0.012-0.045,0.022-0.067,0.035l-29.998-17.319c-5.553-3.207-12.65-1.303-15.853,4.248
				c-3.206,5.551-1.303,12.649,4.248,15.853l29.182,16.55l-9.285,14.652c-14.866,9.408-31.007,14.829-48.335,16.26l-5.843-3.374
				c3.407-12.803,5.176-26.138,5.176-39.758C307.145,239.795,306,229.101,303.785,218.677z M199.284,149.469
				c19.023-5.407,39.667,0.685,52.591,15.519c20.673,23.714,32.058,54.117,32.058,85.611c0,14.407-2.328,28.44-6.785,41.69
				c-5.819-0.974-11.746-2.323-17.786-4.078c-8.697-2.527-17.18-6.322-25.375-11.324c4.96-27.89,3.8-53.233-3.525-75.873
				c-7.807-24.129-21.26-40.51-33.115-51.022C197.994,149.816,198.647,149.651,199.284,149.469z M208.38,208.157
				c5.047,15.599,6.446,33.256,4.292,52.675c-13.793-10.829-30.199-17.725-47.492-20.028v-85.021
				C169.155,157.662,196.614,171.79,208.38,208.157z M114.643,76.373c1.101-3.569,3.526-6.493,6.826-8.237
				c3.299-1.742,7.079-2.095,10.669-0.987c3.585,1.099,33.414,11.852,35.237,64.826c-9.216,0.944-18.667,1.087-27.94,0.418
				c-0.997-25.066-9.887-34.469-14.049-37.508c-0.793-0.579-1.655-1.055-2.568-1.417C116.1,90.805,112.508,83.294,114.643,76.373z
				 M141.936,155.8c0.01,0,0.021,0.001,0.032,0.001v84.684c-17.718,1.859-34.039,8.467-47.678,18.518
				c-1.851-18.486-0.445-35.349,4.31-50.323C110.197,172.159,137.47,157.919,141.936,155.8z M73.673,279.505
				c-11.577,15.546-18.631,34.633-19.271,55.308c-19.322-22.682-31.077-51.959-31.187-83.755
				c-0.101-30.513,10.55-60.22,29.988-83.647c9.881-11.898,24.768-18.544,40.207-18.544c4.457,0,8.962,0.555,13.402,1.696
				c0.613,0.159,1.235,0.297,1.85,0.449c-11.569,10.543-24.42,26.64-31.977,50C69.131,224.356,68.161,250.583,73.673,279.505z
				 M77.535,337.878c0-41.203,33.521-74.724,74.724-74.724c18.052,0,35.479,6.534,49.072,18.398
				c15.918,13.893,33.264,23.633,51.555,28.947c33.053,9.602,79.668,13.15,123.294-18.598c2.333,2.127,4.791,3.948,7.23,5.752
				c4.89,3.614,9.945,7.351,15.323,14.752c5.377,7.401,7.37,13.364,9.295,19.131c1.255,3.756,2.524,7.554,4.53,11.281
				c-28.528,25.463-55.228,43.712-80.338,56.513H113.205C92.677,384.494,77.535,362.704,77.535,337.878z M438.5,461.228H74.081
				c-23.738,0-43.687-16.531-48.94-38.685H487.44C482.186,444.697,462.238,461.228,438.5,461.228z"/>
		</g>
	</g>
</g>
<g>
</g>
<g>
</g>
<g>
</g>
<g>
</g>
<g>
</g>
<g>
</g>
<g>
</g>
<g>
</g>
<g>
</g>
<g>
</g>
<g>
</g>
<g>
</g>
<g>
</g>
<g>
</g>
<g>
</g>
</svg>
