<?xml version="1.0" encoding="iso-8859-1"?>
<!-- Generator: Adobe Illustrator 19.0.0, SVG Export Plug-In . SVG Version: 6.00 Build 0)  -->
<svg version="1.1" id="Layer_1" xmlns="http://www.w3.org/2000/svg" xmlns:xlink="http://www.w3.org/1999/xlink" x="0px" y="0px"
	 viewBox="0 0 512 512" style="enable-background:new 0 0 512 512;" xml:space="preserve">
<g>
	<g>
		<path d="M511.278,390.913l-36.782-92.455c-1.545-3.882-5.299-6.43-9.477-6.43h-38.563l-34.225-86.025
			c-1.545-3.882-5.299-6.43-9.477-6.43h-38.314l-34.225-86.026c-1.545-3.882-5.299-6.43-9.477-6.43h-89.473
			c-4.178,0-7.932,2.548-9.477,6.43l-34.225,86.026h-38.314c-4.178,0-7.932,2.548-9.477,6.43l-34.225,86.025H46.981
			c-4.178,0-7.932,2.548-9.477,6.43L0.722,390.913c-1.249,3.141-0.862,6.698,1.037,9.496c1.899,2.799,5.059,4.473,8.44,4.473
			h163.038c0.209,0,0.414-0.025,0.621-0.039c0.207,0.012,0.412,0.039,0.621,0.039h163.038c0.209,0,0.414-0.025,0.621-0.039
			c0.207,0.012,0.412,0.039,0.621,0.039h163.04c3.381,0,6.542-1.676,8.44-4.473C512.139,397.611,512.528,394.054,511.278,390.913z
			 M375.834,219.973l28.667,72.055H271.533l28.667-72.055H375.834z M256,275.886l-22.245-55.914h44.491L256,275.886z
			 M218.183,127.518h75.633l28.667,72.056H189.516L218.183,127.518z M136.166,219.973h75.635l28.667,72.055H107.499L136.166,219.973
			z M25.234,384.483l28.667-72.056h75.635v0l28.667,72.056H25.234z M173.86,368.654l-22.37-56.227h44.74L173.86,368.654z
			 M189.516,384.483l28.667-72.056h75.634v0l28.667,72.056H189.516z M338.141,368.654l-22.37-56.227h44.74L338.141,368.654z
			 M353.797,384.483l28.667-72.056h75.634v0l28.667,72.056H353.797z"/>
	</g>
</g>
<g>
	<g>
		<path d="M222.756,163.935c-5.221-2.118-11.168,0.401-13.283,5.621l-3.721,9.179c-2.116,5.22,0.401,11.167,5.621,13.283
			c1.255,0.509,2.552,0.75,3.828,0.75c4.03,0,7.847-2.405,9.456-6.37l3.721-9.179C230.493,171.999,227.976,166.052,222.756,163.935z
			"/>
	</g>
</g>
<g>
	<g>
		<path d="M234.333,135.378c-5.223-2.118-11.168,0.402-13.282,5.622l-0.827,2.04c-2.115,5.219,0.401,11.166,5.622,13.282
			c1.255,0.509,2.552,0.75,3.827,0.75c4.031,0,7.849-2.406,9.456-6.371l0.827-2.04C242.07,143.44,239.553,137.493,234.333,135.378z"
			/>
	</g>
</g>
<g>
</g>
<g>
</g>
<g>
</g>
<g>
</g>
<g>
</g>
<g>
</g>
<g>
</g>
<g>
</g>
<g>
</g>
<g>
</g>
<g>
</g>
<g>
</g>
<g>
</g>
<g>
</g>
<g>
</g>
</svg>
