<?xml version="1.0" encoding="iso-8859-1"?>
<!-- Generator: Adobe Illustrator 19.0.0, SVG Export Plug-In . SVG Version: 6.00 Build 0)  -->
<svg version="1.1" id="Layer_1" xmlns="http://www.w3.org/2000/svg" xmlns:xlink="http://www.w3.org/1999/xlink" x="0px" y="0px"
	 viewBox="0 0 512 512" style="enable-background:new 0 0 512 512;" xml:space="preserve">
<path d="M512,233.361c0-46.98-21.037-89.017-59.236-118.368c-41.533-31.914-102.814-48.782-177.217-48.782
	c-66.002,0-131.903,13.378-180.807,36.703C32.76,132.477,0,176.341,0,229.765c0,0.833,0,48.762,0,48.762
	c0,28.969,10.989,55.445,30.941,74.552c21.222,20.323,50.837,31.064,85.644,31.064c7.205,0,14.437-0.583,21.497-1.732
	c38.014-6.192,78.18,4.463,110.192,29.232c28.87,22.338,63.47,34.147,100.059,34.147c90.246,0,163.666-73.42,163.666-163.666
	C512,282.124,512,234.255,512,233.361z M103.736,121.774c46.191-22.031,108.814-34.668,171.811-34.668
	c69.758,0,126.636,15.373,164.486,44.455c33.411,25.673,51.072,60.875,51.072,101.8c0,78.724-64.047,142.77-142.77,142.77
	c-31.918,0-62.096-10.296-87.272-29.777c-29.717-22.992-65.682-35.323-101.57-35.323c-8.285,0-16.568,0.657-24.768,1.992
	c-5.954,0.97-12.057,1.461-18.139,1.461c-66.101,0-95.689-42.551-95.689-84.72C20.896,173.167,65.944,139.8,103.736,121.774z
	 M348.333,424.894c-31.918,0-62.096-10.296-87.272-29.777c-36.578-28.3-82.626-40.448-126.338-33.331
	c-5.954,0.97-12.057,1.461-18.139,1.461c-57.412,0-87.273-32.1-94.134-68.169c2.618,3.238,5.449,6.324,8.491,9.238
	c21.222,20.323,50.837,31.064,85.644,31.064c7.205,0,14.437-0.583,21.497-1.732c38.014-6.194,78.18,4.463,110.192,29.233
	c28.87,22.338,63.47,34.147,100.059,34.147c57.096,0,107.447-29.395,136.742-73.84C467.393,381.957,412.788,424.894,348.333,424.894
	z"/>
<path d="M300.045,256.137c9.699,7.392,22.572,11.469,35.898,11.467c1.541,0,3.088-0.054,4.637-0.165
	c5.756-0.41,10.089-5.407,9.68-11.163c-0.41-5.756-5.399-10.086-11.163-9.68c-9.933,0.703-19.554-1.873-26.384-7.078
	c-5.241-3.994-8.126-9.042-8.126-14.214c0-5.173,2.886-10.22,8.126-14.214c12.585-9.592,33.85-9.592,46.435,0
	c5.191,3.957,8.076,8.957,8.125,14.082c0.054,5.737,4.721,10.35,10.446,10.35c0.033,0,0.067,0,0.1,0
	c5.769-0.054,10.404-4.776,10.349-10.546c-0.11-11.717-5.919-22.551-16.353-30.503c-20.121-15.337-51.645-15.337-71.768,0
	c-10.393,7.923-16.355,19.16-16.355,30.832C283.691,236.976,289.65,248.215,300.045,256.137z"/>
<path d="M359.138,239.524l-0.085,0.065c-4.586,3.502-5.464,10.058-1.962,14.645c2.056,2.692,5.165,4.107,8.311,4.107
	c2.211,0,4.44-0.699,6.333-2.145l0.085-0.065c4.586-3.502,5.464-10.058,1.962-14.645
	C370.282,236.901,363.725,236.023,359.138,239.524z"/>
<path d="M55.393,248.372c5.77,0,10.448-4.677,10.448-10.448c0-63.279,93.236-92.832,173.079-98.91
	c5.754-0.438,10.062-5.458,9.625-11.21c-0.438-5.753-5.463-10.056-11.21-9.624c-49.632,3.779-95.195,15.206-128.295,32.175
	c-41.93,21.497-64.093,51.779-64.093,87.57C44.945,243.695,49.623,248.372,55.393,248.372z"/>
<path d="M271.875,137.745h0.094c5.77,0,10.401-4.677,10.401-10.448s-4.724-10.448-10.495-10.448s-10.448,4.677-10.448,10.448
	S266.105,137.745,271.875,137.745z"/>
<g>
</g>
<g>
</g>
<g>
</g>
<g>
</g>
<g>
</g>
<g>
</g>
<g>
</g>
<g>
</g>
<g>
</g>
<g>
</g>
<g>
</g>
<g>
</g>
<g>
</g>
<g>
</g>
<g>
</g>
</svg>
