<?xml version="1.0" encoding="iso-8859-1"?>
<!-- Generator: Adobe Illustrator 19.0.0, SVG Export Plug-In . SVG Version: 6.00 Build 0)  -->
<svg version="1.1" id="Layer_1" xmlns="http://www.w3.org/2000/svg" xmlns:xlink="http://www.w3.org/1999/xlink" x="0px" y="0px"
	 viewBox="0 0 484.158 484.158" style="enable-background:new 0 0 484.158 484.158;" xml:space="preserve">
<g>
	<g>
		<g>
			<path d="M406.785,44.945c9.64,0,17.482-7.843,17.482-17.482v-9.982c0-9.64-7.843-17.481-17.482-17.481H77.373
				c-9.64,0-17.482,7.842-17.482,17.481v9.982c0,9.64,7.842,17.482,17.482,17.482h12.464v174.661H77.373
				c-9.64,0-17.482,7.843-17.482,17.482v9.982c0,9.64,7.842,17.482,17.482,17.482h12.464v174.661H77.373
				c-9.64,0-17.482,7.842-17.482,17.481v9.982c0,9.64,7.842,17.482,17.482,17.482h329.412c9.64,0,17.482-7.843,17.482-17.482v-9.982
				c0-9.64-7.843-17.481-17.482-17.481h-12.464V264.554h12.464c9.64,0,17.482-7.843,17.482-17.482v-9.982
				c0-9.64-7.843-17.482-17.482-17.482h-12.464V44.945H406.785z M77.373,249.555c-1.345-0.001-2.482-1.138-2.482-2.484v-9.982
				c0-1.346,1.137-2.482,2.482-2.482h67.654c-0.185,2.47-0.288,4.964-0.288,7.474c0,2.51,0.104,5.004,0.288,7.474H77.373z
				 M379.32,219.606h-42.529c-4.742-19.961-15.733-38.069-31.438-51.515c-17.589-15.059-40.06-23.352-63.273-23.352
				s-45.684,8.293-63.273,23.352c-15.706,13.446-26.697,31.555-31.438,51.515h-42.53V104.838h232.072v-15H104.837V44.945H379.32
				V219.606z M379.32,439.215H104.837v-54.876h232.072v-15H104.837V264.554h42.53c4.742,19.961,15.733,38.069,31.439,51.515
				c17.589,15.059,40.06,23.352,63.273,23.352s45.684-8.293,63.273-23.352c15.706-13.446,26.697-31.555,31.438-51.515h42.53V439.215
				z M324.418,242.08c0,4.621-0.369,9.178-1.096,13.543c-6.628,39.863-40.796,68.797-81.243,68.797s-74.615-28.934-81.244-68.799
				c-0.727-4.363-1.096-8.92-1.096-13.541c0-4.621,0.369-9.178,1.096-13.543c6.628-39.863,40.796-68.797,81.244-68.797
				s74.615,28.934,81.243,68.797v0.002C324.049,232.902,324.418,237.459,324.418,242.08z M406.785,454.215
				c1.345,0,2.482,1.137,2.482,2.481v9.982c0,1.346-1.137,2.482-2.482,2.482H77.373c-1.345,0-2.482-1.137-2.482-2.482v-9.982
				c0-1.345,1.137-2.481,2.482-2.481H406.785z M406.785,234.605c1.345,0.001,2.482,1.138,2.482,2.484v9.982
				c0,1.346-1.137,2.482-2.482,2.482h-67.654c0.185-2.47,0.288-4.964,0.288-7.474c0-2.51-0.104-5.004-0.288-7.474H406.785z
				 M77.373,29.945c-1.345,0-2.482-1.136-2.482-2.482v-9.982c0-1.345,1.137-2.481,2.482-2.481h329.412
				c1.346,0,2.482,1.137,2.482,2.481v9.982c0,1.346-1.137,2.482-2.482,2.482H77.373z"/>
			<path d="M248.223,182.877l-6.144-8.777l-6.144,8.777c-0.445,0.636-11.01,15.797-19.977,34.573
				c-12.751,26.701-15.693,47.006-8.745,60.353c5.769,11.079,17.499,16.697,34.866,16.697c17.366,0,29.097-5.618,34.866-16.697
				c6.949-13.346,4.006-33.651-8.745-60.353C259.234,198.674,248.669,183.512,248.223,182.877z M263.638,270.879
				c-2.98,5.721-10.234,8.621-21.559,8.621s-18.579-2.9-21.56-8.621c-7.532-14.458,7.457-47.346,21.56-70.055
				C256.182,223.534,271.17,256.422,263.638,270.879z"/>
		</g>
	</g>
</g>
<g>
</g>
<g>
</g>
<g>
</g>
<g>
</g>
<g>
</g>
<g>
</g>
<g>
</g>
<g>
</g>
<g>
</g>
<g>
</g>
<g>
</g>
<g>
</g>
<g>
</g>
<g>
</g>
<g>
</g>
</svg>
