<?xml version="1.0" encoding="iso-8859-1"?>
<!-- Generator: Adobe Illustrator 19.0.0, SVG Export Plug-In . SVG Version: 6.00 Build 0)  -->
<svg version="1.1" id="Layer_1" xmlns="http://www.w3.org/2000/svg" xmlns:xlink="http://www.w3.org/1999/xlink" x="0px" y="0px"
	 viewBox="0 0 512 512" style="enable-background:new 0 0 512 512;" xml:space="preserve">
<g>
	<g>
		<circle cx="256" cy="256" r="19.654"/>
	</g>
</g>
<g>
	<g>
		<path d="M511.124,235.077c-5.588-68.146-37.38-130.037-89.519-174.272C369.468,16.572,303.227-4.713,235.078,0.877
			C166.932,6.465,105.042,38.256,60.807,90.395C16.572,142.532-4.712,208.776,0.876,276.922
			c5.588,68.146,37.38,130.037,89.519,174.272c46.677,39.602,104.65,60.808,165.183,60.805c7.081,0,14.208-0.29,21.346-0.876
			c68.145-5.588,130.036-37.379,174.271-89.518C495.429,369.467,516.712,303.224,511.124,235.077z M425.732,400.004
			C381.76,451.832,319,478.498,255.831,478.492c-50.9-0.004-102.072-17.328-143.836-52.76
			c-45.337-38.466-72.981-92.284-77.841-151.541c-4.859-59.257,13.647-116.86,52.113-162.198
			c43.972-51.828,106.732-78.488,169.901-78.488c50.9,0,102.072,17.328,143.836,52.76c45.337,38.466,72.981,92.284,77.841,151.541
			C482.704,297.064,464.199,354.667,425.732,400.004z"/>
	</g>
</g>
<g>
	<g>
		<path d="M356.022,82.791c-30.277-17.519-64.864-26.779-100.021-26.779c-35.156,0-69.742,9.26-100.02,26.779l-14.438,8.353
			l81.483,141.135l14.458-8.346c11.43-6.597,25.61-6.596,37.009,0.002l14.465,8.373l81.501-141.164L356.022,82.791z M275.74,188.421
			c-6.438-1.874-13.09-2.811-19.744-2.811c-6.649,0-13.3,0.936-19.736,2.808l-48.697-84.346C208.96,94.437,232.32,89.4,256.001,89.4
			c23.68,0,47.042,5.037,68.439,14.672L275.74,188.421z"/>
	</g>
</g>
<g>
	<g>
		<path d="M456.001,239.307H293.004l0.009,16.702c0.004,8.761-3.114,17.265-8.781,23.943c-2.766,3.261-6.036,5.992-9.714,8.116
			l-14.461,8.346l81.487,141.139l14.452-8.326c30.312-17.464,55.626-42.786,73.202-73.231
			c17.578-30.444,26.852-65.028,26.819-100.011L456.001,239.307z M400.28,339.3c-11.84,20.507-27.882,38.22-46.925,51.934
			l-48.693-84.338c1.762-1.686,3.44-3.468,5.031-5.342c7.12-8.393,12.127-18.298,14.704-28.858h97.398
			C419.439,296.043,412.12,318.793,400.28,339.3z"/>
	</g>
</g>
<g>
	<g>
		<polygon points="293.004,239.307 293.004,239.307 293.004,239.306 		"/>
	</g>
</g>
<g>
	<g>
		<path d="M237.506,288.064c-1.962-1.135-3.8-2.425-5.457-3.832c-8.295-7.037-13.055-17.33-13.061-28.241l-0.009-16.687H56
			l-0.016,16.679c-0.032,34.981,9.241,69.563,26.819,100.01c17.578,30.446,42.891,55.769,73.202,73.232l14.452,8.325l81.483-141.132
			L237.506,288.064z M158.646,391.234c-19.042-13.713-35.086-31.426-46.926-51.934c-11.84-20.508-19.158-43.258-21.513-66.605H187.6
			c3.158,12.975,9.959,24.853,19.74,34.2L158.646,391.234z"/>
	</g>
</g>
<g>
</g>
<g>
</g>
<g>
</g>
<g>
</g>
<g>
</g>
<g>
</g>
<g>
</g>
<g>
</g>
<g>
</g>
<g>
</g>
<g>
</g>
<g>
</g>
<g>
</g>
<g>
</g>
<g>
</g>
</svg>
