<?xml version="1.0" encoding="iso-8859-1"?>
<!-- Generator: Adobe Illustrator 19.0.0, SVG Export Plug-In . SVG Version: 6.00 Build 0)  -->
<svg version="1.1" id="Layer_1" xmlns="http://www.w3.org/2000/svg" xmlns:xlink="http://www.w3.org/1999/xlink" x="0px" y="0px"
	 viewBox="0 0 512.32 512.32" style="enable-background:new 0 0 512.32 512.32;" xml:space="preserve">
<g transform="translate(1 1)">
	<g>
		<g>
			<path d="M69.969,70.147c-3.413,3.413-3.413,8.533,0,11.947l230.4,230.4c1.707,1.707,3.413,2.56,5.973,2.56
				s4.267-0.853,5.973-2.56c3.413-3.413,3.413-8.533,0-11.947l-230.4-230.4C78.503,66.733,73.383,66.733,69.969,70.147z"/>
			<path d="M477.863,92.333c0.853-0.853,1.707-1.707,1.707-2.56l30.72-78.507c1.707-3.413,0.853-6.827-1.707-9.387
				c-2.56-2.56-5.973-3.413-9.387-2.56l-78.507,30.72c-0.853,0-1.707,0.853-2.56,1.707l-162.56,162.56L93.009,31.747
				c-0.853-0.853-2.56-0.853-3.413-0.853L11.089,0.173C7.676-1.533,4.263-0.68,1.703,1.88s-2.56,5.973-1.707,9.387l30.72,78.507
				c0,0.853,0.853,1.707,1.707,2.56L195.409,255.32l-36.88,36.88c-4.337-6.622-11.885-11.28-20.293-11.28
				c-7.68-0.853-15.36,2.56-20.48,8.533s-7.68,14.507-5.973,22.187c2.62,13.1,7.502,25.551,14.429,36.771l-87.08,87.08
				c-7.761-6.033-19.233-5.513-26.336,1.589l-7.68,7.68c-4.267,4.267-5.973,9.387-5.973,14.507c0,5.973,2.56,11.093,5.973,14.507
				l31.573,31.573c4.267,4.267,9.387,5.973,14.507,5.973s10.24-2.56,14.507-5.973l7.68-7.68c4.267-4.267,5.973-9.387,5.973-14.507
				c0-4.528-1.473-8.564-3.671-11.739l86.254-87.018c11.711,7.402,24.644,12.448,38.59,15.13c1.707,0,2.56,0,4.267,0
				c5.973,0,11.947-2.56,15.36-6.827c5.973-5.12,9.387-12.8,9.387-20.48c0-7.911-3.756-15.429-9.753-20.114l36.206-36.206
				l35.869,35.869c-7.285,4.548-11.976,12.453-11.976,21.304c0,7.68,3.413,15.36,9.387,20.48c4.267,4.267,10.24,5.973,16.213,5.973
				c1.707,0,2.56-0.853,4.267,0c13.956-2.684,26.896-7.735,38.614-15.146l86.551,86.551c-2.819,3.752-3.992,7.986-3.992,12.222
				c0,5.973,2.56,11.093,5.973,14.507l7.68,7.68c4.267,4.267,9.387,5.973,14.507,5.973s10.24-2.56,13.653-5.973l31.573-31.573
				c4.267-4.267,5.973-9.387,5.973-14.507c0-5.973-2.56-11.093-5.973-14.507l-7.68-7.68c-6.954-6.954-18.095-7.589-25.842-1.949
				l-87.133-87.133c6.603-11.113,11.401-23.418,13.989-36.358c0.853-8.533-0.853-16.213-5.973-22.187s-12.8-8.533-20.48-8.533
				c-7.853,0-14.951,3.703-19.39,9.623l-35.666-35.666L477.863,92.333z M429.223,46.253l58.88-23.04l-23.04,58.88L303.358,242.096
				l-11.522-11.522l148.48-148.48c3.413-3.413,3.413-8.533,0-11.947c-3.413-3.413-8.533-3.413-11.947,0l-148.48,148.48
				l-12.371-12.371L429.223,46.253z M61.436,485.72l-7.68,7.68c-1.707,0.853-3.413,0.853-4.267,0l-32.427-31.573
				c-0.853-0.853-0.853-1.707-0.853-2.56c0-0.853,0-1.707,1.707-2.56l7.68-7.68c0.853-0.853,3.413-0.853,4.267,0l1.543,1.543
				c0.426,0.975,1.047,1.9,1.871,2.724l23.893,23.893c0.903,0.903,1.809,1.559,2.838,1.985l1.429,1.429
				c0.853,0.853,0.853,1.707,0.853,2.56S62.289,484.867,61.436,485.72z M63.439,458.971l-12.106-11.787l84.978-84.978
				c1.705,1.976,3.483,3.898,5.339,5.754c0.853,0.853,0.853,0.853,0.853,0.853c1.867,1.867,3.784,3.645,5.74,5.353L63.439,458.971z
				 M209.916,379.907c-1.707,0.853-3.413,2.56-6.827,1.707c-17.92-3.413-35.84-12.8-48.64-25.6
				c-12.8-12.8-21.333-29.867-24.747-48.64c-0.853-2.56,0-5.973,1.707-7.68c0.853-0.853,3.413-2.56,6.827-2.56
				s6.827,3.413,7.68,6.827c0.166,0.941,0.352,1.877,0.554,2.81c-0.03,0.799,0.059,1.589,0.3,2.31
				c3.413,12.8,10.24,24.747,19.627,34.987c9.387,9.387,21.333,16.213,34.133,19.627c0.653,0,1.305,0,1.958,0
				c1.337,0.322,2.676,0.617,4.015,0.853c4.267,0.853,6.827,4.267,6.827,8.533C213.329,375.64,211.623,378.2,209.916,379.907z
				 M200.529,344.92c-8.533-2.56-15.36-7.68-22.187-13.653c-5.973-5.973-11.093-13.653-13.653-22.187l42.24-42.24l35.84,35.84
				L200.529,344.92z M482.983,448.173c0.853,0,1.707,0,2.56,0.853l7.68,7.68c0.853,0.853,0.853,1.707,0.853,2.56
				c0,0,0,0.853-1.707,2.56L460.796,493.4c-0.853,0.853-3.413,0.853-4.267,0l-7.68-7.68c-0.853-0.853-0.853-1.707-0.853-2.56
				c0-0.853,0-1.707,0.853-2.56l1.669-1.669c0.934-0.42,1.848-0.995,2.597-1.744l23.893-23.893c0.824-0.824,1.445-1.749,1.871-2.724
				l1.543-1.543C481.276,448.173,482.129,448.173,482.983,448.173z M458.663,446.893l-11.947,11.947l-84.673-84.673
				c1.956-1.708,3.873-3.487,5.74-5.353c0.853-0.853,0.853-0.853,0.853-0.853c1.797-1.903,3.528-3.873,5.192-5.902L458.663,446.893z
				 M372.903,297.987c3.413,0,5.12,1.707,5.973,2.56c1.707,2.56,2.56,5.12,1.707,7.68c-3.413,17.92-11.947,34.133-24.746,47.786
				l-0.001,0.001c-12.8,12.8-29.866,22.186-48.639,25.599c-3.413,0.853-5.973-0.853-6.827-1.707
				c-2.56-1.707-3.413-4.267-3.413-6.827c0-3.413,3.413-6.827,6.827-7.68c14.507-2.56,28.16-10.24,40.107-21.333
				c0.211-0.211,0.411-0.43,0.619-0.643c0.078-0.071,0.157-0.139,0.235-0.21c10.24-9.387,16.213-21.333,19.627-34.987
				c0-0.725-0.076-1.52-0.213-2.323c0.07-0.364,0.149-0.725,0.213-1.09C365.223,300.547,368.636,297.987,372.903,297.987z
				 M331.503,331.691c-0.232,0.229-0.467,0.453-0.701,0.678c-6.731,5.866-13.486,10.88-21.899,13.404L45.223,82.093L23.036,22.36
				l58.88,23.04l262.827,264.533C342.242,317.434,337.297,325.743,331.503,331.691z"/>
		</g>
	</g>
</g>
<g>
</g>
<g>
</g>
<g>
</g>
<g>
</g>
<g>
</g>
<g>
</g>
<g>
</g>
<g>
</g>
<g>
</g>
<g>
</g>
<g>
</g>
<g>
</g>
<g>
</g>
<g>
</g>
<g>
</g>
</svg>
