<?xml version="1.0" encoding="iso-8859-1"?>
<!-- Generator: Adobe Illustrator 16.0.0, SVG Export Plug-In . SVG Version: 6.00 Build 0)  -->
<!DOCTYPE svg PUBLIC "-//W3C//DTD SVG 1.1//EN" "http://www.w3.org/Graphics/SVG/1.1/DTD/svg11.dtd">
<svg version="1.1" id="Capa_1" xmlns="http://www.w3.org/2000/svg" xmlns:xlink="http://www.w3.org/1999/xlink" x="0px" y="0px"
	 width="62px" height="62px" viewBox="0 0 62 62" style="enable-background:new 0 0 62 62;" xml:space="preserve">
<g>
	<g>
		<path d="M61,37.224h-9V23.778c0-0.552-0.447-1-1-1h-9V9.333c0-0.552-0.447-1-1-1H21c-0.553,0-1,0.448-1,1v13.444h-9
			c-0.553,0-1,0.448-1,1v13.445H1c-0.553,0-1,0.448-1,1v14.444c0,0.552,0.447,1,1,1h20h20h20c0.553,0,1-0.448,1-1V38.224
			C62,37.67,61.553,37.224,61,37.224z M50,37.224h-9h-9V24.778h9h9V37.224z M22,10.333h18v12.444h-9h-9V10.333z M12,24.778h9h9
			v12.446h-9h-9V24.778z M2,39.224h9h9v12.443H2V39.224z M22,39.224h9h9v12.443H22V39.224z M60,51.667H42V39.224h9h9V51.667z"/>
		<path d="M37.25,20.333c0.553,0,1-0.448,1-1v-7.25c0-0.552-0.447-1-1-1s-1,0.448-1,1v7.25C36.25,19.887,36.697,20.333,37.25,20.333
			z"/>
		<path d="M47.25,34.583c0.553,0,1-0.447,1-1v-7.25c0-0.552-0.447-1-1-1s-1,0.448-1,1v7.25C46.25,34.136,46.697,34.583,47.25,34.583
			z"/>
		<path d="M57.5,48.083c0.553,0,1-0.447,1-1v-6.654c0-0.552-0.447-1-1-1s-1,0.448-1,1v6.654C56.5,47.636,56.947,48.083,57.5,48.083z
			"/>
	</g>
</g>
<g>
</g>
<g>
</g>
<g>
</g>
<g>
</g>
<g>
</g>
<g>
</g>
<g>
</g>
<g>
</g>
<g>
</g>
<g>
</g>
<g>
</g>
<g>
</g>
<g>
</g>
<g>
</g>
<g>
</g>
</svg>
