<?xml version="1.0" encoding="iso-8859-1"?>
<!-- Generator: Adobe Illustrator 19.0.0, SVG Export Plug-In . SVG Version: 6.00 Build 0)  -->
<svg version="1.1" id="Layer_1" xmlns="http://www.w3.org/2000/svg" xmlns:xlink="http://www.w3.org/1999/xlink" x="0px" y="0px"
	 viewBox="0 0 512.002 512.002" style="enable-background:new 0 0 512.002 512.002;" xml:space="preserve">
<g>
	<g>
		<g>
			<path d="M503.917,495.829h-1.078c-4.466,0-8.084,3.618-8.084,8.084c0,4.466,3.619,8.084,8.084,8.084h1.078
				c4.466,0,8.084-3.618,8.084-8.084C512.001,499.448,508.383,495.829,503.917,495.829z"/>
			<path d="M472.658,495.829h-1.078c-4.466,0-8.084,3.618-8.084,8.084c0,4.466,3.618,8.084,8.084,8.084h1.078
				c4.466,0,8.084-3.618,8.084-8.084C480.742,499.449,477.124,495.829,472.658,495.829z"/>
			<path d="M405.828,60.362h-5.39c-4.466,0-8.084,3.618-8.084,8.084c0,4.466,3.618,8.084,8.084,8.084h5.39
				c4.466,0,8.084-3.618,8.084-8.084C413.913,63.981,410.294,60.362,405.828,60.362z"/>
			<path d="M9.163,495.829H8.085c-4.465,0-8.084,3.618-8.084,8.084c0,4.466,3.62,8.084,8.084,8.084h1.078
				c4.465,0,8.084-3.618,8.084-8.084C17.247,499.448,13.628,495.829,9.163,495.829z"/>
			<path d="M246.3,495.829h-1.078c-4.465,0-8.084,3.618-8.084,8.084c0,4.466,3.62,8.084,8.084,8.084h1.078
				c4.465,0,8.084-3.618,8.084-8.084C254.384,499.448,250.765,495.829,246.3,495.829z"/>
			<path d="M495.615,70.348l-18.108-9.053c-0.098-0.053-0.199-0.102-0.301-0.151L444.06,44.571
				c-15.651-7.826-33.13-12.044-50.628-12.228V20.613C393.433,9.246,384.186,0,372.82,0c-8.886,0-16.744,5.664-19.554,14.093
				l-7.807,23.423l-65.823,150.453c-5.419-7.145-13.996-11.768-23.634-11.768c-0.661,0-1.319,0.082-1.961,0.241l-9.004,2.252
				c-21.034,5.259-43.27,5.26-64.303,0l-9.004-2.252c-0.64-0.161-1.3-0.241-1.961-0.241c-12.391,0-23.032,7.644-27.454,18.464
				l-7.139-0.296c-4.513-0.188-8.93-1.134-13.129-2.813l-10.202-4.081c-23.121-9.245-49.73-1.869-64.895,17.5
				C20.7,207.14,0.001,229.197,0.001,255.999v107.79c0,4.466,3.62,8.084,8.084,8.084c21.675,0,40.249-13.541,47.705-32.604
				c2.637,2.495,5.62,4.649,8.884,6.375v56.204c-5.186,3.365-8.623,9.206-8.623,15.835v43.116c0,7.268,4.133,13.591,10.172,16.74
				l6.098,18.293H40.422c-4.465,0-8.084,3.618-8.084,8.084c0,4.466,3.62,8.084,8.084,8.084h42.926c0.126,0.002,0.251,0.002,0.377,0
				h53.533c0.112,0.002,0.225,0.002,0.337,0h49.246c0.112,0.002,0.225,0.002,0.337,0h25.707c4.465,0,8.084-3.618,8.084-8.084
				c0-4.466-3.62-8.084-8.084-8.084h-14.067c0.785-4.456,0.455-9.063-1.016-13.476c-2.329-6.99-7.242-12.653-13.833-15.948
				c-1.19-0.595-2.423-1.102-3.688-1.519c0.292-1.317,0.446-2.685,0.446-4.089v-43.116c0-5.9-2.723-11.177-6.978-14.638
				l10.818-68.114c0.218,0.036,0.434,0.07,0.651,0.107l80.135,13.356v53.332c-5.292,3.346-8.814,9.247-8.814,15.958V460.8
				c0,7.361,4.237,13.751,10.402,16.857l6.445,19.332c-2.344,1.416-3.912,3.988-3.912,6.927c0,4.466,3.618,8.084,8.084,8.084h6.468
				c0.063,0.001,0.125,0.002,0.189,0.002c0.064,0,0.125-0.001,0.189-0.002h53.531c0.113,0.002,0.225,0.002,0.338,0h50.323
				c0.113,0.002,0.225,0.002,0.339,0h50.307c4.466,0,8.084-3.618,8.084-8.084c0-4.466-3.618-8.084-8.084-8.084h-38.668
				c0.786-4.456,0.455-9.063-1.015-13.476c-2.33-6.99-7.243-12.653-13.833-15.948c-1.036-0.518-2.104-0.97-3.198-1.352
				c0.317-1.368,0.484-2.793,0.484-4.256v-43.116c0-6.445-3.249-12.145-8.194-15.549l15.009-102.058
				c0.398-1.207,0.762-2.425,1.095-3.656h18.763c26.86,0,49.301-20.994,51.087-47.794l7.453-111.786l6.945,1.737
				c8.914,2.229,18.185,0.263,25.432-5.393c7.244-5.657,11.4-14.173,11.4-23.364V96.86
				C512.001,85.561,505.723,75.402,495.615,70.348z M43.117,320.673c0,16.535-11.515,30.431-26.947,34.091v-98.764
				c0-16.535,11.515-30.431,26.947-34.091V320.673z M156.296,205.843c0-7.133,5.572-12.99,12.592-13.446l7.925,1.982
				c23.598,5.899,48.546,5.899,72.146,0l7.925-1.982c7.02,0.456,12.592,6.312,12.592,13.446v17.815
				c0,9.912-4.016,19.067-11.311,25.78c-7.295,6.712-16.755,9.947-26.629,9.132l-43.116-3.594
				c-18.013-1.501-32.122-16.837-32.122-34.911V205.843z M74.915,463.493c-1.485,0-2.695-1.208-2.695-2.695v-43.116
				c0-0.967,0.511-1.816,1.277-2.292c0.654-0.059,1.288-0.197,1.89-0.403h45.517c0.239,0,0.47,0.031,0.69,0.089
				c0.121,0.045,0.244,0.087,0.368,0.126c0.963,0.412,1.638,1.369,1.638,2.479v43.116c0,1.486-1.209,2.695-2.695,2.695H74.915z
				 M132.429,495.829H89.365l-5.389-16.168h38.074c1.761,0,3.528,0.417,5.105,1.205c2.727,1.365,4.76,3.707,5.725,6.6
				C133.802,490.235,133.641,493.19,132.429,495.829z M176.738,480.864c2.727,1.365,4.76,3.707,5.725,6.6
				c0.923,2.769,0.761,5.724-0.451,8.363h-32.778c0.785-4.456,0.455-9.063-1.016-13.476c-1.871-5.616-5.41-10.376-10.147-13.739
				c1.09-2.383,1.697-5.029,1.697-7.817V417.68c0-5.741-2.578-10.891-6.638-14.353l8.645-64.833
				c8.612-2.883,17.579-4.447,26.595-4.655l-10.32,64.98h-5.716c-4.465,0-8.084,3.618-8.084,8.084c0,4.466,3.62,8.084,8.084,8.084
				h9.531c0.203,0,0.4,0.023,0.59,0.066c0.106,0.032,0.213,0.065,0.321,0.093c1.039,0.375,1.784,1.371,1.784,2.537v43.116
				c0,1.486-1.209,2.695-2.695,2.695c-4.465,0-8.084,3.618-8.084,8.084c0,4.466,3.62,8.084,8.084,8.084
				c0.056-0.001,0.114-0.001,0.17,0h9.599C173.396,479.661,175.161,480.078,176.738,480.864z M187.878,319.088
				c-18.966-3.164-38.478-1.099-56.43,5.965c-2.731,1.075-4.665,3.545-5.053,6.454l-8.975,67.311H80.843v-52.104
				c1.623-1.676,2.476-4.013,2.237-6.423c-0.331-3.336-2.688-6.121-5.923-7.001c-10.522-2.861-17.871-12.483-17.871-23.398v-94.437
				c10.711-14.167,29.904-19.634,46.555-12.97l10.203,4.081c5.904,2.361,12.114,3.692,18.46,3.955l5.623,0.235v9.31
				c0,26.417,20.622,48.829,46.949,51.021l43.116,3.594c14.238,1.2,28.413-3.679,38.92-13.345
				c10.507-9.668,16.533-23.401,16.533-37.678v-9.941c0.501-0.59,0.926-1.26,1.251-2.005l9.51-21.737l19.071,67.782
				c5.749,22.769,26.145,38.662,49.641,38.662H374c-6.48,18.174-22.048,32.414-41.673,36.521c-3.355,0.703-5.904,3.446-6.357,6.845
				l-7.872,59.034h-36.576v-53.156c0.855-1.528,1.213-3.33,0.94-5.149c-0.522-3.462-3.212-6.197-6.666-6.771L187.878,319.088z
				 M275.403,463.493c-1.486,0-2.695-1.208-2.695-2.695v-43.116c0-1.486,1.208-2.695,2.695-2.695h45.991
				c1.486,0,2.695,1.208,2.695,2.695v43.116c0,1.486-1.208,2.695-2.695,2.695H275.403z M333.107,495.829h-43.064l-5.389-16.168
				h38.076c1.761,0,3.527,0.417,5.105,1.205c2.728,1.365,4.76,3.707,5.725,6.6C334.481,490.235,334.319,493.19,333.107,495.829z
				 M378.494,480.867c2.728,1.365,4.76,3.707,5.725,6.6c0.922,2.769,0.76,5.724-0.452,8.363h-33.855
				c0.786-4.456,0.455-9.063-1.015-13.476c-1.892-5.673-5.483-10.472-10.292-13.84c1.06-2.356,1.65-4.968,1.65-7.716v-43.116
				c0-5.661-2.506-10.748-6.467-14.208l7.483-56.127c10.363-3.059,19.697-8.357,27.509-15.283l-9.816,66.754h-4.515
				c-4.466,0-8.084,3.618-8.084,8.084c0,4.466,3.618,8.084,8.084,8.084h9.701c1.486,0,2.695,1.208,2.695,2.695v43.116
				c0,1.486-1.208,2.695-2.695,2.695h-0.359c-4.466,0-8.084,3.618-8.084,8.084c0,4.466,3.618,8.084,8.084,8.084h9.6
				C375.153,479.661,376.918,480.078,378.494,480.867z M377.68,210.327c-0.275,0.825-0.415,1.687-0.415,2.557v64.674
				c0,0.902-0.023,1.8-0.065,2.695h-12.082c-16.104,0-30.08-10.912-33.985-26.536c-0.021-0.075-0.04-0.153-0.061-0.229
				l-24.173-85.909c-0.086-0.305-0.189-0.601-0.306-0.888l38.53-88.07l46.648,89.429L377.68,210.327z M444.639,247.55
				c-1.222,18.337-16.576,32.701-34.954,32.701h-16.303c0.033-0.895,0.051-1.794,0.051-2.695v-63.362l25.61-76.826
				c2.212-6.638,9.26-10.508,16.05-8.811l17.193,4.298L444.639,247.55z M454.711,116.797l-15.696-3.925
				c-14.931-3.731-30.442,4.78-35.311,19.383l-4.821,14.464l-22.557-43.242h81.344L454.711,116.797z M461.26,87.322
				c-0.153-0.009-0.305-0.013-0.459-0.013h-92.909l-14.45-27.702l6.976-15.946c0.098-0.223,0.186-0.452,0.263-0.683l7.924-23.771
				c0.605-1.817,2.3-3.039,4.216-3.039c2.45,0,4.444,1.994,4.444,4.444v19.808c0,4.466,3.618,8.084,8.084,8.084h6.892
				c15.398,0,30.816,3.64,44.588,10.526l27.646,13.823L461.26,87.322z M495.834,109.82c0,4.178-1.888,8.049-5.182,10.62
				c-3.293,2.571-7.505,3.462-11.559,2.45l-8.691-2.173l8.98-40.411l9.004,4.501c4.594,2.298,7.448,6.916,7.448,12.052h0.001V109.82
				z"/>
			<path d="M249.103,222.721c1.038,0.445,2.118,0.655,3.181,0.655c3.136,0,6.12-1.837,7.434-4.901l0.6-1.401
				c1.759-4.105-0.141-8.857-4.245-10.616c-4.101-1.757-8.856,0.142-10.615,4.245l-0.6,1.401
				C243.098,216.21,244.999,220.962,249.103,222.721z"/>
			<path d="M183.842,242.595l36.108,3.01c1.226,0.102,2.452,0.153,3.678,0.153c6.335,0,12.617-1.357,18.359-3.986
				c4.059-1.86,5.842-6.657,3.984-10.716c-1.859-4.059-6.657-5.844-10.716-3.984c-4.332,1.984-9.158,2.819-13.962,2.422
				l-36.108-3.009c-4.448-0.37-8.357,2.936-8.728,7.386C176.086,238.317,179.393,242.224,183.842,242.595z"/>
		</g>
	</g>
</g>
<g>
</g>
<g>
</g>
<g>
</g>
<g>
</g>
<g>
</g>
<g>
</g>
<g>
</g>
<g>
</g>
<g>
</g>
<g>
</g>
<g>
</g>
<g>
</g>
<g>
</g>
<g>
</g>
<g>
</g>
</svg>
