<?xml version="1.0" encoding="iso-8859-1"?>
<!-- Generator: Adobe Illustrator 19.0.0, SVG Export Plug-In . SVG Version: 6.00 Build 0)  -->
<svg version="1.1" id="Layer_1" xmlns="http://www.w3.org/2000/svg" xmlns:xlink="http://www.w3.org/1999/xlink" x="0px" y="0px"
	 viewBox="0 0 512 512" style="enable-background:new 0 0 512 512;" xml:space="preserve">
<g transform="translate(1 1)">
	<g>
		<g>
			<path d="M144.067,161.133c5.12,0,8.533-3.413,8.533-8.533s3.413-8.533,8.533-8.533s8.533-3.413,8.533-8.533
				S166.253,127,161.133,127c-14.507,0-25.6,11.093-25.6,25.6C135.533,157.72,138.947,161.133,144.067,161.133z"/>
			<path d="M84.333,263.533c5.12,0,8.533-3.413,8.533-8.533c0-5.12,3.413-8.533,8.533-8.533s8.533-3.413,8.533-8.533
				s-3.413-8.533-8.533-8.533c-14.507,0-25.6,11.093-25.6,25.6C75.8,260.12,79.213,263.533,84.333,263.533z"/>
			<path d="M67.267,340.333c0-5.12-3.413-8.533-8.533-8.533c-14.507,0-25.6,11.093-25.6,25.6c0,5.12,3.413,8.533,8.533,8.533
				S50.2,362.52,50.2,357.4c0-5.12,3.413-8.533,8.533-8.533S67.267,345.453,67.267,340.333z"/>
			<path d="M161.133,331.8c-14.507,0-25.6,11.093-25.6,25.6c0,5.12,3.413,8.533,8.533,8.533c5.12,0,8.533-3.413,8.533-8.533
				c0-5.12,3.413-8.533,8.533-8.533s8.533-3.413,8.533-8.533S166.253,331.8,161.133,331.8z"/>
			<path d="M289.133,178.2h51.2c5.12,0,8.533-3.413,8.533-8.533c0-5.12-3.413-8.533-8.533-8.533h-51.2
				c-5.12,0-8.533,3.413-8.533,8.533C280.6,174.787,284.013,178.2,289.133,178.2z"/>
			<path d="M297.667,144.067h8.533c5.12,0,8.533-3.413,8.533-8.533S311.32,127,306.2,127h-8.533c-5.12,0-8.533,3.413-8.533,8.533
				S292.547,144.067,297.667,144.067z"/>
			<path d="M186.733,263.533c5.12,0,8.533-3.413,8.533-8.533c0-5.12,3.413-8.533,8.533-8.533c5.12,0,8.533-3.413,8.533-8.533
				s-3.413-8.533-8.533-8.533c-14.507,0-25.6,11.093-25.6,25.6C178.2,260.12,181.613,263.533,186.733,263.533z"/>
			<path d="M331.8,280.6H383c5.12,0,8.533-3.413,8.533-8.533s-3.413-8.533-8.533-8.533h-51.2c-5.12,0-8.533,3.413-8.533,8.533
				S326.68,280.6,331.8,280.6z"/>
			<path d="M340.333,246.467h8.533c5.12,0,8.533-3.413,8.533-8.533s-3.413-8.533-8.533-8.533h-8.533
				c-5.12,0-8.533,3.413-8.533,8.533S335.213,246.467,340.333,246.467z"/>
			<path d="M263.533,331.8c-14.507,0-25.6,11.093-25.6,25.6c0,5.12,3.413,8.533,8.533,8.533S255,362.52,255,357.4
				c0-5.12,3.413-8.533,8.533-8.533s8.533-3.413,8.533-8.533S268.653,331.8,263.533,331.8z"/>
			<path d="M442.733,365.933h-51.2c-5.12,0-8.533,3.413-8.533,8.533s3.413,8.533,8.533,8.533h51.2c5.12,0,8.533-3.413,8.533-8.533
				S447.853,365.933,442.733,365.933z"/>
			<path d="M400.067,348.867h8.533c5.12,0,8.533-3.413,8.533-8.533s-3.413-8.533-8.533-8.533h-8.533
				c-5.12,0-8.533,3.413-8.533,8.533S394.947,348.867,400.067,348.867z"/>
			<path d="M508.412,375.013c1.681-5.557,2.588-11.467,2.588-17.613c0-6.138-0.906-12.04-2.582-17.59
				c-0.095-2.012-0.723-3.743-1.794-5.072c-8.83-21.859-30.126-37.072-55.358-37.072h-17.722
				c5.888-5.797,10.551-12.826,13.616-20.693c0.864-1.211,1.416-2.688,1.518-4.36c1.681-5.557,2.588-11.467,2.588-17.613
				c0-6.138-0.906-12.04-2.582-17.59c-0.095-2.012-0.723-3.743-1.794-5.071c-8.83-21.859-30.126-37.072-55.358-37.072h-0.656
				c5.888-5.797,10.551-12.826,13.616-20.694c0.863-1.211,1.416-2.688,1.518-4.36c1.681-5.557,2.589-11.467,2.589-17.613
				c0-6.138-0.906-12.04-2.582-17.59c-0.095-2.012-0.723-3.743-1.793-5.071c-8.83-21.859-30.126-37.072-55.358-37.072H161.133
				c-33.28,0-59.733,26.453-59.733,59.733c0,19.245,8.858,36.195,22.755,47.079c-6.997-2.84-14.672-4.412-22.755-4.412
				c-33.28,0-59.733,26.453-59.733,59.733c0,16.818,6.762,31.885,17.74,42.683c-0.225-0.002-0.447-0.017-0.673-0.017
				C25.453,297.667-1,324.12-1,357.4c0,33.28,26.453,59.733,59.733,59.733h102.4h102.4h187.733c25.496,0,46.969-15.534,55.627-37.76
				C507.757,378.162,508.31,376.685,508.412,375.013z M391.533,212.333c14.218,0,26.621,6.649,34.336,17.067H383
				c-5.12,0-8.533,3.413-8.533,8.533s3.413,8.533,8.533,8.533h50.375c0.54,2.751,0.825,5.603,0.825,8.533
				c0,2.93-0.286,5.782-0.825,8.533h-16.241c-5.12,0-8.533,3.413-8.533,8.533s3.413,8.533,8.533,8.533h8.736
				c-7.715,10.418-20.118,17.067-34.336,17.067h-128h-17.722c4.969-4.891,9.07-10.657,12.071-17.067h31.251
				c5.12,0,8.533-3.413,8.533-8.533s-3.413-8.533-8.533-8.533h-26.202c0.11-0.785,0.216-1.572,0.296-2.369
				c0.013-0.134,0.018-0.272,0.031-0.406c0.081-0.875,0.154-1.754,0.198-2.645c0.052-1.031,0.078-2.068,0.078-3.113
				c0-1.045-0.026-2.083-0.078-3.113c-0.044-0.89-0.116-1.769-0.198-2.645c-0.013-0.135-0.017-0.272-0.031-0.406
				c-0.08-0.798-0.186-1.584-0.296-2.369H306.2c5.12,0,8.533-3.413,8.533-8.533s-3.413-8.533-8.533-8.533h-48.318
				c-3.002-6.409-7.103-12.175-12.071-17.067h103.056H391.533z M263.533,400.067c-23.893,0-42.667-18.773-42.667-42.667
				c0-23.893,18.773-42.667,42.667-42.667c23.893,0,42.667,18.773,42.667,42.667C306.2,381.293,287.427,400.067,263.533,400.067z
				 M161.133,400.067c-23.893,0-42.667-18.773-42.667-42.667c0-23.893,18.773-42.667,42.667-42.667
				c23.893,0,42.667,18.773,42.667,42.667C203.8,381.293,185.027,400.067,161.133,400.067z M203.8,212.333
				c23.893,0,42.667,18.773,42.667,42.667s-18.773,42.667-42.667,42.667c-23.893,0-42.667-18.773-42.667-42.667
				S179.907,212.333,203.8,212.333z M203.8,314.733h17.722c-3.525,3.471-6.62,7.377-9.189,11.646
				c-2.574-4.276-5.674-8.188-9.207-11.663C203.352,314.719,203.574,314.733,203.8,314.733z M161.807,297.683
				c-0.225-0.002-0.447-0.017-0.673-0.017c-8.083,0-15.758,1.572-22.755,4.412c5.661-4.434,10.493-9.864,14.222-16.058
				C155.174,290.297,158.274,294.209,161.807,297.683z M348.867,109.933c14.218,0,26.621,6.649,34.336,17.067h-42.87
				c-5.12,0-8.533,3.413-8.533,8.533s3.413,8.533,8.533,8.533h50.375c0.54,2.751,0.825,5.603,0.825,8.533s-0.286,5.782-0.825,8.533
				h-16.241c-5.12,0-8.533,3.413-8.533,8.533c0,5.12,3.413,8.533,8.533,8.533h8.736c-7.715,10.418-20.118,17.067-34.336,17.067
				H203.8h-0.656c4.969-4.891,9.07-10.657,12.071-17.067h31.251c5.12,0,8.533-3.413,8.533-8.533c0-5.12-3.413-8.533-8.533-8.533
				h-26.202c0.11-0.785,0.216-1.572,0.296-2.369c0.013-0.134,0.018-0.272,0.031-0.406c0.081-0.875,0.154-1.754,0.198-2.645
				c0.052-1.031,0.078-2.068,0.078-3.113s-0.026-2.083-0.078-3.113c-0.044-0.89-0.116-1.769-0.198-2.645
				c-0.013-0.135-0.017-0.272-0.031-0.406c-0.08-0.798-0.186-1.584-0.296-2.369h43.269c5.12,0,8.533-3.413,8.533-8.533
				S268.653,127,263.533,127h-48.318c-3.002-6.409-7.103-12.175-12.071-17.067H348.867z M118.467,152.6
				c0-23.893,18.773-42.667,42.667-42.667c23.893,0,42.667,18.773,42.667,42.667c0,23.893-18.773,42.667-42.667,42.667
				C137.24,195.267,118.467,176.493,118.467,152.6z M161.133,212.333h0.656c-3.525,3.471-6.62,7.377-9.189,11.646
				c-3.728-6.194-8.56-11.625-14.222-16.058C145.375,210.761,153.05,212.333,161.133,212.333z M58.733,255
				c0-23.893,18.773-42.667,42.667-42.667c23.893,0,42.667,18.773,42.667,42.667s-18.773,42.667-42.667,42.667
				C77.507,297.667,58.733,278.893,58.733,255z M101.4,314.733c8.083,0,15.758-1.572,22.755-4.412
				c-5.661,4.434-10.493,9.864-14.222,16.058c-2.574-4.276-5.674-8.188-9.207-11.663C100.952,314.719,101.174,314.733,101.4,314.733
				z M16.067,357.4c0-23.893,18.773-42.667,42.667-42.667S101.4,333.507,101.4,357.4c0,23.893-18.773,42.667-42.667,42.667
				S16.067,381.293,16.067,357.4z M100.744,400.067c3.525-3.471,6.62-7.377,9.189-11.646c2.57,4.269,5.664,8.175,9.189,11.646
				H100.744z M203.144,400.067c3.525-3.471,6.62-7.377,9.189-11.646c2.57,4.269,5.664,8.175,9.189,11.646H203.144z M451.267,400.067
				H305.544c4.969-4.891,9.07-10.657,12.071-17.067h31.251c5.12,0,8.533-3.413,8.533-8.533s-3.413-8.533-8.533-8.533h-26.202
				c0.11-0.785,0.216-1.572,0.296-2.369c0.013-0.134,0.018-0.272,0.031-0.406c0.081-0.875,0.154-1.754,0.198-2.645
				c0.052-1.031,0.078-2.068,0.078-3.113s-0.026-2.083-0.078-3.113c-0.044-0.89-0.116-1.769-0.198-2.645
				c-0.013-0.135-0.017-0.272-0.031-0.406c-0.08-0.798-0.186-1.584-0.296-2.369h43.269c5.12,0,8.533-3.413,8.533-8.533
				s-3.413-8.533-8.533-8.533h-48.318c-3.002-6.409-7.103-12.175-12.071-17.067h85.989h59.733c14.218,0,26.621,6.649,34.336,17.067
				h-42.87c-5.12,0-8.533,3.413-8.533,8.533s3.413,8.533,8.533,8.533h50.375c0.54,2.751,0.825,5.603,0.825,8.533
				s-0.286,5.782-0.825,8.533h-16.241c-5.12,0-8.533,3.413-8.533,8.533s3.413,8.533,8.533,8.533h8.736
				C477.888,393.418,465.484,400.067,451.267,400.067z"/>
		</g>
	</g>
</g>
<g>
</g>
<g>
</g>
<g>
</g>
<g>
</g>
<g>
</g>
<g>
</g>
<g>
</g>
<g>
</g>
<g>
</g>
<g>
</g>
<g>
</g>
<g>
</g>
<g>
</g>
<g>
</g>
<g>
</g>
</svg>
