<?xml version="1.0" encoding="UTF-8" standalone="no"?>
<!-- Created with Inkscape (http://www.inkscape.org/) -->
<svg
   xmlns:dc="http://purl.org/dc/elements/1.1/"
   xmlns:cc="http://web.resource.org/cc/"
   xmlns:rdf="http://www.w3.org/1999/02/22-rdf-syntax-ns#"
   xmlns:svg="http://www.w3.org/2000/svg"
   xmlns="http://www.w3.org/2000/svg"
   xmlns:sodipodi="http://inkscape.sourceforge.net/DTD/sodipodi-0.dtd"
   xmlns:inkscape="http://www.inkscape.org/namespaces/inkscape"
   id="svg2"
   sodipodi:version="0.32"
   inkscape:version="0.43"
   width="210mm"
   height="297mm"
   sodipodi:docbase="/home/sjoerd0/docs/images/stratego"
   sodipodi:docname="kapitein.svg"
   version="1.0">
  <metadata
     id="metadata7">
    <rdf:RDF>
      <cc:Work
         rdf:about="">
        <dc:format>image/svg+xml</dc:format>
        <dc:type
           rdf:resource="http://purl.org/dc/dcmitype/StillImage" />
      </cc:Work>
    </rdf:RDF>
  </metadata>
  <defs
     id="defs5" />
  <sodipodi:namedview
     inkscape:window-height="880"
     inkscape:window-width="1094"
     inkscape:pageshadow="2"
     inkscape:pageopacity="0.0"
     borderopacity="1.0"
     bordercolor="#666666"
     pagecolor="#ffffff"
     id="base"
     inkscape:zoom="0.50259871"
     inkscape:cx="996.07292"
     inkscape:cy="471.65403"
     inkscape:window-x="30"
     inkscape:window-y="29"
     inkscape:current-layer="layer2" />
  <g
     inkscape:groupmode="layer"
     id="layer2"
     inkscape:label="Vector">
    <path
       style="opacity:1;fill:#000000;fill-opacity:1;fill-rule:evenodd;stroke:none;stroke-width:1px;stroke-linecap:butt;stroke-linejoin:miter;stroke-opacity:1"
       d="M 190.0366,151.7592 C 167.85661,153.00982 150.19286,171.48744 150.19285,193.97795 C 150.19285,215.04097 165.63712,232.50611 185.81785,235.66545 C 186.59973,244.73179 187.65079,254.61622 188.1616,264.3217 C 189.56849,291.05281 207.83795,491.49498 200.13035,500.66545 C 192.11488,510.20223 157.92137,504.1814 136.81785,503.47795 C 115.72603,502.77491 114.30743,534.44605 136.81785,535.85295 C 155.96928,537.04991 178.18856,539.77263 201.2866,539.2592 C 201.95519,544.04139 202.55479,549.5255 202.94285,555.54045 C 204.34976,577.34742 180.44742,599.87836 170.5991,612.54045 C 160.75079,625.20256 162.85985,637.85163 173.4116,640.66545 C 183.78675,643.43216 178.31785,646.99063 178.31785,653.3217 C 178.31785,659.65276 176.77067,669.52967 184.6616,677.9467 C 195.21335,689.20191 184.56019,697.87194 185.3491,715.22795 C 185.95775,728.61824 195.53374,738.85271 217.69285,747.29045 C 230.8786,797.77094 223.92625,858.86464 221.94285,882.66545 C 287.36376,872.81715 447.73158,834.12346 465.31788,823.5717 C 462.50398,801.76473 449.14498,724.37476 451.25538,711.0092 C 452.99348,700.00069 448.07208,690.89952 440.38038,689.60295 C 439.47388,662.44296 447.89728,645.50511 469.53658,620.2592 C 498.57578,586.38015 488.20758,520.55328 468.47408,508.29045 C 475.10188,402.84281 439.86518,282.63048 428.75538,236.8842 C 416.79668,187.64267 409.76118,179.8995 397.09908,180.60295 C 388.22158,181.09614 293.24872,186.77994 234.5991,193.04045 C 234.09971,170.17476 215.36515,151.75919 192.38035,151.7592 C 192.10732,151.7592 191.83965,151.75403 191.56785,151.7592 C 191.38877,151.76261 191.21512,151.75356 191.0366,151.7592 C 190.94804,151.762 190.87503,151.75586 190.7866,151.7592 C 190.69852,151.76253 190.62454,151.75533 190.5366,151.7592 C 190.449,151.76306 190.37406,151.75481 190.2866,151.7592 C 190.19948,151.76357 190.12358,151.7543 190.0366,151.7592 z M 378.59908,199.1342 C 378.68458,199.13133 378.76438,199.13575 378.84908,199.1342 C 379.18788,199.128 379.51968,199.13622 379.84908,199.1342 C 393.24328,199.05207 399.56308,199.95634 401.31788,201.0092 C 404.83508,203.11956 413.99198,226.31975 409.06788,230.54045 C 404.14368,234.76117 342.22538,234.0691 339.41158,239.6967 C 336.59778,245.32431 349.25338,461.97534 353.47408,467.60295 C 357.69478,473.23054 443.53528,457.75725 446.34908,461.97795 C 449.16288,466.19865 450.57048,487.32039 444.94288,490.1342 C 439.31528,492.948 401.31588,497.84969 338.00538,504.8842 C 274.69478,511.91871 231.06915,515.46395 228.25535,511.9467 C 225.44155,508.42947 223.33054,492.93466 229.6616,485.1967 C 235.99267,477.45872 314.09648,478.87216 319.72408,471.1342 C 325.35168,463.39624 309.85168,244.62021 304.22408,241.10295 C 298.59648,237.58571 217.72671,257.27645 212.0991,253.7592 C 206.47151,250.24193 203.64369,224.9327 208.56785,221.41545 C 213.49201,217.8982 255.00859,208.73055 315.50538,203.10295 C 344.33588,200.42104 364.35318,199.33735 377.81788,199.16545 C 378.07778,199.16213 378.34268,199.14282 378.59908,199.1342 z M 215.5991,324.8217 C 274.68895,332.55966 269.76351,415.5525 218.4116,423.29045 C 214.89436,391.63517 209.26804,341.70451 215.5991,324.8217 z M 319.81788,531.04045 C 319.81788,531.04045 249.33878,714.678 244.56785,723.1342 C 239.03957,732.93276 222.99463,728.76946 215.5991,725.0717 C 205.75079,720.14755 204.36311,707.48055 207.88035,701.85295 C 211.3976,696.22535 209.99135,689.91803 206.4741,684.29045 C 202.95684,678.66284 208.56525,670.91742 214.19285,666.6967 C 219.82046,662.476 228.27066,646.99649 228.9741,640.66545 C 229.67755,634.33439 212.83473,639.15686 195.9116,634.3217 C 180.5348,629.92833 200.7418,608.39069 214.69285,594.1342 C 218.98005,599.38854 224.69853,605.78681 227.56785,606.1967 C 232.492,606.90015 282.42624,587.91872 284.5366,580.8842 C 286.40205,574.66604 234.97204,561.83702 223.00535,558.9467 C 222.26342,556.41407 221.78405,553.8624 221.94285,551.3217 C 222.30831,545.47427 224.1976,541.9202 228.19285,537.5717 C 248.13274,536.11888 282.87383,533.64314 319.81788,531.04045 z M 382.25538,586.0092 C 382.28388,586.00569 382.32048,586.01234 382.34908,586.0092 C 382.35288,586.00906 382.37638,586.00917 382.38038,586.0092 C 382.39248,586.00975 382.43148,586.00953 382.44288,586.0092 C 382.44878,586.00932 382.47028,586.00934 382.47408,586.0092 C 382.50558,586.00931 382.56758,586.00871 382.59908,586.0092 C 382.60288,586.00913 382.62438,586.00912 382.63038,586.0092 C 384.87008,585.85385 387.32138,586.84695 390.06788,589.3217 C 407.31038,604.85814 394.36288,627.51515 390.06788,635.72795 C 385.35258,644.74418 377.17158,656.23518 367.19288,657.79045 C 352.72938,660.04471 354.93368,674.86797 364.03658,676.54045 C 386.21518,680.61532 393.57598,654.73804 409.75538,666.6967 C 419.94338,674.227 420.98098,688.34872 412.84908,698.22795 C 401.57578,702.56977 386.47728,707.95498 366.13038,713.1342 C 348.17608,717.7044 314.32498,723.32405 283.19285,728.04045 L 319.78658,632.85295 C 344.06908,630.79889 357.92168,627.28179 364.72408,611.8217 C 369.98568,599.86361 374.96628,586.90349 382.25538,586.0092 z M 402.28658,730.6967 C 402.29278,730.69681 402.31458,730.69682 402.31788,730.6967 C 402.34428,730.6969 402.38588,730.69633 402.41158,730.6967 C 402.41478,730.69662 402.43658,730.69661 402.44288,730.6967 C 402.44908,730.69679 402.47088,730.6968 402.47408,730.6967 C 402.50078,730.69685 402.54198,730.69637 402.56788,730.6967 C 402.57098,730.69663 402.59278,730.69663 402.59908,730.6967 C 402.60198,730.69648 402.62398,730.69662 402.63038,730.6967 C 402.65128,730.69681 402.67258,730.69641 402.69288,730.6967 C 402.69928,730.69676 402.72138,730.69688 402.72408,730.6967 C 403.04018,730.67671 403.25768,730.67746 403.41158,730.6967 C 409.99668,731.51985 411.86638,748.30315 408.34908,754.6342 C 404.83188,760.96525 268.90602,796.24863 264.8491,790.5092 C 259.46885,782.89767 261.8066,764.39819 269.75535,760.9467 C 280.30006,756.36801 388.89888,731.95199 402.28658,730.6967 z M 409.13038,779.91545 C 409.13318,779.91548 409.15818,779.91529 409.16158,779.91545 C 409.16438,779.91547 409.18958,779.91529 409.19288,779.91545 C 409.19558,779.91546 409.22108,779.91533 409.22408,779.91545 C 409.22678,779.91545 409.25238,779.91537 409.25538,779.91545 C 409.28248,779.91498 409.32438,779.91453 409.34908,779.91545 C 409.35518,779.91556 409.37418,779.91555 409.38038,779.91545 C 409.54348,779.91277 409.65918,779.93468 409.75538,779.9467 C 416.34048,780.76985 418.21008,797.52187 414.69288,803.85295 C 411.17558,810.184 270.00467,850.09096 265.5366,844.66545 C 260.15635,838.13229 262.52537,819.37352 270.4741,815.1342 C 280.73733,809.66048 397.48138,780.86847 409.03658,779.9467 C 409.03958,779.9468 409.06518,779.9467 409.06788,779.9467 C 409.07128,779.94685 409.09628,779.94668 409.09908,779.9467 C 409.10178,779.94385 409.12748,779.91898 409.13038,779.91545 z "
       id="path2184" />
  </g>
</svg>
