<?xml version="1.0" encoding="UTF-8" standalone="no"?>
<!-- Created with Inkscape (http://www.inkscape.org/) -->
<svg
   xmlns:dc="http://purl.org/dc/elements/1.1/"
   xmlns:cc="http://web.resource.org/cc/"
   xmlns:rdf="http://www.w3.org/1999/02/22-rdf-syntax-ns#"
   xmlns:svg="http://www.w3.org/2000/svg"
   xmlns="http://www.w3.org/2000/svg"
   xmlns:sodipodi="http://inkscape.sourceforge.net/DTD/sodipodi-0.dtd"
   xmlns:inkscape="http://www.inkscape.org/namespaces/inkscape"
   id="svg2"
   sodipodi:version="0.32"
   inkscape:version="0.43"
   width="210mm"
   height="297mm"
   sodipodi:docbase="/home/sjoerd0/docs/images/stratego"
   sodipodi:docname="kolonel.svg"
   version="1.0">
  <metadata
     id="metadata7">
    <rdf:RDF>
      <cc:Work
         rdf:about="">
        <dc:format>image/svg+xml</dc:format>
        <dc:type
           rdf:resource="http://purl.org/dc/dcmitype/StillImage" />
      </cc:Work>
    </rdf:RDF>
  </metadata>
  <defs
     id="defs5" />
  <sodipodi:namedview
     inkscape:window-height="868"
     inkscape:window-width="1009"
     inkscape:pageshadow="2"
     inkscape:pageopacity="0.0"
     borderopacity="1.0"
     bordercolor="#666666"
     pagecolor="#ffffff"
     id="base"
     inkscape:zoom="0.50259871"
     inkscape:cx="811.17577"
     inkscape:cy="517.18993"
     inkscape:window-x="243"
     inkscape:window-y="0"
     inkscape:current-layer="layer2" />
  <g
     inkscape:groupmode="layer"
     id="layer2"
     inkscape:label="Vector">
    <path
       style="opacity:1;fill:#000000;fill-opacity:1;fill-rule:evenodd;stroke:#000000;stroke-width:1px;stroke-linecap:butt;stroke-linejoin:miter;stroke-opacity:1"
       d="M 430.15304,98.905114 C 373.83074,100.18077 319.18894,132.54898 309.40304,209.74886 C 309.40304,209.74886 213.88085,243.57034 113.40308,281.37386 C 115.42814,300.10571 117.9588,317.18457 121.40308,332.99886 C 105.76845,383.85567 94.618376,445.75537 127.34058,452.46761 C 152.57791,457.64451 158.81332,437.55988 159.87183,421.37386 C 182.1765,451.43764 214.90012,479.13669 263.74683,510.40511 C 250.06693,546.10783 238.66575,577.83233 240.71558,603.96761 C 242.55658,627.44028 271.80434,676.82346 291.80934,708.15511 C 285.09614,710.09258 279.43284,715.06842 276.59054,728.46761 C 271.66644,751.68147 246.34058,856.49886 246.34058,856.49886 C 246.34057,856.49885 322.33664,900.10921 398.30934,897.99886 C 474.28194,895.88849 534.77804,852.28011 534.77804,852.28011 C 534.77804,852.28009 513.66964,742.53402 511.55934,734.09261 C 509.78444,726.99327 509.50794,714.89938 499.84054,710.40511 C 543.35664,647.17318 556.01224,631.52155 557.27804,594.81136 C 558.01504,573.4383 543.84384,544.00054 530.74684,521.53011 C 545.44294,501.71927 546.55354,482.43478 540.18434,451.49886 C 616.78624,358.97972 607.19414,232.64275 549.15304,152.03011 C 525.02074,118.51291 477.78284,98.257264 431.46554,98.905114 C 431.24374,98.908214 431.03114,98.901054 430.80934,98.905114 C 430.58844,98.909164 430.37394,98.900114 430.15304,98.905114 z M 441.27804,117.18636 C 573.35584,116.13753 617.41504,329.38126 533.24684,415.62386 C 533.66144,413.0793 546.68784,331.18293 517.30934,273.40511 C 517.30934,273.40511 530.25384,357.97188 483.49684,382.84261 C 484.49124,364.94253 483.47074,311.26162 454.65304,257.56136 C 455.24384,260.39665 473.76304,351.24707 425.77804,365.93636 C 425.77804,353.00358 421.79494,303.24573 388.96554,248.53011 C 403.88104,295.26518 410.84774,347.93277 356.21554,373.81136 C 356.89804,371.35897 351.55034,318.61671 339.24684,284.34261 C 325.31924,245.54426 305.42914,120.0249 439.71554,117.21761 C 440.23634,117.20688 440.76004,117.19047 441.27804,117.18636 z M 299.46554,233.56136 C 299.47214,233.56139 299.49374,233.5613 299.49684,233.56136 C 299.52324,233.56146 299.56514,233.56086 299.59054,233.56136 C 299.59674,233.56144 299.61854,233.56161 299.62184,233.56136 C 299.62804,233.56145 299.64974,233.56147 299.65304,233.56136 C 299.67974,233.56136 299.72114,233.56096 299.74684,233.56136 C 299.75304,233.5613 299.77204,233.56167 299.77804,233.56136 C 300.07444,233.54635 300.29444,233.57723 300.43434,233.62386 C 306.40334,235.61352 313.36144,258.49346 311.37184,263.46761 C 309.38214,268.44176 151.2158,326.1396 145.24683,323.15511 C 139.27785,320.17062 133.71411,301.91797 138.27808,294.31136 C 142.53128,287.22271 285.18054,234.98631 299.46554,233.56136 z M 405.90304,358.96761 L 412.84054,410.68636 L 460.59054,367.90511 L 462.59054,431.59261 L 509.34054,389.81136 C 509.34054,389.81136 511.33044,426.62812 503.37184,451.49886 C 489.44424,456.47301 415.84244,460.42602 368.09054,458.43636 C 321.48544,456.49448 292.01304,437.47272 290.62184,436.56136 C 290.64654,436.55412 290.66714,436.53754 290.68434,436.53011 C 290.68984,436.52447 290.71004,436.50457 290.71554,436.49886 C 290.72664,436.49402 290.76744,436.47308 290.77804,436.46761 C 290.78334,436.45712 290.80444,436.41623 290.80934,436.40511 C 290.81494,436.39964 290.83494,436.3794 290.84054,436.37386 C 290.84714,436.36161 290.86594,436.32475 290.87184,436.31136 C 290.87744,436.30069 290.89764,436.25981 290.90304,436.24886 C 290.90454,436.24396 290.90164,436.22338 290.90304,436.21761 C 290.91154,436.17903 290.92824,436.12739 290.93434,436.09261 C 291.26784,433.96934 288.49374,424.69708 301.43434,405.71761 C 316.35674,383.83136 342.21554,371.90512 342.21554,371.90511 L 351.18434,413.68636 L 405.90304,358.96761 z M 157.90308,367.62386 C 157.94355,367.61791 157.98896,367.62755 158.02808,367.62386 C 158.03367,367.62333 158.05403,367.6241 158.05933,367.62386 C 158.07972,367.62374 158.10104,367.62337 158.12183,367.62386 C 158.12728,367.62385 158.14729,367.62408 158.15308,367.62386 C 168.32193,367.23607 212.5791,425.88158 285.52804,460.43636 C 361.13514,496.25022 511.35594,467.39455 520.30934,471.37386 C 529.26284,475.35318 523.28864,500.24349 519.30934,505.21761 C 515.33004,510.19176 411.85504,532.07284 306.40304,504.21761 C 200.95116,476.36239 149.22569,377.8534 157.18433,367.90511 C 157.20728,367.89077 157.25192,367.85881 157.27808,367.84261 C 157.35955,367.79922 157.47118,367.74812 157.55933,367.71761 C 157.66308,367.68367 157.78166,367.6417 157.90308,367.62386 z M 389.24684,536.43636 C 389.46864,536.43117 389.68014,536.44135 389.90304,536.43636 C 390.15994,536.43061 390.42604,536.44186 390.68434,536.43636 L 392.46554,584.28011 C 363.41894,583.38277 340.12544,575.20164 301.62184,560.74886 C 311.64274,545.42343 332.68664,537.75921 389.24684,536.43636 z M 504.52804,567.12386 C 498.00774,606.30777 491.46914,660.33997 476.37184,671.49886 C 460.19244,683.45756 446.83114,681.34782 433.46554,670.09261 C 420.10004,658.83739 417.29334,646.88298 417.99684,627.18636 C 418.13714,623.25858 418.26804,619.60254 418.40304,616.28011 C 433.86274,615.44222 470.78394,613.21911 473.55934,610.99886 C 475.98804,609.05586 468.03704,598.05835 462.87184,591.43636 C 476.13614,585.68176 489.58894,577.7372 504.52804,567.12386 z M 295.12184,578.53011 C 309.97774,584.11858 322.59714,588.81834 334.05934,592.62386 L 325.15304,611.71761 C 325.15304,611.71761 361.00884,616.62516 368.74684,613.81136 C 373.12014,612.22108 379.75384,607.47313 384.68434,603.65511 C 387.47944,603.84989 390.31834,603.97678 393.21554,604.03011 L 394.90304,649.68636 C 394.90304,649.68636 377.31384,658.82146 367.46554,670.78011 C 357.61724,682.73877 342.82044,686.97737 318.90304,665.87386 C 298.32294,647.71494 291.30724,603.50821 295.12184,578.53011 z M 404.87184,704.87386 C 404.87464,704.87391 404.89954,704.87346 404.90304,704.87386 C 404.90654,704.87402 404.93154,704.8738 404.93434,704.87386 C 404.94504,704.87383 404.98604,704.87355 404.99684,704.87386 C 405.01294,704.87367 405.04754,704.87397 405.05934,704.87386 C 405.08284,704.87428 405.12974,704.87324 405.15304,704.87386 C 405.16084,704.87389 405.17664,704.8741 405.18434,704.87386 C 409.00064,704.75652 413.12534,706.35309 417.27804,709.46761 C 425.71944,715.79865 426.44314,719.34326 441.21554,717.93636 C 444.73284,757.32957 365.95484,776.32211 355.40304,719.34261 C 374.39624,717.93573 389.15044,718.61182 394.77804,710.87386 C 397.54794,707.06534 401.01174,705.13237 404.80934,704.90511 C 404.81224,704.9052 404.83784,704.90512 404.84054,704.90511 C 404.84404,704.90526 404.86904,704.90509 404.87184,704.90511 C 404.87144,704.9016 404.87194,704.87673 404.87184,704.87386 z M 297.05934,743.90511 C 297.06634,743.90505 297.08884,743.9049 297.09054,743.90511 C 297.12104,743.90384 297.18554,743.90615 297.21554,743.90511 C 303.53784,743.18296 370.48814,770.35808 374.37184,776.31136 C 378.38094,782.45693 396.18754,869.86995 389.15304,878.31136 C 382.11854,886.75278 367.35844,883.22021 362.43434,877.59261 C 357.51014,871.965 349.74874,799.51741 345.52804,793.18636 C 341.30734,786.85528 296.99874,772.07992 292.77804,765.74886 C 288.55734,759.41784 292.07264,745.34326 296.99684,743.93636 C 297.00714,743.93645 297.04824,743.936 297.05934,743.93636 C 297.05914,743.93461 297.05924,743.91213 297.05934,743.90511 z M 492.74684,748.09261 C 492.75224,748.09198 492.77274,748.09284 492.77804,748.09261 C 492.79904,748.09284 492.81994,748.09224 492.84054,748.09261 C 492.84574,748.09243 492.86654,748.09318 492.87184,748.09261 C 492.87444,748.09232 492.89654,748.09251 492.90304,748.09261 C 492.92934,748.09286 492.97114,748.0934 492.99684,748.09261 C 493.02814,748.09149 493.09134,748.09341 493.12184,748.09261 C 493.15284,748.09163 493.21664,748.09327 493.24684,748.09261 C 493.27754,748.09177 493.34194,748.09312 493.37184,748.09261 C 493.44674,748.08794 493.52154,748.09491 493.59054,748.09261 C 493.94984,748.08066 494.21074,748.1314 494.40304,748.18636 C 499.32724,749.59326 500.74884,765.76158 496.52804,772.09261 C 492.30734,778.42367 454.31124,788.98028 450.09054,795.31136 C 445.86984,801.64241 431.10844,869.87124 426.18434,875.49886 C 421.26014,881.12646 405.06254,884.62778 398.02804,876.18636 C 390.99354,867.74495 409.77064,782.44688 419.15304,774.90511 C 427.17544,768.45664 481.66544,749.38761 492.74684,748.09261 z "
       id="path2224" />
  </g>
</svg>
