<?xml version="1.0" encoding="UTF-8" standalone="no"?>
<!-- Created with Inkscape (http://www.inkscape.org/) -->
<svg
   xmlns:dc="http://purl.org/dc/elements/1.1/"
   xmlns:cc="http://web.resource.org/cc/"
   xmlns:rdf="http://www.w3.org/1999/02/22-rdf-syntax-ns#"
   xmlns:svg="http://www.w3.org/2000/svg"
   xmlns="http://www.w3.org/2000/svg"
   xmlns:sodipodi="http://inkscape.sourceforge.net/DTD/sodipodi-0.dtd"
   xmlns:inkscape="http://www.inkscape.org/namespaces/inkscape"
   id="svg2405"
   sodipodi:version="0.32"
   inkscape:version="0.43"
   width="210mm"
   height="297mm"
   sodipodi:docbase="/home/sjoerd0/docs/images/stratego"
   sodipodi:docname="vlag.svg"
   version="1.0">
  <metadata
     id="metadata2410">
    <rdf:RDF>
      <cc:Work
         rdf:about="">
        <dc:format>image/svg+xml</dc:format>
        <dc:type
           rdf:resource="http://purl.org/dc/dcmitype/StillImage" />
      </cc:Work>
    </rdf:RDF>
  </metadata>
  <defs
     id="defs2408" />
  <sodipodi:namedview
     inkscape:window-height="946"
     inkscape:window-width="1075"
     inkscape:pageshadow="2"
     inkscape:pageopacity="0.0"
     borderopacity="1.0"
     bordercolor="#666666"
     pagecolor="#ffffff"
     id="base"
     inkscape:zoom="0.50259871"
     inkscape:cx="403.2731"
     inkscape:cy="901.61081"
     inkscape:window-x="189"
     inkscape:window-y="0"
     inkscape:current-layer="layer4" />
  <g
     inkscape:groupmode="layer"
     id="layer4"
     inkscape:label="Vector">
    <path
       style="opacity:1;fill:#000000;fill-opacity:1;fill-rule:evenodd;stroke:none;stroke-width:1px;stroke-linecap:butt;stroke-linejoin:miter;stroke-opacity:1"
       d="M 91.561596,99.297669 C 91.558816,99.300533 91.533606,99.325421 91.530346,99.328919 C 86.556196,100.32375 72.608136,186.86443 81.561596,211.73517 C 85.588066,222.91978 94.256596,232.48908 102.5616,239.64142 C 63.850666,309.07609 88.285676,367.50985 119.3741,391.79767 C 151.20863,416.66842 176.08319,445.50472 156.1866,479.32892 C 136.29001,513.15311 116.87044,492.59401 112.40535,517.14142 C 108.0722,540.96345 154.25562,585.56775 176.09285,583.79767 C 198.95443,581.94458 183.04001,538.02159 202.9366,539.01642 L 278.5616,746.95392 L 324.3116,739.98517 L 264.90535,555.29767 C 329.75957,561.86689 340.16033,544.14473 367.2491,542.86017 C 402.41026,541.19281 423.51277,555.51772 461.4991,552.70392 C 499.48544,549.89009 505.13386,540.05288 551.5616,528.79767 C 597.98939,517.54245 605.02319,535.83152 620.49909,530.20392 C 635.97499,524.57631 644.23909,504.39674 623.31159,449.98517 C 602.20809,395.11603 587.46849,384.49808 569.84285,343.07892 C 548.40756,292.70732 566.77659,270.76921 544.4991,217.86017 C 526.24992,174.51835 515.41966,165.35863 507.46785,165.70392 C 507.46196,165.70418 507.44291,165.70394 507.4366,165.70392 C 507.4234,165.70351 507.38776,165.70445 507.3741,165.70392 C 507.36734,165.70377 507.34943,165.70385 507.34285,165.70392 C 507.33971,165.70412 507.3179,165.70407 507.3116,165.70392 C 507.30882,165.70386 507.28355,165.70405 507.28035,165.70392 C 507.27757,165.70386 507.25238,165.70411 507.2491,165.70392 C 507.24941,165.70577 507.2492,165.72818 507.2491,165.73517 C 507.24582,165.73499 507.22063,165.73523 507.21785,165.73517 C 507.21144,165.735 507.18952,165.73496 507.1866,165.73517 C 505.43911,165.86082 503.82842,166.44551 502.3116,167.20392 C 493.87019,171.42463 467.14429,189.73387 423.53035,192.54767 C 379.91641,195.36148 348.95744,181.26447 303.9366,185.48517 C 258.91575,189.70587 253.2693,215.04507 209.65535,220.67267 C 187.29719,223.5576 170.864,222.0261 160.15535,219.82892 C 164.39128,205.94373 167.19257,197.15456 163.15535,183.89142 C 158.40404,168.28233 96.988696,98.856411 91.592846,99.297669 C 91.589276,99.29753 91.564446,99.297674 91.561596,99.297669 z M 110.4366,154.01642 C 126.35387,164.95955 142.2646,183.88063 145.2491,193.82892 C 148.23358,203.77721 139.28059,223.65693 133.3116,226.64142 C 127.34263,229.62591 105.442,222.66278 100.46785,208.73517 C 95.493706,194.80756 101.48312,182.86648 110.4366,154.01642 z M 496.6866,197.29767 C 496.68945,197.29773 496.71428,197.29734 496.71785,197.29767 C 496.72067,197.29772 496.74569,197.29734 496.7491,197.29767 C 496.75191,197.29771 496.77708,197.29736 496.78035,197.29767 C 496.78306,197.2977 496.80863,197.29741 496.8116,197.29767 C 496.81432,197.29738 496.84029,197.29765 496.84285,197.29767 C 496.84541,197.2978 496.87137,197.2978 496.8741,197.29767 C 496.88484,197.29775 496.92587,197.29745 496.9366,197.29767 C 496.9431,197.2978 496.96523,197.29782 496.96785,197.29767 C 496.97309,197.29768 496.99387,197.29746 496.9991,197.29767 C 497.01476,197.29856 497.04612,197.29801 497.0616,197.29767 C 497.06502,197.29735 497.08672,197.29755 497.09285,197.29767 C 497.11885,197.29745 497.1608,197.29704 497.1866,197.29767 C 497.19317,197.29769 497.2111,197.29787 497.21785,197.29767 C 501.60802,197.16568 505.94221,198.70246 509.5616,201.11017 C 521.23756,210.35076 521.94172,227.99755 516.78035,240.92267 C 506.08343,261.31604 485.66356,273.98776 471.3741,291.67267 C 465.28417,299.04409 459.9785,310.24823 449.28035,310.98517 C 441.63643,310.06112 442.27845,300.08684 444.1241,294.67267 C 453.36174,269.0665 464.12409,243.67297 475.1241,218.67267 C 478.87902,209.19239 484.96247,197.7568 496.5616,197.36017 C 496.56455,197.36025 496.59016,197.36016 496.59285,197.36017 C 496.59604,197.36027 496.62135,197.36016 496.6241,197.36017 C 496.62754,197.36029 496.65253,197.36015 496.65535,197.36017 C 496.66046,197.34925 496.68131,197.30882 496.6866,197.29767 z M 179.96785,245.07892 C 179.98417,245.0787 180.01878,245.07882 180.03035,245.07892 C 180.06811,245.0802 180.113,245.08201 180.15535,245.07892 C 180.22364,245.07395 180.30521,245.08335 180.3741,245.07892 C 180.44353,245.07445 180.52282,245.08285 180.59285,245.07892 C 180.66343,245.07496 180.74041,245.08234 180.8116,245.07892 C 180.88335,245.07548 180.95799,245.08182 181.03035,245.07892 C 181.17737,245.07303 181.31833,245.08261 181.46785,245.07892 C 186.56778,244.9529 193.10792,246.09404 200.3116,247.48517 C 220.91771,251.46449 218.10979,267.10235 249.0616,283.98517 C 280.01343,300.86798 312.378,305.07175 303.9366,320.54767 C 295.49519,336.02358 269.3756,321.21302 229.3741,309.29767 C 203.25124,301.51639 181.36322,288.53927 173.09285,265.70392 C 167.71125,250.8448 171.43843,245.77401 179.96785,245.07892 z M 152.21785,257.48517 L 234.78035,513.17267 L 210.90535,522.11017 L 126.34285,266.45392 L 152.21785,257.48517 z M 113.40535,278.39142 L 148.21785,385.82892 C 111.40916,362.94784 90.524266,340.07085 113.40535,278.39142 z M 369.09285,288.82892 C 383.02047,313.69966 431.26719,326.6405 434.7491,350.51642 C 438.231,374.39233 412.86354,382.83601 416.84285,402.23517 C 420.82217,421.63435 423.30287,412.29283 426.78035,428.61017 C 433.24674,458.95247 373.05126,468.90312 371.0616,435.07892 C 369.82863,414.42658 384.01224,414.19403 380.53035,400.26642 C 377.04844,386.33881 334.75191,378.3531 329.28035,358.95392 C 323.80879,339.55475 350.19108,312.20741 369.09285,288.82892 z M 454.03035,399.86017 C 454.03441,399.85994 454.05776,399.86012 454.0616,399.86017 C 454.07786,399.86042 454.11493,399.86056 454.1241,399.86017 C 454.12818,399.85997 454.15151,399.86012 454.15535,399.86017 C 454.16628,399.86094 454.20557,399.86062 454.21785,399.86017 C 454.22195,399.85999 454.24527,399.86013 454.2491,399.86017 C 454.25995,399.86083 454.29927,399.86054 454.3116,399.86017 C 454.31572,399.86001 454.33903,399.86014 454.34285,399.86017 C 454.35363,399.86072 454.39297,399.86046 454.40535,399.86017 C 454.517,399.85212 454.63639,399.86215 454.7491,399.86017 C 455.02731,399.85529 455.27852,399.88871 455.5616,399.92267 C 471.17087,399.98827 486.08715,406.50744 500.90535,410.86017 C 522.48565,418.94926 545.12035,423.82556 566.09285,433.26642 C 584.63419,441.54962 603.86119,456.07617 606.06159,477.82892 C 606.03889,484.16442 608.72509,492.94141 603.18659,497.73517 C 597.41269,500.2236 590.34679,499.30784 584.40539,497.79767 C 567.72412,489.52622 554.84321,475.27579 540.1241,464.04767 C 523.80227,449.49486 504.29406,439.5792 484.5616,430.54767 C 472.72865,424.09004 458.85396,419.68629 449.6866,409.57892 C 446.21628,405.85055 449.58653,400.49093 454.03035,399.86017 z M 335.3741,404.48517 C 335.45436,404.47925 335.54517,404.48927 335.6241,404.48517 C 337.81091,404.37152 339.46867,404.97853 340.4991,406.39142 C 351.87074,421.98376 320.81746,440.16029 308.15535,466.89142 C 295.49323,493.62253 288.44115,537.23517 278.59285,537.23517 C 269.16221,537.23518 258.16175,527.84024 251.96785,515.07892 L 247.65535,501.67267 C 246.9089,497.17861 246.84748,492.56309 247.65535,487.98517 C 251.449,466.48781 314.90803,405.99516 335.3741,404.48517 z M 176.09285,485.29767 L 186.03035,513.17267 C 176.08204,546.99688 177.06812,568.7023 150.21785,546.98517 C 116.39365,519.62735 136.37928,513.19681 149.09285,503.95392 C 159.14901,496.643 168.63163,490.76924 176.09285,485.29767 z "
       id="path2417" />
  </g>
</svg>
