<?xml version="1.0" encoding="UTF-8" standalone="no"?>
<!-- Created with Inkscape (http://www.inkscape.org/) -->
<svg
   xmlns:dc="http://purl.org/dc/elements/1.1/"
   xmlns:cc="http://web.resource.org/cc/"
   xmlns:rdf="http://www.w3.org/1999/02/22-rdf-syntax-ns#"
   xmlns:svg="http://www.w3.org/2000/svg"
   xmlns="http://www.w3.org/2000/svg"
   xmlns:sodipodi="http://inkscape.sourceforge.net/DTD/sodipodi-0.dtd"
   xmlns:inkscape="http://www.inkscape.org/namespaces/inkscape"
   id="svg2"
   sodipodi:version="0.32"
   inkscape:version="0.43"
   width="210mm"
   height="297mm"
   sodipodi:docbase="/home/sjoerd0/docs/images/stratego"
   sodipodi:docname="generaal.svg"
   version="1.0">
  <metadata
     id="metadata7">
    <rdf:RDF>
      <cc:Work
         rdf:about="">
        <dc:format>image/svg+xml</dc:format>
        <dc:type
           rdf:resource="http://purl.org/dc/dcmitype/StillImage" />
      </cc:Work>
    </rdf:RDF>
  </metadata>
  <defs
     id="defs5" />
  <sodipodi:namedview
     inkscape:window-height="946"
     inkscape:window-width="1264"
     inkscape:pageshadow="2"
     inkscape:pageopacity="0.0"
     borderopacity="1.0"
     bordercolor="#666666"
     pagecolor="#ffffff"
     id="base"
     inkscape:zoom="0.50259871"
     inkscape:cx="621.95325"
     inkscape:cy="576.45922"
     inkscape:window-x="0"
     inkscape:window-y="0"
     inkscape:current-layer="layer2" />
  <g
     inkscape:groupmode="layer"
     id="layer2"
     inkscape:label="Vector">
    <path
       style="opacity:1;fill:#000000;fill-opacity:1;fill-rule:evenodd;stroke:none;stroke-width:1px;stroke-linecap:butt;stroke-linejoin:miter;stroke-opacity:1"
       d="M 402.75042,90.812732 C 391.71702,91.118952 378.48322,96.271512 362.96922,107.28148 C 287.55818,74.886612 273.87553,157.9343 305.90672,248.71898 C 271.01221,282.31561 252.5317,337.88953 252.5317,392.87523 C 252.5317,477.99275 237.05612,511.75964 218.06295,525.12523 C 199.06978,538.49079 187.78918,563.82018 205.37545,581.40648 C 222.77437,598.8054 241.45903,592.66238 268.7817,568.12523 C 268.4104,581.89939 268.00045,597.23633 268.00045,600.37523 C 268.00045,621.47875 269.40443,638.36612 240.56295,658.06273 C 211.72148,677.75935 183.59128,671.41981 156.1567,676.34398 C 128.72213,681.26813 125.8888,717.14929 130.81295,732.62523 C 135.73711,748.10114 106.19251,795.94523 96.344205,813.53148 C 86.495895,831.11774 99.166145,843.06275 112.5317,843.06273 C 120.76538,843.06273 124.48775,850.82085 118.1567,867.00023 C 111.82564,883.1796 120.97829,896.52884 168.81295,902.15648 C 214.99144,907.58925 272.91873,907.07444 348.18792,881.75023 C 408.68472,902.1503 551.48152,910.59987 592.28172,897.93773 C 545.85402,851.50999 425.58252,797.34658 315.84422,791.71898 C 315.84422,791.71898 349.58902,752.33001 360.84422,748.81273 C 372.09942,745.29548 443.14202,773.42077 508.56292,810.00023 C 573.98392,846.57966 616.90282,892.32676 625.34422,895.84398 C 633.78562,899.36124 649.26932,900.04872 676.00042,896.53148 C 676.00312,896.53434 676.02882,896.55943 676.03172,896.56273 C 676.03452,896.56284 676.06002,896.56281 676.06292,896.56273 C 676.06602,896.56253 676.08782,896.56263 676.09422,896.56273 C 676.09702,896.56286 676.12232,896.56252 676.12542,896.56273 C 676.13382,896.55458 676.15292,896.53515 676.15672,896.53148 C 677.29442,895.00469 665.57932,854.25884 611.28172,794.53148 C 555.00562,732.62782 549.36412,737.55266 540.21922,725.59398 C 531.07432,713.63532 560.63492,678.48008 574.00042,654.56273 C 584.91052,635.03947 564.40982,628.15336 532.40672,619.78148 C 553.33612,591.94025 557.39552,573.255 553.96922,527.12523 C 568.99282,526.03406 579.63682,524.02417 600.03172,520.18773 C 633.36502,513.9175 627.99602,449.31325 593.00042,428.03147 C 572.81432,415.75568 548.66382,417.47222 533.18792,342.90648 C 520.81722,283.30202 487.06152,241.59834 438.50042,224.87523 C 453.51642,152.2665 442.87642,90.828592 403.81292,90.812732 C 403.46162,90.812582 403.10642,90.802852 402.75042,90.812732 z M 397.53172,123.34398 C 397.73582,123.33577 397.92442,123.34339 398.12542,123.34398 C 421.84562,123.41324 424.61062,184.26922 417.12542,226.84398 C 407.08032,283.97986 385.90002,294.37637 383.96922,302.59398 C 381.81952,311.74293 387.13932,350.89259 391.15672,367.68773 C 403.60002,370.68444 412.84422,381.92257 412.84422,395.28148 C 412.84422,410.93213 400.15112,423.62522 384.50042,423.62522 C 368.84982,423.62523 356.15672,410.93213 356.15672,395.28148 C 356.15672,384.92623 361.70422,375.85487 370.00042,370.90648 C 372.90112,354.62977 370.70442,306.68119 364.37542,297.18773 C 360.85822,291.91184 338.52292,270.28271 323.75042,225.43773 C 308.97802,180.59276 302.45652,104.79921 363.65672,150.87523 C 377.88972,131.71539 389.02772,123.68597 397.53172,123.34398 z M 432.31292,250.34398 C 457.47462,257.87999 479.19552,276.26924 491.09422,299.78148 C 513.34032,338.63803 507.72332,382.7878 524.21922,423.43772 C 534.00612,450.59659 551.27402,460.48513 574.90672,473.37522 C 590.69692,481.98772 586.78322,505.47729 566.81292,497.18773 C 559.92272,494.3276 553.64572,491.35602 547.93792,488.21898 C 538.84902,462.46648 517.28982,438.52486 493.43792,418.46897 C 492.40922,414.44819 491.51412,410.29628 490.71922,406.03147 C 484.81092,371.48556 486.37942,328.63312 464.93792,299.15648 C 455.47652,285.7602 441.38492,276.08741 425.75042,271.46898 C 428.15942,264.41352 430.34932,257.34576 432.31292,250.34398 z M 317.62542,277.78148 C 320.81472,284.78194 324.26882,291.74861 327.96922,298.65648 C 322.98742,304.21101 318.77302,310.48269 315.59422,317.43773 C 293.48382,360.08218 296.42672,409.61602 295.34422,456.31272 C 294.37162,481.52083 286.96862,526.89653 243.3442,561.37523 C 232.40061,570.02453 217.13246,554.41359 233.7192,539.06273 C 253.34147,520.90255 273.11715,476.89457 273.56295,450.68772 C 273.76578,403.2344 273.18202,353.2433 294.75042,309.81273 C 300.14402,297.52164 308.03432,286.75893 317.62542,277.78148 z M 416.96922,458.93772 C 417.13852,458.93276 417.29962,458.94198 417.46922,458.93772 C 417.63952,458.93344 417.79862,458.94129 417.96922,458.93772 C 418.14052,458.93414 418.29762,458.94058 418.46922,458.93772 C 418.81502,458.93195 419.15332,458.94053 419.50042,458.93772 C 428.15322,458.86759 437.18492,459.72172 446.46922,461.81272 C 410.22702,477.75265 395.64232,486.28884 396.71922,492.75023 C 397.67822,498.50424 422.82902,510.15572 458.12542,514.53148 L 461.68792,568.00023 C 439.11602,572.21621 420.59522,584.82077 402.18792,608.56273 C 402.00952,608.411 401.83472,608.2772 401.65672,608.12523 C 347.30022,561.72333 332.70132,500.5048 337.62542,490.65648 C 340.86972,484.16797 373.79862,460.20311 416.96922,458.93772 z M 515.09422,514.21898 C 511.09192,534.76761 509.12662,553.0516 507.84422,568.93773 C 501.53882,567.86183 495.54612,567.12419 489.81292,566.71898 C 488.02332,551.05494 487.65972,531.35257 487.71922,516.21898 C 495.84802,516.1508 504.22972,515.64401 512.78172,514.56273 C 513.58112,514.46166 514.35252,514.34357 515.09422,514.21898 z M 293.34422,596.12523 C 293.34712,596.12524 293.37172,596.12515 293.37542,596.12523 C 293.37832,596.12512 293.40312,596.12548 293.40672,596.12523 C 293.41022,596.12845 293.43512,596.15366 293.43792,596.15648 C 293.43792,596.15932 293.43822,596.18447 293.43792,596.18773 C 293.43082,596.18493 293.31292,596.15648 293.31292,596.15648 C 293.31582,596.15363 293.34062,596.1286 293.34422,596.12523 z M 293.46922,596.25023 C 295.29232,596.96691 415.06182,644.04098 419.25042,647.53148 C 423.47112,651.04873 465.65862,737.54352 461.43792,745.28148 C 457.21722,753.01942 431.89272,748.79873 428.37542,745.28148 C 424.85822,741.76421 401.64402,666.50283 395.31292,660.87523 C 388.98192,655.24764 303.86212,628.53343 298.93792,624.31273 C 294.36002,620.38879 294.05712,598.21715 293.46922,596.25023 z M 463.40672,604.96898 L 467.34422,605.78148 C 465.87902,605.55646 464.38192,605.31871 462.87542,605.09398 L 463.40672,604.96898 z M 476.12542,612.87523 C 476.24712,612.8704 476.37872,612.87948 476.50042,612.87523 C 476.62312,612.87095 476.75272,612.87892 476.87542,612.87523 C 476.99922,612.87151 477.12662,612.87836 477.25042,612.87523 C 477.37522,612.87207 477.50062,612.8778 477.62542,612.87523 C 477.87922,612.87002 478.12142,612.87802 478.37542,612.87523 C 486.84872,612.78218 495.49712,614.03971 503.84422,616.03148 C 501.88922,628.34647 498.48942,636.58811 491.00042,640.46898 C 474.08072,649.23704 454.23182,643.76215 434.62542,632.28148 C 445.91812,618.81075 460.67572,613.48817 476.12542,612.87523 z M 516.31292,643.28148 C 531.78892,646.79874 543.03172,658.78148 543.03172,658.78148 C 543.03172,658.7815 504.34422,715.04906 504.34422,744.59398 C 487.46142,746.70435 473.40802,745.98428 470.59422,746.68773 C 480.44252,690.4117 503.65082,658.75739 516.31292,643.28148 z M 191.7192,707.75023 C 191.72213,707.74671 191.74776,707.75304 191.75045,707.75023 C 191.75386,707.7504 191.77889,707.75017 191.7817,707.75023 C 191.79246,707.75031 191.8335,707.74994 191.8442,707.75023 C 191.84685,707.75007 191.87279,707.75021 191.87545,707.75023 C 191.8781,707.75041 191.90019,707.75029 191.9067,707.75023 C 191.90953,707.75007 191.9354,707.75021 191.93795,707.75023 C 191.94046,707.7503 191.96642,707.75031 191.9692,707.75023 C 191.97318,707.75007 191.99664,707.75021 192.00045,707.75023 C 192.01157,707.75075 192.05061,707.75047 192.06295,707.75023 C 192.06924,707.7503 192.09106,707.75031 192.0942,707.75023 C 192.12057,707.75028 192.16159,707.74995 192.18795,707.75023 C 192.19424,707.75016 192.21334,707.75051 192.2192,707.75023 C 192.28173,707.74728 192.34434,707.75184 192.4067,707.75023 C 192.65614,707.74381 192.9037,707.75226 193.1567,707.75023 C 214.24027,707.5814 241.67012,710.05045 258.8442,714.34398 C 280.09891,719.65765 271.11471,730.92296 268.00045,742.46898 C 264.25764,756.34539 272.19998,800.17472 279.93795,828.31273 C 242.65506,842.38174 189.91746,848.00119 132.93795,812.12523 C 145.60006,786.09756 168.1121,749.50674 163.18795,735.43773 C 158.2638,721.36872 158.25793,710.82935 175.8442,708.71898 C 180.29857,708.18446 185.7016,707.86612 191.6567,707.78148 C 191.66264,707.78158 191.68416,707.78181 191.68795,707.78148 C 191.69137,707.78162 191.71639,707.78146 191.7192,707.78148 C 191.72188,707.77863 191.71627,707.75375 191.7192,707.75023 z M 528.43792,762.18773 C 528.47402,762.18392 528.49562,762.19133 528.53172,762.18773 C 528.53582,762.18757 528.55912,762.18768 528.56292,762.18773 C 528.57372,762.18839 528.61312,762.18815 528.62542,762.18773 C 528.65532,762.18682 528.72052,762.18852 528.75042,762.18773 C 528.78042,762.18687 528.84552,762.18847 528.87542,762.18773 C 528.90542,762.18692 528.97042,762.18841 529.00042,762.18773 C 529.02832,762.18563 529.06712,762.18699 529.09422,762.18773 C 529.13032,762.18902 529.18192,762.19008 529.21922,762.18773 C 529.29442,762.18299 529.36252,762.19156 529.43792,762.18773 C 529.74952,762.17192 530.05992,762.18773 530.37542,762.18773 C 540.47142,762.18775 548.65672,770.37306 548.65672,780.46898 C 548.65672,790.5649 540.47142,798.75023 530.37542,798.75023 C 520.27952,798.75021 512.09422,790.5649 512.09422,780.46898 C 512.09422,771.02736 519.25232,763.15919 528.43792,762.18773 z M 589.12542,813.53148 C 589.16192,813.52808 589.21392,813.53467 589.25042,813.53148 C 589.28042,813.53062 589.34552,813.53221 589.37542,813.53148 C 589.40542,813.53068 589.47042,813.53216 589.50042,813.53148 C 589.52832,813.52939 589.56712,813.53074 589.59422,813.53148 C 589.63032,813.53276 589.68192,813.53382 589.71922,813.53148 C 589.79442,813.52676 589.86252,813.53529 589.93792,813.53148 C 590.01402,813.52764 590.08042,813.53438 590.15672,813.53148 C 590.39112,813.52256 590.63882,813.53148 590.87542,813.53148 C 600.97142,813.53147 609.15672,821.71681 609.15672,831.81273 C 609.15672,841.90862 600.97142,850.12523 590.87542,850.12523 C 580.77952,850.12525 572.59422,841.90865 572.59422,831.81273 C 572.59422,822.29509 579.83352,814.39883 589.12542,813.53148 z "
       id="path2192" />
  </g>
</svg>
