<?xml version="1.0" encoding="UTF-8" standalone="no"?>
<!-- Created with Inkscape (http://www.inkscape.org/) -->
<svg
   xmlns:dc="http://purl.org/dc/elements/1.1/"
   xmlns:cc="http://web.resource.org/cc/"
   xmlns:rdf="http://www.w3.org/1999/02/22-rdf-syntax-ns#"
   xmlns:svg="http://www.w3.org/2000/svg"
   xmlns="http://www.w3.org/2000/svg"
   xmlns:sodipodi="http://inkscape.sourceforge.net/DTD/sodipodi-0.dtd"
   xmlns:inkscape="http://www.inkscape.org/namespaces/inkscape"
   id="svg2"
   sodipodi:version="0.32"
   inkscape:version="0.43"
   width="210mm"
   height="297mm"
   sodipodi:docbase="/home/sjoerd0/docs/images/stratego"
   sodipodi:docname="luitenant.svg"
   version="1.0">
  <metadata
     id="metadata7">
    <rdf:RDF>
      <cc:Work
         rdf:about="">
        <dc:format>image/svg+xml</dc:format>
        <dc:type
           rdf:resource="http://purl.org/dc/dcmitype/StillImage" />
      </cc:Work>
    </rdf:RDF>
  </metadata>
  <defs
     id="defs5" />
  <sodipodi:namedview
     inkscape:window-height="836"
     inkscape:window-width="1069"
     inkscape:pageshadow="2"
     inkscape:pageopacity="0.0"
     borderopacity="1.0"
     bordercolor="#666666"
     pagecolor="#ffffff"
     id="base"
     inkscape:zoom="0.35539095"
     inkscape:cx="471.70873"
     inkscape:cy="696.15198"
     inkscape:window-x="38"
     inkscape:window-y="29"
     inkscape:current-layer="layer2" />
  <g
     inkscape:groupmode="layer"
     id="layer2"
     inkscape:label="Vector">
    <path
       style="opacity:1;fill:#000000;fill-opacity:1;fill-rule:evenodd;stroke:none;stroke-width:1px;stroke-linecap:butt;stroke-linejoin:miter;stroke-opacity:1"
       d="M 400.75782,134.82812 C 400.75777,134.83513 400.75764,134.85762 400.75782,134.85937 C 400.75501,134.85935 400.73,134.85951 400.72657,134.85937 C 400.71997,134.85934 400.69833,134.85942 400.69532,134.85937 C 374.11531,135.30632 345.69431,144.16534 323.60157,164.60937 L 368.25782,210.92187 C 361.22132,218.17112 356.69732,227.84998 356.03907,238.57812 C 312.24136,245.74685 269.90095,263.46845 245.13282,274.35937 C 240.14052,267.53615 232.10389,263.07813 223.00782,263.07812 C 207.86393,263.07812 195.57032,275.37172 195.57032,290.51562 C 195.57032,297.38018 198.08877,303.66874 202.25782,308.48437 C 191.78287,324.84568 163.71528,369.27494 166.00782,372.14062 C 168.80924,375.64242 191.83377,385.41212 214.94532,384.10937 C 215.80167,403.4876 214.6366,441.68937 204.00782,480.45312 C 192.04916,524.06706 196.9681,563.4583 215.25782,619.73437 C 230.71358,667.29056 223.56448,692.25202 202.72657,713.70312 C 178.79276,716.96578 166.0213,716.84335 146.19532,713.17187 C 123.17126,708.90818 116.16039,722.24783 118.35157,739.04687 C 121.33607,761.92794 113.38912,800.72761 84.539067,841.51562 C 155.17196,877.32949 263.74809,855.46451 264.60157,843.51562 C 265.1698,835.56037 254.79431,792.51328 244.44532,757.45312 C 261.9924,750.79165 293.71366,739.04687 299.41407,739.04687 C 307.37271,739.04685 384.95566,764.91108 386.94532,774.85937 C 388.93497,784.80766 382.966,854.44772 386.94532,859.42187 C 390.92463,864.39604 410.11978,864.889 413.82032,860.42187 C 418.15024,855.19498 412.97834,781.64952 418.16407,773.64062 C 423.99272,764.63877 481.95542,748.01558 489.91407,748.01562 C 495.61447,748.01562 530.33571,754.76041 547.88282,761.42187 C 537.53383,796.48203 525.15834,838.56036 525.72657,846.51562 C 526.58005,858.46451 632.1562,883.29823 702.78907,847.48437 C 686.87179,797.74289 676.08758,772.73195 676.94532,748.98437 C 677.85162,723.89252 674.12563,713.87696 651.10157,718.14062 C 627.81968,722.45208 601.58484,720.92509 568.00782,717.67187 C 534.6797,714.44278 525.22679,702.74497 519.25782,698.76562 C 513.28885,694.7863 508.82032,632.60937 508.82032,632.60937 C 508.82032,632.60937 505.4392,634.38727 505.19532,634.51562 C 535.38252,582.57312 545.28482,559.79864 532.50782,531.67187 C 517.24621,498.07557 519.26887,479.15146 530.32032,428.04687 C 536.47819,399.57135 569.64456,342.98971 572.88282,322.92187 C 577.78275,292.55671 580.74286,293.88591 551.57032,280.95312 C 529.22084,271.04514 487.39644,252.70448 443.07032,244.20312 C 443.13435,243.23702 443.16407,242.27909 443.16407,241.29687 C 443.16407,228.66382 437.78776,217.26423 429.19532,209.29687 C 442.27082,195.04635 457.72061,177.79719 472.00782,161.07812 C 458.76454,144.89188 431.67854,134.66025 402.10157,134.82812 C 401.86683,134.82945 401.64811,134.82163 401.41407,134.82812 C 401.37019,134.82934 401.30527,134.82809 401.25782,134.82812 C 401.25395,134.8282 401.23248,134.82819 401.22657,134.82812 C 401.22095,134.82839 401.20068,134.82805 401.19532,134.82812 C 401.17461,134.82784 401.1534,134.82817 401.13282,134.82812 C 401.12637,134.82805 401.10435,134.82793 401.10157,134.82812 C 401.09759,134.8282 401.07417,134.82819 401.07032,134.82812 C 401.05905,134.8276 401.01994,134.82764 401.00782,134.82812 C 401.00504,134.8282 400.97907,134.82819 400.97657,134.82812 C 400.97402,134.8281 400.94818,134.82796 400.94532,134.82812 C 400.9388,134.82818 400.91669,134.8283 400.91407,134.82812 C 400.91141,134.8281 400.88549,134.82796 400.88282,134.82812 C 400.87213,134.82783 400.83106,134.82819 400.82032,134.82812 C 400.81751,134.82806 400.79248,134.82829 400.78907,134.82812 C 400.78729,134.82792 400.76483,134.82806 400.75782,134.82812 z M 396.72657,218.76562 C 396.76979,218.76133 396.80828,218.76966 396.85157,218.76562 C 396.857,218.76511 396.87754,218.7658 396.88282,218.76562 C 396.90353,218.76583 396.92459,218.76534 396.94532,218.76562 C 396.95061,218.76546 396.97113,218.76609 396.97657,218.76562 C 396.9793,218.76538 397.00135,218.76554 397.00782,218.76562 C 397.02851,218.76582 397.04961,218.76536 397.07032,218.76562 C 397.07679,218.76569 397.09884,218.76584 397.10157,218.76562 C 397.10432,218.76539 397.12636,218.76554 397.13282,218.76562 C 397.1535,218.7658 397.17462,218.76537 397.19532,218.76562 C 397.20178,218.76569 397.22382,218.76582 397.22657,218.76562 C 397.22933,218.76542 397.25136,218.76555 397.25782,218.76562 C 397.27848,218.76579 397.29964,218.76539 397.32032,218.76562 C 397.32678,218.76568 397.34881,218.76581 397.35157,218.76562 C 397.35435,218.76543 397.37637,218.76555 397.38282,218.76562 C 397.40347,218.76577 397.42465,218.7654 397.44532,218.76562 C 397.45177,218.76568 397.47379,218.7658 397.47657,218.76562 C 397.47936,218.76544 397.50137,218.76556 397.50782,218.76562 C 397.52845,218.76575 397.54967,218.76542 397.57032,218.76562 C 397.57566,218.76552 397.59597,218.76594 397.60157,218.76562 C 397.69179,218.76052 397.79231,218.76961 397.88282,218.76562 C 398.0202,218.75956 398.15105,218.76912 398.28907,218.76562 C 398.47602,218.76088 398.66348,218.76562 398.85157,218.76562 C 410.88902,218.76563 420.66407,228.54067 420.66407,240.57812 C 420.66406,252.61557 410.88902,262.39062 398.85157,262.39062 C 386.81412,262.39061 377.03907,252.61557 377.03907,240.57812 C 377.03908,229.27312 385.70521,219.86024 396.72657,218.76562 z M 358.57032,266.26562 C 358.61069,266.26063 358.65522,266.27003 358.69532,266.26562 C 358.70067,266.26503 358.72131,266.26584 358.72657,266.26562 C 358.74738,266.26582 358.76833,266.26527 358.78907,266.26562 C 358.79431,266.26546 358.81501,266.26614 358.82032,266.26562 C 358.82316,266.26535 358.84514,266.26553 358.85157,266.26562 C 358.87221,266.2658 358.89348,266.26529 358.91407,266.26562 C 358.92051,266.2657 358.9425,266.26585 358.94532,266.26562 C 358.95159,266.26571 358.9734,266.26571 358.97657,266.26562 C 359.00291,266.26578 359.04406,266.26531 359.07032,266.26562 C 359.07348,266.26555 359.09529,266.26555 359.10157,266.26562 C 359.10778,266.2657 359.12958,266.26571 359.13282,266.26562 C 359.159,266.26575 359.2005,266.26533 359.22657,266.26562 C 359.22979,266.26556 359.2516,266.26556 359.25782,266.26562 C 359.26119,266.26542 359.28292,266.26555 359.28907,266.26562 C 359.31506,266.26571 359.35693,266.26535 359.38282,266.26562 C 359.38938,266.26553 359.40738,266.26594 359.41407,266.26562 C 359.57264,266.25809 359.7275,266.26801 359.88282,266.26562 C 369.06801,266.12413 370.8671,273.68958 365.78907,280.67187 C 360.16146,288.40983 350.30763,298.95118 343.97657,303.17187 C 337.64551,307.39258 314.94418,309.12996 299.66407,312.32812 C 284.53988,315.49365 265.91863,322.17057 256.07032,324.98437 C 246.22201,327.79818 245.50782,315.86394 245.50782,306.01562 C 245.50782,295.94374 258.16829,291.22231 282.78907,283.48437 C 307.40984,275.74641 344.70542,268.71971 356.66407,266.60937 C 357.33307,266.49131 357.96482,266.34043 358.57032,266.26562 z M 436.28907,266.35937 C 436.3246,266.35563 436.34711,266.36281 436.38282,266.35937 C 436.38692,266.35921 436.41024,266.35933 436.41407,266.35937 C 436.42491,266.35999 436.46422,266.35975 436.47657,266.35937 C 436.48068,266.35923 436.504,266.35933 436.50782,266.35937 C 436.5186,266.35993 436.55793,266.35971 436.57032,266.35937 C 436.5978,266.35721 436.63687,266.35865 436.66407,266.35937 C 436.70035,266.36065 436.75207,266.36162 436.78907,266.35937 C 436.86366,266.35485 436.93249,266.3626 437.00782,266.35937 C 437.16088,266.35282 437.32046,266.36049 437.47657,266.35937 C 438.32329,266.35331 439.2298,266.4445 440.16407,266.60937 C 452.12272,268.71971 487.9808,277.15266 512.60157,284.89062 C 537.22234,292.62857 557.63282,302.97499 557.63282,313.04687 C 557.63283,329.92968 553.41928,339.04883 542.16407,334.82812 C 532.5738,331.23176 512.25701,322.5249 497.13282,319.35937 C 481.85271,316.1612 457.74513,311.64258 451.41407,307.42187 C 445.08301,303.20118 434.54168,292.62858 428.91407,284.89062 C 423.94537,278.05863 427.22869,267.31407 436.28907,266.35937 z M 398.44532,312.48437 C 398.44809,312.48439 398.4733,312.4842 398.47657,312.48437 C 398.48311,312.48443 398.50527,312.4844 398.50782,312.48437 C 398.52322,312.48481 398.55443,312.48377 398.57032,312.48437 C 398.5757,312.48439 398.5961,312.48463 398.60157,312.48437 C 402.24844,312.31175 405.93668,315.03088 407.28907,320.07812 C 410.61147,332.47749 414.90163,344.81437 425.60157,356.64062 C 438.96713,371.41309 430.15672,403.98012 396.75782,403.76562 C 363.35602,403.55111 354.15914,370.8747 372.82032,354.54687 C 385.88183,343.11854 387.41136,331.97192 390.41407,320.76562 C 391.84483,315.42597 395.05899,312.79667 398.35157,312.51562 C 398.35431,312.51539 398.37636,312.51544 398.38282,312.51562 C 398.38559,312.51568 398.41082,312.51544 398.41407,312.51562 C 398.41669,312.51277 398.4427,312.48789 398.44532,312.48437 z M 218.75782,317.23437 C 218.76483,317.23431 218.7873,317.23417 218.78907,317.23437 C 218.79219,317.23451 218.81755,317.23427 218.82032,317.23437 C 218.82377,317.23426 218.84872,317.23437 218.85157,317.23437 C 218.8629,317.23995 218.90387,317.26021 218.91407,317.26562 C 221.19945,318.44882 239.2884,352.00631 235.66407,358.04687 C 231.44337,365.08137 207.52573,365.79947 202.60157,360.17187 C 198.33084,355.29104 218.75782,317.26562 218.75782,317.26562 C 218.75764,317.26387 218.75777,317.24139 218.75782,317.23437 z M 536.32032,358.23437 C 536.32662,358.23447 536.34843,358.23451 536.35157,358.23437 C 536.39113,358.23364 536.44148,358.23378 536.47657,358.23437 C 536.48045,358.23433 536.50194,358.23432 536.50782,358.23437 C 537.35234,358.19354 538.13713,358.37268 538.85157,358.76562 C 548.01463,363.8053 500.86015,467.653 405.19532,467.79687 C 297.46434,467.95888 249.86889,392.88294 258.88282,383.39062 C 272.82289,368.71072 298.92241,432.19126 397.44532,431.92187 C 481.29305,431.69261 520.41411,359.5522 536.32032,358.23437 z M 249.85157,436.39062 C 267.60053,474.21768 269.14745,492.25682 262.32032,521.82812 C 255.7619,550.23556 248.04858,575.46232 288.19532,637.42187 C 286.21647,656.77822 282.21624,689.99125 278.00782,692.79687 C 273.64459,695.70568 260.51937,701.66319 240.75782,706.70312 C 243.15964,699.43118 245.78591,689.86352 248.32032,677.42187 C 256.05827,639.43553 245.49903,631.00909 230.72657,577.54687 C 220.34161,539.96319 232.92112,487.77981 249.85157,436.39062 z M 385.97657,487.92187 C 386.07899,487.91864 386.18803,487.92475 386.28907,487.92187 C 386.49274,487.91606 386.68484,487.92624 386.88282,487.92187 C 387.18332,487.91523 387.47076,487.92518 387.75782,487.92187 C 391.76711,487.87563 394.47721,488.16326 395.28907,488.82812 C 395.29537,488.83353 395.31427,488.85391 395.32032,488.85937 C 395.32613,488.86488 395.34601,488.88506 395.35157,488.89062 C 400.27573,493.81477 401.68196,537.43453 396.75782,543.76562 C 391.83366,550.09667 287.21016,531.08033 288.41407,512.10937 C 289.12239,500.94784 359.85945,488.74561 385.97657,487.92187 z M 300.38282,545.89062 L 324.28907,553.60937 L 321.47657,572.60937 L 395.60157,573.85937 C 397.42549,578.7411 398.46908,585.1628 398.16407,593.70312 C 397.93875,600.01219 397.49594,604.38284 396.69532,607.76562 C 396.69302,607.77533 396.69762,607.78718 396.69532,607.79687 C 387.38446,619.63663 358.65957,613.38216 358.07032,620.45312 C 357.71496,624.71726 382.68685,638.73502 400.97657,637.32812 C 419.2663,635.92123 438.96061,628.17513 439.66407,621.14062 C 439.94793,618.30187 422.69239,617.52931 416.44532,607.76562 C 416.44532,602.56701 416.44532,601.58431 416.44532,595.10937 C 416.44532,584.27405 414.72182,582.07253 418.75782,574.23437 L 489.60157,575.42187 C 495.22918,586.67708 491.00911,607.79297 488.19532,616.23437 C 485.38152,624.67578 472.03092,633.82228 455.85157,646.48437 C 439.6722,659.14649 419.26694,676.73436 399.57032,676.73437 C 379.87371,676.73437 362.98176,660.53486 351.72657,652.79687 C 342.70897,646.59727 312.36509,637.26732 306.00782,620.45312 C 296.86296,596.26614 300.38281,545.89065 300.38282,545.89062 z M 405.50782,690.79687 C 405.57749,690.79316 405.65703,690.80039 405.72657,690.79687 C 405.79666,690.79333 405.87538,690.80022 405.94532,690.79687 C 406.01581,690.7935 406.09373,690.80004 406.16407,690.79687 C 406.23496,690.79367 406.3121,690.79986 406.38282,690.79687 C 406.4541,690.79385 406.53048,690.79968 406.60157,690.79687 C 406.67322,690.79404 406.74886,690.79949 406.82032,690.79687 C 406.89234,690.79423 406.96726,690.7993 407.03907,690.79687 C 407.18497,690.79193 407.3316,690.80092 407.47657,690.79687 C 407.69925,690.79064 407.91258,690.801 408.13282,690.79687 C 408.51481,690.7897 408.88439,690.79763 409.25782,690.79687 C 414.44079,690.78636 418.70878,691.40677 419.94532,692.89062 C 423.46257,697.11132 407.29149,748.88645 400.97657,749.17187 C 393.21919,749.52252 381.27182,699.92382 384.78907,695.70312 C 386.78334,693.30999 396.65918,691.268 405.50782,690.79687 z M 154.91407,732.07812 C 154.92108,732.07806 154.94354,732.07792 154.94532,732.07812 C 154.94813,732.07814 154.97315,732.07796 154.97657,732.07812 C 154.98731,732.07817 155.02833,732.07784 155.03907,732.07812 C 155.04168,732.07796 155.06771,732.07813 155.07032,732.07812 C 155.07552,732.0784 155.09637,732.07797 155.10157,732.07812 C 155.18495,732.0718 155.26724,732.08012 155.35157,732.07812 C 162.37932,731.91096 173.19215,735.0781 184.00782,735.07812 C 198.93026,735.07812 216.85134,731.09877 222.82032,735.07812 C 228.7893,739.05743 241.70589,819.63524 237.72657,824.60937 C 233.74725,829.58352 229.76458,833.55204 188.97657,834.54687 C 148.18856,835.5417 124.33089,831.57831 120.35157,825.60937 C 116.37225,819.64039 125.32632,803.44694 133.28907,780.82812 C 142.48712,754.70032 144.22117,739.05228 149.19532,734.07812 C 150.47772,732.79572 152.41717,732.22686 154.85157,732.10937 C 154.85451,732.10945 154.88013,732.10938 154.88282,732.10937 C 154.88624,732.10952 154.91126,732.10935 154.91407,732.10937 C 154.91389,732.10761 154.91402,732.08514 154.91407,732.07812 z M 623.41407,735.67187 C 623.546,735.667 623.68838,735.67655 623.82032,735.67187 C 623.95652,735.66704 624.09037,735.67649 624.22657,735.67187 C 624.36716,735.6671 624.49223,735.67643 624.63282,735.67187 C 624.77794,735.66716 624.92523,735.67636 625.07032,735.67187 C 625.22009,735.66724 625.35809,735.67627 625.50782,735.67187 C 625.66238,735.66733 625.82211,735.67617 625.97657,735.67187 C 626.13601,735.66744 626.286,735.67605 626.44532,735.67187 C 626.60978,735.66756 626.78104,735.6759 626.94532,735.67187 C 627.1149,735.66771 627.27597,735.67574 627.44532,735.67187 C 627.62014,735.66788 627.80206,735.67554 627.97657,735.67187 C 628.15671,735.66808 628.32804,735.67531 628.50782,735.67187 C 628.6934,735.66832 628.88521,735.67504 629.07032,735.67187 C 629.26141,735.6686 629.44227,735.67472 629.63282,735.67187 C 630.03932,735.66578 630.44804,735.67596 630.85157,735.67187 C 640.59957,735.57314 649.35931,736.05461 652.35157,739.04687 C 657.32571,744.021 659.05977,758.66907 668.25782,784.79687 C 676.2206,807.4157 679.20589,825.60914 675.22657,831.57812 C 671.24722,837.54711 647.38958,841.51045 606.60157,840.51562 C 565.81354,839.52078 552.86214,834.55227 548.88282,829.57812 C 544.90352,824.60396 565.78884,745.02618 571.75782,741.04687 C 577.72678,737.06757 596.64788,736.07812 611.57032,736.07812 C 615.25944,736.07812 619.32438,735.82296 623.41407,735.67187 z M 294.75782,760.92187 C 282.25903,762.2385 272.53908,772.95355 272.53907,785.79687 C 272.53907,799.52552 283.68541,810.6719 297.41407,810.67187 C 311.14272,810.67187 322.28907,799.52553 322.28907,785.79687 C 322.28907,772.06822 311.1427,760.92188 297.41407,760.92187 C 297.36044,760.92187 297.31137,760.92153 297.25782,760.92187 C 297.04446,760.92322 296.84488,760.91517 296.63282,760.92187 C 296.52845,760.92517 296.42437,760.91728 296.32032,760.92187 C 296.21708,760.92642 296.11073,760.91606 296.00782,760.92187 C 296.00161,760.92181 295.97981,760.92181 295.97657,760.92187 C 295.95045,760.92164 295.90892,760.92202 295.88282,760.92187 C 295.87959,760.92194 295.85778,760.92194 295.85157,760.92187 C 295.84536,760.9218 295.82355,760.9218 295.82032,760.92187 C 295.79418,760.92162 295.75269,760.92204 295.72657,760.92187 C 295.72334,760.92195 295.70153,760.92195 295.69532,760.92187 C 295.6891,760.9218 295.66729,760.9218 295.66407,760.92187 C 295.63792,760.9216 295.59645,760.92206 295.57032,760.92187 C 295.5671,760.92196 295.54529,760.92195 295.53907,760.92187 C 295.53285,760.92179 295.51104,760.92179 295.50782,760.92187 C 295.48165,760.92159 295.44022,760.92208 295.41407,760.92187 C 295.41086,760.92196 295.38905,760.92196 295.38282,760.92187 C 295.37659,760.92179 295.35478,760.92178 295.35157,760.92187 C 295.32538,760.92157 295.28399,760.92209 295.25782,760.92187 C 295.25462,760.92196 295.2328,760.92196 295.22657,760.92187 C 295.22033,760.92178 295.19852,760.92178 295.19532,760.92187 C 295.16911,760.92155 295.12776,760.92211 295.10157,760.92187 C 295.09837,760.92198 295.07656,760.92197 295.07032,760.92187 C 295.06408,760.92177 295.04227,760.92178 295.03907,760.92187 C 295.01285,760.92154 294.97152,760.92213 294.94532,760.92187 C 294.94212,760.92198 294.92031,760.92197 294.91407,760.92187 C 294.90793,760.92248 294.8892,760.92167 294.88282,760.92187 C 294.85658,760.92152 294.81529,760.92215 294.78907,760.92187 C 294.78269,760.9221 294.76395,760.92123 294.75782,760.92187 z M 488.75782,767.89062 C 476.25882,769.20693 466.53906,779.9221 466.53907,792.76562 C 466.53907,806.49427 477.68542,817.64065 491.41407,817.64062 C 505.14272,817.64062 516.28908,806.49428 516.28907,792.76562 C 516.28907,779.03697 505.14271,767.89063 491.41407,767.89062 C 491.25319,767.89062 491.10548,767.88757 490.94532,767.89062 C 490.78704,767.89363 490.63412,767.88466 490.47657,767.89062 C 490.37277,767.89455 490.26755,767.88542 490.16407,767.89062 C 490.15765,767.89094 490.1393,767.89052 490.13282,767.89062 C 490.10672,767.89041 490.06515,767.89075 490.03907,767.89062 C 490.03584,767.89068 490.01402,767.89068 490.00782,767.89062 C 490.00161,767.89056 489.9798,767.89056 489.97657,767.89062 C 489.95045,767.89039 489.90892,767.89077 489.88282,767.89062 C 489.87959,767.89069 489.85778,767.89069 489.85157,767.89062 C 489.84536,767.89055 489.82355,767.89056 489.82032,767.89062 C 489.79418,767.89037 489.75269,767.89079 489.72657,767.89062 C 489.72334,767.8907 489.70153,767.89069 489.69532,767.89062 C 489.6891,767.89055 489.66729,767.89055 489.66407,767.89062 C 489.63792,767.89036 489.59645,767.89081 489.57032,767.89062 C 489.5671,767.8907 489.54529,767.8907 489.53907,767.89062 C 489.53285,767.89054 489.51104,767.89055 489.50782,767.89062 C 489.48165,767.89034 489.44022,767.89083 489.41407,767.89062 C 489.41086,767.89071 489.38905,767.89071 489.38282,767.89062 C 489.37659,767.89054 489.35478,767.89054 489.35157,767.89062 C 489.32538,767.89032 489.28399,767.89084 489.25782,767.89062 C 489.25462,767.89071 489.2328,767.89071 489.22657,767.89062 C 489.22033,767.89053 489.19852,767.89053 489.19532,767.89062 C 489.16911,767.8903 489.12776,767.89086 489.10157,767.89062 C 489.09837,767.89072 489.07656,767.89072 489.07032,767.89062 C 489.06408,767.89052 489.04227,767.89053 489.03907,767.89062 C 489.01285,767.89029 488.97152,767.89088 488.94532,767.89062 C 488.94212,767.89073 488.92031,767.89072 488.91407,767.89062 C 488.90793,767.89123 488.8892,767.89042 488.88282,767.89062 C 488.85658,767.89027 488.81529,767.8909 488.78907,767.89062 C 488.78269,767.89085 488.76395,767.88998 488.75782,767.89062 z "
       id="path2184" />
  </g>
</svg>
