<?xml version="1.0" encoding="UTF-8" standalone="no"?>
<!-- Created with Inkscape (http://www.inkscape.org/) -->
<svg
   xmlns:dc="http://purl.org/dc/elements/1.1/"
   xmlns:cc="http://web.resource.org/cc/"
   xmlns:rdf="http://www.w3.org/1999/02/22-rdf-syntax-ns#"
   xmlns:svg="http://www.w3.org/2000/svg"
   xmlns="http://www.w3.org/2000/svg"
   xmlns:sodipodi="http://inkscape.sourceforge.net/DTD/sodipodi-0.dtd"
   xmlns:inkscape="http://www.inkscape.org/namespaces/inkscape"
   id="svg2"
   sodipodi:version="0.32"
   inkscape:version="0.43"
   width="210mm"
   height="297mm"
   sodipodi:docbase="/home/sjoerd0/docs/images/stratego"
   sodipodi:docname="majoor.svg"
   version="1.0">
  <metadata
     id="metadata7">
    <rdf:RDF>
      <cc:Work
         rdf:about="">
        <dc:format>image/svg+xml</dc:format>
        <dc:type
           rdf:resource="http://purl.org/dc/dcmitype/StillImage" />
      </cc:Work>
    </rdf:RDF>
  </metadata>
  <defs
     id="defs5" />
  <sodipodi:namedview
     inkscape:window-height="946"
     inkscape:window-width="1264"
     inkscape:pageshadow="2"
     inkscape:pageopacity="0.0"
     borderopacity="1.0"
     bordercolor="#666666"
     pagecolor="#ffffff"
     id="base"
     inkscape:zoom="0.50259871"
     inkscape:cx="752.14699"
     inkscape:cy="473.29277"
     inkscape:window-x="0"
     inkscape:window-y="0"
     inkscape:current-layer="layer2" />
  <g
     inkscape:groupmode="layer"
     id="layer2"
     inkscape:label="Vector">
    <path
       style="fill:#000000;fill-opacity:1;fill-rule:evenodd;stroke:#000000;stroke-width:1px;stroke-linecap:butt;stroke-linejoin:miter;stroke-opacity:1"
       d="M 556.2291,106.19784 C 555.5292,106.2252 554.8426,106.27622 554.1353,106.29159 C 537.5483,106.65218 524.6865,114.67912 514.4791,128.29159 C 480.0981,117.70398 445.4608,112.83073 412.6978,112.91659 C 412.1093,112.91813 411.5352,112.91187 410.9478,112.91659 C 410.6565,112.91893 410.3639,112.91347 410.0728,112.91659 C 409.7829,112.9197 409.4875,112.9127 409.1978,112.91659 C 408.9094,112.92046 408.611,112.91195 408.3228,112.91659 C 408.0358,112.92121 407.7346,112.91121 407.4478,112.91659 C 334.3261,114.28841 271.29627,140.38208 242.72909,181.88534 C 189.69628,258.93302 218.98528,313.91948 253.66659,330.10409 C 274.9877,340.05395 327.2772,335.27861 359.7603,301.63534 C 361.0661,314.19611 357.9887,328.89699 351.2916,345.47909 C 333.0766,354.84607 317.913,365.54049 307.41659,374.88534 C 283.92126,395.80302 266.80122,420.73909 246.44784,445.19784 C 244.74908,444.30765 243.15916,443.43538 241.72909,442.54159 C 225.81182,432.59329 208.92199,442.54091 203.94784,460.44784 C 201.35822,469.77046 202.2777,479.05117 206.97909,485.44784 C 174.98331,511.31262 149.17605,511.55973 148.22909,519.13534 C 147.23426,527.09398 156.73343,552.86673 199.94784,562.91659 C 205.98099,564.31965 212.5645,564.75802 219.60409,564.54159 C 204.42805,576.91777 184.04159,595.29358 184.04159,604.69784 C 184.04159,610.18465 188.34725,619.44256 193.79159,628.94784 C 182.86446,637.28369 172.10409,649.79402 172.10409,661.38534 C 172.10409,673.00933 182.38098,687.63826 196.32284,693.54159 C 184.88674,712.54221 178.80246,723.2046 178.07284,729.04159 C 177.07801,737.0002 202.9375,821.54899 200.94784,901.13534 C 297.4463,885.21807 419.8194,865.34397 509.3541,857.38534 C 504.1709,792.96625 519.3644,743.41696 527.4791,722.29159 C 568.2056,722.55307 626.6715,706.92398 645.9478,665.57284 C 583.2852,641.68832 589.9355,579.82062 641.6666,501.22909 C 684.277,436.494 719.4501,310.9927 655.4791,220.38534 C 658.9814,216.19981 662.0399,212.29329 664.5416,208.76034 C 686.9332,177.13808 680.9554,160.41627 659.5728,138.10409 C 637.4962,115.06757 602.4566,105.91882 558.9166,106.19784 C 558.52,106.20038 558.126,106.19131 557.7291,106.19784 C 557.5802,106.20029 557.4406,106.1946 557.2916,106.19784 C 557.1612,106.20067 557.0162,106.19431 556.8853,106.19784 C 556.7709,106.20093 556.6559,106.1941 556.5416,106.19784 C 556.4416,106.20112 556.3291,106.19393 556.2291,106.19784 z M 563.8228,127.57284 C 563.8541,127.56966 563.8854,127.57516 563.9166,127.57284 C 563.9479,127.5719 564.0106,127.57326 564.0416,127.57284 C 564.045,127.57266 564.0667,127.57277 564.0728,127.57284 C 564.1114,127.57281 564.1558,127.57404 564.1978,127.57284 C 564.4219,127.56646 564.6598,127.57435 564.8853,127.57284 C 602.9339,127.3172 665.8763,146.17296 652.8853,183.10409 C 648.8546,194.56277 622.447,230.46535 614.3853,239.41659 C 571.6852,286.82891 553.1515,295.32423 509.0728,338.79159 C 489.1184,356.33095 488.2536,385.45906 474.5103,407.10409 C 470.1069,420.37695 448.9609,421.40125 443.0103,408.94784 C 438.1152,394.17935 448.0692,379.30933 459.0416,370.07284 C 472.1059,362.52892 475.8942,343.41767 477.9166,328.76034 C 490.1331,273.69596 496.1355,221.14134 514.8228,167.63534 C 520.6741,149.27637 532.7071,131.21325 553.6666,128.32284 C 556.6696,127.90871 559.9795,127.67151 563.5416,127.60409 C 563.6352,127.60232 563.7291,127.58238 563.8228,127.57284 z M 424.5728,189.60409 C 424.7461,189.59887 424.9304,189.60881 425.1041,189.60409 C 425.2785,189.59935 425.4604,189.60832 425.6353,189.60409 C 425.8109,189.59984 425.9905,189.60783 426.1666,189.60409 C 426.3434,189.60034 426.5206,189.60733 426.6978,189.60409 C 426.8758,189.60084 427.0507,189.60681 427.2291,189.60409 C 427.4082,189.60136 427.5807,189.60629 427.7603,189.60409 C 428.4903,189.59515 429.2097,189.60412 429.9478,189.60409 C 441.5034,189.60366 464.2208,194.98405 486.4478,202.04159 C 483.8466,214.23086 481.5824,227.16501 479.5103,240.57284 C 473.4498,279.78957 468.6293,305.94111 465.4166,322.54159 C 433.8558,318.23063 402.5783,324.32512 375.4478,334.69784 C 382.2277,316.72355 390.0636,269.53541 383.9791,246.54159 C 318.3203,270.4175 329.3015,232.62028 343.2291,217.69784 C 351.8628,208.44747 380.3924,190.93506 424.5728,189.60409 z M 600.2916,277.69784 C 616.0193,300.81603 627.9351,332.55589 629.7291,377.85409 C 631.8648,431.78083 606.4069,486.5561 590.3541,530.69784 C 589.873,519.23388 589.4582,507.38238 588.9478,495.26034 C 585.658,417.12697 567.9336,372.6707 527.4478,345.91659 C 544.0828,330.32064 572.7948,304.20771 600.2916,277.69784 z M 442.1978,342.97909 C 442.2045,342.97761 442.2222,342.9803 442.2291,342.97909 C 442.2398,342.97916 442.2811,342.97881 442.2916,342.97909 C 442.2943,342.97893 442.3203,342.97907 442.3228,342.97909 C 442.3254,342.97916 442.3514,342.97917 442.3541,342.97909 C 442.3658,342.97862 442.4049,342.9786 442.4166,342.97909 C 442.4205,342.97916 442.4439,342.97916 442.4478,342.97909 C 442.4843,342.97799 442.5365,342.98047 442.5728,342.97909 C 442.739,342.97279 442.905,342.98089 443.0728,342.97909 C 448.804,342.91779 454.6509,343.54562 460.4791,344.82284 C 454.7179,353.96667 430.4486,360.48105 423.7916,397.76034 C 418.8174,425.61556 451.6605,443.51597 474.5416,432.57284 C 490.9791,424.71142 502.2938,389.9318 508.8541,371.13534 C 524.2059,385.80993 534.5212,404.81489 534.3228,424.69784 C 533.775,479.60799 515.9557,513.24323 503.8853,568.69784 C 495.1109,609.00991 524.0015,664.94819 603.5728,679.07284 C 578.2473,699.77042 552.5299,707.9579 521.1978,699.76034 C 462.9629,684.52404 448.731,623.63324 437.6978,597.01034 C 425.9884,564.59931 395.1453,542.13064 362.2916,534.57284 C 323.1766,524.16784 282.46783,533.68525 243.35409,539.79159 C 221.33419,543.72939 195.387,544.63095 177.72909,528.85409 C 188.10636,523.48586 201.79439,514.12037 211.26034,506.10409 C 216.0229,502.07089 220.52891,497.94584 224.85409,493.79159 C 224.86115,493.79149 224.88372,493.79127 224.88534,493.79159 C 227.03302,493.83096 229.32346,493.65524 231.79159,493.26034 C 256.66232,489.28102 297.97386,489.72273 332.2603,496.26034 C 374.354,504.2866 394.9469,508.19199 418.8228,525.10409 C 442.6987,542.0162 489.4215,540.01938 487.4791,499.22909 C 485.4894,457.44626 455.6207,449.4892 428.7603,457.44784 C 401.8999,465.40648 378.0328,472.39074 334.2603,467.41659 C 304.8507,464.07458 280.38607,458.45953 262.66659,452.13534 C 284.36945,426.04807 305.20704,399.69928 336.3541,376.10409 C 368.9014,351.44816 418.2633,343.0769 442.0728,343.01034 C 442.0795,343.01017 442.0976,343.01104 442.1041,343.01034 C 442.1105,343.00922 442.129,343.01176 442.1353,343.01034 C 442.1481,343.00712 442.1848,342.98237 442.1978,342.97909 z M 358.1353,556.54159 C 365.1262,558.31447 372.11,560.72143 379.0416,563.88534 C 390.1278,568.94563 398.312,575.75872 404.6666,583.63534 L 345.7916,676.60409 C 288.75361,697.62442 291.04632,670.02457 281.54159,641.51034 C 273.6529,617.84428 240.10055,615.44594 220.10409,617.94784 C 216.83366,611.19254 214.58514,605.39962 214.88534,602.69784 C 215.5382,596.82214 244.0241,573.82512 263.54159,558.69784 C 263.54867,558.69775 263.57128,558.69754 263.57284,558.69784 C 267.10621,558.08524 270.69422,557.4496 274.32284,556.85409 L 278.54159,582.79159 L 358.1353,556.54159 z M 427.2603,672.44784 C 441.0264,687.65323 460.6176,709.26399 470.5416,720.10409 C 413.6308,725.54025 290.49642,745.94739 245.72909,757.88534 C 228.42678,762.49929 212.89612,755.8961 202.94784,745.94784 C 194.25588,737.25588 205.33442,723.24789 224.85409,694.63534 C 235.08087,693.201 241.5956,693.29031 245.72909,709.13534 C 250.83289,728.69988 299.08942,749.98113 342.3228,691.63534 L 427.2603,672.44784 z M 492.5103,736.01034 C 492.795,736.00593 493.0719,736.01401 493.3541,736.01034 C 493.6374,736.00665 493.9171,736.01328 494.1978,736.01034 C 495.6297,735.99536 497.0516,736.00548 498.4166,736.01034 C 496.6756,753.17115 491.4478,769.82286 491.4478,769.82284 C 491.4478,769.82284 325.3186,795.69758 300.44784,801.66659 C 275.5771,807.63556 276.56296,817.58115 262.63534,873.29159 L 221.85409,879.26034 C 216.87994,854.3896 242.73381,791.71405 255.66659,776.79159 C 268.24791,762.27468 419.9328,737.13555 492.5103,736.01034 z "
       id="path2280" />
  </g>
</svg>
