<?xml version="1.0" encoding="UTF-8" standalone="no"?>
<!-- Created with Inkscape (http://www.inkscape.org/) -->
<svg
   xmlns:dc="http://purl.org/dc/elements/1.1/"
   xmlns:cc="http://web.resource.org/cc/"
   xmlns:rdf="http://www.w3.org/1999/02/22-rdf-syntax-ns#"
   xmlns:svg="http://www.w3.org/2000/svg"
   xmlns="http://www.w3.org/2000/svg"
   xmlns:sodipodi="http://inkscape.sourceforge.net/DTD/sodipodi-0.dtd"
   xmlns:inkscape="http://www.inkscape.org/namespaces/inkscape"
   id="svg2"
   sodipodi:version="0.32"
   inkscape:version="0.43"
   width="210mm"
   height="297mm"
   sodipodi:docbase="/home/sjoerd0/docs/images/stratego"
   sodipodi:docname="maarschalk.svg"
   version="1.0">
  <metadata
     id="metadata7">
    <rdf:RDF>
      <cc:Work
         rdf:about="">
        <dc:format>image/svg+xml</dc:format>
        <dc:type
           rdf:resource="http://purl.org/dc/dcmitype/StillImage" />
      </cc:Work>
    </rdf:RDF>
  </metadata>
  <defs
     id="defs5" />
  <sodipodi:namedview
     inkscape:window-height="946"
     inkscape:window-width="1070"
     inkscape:pageshadow="2"
     inkscape:pageopacity="0.0"
     borderopacity="1.0"
     bordercolor="#666666"
     pagecolor="#ffffff"
     id="base"
     inkscape:zoom="0.35539095"
     inkscape:cx="701.69361"
     inkscape:cy="575.04743"
     inkscape:window-x="194"
     inkscape:window-y="0"
     inkscape:current-layer="layer2" />
  <g
     inkscape:groupmode="layer"
     id="layer2"
     inkscape:label="Vector">
    <path
       style="opacity:1;fill:#000000;fill-opacity:1;fill-rule:evenodd;stroke:none;stroke-width:1px;stroke-linecap:butt;stroke-linejoin:miter;stroke-opacity:1"
       d="M 426.05143,149.00456 C 426.05155,149.00626 426.05117,149.03413 426.05143,149.03581 C 426.03556,149.03606 426.00158,149.03562 425.98893,149.03581 C 373.42386,149.85295 321.55668,179.29194 297.55143,212.44206 C 281.73058,234.28989 274.79409,279.32002 290.77018,329.62956 L 237.27018,406.59831 C 229.83016,390.65154 208.62926,380.52858 184.98893,383.03581 C 156.92272,386.01242 135.98636,405.67152 138.23893,426.91081 C 139.26557,436.59093 144.93733,444.94091 153.45768,450.87956 L 169.30143,658.06706 C 133.86741,697.18534 98.48893,790.69209 98.48893,790.69206 C 98.48893,790.69206 80.89909,782.95608 72.45768,786.47331 C 64.01627,789.99057 54.59531,871.62229 53.45768,880.72331 C 52.05078,891.97852 100.7529,937.23209 174.45768,946.12956 C 252.21856,955.51665 317.25063,910.9733 426.98893,910.97331 C 533.2938,910.9733 561.35546,919.41959 647.17643,934.19206 C 659.83854,921.52995 665.47689,868.04981 657.73893,804.03581 C 657.73893,804.03581 679.54164,801.93198 700.64518,789.97331 C 700.64518,789.97331 671.78806,716.12077 666.86393,701.34831 C 661.93977,686.57584 668.97883,659.8369 657.02018,650.69206 C 645.06152,641.5472 577.53317,664.75519 549.39518,663.34831 C 521.25715,661.94141 525.47361,640.84862 524.77018,606.37956 C 524.10845,573.95495 519.08202,559.55585 540.73893,539.22331 C 588.0191,563.21165 629.30883,582.37679 633.11393,578.22331 C 642.04686,568.47255 588.78057,446.00066 566.27018,386.91081 C 566.27018,386.91081 653.51335,413.62112 702.05143,364.37956 C 702.05143,364.37956 659.16023,347.49594 604.30143,310.22331 C 606.24745,309.77903 668.76579,294.97765 699.92643,220.19206 C 699.92643,220.19206 637.32264,237.07357 557.83268,223.00456 C 557.83268,223.00456 590.88994,207.50424 602.14518,174.44206 C 571.8968,175.14551 525.48698,170.23112 462.17643,153.34831 C 450.86214,150.33116 439.27369,148.96166 427.70768,149.00456 C 427.42327,149.00562 427.12019,148.99812 426.83268,149.00456 C 426.7608,149.00617 426.6843,149.00167 426.61393,149.00456 C 426.60733,149.00483 426.58924,149.00449 426.58268,149.00456 C 426.55653,149.00428 426.51484,149.00461 426.48893,149.00456 C 426.48569,149.00464 426.46387,149.00463 426.45768,149.00456 C 426.42713,149.00502 426.36316,149.00361 426.33268,149.00456 C 426.32119,149.0048 426.28238,149.00509 426.27018,149.00456 C 426.26626,149.00454 426.24269,149.0044 426.23893,149.00456 C 426.23629,149.00464 426.21031,149.00463 426.20768,149.00456 C 426.20507,149.00438 426.18295,149.00451 426.17643,149.00456 C 426.17374,149.0045 426.14813,149.00473 426.14518,149.00456 C 426.14174,149.0044 426.11677,149.00458 426.11393,149.00456 C 426.11036,149.00439 426.08553,149.00459 426.08268,149.00456 C 426.08099,149.0043 426.05314,149.00469 426.05143,149.00456 z M 427.11393,171.03581 C 472.08486,175.97628 507.73009,191.39393 552.83268,195.59831 C 533.45446,215.09156 521.6307,219.71437 505.48893,235.50456 C 563.93438,248.14777 582.03566,250.34595 642.83268,254.09831 C 612.74128,280.31994 599.37216,293.23066 561.55143,307.75456 C 597.84753,334.26876 603.28446,343.7693 643.08268,364.72331 C 607.37372,375.79148 569.27344,367.87264 534.73893,356.44206 C 534.70818,356.42464 534.6707,356.41619 534.64518,356.41081 C 534.63912,356.41021 534.61966,356.41066 534.61393,356.41081 C 534.60852,356.4117 534.58777,356.40918 534.58268,356.41081 C 534.56362,356.42031 534.53414,356.45205 534.52018,356.47331 C 534.51701,356.47935 534.49179,356.49779 534.48893,356.50456 C 533.87889,358.30435 542.3376,381.01038 553.89518,411.25456 C 522.35829,394.46132 481.04614,370.19495 457.95768,347.50456 L 471.30143,436.12956 C 471.30143,436.12956 426.28582,402.38837 392.52018,349.62956 L 395.08268,445.56706 C 357.30107,418.29555 325.58248,380.45779 309.23893,337.75456 C 297.25611,305.14146 297.27189,262.66537 312.73893,230.16081 C 337.59223,193.22751 381.91497,172.85716 425.61393,171.06706 L 426.11393,171.06706 L 427.11393,171.03581 z M 297.55143,355.94206 C 302.47559,368.60417 306.71712,372.82519 320.08268,389.00456 L 243.39518,492.41081 L 194.14518,499.44206 C 194.06649,497.90111 273.02683,389.5758 297.55143,355.94206 z M 518.45768,428.41081 L 557.83268,441.75456 L 588.80143,526.87956 L 541.64518,505.06706 L 518.45768,428.41081 z M 392.11393,482.19206 C 384.57947,562.41609 366.88678,578.88112 342.36393,565.00456 C 336.0927,551.93477 327.2027,548.05031 314.20768,548.44206 C 312.92281,548.48079 311.57423,548.5745 310.20768,548.69206 C 300.18724,549.55406 291.45709,549.40118 283.80143,550.50456 C 282.83706,549.33349 281.78646,548.01009 280.67643,546.56706 C 274.40017,538.40792 275.40565,538.10875 299.67643,504.16081 L 351.02018,516.34831 L 354.86393,489.34831 L 392.11393,482.19206 z M 273.98893,504.91081 C 268.7671,513.25982 262.2795,523.55307 256.77018,531.81706 C 247.6467,545.50228 250.93867,553.09253 258.55143,566.78581 C 249.42341,581.2808 231.04401,610.63607 258.86393,615.50456 C 261.45493,615.95799 263.91807,616.36082 266.27018,616.75456 C 265.73118,627.95943 272.98401,653.20694 289.11393,657.72331 C 306.7002,662.64746 286.29133,687.98928 274.33268,687.28581 C 259.8557,686.43422 260.27538,676.00717 249.02018,670.37956 C 240.11206,665.9255 231.22601,671.60053 223.36393,658.81706 L 215.89518,516.09831 L 273.98893,504.91081 z M 504.36393,559.94206 L 505.08268,596.53581 C 505.0827,596.53579 412.22689,610.59505 404.48893,617.62956 C 396.75096,624.66406 370.02018,689.37956 370.02018,689.37956 L 331.33268,673.19206 C 331.33268,673.19209 360.86002,599.35157 369.30143,592.31706 C 377.74285,585.28255 504.36393,559.94206 504.36393,559.94206 z M 297.83268,566.16081 C 297.90113,566.15579 297.98292,566.16549 298.05143,566.16081 C 298.12048,566.15609 298.20108,566.16519 298.27018,566.16081 C 298.33982,566.1564 298.41923,566.16488 298.48893,566.16081 C 298.55918,566.15671 298.63738,566.16456 298.70768,566.16081 C 298.77853,566.15703 298.85553,566.16424 298.92643,566.16081 C 298.99789,566.15735 299.07367,566.16391 299.14518,566.16081 C 299.21725,566.15768 299.29181,566.16358 299.36393,566.16081 C 299.43662,566.15802 299.50995,566.16324 299.58268,566.16081 C 299.73045,566.15588 299.87223,566.16424 300.02018,566.16081 C 300.24744,566.15555 300.48005,566.16255 300.70768,566.16081 C 307.24606,566.1109 313.91065,567.53374 320.08268,570.34831 C 334.84289,577.07926 340.65233,635.63955 326.77018,626.78581 C 307.4873,614.48756 297.97186,605.68631 271.67643,599.50456 C 258.47846,596.40186 268.64319,583.05345 274.67643,576.03581 C 280.92709,570.15247 289.13969,566.79777 297.83268,566.16081 z M 637.14518,683.06706 C 637.17026,683.0624 637.18741,683.071 637.20768,683.06706 C 637.2115,683.06651 637.23526,683.06742 637.23893,683.06706 C 637.25238,683.06688 637.29074,683.06598 637.30143,683.06706 C 637.30519,683.06742 637.32979,683.06709 637.33268,683.06706 C 649.29124,736.51518 666.86393,777.31706 666.86393,777.31706 C 607.77405,795.60678 537.42643,783.62956 537.42643,783.62956 C 545.16437,730.87077 545.17643,687.97331 545.17643,687.97331 C 592.12484,689.98542 633.96043,683.65849 637.14518,683.06706 z M 221.77018,686.41081 C 221.86528,686.4067 221.9567,686.41442 222.05143,686.41081 C 222.14654,686.40719 222.23794,686.41392 222.33268,686.41081 C 222.42779,686.40769 222.5192,686.41342 222.61393,686.41081 C 222.70903,686.40819 222.80046,686.4129 222.89518,686.41081 C 229.22591,686.27098 234.67114,687.33122 238.45768,690.09831 C 256.74741,703.4639 258.1517,746.34798 244.08268,780.81706 C 230.01366,815.28613 173.05143,837.09831 173.05143,837.09831 L 115.36393,799.12956 C 140.68815,738.63277 144.92056,719.63477 157.58268,708.37956 C 161.62505,704.78636 197.52085,687.4585 221.77018,686.41081 z M 321.55143,689.34831 C 321.55542,689.34689 321.579,689.3495 321.58268,689.34831 C 321.58545,689.34833 321.61067,689.34815 321.61393,689.34831 C 321.61896,689.34799 321.64017,689.34834 321.64518,689.34831 C 321.66029,689.34882 321.69163,689.34783 321.70768,689.34831 C 321.71408,689.34836 321.73605,689.34848 321.73893,689.34831 C 333.43581,688.64972 422.76525,732.18778 512.80143,809.66081 C 512.80143,809.66081 502.97006,851.19044 476.23893,888.47331 C 380.56964,800.54198 282.08527,764.6654 276.45768,754.81706 C 270.83007,744.96875 275.06413,720.33823 281.39518,708.37956 C 287.72624,696.4209 310.93718,690.78647 321.48893,689.37956 C 321.49261,689.37851 321.51619,689.38088 321.52018,689.37956 C 321.52865,689.37643 321.54345,689.35114 321.55143,689.34831 z M 318.80143,708.37956 C 306.97495,709.04916 297.55142,718.88687 297.55143,730.87956 C 297.55143,743.30531 307.65694,753.4108 320.08268,753.41081 C 332.50843,753.41081 342.58267,743.30531 342.58268,730.87956 C 342.58268,718.45381 332.50844,708.37958 320.08268,708.37956 C 319.79145,708.37956 319.49624,708.36858 319.20768,708.37956 C 319.11375,708.38313 319.02007,708.37484 318.92643,708.37956 C 318.87998,708.3819 318.84781,708.37693 318.80143,708.37956 z M 249.02018,815.28581 C 284.89615,863.12047 227.90756,887.76954 201.17643,855.41081 C 222.98339,842.74872 249.02018,815.28581 249.02018,815.28581 z "
       id="path2183"
       sodipodi:nodetypes="csssccsscccsssscccsssscsccccccsssssssssssssssccccccccsssssccccccccccccccccccccccsscscccccscscssscccccsccsccssssssssssssscccsssccccccssssssccsccsssssccssssccsssssscccc" />
  </g>
</svg>
