<?xml version="1.0" encoding="UTF-8" standalone="no"?>
<!-- Created with Inkscape (http://www.inkscape.org/) -->
<svg
   xmlns:dc="http://purl.org/dc/elements/1.1/"
   xmlns:cc="http://web.resource.org/cc/"
   xmlns:rdf="http://www.w3.org/1999/02/22-rdf-syntax-ns#"
   xmlns:svg="http://www.w3.org/2000/svg"
   xmlns="http://www.w3.org/2000/svg"
   xmlns:sodipodi="http://inkscape.sourceforge.net/DTD/sodipodi-0.dtd"
   xmlns:inkscape="http://www.inkscape.org/namespaces/inkscape"
   id="svg1337"
   sodipodi:version="0.32"
   inkscape:version="0.43"
   width="210mm"
   height="297mm"
   sodipodi:docbase="/home/sjoerd0/docs/images/stratego"
   sodipodi:docname="mineur.svg"
   version="1.0">
  <metadata
     id="metadata1342">
    <rdf:RDF>
      <cc:Work
         rdf:about="">
        <dc:format>image/svg+xml</dc:format>
        <dc:type
           rdf:resource="http://purl.org/dc/dcmitype/StillImage" />
      </cc:Work>
    </rdf:RDF>
  </metadata>
  <defs
     id="defs1340" />
  <sodipodi:namedview
     inkscape:window-height="946"
     inkscape:window-width="1264"
     inkscape:pageshadow="2"
     inkscape:pageopacity="0.0"
     borderopacity="1.0"
     bordercolor="#666666"
     pagecolor="#ffffff"
     id="base"
     inkscape:zoom="0.50259871"
     inkscape:cx="717.33973"
     inkscape:cy="608.81383"
     inkscape:window-x="0"
     inkscape:window-y="0"
     inkscape:current-layer="layer2" />
  <g
     inkscape:groupmode="layer"
     id="layer2"
     inkscape:label="Vector">
    <path
       style="opacity:1;fill:#000000;fill-opacity:1;fill-rule:evenodd;stroke:none;stroke-width:1px;stroke-linecap:butt;stroke-linejoin:miter;stroke-opacity:1"
       d="M 400.69644,116.47147 C 400.61754,116.4814 400.55214,116.50196 400.47774,116.50272 C 400.01394,116.50509 399.53514,116.49669 399.07144,116.50272 C 398.84144,116.50571 398.61394,116.49883 398.38394,116.50272 C 398.15494,116.50659 397.92554,116.49795 397.69644,116.50272 C 397.46834,116.50747 397.23704,116.49709 397.00894,116.50272 C 338.84414,117.93834 282.04879,148.05786 248.50898,195.19023 C 240.73443,206.22715 234.72839,218.48978 228.25898,230.37773 C 226.41275,229.62825 224.40444,229.22148 222.29023,229.22148 C 213.5039,229.22148 206.38398,236.34139 206.38398,245.12773 C 206.38398,248.47805 207.39516,251.59361 209.16523,254.15898 C 201.16963,259.61551 192.51392,264.28423 185.10273,270.56523 C 168.60493,282.93233 141.49541,294.78857 130.72773,312.59648 C 127.53715,320.19825 132.71491,329.99193 141.29023,330.44023 C 159.18749,334.73274 187.69414,332.10067 205.88398,333.31523 C 216.81211,333.38857 227.98419,333.68833 239.07148,334.65898 C 236.14356,337.62541 233.30394,340.64305 230.57148,343.69023 C 220.24484,356.00364 206.75182,367.69613 203.41523,384.06523 C 202.87372,392.32047 205.13104,400.10246 208.10273,407.69023 C 206.27523,410.09885 204.2027,413.41403 201.54023,417.94023 C 191.59193,434.85233 198.54471,453.73678 217.44648,462.69023 C 219.17381,463.50844 221.39857,464.33901 224.00898,465.09648 C 218.76172,479.16882 212.08217,495.77848 220.25898,510.03398 C 227.75967,523.45504 242.28415,529.75123 257.25898,531.44023 C 255.41584,553.58363 249.42979,625.35928 248.57148,635.65898 C 247.57668,647.59695 245.59778,657.55961 238.63398,668.50273 C 237.85633,669.72481 236.27171,672.89932 233.44648,677.12773 C 230.68624,681.25893 225.00879,680.44811 213.50898,680.69023 C 189.61766,681.19324 183.59053,708.3321 192.85273,721.47148 C 197.68472,728.32618 200.10827,733.26401 198.57148,736.59648 C 197.07929,739.83231 179.5733,769.22325 170.88398,784.15898 C 167.69927,788.46468 163.73679,786.27327 151.72773,786.53398 C 121.4518,787.19127 116.80849,835.91769 145.91523,846.34648 C 155.51411,849.78575 160.33132,841.54887 162.63398,836.78398 C 164.66868,832.57361 255.02707,677.44046 258.50898,671.47148 C 265.47281,659.53356 269.45682,646.62301 271.44648,633.69023 C 272.9731,623.76731 276.85042,560.01143 278.57148,530.84648 C 286.51996,529.19612 293.51205,525.22158 299.75894,520.15898 C 348.23354,504.39374 452.69224,483.25058 483.66524,485.12773 C 483.66514,497.06569 491.60294,512.00273 485.63394,512.00273 C 443.85114,516.97686 315.44364,536.74988 312.54024,549.81523 C 310.55054,558.76868 303.60254,614.45036 309.57144,622.40898 C 313.05194,627.04965 356.33494,608.48744 413.04024,599.53398 C 469.74554,590.58051 500.57144,586.59648 500.57144,586.59648 C 500.57144,586.59649 507.51954,602.53893 503.54024,609.50273 C 421.96424,626.41488 301.61844,650.27341 298.63394,654.25273 C 295.66114,658.21655 176.2089,862.56264 176.25898,864.15898 C 302.60234,824.3658 358.30724,866.15471 457.79024,841.28398 C 557.27324,816.41327 619.96224,762.7062 616.97774,753.75273 C 613.99324,744.79928 527.43614,594.57085 525.44644,583.62773 C 523.30354,571.84165 496.39934,483.76571 514.50894,460.25273 C 524.20324,447.66595 554.43874,450.81406 576.00894,454.56523 C 586.69874,454.95117 600.44724,449.941 602.07144,438.03398 C 603.93794,409.92647 580.70374,386.71379 584.25894,358.37773 C 586.85614,341.91096 590.97544,325.45432 592.82144,308.81523 C 597.71574,273.99306 596.26334,236.65632 578.57144,205.47148 C 555.93394,163.66392 513.23354,135.24045 467.47774,124.50272 C 445.97394,118.90769 423.76674,116.33113 401.54024,116.47147 C 401.36384,116.47258 401.18644,116.46438 401.00894,116.47147 C 401.00344,116.47169 400.98304,116.47143 400.97774,116.47147 C 400.95704,116.47115 400.93584,116.47145 400.91524,116.47147 C 400.91254,116.47155 400.89044,116.47154 400.88394,116.47147 C 400.87204,116.4717 400.83274,116.472 400.82144,116.47147 C 400.81754,116.47146 400.79424,116.47131 400.79024,116.47147 C 400.76474,116.47392 400.72284,116.46816 400.69644,116.47147 z M 400.29024,132.47147 C 400.31334,132.46815 400.32964,132.47393 400.35274,132.47147 C 400.35664,132.47131 400.38004,132.47146 400.38394,132.47147 C 400.39574,132.472 400.43474,132.4717 400.44644,132.47147 C 400.47224,132.47062 400.51404,132.47106 400.54024,132.47147 C 400.54554,132.47142 400.56614,132.47169 400.57144,132.47147 C 400.74274,132.46427 400.92954,132.47237 401.10274,132.47147 C 422.92694,132.35814 444.76724,134.8716 465.79024,140.59647 C 504.96974,150.1368 546.93654,177.69633 559.22774,200.12773 C 571.29644,222.15318 568.72854,245.87729 551.57144,252.09648 C 510.73254,266.90001 492.77894,210.22669 431.19644,216.28398 C 370.51184,222.25296 339.68744,255.06904 301.88394,291.87773 C 301.88384,291.8804 301.88384,291.90612 301.88394,291.90898 C 301.88424,291.91191 301.88414,291.93382 301.88394,291.94023 C 301.88384,291.94326 301.88394,291.96865 301.88394,291.97148 C 301.89194,291.9883 301.91074,292.02574 301.91524,292.03398 C 303.82014,294.1394 356.16784,299.46493 412.29024,320.75273 C 468.76124,342.17274 465.25904,385.97674 572.38394,390.12773 C 577.09234,404.22889 584.52394,417.51395 586.04024,432.47148 C 587.72304,437.73701 580.71354,438.60297 577.16524,438.50273 C 556.10994,434.97579 534.82984,432.79232 513.44644,431.84648 C 484.83174,428.72366 461.93954,426.32071 433.22774,424.22148 C 412.82024,423.57997 391.38934,414.80094 375.44644,401.62773 C 357.56474,388.66737 346.59484,370.73056 331.79024,354.90898 C 306.47334,328.8342 268.54818,320.37899 233.29023,318.15898 C 208.19191,315.80698 182.85889,318.9734 157.85273,316.47148 C 167.8044,304.13947 180.11886,294.03594 192.82148,284.72148 C 203.76903,275.48809 217.27468,269.56345 227.85273,260.06523 C 227.8653,260.05947 227.90204,260.04077 227.91523,260.03398 C 227.92171,260.02746 227.94399,260.00536 227.94648,260.00273 C 233.79315,257.7786 237.98805,252.23273 238.19648,245.65898 C 245.16237,233.52183 250.87789,220.58323 258.63398,208.84648 C 288.99235,162.7708 343.36554,133.58379 398.47774,132.53397 C 398.56194,132.53273 398.61964,132.51247 398.69644,132.50272 C 398.70344,132.50279 398.72594,132.5028 398.72774,132.50272 C 398.73354,132.50267 398.75474,132.50254 398.75894,132.50272 C 398.76304,132.50279 398.78644,132.5028 398.79024,132.50272 C 398.81994,132.50176 398.88514,132.50319 398.91524,132.50272 C 398.92144,132.50279 398.94324,132.5028 398.94644,132.50272 C 398.97274,132.50277 399.01404,132.50244 399.04024,132.50272 C 399.04654,132.50265 399.06544,132.50299 399.07144,132.50272 C 399.07954,132.50236 399.09484,132.50288 399.10274,132.50272 C 399.14904,132.50268 399.20924,132.50389 399.25894,132.50272 C 399.52444,132.49648 399.80544,132.5051 400.07144,132.50272 C 400.14454,132.50206 400.22094,132.48144 400.29024,132.47147 z M 291.85273,237.59648 C 283.35104,237.91997 276.57147,244.92233 276.57148,253.50273 C 276.57148,262.28906 283.69139,269.44022 292.47773,269.44023 C 301.26404,269.44023 308.38394,262.28907 308.38394,253.50273 C 308.38394,244.7164 301.26404,237.59648 292.47773,237.59648 C 292.2718,237.59648 292.05677,237.58872 291.85273,237.59648 z M 352.94644,254.09648 C 352.97784,254.09316 353.00884,254.09961 353.04024,254.09648 C 353.04414,254.09634 353.06754,254.09644 353.07144,254.09648 C 353.08314,254.09705 353.12224,254.09685 353.13394,254.09648 C 353.13794,254.09635 353.16134,254.09644 353.16524,254.09648 C 353.17684,254.09702 353.21594,254.09682 353.22774,254.09648 C 353.23164,254.09636 353.25504,254.09644 353.25894,254.09648 C 353.27054,254.09699 353.30964,254.0968 353.32144,254.09648 C 353.41844,254.08858 353.50534,254.10262 353.60274,254.09648 C 353.60894,254.09656 353.63074,254.09659 353.63394,254.09648 C 353.67394,254.09593 353.72404,254.09611 353.75894,254.09648 C 353.76474,254.09655 353.78614,254.09669 353.79024,254.09648 C 354.06144,254.08272 354.32814,254.09648 354.60274,254.09648 C 363.38904,254.09648 370.50894,261.2164 370.50894,270.00273 C 370.50894,278.78906 363.38904,285.90898 354.60274,285.90898 C 345.81634,285.90899 338.69644,278.78906 338.69644,270.00273 C 338.69644,261.78609 344.95154,254.94193 352.94644,254.09648 z M 431.44644,276.97148 C 431.47764,276.968 431.50904,276.97478 431.54024,276.97148 C 431.54414,276.97133 431.56754,276.97144 431.57144,276.97148 C 431.58314,276.97208 431.62224,276.97187 431.63394,276.97148 C 431.63794,276.97134 431.66134,276.97144 431.66524,276.97148 C 431.67694,276.97205 431.71594,276.97185 431.72774,276.97148 C 431.73164,276.97135 431.75504,276.97144 431.75894,276.97148 C 431.77064,276.97202 431.80964,276.97182 431.82144,276.97148 C 431.91794,276.96305 432.00584,276.97817 432.10274,276.97148 C 432.10894,276.97156 432.13074,276.9716 432.13394,276.97148 C 432.17384,276.97088 432.22394,276.97108 432.25894,276.97148 C 432.26474,276.97156 432.28614,276.97171 432.29024,276.97148 C 432.33964,276.96868 432.39984,276.97102 432.44644,276.97148 C 432.45224,276.97154 432.47364,276.97167 432.47774,276.97148 C 432.71534,276.96093 432.95624,276.97148 433.19644,276.97148 C 441.98284,276.97148 449.10274,284.0914 449.10274,292.87773 C 449.10274,301.66406 441.98284,308.81523 433.19644,308.81523 C 424.41014,308.81523 417.29024,301.66406 417.29024,292.87773 C 417.29024,284.69241 423.49554,277.85918 431.44644,276.97148 z M 500.00894,314.75273 C 500.01174,314.75274 500.03704,314.75259 500.04024,314.75273 C 500.05044,314.75196 500.09174,314.75247 500.10274,314.75273 C 500.11934,314.75347 500.15064,314.75259 500.16524,314.75273 C 500.39934,314.75029 500.62104,314.78398 500.85274,314.78398 C 509.63904,314.78398 516.75894,321.9039 516.75894,330.69023 C 516.75894,339.47656 509.63904,346.59648 500.85274,346.59648 C 492.06644,346.59648 484.91524,339.47656 484.91524,330.69023 C 484.91524,322.37733 491.31704,315.49697 499.44644,314.78398 C 499.44844,314.7838 499.47094,314.78392 499.47774,314.78398 C 499.48164,314.78401 499.50314,314.78403 499.50894,314.78398 C 499.51284,314.78403 499.53624,314.78409 499.54024,314.78398 C 499.54644,314.78408 499.56824,314.78412 499.57144,314.78398 C 499.61124,314.78329 499.66144,314.78353 499.69644,314.78398 C 499.70224,314.78407 499.72364,314.78426 499.72774,314.78398 C 499.73394,314.78406 499.75574,314.78411 499.75894,314.78398 C 499.79884,314.78338 499.84894,314.78358 499.88394,314.78398 C 499.88974,314.78406 499.91114,314.78422 499.91524,314.78398 C 499.91844,314.78411 499.94374,314.78397 499.94644,314.78398 C 499.95714,314.77842 499.99814,314.75831 500.00894,314.75273 z M 255.72773,339.97148 L 267.47773,362.56523 L 309.91524,357.00273 C 310.91904,357.69602 311.92944,358.39363 312.91524,359.12773 C 331.79344,374.06023 341.30254,399.00632 359.85274,414.15898 C 360.51434,414.77342 361.18474,415.37597 361.85274,415.97148 C 346.20034,438.28933 329.96234,460.18853 313.22774,481.72148 C 302.15744,494.72524 291.81351,511.51309 273.94648,515.37773 C 260.3668,516.53237 243.92267,515.67007 235.19648,503.72148 C 228.24912,492.12553 236.51862,479.59965 240.07148,468.12773 C 269.65457,471.22657 312.22214,463.18544 303.97774,409.97148 C 285.07598,435.83705 254.25922,437.82177 248.29023,403.00273 C 248.29024,403.00273 233.36353,402.99755 223.41523,402.00273 C 223.27011,401.98822 223.11952,401.98552 222.97773,401.97148 C 220.95483,396.65062 219.48036,391.17953 219.44648,385.40898 C 224.22736,373.40482 233.87684,364.07202 242.35273,354.47148 C 245.82788,350.65407 251.92492,343.68122 255.72773,339.97148 z M 387.97774,438.12773 C 397.61434,449.24408 407.18424,460.41819 416.82144,471.53398 C 396.83174,475.36659 376.84854,479.23326 356.85274,483.03398 C 366.75034,468.78202 376.62174,454.51189 386.50894,440.25273 C 386.99854,439.5444 387.48814,438.83606 387.97774,438.12773 z M 424.85274,646.31523 C 424.91994,646.31101 425.00414,646.31904 425.07144,646.31523 C 425.13914,646.31143 425.19124,646.31865 425.25894,646.31523 C 425.32704,646.31183 425.40964,646.31824 425.47774,646.31523 C 425.54614,646.31223 425.62794,646.31784 425.69644,646.31523 C 426.11734,646.29925 426.52174,646.31523 426.94644,646.31523 C 445.06834,646.31523 459.79024,661.00592 459.79024,679.12773 C 459.79024,697.24957 445.06824,711.97148 426.94644,711.97148 C 408.82464,711.97154 394.13394,697.24954 394.13394,679.12773 C 394.13394,661.70558 407.70054,647.39148 424.85274,646.31523 z M 472.72774,673.19023 C 473.33074,673.61461 492.64414,687.26184 494.60274,698.03398 C 496.59234,708.97712 497.57124,741.80466 503.54024,745.78398 C 509.50924,749.7633 531.40484,751.75205 529.41524,769.65898 C 527.42554,787.56597 517.47814,795.51847 505.54024,792.53398 C 493.60224,789.54952 475.71384,787.55984 430.94644,792.53398 C 386.17914,797.50815 347.35854,815.41932 330.44644,817.40898 C 313.53444,819.39868 303.60764,799.51375 310.57144,783.59648 C 317.53534,767.67926 332.43074,774.64369 335.41524,765.69023 C 338.39974,756.73681 342.40374,709.96722 370.25894,685.09648 C 379.21244,703.99827 393.13394,713.94023 393.13394,713.94023 C 393.13394,713.94029 364.29514,766.65876 371.25894,772.62773 C 378.22274,778.59675 464.75354,767.67495 469.72774,758.72148 C 474.70194,749.76806 457.79024,710.97148 457.79024,710.97148 C 457.79024,710.97148 466.74844,702.01869 470.72774,693.06523 C 474.58274,684.39161 472.84064,673.84057 472.72774,673.19023 z "
       id="path2250" />
  </g>
</svg>
