<?xml version="1.0" encoding="UTF-8" standalone="no"?>
<!-- Created with Inkscape (http://www.inkscape.org/) -->
<svg
   xmlns:dc="http://purl.org/dc/elements/1.1/"
   xmlns:cc="http://web.resource.org/cc/"
   xmlns:rdf="http://www.w3.org/1999/02/22-rdf-syntax-ns#"
   xmlns:svg="http://www.w3.org/2000/svg"
   xmlns="http://www.w3.org/2000/svg"
   xmlns:sodipodi="http://inkscape.sourceforge.net/DTD/sodipodi-0.dtd"
   xmlns:inkscape="http://www.inkscape.org/namespaces/inkscape"
   id="svg1337"
   sodipodi:version="0.32"
   inkscape:version="0.43"
   width="210mm"
   height="297mm"
   sodipodi:docbase="/home/sjoerd0/docs/images/stratego"
   sodipodi:docname="verkenner.svg"
   version="1.0">
  <metadata
     id="metadata1342">
    <rdf:RDF>
      <cc:Work
         rdf:about="">
        <dc:format>image/svg+xml</dc:format>
        <dc:type
           rdf:resource="http://purl.org/dc/dcmitype/StillImage" />
      </cc:Work>
    </rdf:RDF>
  </metadata>
  <defs
     id="defs1340" />
  <sodipodi:namedview
     inkscape:window-height="874"
     inkscape:window-width="1130"
     inkscape:pageshadow="2"
     inkscape:pageopacity="0.0"
     borderopacity="1.0"
     bordercolor="#666666"
     pagecolor="#ffffff"
     id="base"
     inkscape:zoom="0.50259871"
     inkscape:cx="545.46039"
     inkscape:cy="662.42131"
     inkscape:window-x="53"
     inkscape:window-y="23"
     inkscape:current-layer="layer2" />
  <g
     inkscape:groupmode="layer"
     id="layer2"
     inkscape:label="Vector"
     style="display:inline">
    <path
       style="opacity:1;fill:#000000;fill-opacity:1;fill-rule:evenodd;stroke:none;stroke-width:1px;stroke-linecap:butt;stroke-linejoin:miter;stroke-opacity:1"
       d="M 312.98694,80.290911 C 292.2278,81.201351 283.02954,92.570391 281.04944,127.94716 C 278.65173,128.07546 276.22219,128.2458 273.76819,128.38466 C 244.237,130.05564 233.67834,144.56043 225.23694,169.88466 C 216.79553,195.20889 195.70504,312.66526 197.11194,314.07216 C 187.26363,374.56891 198.78599,378.41841 231.58069,383.00966 C 239.31127,384.09194 247.80987,384.73771 256.58069,385.22841 C 245.76742,401.10692 234.97287,417.01244 225.04944,433.44716 C 225.04767,433.44685 225.02521,433.44707 225.01819,433.44716 C 216.50143,437.47669 202.98029,439.09823 186.29944,428.29091 C 186.29944,429.51096 192.79552,477.75701 224.89319,478.22841 C 220.23202,493.97552 216.31239,511.18659 224.92444,526.00966 C 230.72846,534.86293 240.11592,538.97428 250.17444,540.91591 L 249.39319,578.25966 C 211.48276,581.81131 173.64246,587.59583 136.70569,596.66591 C 118.6905,603.15161 102.69919,621.29257 105.70569,641.44716 C 109.0065,654.98377 124.40979,661.12809 137.26819,660.10341 C 154.664,661.14037 172.10229,661.08535 189.51819,660.69716 C 182.23818,669.95128 182.55319,683.2889 188.64319,693.07216 C 195.45631,708.53841 202.3264,724.31123 211.29944,738.63466 C 205.87819,756.58743 200.44394,774.52705 195.01819,792.47841 C 266.3636,812.94764 343.64144,811.40201 414.67444,790.13466 C 422.62266,793.38703 430.57348,796.65495 438.51819,799.91591 C 446.03381,795.74689 452.53135,790.39218 458.04944,784.19716 C 512.65544,805.66111 547.68973,815.95005 558.08069,807.29091 C 570.74282,796.73914 593.93909,779.857 596.04944,738.35341 C 598.15982,696.84983 582.70407,653.95302 552.45569,641.29091 C 544.32917,637.88913 533.26416,632.76288 521.14319,627.22841 C 541.40331,608.25261 556.28613,594.16963 564.08069,551.94716 C 571.88087,509.69426 554.2411,473.90172 530.76819,436.63466 C 541.176,391.14731 548.48755,321.20698 541.79944,282.41591 C 534.76489,241.61577 529.4398,169.43513 495.36194,160.72841 C 435.68893,145.48227 395.21896,136.86608 365.01819,132.19716 C 364.54514,93.576401 353.91437,83.635621 325.89319,80.853411 C 322.06545,80.473361 318.5413,80.263691 315.26819,80.290911 C 315.00604,80.293091 314.74565,80.285791 314.48694,80.290911 C 314.31649,80.294291 314.1559,80.286241 313.98694,80.290911 C 313.90312,80.293231 313.8204,80.288271 313.73694,80.290911 C 313.65381,80.293541 313.56971,80.287961 313.48694,80.290911 C 313.4045,80.293851 313.31902,80.287651 313.23694,80.290911 C 313.15518,80.294161 313.06835,80.287341 312.98694,80.290911 z M 351.70569,148.47841 C 364.98378,151.75242 378.2592,155.00428 391.54944,158.22841 C 393.42751,170.34019 396.03553,187.64006 398.29944,204.29091 C 402.40747,234.50506 399.5074,259.22702 408.89319,288.50966 C 417.98877,307.03284 441.53994,323.70523 462.51819,318.13466 C 481.45616,310.5653 486.60587,289.25467 487.04944,270.44716 C 487.77549,255.06515 471.4386,203.19188 459.98694,175.13466 C 472.47572,177.87326 485.57239,178.7178 496.45569,185.91591 C 520.16954,215.96921 528.14074,257.29489 520.26819,294.57216 C 515.56094,325.3699 491.92803,354.69538 459.98694,359.04091 C 417.83298,364.10037 377.22541,332.04546 367.29944,291.82216 C 366.09714,281.64038 365.17588,271.42917 364.36194,261.19716 C 341.24656,301.19297 311.9161,303.69717 290.08069,303.69716 C 266.20483,303.69715 217.48134,275.83432 228.42444,230.07216 C 259.68283,241.10452 299.41162,280.16999 362.58069,237.35341 C 360.49231,208.53274 358.2647,179.73949 352.17444,151.44716 C 352.0182,150.45758 351.86194,149.46799 351.70569,148.47841 z M 427.54944,380.91591 C 427.65316,380.91083 427.75801,380.91969 427.86194,380.91591 C 427.96752,380.91207 428.06865,380.91842 428.17444,380.91591 C 444.82586,380.52139 463.99725,396.52047 453.08069,413.44716 C 442.70919,429.52869 422.25854,464.18074 402.36194,485.07216 C 401.11763,486.37869 399.72226,487.7568 398.20569,489.19716 C 412.68571,499.44188 427.46735,509.23842 437.70569,515.88466 C 424.51594,522.95721 389.23002,524.44151 363.98694,524.54091 C 376.40313,508.43852 389.39293,497.56707 398.20569,489.19716 C 391.95358,484.77375 385.7604,480.25968 380.01819,475.88466 C 379.06797,475.16068 378.15217,474.43296 377.26819,473.66591 C 377.24368,473.6426 377.19889,473.59551 377.17444,473.57216 C 377.16357,473.56662 377.12303,473.54613 377.11194,473.54091 C 377.1063,473.53525 377.08629,473.51538 377.08069,473.50966 C 377.07421,473.50325 377.05367,473.48266 377.04944,473.47841 C 377.04951,473.47561 377.04916,473.45053 377.04944,473.44716 C 377.04521,473.4429 377.02467,473.42232 377.01819,473.41591 C 376.98831,473.39232 376.92301,473.34579 376.89319,473.32216 C 376.87223,473.30356 376.85161,473.27829 376.83069,473.25966 C 376.7177,473.15955 376.59885,473.07921 376.48694,472.97841 C 376.41979,472.91793 376.3662,472.85163 376.29944,472.79091 C 376.29657,472.7883 376.27461,472.76617 376.26819,472.75966 C 376.24759,472.73886 376.22625,472.71799 376.20569,472.69716 C 376.20032,472.69194 376.18014,472.67116 376.17444,472.66591 C 376.17088,472.66606 376.14604,472.66587 376.14319,472.66591 C 376.13762,472.66024 376.11738,472.64042 376.11194,472.63466 C 376.06983,472.59582 376.02889,472.5486 375.98694,472.50966 C 375.96488,472.4893 375.94646,472.46755 375.92444,472.44716 C 375.89047,472.41552 375.86456,472.38511 375.83069,472.35341 C 375.8251,472.34768 375.80509,472.32782 375.79944,472.32216 C 375.79605,472.32245 375.77099,472.32208 375.76819,472.32216 C 375.76254,472.3165 375.74253,472.29664 375.73694,472.29091 C 375.73045,472.2845 375.70993,472.26392 375.70569,472.25966 C 375.70577,472.25686 375.7054,472.23178 375.70569,472.22841 C 375.70145,472.22416 375.68093,472.20357 375.67444,472.19716 C 375.66893,472.19151 375.64875,472.17149 375.64319,472.16591 C 375.63214,472.16051 375.59173,472.14006 375.58069,472.13466 C 375.57513,472.12908 375.55495,472.10905 375.54944,472.10341 C 375.54366,472.09798 375.52385,472.07774 375.51819,472.07216 C 375.51824,472.0693 375.51805,472.04447 375.51819,472.04091 C 375.51262,472.03564 375.49313,472.01489 375.48694,472.00966 C 375.46471,471.99405 375.4154,471.96278 375.39319,471.94716 C 375.38701,471.94192 375.36749,471.92119 375.36194,471.91591 C 375.35081,471.90524 375.34181,471.89533 375.33069,471.88466 C 375.32461,471.87886 375.30581,471.85882 375.29944,471.85341 C 375.28859,471.84812 375.24787,471.82734 375.23694,471.82216 C 375.23148,471.81664 375.21112,471.79647 375.20569,471.79091 C 375.19934,471.78549 375.1805,471.76548 375.17444,471.75966 C 375.17101,471.75608 375.14654,471.73214 375.14319,471.72841 C 375.11736,471.69668 375.07519,471.63518 375.04944,471.60341 C 375.04611,471.59967 375.0216,471.57575 375.01819,471.57216 C 375.01113,471.57206 374.98856,471.57184 374.98694,471.57216 C 374.98417,471.56921 374.95838,471.544 374.95569,471.54091 C 374.95013,471.53551 374.92996,471.51513 374.92444,471.50966 C 374.91926,471.49871 374.89846,471.45794 374.89319,471.44716 C 374.8905,471.44406 374.8647,471.41887 374.86194,471.41591 C 374.85838,471.41605 374.83354,471.41586 374.83069,471.41591 C 374.82512,471.41025 374.80489,471.39044 374.79944,471.38466 C 374.79307,471.37837 374.77236,471.35758 374.76819,471.35341 C 374.76277,471.34236 374.74236,471.30196 374.73694,471.29091 C 374.73277,471.28674 374.71206,471.26596 374.70569,471.25966 C 374.68447,471.23877 374.66436,471.21808 374.64319,471.19716 C 374.61056,471.1647 374.58197,471.13593 374.54944,471.10341 C 374.54303,471.09692 374.52243,471.0764 374.51819,471.07216 C 374.51481,471.07245 374.48974,471.07208 374.48694,471.07216 C 374.4827,471.06792 374.4621,471.0474 374.45569,471.04091 C 374.4492,471.0345 374.42868,471.01391 374.42444,471.00966 C 374.42452,471.00686 374.42414,470.98178 374.42444,470.97841 C 374.4202,470.97416 374.39968,470.95357 374.39319,470.94716 C 374.38689,470.94078 374.36612,470.92009 374.36194,470.91591 C 374.3509,470.9105 374.31048,470.89007 374.29944,470.88466 C 374.29526,470.88048 374.27449,470.85979 374.26819,470.85341 C 374.26242,470.84797 374.2426,470.82773 374.23694,470.82216 C 374.23699,470.8193 374.2368,470.79447 374.23694,470.79091 C 374.23106,470.78498 374.21199,470.76511 374.20569,470.75966 C 374.19487,470.75436 374.15413,470.73358 374.14319,470.72841 C 374.13772,470.72289 374.11736,470.70273 374.11194,470.69716 C 374.1088,470.69443 374.08373,470.66875 374.08069,470.66591 C 374.08071,470.66305 374.08075,470.6382 374.08069,470.63466 C 373.90389,470.45493 373.72327,470.28495 373.54944,470.10341 C 373.51448,470.06667 373.49053,470.04648 373.45569,470.00966 C 373.4353,469.98826 373.41354,469.96858 373.39319,469.94716 C 373.36422,469.91644 373.32832,469.88418 373.29944,469.85341 C 373.26901,469.82122 373.23603,469.7919 373.20569,469.75966 C 373.18492,469.73743 373.16392,469.71942 373.14319,469.69716 C 373.11948,469.6678 373.0731,469.60156 373.04944,469.57216 C 373.03891,469.56173 372.99746,469.52009 372.98694,469.50966 C 372.94677,469.4665 372.90195,469.42792 372.86194,469.38466 C 372.85681,469.37907 372.83594,469.35843 372.83069,469.35341 C 372.72079,469.23439 372.62687,469.12941 372.51819,469.00966 C 372.47759,468.96463 372.43362,468.92979 372.39319,468.88466 C 372.38818,468.87389 372.36694,468.83293 372.36194,468.82216 C 372.32158,468.77699 372.27714,468.74243 372.23694,468.69716 C 372.15862,468.60964 372.09587,468.53506 372.01819,468.44716 C 371.99824,468.42444 371.9756,468.40741 371.95569,468.38466 C 371.93231,468.3551 371.88527,468.28926 371.86194,468.25966 C 371.8421,468.23687 371.81923,468.21997 371.79944,468.19716 C 371.70786,468.09239 371.64013,467.98996 371.54944,467.88466 C 371.54303,467.8784 371.52122,467.85659 371.51819,467.85341 C 371.49146,467.82717 371.45112,467.78593 371.42444,467.75966 C 371.42142,467.75648 371.3996,467.73466 371.39319,467.72841 C 371.38815,467.71766 371.36697,467.67666 371.36194,467.66591 C 371.32295,467.61993 371.27577,467.58699 371.23694,467.54091 C 371.23115,467.53541 371.21135,467.51521 371.20569,467.50966 C 371.20574,467.50681 371.20555,467.48198 371.20569,467.47841 C 371.1828,467.45412 371.13478,467.40898 371.11194,467.38466 C 371.10624,467.37908 371.08638,467.35907 371.08069,467.35341 C 371.07535,467.34221 371.05484,467.30166 371.04944,467.29091 C 371.02659,467.2666 370.97849,467.2215 370.95569,467.19716 C 370.95282,467.19435 370.92801,467.16933 370.92444,467.16591 C 370.91927,467.15493 370.89878,467.11441 370.89319,467.10341 C 370.88242,467.09271 370.84146,467.05162 370.83069,467.04091 C 370.8069,467.01028 370.76066,466.94658 370.73694,466.91591 C 370.68412,466.85144 370.63321,466.79305 370.58069,466.72841 C 370.57536,466.72321 370.55477,466.70237 370.54944,466.69716 C 370.45817,466.58466 370.35855,466.46644 370.26819,466.35341 C 370.26816,466.34667 370.26824,466.32571 370.26819,466.32216 C 370.23074,466.27528 370.18048,466.24413 370.14319,466.19716 C 370.05264,466.08349 369.95153,465.96762 369.86194,465.85341 C 369.86197,465.84668 369.86188,465.8257 369.86194,465.82216 C 392.46122,442.9803 398.81575,412.65865 411.29944,390.57216 C 414.92191,384.16317 421.01521,381.2361 427.54944,380.91591 z M 275.33069,386.16591 C 300.58494,387.36887 324.95516,388.99243 336.39319,397.79091 C 351.18553,409.16962 351.91627,439.05397 366.73694,461.54091 C 352.93407,476.51996 338.9889,491.36533 323.67444,504.75966 C 309.72963,518.3381 290.63806,527.01211 270.89319,526.66591 C 259.9406,525.70854 246.36274,527.04869 238.67444,517.63466 C 232.12949,504.0126 238.53995,489.29722 242.58069,475.69716 C 261.37651,492.33011 307.81612,495.02674 311.86194,433.57216 C 302.34839,444.8548 266.5022,459.759 241.92444,436.66591 C 252.17533,419.54097 263.86429,402.91944 275.33069,386.16591 z M 512.29944,453.85341 C 530.60024,471.76502 539.42186,499.12004 540.20569,532.04091 C 541.06765,568.2423 536.53826,575.40086 499.36194,617.44716 C 479.67056,608.82952 460.11843,601.09818 447.73694,599.16591 C 447.67309,588.39349 448.32423,573.09907 450.67444,551.94716 C 453.61231,525.50647 462.10422,505.08554 469.95569,491.16591 C 486.04158,514.41751 497.06004,545.79439 483.48694,585.75966 C 509.50632,555.40376 518.14495,534.88662 491.58069,469.47841 C 498.96045,462.29251 506.45751,457.21581 512.29944,453.85341 z M 295.17444,539.38466 C 310.32945,557.35797 316.05207,581.0945 316.61194,598.97841 C 301.64798,591.68094 286.36529,584.38881 270.26819,580.04091 L 271.01819,542.66591 C 279.24173,542.74894 287.35653,541.61719 295.17444,539.38466 z M 436.42444,541.35341 L 428.11194,603.82216 C 415.87596,608.6142 396.4615,614.31875 377.11194,617.79091 C 369.77839,617.50746 362.43937,617.22305 355.11194,616.94716 C 346.37522,614.72905 338.54664,610.10686 330.58069,605.82216 C 334.23924,580.78039 341.67233,560.92052 350.54944,544.91591 L 436.42444,541.35341 z M 256.73694,593.69716 L 258.76819,593.72841 C 282.86986,599.31418 304.93131,610.72678 326.95569,622.00966 C 327.85478,622.71339 328.47182,623.19596 328.73694,623.38466 C 328.73698,623.38178 328.73682,623.35707 328.73694,623.35341 C 328.74587,623.22243 328.75907,623.07789 328.76819,622.94716 C 334.83655,626.05297 340.9053,629.13315 347.01819,632.07216 C 347.13011,632.08102 347.25001,632.09463 347.36194,632.10341 C 346.68588,643.44163 344.98745,661.95261 340.76819,681.57216 C 335.94485,704.0007 327.80925,725.90633 323.17444,737.47841 C 308.8061,739.06143 294.80442,744.37336 280.58069,747.54091 C 269.03058,748.5615 257.83789,754.62497 246.01819,752.82216 C 230.72128,744.55521 222.78549,727.26532 215.20569,712.10341 C 210.52728,699.49487 200.43424,688.55863 200.36194,674.60341 C 203.52925,664.33794 215.77719,662.00034 224.70569,659.10341 C 231.78768,659.13401 235.68964,647.78958 228.42444,644.82216 C 201.85835,643.09033 175.09379,645.95623 148.45569,644.66591 C 139.6878,643.15175 127.97234,646.72675 121.79944,638.85341 C 119.85744,627.03706 130.27394,616.82646 140.42444,612.44716 C 178.4411,602.58273 217.61441,597.20879 256.73694,593.69716 z M 412.20569,619.13466 C 413.39237,619.17812 414.58146,619.21673 415.76819,619.25966 C 414.57801,619.21653 413.39582,619.17832 412.20569,619.13466 z M 449.33069,620.35341 C 449.45631,620.35715 449.58007,620.38093 449.70569,620.38466 C 449.58056,620.38094 449.45582,620.38839 449.33069,620.38466 C 449.32868,620.3751 449.33272,620.36309 449.33069,620.35341 z M 328.79944,623.44716 C 328.79949,623.45067 328.79941,623.47169 328.79944,623.47841 C 328.80229,623.47838 328.82729,623.4787 328.83069,623.47841 C 328.83098,623.4749 328.83067,623.45004 328.83069,623.44716 C 328.82898,623.44744 328.80647,623.44724 328.79944,623.44716 z M 359.92444,632.97841 C 394.69338,635.16502 429.66228,635.33957 464.48694,636.91591 C 467.9992,659.27257 468.45857,682.11956 467.73694,704.75966 C 467.89079,732.75315 460.54574,763.59372 437.51819,781.47841 C 403.85278,769.42306 370.72813,754.77121 337.33069,741.32216 C 342.07015,731.02737 350.38377,711.02988 355.20569,687.88466 C 359.70038,666.31011 360.16804,645.33023 359.92444,632.97841 z M 505.08069,718.41591 C 505.14268,718.4122 505.20621,718.41889 505.26819,718.41591 C 505.36225,718.41138 505.45543,718.41876 505.54944,718.41591 C 507.59439,718.35393 509.60802,718.704 511.54944,719.47841 C 521.10718,723.29092 524.90969,736.34064 520.01819,748.60341 C 515.12668,760.86622 503.38845,767.72839 493.83069,763.91591 C 484.27294,760.10342 480.50169,747.05368 485.39319,734.79091 C 489.21534,725.20902 497.20769,718.88675 505.08069,718.41591 z M 211.73694,739.32216 C 211.80648,739.43196 211.8859,739.55628 211.95569,739.66591 C 211.88603,739.55651 211.80635,739.43174 211.73694,739.32216 z M 479.95569,740.29091 C 479.91015,740.48041 479.84586,740.66411 479.79944,740.85341 C 479.84642,740.66208 479.90962,740.48244 479.95569,740.29091 z M 212.92444,741.16591 C 213.03432,741.33429 213.15768,741.49797 213.26819,741.66591 C 213.16061,741.50241 213.03142,741.32983 212.92444,741.16591 z M 479.67444,741.41591 C 479.62713,741.605 479.56639,741.78953 479.51819,741.97841 C 479.56697,741.78751 479.62657,741.60703 479.67444,741.41591 z M 214.76819,743.94716 C 214.88164,744.11303 214.99782,744.25052 215.11194,744.41591 C 214.99869,744.2518 214.88078,744.11174 214.76819,743.94716 z M 219.20569,750.04091 C 219.31908,750.18874 219.40415,750.33106 219.51819,750.47841 C 219.40734,750.33518 219.31593,750.18459 219.20569,750.04091 z M 323.48694,752.94716 C 322.83225,753.12536 322.17307,753.3012 321.51819,753.47841 C 320.86331,753.65562 320.20452,753.83346 319.54944,754.00966 C 320.20452,753.83346 320.86331,753.65562 321.51819,753.47841 C 322.17307,753.3012 322.83225,753.12536 323.48694,752.94716 z M 221.64319,753.13466 C 221.82026,753.35117 221.99582,753.57555 222.17444,753.79091 C 221.99768,753.57784 221.81844,753.34886 221.64319,753.13466 z M 223.51819,755.38466 C 223.58874,755.46676 223.66615,755.55274 223.73694,755.63466 C 223.66534,755.55181 223.58954,755.4677 223.51819,755.38466 z M 313.67444,755.57216 C 313.01871,755.74512 312.36166,755.93159 311.70569,756.10341 C 312.36166,755.93159 313.01871,755.74512 313.67444,755.57216 z M 224.04944,756.00966 C 224.20576,756.18902 224.36069,756.36243 224.51819,756.54091 C 224.36355,756.36564 224.20295,756.18577 224.04944,756.00966 z M 308.73694,756.85341 C 308.0806,757.02345 307.42478,757.21584 306.76819,757.38466 C 307.42478,757.21584 308.0806,757.02345 308.73694,756.85341 z M 299.86194,759.13466 C 299.20438,759.29894 298.55105,759.4405 297.89319,759.60341 C 298.55105,759.4405 299.20438,759.29894 299.86194,759.13466 z M 473.61194,759.38466 C 473.55953,759.50573 473.50854,759.60756 473.45569,759.72841 C 473.504,759.61794 473.56399,759.49531 473.61194,759.38466 z M 229.17444,761.29091 C 229.24519,761.35086 229.32196,761.38775 229.39319,761.44716 C 229.32196,761.38775 229.24519,761.35086 229.17444,761.29091 z M 229.92444,761.88466 C 229.96065,761.91369 230.01311,761.94952 230.04944,761.97841 C 230.00706,761.9447 229.96666,761.91856 229.92444,761.88466 z M 230.36194,762.22841 C 230.39861,762.25689 230.45015,762.29382 230.48694,762.32216 C 230.44402,762.28909 230.4047,762.26166 230.36194,762.22841 z M 231.83069,763.32216 C 231.90689,763.37544 231.97282,763.42571 232.04944,763.47841 C 232.11993,763.52689 232.19735,763.58667 232.26819,763.63466 C 232.19116,763.58255 232.12606,763.53111 232.04944,763.47841 C 231.97282,763.42571 231.90689,763.37544 231.83069,763.32216 z M 232.29944,763.63466 C 232.37647,763.68677 232.44075,763.73939 232.51819,763.79091 C 232.56336,763.82097 232.59788,763.85481 232.64319,763.88466 C 232.60437,763.85905 232.55691,763.81667 232.51819,763.79091 C 232.44694,763.74351 232.37034,763.68256 232.29944,763.63466 z M 279.89319,763.85341 C 278.9643,764.06276 278.0416,764.30367 277.11194,764.50966 C 278.033,764.30557 278.97289,764.0608 279.89319,763.85341 z M 234.17444,764.82216 C 234.24816,764.86567 234.31916,764.93543 234.39319,764.97841 C 234.3127,764.93174 234.25457,764.86945 234.17444,764.82216 z M 275.14319,764.94716 C 274.48128,765.092 273.8055,765.21035 273.14319,765.35341 C 273.80551,765.21035 274.48128,765.092 275.14319,764.94716 z M 235.64319,765.63466 C 235.75994,765.69645 235.86953,765.79292 235.98694,765.85341 C 235.86288,765.78959 235.76652,765.69993 235.64319,765.63466 z M 270.17444,766.00966 C 269.5115,766.15 268.83781,766.27742 268.17444,766.41591 C 268.83781,766.27742 269.5115,766.15 270.17444,766.00966 z M 236.64319,766.16591 C 236.76009,766.22319 236.86944,766.26617 236.98694,766.32216 C 236.8694,766.26627 236.76013,766.2231 236.64319,766.16591 z M 237.76819,766.69716 C 237.85302,766.73508 237.93308,766.75367 238.01819,766.79091 C 237.93308,766.75367 237.85302,766.73508 237.76819,766.69716 z M 238.26819,766.91591 C 238.35358,766.95247 238.43253,766.97379 238.51819,767.00966 C 238.43253,766.97379 238.35358,766.95247 238.26819,766.91591 z M 265.20569,767.04091 C 264.54166,767.17656 263.87018,767.31345 263.20569,767.44716 C 263.87018,767.31345 264.54166,767.17656 265.20569,767.04091 z M 239.42444,767.38466 C 239.51099,767.41811 239.61889,767.44566 239.70569,767.47841 C 239.61889,767.44566 239.51099,767.41811 239.42444,767.38466 z M 240.73694,767.85341 C 240.8171,767.88073 240.9066,767.92044 240.98694,767.94716 C 240.89901,767.91798 240.82466,767.88331 240.73694,767.85341 z M 260.20569,768.04091 C 260.1338,768.06637 260.05895,768.10985 259.98694,768.13466 C 260.06719,768.10709 260.12558,768.06929 260.20569,768.04091 z M 242.45569,768.38466 C 242.54471,768.4098 242.64774,768.45402 242.73694,768.47841 C 242.64774,768.45402 242.54471,768.4098 242.45569,768.38466 z M 243.67444,768.69716 C 243.89027,768.74944 244.11399,768.80557 244.33069,768.85341 C 244.10529,768.80384 243.8989,768.75153 243.67444,768.69716 z M 257.64319,768.79091 C 257.37172,768.85756 257.10325,768.92036 256.83069,768.97841 C 257.10325,768.92036 257.37172,768.85756 257.64319,768.79091 z M 245.29944,769.07216 C 245.39007,769.08926 245.48994,769.0871 245.58069,769.10341 C 245.48994,769.0871 245.39007,769.08926 245.29944,769.07216 z M 256.01819,769.13466 C 256.06377,769.1264 256.09763,769.14315 256.14319,769.13466 C 256.06118,769.14995 255.97527,769.15138 255.89319,769.16591 C 255.9388,769.15789 255.97261,769.14292 256.01819,769.13466 z M 245.83069,769.16591 C 245.92155,769.18143 246.02097,769.18243 246.11194,769.19716 C 246.02097,769.18243 245.92155,769.18143 245.83069,769.16591 z M 255.45569,769.22841 C 255.50136,769.22108 255.56629,769.23597 255.61194,769.22841 C 255.52064,769.24353 255.42208,769.24547 255.33069,769.25966 C 255.37638,769.25257 255.41002,769.23574 255.45569,769.22841 z M 246.67444,769.29091 C 246.76561,769.30403 246.83317,769.30985 246.92444,769.32216 C 246.84195,769.31103 246.75685,769.3027 246.67444,769.29091 z M 255.04944,769.29091 C 255.08603,769.28561 255.13787,769.29636 255.17444,769.29091 C 255.08301,769.30463 255.01594,769.30936 254.92444,769.32216 C 254.97019,769.31576 255.00371,769.29754 255.04944,769.29091 z M 254.36194,769.38466 C 254.40776,769.37918 254.47239,769.39037 254.51819,769.38466 C 254.42658,769.39608 254.32861,769.40541 254.23694,769.41591 C 254.14527,769.42641 254.04742,769.43757 253.95569,769.44716 C 254.04741,769.43757 254.14527,769.42641 254.23694,769.41591 C 254.28277,769.41066 254.31612,769.39014 254.36194,769.38466 z M 248.73694,769.50966 C 248.82867,769.51663 248.89516,769.53478 248.98694,769.54091 C 248.90399,769.53537 248.81985,769.51589 248.73694,769.50966 z M 249.26819,769.54091 C 249.36001,769.5462 249.45758,769.56771 249.54944,769.57216 C 249.45758,769.56771 249.36001,769.5462 249.26819,769.54091 z M 252.58069,769.54091 C 252.62665,769.53836 252.65974,769.54368 252.70569,769.54091 C 252.62297,769.5459 252.53843,769.56789 252.45569,769.57216 C 252.50166,769.56983 252.53473,769.54346 252.58069,769.54091 z M 249.95569,769.57216 C 250.0476,769.57534 250.145,769.60109 250.23694,769.60341 C 250.145,769.60109 250.0476,769.57534 249.95569,769.57216 z M 251.76819,769.57216 C 251.81418,769.57094 251.84721,769.5736 251.89319,769.57216 C 251.80122,769.57505 251.70392,769.6014 251.61194,769.60341 C 251.65793,769.60241 251.7222,769.57338 251.76819,769.57216 z M 467.20569,771.75966 C 467.13665,771.8727 467.08769,771.99069 467.01819,772.10341 C 467.08572,771.99389 467.1386,771.86948 467.20569,771.75966 z M 461.17444,780.44716 C 461.05586,780.59737 460.95029,780.76654 460.83069,780.91591 C 460.95077,780.76591 461.05538,780.59799 461.17444,780.44716 z M 460.29944,781.57216 C 460.18758,781.70894 460.06842,781.84235 459.95569,781.97841 C 460.07098,781.83921 460.18506,781.71212 460.29944,781.57216 z "
       id="path2436" />
  </g>
</svg>
