<?xml version="1.0" encoding="UTF-8" standalone="no"?>
<!-- Created with Inkscape (http://www.inkscape.org/) -->
<svg
   xmlns:dc="http://purl.org/dc/elements/1.1/"
   xmlns:cc="http://web.resource.org/cc/"
   xmlns:rdf="http://www.w3.org/1999/02/22-rdf-syntax-ns#"
   xmlns:svg="http://www.w3.org/2000/svg"
   xmlns="http://www.w3.org/2000/svg"
   xmlns:sodipodi="http://inkscape.sourceforge.net/DTD/sodipodi-0.dtd"
   xmlns:inkscape="http://www.inkscape.org/namespaces/inkscape"
   id="svg2"
   sodipodi:version="0.32"
   inkscape:version="0.43"
   width="210mm"
   height="297mm"
   sodipodi:docbase="/home/sjoerd0/docs/images/stratego"
   sodipodi:docname="sergeant.svg"
   version="1.0">
  <metadata
     id="metadata7">
    <rdf:RDF>
      <cc:Work
         rdf:about="">
        <dc:format>image/svg+xml</dc:format>
        <dc:type
           rdf:resource="http://purl.org/dc/dcmitype/StillImage" />
      </cc:Work>
    </rdf:RDF>
  </metadata>
  <defs
     id="defs5" />
  <sodipodi:namedview
     inkscape:window-height="946"
     inkscape:window-width="1264"
     inkscape:pageshadow="2"
     inkscape:pageopacity="0.0"
     borderopacity="1.0"
     bordercolor="#666666"
     pagecolor="#ffffff"
     id="base"
     inkscape:zoom="0.50259871"
     inkscape:cx="762.36215"
     inkscape:cy="413.15746"
     inkscape:window-x="0"
     inkscape:window-y="0"
     inkscape:current-layer="layer2" />
  <g
     inkscape:groupmode="layer"
     id="layer2"
     inkscape:label="Vector">
    <path
       style="opacity:1;fill:#000000;fill-opacity:1;fill-rule:evenodd;stroke:#000000;stroke-width:1px;stroke-linecap:butt;stroke-linejoin:miter;stroke-opacity:1"
       d="M 472.52781,75.664773 C 472.45141,75.674003 472.39461,75.693543 472.30911,75.696023 C 439.29351,76.650893 416.59481,111.17709 358.55911,112.03977 C 305.23011,112.83248 276.33111,79.529603 236.15285,86.727273 C 216.8404,90.186973 210.87818,99.414063 209.84035,122.35227 C 207.23191,121.83602 204.69497,121.58897 202.2466,121.63352 C 176.9571,122.09366 160.98796,150.96457 168.8716,175.44602 C 149.35202,193.85523 129.1718,215.28403 111.8091,235.75852 C 135.86361,267.59005 174.40722,287.88313 215.02785,286.82102 C 216.39291,313.22318 217.54578,334.20462 215.4966,349.38352 C 213.00656,367.82805 217.06413,383.49596 233.46535,384.60227 C 234.07867,402.07327 231.81758,414.42933 223.52785,422.25852 C 210.86573,434.21718 199.60956,444.75461 191.8716,453.19602 C 184.13363,461.63742 182.02329,470.7979 191.8716,486.97727 C 192.98843,488.81205 193.99859,490.78465 194.90285,492.88352 C 177.78765,507.72836 168.63834,532.32786 169.34035,546.75852 C 169.86365,557.51617 178.37193,569.47819 193.3716,574.00852 C 191.02712,589.44701 191.37003,603.38117 198.1841,613.60227 C 206.6255,626.26434 218.59261,634.00852 247.43411,634.00852 C 251.32671,634.00851 255.04331,634.28187 258.55911,634.72727 C 239.63433,715.94844 219.27785,804.25852 219.27785,804.25852 C 219.27784,804.25849 506.98061,755.70123 507.68411,744.44602 C 508.21791,735.90483 498.54251,654.42585 500.65281,630.50852 C 502.73021,606.96487 508.21071,580.66924 492.27781,581.19602 C 492.02491,581.20436 491.79161,581.23654 491.52781,581.25852 C 491.20681,581.28528 490.83601,581.31391 490.43411,581.35227 C 497.72551,563.93136 506.73851,554.27249 523.87161,533.41477 C 556.23031,494.02155 561.15931,457.43365 547.09031,416.63352 C 546.29261,414.32004 545.36421,412.03059 544.34031,409.75852 C 565.28401,274.92934 508.69531,82.178633 484.49661,76.883523 C 480.57421,76.025233 476.82551,75.630813 473.21531,75.664773 C 473.06241,75.666213 472.89691,75.658423 472.74661,75.664773 C 472.71371,75.666163 472.65611,75.663673 472.62161,75.664773 C 472.59441,75.666933 472.55331,75.661693 472.52781,75.664773 z M 205.9966,137.94602 C 206.05221,137.94255 206.09712,137.94885 206.15285,137.94602 C 206.15984,137.94566 206.17743,137.94616 206.1841,137.94602 C 206.20988,137.9461 206.25204,137.94578 206.27785,137.94602 C 206.28453,137.94594 206.30209,137.94629 206.3091,137.94602 C 208.96665,137.84174 211.77191,138.47905 214.59035,139.97727 C 232.92511,149.72361 222.81632,172.00088 207.8091,182.19602 C 209.7072,209.94716 212.7001,233.4548 215.1216,261.16477 C 185.13324,262.85616 157.53595,252.6544 137.0591,231.60227 C 149.76038,217.81779 175.35339,192.0045 188.8091,178.91477 C 181.35576,160.35182 191.81561,138.83033 205.9966,137.94602 z M 494.68411,141.94602 C 494.68771,141.94591 494.71251,141.94601 494.71531,141.94602 C 494.71861,141.94913 494.74381,141.97438 494.74661,141.97727 C 494.74641,141.97892 494.74651,142.00147 494.74661,142.00852 C 495.59581,143.41163 502.07421,163.93043 510.15281,191.19602 C 489.40111,212.29954 394.08041,226.7105 331.12161,212.28977 C 317.05261,247.11057 289.98281,289.68072 235.46535,288.97727 C 235.46535,288.97727 234.41018,256.97778 235.46535,239.03977 C 247.42401,233.76389 283.99611,215.09773 301.93411,157.41477 C 335.69971,167.26308 415.89761,180.28407 494.68411,141.94602 z M 358.77781,362.69602 C 365.19351,362.62476 371.78061,362.78891 378.52781,363.22727 C 371.96941,385.92842 360.90311,421.69077 349.43411,447.60227 C 330.44091,490.51274 309.30911,520.75852 309.30911,520.75852 C 309.30911,520.75853 323.03251,535.53978 340.27781,535.53977 C 357.86411,535.53977 374.74661,525.69602 374.74661,525.69602 C 374.74661,525.69599 383.88011,541.86698 397.24661,548.19602 C 404.19411,551.48566 415.52711,550.45531 428.43411,543.63352 L 470.99661,573.07102 C 469.36261,576.55314 467.79121,580.29446 466.27781,584.32102 C 428.99111,589.32777 359.67611,599.87082 300.09031,612.85227 C 304.80841,594.3247 309.71051,573.73206 309.34031,569.28977 C 257.98841,613.60711 248.13071,610.79042 228.4341,609.38352 C 208.73746,607.97657 208.73,595.99843 210.84035,584.03977 C 211.15846,582.23702 211.84654,579.37842 212.7466,575.75852 C 234.85753,574.84034 267.35441,568.89742 284.71531,546.07102 C 269.23941,541.14683 268.53901,532.03864 271.34031,513.69602 C 273.90811,496.88273 258.68711,479.59388 228.3716,480.25852 C 226.35055,480.3028 224.27592,480.42414 222.1216,480.63352 C 219.19812,480.91763 216.38871,481.48166 213.6841,482.28977 C 208.67907,472.85659 208.23061,467.94939 216.4966,458.13352 C 224.15791,449.03571 237.33457,437.02427 245.87161,424.94602 C 250.71721,431.7075 256.71151,439.38138 260.09031,441.25852 C 266.42141,444.77577 305.08841,432.11886 309.30911,430.00852 C 313.52981,427.89817 315.65281,419.44601 315.65281,419.44602 L 254.18411,388.41477 C 254.03871,386.0584 253.83891,383.68161 253.62161,381.35227 C 276.31191,375.35164 313.16981,363.20262 358.77781,362.69602 z M 397.34031,365.16477 C 399.17671,365.4232 401.01571,365.70483 402.87161,366.00852 C 461.87651,375.66386 508.59731,413.13356 527.46531,430.38352 C 535.39181,451.29523 536.96591,469.04193 523.87161,496.13352 C 511.67051,521.37722 496.18031,533.28371 482.40281,553.22727 L 446.12161,531.16477 C 452.59911,525.42483 459.15681,518.25088 465.49661,509.50852 C 482.73181,485.74173 488.99621,435.81743 465.49661,425.10227 C 445.28301,415.88549 419.47561,423.43066 419.05911,427.91477 C 418.24641,436.66299 416.94061,453.93625 402.87161,475.03977 C 388.80261,496.14331 364.88661,520.05833 332.52781,513.72727 C 359.24651,473.93345 386.40611,404.73164 397.34031,365.16477 z M 440.15281,446.69602 C 440.24331,446.69187 440.34311,446.69931 440.43411,446.69602 C 440.57381,446.69096 440.69951,446.69905 440.84031,446.69602 C 452.93191,446.43628 469.14821,453.67328 464.77781,475.03977 C 458.49161,505.77278 419.31381,536.15891 401.46531,525.69602 C 391.26531,519.71666 401.42331,500.91225 412.30911,486.07102 C 422.66861,471.94741 427.77701,455.41495 428.90281,451.82102 C 429.80811,448.93128 434.45521,446.95772 440.15281,446.69602 z M 226.1841,500.28977 C 226.27878,500.28597 226.37063,500.29272 226.46535,500.28977 C 226.59165,500.28584 226.71378,500.29284 226.84035,500.28977 C 227.00911,500.28567 227.16964,500.29301 227.34035,500.28977 C 227.56797,500.28545 227.79677,500.29323 228.02785,500.28977 C 228.33595,500.28516 228.65349,500.2934 228.96535,500.28977 C 229.38116,500.2849 229.79363,500.29286 230.21535,500.28977 C 236.833,500.24134 244.11201,500.55574 248.40281,505.85227 C 249.02471,517.80893 246.10341,530.98378 251.40281,542.44602 C 236.89053,548.70175 219.12606,553.87484 202.4966,550.91477 C 196.64267,551.00319 191.19119,546.82288 191.21535,540.69602 C 193.96247,522.60986 206.1485,503.38045 225.34035,500.32102 C 225.61438,500.32404 225.90005,500.30116 226.1841,500.28977 z M 399.68411,641.75852 C 399.68741,641.75821 399.70921,641.75841 399.71531,641.75852 C 399.74171,641.75873 399.78341,641.75815 399.80911,641.75852 C 399.81231,641.75844 399.83411,641.75843 399.84031,641.75852 C 399.84651,641.75861 399.86831,641.75862 399.87161,641.75852 C 399.89821,641.75869 399.93951,641.75819 399.96531,641.75852 C 399.96851,641.75845 399.99031,641.75845 399.99661,641.75852 C 399.99961,641.75829 400.02151,641.75844 400.02781,641.75852 C 400.04871,641.75864 400.07021,641.75823 400.09031,641.75852 C 400.09681,641.75858 400.11881,641.7587 400.12161,641.75852 C 400.39891,641.74014 400.61351,641.75105 400.77781,641.75852 C 407.45581,642.06203 416.86601,655.4514 412.71531,674.82102 C 408.49461,694.51761 398.59751,703.30253 390.93411,705.07102 C 381.78921,707.18138 264.31101,732.50982 260.09031,729.69602 C 255.86961,726.8822 268.57361,667.52598 274.84031,666.38352 C 281.19791,665.22446 386.08321,643.01493 399.68411,641.75852 z M 363.93411,657.91477 C 353.44991,658.76514 345.18411,667.6208 345.18411,678.32102 C 345.18411,689.58184 354.32951,698.72725 365.59031,698.72727 C 376.85121,698.72725 385.99661,689.58186 385.99661,678.32102 C 385.99661,667.06016 376.85121,657.91479 365.59031,657.91477 C 365.54631,657.91475 365.50931,657.91449 365.46531,657.91477 C 365.24661,657.91614 365.02621,657.90653 364.80911,657.91477 C 364.72391,657.918 364.64401,657.9105 364.55911,657.91477 C 364.47491,657.91901 364.39301,657.90951 364.30911,657.91477 C 364.27781,657.9154 364.21531,657.91399 364.18411,657.91477 C 364.15291,657.91547 364.09021,657.91393 364.05911,657.91477 C 364.01791,657.91786 363.97521,657.91144 363.93411,657.91477 z "
       id="path2184" />
  </g>
</svg>
