<?xml version="1.0" encoding="UTF-8" standalone="no"?>
<!-- Created with Inkscape (http://www.inkscape.org/) -->
<svg
   xmlns:dc="http://purl.org/dc/elements/1.1/"
   xmlns:cc="http://web.resource.org/cc/"
   xmlns:rdf="http://www.w3.org/1999/02/22-rdf-syntax-ns#"
   xmlns:svg="http://www.w3.org/2000/svg"
   xmlns="http://www.w3.org/2000/svg"
   xmlns:sodipodi="http://inkscape.sourceforge.net/DTD/sodipodi-0.dtd"
   xmlns:inkscape="http://www.inkscape.org/namespaces/inkscape"
   id="svg1376"
   sodipodi:version="0.32"
   inkscape:version="0.43"
   width="210mm"
   height="297mm"
   sodipodi:docbase="/home/sjoerd0/docs/images/stratego"
   sodipodi:docname="spion.svg"
   version="1.0">
  <metadata
     id="metadata1381">
    <rdf:RDF>
      <cc:Work
         rdf:about="">
        <dc:format>image/svg+xml</dc:format>
        <dc:type
           rdf:resource="http://purl.org/dc/dcmitype/StillImage" />
      </cc:Work>
    </rdf:RDF>
  </metadata>
  <defs
     id="defs1379" />
  <sodipodi:namedview
     inkscape:window-height="946"
     inkscape:window-width="1264"
     inkscape:pageshadow="2"
     inkscape:pageopacity="0.0"
     borderopacity="1.0"
     bordercolor="#666666"
     pagecolor="#ffffff"
     id="base"
     showguides="true"
     inkscape:guide-bbox="true"
     inkscape:zoom="0.17769548"
     inkscape:cx="333.36768"
     inkscape:cy="499.84438"
     inkscape:window-x="0"
     inkscape:window-y="0"
     inkscape:current-layer="svg1376" />
  <path
     style="fill:#000000;fill-opacity:1;fill-rule:evenodd;stroke:#000000;stroke-width:1px;stroke-linecap:butt;stroke-linejoin:miter;stroke-opacity:1"
     d="M 359.80464,85.833343 C 263.13594,87.326051 175.97354,135.44488 182.89844,158.98959 C 189.62974,181.87611 224.69034,248.54995 220.30464,324.52084 C 209.64684,329.73357 159.58514,356.48336 164.61714,396.73959 C 168.18394,425.2733 186.57224,440.30962 213.80464,446.73959 C 215.58404,459.02557 217.99754,475.87945 220.42964,493.27084 C 210.55804,495.11486 198.21824,497.98412 193.46094,501.55209 C 185.01954,507.88315 174.46944,526.17546 156.17964,563.45834 C 138.64284,599.20656 116.06934,612.00164 118.17964,619.73959 C 120.29004,627.47755 151.96094,649.98956 151.96094,649.98959 C 151.96094,649.98959 87.220744,672.48503 66.117144,682.33334 C 45.013644,692.18165 18.712744,712.82171 49.929644,728.08334 C 81.584944,743.55925 80.723244,737.85433 128.74214,777.30209 C 166.68994,808.47633 183.68164,831.05284 192.74214,842.02084 C 206.10774,858.20019 218.07744,829.36295 236.36714,799.11459 C 250.80294,775.24001 268.71744,760.42417 254.64844,732.98959 C 242.86304,710.00803 223.00684,666.86103 225.11714,640.83334 C 227.16164,615.61903 232.50384,605.59187 232.83594,604.98959 C 233.13454,605.16186 242.70104,610.71632 244.08594,618.33334 C 245.49284,626.0713 244.40094,659.49355 252.52344,681.64584 C 260.26144,702.74936 277.87794,723.15105 288.42964,711.89584 C 298.98144,700.64063 331.31214,644.35647 348.89844,628.17709 C 366.48464,611.99773 381.95904,600.75162 386.17964,608.48959 C 390.40034,616.22755 355.23114,657.03481 311.61714,728.08334 C 268.00324,799.13185 222.27994,878.60029 208.21094,909.55209 C 194.14194,940.50391 199.77894,939.82064 221.58594,933.48959 C 244.83034,919.97158 499.72314,855.44445 520.55464,852.58334 C 541.87594,849.65498 551.49994,839.21748 534.61714,819.52084 C 517.73434,799.82423 419.05484,696.47713 411.52344,677.42709 C 399.56474,647.17871 401.68394,645.0576 426.30464,666.86459 C 440.47384,679.41447 455.11914,696.40626 450.89844,673.89584 C 446.67774,651.38541 437.53994,599.35515 435.42964,585.98959 C 433.34794,572.80588 434.01824,562.7728 445.27344,558.55209 C 456.52864,554.33139 461.90234,560.94244 464.99214,573.30209 C 469.21284,590.1849 479.05274,621.84086 483.27344,639.42709 C 486.24664,651.81534 486.79884,657.02279 499.46094,652.80209 C 512.12304,648.58138 561.36004,627.4922 576.83594,621.86459 C 592.31184,616.23698 601.45834,614.82814 607.08594,626.08334 C 612.71354,637.33855 595.12174,642.95573 585.27344,648.58334 C 575.42514,654.21095 499.43494,686.58011 488.17964,693.61459 C 476.92444,700.6491 472.70384,706.26306 488.17964,723.14584 C 503.65554,740.02866 538.82944,775.20183 552.89844,789.27084 C 566.96754,803.33986 569.59514,802.61757 595.11714,799.83334 C 633.80694,795.61264 686.58204,748.46423 695.02344,735.80209 C 703.46484,723.13998 706.27994,710.49352 692.21094,702.05209 C 678.14194,693.61068 652.80794,673.89908 645.77344,666.86459 C 638.73894,659.83008 627.48894,657.02737 634.52344,642.95834 C 641.55794,628.88932 635.90434,629.58918 623.24214,616.92709 C 610.58004,604.26498 587.17084,578.83959 583.86714,547.27084 C 577.53604,486.77408 560.57984,504.63902 568.74214,474.48959 C 578.20254,439.54588 593.46524,443.45145 604.61714,445.48959 C 610.29114,447.80295 614.66594,447.13013 617.61714,441.77084 C 632.02924,415.59905 630.00214,368.73582 551.52344,347.45834 C 548.29614,262.45534 576.21104,211.64278 602.14844,142.08334 C 503.66534,91.434899 464.37754,85.833343 364.39844,85.833343 C 363.24434,85.833344 362.08134,85.819938 360.92964,85.833343 C 360.55034,85.83776 360.18374,85.827489 359.80464,85.833343 z M 545.83594,153.52084 C 545.90744,153.51772 545.98344,153.52372 546.05464,153.52084 C 546.12624,153.51794 546.20214,153.5235 546.27344,153.52084 C 546.34494,153.51817 546.42094,153.52327 546.49214,153.52084 C 546.63584,153.51595 546.78714,153.52477 546.92964,153.52084 C 547.07334,153.51687 547.22464,153.52385 547.36714,153.52084 C 557.57414,153.30508 564.85974,155.52778 565.55464,156.80209 C 565.56044,156.81345 565.57814,156.84847 565.58594,156.86459 C 566.90494,160.64564 552.48484,191.24204 541.86714,227.05209 C 531.24944,262.86213 525.47884,301.08269 520.55464,302.48959 C 510.70634,305.30338 506.49874,295.45898 492.42964,294.05209 C 478.36064,292.6452 472.71484,301.08725 464.27344,292.64584 C 455.83204,284.20444 460.04294,251.8275 485.36714,196.95834 C 501.05534,162.96735 527.60504,154.31752 545.83594,153.52084 z M 307.80464,268.95834 C 307.96424,268.95478 308.11564,268.96139 308.27344,268.95834 C 308.43634,268.95519 308.61244,268.96096 308.77344,268.95834 C 308.93964,268.95565 309.10924,268.96047 309.27344,268.95834 C 309.62374,268.9538 309.96364,268.96025 310.30464,268.95834 C 318.27984,268.91366 323.69594,269.60738 326.05464,271.89584 C 330.27604,275.99879 330.28314,287.68642 331.30464,308.08334 C 332.58774,333.8263 331.72624,345.51669 326.74214,350.64584 C 322.12604,355.39637 313.88744,355.08593 293.74214,355.58334 C 274.09434,356.08075 265.90614,356.31072 261.36714,351.95834 C 256.82824,347.60595 255.71094,335.91226 255.71094,315.02084 C 255.71094,294.12941 254.60294,279.8457 257.96094,275.17709 C 261.19994,270.67388 273.63474,270.65971 290.52344,269.77084 C 297.06834,269.42638 302.85784,269.0686 307.80464,268.95834 z M 291.30464,287.61459 C 290.88684,287.63307 290.46534,287.6692 290.02344,287.67709 C 283.30934,287.79486 276.58854,291.89903 277.08594,310.55209 C 277.58334,329.20512 277.83674,336.42709 290.02344,336.42709 C 304.94594,336.42709 306.42584,329.46055 305.67964,305.83334 C 305.14184,288.98085 304.14364,287.54444 293.33594,287.61459 C 293.08194,287.61625 292.81934,287.61009 292.55464,287.61459 C 292.35624,287.61798 292.16534,287.60935 291.96094,287.61459 C 291.80764,287.61852 291.64994,287.60893 291.49214,287.61459 C 291.43304,287.61671 291.36434,287.61195 291.30464,287.61459 z M 471.21094,324.42709 C 471.24764,324.42399 471.29874,324.42927 471.33594,324.42709 C 471.34214,324.42673 471.36074,324.42725 471.36714,324.42709 C 471.40684,324.42705 471.45604,324.42828 471.49214,324.42709 C 471.68494,324.42078 471.86294,324.429 472.05464,324.42709 C 496.21774,324.18631 513.86214,332.68549 513.52344,339.05209 C 512.92084,350.37886 459.17504,341.32824 384.77344,381.98959 C 277.68474,440.51478 260.99214,427.69566 260.99214,421.36459 C 260.99214,415.03353 280.65574,410.02203 308.11714,395.33334 C 338.36554,379.15396 386.20674,353.84246 429.11714,334.14584 C 443.70004,327.45206 458.15534,324.73057 470.89844,324.45834 C 471.00724,324.45601 471.10094,324.43638 471.21094,324.42709 z M 482.99214,392.36459 C 496.46954,391.89708 510.60864,398.46984 533.92964,408.70834 C 562.77114,421.37045 556.41504,433.32487 554.30464,451.61459 C 552.19434,469.9043 541.66884,488.1924 531.11714,488.89584 C 520.56534,489.59929 525.49284,478.3545 524.08594,466.39584 C 522.67904,454.43718 518.45154,437.5521 505.08594,437.55209 C 491.72034,437.55209 492.41504,455.84212 490.30464,470.61459 C 488.19434,485.38705 477.65364,500.14194 466.39844,508.58334 C 455.38944,516.84009 434.28214,526.44843 432.68684,526.86459 C 434.15424,525.31183 452.62034,463.8661 457.93364,445.99415 C 465.67164,419.96648 456.54694,398.85124 473.42964,393.92709 C 476.66114,392.98458 479.80184,392.47526 482.99214,392.36459 z M 437.99214,395.95834 C 437.99494,395.95873 438.02084,395.95824 438.02344,395.95834 C 442.70914,417.0573 445.35134,459.00951 394.99214,550.36459 C 368.62364,598.19892 345.39684,600.38656 315.14844,603.55209 C 251.77234,610.18449 239.55614,584.45544 244.58594,565.58334 C 253.84774,558.32599 264.68464,551.52084 271.52344,551.52084 C 289.81324,551.52086 298.26364,562.77215 319.36714,559.95834 C 340.47064,557.14457 357.36714,530.39584 357.36714,530.39584 C 357.36714,530.39586 333.43564,534.62176 320.77344,519.14584 C 310.60124,506.7131 300.54764,499.80824 287.61714,496.80209 C 286.44924,489.21341 285.76694,480.24786 287.02344,472.70834 C 288.35534,464.71726 291.26884,455.15848 293.96094,447.30209 C 296.84824,446.79948 299.70994,446.24852 302.55464,445.64584 C 302.55734,445.64611 302.58334,445.64577 302.58594,445.64584 C 310.14674,446.01815 312.72994,449.17499 318.64844,455.83334 C 329.90364,468.49544 341.87144,476.93035 366.49214,469.89584 C 386.79494,464.09501 399.55404,447.40431 400.96094,429.11459 C 401.76884,418.61228 406.05624,411.10565 413.02344,405.30209 C 413.02894,405.29633 413.04914,405.27646 413.05464,405.27084 C 413.06574,405.27111 413.10614,405.27057 413.11714,405.27084 C 413.12274,405.26522 413.14294,405.24535 413.14844,405.23959 C 413.15094,405.23682 413.17734,405.2116 413.17964,405.20834 C 421.46604,401.86272 429.72164,398.73069 437.99214,395.95834 z M 237.83594,450.17709 C 247.01664,450.79171 256.80464,450.79747 267.05464,450.30209 L 258.80464,499.83334 C 252.83904,502.36293 246.42704,505.65864 240.30464,509.11459 C 238.62704,487.06973 238.03314,465.21953 237.83594,450.17709 z "
     id="path2260"
     sodipodi:nodetypes="cscsccssscssssssscssssssscsssssssssssssssssssssssscsccssccssssssssssssccssssccscssssccssscssssccssssssssssccssssssscsscccsscsscscscsssssssssccccccc" />
</svg>
