<?xml version="1.0" encoding="iso-8859-1"?>
<!-- Generator: Adobe Illustrator 19.0.0, SVG Export Plug-In . SVG Version: 6.00 Build 0)  -->
<svg version="1.1" id="Layer_1" xmlns="http://www.w3.org/2000/svg" xmlns:xlink="http://www.w3.org/1999/xlink" x="0px" y="0px"
	 viewBox="0 0 457.811 457.811" style="enable-background:new 0 0 457.811 457.811;" xml:space="preserve">
<g id="XMLID_260_">
	<g>
		<path d="M457.811,228.905l-68.541-34.27v19.27h-20.413c-2.895-53.893-21.351-104.181-52.72-142.931
			C281.125,27.724,234.294,3.905,184.27,3.905h-10v30h10c4.728,0,9.461,0.684,14.151,2.021l-88.957,169.826L93.54,173.905H0l27.5,55
			l-27.5,55h93.541l15.924-31.847l88.957,169.827c-4.691,1.337-9.424,2.021-14.151,2.021h-10v30h10
			c50.023,0,96.855-23.819,131.867-67.069c31.369-38.751,49.824-89.039,52.72-142.931h20.413v19.27L457.811,228.905z M75,253.905
			H48.541l12.5-25l-12.5-25H75l12.5,25L75,253.905z M224.483,50.826c29.054,25.765,52.059,80.718,54.555,163.079H139.061
			L224.483,50.826z M224.483,406.984l-85.422-163.079h139.977C276.542,326.266,253.537,381.218,224.483,406.984z M278.468,383.668
			c20.171-39.977,30.803-93.284,30.803-154.763s-10.632-114.786-30.803-154.763c36.942,35.674,60.803,91.781,60.803,154.763
			S315.41,347.994,278.468,383.668z"/>
	</g>
</g>
<g>
</g>
<g>
</g>
<g>
</g>
<g>
</g>
<g>
</g>
<g>
</g>
<g>
</g>
<g>
</g>
<g>
</g>
<g>
</g>
<g>
</g>
<g>
</g>
<g>
</g>
<g>
</g>
<g>
</g>
</svg>
