<?xml version="1.0" encoding="iso-8859-1"?>
<!-- Generator: Adobe Illustrator 18.0.0, SVG Export Plug-In . SVG Version: 6.00 Build 0)  -->
<!DOCTYPE svg PUBLIC "-//W3C//DTD SVG 1.1//EN" "http://www.w3.org/Graphics/SVG/1.1/DTD/svg11.dtd">
<svg version="1.1" id="Capa_1" xmlns="http://www.w3.org/2000/svg" xmlns:xlink="http://www.w3.org/1999/xlink" x="0px" y="0px"
	 viewBox="0 0 473.295 473.295" style="enable-background:new 0 0 473.295 473.295;" xml:space="preserve">
<g>
	<path d="M101.313,331.417c-14.104,0-25.577,11.474-25.577,25.578s11.474,25.577,25.577,25.577s25.578-11.474,25.578-25.577
		S115.417,331.417,101.313,331.417z M101.313,371.573c-8.038,0-14.577-6.539-14.577-14.577s6.539-14.578,14.577-14.578
		s14.578,6.54,14.578,14.578S109.352,371.573,101.313,371.573z"/>
	<path d="M312.375,331.417c-14.104,0-25.577,11.474-25.577,25.578s11.474,25.577,25.577,25.577s25.578-11.474,25.578-25.577
		S326.479,331.417,312.375,331.417z M312.375,371.573c-8.038,0-14.577-6.539-14.577-14.577s6.539-14.578,14.577-14.578
		s14.578,6.54,14.578,14.578S320.413,371.573,312.375,371.573z"/>
	<path d="M326.409,194.125c12.162,26.502,38.932,44.963,69.95,44.963c42.423,0,76.937-34.513,76.937-76.936
		c0-3.038-2.463-5.5-5.5-5.5h-21.663c-2.749-25.035-24.017-44.579-49.772-44.579s-47.023,19.545-49.772,44.579h-6.64v-0.005
		c-17.683-0.311-35.664-0.04-53.506,0.792l-34.314-59.437l-9.247-42.673c-0.548-2.53-2.786-4.335-5.375-4.335h-61.329
		c-2.589,0-4.827,1.805-5.375,4.335l-9.247,42.673l-49.84,86.33c-17.11,4.521-34.286,9.647-51.09,15.262
		c-4.768,1.592-8.612,4.958-10.823,9.479c-2.216,4.528-2.516,9.639-0.846,14.395c0.039,0.122,0.08,0.241,0.124,0.357
		c2.709,7.573,9.953,12.358,17.638,12.358c1.948,0,3.926-0.308,5.864-0.956c4.012-1.339,8.02-2.64,12.003-3.902l-25.383,43.968
		H25.397c-3.037,0-5.5,2.462-5.5,5.5v31.04L2.189,325.181C0.811,326.22,0,327.846,0,329.573v27.421c0,3.038,2.463,5.5,5.5,5.5
		h30.755c2.804,33.445,30.902,59.809,65.058,59.809c34.157,0,62.255-26.364,65.059-59.809h80.944
		c2.804,33.445,30.902,59.809,65.058,59.809c34.157,0,62.255-26.364,65.059-59.809h30.752c3.037,0,5.5-2.462,5.5-5.5v-27.421
		c0-1.726-0.811-3.353-2.189-4.392l-17.708-13.349v-31.04c0-3.038-2.463-5.5-5.5-5.5h-33.808l-46.748-80.975
		C314.014,194.176,320.251,194.115,326.409,194.125z M396.358,228.088c-34.504,0-62.903-26.644-65.708-60.436h131.417
		C459.263,201.444,430.863,228.088,396.358,228.088z M396.36,123.073c19.681,0,36.003,14.627,38.686,33.579h-77.371
		C360.358,137.699,376.679,123.073,396.36,123.073z M180.612,61.993h52.458l6.904,31.862h-66.267L180.612,61.993z M104.158,275.291
		l33.999-58.891c15.222-3.68,30.596-6.92,46.074-9.701l-10.395,68.592H104.158z M195.652,204.74
		c7.276-1.198,14.569-2.305,21.878-3.302l11.191,73.854h-43.761L195.652,204.74z M239.847,275.291l-11.404-75.258
		c11.844-1.45,23.716-2.633,35.593-3.548l45.5,78.806H239.847z M145.702,203.331l10.531-18.241
		c30.586-6.424,61.88-11.136,93.124-14.03l8.586,14.87C220.2,189.087,182.543,194.932,145.702,203.331z M163.586,172.353
		l38.968-67.498h8.577l32.181,55.736C216.59,163.23,189.86,167.161,163.586,172.353z M69.097,224.792
		c-3.954,1.321-8.291-0.791-9.672-4.708c-0.007-0.019-0.014-0.037-0.021-0.056c-0.023-0.073-0.048-0.146-0.074-0.219
		c-0.681-1.951-0.556-4.046,0.353-5.902c0.905-1.851,2.478-3.228,4.428-3.879c13.11-4.381,26.45-8.463,39.805-12.186l-11.246,19.48
		C84.94,219.641,77.028,222.144,69.097,224.792z M170.3,104.854h19.551L91.456,275.291H71.904L170.3,104.854z M11,332.314
		l8.897-6.708v25.887H11V332.314z M101.313,411.302c-29.944,0-54.307-24.362-54.307-54.307s24.362-54.307,54.307-54.307
		c29.945,0,54.308,24.362,54.308,54.307S131.259,411.302,101.313,411.302z M312.375,411.302c-29.944,0-54.307-24.362-54.307-54.307
		s24.362-54.307,54.307-54.307c29.945,0,54.308,24.362,54.308,54.307S342.32,411.302,312.375,411.302z M402.687,332.314v19.179
		h-8.897v-25.887L402.687,332.314z M382.789,351.493h-5.355c-2.805-33.443-30.903-59.805-65.059-59.805
		c-34.155,0-62.252,26.362-65.058,59.805h-80.945c-2.805-33.443-30.903-59.805-65.059-59.805c-34.155,0-62.252,26.362-65.058,59.805
		h-5.358v-65.202h351.892V351.493z M322.237,275.291l-98.406-170.437h19.551l98.396,170.437H322.237z M301.476,183.479l-8.833-15.3
		c8.992-0.357,18.007-0.571,26.99-0.635c0.373,5.361,1.298,10.57,2.718,15.576C315.471,183.146,308.484,183.272,301.476,183.479z"/>
	<path d="M189.67,72.427c-1.439,0-2.859,0.58-3.89,1.61c-1.021,1.02-1.61,2.44-1.61,3.89c0,1.45,0.59,2.87,1.61,3.89
		c1.03,1.02,2.45,1.61,3.89,1.61c1.45,0,2.87-0.59,3.891-1.61c1.029-1.03,1.609-2.44,1.609-3.89c0-1.45-0.58-2.87-1.609-3.89
		C192.54,73.006,191.12,72.427,189.67,72.427z"/>
	<path d="M224.01,72.427c-1.449,0-2.869,0.58-3.89,1.61c-1.02,1.02-1.61,2.44-1.61,3.89c0,1.44,0.591,2.86,1.61,3.89
		c1.021,1.02,2.44,1.61,3.89,1.61c1.45,0,2.86-0.59,3.891-1.61c1.02-1.03,1.609-2.45,1.609-3.89c0-1.45-0.59-2.87-1.609-3.89
		C226.87,73.006,225.46,72.427,224.01,72.427z"/>
	<path d="M189.67,331.076c-1.439,0-2.859,0.58-3.89,1.61c-1.021,1.02-1.61,2.44-1.61,3.89c0,1.44,0.59,2.86,1.61,3.89
		c1.03,1.02,2.45,1.61,3.89,1.61c1.45,0,2.87-0.59,3.891-1.61c1.029-1.03,1.609-2.45,1.609-3.89c0-1.45-0.58-2.87-1.609-3.89
		C192.54,331.656,191.12,331.076,189.67,331.076z"/>
	<path d="M224.01,331.076c-1.449,0-2.869,0.58-3.89,1.61c-1.02,1.02-1.61,2.44-1.61,3.89c0,1.44,0.591,2.86,1.61,3.88
		c1.021,1.03,2.44,1.62,3.89,1.62c1.45,0,2.86-0.59,3.891-1.62c1.02-1.02,1.609-2.44,1.609-3.88c0-1.45-0.59-2.87-1.609-3.89
		C226.87,331.656,225.46,331.076,224.01,331.076z"/>
</g>
<g>
</g>
<g>
</g>
<g>
</g>
<g>
</g>
<g>
</g>
<g>
</g>
<g>
</g>
<g>
</g>
<g>
</g>
<g>
</g>
<g>
</g>
<g>
</g>
<g>
</g>
<g>
</g>
<g>
</g>
</svg>
