<?xml version="1.0" encoding="iso-8859-1"?>
<!-- Generator: Adobe Illustrator 18.0.0, SVG Export Plug-In . SVG Version: 6.00 Build 0)  -->
<!DOCTYPE svg PUBLIC "-//W3C//DTD SVG 1.1//EN" "http://www.w3.org/Graphics/SVG/1.1/DTD/svg11.dtd">
<svg version="1.1" id="Capa_1" xmlns="http://www.w3.org/2000/svg" xmlns:xlink="http://www.w3.org/1999/xlink" x="0px" y="0px"
	 viewBox="0 0 470.226 470.226" style="enable-background:new 0 0 470.226 470.226;" xml:space="preserve">
<path d="M429.908,166.292c-23.095,0-45.759-7.248-65.542-20.959c-30.179-20.917-64.531-34.005-100.646-38.533V82.263
	c0-3.038-2.462-5.5-5.5-5.5h-17.608V62.26h16.018c1.841,0,3.561-0.921,4.58-2.455c1.02-1.534,1.204-3.476,0.491-5.174l-21.518-51.26
	C239.326,1.329,237.327,0,235.113,0s-4.214,1.329-5.071,3.371l-21.518,51.26c-0.713,1.698-0.528,3.64,0.491,5.174
	c1.019,1.534,2.739,2.455,4.58,2.455h16.018v14.503h-17.608c-3.038,0-5.5,2.462-5.5,5.5V106.8
	c-36.114,4.527-70.467,17.616-100.646,38.533c-19.783,13.711-42.446,20.959-65.541,20.959c-3.038,0-5.5,2.462-5.5,5.5v25.499
	c0,3.038,2.462,5.5,5.5,5.5c8.317,0,16.578-0.728,24.725-2.114l128.057,135.246c0.079,0.298,0.147,0.602,0.228,0.899
	c8.74,32.018,13.171,63.724,13.171,94.237v0.137c-10.241,2.479-17.87,11.724-17.87,22.716v10.813c0,3.038,2.462,5.5,5.5,5.5h81.968
	c3.038,0,5.5-2.462,5.5-5.5v-10.813c0-10.994-7.631-20.239-17.88-22.717v-0.136c0-30.527,4.435-62.232,13.183-94.24
	c0.081-0.296,0.148-0.598,0.227-0.895l128.058-135.247c8.147,1.386,16.408,2.114,24.725,2.114c3.038,0,5.5-2.462,5.5-5.5v-25.499
	C435.408,168.754,432.946,166.292,429.908,166.292z M240.613,51.26V32.813l7.744,18.447H240.613z M221.869,51.26l7.744-18.447V51.26
	H221.869z M397.554,172.907v14.969c-16.804-4.094-32.943-11.348-47.713-21.586c-32.747-22.697-70.865-34.555-109.228-35.59v-14.612
	c42.268,1.053,82.78,14.23,117.488,38.286C370.383,162.887,383.7,169.108,397.554,172.907z M267.168,330.441l-26.555,28.046V141.692
	c4.04,0.115,8.077,0.351,12.104,0.721v32.603c0,31.514,4.566,64.198,13.569,97.142c2.628,9.651,3.961,20.042,3.961,30.885
	C270.246,312.594,269.21,321.793,267.168,330.441z M203.052,330.437c-2.039-8.618-3.074-17.814-3.074-27.394
	c0-10.882,1.332-21.271,3.96-30.882c8.998-32.961,13.56-65.646,13.56-97.145v-32.603c4.03-0.37,8.071-0.606,12.114-0.721v216.795
	L203.052,330.437z M235.113,377.796c4.255,0,7.717,3.461,7.717,7.716s-3.462,7.717-7.717,7.717s-7.716-3.462-7.716-7.717
	S230.858,377.796,235.113,377.796z M252.721,87.763v17.921c-4.018-0.307-8.056-0.504-12.108-0.6V87.763H252.721z M217.504,87.763
	h12.108v17.321c-4.052,0.096-8.09,0.293-12.108,0.6V87.763z M112.125,154.374c34.707-24.056,75.22-37.233,117.488-38.286v14.612
	c-38.363,1.035-76.482,12.893-109.229,35.59c-14.771,10.238-30.909,17.492-47.713,21.586v-14.969
	C86.525,169.109,99.842,162.887,112.125,154.374z M45.817,177.167c5.326-0.241,10.617-0.85,15.854-1.782v14.707
	c-5.243,0.832-10.533,1.373-15.854,1.588V177.167z M77.626,197.969c17.259-4.502,33.821-12.101,49.024-22.638
	c24.273-16.825,51.668-27.353,79.848-31.587v31.273c0,30.521-4.432,62.23-13.171,94.246c-2.886,10.554-4.349,21.919-4.349,33.781
	c0,4.472,0.209,8.874,0.623,13.188L77.626,197.969z M270.596,453.912v5.313h-70.968v-5.313c0-6.821,5.549-12.37,12.37-12.37h45.917
	v-0.016c0.104,0.006,0.206,0.016,0.311,0.016C265.047,441.542,270.596,447.091,270.596,453.912z M252.721,430.542h-35.227
	c-0.04-25.513-3.07-51.802-9.027-78.387l16.636,17.57c-5.224,3.324-8.707,9.151-8.707,15.788c0,10.32,8.396,18.717,18.716,18.717
	s18.717-8.396,18.717-18.717c0-6.637-3.483-12.464-8.707-15.788l16.629-17.563C255.792,378.734,252.761,405.021,252.721,430.542z
	 M280.62,316.234c0.416-4.321,0.627-8.723,0.627-13.191c0-11.819-1.463-23.183-4.349-33.781
	c-8.747-32.003-13.182-63.712-13.182-94.246v-31.274c28.184,4.234,55.582,14.762,79.858,31.588
	c15.203,10.537,31.765,18.135,49.025,22.638L280.62,316.234z M424.408,191.68c-5.321-0.215-10.611-0.757-15.854-1.588v-14.707
	c5.237,0.932,10.529,1.541,15.854,1.782V191.68z"/>
<g>
</g>
<g>
</g>
<g>
</g>
<g>
</g>
<g>
</g>
<g>
</g>
<g>
</g>
<g>
</g>
<g>
</g>
<g>
</g>
<g>
</g>
<g>
</g>
<g>
</g>
<g>
</g>
<g>
</g>
</svg>
