<?xml version="1.0" encoding="iso-8859-1"?>
<!-- Generator: Adobe Illustrator 19.0.0, SVG Export Plug-In . SVG Version: 6.00 Build 0)  -->
<svg version="1.1" id="Layer_1" xmlns="http://www.w3.org/2000/svg" xmlns:xlink="http://www.w3.org/1999/xlink" x="0px" y="0px"
	 viewBox="0 0 298.9 298.9" style="enable-background:new 0 0 298.9 298.9;" xml:space="preserve">
<g>
	<g>
		<g>
			<path d="M189.1,173.85h-9.15V45.75c0-18.898-9.753-32.85-28.204-40.345C138.593,0.062,125.597,0,125.05,0
				c-3.369,0-6.1,2.731-6.1,6.1v167.75h-9.15c-6.727,0-12.2,5.473-12.2,12.2v15.25c0,3.369,2.731,6.1,6.1,6.1h15.25v79.3
				c0,6.727,5.473,12.2,12.2,12.2h36.6c6.727,0,12.2-5.473,12.2-12.2v-79.3h15.25c3.369,0,6.1-2.731,6.1-6.1v-15.25
				C201.3,179.323,195.827,173.85,189.1,173.85z M131.15,12.667c1.778,0.222,3.855,0.551,6.1,1.035V94.55h12.2V17.709
				c12.306,5.727,18.3,14.921,18.3,28.041v128.1h-36.6V12.667z M167.75,216.55H146.4v12.2h21.35v12.2H146.4v12.2h21.35v12.2H146.4
				v12.2h21.35v9.15h-36.6v-79.3h36.6V216.55z M189.1,195.2h-79.3v-9.15h79.3V195.2z"/>
			<rect x="152.5" y="152.5" width="12.2" height="12.2"/>
			<rect x="134.2" y="152.5" width="12.2" height="12.2"/>
			<rect x="152.5" y="134.2" width="12.2" height="12.2"/>
			<rect x="152.5" y="115.9" width="12.2" height="12.2"/>
		</g>
	</g>
</g>
<g>
</g>
<g>
</g>
<g>
</g>
<g>
</g>
<g>
</g>
<g>
</g>
<g>
</g>
<g>
</g>
<g>
</g>
<g>
</g>
<g>
</g>
<g>
</g>
<g>
</g>
<g>
</g>
<g>
</g>
</svg>
