<?xml version="1.0" encoding="iso-8859-1"?>
<!-- Generator: Adobe Illustrator 18.0.0, SVG Export Plug-In . SVG Version: 6.00 Build 0)  -->
<!DOCTYPE svg PUBLIC "-//W3C//DTD SVG 1.1//EN" "http://www.w3.org/Graphics/SVG/1.1/DTD/svg11.dtd">
<svg version="1.1" id="Capa_1" xmlns="http://www.w3.org/2000/svg" xmlns:xlink="http://www.w3.org/1999/xlink" x="0px" y="0px"
	 viewBox="0 0 297 297" style="enable-background:new 0 0 297 297;" xml:space="preserve">
<path d="M295.946,15.566c-0.398-3.012-2.157-5.673-4.773-7.219c-2.615-1.546-5.795-1.805-8.624-0.701
	c-18.025,7.026-37.448,9.297-57.73,6.757c-3.251-0.411-6.5,0.823-8.665,3.289L88.379,163.297
	c-6.076-2.024-12.498-3.093-19.088-3.093c-16.108,0-31.252,6.286-42.642,17.7c-3.852,3.86-3.852,10.111-0.001,13.973l16.789,16.827
	L2.889,249.342c-3.852,3.86-3.852,10.112,0,13.973l23.759,23.811c1.855,1.859,4.375,2.904,7.002,2.904
	c2.627,0,5.146-1.045,7.002-2.904l40.519-40.606l16.76,16.796c1.855,1.859,4.374,2.904,7.001,2.904c2.628,0,5.146-1.045,7.002-2.904
	c13.8-13.83,19.483-32.755,17.072-50.789c68.816-32.179,117.16-68.222,143.683-107.156C292.212,76.71,300.036,46.496,295.946,15.566
	z M33.65,266.136l-9.786-9.808l33.548-33.621l9.786,9.808L33.65,266.136z M104.067,241.458l-55.595-55.717
	c6.225-3.753,13.368-5.756,20.818-5.756c10.817,0,20.988,4.223,28.64,11.892C111.324,205.3,113.37,225.857,104.067,241.458z
	 M256.34,94.233c-24.188,35.505-68.998,68.865-133.214,99.201c-2.812-5.602-6.531-10.859-11.192-15.529
	c-1.796-1.801-3.696-3.458-5.669-4.999L227.635,34.599c17.117,1.545,33.718,0.089,49.565-4.339
	C277.431,52.068,270.44,73.535,256.34,94.233z"/>
<g>
</g>
<g>
</g>
<g>
</g>
<g>
</g>
<g>
</g>
<g>
</g>
<g>
</g>
<g>
</g>
<g>
</g>
<g>
</g>
<g>
</g>
<g>
</g>
<g>
</g>
<g>
</g>
<g>
</g>
</svg>
