<?xml version="1.0" encoding="iso-8859-1"?>
<!-- Generator: Adobe Illustrator 19.0.0, SVG Export Plug-In . SVG Version: 6.00 Build 0)  -->
<svg version="1.1" id="Layer_1" xmlns="http://www.w3.org/2000/svg" xmlns:xlink="http://www.w3.org/1999/xlink" x="0px" y="0px"
	 viewBox="0 0 512 512" style="enable-background:new 0 0 512 512;" xml:space="preserve">
<g transform="translate(1)">
	<g>
		<g>
			<path d="M319.839,316.587c-6.277-5.65-14.862-8.051-23.04-6.216V85.333c0-0.853,0-2.56-0.853-3.413l-34.133-76.8
				c-0.853-3.413-4.267-5.12-7.68-5.12s-6.827,1.707-7.68,5.12l-34.133,76.8c-0.853,0.853-0.853,2.56-0.853,3.413v224.478
				c-7.523-1.218-15.588,1.03-21.333,6.776c-5.12,5.12-8.533,12.8-7.68,20.48c0,7.68,4.267,15.36,11.093,19.627
				c10.636,7.091,22.481,12.36,34.987,15.487v88.941c-9.536,1.676-17.067,10.138-17.067,19.306v11.093
				c0,11.093,9.387,20.48,20.48,20.48h44.373c11.093,0,20.48-9.387,21.333-19.627V481.28c0-10.227-7.982-18.984-17.92-20.293
				v-88.416c13.231-3.136,25.883-8.779,37.547-16.731c5.973-4.267,9.387-11.093,10.24-18.773
				C328.372,329.387,325.812,321.707,319.839,316.587z M254.132,29.013l25.6,58.027v231.253c-3.975,2.208-8.181,3.726-12.614,4.681
				c-3.358,0.694-6.83,1.112-10.44,1.244c-0.102,0.004-0.204,0.008-0.306,0.011c-0.741,0.024-1.488,0.038-2.241,0.038
				c-8.256,0-17.305-2.399-24.84-5.646c-0.255-0.126-0.507-0.259-0.76-0.389V87.04L254.132,29.013z M280.585,491.52
				c0,1.707-1.707,3.413-3.413,3.413h-45.227c-1.707,0-3.413-1.707-3.413-2.56V481.28c0-1.707,1.707-3.413,3.413-3.413v-0.853h1.085
				c1.169,0.55,2.525,0.853,4.035,0.853h34.133c1.51,0,2.865-0.304,4.035-0.853h1.939c1.707,0,3.413,1.707,3.413,3.413V491.52z
				 M262.665,375.467V460.8h-17.067v-85.333H262.665z M307.892,342.187c-15.36,10.24-34.133,16.213-52.907,16.213h-0.853
				c-18.773,0-35.84-5.973-51.2-15.36c-2.56-1.707-4.267-4.267-4.267-6.827c0-1.707,0-4.267,2.56-6.827
				c1.707-1.707,4.267-2.56,5.973-2.56s3.413,0,5.12,1.707c11.947,8.533,26.453,12.8,41.813,12.8c0.977,0,1.948-0.022,2.916-0.057
				c0.119-0.005,0.237-0.012,0.356-0.017c6.699-0.272,13.189-1.381,19.469-3.33c7.506-2.245,14.681-5.486,21.632-9.396
				c3.413-2.56,7.68-1.707,10.24,0.853c1.707,1.707,2.56,4.267,2.56,6.827C311.305,337.92,310.452,340.48,307.892,342.187z"/>
			<path d="M254.132,290.133c5.12,0,8.533-3.413,8.533-8.533V104.96c0-5.12-3.413-8.533-8.533-8.533s-8.533,3.413-8.533,8.533V281.6
				C245.599,286.72,249.012,290.133,254.132,290.133z"/>
		</g>
	</g>
</g>
<g>
</g>
<g>
</g>
<g>
</g>
<g>
</g>
<g>
</g>
<g>
</g>
<g>
</g>
<g>
</g>
<g>
</g>
<g>
</g>
<g>
</g>
<g>
</g>
<g>
</g>
<g>
</g>
<g>
</g>
</svg>
