<?xml version="1.0" encoding="iso-8859-1"?>
<!-- Generator: Adobe Illustrator 18.0.0, SVG Export Plug-In . SVG Version: 6.00 Build 0)  -->
<!DOCTYPE svg PUBLIC "-//W3C//DTD SVG 1.1//EN" "http://www.w3.org/Graphics/SVG/1.1/DTD/svg11.dtd">
<svg version="1.1" id="Capa_1" xmlns="http://www.w3.org/2000/svg" xmlns:xlink="http://www.w3.org/1999/xlink" x="0px" y="0px"
	 viewBox="0 0 425.992 425.992" style="enable-background:new 0 0 425.992 425.992;" xml:space="preserve">
<path d="M424.381,394.092l-55.005-55.005l13.329-13.329c1.178-1.178,1.759-2.828,1.579-4.484c-0.18-1.657-1.102-3.143-2.506-4.04
	l-94.902-60.647l-52.313-52.313L404.086,34.75c2.883-2.883,4.471-6.715,4.471-10.789c0-4.053-1.584-7.877-4.471-10.779
	c-5.946-5.946-15.622-5.946-21.568,0L212.999,182.71L43.473,13.183c-5.946-5.946-15.621-5.947-21.567,0
	c-5.946,5.946-5.946,15.621,0,21.567l169.527,169.527l-52.296,52.296l-94.922,60.66c-1.404,0.897-2.326,2.383-2.506,4.04
	c-0.18,1.656,0.4,3.306,1.579,4.484l13.329,13.329L1.611,394.092c-2.148,2.148-2.148,5.63,0,7.778L15.4,415.659
	c1.074,1.074,2.481,1.611,3.889,1.611s2.815-0.537,3.889-1.611l55.006-55.006l13.328,13.328c1.037,1.037,2.438,1.611,3.889,1.611
	c0.198,0,0.396-0.011,0.595-0.032c1.657-0.18,3.143-1.102,4.04-2.506l60.642-94.895l52.318-52.318l52.318,52.318l60.642,94.895
	c0.897,1.404,2.383,2.326,4.04,2.506c0.199,0.021,0.397,0.032,0.595,0.032c1.45,0,2.852-0.574,3.889-1.611l13.328-13.328
	l55.006,55.006c1.074,1.074,2.481,1.611,3.889,1.611s2.815-0.537,3.889-1.611l13.789-13.789
	C426.529,399.722,426.529,396.24,424.381,394.092z M389.174,374.442l4.949,4.949l-6.01,6.01l-4.949-4.949L389.174,374.442z
	 M375.386,372.674l-4.95-4.95l6.01-6.01l4.95,4.95L375.386,372.674z M248.375,245.663l11.275-0.745l15.981,15.981l-6.01,6.01
	L248.375,245.663z M90.711,75.978l23.448,23.448l-11.275,0.745L79.436,76.723L90.711,75.978z M69.096,66.383L45.648,42.935
	l11.275-0.745l23.448,23.448L69.096,66.383z M124.499,109.766l23.448,23.448l-11.275,0.745l-23.448-23.448L124.499,109.766z
	 M158.287,143.554l23.448,23.448l-11.275,0.745l-23.448-23.448L158.287,143.554z M192.075,177.342l23.448,23.448l-11.275,0.745
	l-23.447-23.448L192.075,177.342z M225.862,211.13l23.448,23.448l-11.275,0.745l-23.448-23.448L225.862,211.13z M346.556,76.723
	l-23.448,23.448l-11.274-0.745l23.446-23.448L346.556,76.723z M345.621,65.638l23.447-23.448l11.277,0.745l-23.448,23.448
	L345.621,65.638z M312.769,110.511l-23.448,23.448l-11.272-0.745l23.447-23.448L312.769,110.511z M278.981,144.299l-23.448,23.448
	l-11.27-0.745l23.447-23.448L278.981,144.299z M390.296,20.96c1.658-1.657,4.355-1.656,6.001-0.011
	c0.812,0.817,1.259,1.886,1.259,3.012c0,1.136-0.443,2.206-1.249,3.011l-5.623,5.623l-11.277-0.745L390.296,20.96z M233.923,177.342
	l11.27,0.745l-18.408,18.408l-6.007-6.007L233.923,177.342z M29.684,20.961c1.658-1.657,4.354-1.657,6.01,0L46.583,31.85
	l-11.275,0.745l-5.624-5.624C28.027,25.314,28.027,22.618,29.684,20.961z M156.371,266.909l-6.007-6.007l15.984-15.984l11.269,0.745
	L156.371,266.909z M44.596,366.664l4.95-4.95l6.01,6.01l-4.95,4.95L44.596,366.664z M42.828,380.452l-4.949,4.949l-6.01-6.01
	l4.949-4.949L42.828,380.452z M19.289,403.991l-6.01-6.01L24.09,387.17l6.01,6.01L19.289,403.991z M63.334,359.946l-6.01-6.01
	l7.071-7.071l6.01,6.01L63.334,359.946z M94.451,361.364l-38.547-38.546l85.915-54.904l7.536,7.536L94.451,361.364z
	 M187.957,235.323l-11.269-0.745l22.522-22.523l6.007,6.007L187.957,235.323z M331.541,361.364l-54.904-85.915l7.536-7.536
	l85.915,54.904L331.541,361.364z M361.597,346.865l7.071,7.071l-6.01,6.01l-7.071-7.071L361.597,346.865z M406.703,403.991
	l-10.811-10.811l6.01-6.01l10.811,10.811L406.703,403.991z"/>
<g>
</g>
<g>
</g>
<g>
</g>
<g>
</g>
<g>
</g>
<g>
</g>
<g>
</g>
<g>
</g>
<g>
</g>
<g>
</g>
<g>
</g>
<g>
</g>
<g>
</g>
<g>
</g>
<g>
</g>
</svg>
