<?xml version="1.0" encoding="iso-8859-1"?>
<!-- Generator: Adobe Illustrator 17.1.0, SVG Export Plug-In . SVG Version: 6.00 Build 0)  -->
<!DOCTYPE svg PUBLIC "-//W3C//DTD SVG 1.1//EN" "http://www.w3.org/Graphics/SVG/1.1/DTD/svg11.dtd">
<svg version="1.1" id="Capa_1" xmlns="http://www.w3.org/2000/svg" xmlns:xlink="http://www.w3.org/1999/xlink" x="0px" y="0px"
	 viewBox="0 0 297.32 297.32" style="enable-background:new 0 0 297.32 297.32;" xml:space="preserve">
<g>
	<path d="M296.523,133.8l-21.903-66.96c-2.747-8.398-11.779-12.979-20.182-10.232c-8.398,2.747-12.98,11.783-10.232,20.182
		l1.215,3.715l-45.158-1.577c-26.115-16.224-63.497-20.372-100.499-8.267c-25.329,8.285-46.3,22.819-60.694,40.313
		c-9.409-10.155-6.218-18.17-1.812-29.212c5.025-12.591,11.907-29.835-6.848-48.591c-3.124-3.123-8.19-3.124-11.313-0.001
		c-3.125,3.124-3.125,8.189-0.001,11.314c11.302,11.303,8.119,19.277,3.302,31.348c-5.111,12.809-11.872,29.8,7.36,48.402
		c-4.199,7.117-7.373,14.545-9.396,22.104c-2.957-0.84-6.189-0.839-9.331,0.188c-8.398,2.747-12.979,11.783-10.232,20.182
		l15.82,48.36c2.207,6.746,8.472,11.029,15.204,11.029c1.648,0,3.325-0.257,4.978-0.797c3.142-1.027,5.748-2.935,7.638-5.36
		c3.848,3.092,8.033,5.869,12.505,8.318c-0.333-2.6-0.523-5.242-0.523-7.931c0-34.278,27.888-62.166,62.166-62.166
		c34.278,0,62.166,27.888,62.166,62.166c0,0.465-0.025,0.925-0.035,1.388c23.112-13.546,40.239-32.777,48.662-53.668l35.558-27.886
		l1.174,3.588c2.207,6.747,8.471,11.029,15.204,11.029c1.648,0,3.326-0.257,4.978-0.797
		C294.689,151.234,299.27,142.198,296.523,133.8z"/>
	<path d="M164.75,220.327c0-25.456-20.71-46.166-46.166-46.166c-25.456,0-46.166,20.71-46.166,46.166
		c0,25.456,20.71,46.166,46.166,46.166C144.04,266.493,164.75,245.783,164.75,220.327z M118.584,204.327c8.837,0,16,7.163,16,16
		s-7.163,16-16,16c-8.837,0-16-7.163-16-16S109.747,204.327,118.584,204.327z"/>
</g>
<g>
</g>
<g>
</g>
<g>
</g>
<g>
</g>
<g>
</g>
<g>
</g>
<g>
</g>
<g>
</g>
<g>
</g>
<g>
</g>
<g>
</g>
<g>
</g>
<g>
</g>
<g>
</g>
<g>
</g>
</svg>
