<?xml version="1.0" encoding="iso-8859-1"?>
<!-- Generator: Adobe Illustrator 19.0.0, SVG Export Plug-In . SVG Version: 6.00 Build 0)  -->
<svg version="1.1" id="Layer_1" xmlns="http://www.w3.org/2000/svg" xmlns:xlink="http://www.w3.org/1999/xlink" x="0px" y="0px"
	 viewBox="0 0 512 512" style="enable-background:new 0 0 512 512;" xml:space="preserve">
<g>
	<g>
		<path d="M255.998,179.2c-28.228,0-51.2,22.972-51.2,51.2s22.972,51.2,51.2,51.2s51.2-22.972,51.2-51.2
			S284.227,179.2,255.998,179.2z M255.998,256c-14.14,0-25.6-11.46-25.6-25.6c0-14.14,11.46-25.6,25.6-25.6
			c14.14,0,25.6,11.46,25.6,25.6C281.598,244.54,270.138,256,255.998,256z"/>
	</g>
</g>
<g>
	<g>
		<path d="M510.164,400.094l-47.718-119.296l22.63-67.9c2.603-7.808,1.297-16.393-3.516-23.066
			c-4.804-6.673-12.535-10.633-20.762-10.633h-102.4c-8.226,0-15.957,3.959-20.77,10.633c-4.813,6.673-6.118,15.258-3.516,23.066
			l22.63,67.9l-34.065,85.171l-16.247-64.981c-2.85-11.392-13.082-19.388-24.832-19.388h-25.6h-25.6
			c-11.75,0-21.982,7.996-24.832,19.388l-4.898,19.575l-21.879-120.346c-2.21-12.169-12.817-21.018-25.19-21.018h-102.4
			c-12.373,0-22.972,8.849-25.182,21.026l-25.6,140.8c-1.357,7.467,0.666,15.155,5.53,20.983c4.864,5.828,12.066,9.19,19.652,9.19
			h16.358l9.327,117.231C52.342,501.734,63.444,512,76.798,512h51.2c13.355,0,24.465-10.266,25.523-23.569L162.84,371.2h16.358
			c3.26,0,6.366-0.896,9.327-2.074l-8.567,34.27c-1.911,7.646-0.196,15.753,4.659,21.965c4.855,6.204,12.297,9.839,20.181,9.839
			v51.2c0,14.14,11.46,25.6,25.6,25.6h51.2c14.14,0,25.6-11.46,25.6-25.6v-51.2c4.54,0,8.747-1.485,12.587-3.695
			c3.9,2.321,8.337,3.695,13.013,3.695h25.6v51.2c0,14.14,11.46,25.6,25.6,25.6h51.2c14.14,0,25.6-11.46,25.6-25.6v-51.2h25.6
			c8.499,0,16.435-4.215,21.197-11.247C512.357,416.922,513.321,407.979,510.164,400.094z M139.194,345.6l-11.196,140.8h-51.2
			L65.603,345.6H25.598l25.6-140.8h102.4l25.6,140.8H139.194z M281.598,409.6v76.8h-51.2v-76.8h-25.6l25.6-102.4h51.2l25.6,102.4
			H281.598z M435.198,409.6v76.8h-51.2v-76.8h-51.2l51.2-128l-25.6-76.8h102.4l-25.6,76.8l51.2,128H435.198z"/>
	</g>
</g>
<g>
	<g>
		<path d="M409.598,0c-42.351,0-76.8,34.449-76.8,76.8c0,42.351,34.449,76.8,76.8,76.8s76.8-34.449,76.8-76.8
			C486.398,34.449,451.949,0,409.598,0z M409.598,128c-28.279,0-51.2-22.921-51.2-51.2s22.921-51.2,51.2-51.2
			c28.279,0,51.2,22.921,51.2,51.2S437.878,128,409.598,128z"/>
	</g>
</g>
<g>
	<g>
		<rect x="76.798" y="76.8" width="0.001" height="0.001"/>
	</g>
</g>
<g>
	<g>
		<path d="M102.398,0c-42.342,0-76.8,34.449-76.8,76.8c0,42.351,34.458,76.8,76.8,76.8c42.351,0,76.8-34.449,76.8-76.8
			C179.198,34.449,144.749,0,102.398,0z M102.398,128c-28.279,0-51.2-22.921-51.2-51.2s22.921-51.2,51.2-51.2s51.2,22.921,51.2,51.2
			S130.678,128,102.398,128z"/>
	</g>
</g>
<g>
</g>
<g>
</g>
<g>
</g>
<g>
</g>
<g>
</g>
<g>
</g>
<g>
</g>
<g>
</g>
<g>
</g>
<g>
</g>
<g>
</g>
<g>
</g>
<g>
</g>
<g>
</g>
<g>
</g>
</svg>
