<?xml version="1.0" encoding="iso-8859-1"?>
<!-- Generator: Adobe Illustrator 19.0.0, SVG Export Plug-In . SVG Version: 6.00 Build 0)  -->
<svg version="1.1" id="Layer_1" xmlns="http://www.w3.org/2000/svg" xmlns:xlink="http://www.w3.org/1999/xlink" x="0px" y="0px"
	 viewBox="0 0 503.607 503.607" style="enable-background:new 0 0 503.607 503.607;" xml:space="preserve">
<g transform="translate(1 1)">
	<g>
		<path d="M385.098,115.669L368.311,14.948c-0.839-2.518-1.679-5.036-4.197-5.875c-2.518-1.679-5.036-1.679-7.554-0.839
			l-80.577,29.301V7.393c0-5.036-3.357-8.393-8.393-8.393h-33.574c-5.036,0-8.393,3.357-8.393,8.393v30.445L144.207,8.233
			c-1.679-0.839-4.197-0.839-6.715,0.839c-2.518,1.679-4.197,3.357-4.197,5.875l-16.787,100.721
			c-0.839,3.357,0.839,6.715,3.357,8.393l60.648,43.758c-4.134,9.428-7.863,19.033-11.183,28.781
			c-0.215,0.479-0.388,0.99-0.515,1.53c-3.397,10.122-6.356,20.395-8.848,30.79c-0.955,1.366-1.492,3.095-1.492,5.096
			c0,0.385,0.026,0.757,0.065,1.123c-5.562,25.153-8.458,50.956-8.458,76.936v73.023v14.269v2.518
			c0,52.09,38.889,94.092,88.649,100.003c0.385,0.047,0.771,0.088,1.157,0.131c0.295,0.032,0.59,0.065,0.886,0.095
			c2.754,0.279,5.538,0.45,8.351,0.493c0,0,0.839,0,1.679,0c14.531,0,28.322-2.954,40.847-8.584
			c35.193-15.548,59.874-50.641,59.874-92.137v-89.81c0-49.399-10.641-98.794-30.505-144.201l60.722-43.812
			C384.259,122.384,385.938,119.026,385.098,115.669z M242.41,15.787h16.787v30.198c-0.533,1.057-0.839,2.215-0.839,3.376v46.164
			c0,1.094,0.359,2.188,0.839,3.282v68.062c0,5.036-3.357,8.393-8.393,8.393s-8.393-3.357-8.393-8.393V94.685V49.361V15.787z
			 M134.134,113.151l14.269-85.613l77.22,27.698V91.83c-14.657,18.931-27.368,39.264-37.954,60.636L134.134,113.151z
			 M334.738,401.885c0,1.42-0.037,2.831-0.108,4.234c-1.074,21.035-10.123,40.41-25.072,55.36
			c-15.741,15.741-37.207,24.106-59.553,24.321c-1.022-0.01-2.042-0.031-3.056-0.078c-0.243-0.011-0.486-0.02-0.728-0.033
			c-1.076-0.059-2.144-0.147-3.209-0.246c-0.442-0.043-0.886-0.081-1.327-0.131c-0.705-0.077-1.404-0.175-2.104-0.269
			c-0.956-0.134-1.913-0.267-2.859-0.436c-0.068-0.012-0.135-0.025-0.203-0.036c-39.371-7.119-69.65-43.483-69.65-86.042v-1.679
			c54.557,17.626,113.312,17.626,167.869,0V401.885z M334.738,379.593c-53.977,19.253-113.832,19.356-167.869,0.302v-67.82
			c0-23.46,2.501-46.819,7.325-69.666h26.248c5.036,0,8.393-3.357,8.393-8.393s-3.357-8.393-8.393-8.393H178.19
			c1.489-5.637,3.124-11.233,4.895-16.787h34.145c5.036,0,8.393-3.357,8.393-8.393s-3.357-8.393-8.393-8.393h-28.317
			c2.842-7.554,5.941-15.011,9.301-22.351c0.219-0.362,0.414-0.74,0.55-1.15c0.279-0.623,0.57-1.243,0.854-1.865
			c7.485-15.945,16.17-31.334,26.005-45.978v46.164c0,14.269,10.911,25.18,25.18,25.18c14.269,0,25.18-10.911,25.18-25.18v-44.114
			c9.994,14.966,18.755,30.425,26.02,46.632c0.704,0.704,1.412,1.404,2.177,2.046c19.858,44.012,30.557,92.112,30.557,140.643
			V379.593z M313.876,152.511c-10.574-21.41-23.263-41.78-37.892-60.68V55.236l77.22-27.698l14.269,85.613L313.876,152.511z"/>
	</g>
</g>
<g>
</g>
<g>
</g>
<g>
</g>
<g>
</g>
<g>
</g>
<g>
</g>
<g>
</g>
<g>
</g>
<g>
</g>
<g>
</g>
<g>
</g>
<g>
</g>
<g>
</g>
<g>
</g>
<g>
</g>
</svg>
