<?xml version="1.0" encoding="iso-8859-1"?>
<!-- Generator: Adobe Illustrator 16.0.0, SVG Export Plug-In . SVG Version: 6.00 Build 0)  -->
<!DOCTYPE svg PUBLIC "-//W3C//DTD SVG 1.1//EN" "http://www.w3.org/Graphics/SVG/1.1/DTD/svg11.dtd">
<svg version="1.1" id="Capa_1" xmlns="http://www.w3.org/2000/svg" xmlns:xlink="http://www.w3.org/1999/xlink" x="0px" y="0px"
	 width="923.35px" height="923.35px" viewBox="0 0 923.35 923.35" style="enable-background:new 0 0 923.35 923.35;"
	 xml:space="preserve">
<g>
	<path d="M25.625,407.337c7.1,39.9,18,79.099,31.9,117.2c5.3,14.5,11.1,28.8,17.5,42.8c0.7,1.6,1.4,3.1,2.1,4.6l82.8-82.8
		c-5.5-8.2-11.4-17.6-17.6-28.1c-37.4-63.7-64.3-135.5-71.7-209.3c-2-19.4-2.6-39-1.7-58.5c0.7-15.9,2.4-31.3,4.9-45.9
		c6.9-40.7,20.6-79.8,39.8-116.3c1.9-3.7,3-5.7,3-5.7s-1.4,1.7-4.1,4.9c-27.4,32.8-49.7,69.8-65.6,109.5
		c-5.8,14.7-11.2,30.7-15.6,47.6c-8.9,33.8-14,71.3-14.7,109.1C15.925,333.737,19.225,370.837,25.625,407.337z"/>
	<path d="M106.125,897.937c17,17,39.2,25.4,61.4,25.4c22.2,0,44.5-8.5,61.4-25.4l44.4-44.399c-0.3-0.5-0.6-1-0.9-1.5
		c-19.9-33-30-71.4-28.8-109.9c0.6-18.899,4.1-37.8,10.3-55.7c12.2-35.1,34.9-67.399,65.1-89.3c1.2-0.899,2.3-1.6,3.1-2.2
		c1.7-1.199,2.601-1.899,2.601-1.899s-0.801,0.8-2.2,2.3c-8.101,8.3-15.5,17-22,26.7c-23,34.6-32.9,77.3-27.3,118.8
		c5.6,41.8,28.8,83.1,65.2,105.5c22.5,13.9,48.801,21.2,75.301,21.2c79.5,0,144-64.5,144-144c0-24.2-6-47-16.5-67
		c-4-7.601-8.601-14.8-13.9-21.5c-5.1-6.601-10.8-12.7-17-18.3l215.1-215.1c3.301-3.3,3.9-8.5,1.4-12.399
		c-7.3-11.5-21.4-36.601-26.6-64.3c-11.101,9.1-22.301,17.8-33.5,25.8c-28,20.1-56.2,36.8-82.101,49.4
		c-5.3,2.601-10.399,5-15.399,7.2l351.199-351.4c3.9-3.9,3.9-10.2,0-14.1l-38.899-38.9c-3.9-3.9-10.2-3.9-14.101,0l-351.3,351.3
		c2.2-5,4.601-10.2,7.2-15.4c12.6-25.9,29.2-54.1,49.4-82.1c8.1-11.3,16.699-22.5,25.8-33.5c-27.7-5.2-52.8-19.4-64.3-26.6
		c-1.601-1-3.5-1.5-5.301-1.5c-2.6,0-5.1,1-7.1,2.9L25.425,694.337c-33.9,33.9-33.9,88.9,0,122.9L106.125,897.937z"/>
</g>
<g>
</g>
<g>
</g>
<g>
</g>
<g>
</g>
<g>
</g>
<g>
</g>
<g>
</g>
<g>
</g>
<g>
</g>
<g>
</g>
<g>
</g>
<g>
</g>
<g>
</g>
<g>
</g>
<g>
</g>
</svg>
