<?xml version="1.0" encoding="iso-8859-1"?>
<!-- Generator: Adobe Illustrator 19.0.0, SVG Export Plug-In . SVG Version: 6.00 Build 0)  -->
<svg version="1.1" id="Layer_1" xmlns="http://www.w3.org/2000/svg" xmlns:xlink="http://www.w3.org/1999/xlink" x="0px" y="0px"
	 viewBox="0 0 512.001 512.001" style="enable-background:new 0 0 512.001 512.001;" xml:space="preserve">
<g>
	<g>
		<g>
			<rect x="208.467" y="383.048" width="95.935" height="15.989"/>
			<rect x="232.451" y="407.043" width="47.966" height="15.989"/>
			<rect x="248.44" y="431.016" width="15.988" height="15.989"/>
			<path d="M463.007,416.817c-3.056-23.525-23.207-41.758-47.55-41.758c-26.449,0-47.966,21.517-47.966,47.966v0.022
				c-21.641,0.462-39.107,18.198-39.107,39.949c0,17.632-14.345,31.978-31.977,31.978c-17.633,0-31.978-14.345-31.978-31.978
				h-15.989c0,17.632-14.345,31.978-31.977,31.978c-17.632,0-31.977-14.345-31.977-31.978c0-22.04-17.932-39.971-39.972-39.971
				c0-26.449-21.518-47.966-47.966-47.966c-24.343,0-44.495,18.232-47.55,41.758C20.925,423.572,0,448.874,0,478.986v31.978h15.989
				v-31.978c0-26.448,21.517-47.965,47.966-47.965c26.449,0,47.966,21.517,47.966,47.965h15.989c0-9.105-1.926-17.766-5.371-25.614
				c3.763-8.611,12.321-14.357,21.972-14.357c13.224,0,23.983,10.759,23.983,23.983c0,26.449,21.517,47.966,47.966,47.966
				c16.668,0,31.372-8.55,39.972-21.492c8.6,12.942,23.304,21.492,39.972,21.492c26.449,0,47.966-21.517,47.966-47.966
				c0-13.224,10.759-23.983,23.983-23.983c9.297,0,17.569,5.341,21.528,13.427c-3.708,8.092-5.792,17.077-5.792,26.544h15.989
				c0-26.448,21.517-47.965,47.966-47.965s47.966,21.517,47.966,47.965v31.978h15.989v-31.978
				C512,448.874,491.075,423.572,463.007,416.817z M128.523,426.357h-0.001c-6.011,2.622-11.294,6.687-15.363,11.822
				c-11.419-13.745-28.479-22.631-47.59-23.108c3.545-13.797,16.088-24.025,30.976-24.025c17.633,0,31.978,14.345,31.978,31.978
				V426.357z M399.284,437.668c-4.208-5.132-9.643-9.153-15.806-11.671v-2.971c0-17.632,14.345-31.978,31.978-31.978
				c14.887,0,27.431,10.227,30.976,24.025C427.56,415.544,410.699,424.218,399.284,437.668z"/>
			<rect x="248.44" y="215.173" width="15.989" height="15.989"/>
			<rect x="248.44" y="247.151" width="15.989" height="15.989"/>
			<rect x="248.44" y="279.129" width="15.989" height="15.989"/>
			<rect x="248.44" y="311.108" width="15.989" height="15.989"/>
			<path d="M304.399,125.749L304.399,125.749L256.432,1.036l-47.966,124.711v249.31h95.933V125.749z M256.432,45.575l28.332,73.663
				H228.1L256.432,45.575z M288.409,359.07h-23.984v-15.989h-15.989v15.989h-23.983V135.228h23.983v63.956h15.989v-63.956h23.984
				V359.07z"/>
		</g>
	</g>
</g>
<g>
</g>
<g>
</g>
<g>
</g>
<g>
</g>
<g>
</g>
<g>
</g>
<g>
</g>
<g>
</g>
<g>
</g>
<g>
</g>
<g>
</g>
<g>
</g>
<g>
</g>
<g>
</g>
<g>
</g>
</svg>
