<?xml version="1.0" encoding="iso-8859-1"?>
<!-- Generator: Adobe Illustrator 18.0.0, SVG Export Plug-In . SVG Version: 6.00 Build 0)  -->
<!DOCTYPE svg PUBLIC "-//W3C//DTD SVG 1.1//EN" "http://www.w3.org/Graphics/SVG/1.1/DTD/svg11.dtd">
<svg version="1.1" id="Capa_1" xmlns="http://www.w3.org/2000/svg" xmlns:xlink="http://www.w3.org/1999/xlink" x="0px" y="0px"
	 viewBox="0 0 440.433 440.433" style="enable-background:new 0 0 440.433 440.433;" xml:space="preserve">
<g>
	<path d="M237.521,225.098h-34.603c-2.485,0-4.5,2.015-4.5,4.5c0,2.485,2.015,4.5,4.5,4.5h34.603c2.485,0,4.5-2.015,4.5-4.5
		C242.021,227.112,240.006,225.098,237.521,225.098z"/>
	<path d="M237.521,243.523h-34.603c-2.485,0-4.5,2.015-4.5,4.5c0,2.485,2.015,4.5,4.5,4.5h34.603c2.485,0,4.5-2.015,4.5-4.5
		C242.021,245.538,240.006,243.523,237.521,243.523z"/>
	<path d="M209.299,104.646c1.189,0,2.35-0.479,3.189-1.32c0.83-0.84,1.32-2,1.32-3.18c0-1.189-0.49-2.35-1.32-3.189
		c-0.84-0.83-2-1.311-3.189-1.311c-1.181,0-2.34,0.48-3.181,1.311c-0.83,0.84-1.31,2-1.31,3.189c0,1.18,0.48,2.34,1.31,3.18
		C206.959,104.167,208.119,104.646,209.299,104.646z"/>
	<path d="M231.139,104.646c1.18,0,2.34-0.479,3.18-1.32c0.83-0.84,1.311-2,1.311-3.18c0-1.189-0.48-2.35-1.311-3.189
		c-0.84-0.83-2-1.311-3.18-1.311c-1.19,0-2.351,0.48-3.19,1.311c-0.84,0.84-1.319,2-1.319,3.189c0,1.18,0.479,2.34,1.319,3.18
		C228.789,104.167,229.949,104.646,231.139,104.646z"/>
</g>
<path d="M293.338,229.954c0.099-1.252-0.329-2.487-1.181-3.41c-0.538-0.582-1.222-0.983-1.963-1.217l1.912-69.667
	c0.561-1.687,0.877-3.484,0.877-5.357c0-9.389-7.639-17.026-17.027-17.026c-3.537,0-6.823,1.086-9.549,2.938
	c-0.064-0.025-24.631-8.842-24.631-8.842v-7.053c6.809-5.992,11.116-14.762,11.116-24.522c0-9.772-4.318-18.551-11.141-24.544
	l9.092-49.982c0.148-0.813,0.068-1.65-0.227-2.421C250.321,18.081,243.103,0,220.215,0c-22.885,0-30.104,18.08-30.399,18.851
	s-0.375,1.607-0.228,2.42l9.09,49.984c-6.821,5.993-11.139,14.771-11.139,24.543c0,9.761,4.308,18.53,11.116,24.522v7.053
	c0,0-24.617,8.826-24.641,8.836c-2.723-1.85-6.007-2.933-9.54-2.933c-9.39,0-17.028,7.638-17.028,17.026
	c0,1.873,0.316,3.671,0.877,5.357l1.912,69.668c-0.74,0.232-1.424,0.634-1.961,1.216c-0.852,0.923-1.279,2.158-1.181,3.41
	l2.067,26.026c-0.002,0.05-0.015,7.534-0.015,7.534c0,8.451,6.876,15.327,15.328,15.327c7.155,0,13.163-4.935,14.844-11.576
	c0.409,0.25,0.86,0.442,1.349,0.553c0.145,0.032,1.232,0.272,3.322,0.601l10.8,144.161c-1.921,0.696-3.654,1.813-5.12,3.353
	c-6.313,6.637-5.895,18.853-5.827,20.224c0.119,2.395,2.096,4.275,4.494,4.275h63.76c2.398,0,4.375-1.881,4.494-4.275
	c0.068-1.371,0.486-13.587-5.827-20.224c-1.466-1.541-3.199-2.657-5.12-3.353l10.8-144.161c2.088-0.328,3.176-0.568,3.32-0.601
	c0.488-0.11,0.939-0.303,1.349-0.553c1.681,6.641,7.688,11.576,14.845,11.576c8.452,0,15.329-6.876,15.329-15.327
	c0,0-0.013-7.484-0.015-7.534L293.338,229.954z M170.802,263.515c0,3.489-2.838,6.327-6.327,6.327c-3.489,0-6.328-2.838-6.328-6.327
	v-2.888h12.655V263.515z M171.105,251.627h-13.261l-1.392-17.529h16.044L171.105,251.627z M157.607,165.87
	c2.104,0.932,4.424,1.459,6.868,1.459c2.443,0,4.763-0.527,6.864-1.458l-1.625,59.227h-10.481L157.607,165.87z M164.439,158.563
	c-4.525,0-8.194-3.67-8.194-8.194c0-4.525,3.669-8.194,8.194-8.194c4.525,0,8.194,3.669,8.194,8.194
	C172.633,154.893,168.964,158.563,164.439,158.563z M243.06,137.393l16.686,5.978l-3.089,22.308l-28.262-18.622L243.06,137.393z
	 M233.476,132.93l-13.26,8.737l-13.26-8.737c0.44-0.701,0.699-1.521,0.699-2.389v-4.582c3.869,1.618,8.111,2.515,12.561,2.515
	s8.691-0.896,12.561-2.515v4.582C232.777,131.409,233.036,132.227,233.476,132.93z M220.215,9c13.991,0,19.898,8.972,21.519,12.063
	l-4.699,25.836h-33.637L198.7,21.067C200.337,17.944,206.248,9,220.215,9z M233.563,65.982c-4.078-1.833-8.594-2.861-13.347-2.861
	c-4.754,0-9.27,1.029-13.348,2.862l-1.834-10.084h30.362L233.563,65.982z M233.876,76.477c0,0-4.029,3.865-13.659,3.865
	c-9.63,0-13.557-3.725-13.661-3.865c3.863-2.738,8.575-4.355,13.66-4.355C225.302,72.121,230.013,73.738,233.876,76.477z
	 M196.54,95.798c0-4.715,1.391-9.108,3.775-12.802c0.094,0.099,7.343,6.346,19.901,6.346s19.808-6.247,19.901-6.346
	c2.385,3.693,3.775,8.087,3.775,12.802c0,13.055-10.621,23.676-23.677,23.676C207.161,119.474,196.54,108.853,196.54,95.798z
	 M197.373,137.393l57.916,38.161l-1.438,10.387l-68.073-44.393L197.373,137.393z M246.853,192.122
	c-4.047,0.735-18.391,1.711-18.428,1.711c-0.072,0-16.488,0.01-16.525,0.011c-14.821-0.506-21.863-2.31-24.684-3.305l-5.678-41.011
	L246.853,192.122z M243.207,201.773l-1.049,5.446h-9.232v-4.558C236.882,202.448,240.28,202.139,243.207,201.773z M223.925,202.953
	v4.267h-7.417v-4.267C217.71,202.969,222.723,202.969,223.925,202.953z M207.508,202.662v4.558h-9.233l-1.05-5.446
	C200.153,202.139,203.55,202.448,207.508,202.662z M178.837,220.707l0.671-24.439c0.247,0.33,2.125,2.724,8.223,3.801l1.688,8.765
	C185.537,210.784,181.168,214.524,178.837,220.707z M215.712,431.433H193c0.336-3.239,1.204-7.216,3.198-9.304
	c0.913-0.956,1.957-1.382,3.385-1.382h16.13V431.433z M247.434,431.433H224.72v-10.685h16.13c1.428,0,2.472,0.426,3.385,1.382
	C246.23,424.218,247.098,428.194,247.434,431.433z M236.68,411.747h-11.965V283.241c0-2.485-2.015-4.5-4.5-4.5
	c-2.485,0-4.5,2.015-4.5,4.5v128.506h-11.963l-10.655-142.224c6.4,0.598,15.363,1.123,27.118,1.123
	c11.757,0,20.721-0.525,27.12-1.123L236.68,411.747z M254.271,259.639c-5.227,0.771-16.372,2.008-34.056,2.008
	c-17.685,0-28.832-1.237-34.056-2.007v-29.131c0-10.94,7.091-13.738,8.976-14.289h50.193c1.732,0.492,8.942,3.207,8.942,14.289
	V259.639z M251.012,208.833l1.688-8.766c5.249-0.868,8.156-3.694,8.222-3.782l0.671,24.421
	C259.263,214.524,254.895,210.784,251.012,208.833z M282.286,263.515c0,3.489-2.839,6.327-6.329,6.327
	c-3.489,0-6.328-2.838-6.328-6.327v-2.888h12.657V263.515z M282.588,251.627h-13.26l-1.392-17.529h16.043L282.588,251.627z
	 M269.091,165.871c2.103,0.931,4.422,1.458,6.865,1.458c2.444,0,4.765-0.527,6.867-1.459l-1.626,59.228h-10.481L269.091,165.871z
	 M275.892,158.563c-4.525,0-8.194-3.67-8.194-8.194c0-4.525,3.669-8.194,8.194-8.194c4.525,0,8.194,3.669,8.194,8.194
	C284.086,154.893,280.417,158.563,275.892,158.563z"/>
<g>
</g>
<g>
</g>
<g>
</g>
<g>
</g>
<g>
</g>
<g>
</g>
<g>
</g>
<g>
</g>
<g>
</g>
<g>
</g>
<g>
</g>
<g>
</g>
<g>
</g>
<g>
</g>
<g>
</g>
</svg>
