<?xml version="1.0" encoding="iso-8859-1"?>
<!-- Generator: Adobe Illustrator 19.0.0, SVG Export Plug-In . SVG Version: 6.00 Build 0)  -->
<svg version="1.1" id="Layer_1" xmlns="http://www.w3.org/2000/svg" xmlns:xlink="http://www.w3.org/1999/xlink" x="0px" y="0px"
	 viewBox="0 0 511.765 511.765" style="enable-background:new 0 0 511.765 511.765;" xml:space="preserve">
<g transform="translate(1 1)">
	<path d="M119.419,257.248l-5.973-0.853c-33.28-4.267-64.853-23.04-86.187-51.2s-31.573-63.147-27.307-96.427l0.853-5.973
		l7.68-1.707c49.493-10.24,97.28-31.573,138.24-63.147l23.893-18.773c3.413-2.56,8.533-4.267,12.8-3.413s8.533,2.56,11.093,6.827
		l51.2,65.707c2.56,3.413,4.267,8.533,3.413,12.8s-2.56,8.533-6.827,11.093l-23.893,18.773
		c-40.107,31.573-73.387,71.68-95.573,117.76L119.419,257.248z M15.312,117.301c-1.707,27.307,6.827,55.467,24.747,77.653
		c17.92,23.04,42.667,38.4,69.12,43.52c23.04-46.933,57.173-87.893,98.987-120.32l23.893-18.773l-51.2-66.56l-23.893,18.773
		C116.006,84.021,66.512,106.208,15.312,117.301z"/>
	<path d="M137.339,213.728c-28.16-3.413-52.907-17.92-69.973-40.107s-23.893-49.493-20.48-77.653l17.067,2.56
		c-5.973,48.64,27.307,91.307,75.947,98.133L137.339,213.728z"/>
	<path d="M73.339,173.621c-2.56,0-5.12-0.853-6.827-3.413c-3.413-3.413-2.56-9.387,0.853-11.947l52.907-44.373
		c3.413-3.413,9.387-2.56,11.947,0.853c3.413,3.413,2.56,9.387-0.853,11.947l-52.907,44.373
		C76.752,172.768,75.046,173.621,73.339,173.621z"/>
	<path d="M102.352,201.781c-1.707,0-4.267-0.853-5.973-2.56c-3.413-3.413-3.413-8.533-0.853-11.947l25.6-29.013
		c3.413-3.413,8.533-3.413,11.947-0.853c3.413,3.413,3.413,8.533,0.853,11.947l-25.6,29.013
		C107.472,200.075,104.912,201.781,102.352,201.781z"/>
	<path d="M57.979,143.755c-2.56,0-5.12-0.853-6.827-3.413c-2.56-3.413-1.707-9.387,1.707-11.947l29.867-22.187
		c3.413-2.56,9.387-1.707,11.947,1.707c2.56,3.413,1.707,9.387-1.707,11.947l-29.867,22.187
		C62.246,142.901,60.539,143.755,57.979,143.755z"/>
	<path d="M108.326,83.168L88.699,59.275c-5.12-6.827-6.827-15.36-5.973-23.04c1.707-8.533,5.973-15.36,12.8-19.627l5.12-5.12
		c13.653-9.387,32.427-6.827,42.667,6.827l21.333,26.453l-8.533,5.973c-12.8,10.24-27.307,19.627-42.667,28.16L108.326,83.168z
		 M118.566,23.434c-2.56,0-5.12,0.853-7.68,2.56l-5.973,4.267c-2.56,1.707-5.12,5.12-5.12,8.533c-0.853,3.413,0,6.827,2.56,10.24
		l10.24,12.8c10.24-5.973,19.627-11.947,29.013-18.773l-11.093-13.653C127.099,25.141,122.832,23.434,118.566,23.434z"/>
	<path d="M431.739,482.528c-8.533,0-16.213-2.56-22.187-8.533c-6.827-5.973-11.093-14.507-11.093-23.04
		c0-3.413-2.56-7.68-5.973-8.533c-7.68-1.707-13.653-5.973-18.773-11.947c-5.12-5.973-7.68-12.8-7.68-20.48
		c0-3.413-2.56-6.827-5.973-7.68c-7.68-1.707-13.653-5.973-18.773-11.947c-5.12-5.973-7.68-12.8-7.68-20.48
		c0-4.267-3.413-6.827-6.827-7.68c-7.68-1.707-13.653-5.973-17.92-11.947c-11.093-14.507-7.68-36.693,6.827-47.787l37.547-29.867
		c11.947-9.387,29.013-7.68,38.4,4.267l104.96,129.707c4.267,5.973,6.827,12.8,5.973,20.48c-0.853,7.68-4.267,13.653-10.24,18.773
		l-37.547,29.867C448.806,479.968,440.272,482.528,431.739,482.528z M370.299,282.848c-2.56,0-4.267,0.853-6.827,2.56
		l-37.547,29.867c-7.68,5.973-9.387,17.92-4.267,24.747c2.56,3.413,5.12,5.12,9.387,5.973c11.947,3.413,19.627,12.8,19.627,23.893
		c0,3.413,1.707,7.68,3.413,10.24c2.56,2.56,5.973,5.12,9.387,5.973c11.093,2.56,18.773,12.8,18.773,23.893
		c0,3.413,1.707,7.68,3.413,10.24c2.56,2.56,5.973,5.12,9.387,5.973c11.093,2.56,18.773,11.947,18.773,23.893
		c0,4.267,2.56,8.533,5.973,11.947c5.973,5.12,16.213,5.12,23.04,0l37.547-29.867c2.56-1.707,3.413-4.267,3.413-6.827
		s-0.853-5.12-2.56-7.68L377.979,286.261C376.272,283.701,372.859,282.848,370.299,282.848z"/>
	<path d="M476.112,503.861c-10.24,0-19.627-4.267-26.453-12.8l-18.773-23.04l9.387-4.267c1.707-0.853,2.56-1.707,4.267-2.56
		l41.813-33.28l17.067,21.333c5.973,7.68,8.533,16.213,6.827,25.6c-1.707,9.387-5.973,17.92-13.653,23.04
		C489.766,502.155,482.939,503.861,476.112,503.861z M456.486,473.141l5.973,7.68c5.973,6.827,16.213,8.533,23.04,3.413
		c4.267-2.56,5.973-6.827,6.827-11.947c0.853-4.267-0.853-9.387-3.413-12.8l-5.973-7.68L456.486,473.141z"/>
	<path d="M317.392,325.514l-67.413-75.093l47.787-48.64l71.68,79.36l-42.667,34.987c-0.853,0.853-1.707,1.707-2.56,2.56
		L317.392,325.514z M273.019,250.421l44.373,49.493l26.453-21.333l-46.933-52.907L273.019,250.421z"/>
	<path d="M227.792,223.115l-62.293-66.56l5.973-5.973c11.947-11.947,23.893-23.04,36.693-32.427l8.533-6.827l58.88,63.147
		L227.792,223.115z M189.392,157.408l38.4,41.813l23.893-24.747l-37.547-40.107C206.459,141.195,197.926,148.874,189.392,157.408z"
		/>
	<path d="M89.552,468.875c-8.533,0-16.213-2.56-22.187-8.533l-45.227-39.253c-14.507-12.8-15.36-34.133-3.413-47.787
		c5.973-6.827,14.507-11.093,23.04-11.093c9.387-0.853,17.92,2.56,24.747,8.533l45.227,39.253
		c6.827,5.973,11.093,14.507,11.093,23.04c0.853,9.387-2.56,17.92-8.533,24.747c-5.973,6.827-14.507,11.093-23.04,11.093
		C91.259,468.875,90.406,468.875,89.552,468.875z M45.179,378.421h-0.853c-4.267,0-8.533,2.56-11.947,5.973
		c-5.973,6.827-5.12,17.92,1.707,23.893l45.227,39.253c3.413,3.413,7.68,4.267,11.947,4.267c4.267,0,8.533-2.56,11.947-5.973
		c3.413-3.413,4.267-7.68,4.267-11.947s-2.56-8.533-5.973-11.947l-45.227-39.253C52.859,379.275,49.446,378.421,45.179,378.421z"/>
	<path d="M377.979,194.101c-4.267,0-7.68-1.707-10.24-4.267l0,0l-87.893-87.893c-2.56-2.56-4.267-5.973-4.267-10.24
		c0-4.267,1.707-7.68,4.267-10.24l60.587-60.587c2.56-2.56,5.973-4.267,9.387-4.267l93.867-5.12c4.267,0,8.533,1.707,11.093,4.267
		s4.267,6.827,4.267,10.24l-5.12,93.867c0,3.413-1.707,6.827-4.267,9.387l-60.587,60.587
		C385.659,192.395,382.246,194.101,377.979,194.101z M293.499,91.701l84.48,84.48l58.027-58.027l5.12-89.6l-89.6,5.12
		L293.499,91.701z M436.006,119.008L436.006,119.008L436.006,119.008z M436.859,117.301L436.859,117.301L436.859,117.301z
		 M352.379,32.821L352.379,32.821L352.379,32.821z"/>
	<path d="M104.059,424.501l-51.2-45.227l260.267-267.947l48.64,48.64L104.059,424.501z M77.606,378.421l25.6,22.187l234.667-240.64
		l-23.893-23.893L77.606,378.421z"/>
</g>
<g>
</g>
<g>
</g>
<g>
</g>
<g>
</g>
<g>
</g>
<g>
</g>
<g>
</g>
<g>
</g>
<g>
</g>
<g>
</g>
<g>
</g>
<g>
</g>
<g>
</g>
<g>
</g>
<g>
</g>
</svg>
