<?xml version="1.0" encoding="iso-8859-1"?>
<!-- Generator: Adobe Illustrator 19.0.0, SVG Export Plug-In . SVG Version: 6.00 Build 0)  -->
<svg version="1.1" id="Layer_1" xmlns="http://www.w3.org/2000/svg" xmlns:xlink="http://www.w3.org/1999/xlink" x="0px" y="0px"
	 viewBox="0 0 511.995 511.995" style="enable-background:new 0 0 511.995 511.995;" xml:space="preserve">
<g>
	<g>
		<path d="M425.254,152.405L331.97,90.207c-2.421-1.611-5.712-0.384-6.48,2.421l-39.595,145.191c-0.742,2.72,1.305,5.388,4.11,5.388
			H407.81c2.063,0,3.828-1.475,4.195-3.504l15.083-82.993C427.394,155.04,426.67,153.343,425.254,152.405z"/>
	</g>
</g>
<g>
	<g>
		<path d="M305.352,81.212H121.811c-2.814,0-4.851,2.669-4.11,5.388l41.855,153.47c0.503,1.85,2.191,3.138,4.11,3.138h99.823
			c1.927,0,3.607-1.287,4.118-3.138l41.855-153.47C310.203,83.881,308.157,81.212,305.352,81.212z"/>
	</g>
</g>
<g>
	<g>
		<path d="M141.259,237.819L101.664,92.637c-0.759-2.814-4.05-4.041-6.471-2.43L1.9,152.405c-1.415,0.946-2.132,2.635-1.833,4.306
			l15.083,82.993c0.375,2.029,2.14,3.504,4.195,3.504h117.805C139.963,243.208,142.001,240.539,141.259,237.819z"/>
	</g>
</g>
<g>
	<g>
		<path d="M510.558,323.737c-2.617-3.922-7.904-4.979-11.826-2.362l-22.355,14.904c-0.699,0.469-1.518,0.716-2.362,0.716h-80.086
			c-1.927,0-3.564-1.322-4.075-3.18c-1.407-5.133-3.317-10.044-5.704-14.69c-0.853-1.654-0.588-3.641,0.725-4.954l23.558-23.549
			c0.801-0.801,1.245-1.884,1.245-3.018v-23.08c0-2.353-1.91-4.263-4.263-4.263h-132.12c-0.008,0-0.017,0-0.026,0
			c-0.009,0-0.017,0-0.034,0H153.92c-0.009,0-0.017,0-0.034,0c-0.008,0-0.017,0-0.026,0H21.74c-2.353,0-4.263,1.91-4.263,4.263
			v23.08c0,1.134,0.452,2.217,1.245,3.018l23.549,23.549c1.313,1.313,1.577,3.3,0.725,4.954
			c-13.036,25.331-12.55,58.685,12.226,90.863c0.281,0.367,0.631,0.708,0.998,0.98c61.286,46.032,128.607,4.979,131.668-52.819
			c0.128-2.285,1.918-4.101,4.203-4.101h42.971c2.285,0,4.084,1.825,4.203,4.101c2.14,40.414,35.69,72.634,76.624,72.634
			c40.934,0,74.484-32.22,76.624-72.634c0.128-2.276,1.918-4.101,4.203-4.101h82.456c0.844,0,1.663-0.247,2.362-0.716l26.653-17.768
			C512.118,332.953,513.175,327.659,510.558,323.737z M53.295,340.115c1.484-6.164,3.913-11.954,7.153-17.206
			c1.475-2.396,4.749-2.873,6.736-0.887l16.225,16.225c2.686,2.677,0.784,7.273-3.018,7.273H57.422
			C54.6,345.521,52.639,342.852,53.295,340.115z M60.457,385.184c-3.231-5.261-5.67-11.05-7.153-17.206
			c-0.665-2.737,1.304-5.406,4.118-5.406h22.969c3.794,0,5.704,4.596,3.018,7.281l-16.225,16.217
			C65.198,388.058,61.924,387.58,60.457,385.184z M102.738,407.898c0,2.805-2.669,4.775-5.406,4.118
			c-6.164-1.484-11.954-3.913-17.214-7.153c-2.396-1.475-2.865-4.749-0.887-6.727l16.225-16.225
			c2.686-2.686,7.281-0.784,7.281,3.018V407.898z M102.747,323.182c-0.009,3.786-4.596,5.687-7.281,3.001L79.24,309.967
			c-1.987-1.987-1.509-5.261,0.887-6.727c5.261-3.231,11.05-5.67,17.214-7.153c2.737-0.656,5.406,1.305,5.406,4.127V323.182z
			 M119.799,300.196c-0.009-2.805,2.66-4.775,5.406-4.118c6.164,1.484,11.954,3.914,17.214,7.153
			c2.396,1.475,2.865,4.749,0.887,6.727l-16.225,16.225c-2.686,2.686-7.281,0.784-7.281-3.018V300.196z M142.41,404.854
			c-5.261,3.231-11.05,5.67-17.214,7.153c-2.737,0.665-5.406-1.304-5.406-4.118V384.92c0-3.794,4.596-5.704,7.281-3.018
			l16.225,16.225C145.283,400.113,144.806,403.387,142.41,404.854z M169.233,367.979c-1.484,6.164-3.914,11.954-7.153,17.214
			c-1.466,2.387-4.74,2.865-6.727,0.878l-16.225-16.225c-2.686-2.677-0.784-7.273,3.01-7.273h22.969
			C167.928,362.573,169.889,365.242,169.233,367.979z M165.106,345.521h-22.969c-3.794,0-5.695-4.596-3.01-7.281l16.225-16.225
			c1.987-1.987,5.261-1.509,6.727,0.887c3.231,5.261,5.67,11.05,7.153,17.214C169.889,342.852,167.928,345.521,165.106,345.521z
			 M257.921,340.115c1.484-6.164,3.913-11.954,7.153-17.206c1.475-2.396,4.749-2.873,6.736-0.887l16.225,16.225
			c2.686,2.677,0.784,7.273-3.018,7.273h-22.969C259.226,345.521,257.265,342.852,257.921,340.115z M265.083,385.193
			c-3.231-5.261-5.67-11.05-7.153-17.206c-0.665-2.745,1.304-5.414,4.118-5.414h22.969c3.794,0,5.704,4.596,3.018,7.281
			l-16.225,16.225C269.824,388.066,266.55,387.589,265.083,385.193z M307.364,407.898c0,2.805-2.669,4.775-5.406,4.118
			c-6.164-1.484-11.954-3.913-17.214-7.153c-2.396-1.475-2.865-4.749-0.887-6.727l16.225-16.225
			c2.686-2.686,7.281-0.784,7.281,3.018V407.898z M307.373,323.174c-0.009,3.794-4.596,5.695-7.281,3.01l-16.225-16.225
			c-1.987-1.987-1.509-5.261,0.887-6.727c5.261-3.231,11.05-5.67,17.214-7.153c2.737-0.656,5.406,1.305,5.406,4.127V323.174z
			 M324.425,300.196c-0.009-2.805,2.66-4.775,5.406-4.118c6.164,1.484,11.954,3.914,17.214,7.153
			c2.396,1.475,2.865,4.749,0.887,6.727l-16.225,16.225c-2.686,2.686-7.281,0.784-7.281-3.018V300.196z M347.036,404.854
			c-5.261,3.231-11.05,5.67-17.214,7.153c-2.737,0.665-5.406-1.304-5.406-4.118V384.92c0-3.794,4.596-5.704,7.281-3.018
			l16.225,16.225C349.909,400.113,349.432,403.387,347.036,404.854z M373.859,367.979c-1.484,6.164-3.913,11.954-7.153,17.214
			c-1.466,2.387-4.741,2.865-6.727,0.878l-16.225-16.225c-2.686-2.677-0.784-7.273,3.01-7.273h22.969
			C372.555,362.573,374.516,365.242,373.859,367.979z M369.732,345.521h-22.969c-3.794,0-5.695-4.596-3.01-7.281l16.225-16.225
			c1.987-1.987,5.261-1.509,6.727,0.887c3.231,5.261,5.67,11.05,7.153,17.214C374.516,342.852,372.555,345.521,369.732,345.521z"/>
	</g>
</g>
<g>
</g>
<g>
</g>
<g>
</g>
<g>
</g>
<g>
</g>
<g>
</g>
<g>
</g>
<g>
</g>
<g>
</g>
<g>
</g>
<g>
</g>
<g>
</g>
<g>
</g>
<g>
</g>
<g>
</g>
</svg>
