<?xml version="1.0" encoding="iso-8859-1"?>
<!-- Generator: Adobe Illustrator 19.0.0, SVG Export Plug-In . SVG Version: 6.00 Build 0)  -->
<svg version="1.1" id="Layer_1" xmlns="http://www.w3.org/2000/svg" xmlns:xlink="http://www.w3.org/1999/xlink" x="0px" y="0px"
	 viewBox="0 0 512.001 512.001" style="enable-background:new 0 0 512.001 512.001;" xml:space="preserve">
<g>
	<g>
		<path d="M509.571,205.903l-24.11-24.11v-14.259c0-2.199-0.874-4.309-2.43-5.864l-24.11-24.11v-14.259
			c0-3.355-2.02-6.378-5.12-7.662c-3.096-1.283-6.666-0.574-9.038,1.798l-15.328,15.328c-29.166,0.659-59.002,9.361-87.894,17.811
			c-24.958,7.3-48.531,14.194-67.294,14.194c-27.321,0-52.161-1.699-74.077-3.197c-17.54-1.2-34.106-2.332-48.67-2.332
			c-8.577,0-31.179,3.411-55.331,16.323c-28.932,15.466-49.785,39.26-60.301,68.809c-4.242,11.918-10.825,21.285-17.191,30.344
			c-8.702,12.382-17.7,25.185-18.663,42.757c-0.143,2.615,0.957,5.144,2.968,6.822c1.507,1.256,3.392,1.925,5.315,1.925
			c0.642,0,1.292-0.075,1.93-0.228c0.488-0.116,2.884-0.709,6.62-1.902l-7.876,45.502c-0.302,1.744-0.038,3.54,0.754,5.123
			l8.847,17.693c1.404,2.81,4.276,4.585,7.418,4.585h17.693c4.58,0,8.294-3.713,8.294-8.294c0-4.58-3.713-8.294-8.294-8.294H31.113
			l-3.151-6.3c10.317-14.109,25.454-34.754,29.791-40.535c34.751-14.844,52.039-31.681,59.393-40.638
			c5.241,4.584,10.045,8.141,13.603,10.582L115.6,341.387c-1.335,3.336-0.369,7.151,2.391,9.452l53.08,44.233
			c1.491,1.242,3.369,1.922,5.309,1.922h17.693c4.58,0,8.294-3.713,8.294-8.294c0-4.58-3.713-8.294-8.294-8.294h-14.691
			l-25.648-21.372c0.268-18.786,8.608-29.561,18.261-41.985c5.795-7.457,12.028-15.489,16.289-25.614
			c8.843,1.266,19.565,1.901,30.695,1.901c8.685,0,17.602-0.395,26.064-1.167l-14.784,59.133c-0.165,0.658-0.248,1.334-0.248,2.011
			V388.7c0,4.58,3.713,8.294,8.294,8.294h17.693c4.58,0,8.294-3.713,8.294-8.294c0-4.58-3.713-8.294-8.294-8.294h-9.398v-17.331
			c1.243-2.157,6.038-6.997,9.943-10.937c11.131-11.23,26.092-26.32,32.683-45.432c6.206-2.071,17.23-5.871,30.45-13.426
			c-0.323,0.683-0.654,1.358-0.992,2.008c-1.775,3.399-0.987,7.572,1.903,10.091l91.257,79.529l5.246,8.243
			c1.523,2.393,4.161,3.842,6.998,3.842h17.693c4.58,0,8.294-3.713,8.294-8.294c0-4.58-3.713-8.294-8.294-8.294H428.64
			l-57.478-90.321c0.953-3.344,2.43-8.576,3.844-13.816c1.39-5.154,2.456-9.329,3.167-12.409c0.351-1.519,0.678-2.951,0.903-4.306
			c21.128-4.983,51.83-14.629,76.206-32.078c3.806,1.9,7.994,4.043,12.503,6.404c2.751,1.441,5.756,2.153,8.754,2.153
			c3.666,0,7.322-1.067,10.484-3.176l21.285-14.19c2.068-1.378,3.408-3.611,3.653-6.083
			C512.205,210.112,511.328,207.66,509.571,205.903z M49.332,319.12c-2.23,0.931-2.23,0.931-8.686,9.666
			c-2.814,3.807-6.465,8.773-10.174,13.826l4.421-25.548c18.762-8.599,43.809-24.287,58.935-50.761
			c3.269,5.102,7.08,10.093,11.431,14.934C100.223,287.715,84.691,304.387,49.332,319.12z M380.407,335.51l-44.198-38.518
			c2.177-5.1,4.568-12.091,4.526-18.049c5.454-4.361,11.03-9.363,16.596-15.131c1.062-0.159,2.402-0.373,3.947-0.634
			c-1.684,6.754-4.489,16.958-7.084,25.897c-0.665,2.289-0.312,4.754,0.968,6.764L380.407,335.51z M477.821,219.056
			c-0.714,0.474-1.59,0.524-2.343,0.129c-12.16-6.368-28.143-14.398-35.228-16.481c-4.395-1.291-9.005,1.222-10.298,5.616
			c-1.292,4.395,1.222,9.005,5.617,10.298c0.546,0.16,1.211,0.39,1.987,0.683c-36.527,22.165-84.745,28.403-85.262,28.467
			c-1.93,0.239-3.713,1.148-5.042,2.569c-26.54,28.402-53.761,37.466-64.009,40.878c-1.507,0.502-2.697,0.898-3.681,1.276
			c-2.476,0.952-4.348,3.032-5.034,5.596c-3.575,13.349-13.407,25.315-22.63,35.052l11.694-46.778
			c4.341-5.496,17.348-23.856,18.386-47.693c0.199-4.576-3.35-8.447-7.925-8.646c-4.572-0.177-8.447,3.35-8.646,7.927
			c-0.754,17.343-9.91,31.505-13.846,36.831c-18.774,2.422-42.281,2.6-58.784,0.525c0.478-3.282,0.742-6.755,0.742-10.456
			c0-22.344-18.493-48.03-19.28-49.111c-2.694-3.705-7.88-4.524-11.586-1.829c-3.705,2.694-4.524,7.881-1.829,11.586
			c4.483,6.158,16.11,25.236,16.11,39.353c0,18.814-8.358,29.57-18.035,42.024c-8.191,10.542-17.254,22.219-20.515,39.368
			l-5.143-4.286l15.455-38.639c1.535-3.838,0-8.226-3.586-10.282c-0.49-0.28-48.901-28.539-48.901-72.418
			c0-4.58-3.713-8.294-8.294-8.294c-4.58,0-8.294,3.713-8.294,8.294c0,9.061,1.663,18.083,4.862,26.91
			C71.225,281,38.096,298.201,19.515,305.474c2.896-7.224,7.589-13.902,12.731-21.22c6.678-9.503,14.249-20.274,19.248-34.319
			c21.683-60.92,85.397-74.107,100.005-74.107c13.998,0,29.54,1.063,47.538,2.294c22.182,1.516,47.323,3.236,75.21,3.236
			c21.139,0,45.82-7.219,71.951-14.861c23.088-6.752,46.799-13.674,69.618-16.199c0.108,1.967,0.905,3.905,2.407,5.409
			c1.619,1.619,3.742,2.43,5.864,2.43c2.122,0,4.245-0.809,5.864-2.43l8.846-8.846c0.001-0.001,0.002-0.002,0.003-0.002l3.794-3.794
			c0.009,0.033,0.024,0.063,0.033,0.095c0.103,0.38,0.232,0.754,0.389,1.12c0.028,0.065,0.06,0.128,0.09,0.192
			c0.333,0.721,0.775,1.402,1.327,2.023c0.057,0.064,0.113,0.128,0.172,0.19c0.054,0.057,0.102,0.118,0.158,0.175l24.109,24.11
			v14.259c0,2.199,0.874,4.309,2.43,5.864l19.386,19.386L477.821,219.056z"/>
	</g>
</g>
<g>
</g>
<g>
</g>
<g>
</g>
<g>
</g>
<g>
</g>
<g>
</g>
<g>
</g>
<g>
</g>
<g>
</g>
<g>
</g>
<g>
</g>
<g>
</g>
<g>
</g>
<g>
</g>
<g>
</g>
</svg>
