<?xml version="1.0" encoding="utf-8"?>
<!-- Uploaded to SVGRepo https://www.svgrepo.com -->
<!DOCTYPE svg PUBLIC "-//W3C//DTD SVG 1.1//EN" "http://www.w3.org/Graphics/SVG/1.1/DTD/svg11.dtd">
<svg width="1000px" height="1000px" viewBox="0 0 1000 1000" version="1.1" xmlns="http://www.w3.org/2000/svg" xmlns:xlink="http://www.w3.org/1999/xlink" x="0px" y="0px" enable-background="new 0 0 1000 1000" xml:space="preserve">

<g><g transform="translate(0.000000,511.000000) scale(0.100000,-0.100000)"><path d="M4937.4,5005.8c-8.2-6.2-14.4-184.7-14.4-396.1V4226l-299.6-558.2c-164.2-307.9-293.5-564.4-287.3-572.6c8.2-6.2,303.8-12.3,658.8-12.3c560.3-2.1,644.4,2.1,636.2,28.7c-6.2,16.4-145.7,283.2-309.9,593.1c-244.2,465.9-295.5,576.7-295.5,648.5v86.2l201.1,12.3c108.8,6.2,439.2,22.6,732.7,36.9c293.5,14.4,541.8,30.8,550,39c8.2,8.2-110.8,39-266.8,69.8c-156,32.8-295.5,63.6-309.9,71.8c-14.4,8.2,110.8,45.2,277.1,84.2c353,80,414.6,98.5,326.3,100.6c-32.8,2.1-383.8,26.7-779.9,55.4c-558.2,41-724.5,59.5-736.8,82.1C5003.1,5022.3,4960,5030.5,4937.4,5005.8z"/><path d="M3814.8,2475.3v-392l139.6-172.4l137.5-174.5h884.6H5863l145.7,172.4l145.7,174.4v390v392H5980h-174.5v-174.4v-174.4h-164.2h-164.2v174.4v174.4H5313h-164.2v-174.4v-174.4h-164.2h-164.2v174.4v174.4H4648h-170.4l-12.3-73.9c-6.2-39-6.2-117,0-174.4l12.3-100.6h-158h-156v174.4v174.4h-174.5h-174.4V2475.3z"/><path d="M4093.9,1506.6c-14.4-67.7-320.2-2483.3-320.2-2524.4c0-34.9,71.8-36.9,1210.9-36.9c667,0,1210.9,4.1,1210.9,8.2c0,6.2-73.9,582.9-164.2,1284.8c-90.3,701.9-164.2,1284.8-164.2,1295c0,10.3-348.9,18.5-882.5,18.5h-882.5L4093.9,1506.6z M5072.9,872.4c108.8-55.4,117-86.2,117-453.6V74h-205.2h-205.2v344.8c0,293.5,6.2,348.9,36.9,385.8C4886.1,890.9,4984.6,917.6,5072.9,872.4z"/><path d="M959.9,983.2c-2.1-55.4-2.1-361.2,0-683.4c0-322.2-4.1-609.6-10.3-640.3c-10.3-47.2-22.6-57.5-71.8-57.5h-59.5v-215.5V-829H643.9H469.4v215.5V-398H284.7H100v-287.3v-287.3h82.1h82.1v-1912.8v-1914.8l621.9,4.1c340.7,0,669.1,2,728.6,4.1l106.7,2v1908.7v1908.7h92.4h92.4v287.3V-398h-184.7h-184.7v-215.5V-829h-174.5h-174.4v213.4v215.5l-65.7,6.2l-67.7,6.2V33v420.7l359.2,34.9c197,18.5,381.7,34.9,410.5,36.9c32.8,2.1-16.4,28.7-139.6,75.9c-104.7,41-184.7,78-178.6,84.1c6.2,6.2,92.4,47.2,190.9,88.3c207.3,88.2,240.1,71.8-303.7,145.7l-338.6,47.2l-6.2,57.5c-4.1,39-18.5,55.4-47.2,55.4C968.1,1079.7,962,1063.3,959.9,983.2z M1144.6-1555.5c53.4-53.3,53.4-59.5,59.5-402.2l6.2-348.9H994.8H777.3v340.7v340.7l71.8,71.8c65.7,65.7,82.1,71.8,158,61.6C1060.5-1498.1,1111.8-1522.7,1144.6-1555.5z"/><path d="M8921,347l-6.2-734.7l-65.7-6.2l-67.7-6.2v-215.5V-829H8607h-174.4v215.5V-398h-184.7h-184.7v-287.3v-287.3h82.1h82.1v-1908.7V-4790l88.2-2c47.2,0,379.7-2.1,736.8-4.1l652.6-4.1v1914.8v1912.8h90.3c53.3,0,92.4,10.3,98.5,26.7c4.1,12.3,6.2,139.6,6.2,281.2l-2,256.5l-188.8,6.2l-188.8,6.2v-217.5V-829h-184.7h-184.7v213.4v215.5l-65.7,6.2l-67.7,6.2V33v420.7l385.8,34.9c213.4,18.5,396.1,36.9,406.4,41c12.3,4.1-63.6,39-166.2,75.9c-100.6,39-182.7,73.9-178.6,75.9c4.1,4.1,88.3,43.1,186.8,88.2c211.4,92.4,231.9,82.1-264.8,145.7c-180.6,22.6-340.7,47.2-353,51.3c-14.4,4.1-26.7,32.8-26.7,61.6c0,36.9-10.3,51.3-41,51.3C8927.2,1079.7,8925.1,1063.3,8921,347z M9101.6-1555.5l69.8-69.8V-1966v-340.7h-217.5h-215.5l6.2,346.8c6.2,312,10.3,351,47.2,392C8886.1-1463.2,9005.2-1459.1,9101.6-1555.5z"/><path d="M1988.2-3035.3V-4790l123.1-2c67.7,0,515.1-2.1,995.4-2.1c480.3,0,931.8,2.1,1003.6,2.1l133.4,2l6.2,488.5c6.2,482.3,6.2,486.4,61.6,591.1c100.6,190.9,307.9,334.6,545.9,377.6c312,55.4,658.8-106.7,800.4-377.6c55.4-104.7,55.4-108.8,61.6-591.1l6.2-488.5l102.6-2c131.4-2.1,1802-2.1,1988.7,0l143.7,2v1754.8v1754.8h-174.5h-174.5V-1455v-174.5h-184.7h-184.7v174.5v174.5H7078h-164.2V-1455v-174.5h-164.2h-164.2v174.5v174.5h-190.9h-190.9l8.2-174.5l10.3-174.5h-188.8h-186.8v174.5v174.5h-153.9h-153.9V-1455v-174.5H5354h-184.7v174.5v174.5h-184.7h-184.7V-1455v-174.5h-174.5H4451v174.5v174.5h-164.2h-164.2V-1455v-174.5h-184.7h-184.7v174.5v174.5h-174.4h-174.5V-1455v-174.5h-184.7h-184.7v174.5v174.5h-174.4H2686V-1455v-174.5h-164.2h-164.2v174.5v174.5h-184.7h-184.7V-3035.3z M2969.2-2321.1l6.2-170.3h-166.2h-164.2v160.1c0,88.2,6.2,168.3,14.4,176.5c8.2,8.2,80,10.3,160.1,8.2l143.7-6.2L2969.2-2321.1z M4061-2317v-174.4h-164.2h-164.2v160.1c0,88.2,6.2,168.3,14.4,174.5c6.2,8.2,80,14.4,164.2,14.4H4061V-2317z M5128.3-2317v-174.4h-153.9h-153.9v174.4v174.5h153.9h153.9V-2317z M6205.8-2317v-164.2l-158-6.2l-160.1-6.2v176.5v176.5l160.1-6.2l158-6.2V-2317z M7279.1-2321.1l6.2-170.3h-156h-153.9v160.1c0,88.2,6.2,168.3,14.4,176.5c8.2,8.2,75.9,12.3,149.8,8.2l133.4-6.2L7279.1-2321.1z"/></g></g>
</svg>