<?xml version="1.0" encoding="iso-8859-1"?>
<!-- Generator: Adobe Illustrator 19.0.0, SVG Export Plug-In . SVG Version: 6.00 Build 0)  -->
<svg version="1.1" id="Layer_1" xmlns="http://www.w3.org/2000/svg" xmlns:xlink="http://www.w3.org/1999/xlink" x="0px" y="0px"
	 viewBox="0 0 511.998 511.998" style="enable-background:new 0 0 511.998 511.998;" xml:space="preserve">
<g>
	<g>
		<path d="M382.778,188.627h-68.319l-9.345-78.13h-96.214l-9.345,78.13H30.628c-9.265,0-16.819,7.425-16.982,16.687l-0.72,41.061
			h386.837v-40.763C399.762,196.231,392.158,188.627,382.778,188.627z"/>
	</g>
</g>
<g>
	<g>
		<path d="M308.493,31.024C298.369,11.888,278.641,0,257.006,0c-21.635,0-41.362,11.888-51.486,31.024
			c-4.338,8.203-4.07,17.846,0.721,25.8c2.082,3.457,4.847,6.308,8.07,8.428l-2.703,22.599h90.797l-2.703-22.599
			c3.221-2.121,5.988-4.971,8.07-8.428C312.562,48.872,312.831,39.227,308.493,31.024z"/>
	</g>
</g>
<g>
	<g>
		<path d="M484.764,392.394c-15.369,0-26.822-8.017-33.725-14.742c-6.597-6.427-17.11-6.426-23.706,0
			c-5.946,5.793-15.276,12.53-27.571,14.29v-42.518c13.911-1.131,27.427-6.075,39.423-14.358c13.76,9.5,29.519,14.611,45.578,14.611
			c9.38,0,16.985-7.605,16.985-16.985c0-9.38-7.605-16.985-16.985-16.985c-15.369,0-26.822-8.017-33.725-14.742
			c-6.597-6.427-17.11-6.426-23.706,0c-5.946,5.793-15.276,12.53-27.571,14.29V269.02H12.528l-2.279,129.92
			c-0.05,2.843,0.624,9.891,0.755,10.742c1.429,9.27,8.567,16.68,17.947,16.68c13.313,0,26.417-3.525,38.348-10.14h14.464
			c11.935,6.616,25.04,10.14,38.354,10.14s26.419-3.524,38.354-10.14h14.447c11.933,6.616,25.039,10.14,38.355,10.14
			c13.313,0,26.417-3.525,38.348-10.14h14.464c11.935,6.616,25.04,10.14,38.354,10.14c13.315,0,26.419-3.524,38.35-10.14h14.462
			c11.935,6.616,25.04,10.14,38.355,10.14c16.06,0,31.819-5.111,45.578-14.611c13.76,9.5,29.519,14.611,45.578,14.611
			c9.38,0,16.985-7.605,16.985-16.985C501.747,399.997,494.144,392.394,484.764,392.394z"/>
	</g>
</g>
<g>
	<g>
		<path d="M484.764,478.031c-15.369,0-26.822-8.017-33.725-14.742c-6.597-6.427-17.11-6.426-23.706,0
			c-6.903,6.724-18.355,14.74-33.725,14.74c-15.375,0-26.83-8.02-33.734-14.75c-6.597-6.429-17.116-6.43-23.713,0.003
			c-6.898,6.727-18.348,14.746-33.719,14.746c-15.375,0-26.83-8.02-33.734-14.75c-6.598-6.429-17.117-6.429-23.713,0.002
			c-6.899,6.727-18.349,14.746-33.719,14.746s-26.822-8.017-33.725-14.74c-6.595-6.427-17.11-6.427-23.706,0
			c-6.903,6.725-18.356,14.742-33.725,14.742c-15.375,0-26.83-8.02-33.734-14.75c-6.598-6.429-17.117-6.429-23.713,0.002
			c-6.899,6.727-18.349,14.746-33.719,14.746c-9.38,0-16.985,7.605-16.985,16.985c0,9.38,7.605,16.985,16.985,16.985
			c16.061,0,31.823-5.115,45.58-14.617c13.761,9.504,29.525,14.617,45.587,14.617c16.057,0,31.818-5.111,45.578-14.611
			c13.759,9.5,29.518,14.611,45.578,14.611c16.061,0,31.823-5.115,45.58-14.617c13.761,9.504,29.525,14.617,45.587,14.617
			s31.823-5.114,45.58-14.617c13.761,9.504,29.525,14.617,45.587,14.617c16.06,0,31.819-5.111,45.578-14.611
			c13.76,9.5,29.519,14.611,45.578,14.611c9.38,0,16.985-7.605,16.985-16.985C501.752,485.633,494.144,478.031,484.764,478.031z"/>
	</g>
</g>
<g>
</g>
<g>
</g>
<g>
</g>
<g>
</g>
<g>
</g>
<g>
</g>
<g>
</g>
<g>
</g>
<g>
</g>
<g>
</g>
<g>
</g>
<g>
</g>
<g>
</g>
<g>
</g>
<g>
</g>
</svg>
