<?xml version="1.0" encoding="iso-8859-1"?>
<!-- Generator: Adobe Illustrator 18.1.1, SVG Export Plug-In . SVG Version: 6.00 Build 0)  -->
<svg version="1.1" id="Capa_1" xmlns="http://www.w3.org/2000/svg" xmlns:xlink="http://www.w3.org/1999/xlink" x="0px" y="0px"
	 viewBox="0 0 43.06 43.06" style="enable-background:new 0 0 43.06 43.06;" xml:space="preserve">
<g>
	<path style="fill:#010002;" d="M39.735,21.425L22.876,0.837c-0.92-1.126-2.4-1.113-3.302,0.024L3.308,21.401
		c-0.904,1.139-0.456,2.062,0.998,2.062h3.472v14.78c0,2.66,2.158,4.817,4.817,4.817H30.46c2.661,0,4.818-2.157,4.818-4.817v-14.78
		h3.488C40.223,23.463,40.655,22.553,39.735,21.425z M26.046,31.767c0,1.334-1.079,2.411-2.409,2.411h-6.624v-6.625
		c0-1.329,1.078-2.408,2.409-2.408h6.624V31.767z"/>
</g>
<g>
</g>
<g>
</g>
<g>
</g>
<g>
</g>
<g>
</g>
<g>
</g>
<g>
</g>
<g>
</g>
<g>
</g>
<g>
</g>
<g>
</g>
<g>
</g>
<g>
</g>
<g>
</g>
<g>
</g>
</svg>
