<?xml version="1.0" encoding="iso-8859-1"?>
<!-- Uploaded to: SVG Repo, www.svgrepo.com, Generator: SVG Repo Mixer Tools -->
<!DOCTYPE svg PUBLIC "-//W3C//DTD SVG 1.1//EN" "http://www.w3.org/Graphics/SVG/1.1/DTD/svg11.dtd">
<svg fill="#000000" version="1.1" id="Capa_1" xmlns="http://www.w3.org/2000/svg" xmlns:xlink="http://www.w3.org/1999/xlink" 
	 width="800px" height="800px" viewBox="0 0 791.992 791.992"
	 xml:space="preserve">
<g>
	<g>
		<path d="M655.291,420.779c7.184-5.451,13.711-11.887,19.383-19.201c16.969-21.886,24.389-49.066,20.918-76.542
			c-5.953-47.006-43.025-83.488-88.832-89.71c-20.229-20.252-46.589-35.341-79.195-45.43c4.474-22.001,10.59-39.708,15.712-52.128
			c17.019,13.504,44.766,30.243,81.78,39.1c7.758,1.855,15.072,1.946,21.746,1.946h0.01c20.572,0,32.574-7.988,39.025-15.4
			c16.074-18.471,12.947-44.264,12.535-47.195l-1.846-13.438l-13.66-1.781c-0.484-0.074-48.73-7.438-78.775-45.471
			c-20.016-25.333-50.767-55.494-83.653-55.494c-8.751,0-14.366,2.266-16.377,3.234l-6.379,3.087l-67.349,168.223
			c-10.935-0.525-22.427-0.796-34.33-0.796s-23.396,0.271-34.331,0.796L294.316,6.387l-6.346-3.079
			C285.926,2.307,280.212,0,271.306,0c-33.067,0-63.646,30.268-83.471,55.667c-30.67,39.281-76.461,45.167-78.021,45.356
			l-14.202,1.297l-1.995,14.333c-0.411,2.931-3.53,29.151,12.544,47.613c6.452,7.413,18.462,16.254,39.035,16.254
			c6.674,0,13.988-0.944,21.746-2.799c37.015-8.85,64.754-26.442,81.78-39.946c5.123,12.42,11.23,30.136,15.712,52.128
			c-32.599,10.081-58.95,25.161-79.178,45.405c-45.865,6.166-83.012,42.68-88.972,89.727c-3.48,27.468,3.949,54.657,20.917,76.542
			c5.714,7.363,12.273,13.833,19.521,19.309c2.717,26.195,8.045,52.703,15.828,78.25c6.148,20.17,13.857,39.822,22.846,58.425
			c-12.142,14.169-23.963,31.121-35.423,50.855c-22.551,38.83-35.299,74.138-35.833,75.624l-3.186,8.891l5.427,7.732
			c38.23,54.525,81.665,84.957,129.082,90.449c5.221,0.607,10.319,0.879,15.277,0.879c54.172,0,91.927-33.092,93.642-34.627
			l32.131-28.683l-42.958-3.128c-34.093-2.487-54.854-22.091-64.943-34.963l9.991-9.071c35.743,23.708,75.624,36.202,117.392,36.202
			c41.777,0,81.649-12.502,117.391-36.202l9.991,9.071c-10.073,12.831-30.858,32.476-64.943,34.963l-42.959,3.128l32.131,28.683
			c1.716,1.535,39.47,34.627,93.643,34.627c4.958,0,10.064-0.279,15.277-0.879c47.425-5.492,90.853-35.924,129.083-90.449
			l5.426-7.732l-3.186-8.891c-0.533-1.486-13.283-36.794-35.834-75.624c-11.459-19.734-23.281-36.687-35.422-50.855
			c8.988-18.594,16.705-38.247,22.846-58.425C647.238,473.557,652.574,447.008,655.291,420.779z M171.605,401.356
			c-9.95-4.449-18.709-12.297-25.572-21.155c-4.737-6.107-8.316-13.348-10.688-20.474c-3.136-9.416-4.154-19.735-2.865-29.873
			c1.716-13.545,7.421-25.859,15.828-35.587c12.388-14.325,30.645-23.347,50.708-23.347c1.092,0,2.2,0,3.3,0.057
			c1.749,0.083,3.505,0.214,5.246,0.436c0.764,0.099,3.817,3.119,6.362,11.542c3.325,11.025,4.548,26.672,3.456,44.059
			c-1.346,21.418-5.993,44.675-12.741,60.362c-6.863,15.951-12.938,21.278-13.849,21.278c-0.016,0-0.049,0-0.098,0
			C184,400.462,177.589,404.033,171.605,401.356z M620.181,626.256c14.555,24.973,24.891,48.869,29.896,61.273
			c-30.291,40.529-62.997,63.153-97.312,67.283c-17.067,2.052-32.591-0.812-45.381-5.222c38.354-18.84,55.199-52.128,56.118-53.991
			l6.075-12.331l-26.959-24.472l-27.156-24.652l-3.637-3.308c11.305-29.603,7.191-54.937,1.149-71.798
			c-3.817-10.655-8.775-19.111-12.848-24.965c-3.751-5.401-6.739-8.586-7.355-9.227l-13.135,12.667l-13.135,12.667
			c0.304,0.319,30.325,32.229,7.077,76.83l-6.511,12.485l18.307,16.616c-27.854,16.673-57.916,25.136-89.389,25.136
			c-31.482,0-61.544-8.455-89.398-25.136l18.307-16.616l-6.502-12.485c-22.896-43.928,5.936-75.607,7.175-76.938l-0.098,0.107
			l-13.135-12.667l-13.135-12.667c-0.624,0.641-3.612,3.834-7.355,9.227c-4.063,5.854-9.022,14.31-12.848,24.965
			c-6.042,16.861-10.155,42.195,1.149,71.798l-3.637,3.308l-27.156,24.652l-26.959,24.472l6.075,12.331
			c0.919,1.863,17.765,35.151,56.118,53.991c-12.79,4.417-28.322,7.273-45.38,5.222c-34.314-4.13-67.02-26.754-97.312-67.283
			c5.008-12.404,15.352-36.301,29.898-61.273c7.413-12.725,14.958-24.118,22.567-34.117c8.497-11.165,17.075-20.589,25.637-28.183
			c11.05-9.785,22.066-16.524,32.861-19.997l-5.59-17.371l-5.574-17.37c-13.118,4.219-26.007,11.353-38.608,21.319
			c-5.993-13.554-11.255-27.641-15.638-42.04c-4.934-16.18-8.776-32.771-11.501-49.378c3.333,0.755,6.715,1.354,10.155,1.789
			c1.552,0.197,3.128,0.296,4.679,0.296c24.447,0,39.257-22.502,47.375-41.374c8.341-19.382,14.038-45.085,15.639-70.509
			c2.586-40.931-5.32-70.854-21.631-85.105c15.844-10.204,34.914-17.929,57.423-23.413l16.197-3.949l-2.471-16.484
			c-9.367-62.521-32.287-100.521-33.256-102.114l-13.003-21.253L240.718,95.81c-0.296,0.337-29.923,33.888-82.273,46.415
			c-4.983,1.19-9.44,1.798-13.258,1.798c-8.217,0-10.647-2.75-11.452-3.653c-1.461-1.65-2.446-3.948-3.087-6.428
			c21.246-5.599,57.982-19.998,85.951-55.823c24.833-31.811,42.335-39.461,50.643-41.169l70.369,175.767l13.291-0.944
			c13.922-0.993,29.085-1.494,45.085-1.494c16,0,31.162,0.501,45.084,1.494l13.29,0.944l70.329-175.668
			c8.381,1.797,25.817,9.588,50.749,41.145c27.304,34.561,64.755,49.411,85.983,55.387c-0.623,2.553-1.617,4.983-3.127,6.715
			c-0.797,0.919-3.227,3.71-11.502,3.71h-0.008c-3.816,0-8.283-0.607-13.266-1.798c-51.793-12.388-82.019-46.119-82.273-46.415
			l-16.337-18.808L521.908,98.24c-0.969,1.584-23.889,39.584-33.256,102.114l-2.471,16.484l16.197,3.949
			c22.477,5.476,41.53,13.192,57.357,23.372c-16.345,14.235-24.267,44.166-21.688,85.122c1.601,25.432,7.298,51.135,15.639,70.525
			c14.711,34.208,33.879,41.391,47.375,41.391h0.008c1.552,0,3.128-0.098,4.681-0.295c3.48-0.443,6.912-1.051,10.285-1.822
			c-2.725,16.615-6.566,33.223-11.51,49.411c-4.392,14.407-9.646,28.494-15.638,42.039c-12.602-9.966-25.49-17.1-38.608-21.319
			l-5.591,17.371l-5.59,17.37c10.795,3.473,21.819,10.213,32.869,19.998c8.562,7.594,17.141,17.018,25.638,28.182
			C605.224,602.138,612.767,613.531,620.181,626.256z M601.176,408.671c-0.058,0-0.082,0-0.091,0
			c-0.911,0-6.994-5.336-13.857-21.295c-6.748-15.696-11.395-37.967-12.74-59.385c-1.092-17.379,0.131-33.518,3.456-44.535
			c2.536-8.415,5.591-11.69,6.354-11.789c1.781-0.222,3.571-0.493,5.369-0.583c1.067-0.049,2.126-0.148,3.186-0.148
			c20.187,0,38.542,9.039,50.931,23.511c8.291,9.687,13.906,21.763,15.605,35.185c1.271,10.023,0.295,19.989-2.758,29.315
			c-2.373,7.232-5.994,14.079-10.797,20.269c-6.838,8.816-15.547,17.633-25.447,22.083
			C614.361,404.008,607.908,400.462,601.176,408.671z"/>
		<path d="M443.542,458.895l-26.606,26.606c-7.281,7.281-7.281,19.095,0,26.376c3.646,3.646,8.415,5.459,13.192,5.459
			c4.778,0,9.548-1.822,13.192-5.459l26.614-26.614c7.281-7.281,7.281-19.095,0-26.376
			C462.637,451.613,450.833,451.613,443.542,458.895z"/>
		<path d="M347.635,458.895c-7.281-7.281-19.095-7.281-26.376,0c-7.282,7.282-7.282,19.095,0,26.377l26.606,26.614
			c3.645,3.645,8.415,5.459,13.192,5.459c4.778,0,9.547-1.822,13.192-5.459c7.282-7.282,7.282-19.095,0-26.377L347.635,458.895z"/>
		<rect x="366.089" y="351.207" width="57.464" height="57.464"/>
	</g>
</g>
</svg>