<?xml version="1.0" encoding="iso-8859-1"?>
<!-- Uploaded to: SVG Repo, www.svgrepo.com, Generator: SVG Repo Mixer Tools -->
<svg fill="#000000" height="800px" width="800px" version="1.1" id="Layer_1" xmlns="http://www.w3.org/2000/svg" xmlns:xlink="http://www.w3.org/1999/xlink" 
	 viewBox="0 0 512.002 512.002" xml:space="preserve">
<g>
	<g>
		<g>
			<path d="M441.125,188.107c8.198-21.033,28.657-35.984,52.555-35.984c4.788,0,8.668-3.88,8.668-8.668
				c0-4.788-3.88-8.668-8.668-8.668c-33.468,0-61.78,22.423-70.75,53.031h-44.267l-214.659-0.199l-55.671-55.671
				c-4.831-4.83-11.252-7.488-18.082-7.488c-6.828,0-13.249,2.658-18.081,7.488c-2.681,2.684-4.688,5.855-5.966,9.437
				c-0.047,0.117-0.092,0.233-0.135,0.352c-3.383,9.397-5.581,30.144-5.795,45.787l-39.016-0.036h-0.008
				c-2.392,0-4.68,0.988-6.318,2.733c-1.641,1.746-2.485,4.093-2.335,6.483c1.666,26.251,17.357,49.657,40.591,61.38L42.66,336.65
				H25.446C11.415,336.649,0,348.063,0,362.094s11.415,25.446,25.446,25.446h39.366c0.046,0.001,0.098-0.006,0.139,0.001
				c12.651,0,23.48-9.479,25.193-22.067l10.875-81.136c13.728,16.507,28.883,32.353,39.01,40.486
				c0.363,0.299,0.736,0.589,1.11,0.877l0.401,0.312c0.113,0.09,0.227,0.179,0.341,0.265c13.672,10.604,30.04,16.208,47.346,16.208
				h4.904c-5.645,4.671-9.247,11.727-9.247,19.609c0,14.031,11.415,25.446,25.446,25.446h39.305
				c0.065,0.001,0.128,0.002,0.191,0.002c12.071,0,22.558-8.599,24.933-20.448l1.366-6.815c-0.043,0.601-0.073,1.204-0.073,1.816
				c0,14.031,11.416,25.446,25.448,25.446h39.305c0.065,0.001,0.128,0.002,0.191,0.002c12.07,0,22.555-8.599,24.93-20.448
				l4.931-24.608h63.815c42.643,0,77.334-34.692,77.334-77.333C512,224.686,480.754,191.403,441.125,188.107z M28.321,370.203
				h-2.876c-4.471,0-8.109-3.638-8.109-8.109c0-4.471,3.637-8.109,8.109-8.109h2.876V370.203z M379.023,205.151v0.002l4.886,0.005
				c-1.405,8.464-4.875,16.389-10.148,23.193c-1.797-0.825-3.68-1.453-5.622-1.844c-0.03-0.006-0.061-0.012-0.09-0.017
				c-13.727-2.687-27.107,6.25-29.857,19.969l-0.384,1.916c-1.767,0.179-3.549,0.269-5.334,0.269h-33.853l-3.46-7.662
				c-2.365-5.237-6.479-9.56-11.594-12.177c-2.086-1.066-4.306-1.839-6.596-2.299c-0.03-0.006-0.06-0.012-0.089-0.017
				c-13.737-2.691-27.111,6.249-29.859,19.969l-0.438,2.187h-21.553l-43.492-43.493H379.023z M243.111,265.984l-0.833,4.157
				c-0.64-1.419-1.35-2.806-2.134-4.157H243.111z M31.265,204.832l29.059,0.027l-4.647,34.677
				C43.419,231.57,34.602,219.095,31.265,204.832z M72.961,363.154c-0.525,3.864-4.076,7.011-7.941,7.05
				c-0.036-0.001-0.073-0.001-0.109-0.001H45.658v-16.217h4.59c4.342,0,8.014-3.213,8.592-7.517l15.691-117.097l14.428,14.428
				L72.961,363.154z M152.45,312.536l-0.102-0.077c-0.036-0.029-0.109-0.086-0.126-0.099l-0.485-0.378
				c-0.23-0.177-0.461-0.355-0.769-0.607c-10.697-8.592-28.236-27.412-42.528-45.39h2.703l54.247,54.247
				C160.823,318.244,156.486,315.672,152.45,312.536z M213.202,370.203h-2.876c-4.471,0-8.109-3.638-8.109-8.109
				c0-4.471,3.637-8.109,8.109-8.109h2.876V370.203z M220.501,309.736c-5.487,5.487-12.782,8.508-20.542,8.508
				c-7.762,0-15.059-3.022-20.546-8.511l-93.058-93.057c-4.765-4.764-7.741-11.076-8.392-17.888
				c-1.349-12.397,1.126-41.433,4.29-50.812c0.076-0.187,0.149-0.378,0.214-0.572c0.409-1.229,1.071-2.306,1.964-3.2
				c1.556-1.555,3.622-2.41,5.822-2.41c2.198,0,4.266,0.856,5.822,2.412l124.431,124.431c5.489,5.489,8.511,12.786,8.511,20.548
				C229.016,296.948,225.992,304.246,220.501,309.736z M231.68,323.024l-0.425,2.124h-1.98
				C230.099,324.473,230.896,323.759,231.68,323.024z M277.381,353.984l2.303-11.499h5.611
				C281.682,345.476,278.91,349.448,277.381,353.984z M276.868,268.295l-7.182,35.847c-0.014,0.064-0.025,0.125-0.037,0.188
				l-11.892,59.355c-0.75,3.741-4.03,6.468-7.825,6.519c-0.052-0.001-0.104-0.001-0.155-0.001h-19.238v-16.217h5.514
				c4.131,0,7.687-2.915,8.5-6.965l19.468-97.156c0.878-4.38,5.163-7.237,9.551-6.356c0.009,0.001,0.017,0.003,0.025,0.005
				c0.722,0.149,1.422,0.396,2.077,0.73c1.148,0.587,2.721,1.737,3.686,3.878l5.965,13.207
				C281.293,261.343,277.691,264.186,276.868,268.295z M304.372,370.203h-2.876c-4.472,0-8.111-3.638-8.111-8.109
				c0-4.471,3.638-8.109,8.111-8.109h2.876V370.203z M301.878,317.658c-1.066,0.481-2.187,0.725-3.332,0.725
				c-3.185,0-6.091-1.875-7.399-4.773l-3.931-8.705l5.467-27.29l13.243,29.318C307.764,311.006,305.947,315.819,301.878,317.658z
				 M321.725,299.795l-15.273-33.811h26.019c0.604,0,1.21-0.03,1.815-0.045l-11.863,59.211h-3.264
				C324.298,318,325.6,308.379,321.725,299.795z M368.035,268.295l-7.182,35.847c-0.014,0.064-0.025,0.125-0.037,0.188
				l-11.892,59.355c-0.75,3.741-4.03,6.468-7.825,6.519c-0.053-0.001-0.105-0.001-0.156-0.001h-19.235v-16.217h5.514
				c4.131,0,7.687-2.915,8.5-6.965l19.466-97.153c0.88-4.38,5.153-7.239,9.551-6.358c0.009,0.001,0.018,0.003,0.025,0.005
				c0.724,0.15,1.423,0.395,2.077,0.73c1.149,0.588,2.721,1.738,3.688,3.876l5.965,13.208
				C372.462,261.342,368.858,264.186,368.035,268.295z M397.289,313.135c-0.765,2.026-2.275,3.633-4.245,4.523
				c-1.066,0.481-2.187,0.725-3.332,0.725c-3.184,0-6.089-1.874-7.398-4.776l-3.932-8.704l5.467-27.292l13.244,29.322
				C397.985,308.907,398.054,311.109,397.289,313.135z M434.666,325.148h-24.337c5.139-7.15,6.44-16.771,2.564-25.353
				l-26.563-58.816c-0.054-0.12-0.122-0.236-0.179-0.356c8.404-10.182,13.643-22.401,15.254-35.472h18.632
				c-0.051,1.116-0.086,2.236-0.086,3.363c0,4.788,3.88,8.668,8.668,8.668c4.787,0,8.668-3.88,8.668-8.668
				c0-1.106,0.04-2.203,0.104-3.295c31.821,1.431,57.273,27.762,57.273,59.93C494.663,298.235,467.748,325.148,434.666,325.148z"/>
			<circle cx="466.801" cy="233.856" r="6.991"/>
		</g>
	</g>
</g>
</svg>