<?xml version="1.0" encoding="iso-8859-1"?>
<!-- Uploaded to: SVG Repo, www.svgrepo.com, Generator: SVG Repo Mixer Tools -->
<svg fill="#000000" height="800px" width="800px" version="1.1" id="Layer_1" xmlns="http://www.w3.org/2000/svg" xmlns:xlink="http://www.w3.org/1999/xlink" 
	 viewBox="0 0 511.999 511.999" xml:space="preserve">
<g>
	<g>
		<path d="M510.897,356.109l-26.76-208.584c-1.444-11.253-5.349-20.543-10.809-27.99V46.818
			c8.649-3.128,14.848-11.421,14.848-21.137c0-12.389-10.079-22.468-22.468-22.468S443.24,13.292,443.24,25.681
			c0,9.715,6.199,18.009,14.848,21.137v58.608c-9.261-5.793-19.901-8.781-30.169-9.142c-11.743-0.402-24.208,2.575-34.805,9.395
			V46.818c8.649-3.128,14.848-11.421,14.848-21.137c0-12.389-10.079-22.468-22.468-22.468s-22.469,10.079-22.469,22.468
			c0,9.715,6.2,18.009,14.849,21.137v73.536c-4.428,6.348-7.803,14.014-9.625,23.11l-25.942,129.543
			c-20.232-73.824-87.909-128.236-168.067-128.236C78.165,144.772,0,222.937,0,319.015c0,47.562,19.163,90.726,50.163,122.2
			L4.938,493.131c-1.955,2.244-2.424,5.42-1.203,8.132c1.221,2.714,3.91,4.467,6.884,4.492l364.812,3.026
			c0.378,0.003,0.75,0.004,1.127,0.004c38.716-0.001,75.588-16.562,101.309-45.55C503.837,433.966,515.877,394.919,510.897,356.109z
			 M465.709,18.452c3.986,0,7.229,3.243,7.229,7.229c0,3.987-3.243,7.23-7.229,7.23c-3.986,0-7.229-3.243-7.229-7.23
			C458.48,21.695,461.723,18.452,465.709,18.452z M385.496,18.452c3.986,0,7.229,3.243,7.229,7.229c0,3.987-3.243,7.23-7.229,7.23
			c-3.987,0-7.23-3.243-7.23-7.23C378.266,21.695,381.509,18.452,385.496,18.452z M27.307,490.654l34.018-39.051
			c24.819,21.168,55.626,35.504,89.493,40.075L27.307,490.654z M15.239,319.015c0-87.676,71.33-159.004,159.005-159.004
			c87.286,0,158.369,70.703,159.001,157.842c-0.651,2.018-2.264,6.844-4.855,13.597c0-0.056,0.001-0.111,0.001-0.167
			c-0.197-33.908-13.144-64.251-37.44-87.748c-24.422-23.619-56.609-36.321-90.549-35.745c-33.97,0.569-65.683,14.331-89.302,38.753
			c-23.618,24.422-36.312,56.579-35.744,90.549c0.558,33.344,13.837,64.51,37.423,87.984c0.102,0.111,0.199,0.225,0.309,0.331
			c0.113,0.11,0.232,0.209,0.345,0.318c0.227,0.222,0.447,0.448,0.676,0.669c0.217,0.211,0.447,0.401,0.683,0.58
			c15.598,14.261,35.36,21.38,55.114,21.379c21.396,0,42.767-8.322,58.779-24.881c31.337-32.403,30.468-84.259-1.934-115.597
			c-3.026-2.927-7.849-2.844-10.774,0.181c-2.925,3.025-2.845,7.849,0.181,10.774c26.363,25.495,27.07,67.686,1.574,94.048
			c-13.029,13.473-30.413,20.245-47.822,20.244c-16.509-0.002-33.038-6.104-45.88-18.351
			c-21.071-20.717-32.941-48.352-33.435-77.934c-0.501-29.899,10.673-58.204,31.462-79.7
			c42.913-44.375,113.927-45.563,158.302-2.647c40.339,39.01,43.844,99.513,9.879,150.282c-1.765,2.555-3.539,5.059-5.333,7.482
			c-0.405,0.534-0.808,1.07-1.221,1.601c-0.048,0.062-0.087,0.127-0.133,0.19c-32.013,42.46-68.714,63.976-109.303,63.976
			C86.568,478.02,15.239,406.69,15.239,319.015z M466.468,453.121c-23.049,25.975-56.213,40.697-90.909,40.421l-183.834-1.524
			c21.76-3.059,42.564-11.849,62.038-26.294c14.786-10.968,28.811-25.193,41.858-42.412c0.028-0.035,0.059-0.065,0.087-0.101
			c2.228-2.864,4.343-5.789,6.357-8.762c1.813-2.598,3.61-5.244,5.381-7.961c27.431-42.081,40.184-83.516,40.713-85.259
			c0.007-0.023,0.009-0.049,0.016-0.072c0.062-0.211,0.119-0.426,0.164-0.646l34.856-174.055
			c5.015-25.034,25.783-35.578,44.193-34.943c18.384,0.645,38.387,12.63,41.635,37.95l26.76,208.584
			C500.201,392.491,489.517,427.146,466.468,453.121z"/>
	</g>
</g>
<g>
	<g>
		<path d="M463.401,394.169c-4.166-0.647-8.054,2.199-8.701,6.357c-2.036,13.075-16.042,29.072-21.262,34.128
			c-3.027,2.922-3.114,7.745-0.191,10.773c1.495,1.549,3.488,2.328,5.483,2.328c1.905,0,3.812-0.709,5.29-2.138
			c0.916-0.885,22.493-21.91,25.738-42.747C470.405,398.713,467.559,394.817,463.401,394.169z"/>
	</g>
</g>
<g>
	<g>
		<path d="M451.975,265.914c-0.618-4.162-4.492-7.036-8.654-6.417c-4.162,0.616-7.037,4.49-6.421,8.653
			c1.257,8.5,3.747,33.273,0.211,45.649c-1.119,3.911-2.544,7.739-3.922,11.441c-4.515,12.121-9.184,24.654-4.165,41.445
			c0.987,3.305,4.016,5.439,7.297,5.439c0.721-0.001,1.457-0.104,2.184-0.322c4.032-1.205,6.324-5.449,5.118-9.481
			c-3.556-11.896-0.289-20.664,3.844-31.762c1.482-3.977,3.014-8.09,4.296-12.574C456.93,299.906,452.179,267.294,451.975,265.914z"
			/>
	</g>
</g>
<g>
	<g>
		<path d="M400.118,336.674c-3.956-1.436-8.325,0.598-9.766,4.553c-0.418,1.147-10.184,28.344-6.564,50.461
			c3.159,19.303-3.825,35.084-18.685,42.215c-3.793,1.82-5.394,6.371-3.574,10.165c1.31,2.731,4.035,4.326,6.875,4.326
			c1.105,0,2.228-0.242,3.291-0.752c20.985-10.069,31.381-32.451,27.131-58.416c-2.956-18.058,5.672-42.303,5.846-42.786
			C406.111,342.487,404.072,338.114,400.118,336.674z"/>
	</g>
</g>
<g>
	<g>
		<path d="M340.108,392.612c-4.057-1.08-8.24,1.338-9.322,5.405c-8.656,32.54-33.259,48.763-33.688,49.041
			c-3.54,2.257-4.59,6.956-2.341,10.504c1.452,2.29,3.919,3.541,6.443,3.541c1.395,0,2.807-0.383,4.072-1.185
			c1.219-0.773,29.969-19.363,40.241-57.986C346.594,397.867,344.174,393.694,340.108,392.612z"/>
	</g>
</g>
<g>
	<g>
		<path d="M407.551,224.831c-4.44-12.907-1.317-36.084,0.262-43.932c0.835-4.125-1.833-8.145-5.956-8.979
			c-4.126-0.837-8.145,1.833-8.979,5.956c-0.267,1.315-6.44,32.426,0.263,51.91c4.303,12.513-0.613,33.199-2.868,40.107
			c-1.313,3.998,0.865,8.303,4.862,9.617c0.788,0.259,1.59,0.382,2.378,0.382c3.202,0,6.184-2.036,7.238-5.244
			C405.149,273.438,414.41,244.772,407.551,224.831z"/>
	</g>
</g>
</svg>