<?xml version="1.0" encoding="iso-8859-1"?>
<!-- Generator: Adobe Illustrator 16.0.0, SVG Export Plug-In . SVG Version: 6.00 Build 0)  -->
<!DOCTYPE svg PUBLIC "-//W3C//DTD SVG 1.1//EN" "http://www.w3.org/Graphics/SVG/1.1/DTD/svg11.dtd">
<svg version="1.1" id="Capa_1" xmlns="http://www.w3.org/2000/svg" xmlns:xlink="http://www.w3.org/1999/xlink" x="0px" y="0px"
	 width="48.746px" height="48.746px" viewBox="0 0 48.746 48.746" style="enable-background:new 0 0 48.746 48.746;"
	 xml:space="preserve">
<g>
	<g>
		<path d="M48.746,24.605c0-3.513-4.426-6.065-10.495-7.562c2.078-5.377,2.44-10.031-0.244-12.021
			c-0.735-0.545-1.642-0.821-2.692-0.821c-3.135,0-7.463,2.515-11.919,6.696c-4.505-4.464-8.874-7.16-11.989-7.16
			c-0.953,0-1.78,0.247-2.461,0.734c-2.11,1.514-2.42,4.939-0.895,9.905c0.299,0.974,0.676,1.99,1.099,3.027
			C3.785,18.933,0,21.358,0,24.605c0,3.199,3.675,5.601,8.914,7.134c-2.223,5.557-2.687,10.405,0.069,12.448
			c0.736,0.545,1.642,0.82,2.692,0.82c3.133,0,7.454-2.51,11.905-6.683c4.264,4.069,8.354,6.493,11.312,6.493
			c0.953,0,1.78-0.247,2.461-0.734c2.605-1.869,2.262-6.434,0.258-11.77C44.004,30.848,48.746,28.242,48.746,24.605z M35.314,6.202
			c0.611,0,1.117,0.144,1.5,0.429c1.588,1.176,1.412,4.945-0.553,9.975c-2.707-0.539-5.656-0.884-8.637-1.029
			c-0.938-1.15-1.885-2.229-2.832-3.238C29.123,8.297,33,6.202,35.314,6.202z M15.955,29.438c0.468,0.651,0.942,1.285,1.42,1.908
			c-2.074-0.229-3.982-0.558-5.702-0.953c0.609-1.318,1.317-2.695,2.146-4.125C14.495,27.326,15.202,28.387,15.955,29.438z
			 M11.925,18.768c1.568-0.353,3.287-0.646,5.145-0.86c-0.317,0.408-0.634,0.816-0.946,1.237c-0.794,1.072-1.556,2.178-2.284,3.299
			C13.131,21.199,12.492,19.97,11.925,18.768z M14.975,24.357c0.83-1.314,1.747-2.66,2.756-4.021c0.7-0.945,1.403-1.832,2.105-2.685
			c1.45-0.1,2.962-0.156,4.535-0.156c0.769,0,1.52,0.015,2.26,0.04c0.694,0.874,1.391,1.783,2.086,2.751
			c1.176,1.64,2.213,3.246,3.143,4.81c-0.791,1.238-1.654,2.502-2.604,3.781c-0.727,0.98-1.457,1.902-2.186,2.783
			c-0.881,0.035-1.777,0.058-2.699,0.058c-1.475,0-2.891-0.054-4.259-0.142c-0.843-1.037-1.688-2.129-2.532-3.305
			C16.649,26.973,15.78,25.662,14.975,24.357z M30.864,30.068c0.729-0.986,1.43-2.002,2.104-3.029
			c0.719,1.318,1.348,2.588,1.883,3.801c-1.571,0.279-3.269,0.5-5.074,0.65C30.141,31.023,30.505,30.553,30.864,30.068z
			 M30.342,19.12c-0.354-0.491-0.71-0.97-1.066-1.443c2.234,0.167,4.312,0.442,6.193,0.804c-0.674,1.492-1.478,3.063-2.438,4.699
			C32.186,21.801,31.286,20.437,30.342,19.12z M24.955,15.5c-0.194-0.002-0.389-0.005-0.583-0.005c-0.91,0-1.825,0.021-2.738,0.06
			c0.581-0.645,1.156-1.244,1.728-1.822C23.888,14.294,24.419,14.881,24.955,15.5z M10.11,6.098
			c0.333-0.238,0.769-0.359,1.295-0.359c2.281,0,6.181,2.238,10.558,6.56c-1.048,1.062-2.096,2.204-3.131,3.429
			c-2.703,0.229-5.333,0.623-7.731,1.177c-0.444-1.07-0.832-2.114-1.139-3.112C8.765,9.898,8.821,7.022,10.11,6.098z M1.998,24.605
			c0-1.911,2.974-3.944,7.956-5.347c0.766,1.66,1.668,3.367,2.688,5.095c-1.112,1.848-2.104,3.711-2.934,5.53
			C4.873,28.486,1.998,26.486,1.998,24.605z M11.674,43.01c-0.612,0-1.118-0.144-1.501-0.428c-1.624-1.204-1.4-5.123,0.694-10.327
			c2.542,0.603,5.353,1.021,8.241,1.252c1.012,1.214,2.03,2.354,3.047,3.403C17.842,40.928,13.981,43.01,11.674,43.01z
			 M21.883,33.67c0.83,0.031,1.661,0.048,2.488,0.048c0.312,0,0.623-0.003,0.935-0.008c-0.575,0.636-1.145,1.229-1.711,1.802
			C23.03,34.932,22.459,34.316,21.883,33.67z M36.188,42.461c-1.7,1.221-6.061-0.703-11.167-5.541
			c1.013-1.025,2.023-2.127,3.025-3.307c2.607-0.146,5.184-0.441,7.586-0.887C37.532,37.695,37.711,41.367,36.188,42.461z
			 M36.852,30.438c-0.75-1.735-1.658-3.525-2.67-5.312c1.262-2.073,2.387-4.175,3.291-6.208c5.771,1.396,9.272,3.614,9.272,5.688
			C46.746,26.754,42.99,29.053,36.852,30.438z"/>
		<circle cx="24.372" cy="24.606" r="3.882"/>
	</g>
</g>
<g>
</g>
<g>
</g>
<g>
</g>
<g>
</g>
<g>
</g>
<g>
</g>
<g>
</g>
<g>
</g>
<g>
</g>
<g>
</g>
<g>
</g>
<g>
</g>
<g>
</g>
<g>
</g>
<g>
</g>
</svg>
