<?xml version="1.0" encoding="iso-8859-1"?>
<!-- Generator: Adobe Illustrator 19.0.0, SVG Export Plug-In . SVG Version: 6.00 Build 0)  -->
<svg version="1.1" id="Layer_1" xmlns="http://www.w3.org/2000/svg" xmlns:xlink="http://www.w3.org/1999/xlink" x="0px" y="0px"
	 viewBox="0 0 512 512" style="enable-background:new 0 0 512 512;" xml:space="preserve">
<g>
	<g>
		<path d="M498.915,156.87c-13.95-28.684-38.087-47.156-69.797-53.417c-57.873-11.43-86.542,7.008-111.835,23.278
			c-18.19,11.701-33.895,21.805-61.264,21.805c-0.012,0-0.023,0-0.037,0c-27.359,0-43.07-10.106-61.259-21.807
			c-25.29-16.269-53.955-34.714-111.814-23.277c-31.728,6.263-55.875,24.742-69.829,53.441
			C-5.704,195.525-2.47,247.03,11.506,274.495c16.768,33.004,45.727,63.463,83.74,88.081
			c48.582,31.476,107.141,49.524,160.683,49.524c0.023,0,0.051,0,0.073,0c53.567-0.002,112.158-18.05,160.744-49.515
			c38.033-24.63,66.991-55.081,83.74-88.053C514.472,247.037,517.707,195.508,498.915,156.87z M470.724,259.406
			c-13.887,27.339-39.501,54.031-72.125,75.157c-43.328,28.059-95.305,44.151-142.604,44.151h-0.006c-0.023,0-0.041,0-0.065,0
			c-47.266,0-99.213-16.093-142.531-44.158c-32.608-21.118-58.222-47.818-72.129-75.192c-8.547-16.794-12.808-57.749,1.838-87.871
			c9.335-19.196,24.901-31.068,46.274-35.287c10.209-2.018,19.11-2.909,27.052-2.909c26.791,0,42.587,10.158,60.232,21.511
			c19.757,12.71,42.148,27.116,79.315,27.115c0.012-0.001,0.03,0,0.048,0c37.171,0,59.564-14.404,79.32-27.113
			c22.877-14.718,42.637-27.428,87.304-18.603c21.354,4.217,36.911,16.082,46.242,35.266
			C483.545,201.601,479.28,242.586,470.724,259.406z"/>
	</g>
</g>
<g>
	<g>
		<path d="M302.428,214.517c-36.571,16.131-59.38,7.84-72.075-1.954l-20.397,26.431c15.503,11.963,33.912,17.977,54.072,17.977
			c16.349,0,33.851-3.958,51.873-11.908L302.428,214.517z"/>
	</g>
</g>
<g>
</g>
<g>
</g>
<g>
</g>
<g>
</g>
<g>
</g>
<g>
</g>
<g>
</g>
<g>
</g>
<g>
</g>
<g>
</g>
<g>
</g>
<g>
</g>
<g>
</g>
<g>
</g>
<g>
</g>
</svg>
