<?xml version="1.0" encoding="iso-8859-1"?>
<!-- Generator: Adobe Illustrator 18.0.0, SVG Export Plug-In . SVG Version: 6.00 Build 0)  -->
<!DOCTYPE svg PUBLIC "-//W3C//DTD SVG 1.1//EN" "http://www.w3.org/Graphics/SVG/1.1/DTD/svg11.dtd">
<svg version="1.1" id="Capa_1" xmlns="http://www.w3.org/2000/svg" xmlns:xlink="http://www.w3.org/1999/xlink" x="0px" y="0px"
	 viewBox="0 0 297 297" style="enable-background:new 0 0 297 297;" xml:space="preserve">
<g>
	<path d="M255.001,103.896h-5.369c12.799-10.461,20.987-26.361,20.987-44.143c0-31.428-25.567-56.996-56.993-56.996
		c-15.585,0-30.479,6.463-41.155,17.59c-4.412-1.279-8.984-1.924-13.667-1.924c-8.984,0-17.593,2.391-25.107,6.873
		C123.048,11.32,106.281,2.758,88.316,2.758c-22.323,0-42.406,13.025-51.672,32.955C15.385,41.309,0,60.783,0,83.254
		c0,23.465,16.527,43.131,38.549,47.996v113.994c0,27.018,21.98,48.998,48.999,48.998h92.325c27.018,0,48.999-21.98,48.999-48.998
		v-2.107h26.129c23.158,0,41.999-18.84,41.999-41.998v-55.242C297,122.738,278.159,103.896,255.001,103.896z M80.908,96.164
		c-3.176,0-6.204,1.516-8.103,4.141c-5.483,7.584-14.322,12.113-23.647,12.113c-16.079,0-29.16-13.084-29.16-29.164
		c0-14.535,10.844-26.957,25.223-28.891c3.747-0.504,6.89-3.08,8.121-6.654c5.139-14.926,19.194-24.953,34.974-24.953
		c14.36,0,27.543,8.434,33.583,21.486c1.376,2.973,4.122,5.084,7.35,5.648c3.23,0.572,6.527-0.486,8.832-2.814
		c5.522-5.58,12.882-8.654,20.723-8.654c4.366,0,8.564,0.943,12.482,2.803c4.354,2.068,9.557,0.736,12.384-3.162
		c6.951-9.584,18.15-15.307,29.957-15.307c20.398,0,36.993,16.598,36.993,36.998s-16.595,36.998-36.993,36.998
		c-8.291,0-16.133-2.691-22.679-7.783c-3.804-2.959-9.178-2.783-12.783,0.418c-5.344,4.75-12.219,7.365-19.36,7.365
		c-10.105,0-19.349-5.127-24.727-13.713c-1.739-2.777-4.728-4.525-7.998-4.68c-3.277-0.172-6.414,1.301-8.408,3.898
		c-2.892,3.768-6.446,6.916-10.565,9.357c-3.038,1.801-4.9,5.07-4.9,8.602v33.293c0,0.723-0.634,1.357-1.355,1.357h-5.677
		c-0.722,0-1.355-0.635-1.355-1.357v-26.982c0-5.148-3.909-9.457-9.033-9.953L80.908,96.164z M208.872,245.244
		c0,15.99-13.009,29-28.999,29H87.548c-15.99,0-29-13.01-29-29v-113.75c5.388-1.057,10.551-3,15.269-5.738v7.754
		c0,11.777,9.58,21.357,21.354,21.357h5.677c11.775,0,21.355-9.58,21.355-21.357v-27.941c0.969-0.717,1.911-1.461,2.83-2.234
		c9.005,8.549,20.976,13.418,33.77,13.418c9.38,0,18.486-2.674,26.313-7.641c7.271,4.229,15.323,6.75,23.756,7.439V245.244z
		 M277.001,201.139c0,12.131-9.869,22-22,22h-26.129v-99.242h26.129c12.131,0,22,9.869,22,22V201.139z"/>
	<path d="M177.582,165.756c-5.522,0-10,4.477-10,9.998v73.129c0,5.523,4.478,10,10,10c5.522,0,10-4.477,10-10v-73.129
		C187.582,170.232,183.104,165.756,177.582,165.756z"/>
	<path d="M133.709,165.756c-5.521,0-9.999,4.477-9.999,9.998v73.129c0,5.523,4.478,10,9.999,10c5.522,0,10-4.477,10-10v-73.129
		C143.709,170.232,139.231,165.756,133.709,165.756z"/>
	<path d="M89.84,165.756c-5.522,0-10,4.477-10,9.998v73.129c0,5.523,4.478,10,10,10c5.521,0,9.999-4.477,9.999-10v-73.129
		C99.839,170.232,95.361,165.756,89.84,165.756z"/>
</g>
<g>
</g>
<g>
</g>
<g>
</g>
<g>
</g>
<g>
</g>
<g>
</g>
<g>
</g>
<g>
</g>
<g>
</g>
<g>
</g>
<g>
</g>
<g>
</g>
<g>
</g>
<g>
</g>
<g>
</g>
</svg>
