<?xml version="1.0" encoding="iso-8859-1"?>
<!-- Generator: Adobe Illustrator 18.0.0, SVG Export Plug-In . SVG Version: 6.00 Build 0)  -->
<!DOCTYPE svg PUBLIC "-//W3C//DTD SVG 1.1//EN" "http://www.w3.org/Graphics/SVG/1.1/DTD/svg11.dtd">
<svg version="1.1" id="Capa_1" xmlns="http://www.w3.org/2000/svg" xmlns:xlink="http://www.w3.org/1999/xlink" x="0px" y="0px"
	 viewBox="0 0 455.978 455.978" style="enable-background:new 0 0 455.978 455.978;" xml:space="preserve">
<g>
	<path d="M335.954,169.698V58.679H144.918v111.02H335.954z M159.918,73.679h161.036v81.02H159.918V73.679z"/>
	<rect x="175.939" y="89.519" width="128.993" height="15"/>
	<rect x="175.939" y="119.517" width="128.993" height="15"/>
	<path d="M391.076,0H104.224C82.542,0,64.902,17.64,64.902,39.323c0,0,0.003,332.512,0.003,332.514
		c0,21.68,17.638,39.318,39.318,39.318h22.913v44.823h55.897v-44.823h208.037L391.076,0z M376.076,332.506H111.724V15h264.352
		V332.506z M96.724,16.189v317.032c-6.142,1.18-11.883,3.811-16.822,7.715V39.323C79.902,28.528,86.973,19.358,96.724,16.189z
		 M104.223,396.155c-13.409,0-24.318-10.909-24.318-24.318c0-6.505,2.529-12.617,7.122-17.209
		c4.592-4.592,10.699-7.121,17.196-7.121h22.913v48.648H104.223z M142.136,440.978v-93.472h25.897v93.472H142.136z M376.071,396.155
		H183.034v-48.648h193.037V396.155z"/>
</g>
<g>
</g>
<g>
</g>
<g>
</g>
<g>
</g>
<g>
</g>
<g>
</g>
<g>
</g>
<g>
</g>
<g>
</g>
<g>
</g>
<g>
</g>
<g>
</g>
<g>
</g>
<g>
</g>
<g>
</g>
</svg>
