<?xml version="1.0" encoding="iso-8859-1"?>
<!-- Generator: Adobe Illustrator 16.0.0, SVG Export Plug-In . SVG Version: 6.00 Build 0)  -->
<!DOCTYPE svg PUBLIC "-//W3C//DTD SVG 1.1//EN" "http://www.w3.org/Graphics/SVG/1.1/DTD/svg11.dtd">
<svg version="1.1" id="Capa_1" xmlns="http://www.w3.org/2000/svg" xmlns:xlink="http://www.w3.org/1999/xlink" x="0px" y="0px"
	 width="196.429px" height="196.429px" viewBox="0 0 196.429 196.429" style="enable-background:new 0 0 196.429 196.429;"
	 xml:space="preserve">
<g>
	<g>
		<path d="M155.257,31.106c-1.95-0.782-4.058-1.488-6.269-2.097c-0.032-0.009-0.064-0.017-0.096-0.025
			c-13.49-3.295-27.138-3.899-50.679-3.919c-23.541,0.02-37.189,0.624-50.678,3.919c-0.032,0.008-0.064,0.016-0.096,0.025
			c-2.211,0.61-4.319,1.315-6.269,2.097c-14.847,5.976-24.07,18.231-24.07,31.983c0,10.699,6.283,21.564,15.663,27.053
			c0.984,0.563,1.997,1.074,3.012,1.519c0.015,0.006,0.029,0.012,0.044,0.019c1.685,0.711,1.685,0.711,1.758,2.395
			c0.104,2.394,0.105,28.509,0.002,71.646c-0.007,2.052,0.848,3.343,1.567,4.065c0.716,0.719,1.996,1.576,4.028,1.576h55.039h55.039
			c2.032,0,3.312-0.857,4.028-1.576c0.719-0.723,1.574-2.014,1.567-4.065c-0.103-43.136-0.102-69.252,0.003-71.646
			c0.072-1.684,0.072-1.684,1.758-2.395c0.014-0.006,0.028-0.012,0.043-0.019c1.016-0.445,2.028-0.956,3.013-1.519
			c9.38-5.488,15.663-16.353,15.663-27.053C179.326,49.337,170.104,37.082,155.257,31.106z M160.283,84.298
			c-0.742,0.424-1.533,0.824-2.324,1.172c-2.834,1.199-5.615,2.837-5.854,8.311c-0.146,3.361-0.07,45.292-0.011,70.83H98.214H44.333
			c0.06-25.539,0.135-67.469-0.011-70.83c-0.237-5.474-3.018-7.112-5.853-8.311c-0.791-0.348-1.582-0.748-2.325-1.172
			c-7.353-4.302-12.293-12.826-12.293-21.21c0-10.939,7.603-20.795,19.837-25.72c1.698-0.681,3.548-1.3,5.498-1.84
			c12.807-3.122,26.069-3.695,49.028-3.714c22.959,0.019,36.22,0.592,49.026,3.714c1.951,0.54,3.801,1.159,5.5,1.84
			c12.233,4.925,19.836,14.78,19.836,25.72C172.576,71.472,167.637,79.996,160.283,84.298z"/>
		<path d="M186.961,33.216c-6.133-8.165-14.795-14.097-24.398-16.713c-1.92-0.632-25.131-7.98-64.348-8.133
			c-39.218,0.153-62.428,7.501-64.347,8.133c-9.604,2.615-18.266,8.548-24.399,16.713C3.363,41.346,0,51.359,0,61.412
			c0,14.717,7.132,28.639,19.077,37.239c0.163,0.117,0.346,0.239,0.543,0.371c1.063,0.705,1.83,1.213,1.83,3.56v69.278
			c0,8.932,7.266,16.198,16.198,16.198h60.566h60.567c8.932,0,16.197-7.267,16.197-16.198v-69.278c0-2.347,0.769-2.854,1.83-3.56
			c0.197-0.132,0.381-0.254,0.543-0.371c11.945-8.601,19.077-22.522,19.077-37.239C196.43,51.36,193.066,41.346,186.961,33.216z
			 M173.408,93.175c-0.101,0.072-0.211,0.145-0.332,0.224c-1.45,0.963-4.848,3.217-4.848,9.184v69.277
			c0,5.211-4.238,9.449-9.447,9.449H98.214H37.647c-5.21,0-9.448-4.238-9.448-9.449v-69.277c0-5.967-3.397-8.222-4.848-9.184
			c-0.119-0.079-0.23-0.151-0.33-0.224C12.832,85.839,6.749,73.965,6.749,61.413c0-17.73,12.184-33.887,28.971-38.418
			c0.075-0.021,0.149-0.043,0.222-0.068c0.223-0.077,22.632-7.651,62.273-7.806c39.641,0.155,62.05,7.729,62.273,7.806
			c0.072,0.025,0.146,0.048,0.221,0.068c16.787,4.531,28.971,20.688,28.971,38.418C189.68,73.964,183.597,85.838,173.408,93.175z"/>
	</g>
</g>
<g>
</g>
<g>
</g>
<g>
</g>
<g>
</g>
<g>
</g>
<g>
</g>
<g>
</g>
<g>
</g>
<g>
</g>
<g>
</g>
<g>
</g>
<g>
</g>
<g>
</g>
<g>
</g>
<g>
</g>
</svg>
