<?xml version="1.0" encoding="iso-8859-1"?>
<!-- Generator: Adobe Illustrator 19.0.0, SVG Export Plug-In . SVG Version: 6.00 Build 0)  -->
<svg version="1.1" id="Layer_1" xmlns="http://www.w3.org/2000/svg" xmlns:xlink="http://www.w3.org/1999/xlink" x="0px" y="0px"
	 viewBox="0 0 512.001 512.001" style="enable-background:new 0 0 512.001 512.001;" xml:space="preserve">
<g>
	<g>
		<path d="M493.105,176.734H18.895C8.46,176.734,0,185.194,0,195.63c0,10.435,8.46,18.895,18.895,18.895h4.424v101.847
			c0,10.435,8.46,18.895,18.895,18.895h52.952c10.435,0,18.895-8.46,18.895-18.895c0-24.376,19.831-44.206,44.207-44.206
			s44.206,19.831,44.206,44.206c0,10.435,8.46,18.895,18.895,18.895h69.26c10.435,0,18.895-8.46,18.895-18.895
			c0-24.376,19.83-44.206,44.206-44.206s44.206,19.831,44.206,44.206c0,10.435,8.46,18.895,18.895,18.895h52.953
			c10.435,0,18.895-8.46,18.895-18.895V214.525h4.424c10.435,0,18.895-8.46,18.895-18.895
			C512.001,185.194,503.54,176.734,493.105,176.734z M450.89,297.476h-17.36c-8.556-36.134-41.087-63.101-79.8-63.101
			c-38.713,0-71.244,26.967-79.8,63.101h-35.863c-8.556-36.134-41.087-63.101-79.8-63.101c-38.713,0-71.245,26.967-79.801,63.101
			H61.109v-82.951H450.89V297.476z"/>
	</g>
</g>
<g>
</g>
<g>
</g>
<g>
</g>
<g>
</g>
<g>
</g>
<g>
</g>
<g>
</g>
<g>
</g>
<g>
</g>
<g>
</g>
<g>
</g>
<g>
</g>
<g>
</g>
<g>
</g>
<g>
</g>
</svg>
