<?xml version="1.0" encoding="iso-8859-1"?>
<!-- Generator: Adobe Illustrator 17.1.0, SVG Export Plug-In . SVG Version: 6.00 Build 0)  -->
<!DOCTYPE svg PUBLIC "-//W3C//DTD SVG 1.1//EN" "http://www.w3.org/Graphics/SVG/1.1/DTD/svg11.dtd">
<svg version="1.1" id="Capa_1" xmlns="http://www.w3.org/2000/svg" xmlns:xlink="http://www.w3.org/1999/xlink" x="0px" y="0px"
	 viewBox="0 0 463.833 463.833" style="enable-background:new 0 0 463.833 463.833;" xml:space="preserve">
<g>
	<path d="M440.167,447.854V255.011c4.223-0.218,7.583-3.701,7.583-7.979c0-4.418-3.582-8-8-8h-2.63l-60.897-122.318V86.333
		c0-4.418-3.582-8-8-8s-8,3.582-8,8v30.381l-47.942,96.299v-38.125h0.125c4.418,0,8-3.582,8-8s-3.582-8-8-8h-3.435l-68.719-122.77V8
		c0-4.418-3.582-8-8-8s-8,3.582-8,8v28.613l-68.442,122.275h-3.435c-4.418,0-8,3.582-8,8s3.582,8,8,8h0.125v38.125l-47.942-96.299
		V86.333c0-4.418-3.582-8-8-8s-8,3.582-8,8v30.381L27.661,239.032h-3.578c-4.418,0-8,3.582-8,8s3.582,8,8,8h0.531v192.802h-0.531
		c-4.418,0-8,3.582-8,8s3.582,8,8,8H439.75c4.418,0,8-3.582,8-8C447.75,451.556,444.39,448.073,440.167,447.854z M399.96,431.333
		c-4.418,0-8,3.582-8,8v8.5h-15.834v-8.5c0-4.418-3.582-8-8-8s-8,3.582-8,8v8.5H344.21v-8.5c0-4.418-3.582-8-8-8s-8,3.582-8,8v8.5
		h-15.929v-32.167h111.886v32.167H407.96v-8.5C407.96,434.915,404.378,431.333,399.96,431.333z M224.813,447.833H200.89v-48.577
		c0-14.841,10.179-27.348,23.923-30.907V447.833z M240.813,368.349c13.743,3.559,23.923,16.066,23.923,30.907v48.577h-23.923
		V368.349z M232.813,351.333c-26.425,0-47.923,21.498-47.923,47.923v48.577H168.5v-112.75h127.781v112.75h-15.546v-48.577
		C280.736,372.832,259.238,351.333,232.813,351.333z M96.558,136.545l51.023,102.487H45.534L96.558,136.545z M232.391,54.83
		l58.245,104.058h-116.49L232.391,54.83z M168.5,174.888h127.781v144.196H168.5V174.888z M368.224,136.545l51.024,102.487H317.2
		L368.224,136.545z M312.281,255.032h111.886v144.635H312.281V255.032z M40.615,255.032H152.5v144.635H40.615V255.032z
		 M40.615,415.667H152.5v32.167h-16.219v-8.5c0-4.418-3.582-8-8-8s-8,3.582-8,8v8.5h-15.833v-8.5c0-4.418-3.582-8-8-8s-8,3.582-8,8
		v8.5H72.531v-8.5c0-4.418-3.582-8-8-8s-8,3.582-8,8v8.5H40.615V415.667z"/>
	<path d="M96.418,279.201c-17.519,0-31.771,14.252-31.771,31.77v56.333c0,4.418,3.582,8,8,8h47.541c4.418,0,8-3.582,8-8v-56.333
		C128.189,293.453,113.937,279.201,96.418,279.201z M112.189,359.305H80.648v-48.333c0-8.696,7.074-15.77,15.771-15.77
		s15.771,7.074,15.771,15.77V359.305z"/>
	<path d="M368.085,279.201c-17.519,0-31.771,14.252-31.771,31.77v56.333c0,4.418,3.582,8,8,8h47.541c4.418,0,8-3.582,8-8v-56.333
		C399.856,293.453,385.604,279.201,368.085,279.201z M383.856,359.305h-31.541v-48.333c0-8.696,7.074-15.77,15.771-15.77
		s15.771,7.074,15.771,15.77V359.305z"/>
	<path d="M208.62,295.083h47.541c4.418,0,8-3.582,8-8V230.75c0-17.518-14.252-31.77-31.771-31.77s-31.771,14.252-31.771,31.77
		v56.333C200.62,291.502,204.202,295.083,208.62,295.083z M216.62,230.75c0-8.696,7.074-15.77,15.771-15.77
		s15.771,7.074,15.771,15.77v48.333H216.62V230.75z"/>
</g>
<g>
</g>
<g>
</g>
<g>
</g>
<g>
</g>
<g>
</g>
<g>
</g>
<g>
</g>
<g>
</g>
<g>
</g>
<g>
</g>
<g>
</g>
<g>
</g>
<g>
</g>
<g>
</g>
<g>
</g>
</svg>
