<?xml version="1.0" encoding="iso-8859-1"?>
<!-- Generator: Adobe Illustrator 19.0.0, SVG Export Plug-In . SVG Version: 6.00 Build 0)  -->
<svg version="1.1" id="Layer_1" xmlns="http://www.w3.org/2000/svg" xmlns:xlink="http://www.w3.org/1999/xlink" x="0px" y="0px"
	 viewBox="0 0 512 512" style="enable-background:new 0 0 512 512;" xml:space="preserve">
<g>
	<g>
		<path d="M478.041,438.857V57.469h-57.469v57.469h-15.673V57.469h-57.469v114.939H336.98v47.02h-47.02v-47.02h-36.571v-41.796
			h73.143V62.694h-88.816v109.714h-15.673v47.02h-47.02v-47.02h-10.449V57.469h-57.469v57.469H91.429V57.469H33.959v381.388H0
			v15.673h512v-15.673H478.041z M253.388,78.367h57.469v36.571h-57.469V78.367z M107.102,438.857H49.633v-41.796h23.51v-15.673
			h-23.51V271.673h23.51V256h-23.51v-88.816h23.51V151.51h-23.51V73.143h26.122v57.469h47.02V73.143h26.122v99.265h-41.796V438.857z
			 M321.306,438.857H190.694V331.755c0-1.416,1.196-2.612,2.612-2.612h54.857v86.204h15.673v-86.204h54.857
			c1.416,0,2.612,1.196,2.612,2.612V438.857z M389.224,256h-23.51v15.673h23.51v67.918h-23.51v15.673h23.51v83.592h-33.959H336.98
			V331.755c0-10.082-8.204-18.286-18.286-18.286H193.306c-10.082,0-18.286,8.204-18.286,18.286v107.102h-52.245v-41.796h23.51
			v-15.673h-23.51v-67.918h23.51v-15.673h-23.51V188.082h36.571v47.02h78.367v-47.02h36.571v47.02h78.367v-47.02h36.571V256z
			 M462.367,151.51h-23.51v15.673h23.51V256h-23.51v15.673h23.51v109.714h-23.51v15.673h23.51v41.796h-57.469V172.408h-41.796
			V73.143h26.122v57.469h47.02V73.143h26.122V151.51z"/>
	</g>
</g>
<g>
	<g>
		<rect x="276.898" y="376.163" width="20.898" height="15.673"/>
	</g>
</g>
<g>
	<g>
		<rect x="214.204" y="376.163" width="20.898" height="15.673"/>
	</g>
</g>
<g>
	<g>
		<rect x="240.327" y="266.449" width="31.347" height="15.673"/>
	</g>
</g>
<g>
	<g>
		<rect x="292.571" y="266.449" width="31.347" height="15.673"/>
	</g>
</g>
<g>
	<g>
		<rect x="188.082" y="266.449" width="31.347" height="15.673"/>
	</g>
</g>
<g>
	<g>
		<rect x="62.694" y="318.694" width="31.347" height="15.673"/>
	</g>
</g>
<g>
	<g>
		<rect x="62.694" y="203.755" width="31.347" height="15.673"/>
	</g>
</g>
<g>
	<g>
		<rect x="417.959" y="318.694" width="31.347" height="15.673"/>
	</g>
</g>
<g>
	<g>
		<rect x="417.959" y="203.755" width="31.347" height="15.673"/>
	</g>
</g>
<g>
</g>
<g>
</g>
<g>
</g>
<g>
</g>
<g>
</g>
<g>
</g>
<g>
</g>
<g>
</g>
<g>
</g>
<g>
</g>
<g>
</g>
<g>
</g>
<g>
</g>
<g>
</g>
<g>
</g>
</svg>
