<?xml version="1.0" encoding="iso-8859-1"?>
<!-- Generator: Adobe Illustrator 17.1.0, SVG Export Plug-In . SVG Version: 6.00 Build 0)  -->
<!DOCTYPE svg PUBLIC "-//W3C//DTD SVG 1.1//EN" "http://www.w3.org/Graphics/SVG/1.1/DTD/svg11.dtd">
<svg version="1.1" id="Capa_1" xmlns="http://www.w3.org/2000/svg" xmlns:xlink="http://www.w3.org/1999/xlink" x="0px" y="0px"
	 viewBox="0 0 282.887 282.887" style="enable-background:new 0 0 282.887 282.887;" xml:space="preserve">
<path d="M282.84,92.192L263.4,264.533c-0.423,3.749-3.563,6.553-7.321,6.619c-0.469,0.092-0.954,0.075-1.45,0.075
	c-0.006,0-0.014,0-0.02,0H28.277c-0.46,0-0.908,0.012-1.35-0.069c-3.811-0.006-7.013-2.802-7.441-6.59L0.047,92.209
	c-0.127-1.132,0.005-2.277,0.386-3.351l0.425-1.196c0.979-2.759,3.475-4.695,6.39-4.96c2.909-0.26,5.717,1.19,7.178,3.729
	l59.346,103.095l61.463-172.88c1.063-2.99,3.893-4.987,7.066-4.987s6.004,1.998,7.067,4.988l60.797,171.056l58.298-101.273
	c1.461-2.538,4.258-4.002,7.181-3.728c2.916,0.266,5.411,2.204,6.389,4.964l0.424,1.196
	C282.836,89.935,282.967,91.062,282.84,92.192z"/>
<g>
</g>
<g>
</g>
<g>
</g>
<g>
</g>
<g>
</g>
<g>
</g>
<g>
</g>
<g>
</g>
<g>
</g>
<g>
</g>
<g>
</g>
<g>
</g>
<g>
</g>
<g>
</g>
<g>
</g>
</svg>
