<?xml version="1.0" encoding="iso-8859-1"?>
<!-- Generator: Adobe Illustrator 19.0.0, SVG Export Plug-In . SVG Version: 6.00 Build 0)  -->
<svg version="1.1" id="Layer_1" xmlns="http://www.w3.org/2000/svg" xmlns:xlink="http://www.w3.org/1999/xlink" x="0px" y="0px"
	 viewBox="0 0 512 512" style="enable-background:new 0 0 512 512;" xml:space="preserve">
<g>
	<g>
		<path d="M275.012,350.098l-12.159-20.846c-1.422-2.437-4.031-3.935-6.852-3.935c-2.82,0-5.429,1.499-6.852,3.935l-12.16,20.848
			c-4.019,6.89-4.045,15.134-0.072,22.05c3.973,6.916,11.107,11.046,19.084,11.046c7.977,0,15.11-4.13,19.083-11.046
			C279.058,365.231,279.031,356.989,275.012,350.098z M261.331,364.247c-0.533,0.927-2.118,3.085-5.329,3.085
			c-3.21,0-4.796-2.157-5.328-3.084c-0.533-0.927-1.598-3.384,0.02-6.157l5.308-9.1l5.308,9.1
			C262.926,360.864,261.863,363.32,261.331,364.247z"/>
	</g>
</g>
<g>
	<g>
		<path d="M241.401,318.991l-44.268-43.82c-7.589-7.512-18.902-9.71-28.823-5.599c-9.871,4.091-16.035,13.203-16.085,23.781
			c-0.07,13.948,5.376,27.056,15.331,36.912c10.179,10.075,23.551,15.113,36.922,15.113s26.742-5.038,36.922-15.113
			c1.505-1.49,2.352-3.52,2.352-5.638C243.753,322.509,242.906,320.481,241.401,318.991z M178.716,318.991
			c-6.902-6.832-10.676-15.909-10.629-25.56c0.03-6.131,4.827-8.594,6.296-9.203c3.185-1.321,7.904-1.431,11.59,2.218l37.94,37.555
			C209.837,332.785,190.965,331.116,178.716,318.991z"/>
	</g>
</g>
<g>
	<g>
		<path d="M343.693,269.574c-9.918-4.11-21.232-1.913-28.823,5.599l-44.267,43.82c-1.505,1.49-2.352,3.52-2.352,5.637
			s0.847,4.147,2.352,5.637c10.18,10.077,23.549,15.114,36.921,15.114c13.37,0,26.743-5.039,36.922-15.113
			c9.956-9.854,15.401-22.963,15.333-36.911C359.728,282.776,353.564,273.664,343.693,269.574z M333.286,318.991
			c-12.249,12.125-31.12,13.794-45.194,5.01l37.939-37.554c3.685-3.65,8.4-3.54,11.591-2.219c1.469,0.609,6.266,3.072,6.296,9.203
			C343.963,303.082,340.189,312.159,333.286,318.991z"/>
	</g>
</g>
<g>
	<g>
		<path d="M390.848,194.867c-12.275-33.267-29.791-66.946-52.06-100.099c-37.849-56.349-75.844-91.24-77.443-92.698
			c-3.027-2.76-7.661-2.76-10.688,0c-1.599,1.457-39.595,36.349-77.442,92.698c-22.269,33.153-39.784,66.832-52.06,100.099
			c-15.43,41.813-22.585,83.101-21.269,122.717c2.06,61.988,22.103,113.461,59.571,152.985C184.782,497.287,219.069,512,256.001,512
			c36.93,0,71.221-14.716,96.546-41.431c37.467-39.525,57.509-90.996,59.569-152.985
			C413.433,277.97,406.278,236.682,390.848,194.867z M204.316,445.438c-3.47-1.201-5.801-4.403-5.801-7.967V413.72
			c2.736,0.823,5.486,1.579,8.25,2.281v14.509c0,4.38,3.551,7.932,7.932,7.932s7.932-3.551,7.932-7.932v-11.162
			c3.87,0.651,7.76,1.197,11.673,1.619v17.694c0,4.38,3.551,7.932,7.932,7.932c4.38,0,7.932-3.551,7.932-7.932v-16.613
			c1.941,0.055,3.885,0.09,5.834,0.09c1.949,0,3.894-0.034,5.835-0.09v16.613c0,4.38,3.55,7.932,7.932,7.932
			c4.381,0,7.932-3.551,7.932-7.932v-17.694c3.913-0.422,7.804-0.968,11.673-1.618v11.161c0,4.38,3.55,7.932,7.932,7.932
			s7.932-3.551,7.932-7.932v-14.507c2.766-0.702,5.518-1.459,8.255-2.282v23.752c0,3.564-2.331,6.765-5.8,7.967
			C274.358,456.977,237.647,456.977,204.316,445.438z M178.631,369.69c-3.51-3.306-8.279-5.074-13.091-4.852h-10.72
			c-13.173-45.03-5.115-90.237-0.507-109.283c32.919,10.106,67.03,15.293,101.712,15.405c34.639-0.112,68.743-5.299,101.661-15.405
			c4.609,19.047,12.665,64.253-0.504,109.282h-10.72c-4.831-0.22-9.584,1.546-13.093,4.852c-3.549,3.344-5.585,8.053-5.585,12.921
			v9.116c-7.383,3.126-14.908,5.745-22.549,7.867v-16.178c0-4.38-3.55-7.932-7.932-7.932s-7.932,3.551-7.932,7.932v19.829
			c-3.866,0.71-7.758,1.294-11.673,1.755v-13.432c0-4.38-3.55-7.932-7.932-7.932c-4.381,0-7.932,3.551-7.932,7.932v14.606
			c-1.941,0.06-3.884,0.102-5.835,0.102c-1.95,0-3.894-0.041-5.835-0.102v-14.606c0-4.38-3.551-7.932-7.932-7.932
			s-7.932,3.551-7.932,7.932v13.432c-3.915-0.46-7.807-1.045-11.673-1.755v-19.829c0-4.38-3.551-7.932-7.932-7.932
			s-7.932,3.551-7.932,7.932v16.178c-7.639-2.122-15.163-4.741-22.55-7.867v-9.115C184.216,377.743,182.18,373.034,178.631,369.69z
			 M182.65,417.653c-3.832-4.605-7.362-9.436-10.579-14.485c0.831,0.733,1.777,1.349,2.822,1.807
			c2.569,1.139,5.158,2.205,7.757,3.232V417.653z M168.669,397.525c-3.089-5.382-5.844-10.993-8.261-16.824h5.331V380.7
			c0.158,0,0.315-0.004,0.473-0.014c0.787-0.051,1.301,0.325,1.54,0.55c0.274,0.258,0.6,0.705,0.6,1.375v12.312
			C168.352,395.814,168.464,396.685,168.669,397.525z M351.591,380.699v0.001c-2.417,5.831-5.172,11.443-8.262,16.826
			c0.205-0.841,0.318-1.713,0.318-2.604V382.61c0-0.669,0.327-1.117,0.6-1.375c0.239-0.225,0.752-0.602,1.541-0.55
			c0.157,0.01,0.314,0.014,0.472,0.014H351.591z M339.936,403.152c-3.218,5.053-6.75,9.887-10.584,14.496v-9.442
			c2.588-1.022,5.164-2.083,7.72-3.217C338.136,404.523,339.096,403.897,339.936,403.152z M396.262,317.057
			c-1.927,57.996-20.508,105.973-55.227,142.598c-20.476,21.6-47.614,34.282-77.102,36.214v-26.104
			c16.609-0.752,33.124-3.86,48.945-9.337c8.668-3,14.828-10.5,16.188-19.286c19.055-18.197,33.013-40.337,41.48-65.877
			c17.262-52.035,7.542-103.988,2.291-124.742c1.417-0.507,2.836-1.003,4.249-1.527c4.106-1.526,6.197-6.093,4.671-10.199
			c-1.528-4.106-6.096-6.197-10.199-4.67c-37.08,13.786-75.967,20.841-115.532,20.969c-39.616-0.128-78.504-7.183-115.582-20.969
			c-4.108-1.526-8.673,0.564-10.199,4.67c-1.526,4.105,0.565,8.672,4.67,10.199c1.412,0.525,2.832,1.021,4.249,1.527
			c-5.252,20.754-14.973,72.708,2.291,124.74c8.469,25.544,22.43,47.686,41.486,65.883c1.361,8.782,7.521,16.28,16.187,19.28
			c15.821,5.477,32.336,8.585,48.945,9.337v26.104c-29.488-1.932-56.625-14.612-77.101-36.213
			c-34.719-36.625-53.301-84.603-55.227-142.598c-1.246-37.488,5.556-76.679,20.217-116.484
			c11.803-32.046,28.695-64.557,50.205-96.633c28.66-42.736,58.065-73.388,69.839-85.01c11.774,11.622,41.179,42.275,69.839,85.01
			c21.511,32.075,38.403,64.587,50.205,96.633C390.705,240.379,397.508,279.57,396.262,317.057z"/>
	</g>
</g>
<g>
</g>
<g>
</g>
<g>
</g>
<g>
</g>
<g>
</g>
<g>
</g>
<g>
</g>
<g>
</g>
<g>
</g>
<g>
</g>
<g>
</g>
<g>
</g>
<g>
</g>
<g>
</g>
<g>
</g>
</svg>
