<?xml version="1.0" encoding="iso-8859-1"?>
<!-- Generator: Adobe Illustrator 19.0.0, SVG Export Plug-In . SVG Version: 6.00 Build 0)  -->
<svg version="1.1" id="Capa_1" xmlns="http://www.w3.org/2000/svg" xmlns:xlink="http://www.w3.org/1999/xlink" x="0px" y="0px"
	 viewBox="0 0 52 52" style="enable-background:new 0 0 52 52;" xml:space="preserve">
<g>
	<g>
		<rect x="16.5" y="28" width="7" height="2"/>
		<path d="M44.5,50V1c0-0.552-0.448-1-1-1h-34c-0.552,0-1,0.448-1,1v49h-5v2h6h3h28h3h5v-2H44.5z M13.5,50V5h26v45H13.5z M41.5,50V4
			c0-0.552-0.448-1-1-1h-28c-0.552,0-1,0.448-1,1v46h-1V2h32v48H41.5z"/>
	</g>
</g>
<g>
</g>
<g>
</g>
<g>
</g>
<g>
</g>
<g>
</g>
<g>
</g>
<g>
</g>
<g>
</g>
<g>
</g>
<g>
</g>
<g>
</g>
<g>
</g>
<g>
</g>
<g>
</g>
<g>
</g>
</svg>
