<?xml version="1.0" encoding="UTF-8"?>
<svg width="512" height="512" version="1.1" viewBox="0 0 135.47 135.47" xmlns="http://www.w3.org/2000/svg">
  <path d="M 159.38051,117.66986 c -37.36475,0 -67.734881,30.36786 -67.734881,67.73333 0,37.3656 30.370131,67.73333 67.734881,67.73333 37.36472,0 67.73178,-30.36773 67.73178,-67.73333 0,-37.36547 -30.3671,-67.73337 -67.73178,-67.73333 z m 0,7.39851 c 33.28339,-3e-5 60.33327,27.05072 60.33327,60.33482 0,33.28422 -27.04984,60.33482 -60.33327,60.33482 -33.28346,0 -60.336366,-27.0506 -60.336366,-60.33482 0,-33.2841 27.052906,-60.33482 60.336366,-60.33482 zM 159.46031,130.04161 v 37.14712 c -0.002,0 -0.004,0 -0.006,0 -3.33286,0 -6.44163,0.87978 -9.11654,2.41553 l -18.56691,-32.15554 c -8.40837,4.85746 -15.40934,11.8573 -20.26733,20.26543 l 32.15649,18.56691 c -1.53653,2.67548 -2.41696,5.78506 -2.41696,9.11892 0,0.002 0,0.004 0,0.006 H 104.0972 c 4.8e-4,10.09545 2.70373,19.54351 7.40711,27.6863 l 32.15887,-18.56548 c 1.59434,2.77723 3.89763,5.08361 6.67252,6.68012 l -18.56644,32.15886 c 8.14191,4.70555 17.59176,7.40996 27.6882,7.40996 h 0.003 v -37.14712 c 3.33308,-9.2e-4 6.44323,-0.88367 9.11987,-2.42313 l 18.56833,32.15744 c 8.40762,-4.85893 15.40924,-11.8603 20.26781,-20.26828 L 175.25759,194.5249 c 1.53824,-2.67685 2.42063,-5.78657 2.42171,-9.11892 h 37.14712 v -0.003 c -4e-5,-10.09729 -2.70396,-19.54669 -7.40995,-27.68915 l -32.1565,18.56881 c -1.59554,-2.77549 -3.90066,-5.07961 -6.67727,-6.67442 l 18.56358,-32.15697 c -8.14293,-4.70401 -17.58997,-7.40948 -27.68582,-7.40996 z" color="#000000" color-rendering="auto" dominant-baseline="auto" image-rendering="auto" solid-color="#000000"/>
</svg>







