<?xml version="1.0" encoding="iso-8859-1"?>
<!-- Generator: Adobe Illustrator 19.0.0, SVG Export Plug-In . SVG Version: 6.00 Build 0)  -->
<svg version="1.1" id="Layer_1" xmlns="http://www.w3.org/2000/svg" xmlns:xlink="http://www.w3.org/1999/xlink" x="0px" y="0px"
	 viewBox="0 0 502.865 502.865" style="enable-background:new 0 0 502.865 502.865;" xml:space="preserve">
<g>
	<g>
		<path d="M423.62,250.971l-0.284-1.096c-43.495-136.5-173.188-233.404-178.688-237.462L227.822,0l1.149,20.875
			c0.043,0.798,3.486,80.635-74.591,147.663C69.995,240.99,70.452,300.75,70.697,332.856l0.024,4.423
			c0,86.901,63.355,152.026,154.209,163.523c7.674,1.395,15.551,2.064,23.358,2.064c1.045,0,2.05-0.149,3.091-0.172
			c0.858,0.009,1.677,0.105,2.538,0.105c99.971,0,178.279-80.471,178.279-183.202C432.197,294.99,423.971,252.76,423.62,250.971z
			 M323.74,418.769c-3.788,34.375-28.452,59.942-61.375,63.615c-2.438,0.27-5.692,0.535-9.421,0.683
			c-9.046-0.039-17.757-0.736-26.255-1.807c-20.801-3.97-42.442-15.451-45.829-45.751l-0.707-6
			c-2.5-20.99-5.086-42.702,39.298-90.337c16.697-17.923,31.596-37.01,44.409-56.875c21.255,24.625,37.769,49.173,49.231,73.202
			C323.605,376.529,324.384,412.933,323.74,418.769z M326.929,465.206c8.767-12.517,14.546-27.573,16.388-44.282
			c0.938-8.5,0.173-48.663-12.529-74.067c-13.736-28.798-34.279-58.269-61.067-87.606l-8.938-9.798l-6.788,11.394
			c-13.572,22.769-30.038,44.606-48.947,64.904c-50.62,54.317-47.197,83.029-44.447,106.096l0.697,5.914
			c1.16,10.377,4.065,19.213,8.18,26.819c-48.82-24.043-79.064-69.807-79.064-127.3l-0.024-4.577
			c-0.221-28.904-0.635-82.721,76.817-149.221c61.625-52.904,76.813-112.817,80.423-143.433
			c35.12,29.5,123.514,111.577,156.769,215.26c0.962,5.01,8.106,42.99,8.106,64.288
			C412.505,383.945,378.127,438.387,326.929,465.206z"/>
	</g>
</g>
<g>
</g>
<g>
</g>
<g>
</g>
<g>
</g>
<g>
</g>
<g>
</g>
<g>
</g>
<g>
</g>
<g>
</g>
<g>
</g>
<g>
</g>
<g>
</g>
<g>
</g>
<g>
</g>
<g>
</g>
</svg>
