<?xml version="1.0" encoding="iso-8859-1"?>
<!-- Generator: Adobe Illustrator 18.0.0, SVG Export Plug-In . SVG Version: 6.00 Build 0)  -->
<!DOCTYPE svg PUBLIC "-//W3C//DTD SVG 1.1//EN" "http://www.w3.org/Graphics/SVG/1.1/DTD/svg11.dtd">
<svg version="1.1" id="Capa_1" xmlns="http://www.w3.org/2000/svg" xmlns:xlink="http://www.w3.org/1999/xlink" x="0px" y="0px"
	 viewBox="0 0 491.365 491.365" style="enable-background:new 0 0 491.365 491.365;" xml:space="preserve">
<g>
	<path d="M344.881,113.51V46.952C344.881,21.063,323.819,0,297.93,0c-16.513,0-31.051,8.576-39.424,21.509
		c-4.188-2.19-8.833-3.354-13.622-3.354c-15.75,0-28.653,12.423-29.425,27.938c-1.702-0.43-3.586-0.63-6.075-0.63
		c-16.246,0-29.463,13.217-29.463,29.414l-0.01,0.847c-14.587,1.75-25.934,14.195-25.934,29.276l0.027,3.639
		c-13.939,1.091-21.867,10.802-21.866,27.103l0.673,32.281c-6.271,14.61-6.838,42.246-0.548,69.501
		c2.632,11.406,5.807,19.779,9.483,29.475c7.672,20.234,18.179,47.947,32.017,126.437c15.022,85.207,57.12,97.93,80.877,97.93
		c8.619,0,14.688-1.722,15.895-2.093c2.099-0.501,18.28-4.762,33.169-20.069c14.25-14.65,29.958-42.636,23.871-92.764
		c-11.492-94.65-0.742-126.36,15.699-160.824c1.444-3.027,3.194-6.264,5.048-9.691c6.36-11.76,14.274-26.396,15.144-43.297
		C364.331,145.808,358.234,129.656,344.881,113.51z M297.93,8.5c21.202,0,38.451,17.25,38.451,38.452v16.514h-36.825
		c-2.347,0-4.25,1.903-4.25,4.25s1.903,4.25,4.25,4.25h36.825v32.238c-19.507-19.554-38.501-29.069-58.039-29.069
		c-6.277,0-12.491,1.021-18.61,2.814l-0.254-30.997C259.477,25.75,276.727,8.5,297.93,8.5z M244.884,26.654
		c3.398,0,6.693,0.823,9.664,2.371c-2.296,5.536-3.57,11.601-3.57,17.961l0.278,33.949c-9.646,3.953-19.003,9.62-27.926,16.053
		l0.592-49.372C223.921,36.058,233.325,26.654,244.884,26.654z M209.384,53.962c2.796,0,4.147,0.246,5.948,1.092l-0.581,48.427
		c-4.512,3.57-8.893,7.262-13.122,10.939c-5.146,4.474-9.711,8.348-13.802,11.735l0.593-51.23
		C188.42,63.366,197.825,53.962,209.384,53.962z M179.811,84.34l-0.564,48.761c-7.032,5.544-12.273,9.269-16.466,11.983
		l-0.304-40.117C162.477,94.647,169.979,86.066,179.811,84.34z M154.069,117.182l0.249,32.917c-0.818,0.443-1.604,0.861-2.372,1.27
		c-3.413,1.816-6.672,3.555-10.846,6.484l-0.463-22.201C140.638,124.191,145.048,118.134,154.069,117.182z M337.431,117.864
		c8.427,9.952,13.574,19.816,15.873,28.551h-54.772c-2.347,0-4.25,1.903-4.25,4.25s1.903,4.25,4.25,4.25h56.282
		c0.446,4.865,0.168,9.537-0.618,14.03h-30.062c-2.347,0-4.25,1.903-4.25,4.25c0,2.347,1.903,4.25,4.25,4.25h27.954
		c-2.801,8.824-7.179,16.926-11.24,24.435c-1.906,3.524-3.707,6.854-5.243,10.074c-17.065,35.77-28.234,68.581-16.465,165.508
		c3.092,25.459,0.535,47.446-7.401,64.908h-57.24c-2.347,0-4.25,1.903-4.25,4.25c0,2.347,1.903,4.25,4.25,4.25h52.733
		c-2.695,4.39-5.793,8.423-9.297,12.073c-13.841,14.418-29.289,18.042-29.432,18.074c-0.133,0.029-0.276,0.069-0.405,0.111
		c-0.054,0.017-5.458,1.736-13.455,1.736c-21.093,0-58.562-11.81-72.506-90.906c-13.977-79.279-24.648-107.424-32.44-127.974
		c-0.602-1.586-1.18-3.114-1.742-4.614h33.836c2.347,0,4.25-1.903,4.25-4.25c0-2.347-1.903-4.25-4.25-4.25h-36.891
		c-1.602-4.729-3.037-9.564-4.351-15.259c-8.025-34.776-3.331-64.301,3.428-69.348c4.77-3.563,8.104-5.337,11.965-7.391
		c8.633-4.592,19.377-10.307,51.268-38.038c29.987-26.075,51.261-37.201,71.135-37.201c17.387,0,34.629,8.917,52.71,27.261
		C333.214,113.088,335.618,115.723,337.431,117.864z"/>
	<path d="M207.434,131.837c-31.161,27.096-41.431,32.559-49.683,36.948c-3.995,2.126-7.77,4.133-13.059,8.084
		c-1.881,1.405-2.267,4.068-0.862,5.948c0.835,1.118,2.113,1.708,3.409,1.708c0.884,0,1.776-0.275,2.54-0.845
		c4.77-3.563,8.105-5.337,11.965-7.39c8.633-4.592,19.378-10.307,51.269-38.038c1.771-1.54,1.959-4.225,0.418-5.996
		C211.89,130.483,209.205,130.297,207.434,131.837z"/>
	<path d="M301.73,392.351c-0.146-0.041-14.68-4.344-26.869-26.333c-1.138-2.052-3.724-2.794-5.778-1.657
		c-2.053,1.138-2.794,3.725-1.657,5.778c13.889,25.058,31.269,30.189,32.001,30.395c0.385,0.108,0.772,0.16,1.153,0.16
		c1.856,0,3.561-1.226,4.089-3.1C305.306,395.333,303.99,392.986,301.73,392.351z"/>
	<path d="M270.917,265.315c7.498-12.256,16.311-17.707,16.484-17.813c2.009-1.202,2.668-3.805,1.47-5.818
		c-1.199-2.019-3.809-2.681-5.825-1.481c-0.423,0.251-10.463,6.322-19.103,20.227c-7.862,12.653-16.078,34.563-10.565,67.086
		c0.352,2.074,2.15,3.54,4.186,3.54c0.235,0,0.475-0.02,0.715-0.06c2.314-0.393,3.872-2.586,3.48-4.9
		C257.725,302.293,260.806,281.844,270.917,265.315z"/>
</g>
<g>
</g>
<g>
</g>
<g>
</g>
<g>
</g>
<g>
</g>
<g>
</g>
<g>
</g>
<g>
</g>
<g>
</g>
<g>
</g>
<g>
</g>
<g>
</g>
<g>
</g>
<g>
</g>
<g>
</g>
</svg>
