<?xml version="1.0" encoding="iso-8859-1"?>
<!-- Generator: Adobe Illustrator 18.0.0, SVG Export Plug-In . SVG Version: 6.00 Build 0)  -->
<!DOCTYPE svg PUBLIC "-//W3C//DTD SVG 1.1//EN" "http://www.w3.org/Graphics/SVG/1.1/DTD/svg11.dtd">
<svg version="1.1" id="Capa_1" xmlns="http://www.w3.org/2000/svg" xmlns:xlink="http://www.w3.org/1999/xlink" x="0px" y="0px"
	 viewBox="0 0 438.643 438.643" style="enable-background:new 0 0 438.643 438.643;" xml:space="preserve">
<g>
	<g>
		<g>
			<path d="M207.11,161.572c-13.301-2.736-26.042,5.922-26.578,6.291c-2.272,1.57-2.841,4.685-1.272,6.956
				c0.97,1.405,2.531,2.158,4.118,2.158c0.98,0,1.97-0.287,2.837-0.887c0.048-0.033,2.548-1.702,6.168-3.114
				c-0.753,0.894-1.202,2.025-1.202,3.204c0,1.319,0.54,2.609,1.47,3.54c0.93,0.93,2.22,1.46,3.53,1.46c1.32,0,2.61-0.53,3.54-1.46
				c0.93-0.931,1.46-2.221,1.46-3.54c0-1.32-0.53-2.601-1.46-3.53c-0.569-0.568-1.279-0.969-2.041-1.212
				c2.383-0.45,4.922-0.586,7.411-0.071c2.704,0.548,5.349-1.183,5.906-3.889C211.555,164.774,209.814,162.13,207.11,161.572z"/>
			<path d="M258.111,167.863c-0.536-0.37-13.279-9.028-26.578-6.291c-2.705,0.558-4.445,3.202-3.889,5.906
				c0.558,2.704,3.201,4.438,5.906,3.889c2.499-0.515,5.04-0.381,7.422,0.068c-0.767,0.242-1.48,0.644-2.052,1.215
				c-0.93,0.93-1.46,2.22-1.46,3.53c0,1.319,0.53,2.609,1.46,3.54c0.931,0.93,2.22,1.46,3.54,1.46c1.311,0,2.601-0.53,3.53-1.46
				c0.93-0.931,1.47-2.221,1.47-3.54c0-1.184-0.452-2.32-1.212-3.216c3.61,1.408,6.106,3.078,6.189,3.134
				c0.864,0.595,1.851,0.879,2.826,0.879c1.588,0,3.148-0.754,4.119-2.158C260.953,172.547,260.384,169.433,258.111,167.863z"/>
		</g>
		<path d="M303.199,328.506c0.116-1.998,0.184-3.944,0.228-5.864c12.766-11.506,19.036-24.454,18.61-38.522
			c-0.738-24.395-21.536-44.387-29.403-51.097c5.283-14.864,4.683-30.441-1.883-45.521c-4.587-10.537-10.771-17.85-13.311-20.599
			c-2.53-13.39-21.09-107.353-53.778-164.489c-1.37-2.396-4.582-2.995-6.823-1.857c-1.052,0.534-1.857,1.857-1.857,1.857
			c-32.687,57.135-51.247,151.092-53.779,164.487c-2.538,2.747-8.723,10.061-13.312,20.6c-6.565,15.079-7.164,30.657-1.882,45.521
			c-7.865,6.708-28.664,26.698-29.403,51.097c-0.427,14.068,5.845,27.018,18.612,38.524c0.043,1.92,0.109,3.863,0.225,5.861
			l-10.686,22.038c-0.764,1.575-0.648,3.435,0.304,4.902c0.403,0.622,5.939,8.762,22.629,16.155l8.059,33.356
			c-7.656,2.418-17.181,9.938-20.169,27.863c-0.242,1.45,0.167,2.933,1.117,4.054c0.95,1.122,2.345,1.769,3.815,1.769h61.921
			c2.761,0,5-2.238,5-5v-25.21c0.149-2.082,1.407-11.024,11.888-11.024c10.524,0,11.747,9.017,11.887,11.015v25.22
			c0,2.762,2.238,5,5,5h61.921c1.47,0,2.865-0.646,3.815-1.769c0.95-1.121,1.358-2.603,1.116-4.054
			c-2.988-17.926-12.513-25.445-20.169-27.863l8.059-33.356c16.691-7.394,22.228-15.533,22.631-16.155
			c0.952-1.468,1.067-3.327,0.304-4.902L303.199,328.506z M312.042,284.455c0.248,8.452-2.758,16.527-8.932,24.109
			c-2.227-32.003-14.243-50.759-19.645-57.675c1.743-2.663,3.388-5.416,4.901-8.26C296.292,249.889,311.506,266.158,312.042,284.455
			z M219.321,319.581c-45.402,0-66.896-16.26-72.523-21.364c3.17-19.707,10.243-32.49,14.55-38.765
			c22.288,28.266,54.18,44.152,55.764,44.988c1.099,0.58,3.286,0.565,4.417,0c1.602-0.8,33.476-16.723,55.765-44.99
			c4.309,6.275,11.387,19.069,14.555,38.795C286.307,303.355,265.095,319.581,219.321,319.581z M230.479,329.256v19.523
			c-3.558,0.223-7.262,0.354-11.157,0.354c-3.896,0-7.6-0.132-11.158-0.354v-19.523c3.566,0.208,7.276,0.325,11.157,0.325
			C223.203,329.581,226.913,329.464,230.479,329.256z M198.164,328.384v19.462c-32.412-4.075-48.532-16.718-52.763-20.555
			c-0.331-6.172-0.279-11.939,0.077-17.296C154.283,316.32,170.994,325.204,198.164,328.384z M240.479,328.384
			c27.176-3.182,43.884-12.065,52.687-18.389c0.355,5.357,0.407,11.125,0.075,17.297c-4.233,3.838-20.355,16.478-52.762,20.554
			V328.384z M219.322,15.363c23.967,46.216,39.829,113.12,45.847,141.401c-19.485-11.967-43.51-11.775-45.84-11.727
			c-2.236-0.053-26.323-0.268-45.854,11.727C179.493,128.483,195.355,61.579,219.322,15.363z M219.315,155.027
			c0.048,0.001,29.035-0.528,46.721,14.71l-4.184,5.242c-1.033,1.295-1.357,3.023-0.865,4.605
			c1.895,6.108,3.336,16.439,0.607,20.283c-0.418,0.592-1.041,1.2-2.451,1.423c-2.967-1.069-11.151-3.657-23.156-4.651
			c0.993-2.031,1.555-4.272,1.555-6.632c0-9.083-8.174-16.473-18.221-16.473c-10.047,0-18.221,7.39-18.221,16.473
			c0,2.36,0.563,4.603,1.556,6.634c-12.004,0.994-20.19,3.58-23.158,4.649c-1.409-0.223-2.032-0.831-2.451-1.423
			c-2.728-3.844-1.286-14.175,0.607-20.278c0.495-1.585,0.171-3.313-0.865-4.61l-4.184-5.242
			C190.225,154.556,219.271,155.028,219.315,155.027z M220.827,196.364c-1.186,0.222-1.657,0.247-3.007,0.001
			c-3.818-0.558-6.72-3.193-6.72-6.357c0-3.569,3.688-6.473,8.221-6.473c4.534,0,8.221,2.903,8.221,6.473
			C227.542,193.171,224.643,195.806,220.827,196.364z M226.169,211.39c-0.188,2.398-3.307,4.455-6.848,4.455
			c-3.54,0-6.659-2.057-6.847-4.455c0.638-1.128,3.694-3.111,6.852-4.518C222.479,208.271,225.528,210.253,226.169,211.39z
			 M165.651,177.055l1.73,2.167c-1.442,5.709-3.893,18.801,1.501,26.421c1.764,2.492,5.129,5.508,11.144,5.725
			c0.713,0.022,1.433-0.107,2.091-0.377c0.107-0.044,8.205-3.299,21.611-4.393c-0.785,1.385-1.264,2.905-1.264,4.564
			c0,8.097,7.562,14.684,16.855,14.684c9.295,0,16.856-6.587,16.856-14.684c0-1.659-0.478-3.18-1.264-4.564
			c13.407,1.094,21.502,4.347,21.6,4.388c0.664,0.277,1.381,0.409,2.103,0.382c6.014-0.217,9.379-3.232,11.145-5.725
			c5.393-7.62,2.941-20.712,1.5-26.421l1.701-2.131c7.15,9.169,21.145,32.265,7.342,59.378
			c-16.277,31.973-51.787,52.835-60.982,57.835c-9.195-5-44.706-25.862-60.982-57.835
			C144.394,209.078,158.432,186.167,165.651,177.055z M126.601,284.455c0.537-18.302,15.754-34.568,23.675-41.824
			c1.514,2.844,3.158,5.596,4.901,8.259c-5.396,6.905-17.419,25.658-19.645,57.674C129.359,300.982,126.353,292.907,126.601,284.455
			z M258.725,414.016c0,0,18.2-0.002,18.248-0.004c0.113,0.013,10.266-0.24,14.869,14.631h-50.634c0,0-0.002-20.522-0.005-20.599
			c-0.328-7.138-5.323-20.636-21.882-20.636c-16.558,0-21.554,13.498-21.882,20.636c-0.003,0.076-0.005,20.599-0.005,20.599h-50.641
			c4.38-14.271,13.768-14.635,14.876-14.631c0.048,0.002,18.248,0.004,18.248,0.004c2.761,0,5-2.238,5-5c0-2.762-2.239-5-5-5
			h-14.107l-6.804-28.163c14.124,4.476,33.643,7.909,60.315,7.909c26.672,0,46.191-3.434,60.314-7.909l-6.803,28.163h-14.107
			c-2.762,0-5,2.238-5,5C253.725,411.778,255.964,414.016,258.725,414.016z M219.321,373.763c-56.898,0-78.354-16.159-84.126-21.824
			l6.943-14.32c9.801,7.602,33.675,21.516,77.184,21.516c43.509,0,67.382-13.914,77.182-21.516l6.943,14.318
			C297.661,357.599,276.143,373.763,219.321,373.763z"/>
	</g>
</g>
<g>
</g>
<g>
</g>
<g>
</g>
<g>
</g>
<g>
</g>
<g>
</g>
<g>
</g>
<g>
</g>
<g>
</g>
<g>
</g>
<g>
</g>
<g>
</g>
<g>
</g>
<g>
</g>
<g>
</g>
</svg>
