<?xml version="1.0" encoding="iso-8859-1"?>
<!-- Generator: Adobe Illustrator 19.0.0, SVG Export Plug-In . SVG Version: 6.00 Build 0)  -->
<svg version="1.1" id="Capa_1" xmlns="http://www.w3.org/2000/svg" xmlns:xlink="http://www.w3.org/1999/xlink" x="0px" y="0px"
	 viewBox="0 0 490 490" style="enable-background:new 0 0 490 490;" xml:space="preserve">
<path d="M128.833,334.605c32.081,29.39,62.382,57.15,76.074,82.153L245.014,490l40.096-73.247
	c13.688-25.004,43.988-52.766,76.068-82.158c59.669-54.669,127.3-116.632,127.653-200.181c0.144-33.927-13.428-66.322-38.218-91.217
	C423.278,15.745,384.441,0,344.059,0c-38.281,0-73.14,13.846-99.055,36.422C219.087,13.846,184.224,0,145.939,0
	C66.112,0,1.168,60.211,1.168,134.221C1.518,217.967,69.157,279.933,128.833,334.605z M145.939,45.719
	c54.72,0,99.067,39.607,99.067,88.502c0-48.895,44.334-88.502,99.053-88.502c54.705,0,99.261,39.607,99.053,88.502
	C442.674,237.755,289.858,312.866,245.006,394.8C200.14,312.866,47.319,237.755,46.887,134.221
	C46.887,85.326,91.225,45.719,145.939,45.719z"/>
<g>
</g>
<g>
</g>
<g>
</g>
<g>
</g>
<g>
</g>
<g>
</g>
<g>
</g>
<g>
</g>
<g>
</g>
<g>
</g>
<g>
</g>
<g>
</g>
<g>
</g>
<g>
</g>
<g>
</g>
</svg>
