<?xml version="1.0" encoding="iso-8859-1"?>
<!-- Generator: Adobe Illustrator 19.0.0, SVG Export Plug-In . SVG Version: 6.00 Build 0)  -->
<svg version="1.1" id="Layer_1" xmlns="http://www.w3.org/2000/svg" xmlns:xlink="http://www.w3.org/1999/xlink" x="0px" y="0px"
	 viewBox="0 0 210.1 210.1" style="enable-background:new 0 0 210.1 210.1;" xml:space="preserve">
<g>
	<g>
		<g>
			<path d="M185.859,0H24.242C10.874,0,0,10.874,0,24.242v161.616C0,199.226,10.874,210.1,24.242,210.1h161.616
				c13.368,0,24.242-10.874,24.242-24.242V24.242C210.101,10.874,199.227,0,185.859,0z M202.02,185.859
				c0,8.912-7.248,16.162-16.162,16.162H24.242c-8.914,0-16.162-7.25-16.162-16.162V24.242c0-8.912,7.248-16.162,16.162-16.162
				h161.616c8.914,0,16.162,7.25,16.162,16.162V185.859z"/>
			<path d="M129.293,80.808H80.808V32.323H32.323v145.455h48.485v-48.485h48.485v48.485h48.485V32.323h-48.485V80.808z
				 M137.373,40.404L137.373,40.404h32.324v129.293h-32.323v-48.485H72.727v48.485H40.404V40.404h32.323v48.485h64.646V40.404z"/>
		</g>
	</g>
</g>
<g>
</g>
<g>
</g>
<g>
</g>
<g>
</g>
<g>
</g>
<g>
</g>
<g>
</g>
<g>
</g>
<g>
</g>
<g>
</g>
<g>
</g>
<g>
</g>
<g>
</g>
<g>
</g>
<g>
</g>
</svg>
