<?xml version="1.0" encoding="iso-8859-1"?>
<!-- Generator: Adobe Illustrator 18.1.1, SVG Export Plug-In . SVG Version: 6.00 Build 0)  -->
<svg version="1.1" id="Capa_1" xmlns="http://www.w3.org/2000/svg" xmlns:xlink="http://www.w3.org/1999/xlink" x="0px" y="0px"
	 viewBox="0 0 374.006 374.006" style="enable-background:new 0 0 374.006 374.006;" xml:space="preserve">
<g>
	<g>
		<path style="fill:#010002;" d="M228.841,202.224c4.819,6.288,12.091,10.089,19.51,10.421c0.8,0.092,1.599,0.12,2.393,0.12
			l2.078-0.087c2.736-0.185,5.292-0.778,7.647-1.779l53.662-27.505c13.505-6.929,19.238-23.627,12.782-37.214l-2.747-5.776
			c-4.525-9.507-13.881-15.414-24.416-15.414c-4.351,0-8.724,1.061-12.662,3.079l-20.135,10.345l-9.399-22.741
			c-1.92-4.03-4.482-7.604-7.457-10.671c23.421-4.944,41.098-26.379,41.098-51.976C291.194,23.78,268.116,0,239.746,0
			c-28.365,0-51.443,23.78-51.443,53.025c0,7.18,1.409,14.022,3.922,20.266c-2.921-0.288-5.891-0.174-8.751,0.517
			c-0.887-0.071-1.779-0.12-2.687-0.12H96.721c-4.117,0-8.191,0.647-12.107,1.931c-7.539,1.702-13.984,6.706-17.508,13.315
			c-0.631,1.033-1.153,2.099-1.675,3.285c-1.452,3.35-2.154,6.587-2.154,9.85v60.635c0,15.659,12.145,28.397,27.081,28.397h6.206
			c14.925,0,27.07-12.738,27.07-28.397v-25.536h17.34l-33.679,67.368c-3.378,6.576-3.981,14.163-1.762,21.207
			c-0.011,0.087-0.011,0.174-0.011,0.256v32.988H75.65c-17.209,0-31.209,14.365-31.209,32.009v8.066
			c0,17.65,14,32.014,31.209,32.014h68.848c17.198,0,31.198-14.365,31.198-32.014v-17.976l80.259,83.403
			c5.907,6.146,13.788,9.518,22.202,9.518s16.306-3.372,22.213-9.518l5.493-5.711c11.922-12.385,11.922-32.569,0-44.976
			l-94.39-98.066l11.166-22.344C224.316,196.617,226.399,199.57,228.841,202.224z M239.746,21.479
			c16.535,0,29.98,14.158,29.98,31.568c0,17.405-13.445,31.579-29.98,31.579c-16.529,0-29.975-14.169-29.975-31.579
			C209.772,35.631,223.217,21.479,239.746,21.479z M290.395,328.694c3.965,4.128,3.965,11.085,0,15.213l-5.493,5.7
			c-3.644,3.791-9.845,3.791-13.483,0L173.226,247.57l-2.709-2.377l-16.29-3.905v57.774c0,5.82-4.368,10.541-9.736,10.541H75.644
			c-5.374,0-9.741-4.721-9.741-10.541v-8.066c0-5.814,4.368-10.541,9.741-10.541h51.334l-0.005-54.086l0.348-3.883l-1.05-2.448
			c-0.816-1.898-0.778-3.976,0.158-5.814l49.272-98.501h-73.536v47.004c0,3.753-2.573,6.929-5.608,6.929h-6.206
			c-3.04,0-5.608-3.176-5.608-6.929v-60.64c0-0.12,0.038-0.522,0.174-0.865l0.794-1.588c0.897-1.681,2.284-2.807,3.78-3.095
			l1.474-0.402c1.855-0.636,3.791-0.968,5.749-0.968h84.061c0.789,0,1.55,0.109,2.306,0.19l2.464,0.31l2.355-0.805
			c1.398-0.484,2.845-0.381,4.117,0.337l38.318,21.218c0.381,0.218,0.734,0.457,1.05,0.723l0.968,0.756
			c1.67,1.126,4.025,3.269,5.586,6.511l18.069,43.779l40.896-21.006c2.992-1.523,6.505-0.402,7.876,2.475l2.741,5.776
			c1.507,3.155,0.038,7.234-3.198,8.898l-52.28,26.847c0,0-0.234,0.103-0.887,0.114l-0.413,0.038v10.72l-0.756-10.644
			c0.071-0.016,0.109-0.016,0.163-0.022l-0.163,0.022l-0.011-0.136c-1.708-0.082-3.242-0.887-4.194-2.208l-0.936-1.12
			c-1.436-1.501-2.616-3.231-3.296-4.623l-17.128-41.473l-38.933,77.86L290.395,328.694z"/>
		<path style="fill:#010002;" d="M250.157,191.368l0.587-0.054v-0.016C250.777,191.297,250.516,191.314,250.157,191.368z"/>
	</g>
</g>
<g>
</g>
<g>
</g>
<g>
</g>
<g>
</g>
<g>
</g>
<g>
</g>
<g>
</g>
<g>
</g>
<g>
</g>
<g>
</g>
<g>
</g>
<g>
</g>
<g>
</g>
<g>
</g>
<g>
</g>
</svg>
