<?xml version='1.0' encoding='utf-8'?>
<!DOCTYPE svg PUBLIC '-//W3C//DTD SVG 1.1//EN' 'http://www.w3.org/Graphics/SVG/1.1/DTD/svg11.dtd'>
<svg version="1.1" xmlns="http://www.w3.org/2000/svg" viewBox="0 0 512 512" xmlns:xlink="http://www.w3.org/1999/xlink" enable-background="new 0 0 512 512">
  <g>
    <path d="m249.9,11.1c-76.1,3.1-139.7,65.7-142.8,141.8-2.1,39.6 11.5,78.2 38.6,107.4 37.5,40.7 57.3,91.7 57.3,144.9 0,0.2 0,64.6 0,64.6 0,6.3 4.2,10.4 10.4,10.4h32.3v10.4c0,6.3 4.2,10.4 10.4,10.4 6.3,0 10.4-4.2 10.4-10.4v-10.4h32.3c5.2,0 10.4-5.2 10.4-10.4 0,0 0-64.5 0-64.6 0-54.2 19.8-104.2 55.2-142.8 26.1-28.1 40.7-64.6 40.7-102.1 0.1-84.6-69.8-152.3-155.2-149.2zm38.5,448.2h-64.6v-42.7h64.6v42.7zm61.5-211.6c-37.5,39.6-59.4,91.7-61.5,147h-64.6c-3.1-54.2-25-106.3-62.5-148-22.9-26.1-35.4-58.4-33.4-92.8 3.1-65.7 57.3-118.8 123-122 73-3.1 133.4,56.3 133.4,128.2 5.68434e-14,32.4-12.5,63.6-34.4,87.6z"/>
  </g>
</svg>
