<svg height="512pt" viewBox="0 0 512.00191 512" width="512pt" xmlns="http://www.w3.org/2000/svg"><path d="m498.03125 440.175781c-9.300781-36.910156-29.015625-64.945312-54.085938-76.917969l-59.167968-28.257812c-.847656-.878906-2.8125-4.519531-2.8125-10.324219v-57.101562c1.878906-3.109375 3.632812-6.277344 5.269531-9.5 43.082031-6.878907 78.316406-30.03125 97.484375-64.382813 16.417969-29.421875 18.53125-63.105468 5.652344-90.105468-7.765625-16.28125-7.460938-34.039063.902344-52.773438 6.757812-15.152344 16.402343-25.273438 16.460937-25.335938 4.808594-4.929687 5.640625-12.5 2.023437-18.359374-3.621093-5.855469-10.765624-8.5-17.324218-6.402344-1.023438.324218-25.265625 8.160156-48.015625 23.476562-42.304688 28.484375-45.101563 58.9375-40 79.464844 3.308593 13.308594 1.292969 18.769531-.832031 22.039062-2.199219 3.386719-6.191407 6.617188-12.066407 9.761719-15.136719-34.148437-44.144531-60.097656-81.503906-70.535156-10.773437-10.167969-29.738281-24.175781-52.457031-24.175781-22.15625 0-40.78125 13.417968-51.441406 23.230468-39.054688 10.007813-69.378907 36.433594-85.023438 71.644532-16.835938-8.8125-17.066406-17.691406-13.515625-31.960938 5.101563-20.53125 2.304687-50.984375-40-79.464844-22.75-15.316406-46.992187-23.152343-48.015625-23.480468-6.5625-2.097656-13.703125.546875-17.324219 6.402344-3.617187 5.859374-2.785156 13.429687 2.023438 18.359374.09375.09375 9.367187 9.824219 16.113281 24.5625 8.707031 19.019532 9.125 37.035157 1.25 53.546876-12.839844 26.917968-10.683594 60.59375 5.769531 90.074218 19.285157 34.5625 54.640625 57.847656 97.824219 64.757813 1.558594 3.054687 3.222656 6.0625 5.003906 9.019531v57.027344c0 5.875-1.984375 9.5625-2.839844 10.445312l-59.164062 28.394532c-25.0625 12.023437-44.769531 40.179687-54.042969 77.167968l-13.515625 52.792969c-2.054687 8.027344 2.785156 16.199219 10.808594 18.253906 1.25.316407 2.5.46875 3.730469.46875 6.691406 0 12.789062-4.503906 14.523437-11.28125l13.53125-52.867187c7.015625-27.960938 21.199219-49.457032 37.945313-57.492188l59.472656-28.539062c11.878906-5.699219 19.550781-20.355469 19.550781-37.34375v-21.425782c9.019532 7.773438 18.972656 14.417969 29.675782 19.8125l-9.730469 15.867188c-2.09375 3.414062-3.839844 7.011719-5.25 10.722656-.421875.976563-.824219 1.960938-1.179688 2.964844-.335937.929688-.5625 1.875-.707031 2.816406-4.234375 15.339844-2.894531 32.148438 4.199219 46.800782 4.472656 9.242187 10.769531 16.765624 18.320312 22.195312-2.371093 7.28125-3.679687 15.199219-3.679687 22.921875 0 35.742187 28.769531 64.816406 64.128906 64.816406s64.128906-29.074219 64.128906-64.816406c0-7.652344-1.355468-15.425781-3.859375-22.671875 7.703125-5.460938 14.121094-13.082031 18.65625-22.484375 9.761719-20.246094 8.578125-44.550781-3.097656-63.433594l-9.609375-15.542969c10.722656-5.398437 20.699219-12.0625 29.746094-19.863281v21.53125c0 16.945313 7.683594 31.566407 19.574218 37.246094l59.476563 28.40625c16.738281 7.996094 30.917969 29.371094 37.933594 57.210937l13.511719 53.148438c1.726562 6.789062 7.828124 11.308594 14.527343 11.308594 1.222657 0 2.464844-.152344 3.707031-.46875 8.027344-2.039063 12.882813-10.203125 10.839844-18.230469zm-69.285156-298.136719c7.957031-12.25 9.476562-26.746093 4.789062-45.617187-3.953125-15.890625 4.75-31.402344 25.863282-46.128906-7.269532 22.839843-5.980469 45.5 3.894531 66.207031 8.699219 18.238281 6.914062 41.628906-4.773438 62.574219-12.105469 21.695312-33.023437 37.59375-59.121093 45.5 2.472656-10.785157 3.738281-21.898438 3.738281-33.179688 0-9.25-.878907-18.257812-2.550781-26.941406 13.402343-6.285156 22.324218-13.429687 28.160156-22.414063zm-267.414063-15.609374c13.871094-17.355469 33.054688-29.171876 55.480469-34.167969 2.765625-.617188 5.300781-2.003907 7.3125-4 5.296875-5.265625 19.160156-17.515625 33.433594-17.515625 14.632812 0 28.730468 12.726562 34.113281 18.199218 1.953125 1.980469 4.417969 3.382813 7.121094 4.046876 21.59375 5.296874 40.054687 17.195312 53.382812 34.410156 8.921875 11.527344 15.089844 24.929687 18.320313 39.539062l-40.402344 20.054688c-16.289062 8.035156-27.460938 24.515625-29.898438 44.101562l-11.257812 81.804688c-9.859375-2.683594-20.738281-4.15625-32.304688-4.214844-.246093-.003906-.492187-.003906-.738281-.003906-11.742187 0-22.78125 1.453125-32.78125 4.152344-.066406-.550782-.167969-1.089844-.292969-1.625l-10.734374-79.964844c-2.394532-19.671875-13.574219-36.222656-29.890626-44.273438l-40.109374-19.90625c3.382812-15.105468 9.863281-28.890625 19.246093-40.636718zm146.570313 262.519531c-1.808594 3.753906-4.160156 6.90625-6.902344 9.34375-.082031-8.214844-6.757812-14.851563-14.996094-14.851563-8.28125 0-15 6.714844-15 15v6.894532c-9.917968.496093-20.101562.488281-30.015625-.015626v-6.882812c0-8.28125-6.714843-15-15-15-8.183593 0-14.828125 6.5625-14.984375 14.710938-2.683594-2.414063-4.988281-5.515626-6.773437-9.199219-4.285157-8.859375-4.757813-19.113281-1.550781-28.113281 6.171874-13.253907 27.835937-22.265626 53.796874-22.152344 26.648438.136718 48.640626 10.011718 53.484376 24.015625.074218.222656.167968.433593.253906.644531 2.304687 8.359375 1.574218 17.550781-2.3125 25.605469zm-254.3125-209.90625c-11.71875-21.003907-13.546875-44.386719-4.886719-62.542969 9.875-20.707031 11.167969-43.367188 3.894531-66.203125 16.527344 11.464844 30.570313 27.191406 25.867188 46.125-4.628906 18.617187-2.972656 33.570313 5.058594 45.71875 5.933593 8.972656 14.953124 16.105469 28.480468 22.40625-1.679687 8.621094-2.597656 17.566406-2.648437 26.765625-.058594 11.421875 1.183593 22.671875 3.679687 33.589844-26.203125-7.960938-47.234375-23.980469-59.445312-45.859375zm106.4375 79.300781c-12.164063-17.523438-19.148438-37.789062-20.4375-59.027344l29.296875 14.542969c7.144531 3.527344 12.289062 11.597656 13.421875 21.066406.011718.070313.019531.140625.027344.210938l7.0625 52.59375c-11.386719-7.90625-21.332032-17.808594-29.371094-29.386719zm95.96875 223.613281c-18.816406 0-34.125-15.617187-34.125-34.816406 0-4.277344.746094-8.890625 2.023437-13.046875 10.371094 1.070312 21.316407 1.609375 32.269531 1.609375 10.75 0 21.5-.519531 31.703126-1.550781 1.441406 4.132812 2.257812 8.625 2.257812 12.988281 0 19.199219-15.308594 34.816406-34.128906 34.816406zm66.660156-194.019531 7.273438-52.855469c.007812-.070312.019531-.140625.027343-.214843 1.15625-9.421876 6.296875-17.460938 13.441407-20.984376l29.464843-14.625c-1.402343 21.289063-8.46875 41.601563-20.679687 59.164063-8.097656 11.644531-18.09375 21.589844-29.527344 29.515625zm0 0"/><path d="m213.109375 151.808594 35.046875 16.214844c1.996094.921874 4.144531 1.382812 6.296875 1.382812 1.972656 0 3.949219-.386719 5.804687-1.167969l38.636719-16.214843c7.636719-3.203126 11.230469-11.996094 8.023438-19.632813-3.207031-7.640625-11.996094-11.234375-19.632813-8.027344l-32.535156 13.652344-29.042969-13.4375c-7.519531-3.476563-16.433593-.203125-19.914062 7.316406-3.476563 7.519531-.203125 16.433594 7.316406 19.914063zm0 0"/></svg>