<?xml version="1.0" encoding="iso-8859-1"?>
<!-- Generator: Adobe Illustrator 16.0.0, SVG Export Plug-In . SVG Version: 6.00 Build 0)  -->
<!DOCTYPE svg PUBLIC "-//W3C//DTD SVG 1.1//EN" "http://www.w3.org/Graphics/SVG/1.1/DTD/svg11.dtd">
<svg version="1.1" id="Capa_1" xmlns="http://www.w3.org/2000/svg" xmlns:xlink="http://www.w3.org/1999/xlink" x="0px" y="0px"
	 width="958.567px" height="958.567px" viewBox="0 0 958.567 958.567" style="enable-background:new 0 0 958.567 958.567;"
	 xml:space="preserve">
<g>
	<path d="M90.155,299.661v91.854v31.972h24.522l1.18,124.13l-21.07,2.241l3.381,31.793l9.713,91.337l3.381,31.793l26.753-2.845
		l5.811,62.703l2.95,31.835l31.836-2.95l44.043-4.082l0.359,1.685l13.417,62.933l6.666,31.27l31.27-6.666l400.399-85.36
		l31.269-6.666l-6.666-31.271l-2.112-9.907l40.837-3.784h0.004c2.464,10.353,1.263,21.517-3.688,32.562
		c-16.653,37.153-82.257,73.941-106.123,84.979l-20.355,9.391l86.206,89.962l9.428-2.906c1.673-0.517,41.415-12.967,81.51-42.274
		c54.521-39.854,83.34-91.778,83.34-150.16c0-73.643-35.141-115.557-64.621-137.748c-6.562-4.939-13.122-9.121-19.418-12.666
		l-1.237-11.631l-9.713-91.338l-3.381-31.792l-26.075,2.771l0.545-57.335h24.705v-31.975V299.66v-31.972h-26.279l-0.968-71.435
		l-0.433-31.969l-31.969,0.433l-41.008,0.555l1.052-10.075l3.323-31.799l-31.8-3.322l-21.662-2.264l-0.218-2.203l-8.269-83.791
		L607.849,0l-31.817,3.141l-307.237,30.32l-31.818,3.14l3.14,31.817l0.973,9.863l-7.133-0.745l-31.799-3.322l-3.322,31.799
		l-6.686,63.998l-0.179,1.712l-44.228,0.599l-31.969,0.433l0.432,31.969l0.852,62.967H90.153v31.97H90.155z M267.7,847.391
		l-12.988-60.922l410.487-38.043l2.9,13.604L267.7,847.391z M716.744,711.541l-26.2,2.428l-16.027,1.486l-16.029,1.485
		l-154.786,14.345l-135.631,12.57l-135.631,12.568l-56.776,5.263l-5.851-63.134l424.628-45.156l15.985-1.7l15.986-1.699
		l102.179-10.866l4.127,44.531l2.054,22.155l0.372,4.019L716.744,711.541z M785.538,651.759
		c33.777,25.902,50.904,63.404,50.904,111.465c0,48.188-23.395,89.851-69.532,123.833c-25.078,18.47-50.55,29.679-63.688,34.776
		l-41.834-43.653c29.653-16.193,83.997-50.265,102.196-90.868c7.472-16.671,9.482-34.129,6.165-50.529l-2.771-29.896l-6.536-70.527
		C768.22,640.124,776.918,645.148,785.538,651.759z M741.632,513.221l1.862,17.513l6.058,56.968l1.104,10.375l0.689,6.482
		l-8.562,0.909l-1.246,0.134l-24.969,2.654l-122.129,12.987l-443.476,47.161l-11.288,1.2l-2.673-25.136l-3.474-32.672l-3.566-33.529
		l2.172-0.231l102.775-10.93l29.526-3.141l300.15-31.919l29.425-3.129l29.425-3.129l88.223-9.382l16.003-1.702L741.632,513.221z
		 M282.909,529.851l-34.964,3.719l-59.711-110.084h85.491c-10.881,13.2-17.425,30.103-17.425,48.505
		C256.301,495.103,266.636,515.834,282.909,529.851z M213.557,537.226l-65.759,6.992l-1.148-120.732h5.212L213.557,537.226z
		 M288.274,471.99c0-24.482,19.918-44.4,44.4-44.4c24.483,0,44.401,19.918,44.401,44.4c0,24.483-19.918,44.401-44.401,44.401
		S288.274,496.474,288.274,471.99z M504.647,506.271l-111.133,11.817c9.738-12.82,15.532-28.794,15.532-46.099
		c0-18.402-6.543-35.305-17.425-48.505h106.594c-7.269,10.663-11.526,23.535-11.526,37.385
		C486.69,478.408,493.521,494.371,504.647,506.271z M531.594,487.803c-7.877-6.342-12.931-16.056-12.931-26.933
		c0-19.062,15.507-34.568,34.569-34.568c13.561,0,25.316,7.854,30.976,19.246L531.594,487.803z M602.59,471.791l17.11-13.742
		l43.036-34.562h49.804l-0.577,60.738l-101.656,10.811l-22.135,2.354l-17.641,1.876l-1.323-0.664L602.59,471.791z M579.17,34.959
		l7.842,79.463L273.552,81.673l-1.618-16.395L579.17,34.959z M230.635,109.335l13.66,1.427l32.462,3.393l331.675,34.652
		l29.383,3.069l-1.445,13.833l-230.875,3.124l-155.262,2.102l-26.071,0.353L230.635,109.335z M710.002,196.687l0.961,71.002H149.034
		l-0.858-63.399L710.002,196.687z M122.127,324.938v-23.33v-1.947h11.352h593.904h9.864v16.953v6.024v68.875h-8.415h-15.988h-10.298
		h-25.528h-25.53H170.893h-18.186H130.36h-8.233V324.938L122.127,324.938z"/>
</g>
<g>
</g>
<g>
</g>
<g>
</g>
<g>
</g>
<g>
</g>
<g>
</g>
<g>
</g>
<g>
</g>
<g>
</g>
<g>
</g>
<g>
</g>
<g>
</g>
<g>
</g>
<g>
</g>
<g>
</g>
</svg>
