<?xml version="1.0" encoding="iso-8859-1"?>
<!-- Generator: Adobe Illustrator 19.0.0, SVG Export Plug-In . SVG Version: 6.00 Build 0)  -->
<svg version="1.1" id="Layer_1" xmlns="http://www.w3.org/2000/svg" xmlns:xlink="http://www.w3.org/1999/xlink" x="0px" y="0px"
	 viewBox="0 0 291.039 291.039" style="enable-background:new 0 0 291.039 291.039;" xml:space="preserve">
<g>
	<g>
		<g>
			<path d="M281.457,281.664L281.457,281.664v-23.439h-9.375v-14.063v-9.375V94.162h9.375V58.261L145.52,0L9.582,58.261v35.902
				h9.375v140.625v9.375v14.063H9.582v23.438H0.207v9.375h290.625v-9.375H281.457z M18.957,64.439L145.52,10.2l126.562,54.239
				v20.348h-37.5h-28.125h-37.5h-46.875h-37.5H56.457h-37.5V64.439z M262.707,94.162v140.626h-18.75V94.162H262.707z
				 M234.582,94.162v140.625h-28.125V94.162H234.582z M197.082,94.162v140.626h-18.75V94.162H197.082z M168.957,94.162v140.626
				h-46.875V94.162H168.957z M112.707,94.162v140.625h-18.75V94.162H112.707z M84.582,94.162v140.626H56.457V94.162H84.582z
				 M47.082,94.162v140.625h-18.75V94.162H47.082z M81.094,281.663H18.957V267.6h66.356L81.094,281.663z M28.332,258.226v-14.063
				h28.125h28.125h7.762l-4.219,14.063H28.332z M90.882,281.663l11.25-37.5h19.95h46.875h19.95l11.25,37.5H90.882z M198.694,244.162
				h7.763h28.125h28.125v14.063h-59.794L198.694,244.162z M272.082,281.663h-62.137l-4.219-14.063h66.356V281.663z"/>
			<rect x="103.332" y="267.6" width="84.375" height="9.375"/>
			<rect x="103.332" y="253.538" width="84.375" height="9.375"/>
			<rect x="28.332" y="66.037" width="9.375" height="9.375"/>
			<rect x="47.082" y="66.037" width="9.375" height="9.375"/>
			<rect x="65.832" y="66.037" width="9.375" height="9.375"/>
			<rect x="84.582" y="66.037" width="9.375" height="9.375"/>
			<rect x="103.332" y="66.037" width="9.375" height="9.375"/>
			<rect x="122.082" y="66.037" width="9.375" height="9.375"/>
			<rect x="140.832" y="66.037" width="9.375" height="9.375"/>
			<rect x="159.582" y="66.037" width="9.375" height="9.375"/>
			<rect x="178.332" y="66.037" width="9.375" height="9.375"/>
			<rect x="197.082" y="66.037" width="9.375" height="9.375"/>
			<rect x="215.832" y="66.037" width="9.375" height="9.375"/>
			<rect x="234.582" y="66.037" width="9.375" height="9.375"/>
			<rect x="253.332" y="66.037" width="9.375" height="9.375"/>
			<polygon points="122.082,38.273 145.52,47.648 168.957,38.273 168.957,56.662 178.332,56.662 178.332,28.538 168.057,28.538 
				145.52,37.552 122.982,28.538 112.707,28.538 112.707,56.662 122.082,56.662 			"/>
		</g>
	</g>
</g>
<g>
</g>
<g>
</g>
<g>
</g>
<g>
</g>
<g>
</g>
<g>
</g>
<g>
</g>
<g>
</g>
<g>
</g>
<g>
</g>
<g>
</g>
<g>
</g>
<g>
</g>
<g>
</g>
<g>
</g>
</svg>
