<?xml version="1.0" encoding="iso-8859-1"?>
<!-- Generator: Adobe Illustrator 16.0.0, SVG Export Plug-In . SVG Version: 6.00 Build 0)  -->
<!DOCTYPE svg PUBLIC "-//W3C//DTD SVG 1.1//EN" "http://www.w3.org/Graphics/SVG/1.1/DTD/svg11.dtd">
<svg version="1.1" id="Capa_1" xmlns="http://www.w3.org/2000/svg" xmlns:xlink="http://www.w3.org/1999/xlink" x="0px" y="0px"
	 width="496.695px" height="496.695px" viewBox="0 0 496.695 496.695" style="enable-background:new 0 0 496.695 496.695;"
	 xml:space="preserve">
<g>
	<g>
		<path d="M401.922,111.524c-1.696,0.12-3.174,0.577-4.438,1.259c-36.974-52.042-110.34-65.186-173.469-60.06
			c-56.033,4.555-116.501,28.132-139.355,79.49c-24.618,0.173-44.427,10.217-51.13,34.485c-23.811,9.232-41.276,30.44-30.042,57.247
			c7.541,17.991,23.623,27.741,41.282,30.006c-6.784,7.982-11.309,17.347-8.76,27.903c4.626,19.129,32.738,22.236,48.249,24.146
			c0.909,0.112,1.742,0.102,2.521,0.021c-0.665,0.071,29.427,69.508,33.586,75.87c14.769,22.571,34.939,41.289,59.763,52.237
			c56.508,24.928,118.456,4.564,161.3-36.521c25.872-24.801,54.364-60.001,68.888-93.008c13.954-0.457,29.686-2.839,38.268-14.736
			c6.713-9.308,5.174-20.535,1.132-30.722c13.573-1.29,26.563-7.003,36.354-17.412c17.793-18.913,11.309-44.194-5.23-60.845
			C488.075,137.056,442.937,108.607,401.922,111.524z M23.925,218.776c-11.05-17.291,6.137-29.78,21.167-34.152
			c3.255-0.947,6.594-3.745,7.244-7.244c3.057-16.468,12.116-22.599,25.454-24.059c-0.417,1.945-0.795,3.915-1.117,5.928
			c-0.49,0.899-0.899,1.902-1.123,3.108c-3.552,19.38-4.499,42.005-2.856,65.861c-1.191,0.673-2.158,1.562-2.917,2.61
			c-0.546,0.089-1.092,0.158-1.678,0.351C51.479,236.628,33.952,234.455,23.925,218.776z M56.013,276.35
			c-2.356-6.276,12.939-17.687,19.396-22.495c1.473,10.313,3.407,20.713,5.814,31.072C73.496,284.094,58.234,282.256,56.013,276.35z
			 M247.897,426.527c-0.409,0.137-0.751,0.33-1.123,0.492c-0.432-0.005-0.843-0.046-1.3,0
			C126.216,438.79,78.841,259.111,95.568,167.87c0.048-0.249,0.033-0.478,0.058-0.721c0.571-1.115,1.003-2.351,1.176-3.765
			c7.772-63.533,78.048-85.917,132.83-90.375c64.694-5.256,145.276,11.603,165.75,82.755c0.294,1.01,0.711,1.869,1.188,2.653
			C438.641,270.78,355.555,391.443,247.897,426.527z M431.405,278.376c-1.971,3.311-7.455,4.631-13.056,5.185
			c2.869-8.79,5.215-17.732,6.926-26.796c0.03,0.01,0.066,0.02,0.106,0.02C428.795,262.553,434.924,272.492,431.405,278.376z
			 M469.647,228.932c-10.715,11.397-27.69,11.585-41.589,6.972c2.274-27.652-1.188-56.018-11.816-83.918
			c-0.244-0.64-0.549-1.204-0.868-1.75c-1.839-6.401-4.129-12.39-6.729-18.062c27.786,0.8,59.712,18.011,50.693,50.068
			c-1.514,5.38,1.102,9.438,4.915,11.443C475.182,203.781,481.153,216.702,469.647,228.932z"/>
		<path d="M188.421,213.521v-3.458c0-5.652-4.715-10.375-10.372-10.375c-5.659,0-10.375,4.718-10.375,10.375v3.458
			c0,5.651,4.715,10.371,10.375,10.371C183.706,223.892,188.421,219.177,188.421,213.521z"/>
		<path d="M312.021,199.693c-5.651,0-10.369,4.717-10.369,10.375v4.321c0,5.651,4.712,10.372,10.369,10.372
			c5.662,0,10.374-4.715,10.374-10.372v-4.321C322.396,204.411,317.684,199.693,312.021,199.693z"/>
		<path d="M301.343,289.538c-22.363,39.537-73.501,35.227-100.399,3.088c-8.594-10.268-23.191,4.489-14.668,14.665
			c35.622,42.568,104.475,43.122,132.987-7.282C325.849,288.344,307.929,277.899,301.343,289.538z"/>
		<path d="M244.21,285.781c1.513,0.345,2.912,0.36,4.207,0.152c0.386,0.081,0.764,0.172,1.16,0.218
			c22.237,2.646,41.533-7.749,45.133-31.031c0.111-0.741,0.162-1.483,0.167-2.214c0.528-2.428,0.26-4.995-1.219-7.1
			c-3.103-4.42-6.916-7.505-10.729-11.207c-4.062-3.945-10.653-4.05-14.706,0c-3.961,3.964-4.062,10.761,0,14.706
			c1.265,1.224,2.61,2.361,3.946,3.519c0.538,0.478,1.051,0.98,1.574,1.473c-0.884,3.575-2.361,6.947-5.525,9.06
			c-5.301,3.539-12.664,2.701-18.636,1.99c-0.437-0.051-0.863,0-1.29,0.025c-3.618-0.889-8.084-2.26-9.77-4.717
			c-1.909-2.772-0.074-8.166,1.841-12.162c5.756-12.037-12.172-22.592-17.961-10.496c-4.7,9.831-7.751,20.606-2.943,31.011
			C223.941,278.711,234.336,283.496,244.21,285.781z"/>
	</g>
</g>
<g>
</g>
<g>
</g>
<g>
</g>
<g>
</g>
<g>
</g>
<g>
</g>
<g>
</g>
<g>
</g>
<g>
</g>
<g>
</g>
<g>
</g>
<g>
</g>
<g>
</g>
<g>
</g>
<g>
</g>
</svg>
