<?xml version="1.0" encoding="UTF-8" standalone="no"?>
<svg
   xmlns:dc="http://purl.org/dc/elements/1.1/"
   xmlns:cc="http://creativecommons.org/ns#"
   xmlns:rdf="http://www.w3.org/1999/02/22-rdf-syntax-ns#"
   xmlns:svg="http://www.w3.org/2000/svg"
   xmlns="http://www.w3.org/2000/svg"
   xmlns:xlink="http://www.w3.org/1999/xlink"
   viewBox="0 0 189.33333 304"
   height="304"
   width="189.33333"
   id="svg10"
   version="1.1">
     <path
       d="M 73.333332,293.04983 C 42.350886,289.09659 20.563342,278.45395 13.316269,263.73305 9.1744365,255.31979 7.8810985,260.74512 31.691487,186.65221 l 21.211557,-66.0059 -5.104634,-5.15649 C 41.484884,109.11216 39.895162,106.99055 36.691411,100.66667 25.241876,78.06642 27.879876,52.597701 43.721045,32.798687 51.825498,22.669373 64.852948,14.387722 77.666665,11.219195 c 8.27514,-2.046245 22.221793,-2.0295303 29.938955,0.03588 22.88542,6.125028 39.69664,22.779781 45.8382,45.411591 1.30058,4.79265 1.5306,7.209049 1.49138,15.666667 -0.0411,8.867233 -0.25076,10.67966 -1.85062,16 -3.58598,11.925237 -9.40874,21.564057 -17.48652,28.946707 l -3.60611,3.29577 21.06768,65.54543 c 19.75791,61.4705 21.05193,65.79617 20.81427,69.57854 -0.37544,5.97505 -3.05214,10.93857 -9.17937,17.02171 -4.44803,4.41602 -6.22483,5.61497 -14.05967,9.48725 -9.67064,4.77961 -20.66999,8.10485 -33.63486,10.16826 -9.174,1.46007 -34.445115,1.84946 -43.666668,0.67283 z 

m 41.333328,-12.74211 c 24.04458,-3.68099 40.60136,-11.83669 46.23453,-22.77461 0.60434,-1.17346 1.09881,-2.64798 1.09881,-3.2767 0,-0.81658 -37.61667,-118.41691 -40.33963,-126.11306 -0.23715,-0.67028 -0.76441,-0.61808 -2.42362,0.23992 -10.95581,5.66548 -28.299798,7.33805 -41.454711,3.9977 -3.603214,-0.91494 -8.223894,-2.42927 -10.268187,-3.36518 -2.044287,-0.9359 -3.800045,-1.61849 -3.901682,-1.51685 -0.101636,0.10163 -9.345674,28.54795 -20.542306,63.21403 -23.468658,72.66171 -21.967178,65.10134 -14.429953,72.65885 9.227174,9.25201 28.389649,16.13823 49.924468,17.94085 9.130673,0.7643 27.971141,0.23985 36.102281,-1.00495  z 

M 102.7906,121.03219 c 10.08771,-2.13798 18.03555,-6.51895 25.53772,-14.07682 6.09557,-6.14081 9.11271,-10.835577 11.74615,-18.277363 6.31033,-17.832254 2.42894,-36.803564 -10.32954,-50.48834 -10.33107,-11.081131 -22.50669,-16.33198 -37.744932,-16.277844 -18.431679,0.06548 -34.594521,9.530955 -43.977884,25.754844 -5.583536,9.653967 -7.57689,24.560313 -4.769115,35.66356 4.744287,18.761103 18.666429,32.741223 37.118193,37.272733 6.409433,1.57407 16.1387,1.76035 22.419408,0.42923 z"
       style="fill:#000000;stroke-width:0.666667" />
</svg>
