<?xml version="1.0" encoding="iso-8859-1"?>
<!-- Generator: Adobe Illustrator 18.0.0, SVG Export Plug-In . SVG Version: 6.00 Build 0)  -->
<!DOCTYPE svg PUBLIC "-//W3C//DTD SVG 1.1//EN" "http://www.w3.org/Graphics/SVG/1.1/DTD/svg11.dtd">
<svg version="1.1" id="Capa_1" xmlns="http://www.w3.org/2000/svg" xmlns:xlink="http://www.w3.org/1999/xlink" x="0px" y="0px"
	 viewBox="0 0 297 297" style="enable-background:new 0 0 297 297;" xml:space="preserve">
<g>
	<path d="M169.917,175.281l8.235-8.254l0.293,0.293c5.112,5.111,11.927,7.926,19.191,7.926c7.264,0,14.078-2.814,19.185-7.921
		l7.862-7.847c12.069-12.069,24.696-43.773,9.111-59.358c-4.683-4.683-11.464-7.157-19.612-7.157
		c-13.381,0-30.466,6.995-39.747,16.276l-7.838,7.851c-5.111,5.11-7.926,11.925-7.926,19.19c0,7.265,2.814,14.079,7.925,19.189
		l0.294,0.293l-7.403,7.403c-2.078-0.784-4.299-1.212-6.592-1.212c-2.681,0-5.265,0.576-7.634,1.641
		c-0.593,0.158-1.176,0.345-1.748,0.561l-13.088-13.087c8.642-9.376,8.417-24.034-0.68-33.132l-27.652-27.653
		c-3.11-3.108-8.152-3.108-11.263,0c-3.11,3.11-3.11,8.153,0,11.264l27.652,27.652c2.885,2.884,3.098,7.438,0.649,10.577
		l-33.265-33.266c-3.111-3.109-8.152-3.109-11.263,0c-3.11,3.109-3.11,8.152,0,11.263l33.266,33.266
		c-3.141,2.448-7.694,2.236-10.578-0.649l-27.652-27.652c-3.111-3.109-8.152-3.109-11.263,0c-3.11,3.109-3.11,8.152,0,11.263
		l27.652,27.652c4.666,4.665,10.794,6.997,16.923,6.997c5.821,0,11.642-2.108,16.21-6.318l12.816,12.816l-47.059,47.059
		c-7.255,7.256-7.256,19.063,0.001,26.32l0.471,0.47c3.507,3.506,8.181,5.438,13.158,5.438c4.979,0,9.653-1.932,13.16-5.438
		l39.295-39.295l40.285,40.285c3.507,3.506,8.18,5.438,13.16,5.438c4.979,0,9.651-1.932,13.153-5.433l0.477-0.477
		c7.256-7.256,7.255-19.063,0-26.318L169.917,175.281z M100.448,237.734c-0.672,0.672-1.477,0.773-1.897,0.773
		c-0.42,0-1.225-0.102-1.897-0.773l-0.469-0.47c-1.029-1.028-1.029-2.767,0-3.794l39.345-39.347c0.306,0.357,0.61,0.712,0.947,1.049
		l3.267,3.267L100.448,237.734z M206.823,238.248l-0.477,0.477c-0.672,0.672-1.477,0.773-1.895,0.773
		c-0.42,0-1.226-0.101-1.896-0.773l-54.815-54.815c-1.028-1.027-1.028-2.766,0-3.793l0.471-0.471
		c0.673-0.673,1.477-0.772,1.896-0.772c0.42,0,1.225,0.1,1.896,0.772l54.816,54.815
		C207.847,235.488,207.847,237.227,206.823,238.248z M213.426,148.211l-7.862,7.847c-2.103,2.104-4.918,3.261-7.927,3.261
		c-3.011,0-5.826-1.157-7.929-3.26l-11.849-11.851c-2.103-2.102-3.261-4.918-3.261-7.927c0-3.01,1.158-5.825,3.266-7.934
		l7.839-7.851c5.581-5.582,18.058-11.606,28.48-11.606c2.672,0,6.291,0.432,8.351,2.492
		C228.825,117.676,222.283,139.354,213.426,148.211z"/>
	<path d="M287.631,34.197c5.174,0,9.369-4.195,9.369-9.369c0-5.174-4.195-9.369-9.369-9.369H9.369C4.195,15.459,0,19.654,0,24.828
		c0,5.174,4.195,9.369,9.369,9.369h21.549v27.639H17.099c-5.174,0-9.369,4.195-9.369,9.369v200.967c0,5.174,4.195,9.369,9.369,9.369
		h262.803c5.174,0,9.369-4.195,9.369-9.369V71.205c0-5.174-4.195-9.369-9.369-9.369h-13.819V34.197H287.631z M270.532,262.803
		H26.468V80.574h244.064V262.803z M247.344,61.836H49.656V34.197h197.688V61.836z"/>
</g>
<g>
</g>
<g>
</g>
<g>
</g>
<g>
</g>
<g>
</g>
<g>
</g>
<g>
</g>
<g>
</g>
<g>
</g>
<g>
</g>
<g>
</g>
<g>
</g>
<g>
</g>
<g>
</g>
<g>
</g>
</svg>
