<?xml version="1.0" encoding="iso-8859-1"?>
<!-- Generator: Adobe Illustrator 19.0.0, SVG Export Plug-In . SVG Version: 6.00 Build 0)  -->
<svg version="1.1" id="Layer_1" xmlns="http://www.w3.org/2000/svg" xmlns:xlink="http://www.w3.org/1999/xlink" x="0px" y="0px"
	 viewBox="0 0 512.002 512.002" style="enable-background:new 0 0 512.002 512.002;" xml:space="preserve">
<g transform="translate(0 -1)">
	<g>
		<g>
			<path d="M366.934,1H145.068c-4.713,0-8.533,3.821-8.533,8.533v494.933c0,4.713,3.82,8.533,8.533,8.533h110.9
				c0.011,0,0.022,0.002,0.034,0.002c0.011,0,0.022-0.002,0.034-0.002h110.9c4.713,0,8.533-3.821,8.533-8.533V9.533
				C375.468,4.821,371.647,1,366.934,1z M358.401,495.933h-93.867v-8.532c0-4.713-3.82-8.533-8.533-8.533
				c-4.713,0-8.533,3.82-8.533,8.533v8.532h-93.867V18.067h93.867v8.535c0,4.713,3.82,8.533,8.533,8.533
				c4.713,0,8.533-3.82,8.533-8.533v-8.535h93.867V495.933z"/>
			<path d="M256.001,232.014c-4.713,0-8.533,3.821-8.533,8.533v32.913c0,4.713,3.82,8.533,8.533,8.533
				c4.713,0,8.533-3.82,8.533-8.533v-32.913C264.534,235.835,260.714,232.014,256.001,232.014z"/>
			<path d="M256.001,396.588c-4.713,0-8.533,3.82-8.533,8.533v32.913c0,4.713,3.82,8.533,8.533,8.533
				c4.713,0,8.533-3.82,8.533-8.533v-32.913C264.534,400.409,260.714,396.588,256.001,396.588z"/>
			<path d="M256.001,314.301c-4.713,0-8.533,3.82-8.533,8.533v32.913c0,4.713,3.82,8.533,8.533,8.533
				c4.713,0,8.533-3.821,8.533-8.533v-32.913C264.534,318.122,260.714,314.301,256.001,314.301z"/>
			<path d="M256.001,67.441c-4.713,0-8.533,3.82-8.533,8.533v32.913c0,4.713,3.82,8.533,8.533,8.533c4.713,0,8.533-3.82,8.533-8.533
				V75.974C264.534,71.261,260.714,67.441,256.001,67.441z"/>
			<path d="M256.001,149.727c-4.713,0-8.533,3.821-8.533,8.533v32.913c0,4.713,3.82,8.533,8.533,8.533
				c4.713,0,8.533-3.82,8.533-8.533v-32.913C264.534,153.548,260.714,149.727,256.001,149.727z"/>
		</g>
	</g>
</g>
<g>
</g>
<g>
</g>
<g>
</g>
<g>
</g>
<g>
</g>
<g>
</g>
<g>
</g>
<g>
</g>
<g>
</g>
<g>
</g>
<g>
</g>
<g>
</g>
<g>
</g>
<g>
</g>
<g>
</g>
</svg>
