<?xml version="1.0" encoding="iso-8859-1"?>
<!-- Generator: Adobe Illustrator 19.0.0, SVG Export Plug-In . SVG Version: 6.00 Build 0)  -->
<svg version="1.1" id="Layer_1" xmlns="http://www.w3.org/2000/svg" xmlns:xlink="http://www.w3.org/1999/xlink" x="0px" y="0px"
	 viewBox="0 0 193.348 193.348" style="enable-background:new 0 0 193.348 193.348;" xml:space="preserve">
<g>
	<g>
		<path d="M51.809,153.274c-0.067,0-0.135-0.007-0.202-0.021l-41.038-8.469c-0.333-0.069-0.609-0.303-0.731-0.62l-9.771-25.406
			c-0.071-0.184-0.086-0.385-0.043-0.576l13.028-58.626c0.078-0.351,0.338-0.633,0.682-0.739l16.938-5.211
			c0.253-0.079,0.527-0.053,0.762,0.072l22.147,11.724c0.088,0.047,0.169,0.106,0.239,0.177l39.085,39.085
			c0.25,0.25,0.349,0.612,0.262,0.955l-7.165,28.01c-0.067,0.263-0.238,0.487-0.475,0.621l-33.224,18.893
			C52.152,153.23,51.981,153.274,51.809,153.274z M11.509,142.937l40.133,8.282l32.527-18.496l6.919-27.047L52.512,67.1
			L30.864,55.64l-15.986,4.918L2.042,118.322L11.509,142.937z"/>
		<path d="M77.631,109.079c-0.179,0-0.355-0.048-0.511-0.141L60.204,98.88c-0.125-0.074-0.232-0.175-0.314-0.295L30.14,55.127
			c-0.312-0.456-0.195-1.078,0.26-1.39c0.457-0.312,1.078-0.195,1.39,0.26l29.625,43.276l16.403,9.754l14.197-2.639
			c0.541-0.104,1.065,0.258,1.166,0.801s-0.258,1.064-0.801,1.166l-14.567,2.707C77.753,109.073,77.692,109.079,77.631,109.079z"/>
		<path d="M58.618,119.696c-0.001,0-0.003,0-0.005,0l-57.618-0.297c-0.552-0.003-0.998-0.453-0.995-1.005
			c0.003-0.551,0.45-0.995,1-0.995c0.001,0,0.003,0,0.005,0l56.709,0.292L59.72,97.92c0.056-0.55,0.54-0.948,1.096-0.895
			c0.549,0.056,0.95,0.547,0.894,1.096l-2.097,20.676C59.561,119.308,59.131,119.696,58.618,119.696z"/>
		<path d="M58.619,119.696c-0.303,0-0.602-0.137-0.798-0.396L13.23,60.377c-0.333-0.44-0.247-1.068,0.194-1.401
			c0.441-0.334,1.067-0.246,1.401,0.194l44.59,58.923c0.333,0.44,0.247,1.067-0.194,1.401
			C59.041,119.63,58.829,119.696,58.619,119.696z"/>
		<path d="M51.81,153.274c-0.066,0-0.133-0.006-0.2-0.02c-0.542-0.11-0.891-0.638-0.781-1.18l6.809-33.578
			c0.063-0.313,0.272-0.575,0.562-0.709c0.291-0.134,0.625-0.121,0.904,0.034l24.285,13.501l-6.718-22.963
			c-0.155-0.53,0.149-1.086,0.679-1.241c0.532-0.154,1.086,0.15,1.241,0.679l7.402,25.303c0.114,0.39-0.019,0.81-0.336,1.063
			s-0.755,0.289-1.11,0.093l-25.221-14.021l-6.538,32.239C52.693,152.947,52.276,153.274,51.81,153.274z"/>
	</g>
	<g>
		<path d="M130.036,160.687c-0.181,0-0.359-0.049-0.515-0.143L97.73,141.468c-0.307-0.185-0.493-0.52-0.485-0.878l1.697-83.503
			c0.004-0.195,0.065-0.385,0.176-0.546l16.105-23.446c0.286-0.416,0.836-0.555,1.285-0.321l52.996,27.492
			c0.219,0.114,0.389,0.305,0.476,0.536l23.304,62.078c0.112,0.299,0.075,0.633-0.1,0.899l-21.925,33.486
			c-0.17,0.261-0.453,0.427-0.763,0.449l-40.386,2.969C130.085,160.686,130.061,160.687,130.036,160.687z M99.257,140.051
			l31.021,18.615l39.578-2.909l21.376-32.648l-22.991-61.244L116.37,34.957l-15.435,22.471L99.257,140.051z"/>
		<path d="M151.855,130.167c-0.318,0-0.631-0.151-0.825-0.434l-35.807-52.136c-0.115-0.167-0.176-0.364-0.176-0.566v-43.37
			c0-0.428,0.272-0.808,0.677-0.946c0.406-0.137,0.853-0.003,1.114,0.334l31.641,40.929l20-13.652
			c0.458-0.312,1.079-0.194,1.39,0.262s0.194,1.079-0.262,1.39l-20.779,14.183c-0.437,0.298-1.031,0.205-1.355-0.214L117.047,36.59
			v40.131l35.631,51.879c0.313,0.455,0.197,1.078-0.258,1.391C152.247,130.11,152.05,130.167,151.855,130.167z"/>
		<path d="M170.421,157.718c-0.529,0-0.971-0.415-0.998-0.95l-1.379-27.551c-0.024-0.476,0.291-0.901,0.752-1.019l23.304-5.936
			c0.535-0.142,1.08,0.187,1.216,0.722s-0.187,1.08-0.723,1.216l-22.511,5.734l1.338,26.733c0.028,0.552-0.397,1.021-0.949,1.049
			C170.456,157.718,170.439,157.718,170.421,157.718z"/>
		<path d="M153.772,158.94c-0.522,0-0.961-0.405-0.997-0.934l-5.509-82.604c-0.037-0.551,0.38-1.027,0.931-1.064
			c0.538-0.051,1.027,0.38,1.064,0.931l5.509,82.604c0.037,0.551-0.38,1.027-0.931,1.064
			C153.817,158.939,153.795,158.94,153.772,158.94z"/>
		<path d="M169.043,130.167c-0.254,0-0.509-0.097-0.704-0.29l-18.404-18.24c-0.392-0.389-0.395-1.021-0.006-1.414
			c0.389-0.394,1.021-0.396,1.415-0.006l18.404,18.24c0.392,0.389,0.395,1.021,0.006,1.414
			C169.558,130.068,169.301,130.167,169.043,130.167z"/>
		<path d="M130.035,160.687c-0.479,0-0.902-0.345-0.985-0.833l-13.945-82.397l-15.94-19.721c-0.347-0.429-0.28-1.059,0.149-1.406
			c0.429-0.346,1.059-0.281,1.406,0.149l16.105,19.924c0.108,0.133,0.18,0.292,0.208,0.461l13.989,82.655
			c0.092,0.545-0.274,1.061-0.819,1.153C130.147,160.682,130.09,160.687,130.035,160.687z"/>
		<path d="M111.468,149.544c-0.147,0-0.297-0.032-0.439-0.102c-0.496-0.243-0.701-0.843-0.458-1.338l12.074-24.65l-24.257-22.795
			c-0.403-0.378-0.422-1.011-0.044-1.413c0.379-0.403,1.012-0.422,1.413-0.044l24.795,23.301c0.32,0.301,0.407,0.774,0.213,1.168
			l-12.398,25.313C112.193,149.338,111.838,149.544,111.468,149.544z"/>
	</g>
	<path d="M14.029,87.618c-0.34,0-0.671-0.173-0.858-0.486c-0.284-0.474-0.131-1.088,0.343-1.372l8.667-5.203
		c0.473-0.285,1.087-0.131,1.372,0.343c0.284,0.474,0.131,1.088-0.343,1.372l-8.667,5.203
		C14.381,87.571,14.204,87.618,14.029,87.618z"/>
	<path d="M14.029,92.837c-0.34,0-0.671-0.173-0.858-0.485c-0.284-0.474-0.131-1.088,0.343-1.372l8.667-5.204
		c0.473-0.285,1.087-0.131,1.372,0.343c0.284,0.474,0.131,1.088-0.343,1.372l-8.667,5.204
		C14.381,92.791,14.204,92.837,14.029,92.837z"/>
	<path d="M157.874,85.017c-0.109,0-0.22-0.018-0.329-0.056c-0.521-0.182-0.797-0.752-0.615-1.273l3.789-10.877
		c0.181-0.521,0.751-0.798,1.273-0.615c0.521,0.182,0.797,0.752,0.615,1.273l-3.789,10.877
		C158.675,84.758,158.288,85.017,157.874,85.017z"/>
	<path d="M161.743,93.058c-0.109,0-0.22-0.018-0.329-0.056c-0.521-0.182-0.797-0.752-0.615-1.273l3.79-10.879
		c0.181-0.521,0.751-0.799,1.273-0.615c0.521,0.182,0.797,0.752,0.615,1.273l-3.79,10.879
		C162.544,92.799,162.157,93.058,161.743,93.058z"/>
	<path d="M165.613,101.099c-0.109,0-0.22-0.018-0.329-0.056c-0.521-0.182-0.797-0.752-0.615-1.273l3.79-10.877
		c0.182-0.521,0.753-0.798,1.273-0.615c0.521,0.182,0.797,0.752,0.615,1.273l-3.79,10.877
		C166.414,100.84,166.027,101.099,165.613,101.099z"/>
</g>
<g>
</g>
<g>
</g>
<g>
</g>
<g>
</g>
<g>
</g>
<g>
</g>
<g>
</g>
<g>
</g>
<g>
</g>
<g>
</g>
<g>
</g>
<g>
</g>
<g>
</g>
<g>
</g>
<g>
</g>
</svg>
