<?xml version="1.0" encoding="iso-8859-1"?>
<!-- Generator: Adobe Illustrator 19.0.0, SVG Export Plug-In . SVG Version: 6.00 Build 0)  -->
<svg version="1.1" id="Layer_1" xmlns="http://www.w3.org/2000/svg" xmlns:xlink="http://www.w3.org/1999/xlink" x="0px" y="0px"
	 viewBox="0 0 512 512" style="enable-background:new 0 0 512 512;" xml:space="preserve">
<g>
	<g>
		<path d="M503.548,251.296l-207.75-33.245L260.881,8.575c-0.823-4.927-5.25-8.853-10.132-8.382
			c-4.99,0.113-9.142,3.877-9.735,8.838l-24.922,207.657L8.385,251.306c-4.927,0.819-8.5,5.137-8.383,10.132
			c0.113,4.99,3.878,9.142,8.838,9.735l206.24,24.755l25.936,207.294c0.618,4.961,4.794,8.622,9.789,8.622c0.059,0,0.118,0,0.172,0
			c4.926,0,9.132-3.407,9.912-8.279l33.025-206.316l209.289-26.124c4.961-0.618,8.706-4.772,8.794-9.768
			C512.082,256.362,508.479,252.085,503.548,251.296z M283.949,278.345c-4.431,0.554-7.961,3.966-8.667,8.373l-23.083,144.26
			l-18.167-145.329c-0.568-4.574-4.186-8.172-8.765-8.721L80.812,259.59l146.005-24.333c4.397-0.73,7.784-4.279,8.314-8.706
			l17.466-145.549l24.583,147.476c0.711,4.255,4.059,7.578,8.314,8.26l145.299,23.25L283.949,278.345z"/>
	</g>
</g>
<g>
</g>
<g>
</g>
<g>
</g>
<g>
</g>
<g>
</g>
<g>
</g>
<g>
</g>
<g>
</g>
<g>
</g>
<g>
</g>
<g>
</g>
<g>
</g>
<g>
</g>
<g>
</g>
<g>
</g>
</svg>
