<?xml version='1.0' encoding='utf-8'?>
<!DOCTYPE svg PUBLIC '-//W3C//DTD SVG 1.1//EN' 'http://www.w3.org/Graphics/SVG/1.1/DTD/svg11.dtd'>
<svg version="1.1" xmlns="http://www.w3.org/2000/svg" viewBox="0 0 512 512" xmlns:xlink="http://www.w3.org/1999/xlink" enable-background="new 0 0 512 512">
  <g>
    <g>
      <g>
        <path d="m179.4,367.8c38.4,0 61,24.2 76.6,55.6 15.6-31.4 38.3-55.6 76.6-55.6 12.7,0 26.7,2.6 43.3,8.2-9.3-27.5-11.6-51.6-2.3-73.3 8.9-20.8 27.4-35.4 50.1-46.7-22.7-11.3-41.2-25.9-50.1-46.7-9.3-21.6-7-45.7 2.3-73.3-16.7,5.6-30.6,8.2-43.3,8.2-38.4,0-61-24.2-76.6-55.6-15.6,31.4-38.3,55.6-76.6,55.6-12.7,0-26.6-2.6-43.3-8.2 9.3,27.5 11.6,51.6 2.3,73.3-8.9,20.8-27.4,35.4-50.1,46.7 22.7,11.3 41.2,25.9 50.1,46.7 9.3,21.6 7,45.7-2.3,73.3 16.6-5.6 30.6-8.2 43.3-8.2zm76.6,133.2c-8.9,0-16.8-5.8-19.5-14.3-20.5-65.3-36.4-78.1-57.1-78.1-16.1,0-39.4,7.8-73.1,24.5-7.9,3.9-17.3,2.3-23.5-3.9-6.2-6.2-7.7-15.6-3.9-23.5 21.9-44.3 28.7-71.2 21.9-87-6.7-15.7-30-29-75.5-43.3-8.5-2.6-14.3-10.5-14.3-19.4 0-8.9 5.8-16.8 14.3-19.5 45.5-14.3 68.8-27.6 75.5-43.3 6.8-15.8 0-42.7-21.9-87-3.9-7.8-2.3-17.2 3.9-23.4 6.2-6.2 15.6-7.7 23.5-3.9 33.8,16.7 57,24.5 73.1,24.5 16.5,0 34.6-6 57.1-78.1 2.7-8.5 10.6-14.3 19.5-14.3 8.9,0 16.8,5.8 19.5,14.3 20.5,65.3 36.4,78.1 57.1,78.1 16.1,0 39.4-7.8 73.1-24.5 7.9-3.9 17.3-2.3 23.5,3.9 6.2,6.2 7.7,15.6 3.9,23.5-21.9,44.3-28.7,71.2-21.9,87 6.7,15.7 30,29 75.5,43.3 8.5,2.7 14.3,10.6 14.3,19.5 0,8.9-5.8,16.8-14.3,19.5-45.5,14.3-68.8,27.6-75.5,43.3-6.8,15.8 0,42.7 21.9,87 3.9,7.8 2.3,17.3-3.9,23.5-6.2,6.2-15.6,7.8-23.5,3.9-33.8-16.7-57-24.5-73.1-24.5-16.5,0-34.6,6-57.1,78.1-2.7,8.3-10.6,14.1-19.5,14.1z"/>
      </g>
    </g>
  </g>
</svg>
