<?xml version="1.0" encoding="iso-8859-1"?>
<!-- Generator: Adobe Illustrator 19.0.0, SVG Export Plug-In . SVG Version: 6.00 Build 0)  -->
<svg version="1.1" id="Layer_1" xmlns="http://www.w3.org/2000/svg" xmlns:xlink="http://www.w3.org/1999/xlink" x="0px" y="0px"
	 viewBox="0 0 512.001 512.001" style="enable-background:new 0 0 512.001 512.001;" xml:space="preserve">
<g>
	<g>
		<path d="M359.973,162.137v-31.364c19.232,3.808,37.842,10.772,54.995,20.673l15.04,8.683l63.678-110.294l-15.04-8.683
			C432.014,14.23,379.06,0,325.51,0c-52.951,0-105.31,13.765-151.418,39.807c-47.513,26.837-87.126,66.135-114.558,113.646
			C18.913,223.81,7.859,305.846,28.408,384.45l4.677,17.89l120.833-39.829l-3.553-15.432c-3.27-14.202-4.776-28.584-4.578-42.874
			l34.731,5.789v162.537l289.445,39.47v-83.574h-17.367c-67.032,0-121.567-54.534-121.567-121.567
			c0-9.576,7.791-17.367,17.367-17.367s17.367,7.791,17.367,17.367v52.1h104.2v-86.833
			C469.962,211.478,420.621,162.137,359.973,162.137z M139.747,199.763c-24.511,42.456-33.625,91.434-26.226,139.492l-55.597,18.326
			c-12.252-64.087-1.228-129.745,31.69-186.761C138.078,86.879,228.467,34.733,325.51,34.733c41.695,0,82.992,9.74,120.453,28.295
			l-29.02,50.264c-28.596-13.553-59.909-20.656-91.519-20.656c-36.959,0-73.509,9.611-105.696,27.79
			C186.553,139.165,158.896,166.599,139.747,199.763z M149.66,269.639c3.877-18.266,10.623-35.978,20.166-52.508
			c31.936-55.313,91.474-89.692,155.413-89.757v34.762c-68.984,0-126.84,48.519-141.259,113.22L149.66,269.639z M435.229,324.226
			h-34.733v-17.367c0-28.728-23.372-52.1-52.1-52.1s-52.1,23.371-52.1,52.1c0,80.314,60.893,146.674,138.933,155.342v10.008
			l-219.978-29.997V306.859c0-60.648,49.341-109.989,109.989-109.989h34.733c41.496,0,75.256,33.76,75.256,75.256V324.226z"/>
	</g>
</g>
<g>
</g>
<g>
</g>
<g>
</g>
<g>
</g>
<g>
</g>
<g>
</g>
<g>
</g>
<g>
</g>
<g>
</g>
<g>
</g>
<g>
</g>
<g>
</g>
<g>
</g>
<g>
</g>
<g>
</g>
</svg>
