<?xml version="1.0" encoding="iso-8859-1"?>
<!-- Generator: Adobe Illustrator 19.0.0, SVG Export Plug-In . SVG Version: 6.00 Build 0)  -->
<svg version="1.1" id="Capa_1" xmlns="http://www.w3.org/2000/svg" xmlns:xlink="http://www.w3.org/1999/xlink" x="0px" y="0px"
	 viewBox="0 0 511 511" style="enable-background:new 0 0 511 511;" xml:space="preserve">
<g>
	<path d="M510.615,397.128l-24-72c-1.021-3.063-3.887-5.128-7.115-5.128h-16h-8.564l23.37-33.107
		c11.565-16.384,11.565-38.401,0-54.785l-31.717-44.933c-1.406-1.991-3.69-3.175-6.127-3.175H367v-41h8.5
		c3.441,0,6.441-2.342,7.276-5.681l8-32c0.011-0.046,0.017-0.092,0.027-0.138c0.026-0.112,0.046-0.226,0.067-0.339
		c0.029-0.158,0.054-0.316,0.073-0.474c0.012-0.102,0.021-0.204,0.029-0.307c0.014-0.177,0.02-0.353,0.021-0.529
		c0-0.088,0.001-0.176-0.002-0.264c-0.006-0.199-0.022-0.396-0.044-0.592c-0.008-0.069-0.012-0.138-0.022-0.207
		c-0.035-0.252-0.082-0.501-0.142-0.747c-0.003-0.013-0.004-0.027-0.008-0.04l-0.004-0.016c-0.005-0.02-0.01-0.039-0.015-0.059
		l-7.981-31.926C381.941,66.342,378.941,64,375.5,64h-64c-3.441,0-6.441,2.342-7.276,5.681l-7.981,31.926
		c-0.005,0.02-0.01,0.039-0.015,0.059l-0.004,0.016c-0.003,0.013-0.004,0.027-0.008,0.041c-0.06,0.245-0.107,0.494-0.142,0.746
		c-0.01,0.07-0.015,0.139-0.022,0.209c-0.022,0.196-0.038,0.392-0.044,0.591c-0.003,0.088-0.002,0.176-0.002,0.264
		c0.001,0.176,0.008,0.352,0.021,0.529c0.008,0.103,0.017,0.204,0.029,0.307c0.019,0.158,0.044,0.316,0.073,0.474
		c0.021,0.114,0.041,0.227,0.067,0.339c0.011,0.046,0.016,0.092,0.027,0.138l8,32c0.834,3.339,3.834,5.681,7.276,5.681h8.5v41H199
		v-73h32.5c2.841,0,5.438-1.605,6.708-4.146c1.271-2.541,0.997-5.582-0.708-7.854l-24-32c-1.417-1.889-3.639-3-6-3h-184
		C10.542,64,0,74.542,0,87.5v280C0,380.458,10.542,391,23.5,391h20.063c4.79,9.233,10.93,17.655,18.157,25.007
		c0.184,0.234,0.379,0.463,0.595,0.678c0.216,0.216,0.444,0.411,0.678,0.595C81.681,435.649,107.288,447,135.5,447
		s53.819-11.351,72.507-29.72c0.234-0.184,0.462-0.379,0.678-0.595c0.216-0.216,0.411-0.444,0.595-0.678
		c7.227-7.353,13.367-15.774,18.157-25.007h21.339c-0.501,2.76-0.777,5.598-0.777,8.5c0,26.191,21.309,47.5,47.5,47.5
		s47.5-21.309,47.5-47.5c0-2.902-0.276-5.74-0.777-8.5h10.554c-0.501,2.76-0.777,5.598-0.777,8.5c0,26.191,21.309,47.5,47.5,47.5
		s47.5-21.309,47.5-47.5c0-2.902-0.276-5.74-0.777-8.5H456v8.5c0,4.142,3.358,7.5,7.5,7.5h40c2.411,0,4.675-1.159,6.084-3.115
		C510.994,401.93,511.377,399.416,510.615,397.128z M236.307,320c-4.385-18.815-13.919-35.672-27.027-49.007
		c-0.184-0.234-0.379-0.463-0.595-0.678c-0.216-0.216-0.444-0.411-0.678-0.595c-2.847-2.799-5.854-5.436-9.007-7.893V199h225v121
		H236.307z M203.125,400.519L153.606,351h70.073C222.096,369.777,214.626,386.9,203.125,400.519z M47.321,351h70.073l-49.519,49.519
		C56.374,386.9,48.904,369.777,47.321,351z M192.519,275.875L143,325.394v-70.073C161.776,256.904,178.9,264.374,192.519,275.875z
		 M167.5,184c-0.276,0-0.5-0.224-0.5-0.5v-40c0-0.276,0.224-0.5,0.5-0.5H184v41H167.5z M223.679,336h-70.073l49.519-49.519
		C214.626,300.1,222.096,317.224,223.679,336z M128,325.394l-49.519-49.519c13.619-11.501,30.742-18.97,49.519-20.554V325.394z
		 M67.875,286.481L117.394,336H47.321C48.904,317.224,56.374,300.1,67.875,286.481z M128,361.607v70.073
		c-18.776-1.583-35.9-9.053-49.519-20.554L128,361.607z M143,361.607l49.519,49.519c-13.619,11.501-30.742,18.97-49.519,20.554
		V361.607z M466.051,240.758c7.914,11.21,7.914,26.274,0,37.484L439,316.565v-114.13L466.051,240.758z M317.356,79h52.288l4.25,17
		h-60.788L317.356,79z M313.106,111h60.789l-4.25,17h-52.288L313.106,111z M335,143h17v41h-17V143z M184,128h-16.5
		c-8.547,0-15.5,6.953-15.5,15.5v40c0,8.547,6.953,15.5,15.5,15.5H184v53.091C169.524,244.379,153.015,240,135.5,240
		c-28.212,0-53.819,11.351-72.507,29.72c-0.234,0.184-0.462,0.379-0.678,0.595c-0.216,0.216-0.411,0.444-0.595,0.678
		C48.612,284.328,39.078,301.185,34.693,320H15V111h169V128z M15,87.5c0-4.687,3.813-8.5,8.5-8.5h180.25l12.75,17h-25H15V87.5z
		 M23.5,376c-4.687,0-8.5-3.813-8.5-8.5V335h17.351c-0.229,2.804-0.351,5.638-0.351,8.5c0,11.349,1.842,22.274,5.232,32.5H23.5z
		 M327.117,392H303v-24.117C314.906,370.708,324.292,380.094,327.117,392z M288,392h-24.117
		c2.824-11.906,12.211-21.292,24.117-24.117V392z M263.883,407H288v24.117C276.094,428.293,266.708,418.906,263.883,407z
		 M303,431.117V407h24.117C324.292,418.906,314.906,428.293,303,431.117z M432,399.5c0,6.249-1.777,12.088-4.846,17.048
		L410.106,399.5l17.048-17.048C430.223,387.412,432,393.251,432,399.5z M399.5,388.894l-17.048-17.048
		c4.96-3.069,10.799-4.846,17.048-4.846s12.088,1.777,17.048,4.846L399.5,388.894z M371.846,382.452l17.048,17.048l-17.048,17.048
		c-3.069-4.96-4.846-10.799-4.846-17.048S368.777,387.412,371.846,382.452z M382.452,427.154l17.048-17.048l17.048,17.048
		c-4.96,3.069-10.799,4.846-17.048,4.846S387.412,430.223,382.452,427.154z M440.753,376c-8.19-14.321-23.608-24-41.253-24
		s-33.063,9.679-41.253,24h-21.493c-8.19-14.321-23.608-24-41.253-24s-33.063,9.679-41.253,24h-20.479
		c3.391-10.226,5.232-21.151,5.232-32.5c0-2.862-0.122-5.696-0.351-8.5h201.8c0.002,0,0.004,0,0.007,0c0.003,0,0.006,0,0.008,0H456
		v41H440.753z M471,392v-8.5V335h3.094l19,57H471z"/>
	<path d="M40.5,199h86c4.687,0,8.5-3.813,8.5-8.5v-54c0-4.687-3.813-8.5-8.5-8.5h-86c-4.687,0-8.5,3.813-8.5,8.5v54
		C32,195.187,35.813,199,40.5,199z M47,143h73v41H47V143z"/>
	<path d="M399.5,216h-16c-4.142,0-7.5,3.358-7.5,7.5s3.358,7.5,7.5,7.5h16c4.142,0,7.5-3.358,7.5-7.5S403.642,216,399.5,216z"/>
	<path d="M351.5,216h-80c-4.142,0-7.5,3.358-7.5,7.5s3.358,7.5,7.5,7.5h80c4.142,0,7.5-3.358,7.5-7.5S355.642,216,351.5,216z"/>
</g>
<g>
</g>
<g>
</g>
<g>
</g>
<g>
</g>
<g>
</g>
<g>
</g>
<g>
</g>
<g>
</g>
<g>
</g>
<g>
</g>
<g>
</g>
<g>
</g>
<g>
</g>
<g>
</g>
<g>
</g>
</svg>
