<?xml version='1.0' encoding='iso-8859-1'?>
<svg version="1.1" xmlns="http://www.w3.org/2000/svg" viewBox="0 0 489.977 489.977" xmlns:xlink="http://www.w3.org/1999/xlink" enable-background="new 0 0 489.977 489.977">
  <g>
    <path d="m487.97,203.339c-40.2-100.9-130.1-166.6-232.8-170.8v-22.1c0-6.3-4.2-10.4-10.4-10.4s-10.4,4.2-10.4,10.4v22.1c-102.8,4.2-193.7,71-233.9,172.8-2.8,9.7 7.5,17.3 15.6,12.5 10.4-6.3 20.8-9.4 32.2-9.4 22.9,0 43.7,12.5 57.2,33.4 7,9.7 14.8,3.1 16.6,0 12.8-22 35.3-33.4 57.2-33.4 21.7,0 41.6,11.3 55.1,30.3v212.6c0,9.4-7.3,17.7-16.6,17.7s-16.6-8.3-16.6-17.7v-17.7c0-6.3-4.2-10.4-10.4-10.4s-10.4,4.2-10.4,10.4v17.7c0,20.9 16.6,38.6 37.4,38.6s37.4-17.7 37.4-38.6v-212.3c14.4-19.1 34.3-30.5 55.1-30.5 22.9,0 43.7,12.5 57.2,33.4 6.8,9.9 15.5,3.2 17.7,0 14.6-20.9 35.3-33.4 57.2-33.4 11.4,0 21.8,3.1 32.2,9.4 15.9,9.2 17.7-7.4 13.4-14.6zm-46.7-15.6c-24.9,0-47.8,11.5-65.5,31.3-17.7-19.8-40.5-31.3-65.5-31.3-24.9,0-47.8,11.5-65.5,31.3-17.7-19.8-40.5-31.3-65.5-31.3-24.9,0-47.8,11.5-65.5,31.3-17.7-19.8-40.5-31.3-65.5-31.3-6.2,0-11.4,1-17.7,2.1 41.6-83.5 123.7-136.6 214.2-136.6 90.4,0 172.6,53.2 214.1,136.6-6.2-1.1-11.4-2.1-17.6-2.1z"/>
  </g>
</svg>
