<?xml version="1.0" encoding="iso-8859-1"?>
<!-- Generator: Adobe Illustrator 17.1.0, SVG Export Plug-In . SVG Version: 6.00 Build 0)  -->
<!DOCTYPE svg PUBLIC "-//W3C//DTD SVG 1.1//EN" "http://www.w3.org/Graphics/SVG/1.1/DTD/svg11.dtd">
<svg version="1.1" id="Capa_1" xmlns="http://www.w3.org/2000/svg" xmlns:xlink="http://www.w3.org/1999/xlink" x="0px" y="0px"
	 viewBox="0 0 475.907 475.907" style="enable-background:new 0 0 475.907 475.907;" xml:space="preserve">
<path d="M424.402,103.854c2.764-3.085,7.505-3.347,10.591-0.584c9.194,8.231,21.061,12.765,33.414,12.765c4.142,0,7.5,3.358,7.5,7.5
	s-3.358,7.5-7.5,7.5c-16.051,0-31.471-5.892-43.42-16.59C421.901,111.682,421.64,106.94,424.402,103.854z M7.5,131.035
	c24.962,0,46.689-14.121,57.613-34.793c10.924,20.672,32.651,34.793,57.613,34.793c24.962,0,46.69-14.121,57.614-34.793
	c10.924,20.672,32.651,34.793,57.613,34.793s46.689-14.121,57.613-34.793c10.924,20.672,32.651,34.793,57.614,34.793
	c35.904,0,65.113-29.209,65.113-65.113c0-4.142-3.358-7.5-7.5-7.5s-7.5,3.358-7.5,7.5c0,27.633-22.481,50.113-50.113,50.113
	c-27.633,0-50.114-22.48-50.114-50.113c0-4.142-3.358-7.5-7.5-7.5s-7.5,3.358-7.5,7.5c0,27.633-22.48,50.113-50.113,50.113
	s-50.113-22.48-50.113-50.113c0-4.142-3.358-7.5-7.5-7.5s-7.5,3.358-7.5,7.5c0,27.633-22.481,50.113-50.114,50.113
	s-50.113-22.48-50.113-50.113c0-4.142-3.358-7.5-7.5-7.5s-7.5,3.358-7.5,7.5c0,27.633-22.481,50.113-50.113,50.113
	c-4.142,0-7.5,3.358-7.5,7.5S3.358,131.035,7.5,131.035z M468.407,259.26c-27.632,0-50.113-22.481-50.113-50.113
	c0-4.142-3.358-7.5-7.5-7.5s-7.5,3.358-7.5,7.5c0,27.632-22.481,50.113-50.113,50.113c-27.633,0-50.114-22.481-50.114-50.113
	c0-4.142-3.358-7.5-7.5-7.5s-7.5,3.358-7.5,7.5c0,27.632-22.481,50.113-50.113,50.113s-50.113-22.481-50.113-50.113
	c0-4.142-3.358-7.5-7.5-7.5s-7.5,3.358-7.5,7.5c0,27.632-22.481,50.113-50.114,50.113c-27.632,0-50.113-22.481-50.113-50.113
	c0-4.142-3.358-7.5-7.5-7.5s-7.5,3.358-7.5,7.5c0,27.632-22.481,50.113-50.113,50.113c-4.142,0-7.5,3.358-7.5,7.5s3.358,7.5,7.5,7.5
	c24.962,0,46.689-14.121,57.613-34.793c10.924,20.672,32.651,34.793,57.613,34.793c24.962,0,46.69-14.121,57.614-34.793
	c10.924,20.672,32.651,34.793,57.613,34.793s46.689-14.121,57.613-34.793c10.924,20.672,32.651,34.793,57.614,34.793
	c24.962,0,46.689-14.121,57.613-34.793c10.924,20.672,32.651,34.793,57.613,34.793c4.142,0,7.5-3.358,7.5-7.5
	S472.549,259.26,468.407,259.26z M468.407,402.486c-27.632,0-50.113-22.481-50.113-50.113c0-4.142-3.358-7.5-7.5-7.5
	s-7.5,3.358-7.5,7.5c0,27.632-22.481,50.113-50.113,50.113c-27.633,0-50.114-22.481-50.114-50.113c0-4.142-3.358-7.5-7.5-7.5
	s-7.5,3.358-7.5,7.5c0,27.632-22.481,50.113-50.113,50.113s-50.113-22.481-50.113-50.113c0-4.142-3.358-7.5-7.5-7.5
	s-7.5,3.358-7.5,7.5c0,27.632-22.481,50.113-50.114,50.113c-27.632,0-50.113-22.481-50.113-50.113c0-4.142-3.358-7.5-7.5-7.5
	s-7.5,3.358-7.5,7.5c0,27.632-22.481,50.113-50.113,50.113c-4.142,0-7.5,3.358-7.5,7.5s3.358,7.5,7.5,7.5
	c24.962,0,46.689-14.121,57.613-34.793c10.924,20.672,32.651,34.793,57.613,34.793c24.962,0,46.69-14.121,57.614-34.793
	c10.924,20.672,32.651,34.793,57.613,34.793s46.689-14.121,57.613-34.793c10.924,20.672,32.651,34.793,57.614,34.793
	c24.962,0,46.689-14.121,57.613-34.793c10.924,20.672,32.651,34.793,57.613,34.793c4.142,0,7.5-3.358,7.5-7.5
	S472.549,402.486,468.407,402.486z"/>
<g>
</g>
<g>
</g>
<g>
</g>
<g>
</g>
<g>
</g>
<g>
</g>
<g>
</g>
<g>
</g>
<g>
</g>
<g>
</g>
<g>
</g>
<g>
</g>
<g>
</g>
<g>
</g>
<g>
</g>
</svg>
