<?xml version="1.0" encoding="iso-8859-1"?>
<!-- Uploaded to: SVG Repo, www.svgrepo.com, Generator: SVG Repo Mixer Tools -->
<svg fill="#000000" height="800px" width="800px" version="1.1" id="Capa_1" xmlns="http://www.w3.org/2000/svg" xmlns:xlink="http://www.w3.org/1999/xlink" 
	 viewBox="0 0 470 470" xml:space="preserve">
<g>
	<path d="M293.579,309.607l-35.83-5.207l-16.023-32.467c-1.264-2.56-3.871-4.181-6.726-4.181s-5.462,1.621-6.726,4.181
		l-16.023,32.467l-35.83,5.207c-2.825,0.41-5.172,2.389-6.054,5.104c-0.882,2.715-0.146,5.696,1.898,7.688l25.926,25.272
		l-6.121,35.685c-0.482,2.814,0.674,5.658,2.984,7.335c2.309,1.678,5.37,1.9,7.898,0.571L235,374.415l32.047,16.848
		c1.098,0.577,2.296,0.861,3.489,0.861c1.555,0,3.103-0.483,4.409-1.433c2.31-1.678,3.466-4.521,2.984-7.335l-6.121-35.685
		l25.926-25.272c2.044-1.993,2.78-4.973,1.898-7.688C298.751,311.997,296.404,310.018,293.579,309.607z M258.515,339.683
		c-1.768,1.723-2.575,4.206-2.157,6.639l4.218,24.593l-22.086-11.611c-1.093-0.574-2.292-0.861-3.49-0.861s-2.397,0.287-3.49,0.861
		l-22.086,11.611l4.218-24.593c0.417-2.433-0.389-4.916-2.157-6.639l-17.868-17.417l24.693-3.588
		c2.443-0.355,4.554-1.889,5.647-4.103L235,292.2l11.043,22.375c1.093,2.213,3.204,3.748,5.647,4.103l24.693,3.588L258.515,339.683z
		"/>
	<path d="M293.579,154.607l-35.83-5.207l-16.023-32.467c-1.264-2.56-3.871-4.181-6.726-4.181s-5.462,1.621-6.726,4.181
		l-16.023,32.467l-35.83,5.207c-2.825,0.41-5.172,2.389-6.054,5.104c-0.882,2.715-0.146,5.696,1.897,7.688l25.927,25.272
		l-6.121,35.685c-0.482,2.814,0.674,5.658,2.984,7.335c2.309,1.678,5.37,1.9,7.898,0.571L235,219.415l32.047,16.848
		c1.098,0.577,2.296,0.861,3.489,0.861c1.555,0,3.103-0.483,4.409-1.433c2.31-1.678,3.466-4.521,2.984-7.335l-6.121-35.685
		l25.926-25.272c2.044-1.993,2.78-4.973,1.898-7.688C298.751,156.997,296.404,155.018,293.579,154.607z M258.515,184.683
		c-1.768,1.723-2.575,4.206-2.157,6.639l4.218,24.593l-22.086-11.611c-1.093-0.574-2.292-0.861-3.49-0.861s-2.397,0.287-3.49,0.861
		l-22.086,11.611l4.218-24.593c0.417-2.433-0.389-4.916-2.157-6.639l-17.868-17.417l24.693-3.588
		c2.443-0.355,4.554-1.889,5.647-4.103L235,137.2l11.043,22.375c1.093,2.213,3.204,3.748,5.647,4.103l24.693,3.588L258.515,184.683z
		"/>
	<path d="M455.481,332.711c-11.709-11.706-30.197-12.588-42.938-2.659L274.158,53.282c-0.014-0.029-0.028-0.058-0.043-0.086
		l-18.991-37.981C248.506,1.977,239.675,0,235,0s-13.506,1.977-20.125,15.214l-18.989,37.978c-0.016,0.031-0.031,0.062-0.047,0.093
		L57.457,330.052c-12.74-9.927-31.228-9.048-42.938,2.66c-12.672,12.672-12.672,33.29,0,45.962C73.412,437.566,151.713,470,235,470
		s161.588-32.434,220.481-91.326C468.153,366.002,468.153,345.384,455.481,332.711z M444.875,368.067
		C388.815,424.126,314.28,455,235,455S81.185,424.126,25.125,368.067c-6.823-6.823-6.823-17.926,0-24.749
		c6.824-6.824,17.926-6.822,24.749,0c1.504,1.504,3.025,2.983,4.558,4.444c0.024,0.023,0.047,0.047,0.072,0.07
		c49.779,47.38,114.96,72.057,180.776,72.056c44.546-0.001,89.386-11.307,129.923-34.527c3.594-2.059,4.839-6.642,2.78-10.236
		c-2.059-3.594-6.642-4.84-10.236-2.78c-93.071,53.312-210.158,39.993-288.855-31.623l3.534-7.068L90,324.415l32.047,16.848
		c1.098,0.577,2.296,0.861,3.489,0.861c1.555,0,3.103-0.483,4.409-1.433c2.31-1.678,3.466-4.521,2.984-7.335l-6.121-35.685
		l25.926-25.272c2.044-1.993,2.78-4.973,1.898-7.688c-0.882-2.715-3.229-4.694-6.054-5.104l-35.83-5.207l-0.346-0.701l85.845-171.69
		c1.58,0.26,3.232,0.027,4.705-0.746L235,64.415l32.047,16.848c1.098,0.577,2.296,0.861,3.489,0.861
		c0.409,0,0.817-0.038,1.221-0.104l85.84,171.68l-0.346,0.701l-35.83,5.207c-2.825,0.41-5.172,2.389-6.054,5.104
		c-0.882,2.715-0.146,5.696,1.898,7.688l25.926,25.272l-6.121,35.685c-0.482,2.814,0.674,5.658,2.984,7.335
		c1.307,0.95,2.854,1.433,4.409,1.433c1.193,0,2.392-0.285,3.489-0.861L380,324.415l17.574,9.239l3.535,7.07
		c-6.043,5.504-12.348,10.717-18.847,15.555c-3.323,2.474-4.011,7.172-1.538,10.495c2.473,3.322,7.171,4.009,10.495,1.538
		c8.402-6.255,16.499-13.094,24.152-20.371c0.09-0.082,0.179-0.165,0.265-0.251c1.512-1.442,3.014-2.895,4.49-4.371
		c6.824-6.824,17.926-6.822,24.749,0C451.698,350.142,451.698,361.244,444.875,368.067z M235,15c1.616,0,4.317,2.141,6.708,6.922
		l18.539,37.079l0.328,1.913L238.49,49.303c-2.186-1.148-4.795-1.148-6.98,0l-22.086,11.611l0.328-1.913l18.539-37.079
		C230.683,17.141,233.384,15,235,15z M386.079,310.665l-2.59-1.361c-2.185-1.148-4.794-1.148-6.98,0l-22.086,11.611l4.218-24.593
		c0.417-2.433-0.389-4.916-2.157-6.639l-17.868-17.417l24.693-3.588c0.543-0.079,1.066-0.225,1.569-0.415L386.079,310.665z
		 M106.69,268.678l24.693,3.588l-17.868,17.417c-1.768,1.723-2.575,4.206-2.157,6.639l4.218,24.593L93.49,309.303
		c-2.186-1.148-4.795-1.148-6.98,0l-2.59,1.361l21.201-42.402C105.624,268.453,106.147,268.599,106.69,268.678z"/>
</g>
</svg>