<?xml version="1.0" encoding="iso-8859-1"?>
<!-- Generator: Adobe Illustrator 18.1.1, SVG Export Plug-In . SVG Version: 6.00 Build 0)  -->
<svg version="1.1" id="Capa_1" xmlns="http://www.w3.org/2000/svg" xmlns:xlink="http://www.w3.org/1999/xlink" x="0px" y="0px"
	 viewBox="0 0 203.375 203.375" style="enable-background:new 0 0 203.375 203.375;" xml:space="preserve">
<g>
	<g>
		<g>
			<path style="fill:#010002;" d="M172.794,122.291l-4.66-0.626l3.475,3.174c3.353,3.067,5.275,7.419,5.275,11.935
				c0,8.944-7.269,16.219-16.209,16.219h-57.519v-16.248h41.092c8.274,0,14.53-3.049,18.61-9.051
				c17.01-25.045-9.953-93.991-11.116-96.912l-0.365-0.927H29.704l0.447,1.822c0.19,0.78,18.828,78.62,3.575,98.021
				c-2.165,2.759-4.871,4.101-8.274,4.101h-6.202v2.945h80.961v16.248H25.94c-8.743,0-16.008-7.115-16.194-15.872l-0.086-4.352
				l-2.577,3.514c-4.398,6.027-6.721,13.127-6.721,20.539v5.937c0,19.236,15.643,34.879,34.879,34.879h132.886
				c19.236,0,34.89-15.643,34.89-34.879v-5.937C203.014,139.445,190.026,124.592,172.794,122.291z M33.842,133.801
				c0.791-0.662,1.525-1.417,2.197-2.283c14.877-18.911,0.701-84.529-2.595-98.715h115.919c3.139,8.221,26.222,70.904,11.059,93.229
				c-3.497,5.146-8.933,7.766-16.173,7.766H33.842V133.801z M200.068,162.764c0,17.612-14.326,31.934-31.945,31.934H35.241
				c-17.612,0-31.938-14.323-31.938-31.934v-5.937c0-5.429,1.396-10.769,4.044-15.5c2.097,8.521,9.777,14.609,18.596,14.609h134.733
				c10.558,0,19.158-8.596,19.158-19.161c0-3.797-1.174-7.569-3.31-10.737c13.696,3.733,23.549,16.524,23.549,30.792v5.934H200.068z
				"/>
			<path style="fill:#010002;" d="M168.124,198.005H35.241C15.804,198.005,0,182.194,0,162.764v-5.937
				c0-7.494,2.348-14.666,6.789-20.75l3.207-4.381l0.107,5.422c0.183,8.55,7.287,15.518,15.836,15.518h73.91v-15.539H18.893v-3.658
				h6.56c3.282,0,5.891-1.299,7.984-3.962c15.203-19.322-3.446-96.93-3.636-97.71l-0.551-2.273h122.372l0.455,1.156
				c1.167,2.931,28.209,72.032,11.091,97.248c-4.162,6.109-10.518,9.201-18.914,9.201h-40.734v15.539h57.158
				c8.736,0,15.847-7.118,15.847-15.865c0-4.416-1.872-8.672-5.154-11.674l-4.313-3.951l5.791,0.784
				c17.404,2.326,30.528,17.329,30.528,34.894v5.937C203.372,182.194,187.564,198.005,168.124,198.005z M9.319,133.837l-1.943,2.663
				c-4.355,5.966-6.657,12.991-6.657,20.328v5.937c0,19.032,15.486,34.522,34.522,34.522h132.886
				c19.032,0,34.525-15.486,34.525-34.522v-5.937c0-17.207-12.848-31.898-29.908-34.182l-3.511-0.472l2.62,2.394
				c3.421,3.139,5.386,7.587,5.386,12.204c0,9.144-7.43,16.577-16.563,16.577h-57.877v-16.964h41.454
				c8.138,0,14.298-2.992,18.317-8.893c16.91-24.905-10.006-93.659-11.159-96.575l-0.272-0.701H30.166l0.333,1.381
				c0.193,0.784,18.918,78.731,3.504,98.329c-2.237,2.852-5.032,4.234-8.55,4.234h-5.841v2.233h80.957v16.964H25.94
				c-8.94,0-16.363-7.276-16.552-16.216L9.319,133.837z M168.124,195.063H35.241c-17.812,0-32.292-14.487-32.292-32.296v-5.937
				c0-5.472,1.414-10.894,4.087-15.679l0.447-0.802l0.218,0.891c2.076,8.439,9.577,14.337,18.245,14.337H160.68
				c10.364,0,18.803-8.432,18.803-18.803c0-3.693-1.167-7.433-3.26-10.533l-0.548-0.805l0.945,0.251
				c13.796,3.765,23.81,16.853,23.81,31.14v5.937C200.423,180.576,185.936,195.063,168.124,195.063z M7.233,142.29
				c-2.341,4.481-3.575,9.484-3.575,14.541v5.937c0,17.408,14.169,31.58,31.58,31.58h132.886c17.415,0,31.58-14.172,31.58-31.58
				v-5.937c0-13.646-9.355-26.186-22.368-30.177c1.847,3.049,2.845,6.607,2.845,10.121c0,10.765-8.747,19.523-19.508,19.523H25.94
				C17.243,156.297,9.681,150.582,7.233,142.29z M144.253,134.151H32.847l0.769-0.633c0.762-0.633,1.485-1.381,2.14-2.222
				c14.841-18.871,0.39-85.291-2.663-98.415l-0.1-0.44h116.624l0.082,0.225c2.745,7.201,26.351,70.994,11.023,93.569
				C157.151,131.489,151.611,134.151,144.253,134.151z M34.79,133.439h109.463c7.108,0,12.444-2.562,15.876-7.609
				c14.977-22.042-7.906-84.472-11.012-92.674H33.899c3.271,14.165,17.307,79.662,2.426,98.579
				C35.842,132.355,35.327,132.924,34.79,133.439z"/>
		</g>
		<g>
			<rect x="101.886" y="5.732" style="fill:#010002;" width="2.938" height="19.906"/>
			<path style="fill:#010002;" d="M105.19,25.995h-3.661V5.37h3.661V25.995z M102.241,25.279h2.233V6.082h-2.233V25.279z"/>
		</g>
		<g>
			<polygon style="fill:#010002;" points="107.57,6.082 107.57,20.577 136.97,6.082 			"/>
			<path style="fill:#010002;" d="M107.204,21.16V5.732h31.315L107.204,21.16z M107.924,6.444v13.553l27.511-13.553H107.924z"/>
		</g>
	</g>
</g>
<g>
</g>
<g>
</g>
<g>
</g>
<g>
</g>
<g>
</g>
<g>
</g>
<g>
</g>
<g>
</g>
<g>
</g>
<g>
</g>
<g>
</g>
<g>
</g>
<g>
</g>
<g>
</g>
<g>
</g>
</svg>
