<?xml version="1.0" encoding="iso-8859-1"?>
<!-- Generator: Adobe Illustrator 18.0.0, SVG Export Plug-In . SVG Version: 6.00 Build 0)  -->
<!DOCTYPE svg PUBLIC "-//W3C//DTD SVG 1.1//EN" "http://www.w3.org/Graphics/SVG/1.1/DTD/svg11.dtd">
<svg version="1.1" id="Capa_1" xmlns="http://www.w3.org/2000/svg" xmlns:xlink="http://www.w3.org/1999/xlink" x="0px" y="0px"
	 viewBox="0 0 429.567 429.567" style="enable-background:new 0 0 429.567 429.567;" xml:space="preserve">
<g>
	<g>
		<polygon points="174.993,29.195 141.134,39.308 174.993,49.422 		"/>
		<polygon points="174.993,39.61 174.993,29.195 141.134,39.308 158.567,44.516 		"/>
		<path d="M429.03,354.029c-1.086-2.612-3.637-4.315-6.465-4.315H310.657c-0.133-0.127-0.266-0.254-0.41-0.373l-23.988-19.709
			c-1.252-1.028-2.822-1.591-4.443-1.591h-92.822v-9.593h171.07c2.563,0,4.92-1.4,6.147-3.65c1.226-2.25,1.125-4.99-0.264-7.145
			c-0.729-1.126-73.768-113.957-176.953-238.47v-9.826c0.014-0.177,0.031-0.353,0.031-0.531l-0.002-39.037
			c0-2.211-1.045-4.292-2.818-5.613c-0.791-0.588-1.686-0.983-2.621-1.198c-0.074-0.017-0.148-0.037-0.223-0.052
			c-0.137-0.026-0.273-0.045-0.41-0.063c-0.121-0.017-0.242-0.033-0.365-0.043c-0.116-0.009-0.232-0.014-0.348-0.018
			c-0.082-0.002-0.162-0.012-0.244-0.012c-0.077,0-0.151,0.009-0.227,0.011c-0.084,0.004-0.166,0.007-0.248,0.013
			c-0.22,0.015-0.436,0.04-0.648,0.074c-0.024,0.004-0.049,0.007-0.072,0.012c-0.355,0.061-0.701,0.146-1.035,0.26l-65.086,19.437
			c-2.965,0.885-4.997,3.612-4.998,6.706c0,3.095,2.031,5.821,4.996,6.708l60.318,18.021v18.502L56.065,308.186
			c-1.145,2.169-1.068,4.779,0.198,6.88c1.267,2.1,3.541,3.384,5.993,3.384h112.736v9.593H81.132c-1.992,0-3.889,0.848-5.217,2.332
			l-14.562,16.276c-0.81,0.904-1.339,1.961-1.598,3.064H7c-2.528,0-4.86,1.364-6.101,3.566c-1.239,2.203-1.195,4.903,0.115,7.064
			l32.193,53.061c1.269,2.092,3.537,3.369,5.984,3.369h330.547c1.863,0,3.646-0.742,4.961-2.061l52.826-53.06
			C429.523,359.651,430.116,356.641,429.03,354.029z M198.513,304.449c4.949-8.241,8.926-17.544,11.947-27.87
			c0.24,0.024,0.482,0.038,0.729,0.038h116.986c8.111,11.768,14.482,21.222,18.889,27.832H198.513z M318.458,262.617H213.846
			c5.241-26.891,4.931-59.678-0.97-98.124c-3.465-22.581-8.311-43.288-12.676-59.473
			C249.978,166.774,291.222,223.639,318.458,262.617z M188.993,117.778c12.163,48.226,25.432,126.568,0,175.017V117.778z
			 M405.72,363.715l-38.889,39.061H43.133l-23.698-39.061 M174.993,112.561v191.889H73.859L174.993,112.561z M279.308,342.042
			l9.34,7.673H77.397l6.865-7.673H279.308z"/>
	</g>
</g>
<g>
</g>
<g>
</g>
<g>
</g>
<g>
</g>
<g>
</g>
<g>
</g>
<g>
</g>
<g>
</g>
<g>
</g>
<g>
</g>
<g>
</g>
<g>
</g>
<g>
</g>
<g>
</g>
<g>
</g>
</svg>
