<?xml version="1.0" encoding="UTF-8" standalone="no"?>
<svg
   xmlns:dc="http://purl.org/dc/elements/1.1/"
   xmlns:cc="http://creativecommons.org/ns#"
   xmlns:rdf="http://www.w3.org/1999/02/22-rdf-syntax-ns#"
   xmlns:svg="http://www.w3.org/2000/svg"
   xmlns="http://www.w3.org/2000/svg"
   xmlns:xlink="http://www.w3.org/1999/xlink"
   xmlns:sodipodi="http://sodipodi.sourceforge.net/DTD/sodipodi-0.dtd"
   xmlns:inkscape="http://www.inkscape.org/namespaces/inkscape"
   sodipodi:docname="blob.svg"
   inkscape:version="1.0beta2 (2b71d25, 2019-12-03)"
   id="svg338"
   version="1.1"
   viewBox="0 0 210 297"
   height="297mm"
   width="210mm">

    <path d="
M 0 30
M 8.0697901,261.03159 c -2.9840547,-1.09609 -4.3326502,-5.09871 -2.61909,-7.77345 1.9311189,-3.01432 12.9213609,-14.38135 17.2869359,-17.87958 9.090634,-7.28453 17.180264,-10.4608 28.062362,-11.01827 12.229288,-0.62649 22.947294,-2.38871 29.501042,-4.85047 l 1.058333,-0.39754 -1.324538,-0.0187 c -20.410022,-0.28726 -32.248226,-14.50972 -24.847039,-29.85129 1.115292,-2.31184 1.159838,-2.48945 0.799256,-3.18674 -3.193056,-6.17469 -0.222676,-15.33234 7.643958,-23.56625 1.09211,-1.1431 1.985655,-2.18277 1.985655,-2.31038 0,-0.12761 -11.474916,-11.72298 -25.499811,-25.76747 C 18.299214,112.56336 14.481163,108.6277 13.67605,107.15625 6.6517857,94.318459 13.889045,74.979402 32.792139,56.075158 53.860728,35.005285 74.999912,28.614384 87.392662,39.568062 91.637991,43.320413 153.099,105.1436 154.32187,106.89167 c 9.53186,13.62564 6.50106,38.52546 -6.41589,52.71017 l -1.61898,1.77788 2.12891,2.41224 c 7.06812,8.00875 9.50505,16.39442 6.46995,22.26364 -0.36058,0.69729 -0.31603,0.8749 0.79926,3.18674 3.56983,7.39973 2.74131,14.60154 -2.41129,20.95989 -4.43377,5.47129 -10.71992,8.1313 -20.70983,8.76343 -1.61166,0.10198 -2.89204,0.22366 -2.8453,0.2704 0.20851,0.20851 6.74509,1.9768 10.03044,2.71346 5.5754,1.25014 10.38724,1.87028 16.7519,2.15896 18.79725,0.85257 28.71087,6.33261 45.55625,25.18253 4.29879,4.81032 4.92704,6.35926 3.66125,9.0267 -1.87361,3.94834 -3.30692,3.95027 -28.97687,0.039 -11.95294,-1.82125 -13.91399,-1.98123 -27.38438,-2.23399 -24.38378,-0.45754 -33.02482,-1.3716 -42.33333,-4.47806 l -1.5875,-0.52978 -2.86166,0.90508 c -9.023654,2.85397 -21.8372,4.05738 -43.572718,4.09222 -8.976289,0.0144 -13.747213,0.48874 -29.501042,2.93315 -14.289615,2.21721 -19.490316,2.69922 -21.4312499,1.98629 z M 30.452331,248.19622 c 14.696556,-2.27671 18.366674,-2.57541 34.238292,-2.78659 19.585745,-0.2606 27.891539,-1.17593 36.284947,-3.99874 4.02289,-1.35295 4.98262,-1.41674 7.43141,-0.49394 8.34997,3.14658 17.40193,4.22278 37.77531,4.49118 16.63681,0.21917 19.46909,0.47985 40.34896,3.71376 l 0.92604,0.14343 -1.85208,-1.76262 c -8.96011,-8.52729 -16.23648,-12.01984 -26.19375,-12.5726 -11.70575,-0.64983 -16.56515,-1.29831 -24.60625,-3.28364 -10.35735,-2.55721 -20.46612,-6.50026 -28.05368,-10.94268 l -1.33077,-0.77914 -1.57965,0.93874 c -7.061465,4.19646 -17.512803,8.25481 -27.773403,10.78468 -8.208635,2.02394 -12.506714,2.59259 -24.870834,3.29053 -8.42364,0.4755 -13.836165,2.55414 -20.958738,8.04905 -2.912268,2.24675 -7.239828,6.21769 -6.797262,6.23713 0.159409,0.007 3.314565,-0.45585 7.011458,-1.02855 z 

M 134.01146,208.20296 c 9.7539,-0.97204 15.46642,-6.97289 12.63357,-13.27119 l -0.56528,-1.25677 h -40.64329 -40.6433 l -0.565272,1.25677 c -2.75396,6.12289 2.861202,12.26513 12.104402,13.24062 3.071156,0.32411 54.4603,0.35135 57.67917,0.0306 z 

m 11.45198,-28.5259 c -0.26277,-2.73474 -2.56518,-6.43345 -6.48005,-10.40987 l -2.01877,-2.05053 h -31.5306 -31.530602 l -2.148076,2.18282 c -3.82846,3.89037 -6.052457,7.45925 -6.331172,10.15975 l -0.146121,1.41577 h 40.155051 40.15506 z 

m -6.08018,-26.60978 c 8.84617,-8.18999 12.70173,-27.11759 7.68134,-37.70895 l -1.06603,-2.24896 -33.51022,-33.506882 C 74.16844,41.286398 78.261007,44.884115 73.024998,44.910824 53.029523,45.01282 19.421181,79.905497 21.715896,98.180691 c 0.453806,3.614129 -0.576588,2.470079 27.571495,30.612649 l 25.728372,25.72332 h 31.400997 31.40099 z
"/>
</svg>
