<?xml version="1.0" encoding="iso-8859-1"?>
<!-- Generator: Adobe Illustrator 19.0.0, SVG Export Plug-In . SVG Version: 6.00 Build 0)  -->
<svg version="1.1" id="Layer_1" xmlns="http://www.w3.org/2000/svg" xmlns:xlink="http://www.w3.org/1999/xlink" x="0px" y="0px"
	 viewBox="0 0 512 512" style="enable-background:new 0 0 512 512;" xml:space="preserve">
<g>
	<g>
		<path d="M437.034,437.002C483.352,390.676,512,326.683,512,256c0-70.601-28.583-134.526-74.806-180.839
			c-0.059-0.061-0.109-0.127-0.169-0.188c-0.06-0.06-0.127-0.11-0.188-0.17C390.523,28.582,326.599,0,256,0
			S121.477,28.582,75.164,74.804c-0.061,0.06-0.128,0.11-0.188,0.17c-0.06,0.06-0.11,0.127-0.169,0.188
			C28.583,121.474,0,185.399,0,256c0,70.683,28.648,134.676,74.966,181.002c0.005,0.005,0.009,0.01,0.014,0.015
			c0.005,0.005,0.01,0.009,0.015,0.013C121.321,483.351,185.315,512,256,512s134.679-28.649,181.005-74.969
			c0.005-0.005,0.01-0.009,0.015-0.013C437.025,437.013,437.029,437.007,437.034,437.002z M43.726,277.333h107.744
			c2.765,13.617,8.127,26.288,15.542,37.483l-76.188,76.188C64.959,359.398,47.986,320.237,43.726,277.333z M90.825,120.993
			l76.188,76.188c-7.415,11.196-12.779,23.868-15.544,37.486H43.726C47.986,191.762,64.96,152.6,90.825,120.993z M468.274,234.667
			H360.531c-2.765-13.618-8.128-26.29-15.544-37.486l76.188-76.187C447.04,152.6,464.014,191.762,468.274,234.667z M301.25,301.248
			c-0.022,0.022-0.04,0.046-0.062,0.068C289.611,312.861,273.639,320,256,320s-33.611-7.139-45.188-18.684
			c-0.022-0.022-0.04-0.046-0.062-0.068c-0.022-0.022-0.046-0.039-0.067-0.061C199.139,289.61,192,273.638,192,256
			c0-35.343,28.657-64,64-64s64,28.657,64,64c0,17.638-7.139,33.61-18.683,45.187C301.296,301.209,301.272,301.226,301.25,301.248z
			 M314.817,167.011c-11.195-7.414-23.867-12.777-37.483-15.542V43.726c42.904,4.26,82.065,21.234,113.671,47.098L314.817,167.011z
			 M234.667,151.469c-13.617,2.765-26.288,8.127-37.483,15.542l-76.188-76.188c31.606-25.864,70.767-42.838,113.671-47.098V151.469z
			 M197.181,344.987c11.196,7.415,23.868,12.779,37.486,15.544v107.744c-42.905-4.26-82.067-21.235-113.674-47.1L197.181,344.987z
			 M277.333,360.531c13.618-2.765,26.29-8.128,37.486-15.544l76.188,76.188c-31.607,25.865-70.769,42.839-113.674,47.1V360.531z
			 M344.989,314.817c7.414-11.195,12.777-23.867,15.542-37.483h107.744c-4.26,42.904-21.234,82.065-47.098,113.671L344.989,314.817z
			"/>
	</g>
</g>
<g>
</g>
<g>
</g>
<g>
</g>
<g>
</g>
<g>
</g>
<g>
</g>
<g>
</g>
<g>
</g>
<g>
</g>
<g>
</g>
<g>
</g>
<g>
</g>
<g>
</g>
<g>
</g>
<g>
</g>
</svg>
