<?xml version="1.0" encoding="UTF-8" standalone="no"?>
<svg
   xmlns:dc="http://purl.org/dc/elements/1.1/"
   xmlns:cc="http://creativecommons.org/ns#"
   xmlns:rdf="http://www.w3.org/1999/02/22-rdf-syntax-ns#"
   xmlns:svg="http://www.w3.org/2000/svg"
   xmlns="http://www.w3.org/2000/svg"
   xmlns:xlink="http://www.w3.org/1999/xlink"
   xmlns:sodipodi="http://sodipodi.sourceforge.net/DTD/sodipodi-0.dtd"
   xmlns:inkscape="http://www.inkscape.org/namespaces/inkscape"
   sodipodi:docname="commoner-1.svg"
   inkscape:version="1.0beta2 (2b71d25, 2019-12-03)"
   id="svg8"
   version="1.1"
   viewBox="-30 0 264 297"
   height="297mm"
   width="210mm">

      <path
         d="

M -25,0 M 230,0 

M 85.989582,259.68736 c -5.738897,-0.38342 -6.342489,-0.44927 -13.576774,-1.48118 -5.208532,-0.74296 -6.947188,-1.05949 -12.847008,-2.3389 -14.169575,-3.07273 -29.697352,-9.33716 -39.523615,-15.94516 l -1.521354,-1.02309 v -26.70191 -26.7019 l -1.256771,-0.72165 c -19.2275594,-11.04073 -34.215176,-29.10025 -38.009614,-45.80017 -3.06083,-13.4712 -0.234871,-29.50636 6.588845,-37.38667 11.3736601,-13.134775 31.02487,-23.626366 56.49004,-30.159489 9.12009,-2.339771 20.041823,-4.289211 30.294792,-5.407377 3.4925,-0.380884 6.457633,-0.722828 6.589184,-0.759875 0.131551,-0.03705 0.448262,-1.10008 0.703805,-2.362293 1.122066,-5.54228 4.851005,-11.038795 9.667438,-14.249955 13.5756,-9.050975 31.84705,-1.873147 35.56509,13.971531 l 0.61894,2.637663 6.50069,0.721212 c 29.93321,3.320912 56.62351,11.926662 73.28559,23.629461 1.20699,0.847743 2.44994,1.715547 2.76211,1.928455 4.88732,3.333295 12.1706,10.774297 13.87278,14.173207 4.45327,8.89226 5.69764,21.29429 3.19421,31.83508 -4.22699,17.79786 -20.30795,36.31229 -43.68132,50.29142 l -2.31107,1.3822 -0.0702,24.40685 -0.0702,24.40684 -0.66146,0.98188 c -1.20586,1.79 -10.57721,6.93336 -18.38854,10.09235 -6.99129,2.82735 -15.71034,5.50444 -22.88646,7.02703 -16.36217,3.47164 -34.14104,4.70279 -51.329168,3.55444 z m 21.695838,-10.45729 c 8.90151,-0.49411 14.89866,-1.22476 24.73854,-3.01397 5.28442,-0.96088 15.01582,-3.71077 20.95274,-5.9208 2.63879,-0.9823 8.33531,-3.44915 8.62866,-3.73661 0.62453,-0.61197 -11.08773,-4.47583 -19.65953,-6.48565 -11.45007,-2.6847 -22.6958,-4.11997 -36.3801,-4.64313 -13.014738,-0.49757 -28.997347,0.55346 -40.463569,2.6609 -1.610513,0.296 -3.64258,0.65793 -4.515705,0.80429 -5.744093,0.96282 -17.137726,4.21596 -23.251969,6.63896 l -2.085303,0.82638 1.291553,0.66311 c 16.559043,8.5018 45.993108,13.58045 70.744683,12.20652 z M 32.169262,226.20629 c 37.731684,-15.40064 96.607758,-15.39343 133.633728,0.0164 1.39345,0.57994 2.64084,1.05443 2.77198,1.05443 0.13702,0 0.20834,-2.78549 0.16767,-6.54843 l -0.0708,-6.54843 -1.5875,-0.77127 c -6.94645,-3.37486 -17.74421,-6.89737 -27.91354,-9.10613 -35.37754,-7.68396 -80.052432,-4.08281 -107.222395,8.64298 l -2.844271,1.3322 v 6.49954 c 0,3.57475 0.09937,6.49955 0.220827,6.49955 0.121457,0 1.401379,-0.48186 2.844271,-1.07079 z m 4.3512,-26.69741 c 34.556287,-12.38035 81.421988,-13.27055 118.260788,-2.24633 3.83878,1.14878 6.49905,2.10595 12.50156,4.49808 l 1.52136,0.6063 v -6.60704 -6.60704 l -2.31511,-1.06953 c -36.33052,-16.78407 -96.079169,-17.18138 -133.019271,-0.88454 -4.878559,2.15228 -4.365625,1.14303 -4.365625,8.58979 0,3.4457 0.06573,6.33063 0.146069,6.41097 0.08034,0.0803 1.122135,-0.26761 2.315104,-0.77322 1.192969,-0.5056 3.422777,-1.36845 4.955125,-1.91744 z M 176.06694,178.72546 c 32.54814,-19.24299 46.81256,-45.49041 36.79918,-67.7128 C 210.76313,106.34555 199.68128,97.666469 188.78021,92.149052 148.49815,71.760891 75.261818,69.318901 28.750631,86.813028 11.742928,93.21009 -4.2524215,103.8257 -7.6683678,110.98317 c -10.3559052,21.69885 1.852657,47.77617 30.1579488,64.41696 1.091406,0.64164 2.634586,1.55277 3.429288,2.02471 l 1.444914,0.85809 0.936336,-0.47495 c 11.402333,-5.78385 32.53118,-10.75368 54.249879,-12.76042 5.717845,-0.52831 28.549062,-0.43074 34.528122,0.14756 18.71491,1.81012 33.91667,5.1455 47.36042,10.39125 2.4272,0.94709 8.40908,3.61462 9.12813,4.07055 0.21828,0.1384 0.4168,0.25347 0.44115,0.25569 0.0244,0.002 0.95096,-0.53199 2.05912,-1.18715 z M 114.56458,64.212628 c 0,-0.495031 -1.39263,-3.106793 -2.18679,-4.101119 -5.61418,-7.029296 -16.938088,-5.935625 -20.937022,2.02211 -1.288796,2.564662 -2.59035,2.295239 11.087992,2.295239 6.6197,0 12.03582,-0.0973 12.03582,-0.21623 z

M 100.33594 44.654297 C 96.635038 45.00803 92.927636 46.262291 89.515625 48.537109 C 84.667441 51.769438 80.921017 57.289618 79.791016 62.871094 C 79.66392 63.498862 79.522421 64.077297 79.396484 64.5 C 79.333516 64.711351 79.273601 64.884985 79.224609 65.001953 C 79.200114 65.060437 79.177613 65.105854 79.162109 65.130859 C 79.146606 65.155865 79.125304 65.148679 79.181641 65.132812 C 79.191845 65.129939 79.168973 65.136218 79.140625 65.140625 C 79.112277 65.145032 79.071236 65.149497 79.021484 65.15625 C 78.92198 65.169756 78.782644 65.187413 78.607422 65.208984 C 78.256977 65.252128 77.764916 65.310065 77.167969 65.378906 C 75.974075 65.516588 74.359301 65.698255 72.613281 65.888672 C 62.353904 67.007537 51.428364 68.957135 42.300781 71.298828 C 16.818457 77.836352 -2.8556574 88.334573 -14.255859 101.5 C -21.125878 109.43378 -23.944754 125.49148 -20.875 139.00195 C -17.068451 155.75517 -2.0585728 173.8317 17.197266 184.88867 L 18.388672 185.57227 L 18.388672 212.19727 L 18.388672 238.96875 L 19.96875 240.03125 C 29.816439 246.65366 45.350703 252.91971 59.537109 255.99609 C 65.437774 257.27569 67.184874 257.59477 72.394531 258.33789 C 79.629056 259.36983 80.241182 259.43687 85.980469 259.82031 C 85.983701 259.82053 85.987003 259.8201 85.990234 259.82031 C 103.18768 260.96838 120.97379 259.73543 137.3457 256.26172 C 144.53134 254.73711 153.25408 252.05932 160.25391 249.22852 C 164.16566 247.64656 168.46464 245.56922 171.93945 243.66211 C 173.67686 242.70855 175.20966 241.79828 176.38477 241.01172 C 177.55987 240.22516 178.3737 239.57689 178.70312 239.08789 L 179.38672 238.07227 L 179.45703 213.625 L 179.52734 189.29297 L 181.77539 187.94922 C 205.16998 173.9574 221.27792 155.4254 225.51758 137.57422 C 228.02868 127.00114 226.7834 114.57786 222.3125 105.65039 C 221.44489 103.91795 219.19612 101.21247 216.54688 98.505859 C 213.89763 95.799244 210.85273 93.102965 208.39648 91.427734 C 208.08751 91.217008 206.84155 90.347597 205.63477 89.5 C 188.94327 77.776542 162.23665 69.168427 132.28711 65.845703 L 125.88086 65.136719 L 125.2832 62.589844 C 122.47968 50.642439 111.43864 43.593098 100.33594 44.654297 z M 100.36328 44.914062 C 111.34125 43.861468 122.25185 50.830778 125.02539 62.650391 L 125.66602 65.378906 L 132.25781 66.109375 C 162.17469 69.428475 188.84976 78.034657 205.48242 89.716797 C 206.68962 90.564686 207.93072 91.429442 208.24609 91.644531 C 210.67717 93.302596 213.71765 95.994469 216.35742 98.691406 C 218.99719 101.38834 221.2416 104.10111 222.07617 105.76758 C 226.51181 114.62463 227.75553 127.00517 225.25977 137.51367 C 221.04544 155.25821 204.99082 173.75622 181.63867 187.72266 L 179.26367 189.14258 L 179.19336 213.625 L 179.12305 237.99023 L 178.48438 238.93945 C 178.21087 239.34545 177.4016 240.01104 176.23633 240.79102 C 175.07106 241.57099 173.54508 242.47878 171.8125 243.42969 C 168.34734 245.3315 164.05583 247.40539 160.15625 248.98242 C 153.17349 251.80632 144.45762 254.48334 137.29102 256.00391 C 120.94167 259.47283 103.17385 260.70221 85.998047 259.55469 C 85.994781 259.55447 85.993497 259.55491 85.990234 259.55469 C 80.260841 259.17187 79.661569 259.10746 72.431641 258.07617 C 67.224234 257.33337 65.492726 257.01751 59.59375 255.73828 C 45.441006 252.6692 29.920071 246.40609 20.115234 239.8125 L 18.652344 238.82812 L 18.652344 212.19727 L 18.652344 185.41797 L 17.330078 184.6582 C -1.8692022 173.63371 -16.83486 155.58998 -20.617188 138.94336 C -23.669094 125.51143 -20.834054 109.50067 -14.056641 101.67383 C -2.7095224 88.569705 16.917219 78.08341 42.365234 71.554688 C 51.477832 69.216839 62.396018 67.269811 72.642578 66.152344 C 74.389059 65.961877 76.00258 65.780351 77.197266 65.642578 C 77.794608 65.573692 78.287015 65.515949 78.638672 65.472656 C 78.8145 65.45101 78.955167 65.431742 79.056641 65.417969 C 79.107378 65.411082 79.148443 65.405248 79.179688 65.400391 C 79.210932 65.395533 79.227258 65.394223 79.253906 65.386719 C 79.343131 65.36159 79.358724 65.314683 79.386719 65.269531 C 79.414713 65.22438 79.441062 65.169623 79.46875 65.103516 C 79.524127 64.971302 79.585795 64.792986 79.650391 64.576172 C 79.779583 64.142544 79.922334 63.558273 80.050781 62.923828 C 81.164912 57.420744 84.877428 51.947804 89.662109 48.757812 C 93.037898 46.507143 96.703958 45.264927 100.36328 44.914062 z M 101.29102 55.373047 C 97.215645 55.766787 93.343136 58.052759 91.322266 62.074219 C 91.004495 62.706572 90.680265 63.158395 90.578125 63.541016 C 90.527055 63.732326 90.545475 63.931098 90.679688 64.076172 C 90.8139 64.221246 91.027897 64.30726 91.345703 64.373047 C 92.616928 64.636194 95.690994 64.560547 102.5293 64.560547 C 105.8398 64.560547 108.84856 64.53726 111.03125 64.498047 C 112.1226 64.47844 113.00788 64.45562 113.62109 64.429688 C 113.9277 64.416721 114.16518 64.403052 114.33008 64.388672 C 114.41253 64.381482 114.47668 64.373782 114.52539 64.365234 C 114.54974 64.36096 114.56833 64.355903 114.5918 64.347656 C 114.60353 64.343533 114.61712 64.339947 114.63672 64.326172 C 114.64162 64.322728 114.6465 64.317977 114.65234 64.3125 C 114.65819 64.307023 114.67155 64.293432 114.67188 64.292969 C 114.6722 64.292506 114.68929 64.258276 114.68945 64.257812 C 114.68962 64.257349 114.69727 64.213355 114.69727 64.212891 C 114.69727 64.119998 114.67047 64.021159 114.62891 63.894531 C 114.58734 63.767903 114.52763 63.61864 114.45508 63.451172 C 114.30997 63.116236 114.10975 62.709047 113.88477 62.287109 C 113.4348 61.443234 112.88926 60.541129 112.48047 60.029297 C 109.64422 56.478145 105.36639 54.979307 101.29102 55.373047 z M 101.31641 55.632812 C 105.30627 55.247607 109.49746 56.715215 112.27539 60.193359 C 112.66075 60.675853 113.20746 61.577765 113.65234 62.412109 C 113.87479 62.829282 114.07206 63.229618 114.21289 63.554688 C 114.28331 63.717222 114.33926 63.861724 114.37695 63.976562 C 114.39845 64.042056 114.39946 64.068186 114.4082 64.111328 C 114.37646 64.115271 114.35313 64.120946 114.30664 64.125 C 114.14949 64.138705 113.91396 64.151182 113.60938 64.164062 C 113.00021 64.189823 112.11749 64.212837 111.02734 64.232422 C 108.84705 64.271592 105.8385 64.296875 102.5293 64.296875 C 95.689257 64.296875 92.573822 64.356589 91.398438 64.113281 C 91.104591 64.052454 90.941329 63.970293 90.873047 63.896484 C 90.804765 63.822676 90.795521 63.751509 90.833984 63.607422 C 90.910912 63.319248 91.231966 62.843338 91.558594 62.193359 C 93.536657 58.257084 97.326544 56.018018 101.31641 55.632812 z M 111.10547 75.136719 C 81.93321 74.164234 51.982032 77.933621 28.703125 86.689453 C 20.189495 89.891662 11.932407 94.147416 5.3710938 98.501953 C -1.1902193 102.85649 -6.0555149 107.29755 -7.7871094 110.92578 C -12.982639 121.81203 -12.516751 133.80304 -7.2070312 145.14453 C -1.8973111 156.48602 8.250366 167.18219 22.421875 175.51367 C 23.51308 176.15519 25.057234 177.06734 25.851562 177.53906 L 27.359375 178.43359 L 28.359375 177.92578 C 39.730173 172.15793 60.855899 167.18531 82.5625 165.17969 C 88.246733 164.65448 111.1161 164.75084 117.06445 165.32617 C 135.7707 167.13545 150.96065 170.46861 164.39062 175.70898 C 165.59933 176.18062 167.7023 177.08406 169.58984 177.92578 C 170.53362 178.34664 171.42443 178.75361 172.12305 179.08203 C 172.82167 179.41045 173.33712 179.66873 173.49609 179.76953 C 173.60655 179.83956 173.71089 179.9036 173.79297 179.95117 C 173.83401 179.97496 173.87 179.99299 173.89844 180.00781 C 173.91266 180.01522 173.92507 180.02183 173.9375 180.02734 C 173.94371 180.0301 173.94915 180.03239 173.95703 180.03516 C 173.96097 180.03654 173.96493 180.0395 173.9707 180.04102 C 173.97647 180.04253 173.99533 180.04485 173.99609 180.04492 C 173.99628 180.04494 174.029 180.04302 174.0293 180.04297 C 174.0296 180.04292 174.04122 180.0401 174.04492 180.03906 C 174.05233 180.03699 174.05677 180.03662 174.06055 180.03516 C 174.06811 180.03222 174.07427 180.03008 174.08008 180.02734 C 174.09168 180.02187 174.10331 180.01418 174.11914 180.00586 C 174.1508 179.98921 174.19374 179.96584 174.24805 179.93555 C 174.35667 179.87497 174.51035 179.78744 174.69727 179.67969 C 175.0711 179.46419 175.58034 179.16763 176.13477 178.83984 C 192.42423 169.20925 204.14473 157.82198 210.54297 146.04883 C 216.94121 134.27567 218.0107 122.10942 212.98633 110.95898 C 211.9117 108.57408 208.60649 105.24355 204.20312 101.79492 C 199.79976 98.346297 194.2992 94.794423 188.83984 92.03125 C 168.67189 81.823543 140.27773 76.109203 111.10547 75.136719 z M 111.09766 75.412109 C 140.24188 76.384128 168.6066 82.087124 188.7207 92.267578 C 194.16242 95.021822 199.65244 98.566859 204.04102 102.00391 C 208.42959 105.44095 211.71774 108.7842 212.74609 111.06641 C 217.7351 122.13836 216.67821 134.20693 210.31055 145.92383 C 203.94288 157.64073 192.25868 168.99893 176 178.61133 C 175.44627 178.9387 174.93704 179.23639 174.56445 179.45117 C 174.37816 179.55856 174.22574 179.64562 174.11914 179.70508 C 174.07018 179.73239 174.03366 179.75088 174.00586 179.76562 C 173.98419 179.75404 173.959 179.73996 173.92578 179.7207 C 173.84795 179.67559 173.74454 179.61329 173.63672 179.54492 C 173.43617 179.41776 172.93544 179.17137 172.23438 178.8418 C 171.53331 178.51223 170.64224 178.10695 169.69727 177.68555 C 167.80731 176.84275 165.70483 175.93835 164.48633 175.46289 C 151.02881 170.21177 135.81537 166.87346 117.0918 165.0625 C 111.08203 164.48123 88.288566 164.3846 82.537109 164.91602 C 60.806312 166.92387 39.674102 171.88961 28.240234 177.68945 L 27.369141 178.13281 L 25.986328 177.31055 C 25.191252 176.83838 23.648248 175.92691 22.556641 175.28516 C 8.4228578 166.97585 -1.6848893 156.31528 -6.9667969 145.0332 C -12.248704 133.75112 -12.709204 121.85361 -7.5488281 111.04102 C -5.8644763 107.51177 -1.0246959 103.06456 5.5175781 98.722656 C 12.059852 94.380755 20.302802 90.132353 28.796875 86.9375 C 52.029155 78.199205 81.953437 74.44009 111.09766 75.412109 z M 100.20898 175.09766 C 76.098066 174.93734 51.910529 178.91891 33.416016 187.07812 C 32.199086 187.615 31.318492 187.95341 30.669922 188.2832 C 30.021352 188.613 29.596492 188.94424 29.339844 189.44922 C 28.826548 190.45918 28.972656 192.06872 28.972656 195.78906 C 28.972656 197.51275 28.989116 199.09629 29.015625 200.25977 C 29.028879 200.8415 29.042964 201.31829 29.060547 201.65625 C 29.069338 201.82523 29.079947 201.9593 29.089844 202.05664 C 29.094792 202.10531 29.099395 202.14304 29.105469 202.17578 C 29.108506 202.19215 29.112124 202.20649 29.117188 202.22266 C 29.119719 202.23074 29.121847 202.2393 29.126953 202.25 C 29.129506 202.25535 29.132232 202.26259 29.136719 202.26953 C 29.141205 202.27648 29.155622 202.29234 29.15625 202.29297 C 29.194994 202.33169 29.230842 202.33604 29.257812 202.33984 C 29.284783 202.34365 29.308847 202.34364 29.333984 202.3418 C 29.384259 202.33812 29.440273 202.32797 29.507812 202.3125 C 29.642891 202.28156 29.820995 202.22908 30.033203 202.1582 C 30.45762 202.01646 31.018002 201.80278 31.617188 201.54883 C 32.805414 201.04524 35.035178 200.1807 36.564453 199.63281 C 71.086883 187.26459 117.93674 186.37385 154.74414 197.38867 C 158.57967 198.53648 161.23308 199.49117 167.23438 201.88281 L 168.93555 202.5625 L 168.93555 195.75977 L 168.93555 189.06836 L 166.54492 187.96289 C 148.35496 179.55944 124.3199 175.25797 100.20898 175.09766 z M 100.20703 175.37305 C 124.28809 175.5332 148.29304 179.8225 166.43359 188.20312 L 168.67188 189.23828 L 168.67188 195.75977 L 168.67188 202.17188 L 167.33203 201.63867 C 161.32831 199.24606 158.66039 198.28647 154.81836 197.13672 C 117.94816 186.1031 71.066706 186.99229 36.476562 199.38477 C 34.941142 199.93486 32.711383 200.79708 31.513672 201.30469 C 30.919889 201.55635 30.364026 201.76771 29.949219 201.90625 C 29.741815 201.97552 29.569352 202.02717 29.449219 202.05469 C 29.408329 202.06405 29.384098 202.06646 29.357422 202.07031 C 29.355583 202.05568 29.353432 202.04769 29.351562 202.0293 C 29.342487 201.94003 29.33484 201.8092 29.326172 201.64258 C 29.308835 201.30934 29.292517 200.83416 29.279297 200.25391 C 29.252856 199.09341 29.236328 197.51107 29.236328 195.78906 C 29.236328 192.06265 29.126295 190.45354 29.576172 189.56836 C 29.80111 189.12577 30.161713 188.83854 30.789062 188.51953 C 31.416412 188.20052 32.301088 187.85958 33.523438 187.32031 C 51.969026 179.18268 76.125969 175.2129 100.20703 175.37305 z M 96.861328 200.17188 C 72.733311 200.4685 48.899906 204.86033 31.892578 212.82617 L 28.972656 214.19336 L 28.972656 220.77734 C 28.972656 222.56594 28.997008 224.19273 29.037109 225.37305 C 29.05716 225.9632 29.080722 226.44153 29.107422 226.77539 C 29.120772 226.94232 29.134877 227.07195 29.150391 227.16602 C 29.158148 227.21305 29.166167 227.25031 29.177734 227.28516 C 29.183518 227.30258 29.188119 227.31922 29.203125 227.3418 C 29.210628 227.35309 29.22142 227.3667 29.240234 227.38086 C 29.249641 227.38794 29.274444 227.40003 29.275391 227.40039 C 29.276337 227.40075 29.32327 227.41016 29.324219 227.41016 C 29.383138 227.41016 29.406201 227.39811 29.458984 227.38281 C 29.511768 227.36752 29.579201 227.34594 29.660156 227.31836 C 29.822067 227.2632 30.040265 227.18328 30.298828 227.08594 C 30.815955 226.89125 31.49632 226.62299 32.21875 226.32812 C 69.905842 210.94569 128.7719 210.95498 165.75195 226.3457 C 166.44979 226.63614 167.11103 226.9 167.61523 227.0918 C 167.86734 227.18769 168.08056 227.26396 168.24023 227.31836 C 168.32007 227.34556 168.3865 227.36768 168.43945 227.38281 C 168.49241 227.39794 168.51794 227.41016 168.57422 227.41016 C 168.63453 227.41016 168.67591 227.37224 168.69336 227.34961 C 168.71081 227.32698 168.7179 227.3088 168.72461 227.29102 C 168.73802 227.25545 168.74567 227.21976 168.75391 227.17383 C 168.77039 227.08196 168.78404 226.95517 168.79688 226.79297 C 168.82255 226.46856 168.84245 226.00263 168.85742 225.41797 C 168.88736 224.24864 168.89535 222.60922 168.875 220.72656 L 168.80273 214.09766 L 167.14258 213.28906 C 160.1802 209.90647 149.37808 206.38466 139.19922 204.17383 C 125.92103 201.28982 111.33814 199.9939 96.861328 200.17188 z M 96.863281 200.43945 C 111.32258 200.26039 125.88761 201.55268 139.14258 204.43164 C 149.30238 206.63833 160.09682 210.16022 167.02734 213.52734 L 168.54102 214.26367 L 168.61133 220.73047 C 168.63165 222.61075 168.62356 224.246 168.59375 225.41016 C 168.57885 225.99223 168.55817 226.45797 168.5332 226.77344 C 168.52086 226.92945 168.50553 227.04771 168.49219 227.12305 C 168.44789 227.10999 168.39354 227.09198 168.32422 227.06836 C 168.16958 227.01567 167.9593 226.93897 167.70898 226.84375 C 167.20835 226.65331 166.54913 226.38912 165.85352 226.09961 C 128.78163 210.67067 69.895416 210.66514 32.119141 226.08398 L 32.078125 226.09961 C 31.374782 226.38626 30.708035 226.64854 30.205078 226.83789 C 29.948118 226.93463 29.731543 227.01476 29.574219 227.06836 C 29.505419 227.0918 29.454402 227.10783 29.410156 227.12109 C 29.39705 227.04118 29.384071 226.91618 29.371094 226.75391 C 29.345002 226.42765 29.320755 225.95117 29.300781 225.36328 C 29.260834 224.18751 29.236328 222.56349 29.236328 220.77734 L 29.236328 214.36133 L 32.003906 213.06641 C 48.959032 205.12501 72.764444 200.7379 96.863281 200.43945 z M 95.763672 225.20703 C 85.233999 225.39144 74.088536 226.37845 65.478516 227.96094 C 63.868604 228.25683 61.835905 228.61766 60.964844 228.76367 C 55.200965 229.72981 43.814416 232.98136 37.685547 235.41016 L 35.330078 236.3457 L 36.880859 237.14062 C 53.477524 245.66174 82.917977 250.73658 107.69336 249.36133 C 116.59879 248.867 122.60431 248.13547 132.44727 246.3457 C 137.74727 245.38199 147.47624 242.63392 153.42383 240.41992 C 154.74799 239.927 156.83087 239.0632 158.62305 238.28711 C 159.51913 237.89906 160.34262 237.53396 160.96094 237.24609 C 161.27009 237.10216 161.52716 236.97712 161.71875 236.87891 C 161.81455 236.8298 161.89321 236.78803 161.95508 236.75195 C 162.01695 236.71588 162.05799 236.69121 162.09766 236.65234 C 162.14184 236.60905 162.16833 236.53316 162.1582 236.4707 C 162.14807 236.40824 162.11798 236.36219 162.08203 236.32031 C 162.01014 236.23656 161.90412 236.16177 161.75977 236.07422 C 161.47105 235.89911 161.02817 235.68836 160.45312 235.44727 C 159.30304 234.96507 157.62872 234.36234 155.66602 233.71484 C 151.7406 232.41986 146.66816 230.94951 142.37695 229.94336 C 130.91834 227.25666 119.66147 225.82028 105.9707 225.29688 C 102.71421 225.17238 99.273563 225.14556 95.763672 225.20703 z M 95.767578 225.47266 C 99.273141 225.41114 102.71006 225.43821 105.96094 225.5625 C 119.63877 226.08541 130.87488 227.51847 142.31641 230.20117 C 146.597 231.20484 151.6645 232.67245 155.58203 233.96484 C 157.5408 234.61104 159.21338 235.2142 160.35156 235.69141 C 160.92065 235.93001 161.3573 236.1396 161.62305 236.30078 C 161.75302 236.37961 161.83818 236.44877 161.875 236.49023 C 161.85916 236.5013 161.85427 236.50478 161.82227 236.52344 C 161.76717 236.55556 161.69085 236.59676 161.59766 236.64453 C 161.41126 236.74008 161.15503 236.86275 160.84766 237.00586 C 160.23291 237.29207 159.41214 237.65754 158.51758 238.04492 C 156.72846 238.81969 154.64471 239.6825 153.33008 240.17188 C 147.40383 242.37793 137.66923 245.12789 132.40039 246.08594 C 122.56358 247.87459 116.57532 248.60376 107.67773 249.09766 C 82.949967 250.47026 53.523374 245.38873 37.001953 236.90625 L 35.970703 236.37695 L 37.783203 235.65625 C 43.88282 233.23905 55.283505 229.98489 61.007812 229.02539 C 61.883001 228.87868 63.914276 228.51681 65.525391 228.2207 C 74.114703 226.64203 85.25089 225.6572 95.767578 225.47266 z

" />
</svg>
