<?xml version="1.0" encoding="UTF-8" standalone="no"?>
<svg
   xmlns:dc="http://purl.org/dc/elements/1.1/"
   xmlns:cc="http://creativecommons.org/ns#"
   xmlns:rdf="http://www.w3.org/1999/02/22-rdf-syntax-ns#"
   xmlns:svg="http://www.w3.org/2000/svg"
   xmlns="http://www.w3.org/2000/svg"
   xmlns:xlink="http://www.w3.org/1999/xlink"
   xmlns:sodipodi="http://sodipodi.sourceforge.net/DTD/sodipodi-0.dtd"
   xmlns:inkscape="http://www.inkscape.org/namespaces/inkscape"
   sodipodi:docname="flag-1.svg"
   inkscape:version="1.0beta2 (2b71d25, 2019-12-03)"
   id="svg234"
   version="1.1"
   viewBox="0 0 210 297"
   height="297mm"
   width="210mm">
 
    <path d="

m 131.16719,245.89326 c -2.583,-1.02165 -4.69636,-1.95125 -4.69636,-2.06577 0,-0.11451 6.73184,-17.51626 14.95963,-38.67054 8.2278,-21.15429 15.02126,-38.70791 15.09659,-39.00805 0.11791,-0.46976 -0.0769,-0.6119 -1.39973,-1.0212 -4.58358,-1.41825 -9.74365,-4.63012 -21.1416,-13.15954 -9.94461,-7.44185 -18.7051,-13.1942 -20.09397,-13.1942 -0.15846,0 -0.56448,0.68461 -0.90226,1.52135 -3.57699,8.86108 -11.95042,16.43638 -18.21259,16.47663 -0.540157,0.003 -1.419934,0.10804 -1.955054,0.23238 -1.051364,0.24429 -2.065454,-0.0131 -6.832261,-1.73455 C 59.419505,145.67482 43.02167,133.6993 7.2785239,97.78621 L 1.9893382,92.471876 h 7.8159846 c 13.7306952,0 18.5081142,0.605759 37.5550952,4.761844 14.630538,3.19241 19.653311,4.03249 26.842117,4.48946 3.982926,0.25319 9.598036,0.11629 10.188096,-0.24839 0.159044,-0.0983 5.138013,-11.464645 11.064375,-25.258557 l 10.775204,-25.079836 2.38125,-0.760203 c 16.45235,-5.252338 30.14294,-2.638756 59.39896,11.339469 14.50772,6.93164 20.04795,9.06577 24.33156,9.372675 l 1.18053,0.08458 3.36735,-8.598959 c 1.85204,-4.729427 3.40618,-8.693589 3.45364,-8.809249 0.18517,-0.451316 9.60458,3.435475 9.584,3.954709 -0.0246,0.620229 -73.70114,190.068371 -73.90951,190.047141 -0.0849,-0.009 -2.26781,-0.85164 -4.8508,-1.8733 z 

m 28.86013,-91.83961 c 13.53279,-36.03955 27.29736,-72.818623 27.29635,-72.936111 -7.9e-4,-0.08527 -0.98717,-0.427289 -2.19208,-0.760042 -5.01121,-1.383911 -8.79462,-2.963339 -20.56076,-8.583323 -17.98805,-8.591824 -23.95705,-10.856027 -33.07291,-12.545449 -4.89274,-0.906759 -16.36841,-0.479568 -17.51192,0.651895 -0.12917,0.127804 -25.626611,59.38324 -26.860456,62.42303 -0.104121,0.25652 0.836777,0.33121 4.193546,0.3329 16.39109,0.008 27.64506,4.81684 49.17466,21.01149 10.09745,7.59534 16.37496,11.52068 18.83255,11.77603 0.0987,0.0103 0.41415,-0.60644 0.70102,-1.37042 z 

m -64.274073,-8.48001 c 2.75949,-1.3735 6.658133,-6.449 7.814263,-10.17312 l 0.18482,-0.59531 H 92.225123 80.697918 v 0.81991 c 0,1.94736 2.389235,4.85591 6.273046,7.63653 4.550926,3.25824 6.07505,3.65948 8.782283,2.31199 z 

M 70.117725,134.82079 c 0.0086,-1.85286 1.273072,-5.05846 2.759433,-6.99549 0.778324,-1.01432 4.471585,-9.08136 6.949239,-15.17894 0.10346,-0.25462 -0.665414,-0.33073 -3.341029,-0.33073 -7.783468,0 -14.453616,-1.04914 -34.284325,-5.39251 -7.127663,-1.56112 -12.821462,-2.64402 -12.994132,-2.47135 -0.05905,0.059 2.066571,2.1366 4.723596,4.61678 12.67859,11.83472 21.378286,18.67236 31.950745,25.1121 3.831042,2.3335 4.22834,2.39354 4.236473,0.64014 z
"/>
</svg>
