<?xml version="1.0" encoding="UTF-8" standalone="no"?>
<svg
   xmlns:dc="http://purl.org/dc/elements/1.1/"
   xmlns:cc="http://creativecommons.org/ns#"
   xmlns:rdf="http://www.w3.org/1999/02/22-rdf-syntax-ns#"
   xmlns:svg="http://www.w3.org/2000/svg"
   xmlns="http://www.w3.org/2000/svg"
   xmlns:xlink="http://www.w3.org/1999/xlink"
   xmlns:sodipodi="http://sodipodi.sourceforge.net/DTD/sodipodi-0.dtd"
   xmlns:inkscape="http://www.inkscape.org/namespaces/inkscape"
   sodipodi:docname="fool-1.svg"
   inkscape:version="1.0beta2 (2b71d25, 2019-12-03)"
   id="svg447"
   version="1.1"
   viewBox="-30 0 270 297"
   height="297mm"
   width="210mm">

    <path d="

M -30 0
M 250 0
M 90.752082,264.97523 C 54.408811,263.3368 39.054061,254.82728 41.092403,237.45408 c 0.677492,-5.7744 5.429295,-19.80435 9.753182,-28.79679 l 1.701459,-3.53854 -0.130622,-10.61666 c -0.496292,-40.33825 -11.3664,-75.59539 -25.494224,-82.6904 -8.97476,-4.50713 -16.391317,13.01133 -18.6395001,44.02789 -0.5885339,8.11959 -0.2993548,40.35071 0.3680169,41.01808 0.04921,0.0492 1.3059067,0.33737 2.7926592,0.64035 19.025251,3.8771 30.139061,22.59996 24.115324,40.62583 -7.405992,22.16223 -37.0037612,28.71622 -53.832738,11.92046 -14.432545,-14.40405 -11.329187,-38.30511 6.311404,-48.6084 1.049656,-0.61307 1.951996,-1.14548 2.0052017,-1.18313 0.1285496,-0.091 -0.1382667,-0.78918 -2.2103467,-5.78402 C -35.312759,138.67681 -31.362824,78.015408 -2.6691078,48.592208 24.134492,21.107176 62.95543,28.071535 100.82424,67.158601 l 4.56992,4.716934 6.305,-6.326479 c 30.64078,-30.745132 60.56462,-40.668945 85.9807,-28.514269 42.15803,20.161143 53.04259,92.453243 24.14994,160.397033 -1.27882,3.00725 -1.32242,2.69647 0.52035,3.70849 16.06259,8.82125 20.85298,30.02767 10.16699,45.00778 -11.48292,16.09728 -35.58938,17.98679 -49.70784,3.89621 -17.7564,-17.72135 -8.34775,-47.45814 16.6259,-52.54744 1.48364,-0.30235 2.73779,-0.58999 2.787,-0.6392 0.66737,-0.66737 0.95655,-32.89849 0.36802,-41.01808 -2.24203,-30.93165 -9.68931,-48.52268 -18.6395,-44.02789 -14.1329,7.09756 -24.99775,42.33767 -25.49423,82.6904 l -0.13062,10.61666 1.70704,3.53854 c 5.30978,11.00671 9.78929,25.26457 9.79842,31.1875 0.0212,13.74708 -11.19041,21.3432 -35.51628,24.0631 -9.74313,1.08939 -31.33774,1.61848 -43.562968,1.06734 z m 29.104168,-10.58056 c 26.2986,-1.18261 38.70752,-5.44654 39.46526,-13.56099 0.4972,-5.32441 -6.84038,-25.48154 -12.21413,-33.55354 -5.18885,-7.79427 -8.54697,-8.67179 -25.5593,-6.67903 -7.77913,0.91122 -8.80188,0.97299 -16.11162,0.97299 -7.309741,0 -8.332496,-0.0618 -16.111622,-0.97299 -17.000864,-1.99142 -20.61213,-1.02031 -25.802522,6.93861 -5.154594,7.90404 -12.449305,28.17098 -11.973516,33.26611 0.586949,6.2855 7.84007,10.10844 23.213641,12.23535 10.446115,1.4452 30.001719,2.03216 45.093809,1.35349 z 

M 7.2277115,249.88935 C 24.949864,247.66718 31.84903,223.91874 18.329372,211.67501 c -12.408853,-11.23777 -31.554829,-3.55506 -33.834659,13.57685 -1.859792,13.97549 9.508101,26.29575 22.7329985,24.63749 z 

m 201.0833385,0 c 15.93304,-1.99784 23.62491,-21.39248 13.91474,-35.08531 -7.90654,-11.14943 -24.59633,-11.14292 -32.50396,0.0127 -10.24157,14.4482 -1.34973,34.23856 15.86636,35.31335 0.29486,0.0184 1.52015,-0.0899 2.72286,-0.24072 z 

M 119.0625,190.2501 c 3.20146,-0.3748 7.00432,-0.81276 8.4508,-0.97323 1.44648,-0.16048 4.55059,-0.24541 6.89802,-0.18875 l 4.26806,0.10304 -2.21564,-2.78517 c -14.73704,-18.52523 -23.35558,-40.56059 -30.40135,-77.72838 -0.59069,-3.116 -0.65903,-3.08325 -1.38042,0.66145 -7.153154,37.1316 -15.588664,58.60829 -30.267213,77.0599 l -2.210044,2.77812 5.569517,0.002 c 4.486537,0.001 6.727092,0.14486 11.522644,0.73885 11.841966,1.46675 19.360926,1.55079 29.765626,0.33268 z 

M -2.5452166,185.47292 c -1.8371141,-50.65338 6.8341057,-81.33618 23.9359206,-84.69639 19.384112,-3.808645 38.454054,32.80767 41.078747,78.87555 0.254865,4.47333 0.187675,4.42211 2.353464,1.79411 9.223288,-11.1917 15.736234,-23.40039 20.85879,-39.10036 3.335616,-10.22323 5.304105,-18.43216 9.961134,-41.53958 0.997154,-4.947707 2.306508,-11.284861 2.909679,-14.082566 0.655598,-3.040882 1.009703,-5.242136 0.880438,-5.47312 -0.11893,-0.212516 -2.001716,-2.303309 -4.18397,-4.646211 C 56.561205,35.068582 18.001873,31.333984 -3.548818,67.035462 -20.807997,95.627498 -21.005452,142.97001 -4.0464559,186.35111 c 0.8714836,2.22925 1.6046437,4.01519 1.629242,3.96875 0.024606,-0.0464 -0.033001,-2.22757 -0.1280027,-4.84694 z 

m 217.4694466,0.85989 c 18.2769,-46.82158 16.53589,-96.992394 -4.33595,-124.949475 -22.10136,-29.603959 -58.59571,-23.801039 -94.83102,15.078956 -2.25444,2.418985 -4.19675,4.57287 -4.31626,4.786407 -0.13045,0.233112 0.20785,2.368013 0.84662,5.342695 0.58514,2.724943 2.08702,10.014598 3.33752,16.199237 8.84351,43.73759 15.82091,61.64359 30.85296,79.17752 l 1.53193,1.78691 0.13319,-0.86086 c 0.0732,-0.47348 0.20473,-2.11102 0.29219,-3.63899 2.57523,-44.99236 21.44203,-81.739243 40.36275,-78.61455 16.92862,2.7957 25.52907,29.99662 24.74949,78.27605 -0.0945,5.85294 -0.24171,10.8238 -0.32711,11.04636 -0.0854,0.22255 -0.0914,0.40464 -0.0133,0.40464 0.0781,0 0.85073,-1.8157 1.717,-4.0349 z
"/>
</svg>
