<?xml version="1.0" encoding="UTF-8" standalone="no"?>
<svg
   xmlns:dc="http://purl.org/dc/elements/1.1/"
   xmlns:cc="http://creativecommons.org/ns#"
   xmlns:rdf="http://www.w3.org/1999/02/22-rdf-syntax-ns#"
   xmlns:svg="http://www.w3.org/2000/svg"
   xmlns="http://www.w3.org/2000/svg"
   xmlns:xlink="http://www.w3.org/1999/xlink"
   xmlns:sodipodi="http://sodipodi.sourceforge.net/DTD/sodipodi-0.dtd"
   xmlns:inkscape="http://www.inkscape.org/namespaces/inkscape"
   sodipodi:docname="giraffe.svg"
   inkscape:version="1.0beta2 (2b71d25, 2019-12-03)"
   id="svg8"
   version="1.1"
   viewBox="-10 0 230 297"
   height="297mm"
   width="210mm">
 
    <path d="

m 137.18646,270.9552 c -0.98603,-0.44012 -2.12488,-1.63466 -2.49671,-2.61878 -0.16362,-0.43306 -0.28276,-2.92489 -0.28463,-5.95312 -0.004,-6.50396 -0.43075,-22.27132 -0.7926,-29.28538 -1.68837,-32.72739 -5.84565,-54.40913 -13.29164,-69.32084 -2.07696,-4.1594 -3.14648,-5.98663 -6.6063,-11.28653 l -2.87716,-4.40736 -2.56819,2.56521 c -6.73296,6.72517 -15.817091,10.57412 -28.769996,12.18986 -6.20722,0.77429 -10.988196,1.03882 -22.353193,1.23681 l -10.182498,0.17739 -1.455208,1.24331 c -5.119862,4.37434 -11.661471,8.37285 -16.603125,10.14855 -4.446228,1.59768 -5.98405,1.8688 -10.648958,1.87744 -5.164078,0.01 -6.443361,-0.26703 -10.5305758,-2.27676 -5.9784321,-2.93965 -10.3275466,-8.66531 -11.7250408,-15.43613 -1.2981088,-6.28931 0.1210908,-11.33884 5.0201581,-17.86181 4.4346202,-5.90457 9.0590465,-9.68432 20.5427495,-16.7905 7.385744,-4.57035 9.938716,-6.4696 13.501614,-10.04436 3.791974,-3.80459 5.747599,-6.64474 6.206905,-9.01428 1.285031,-6.629431 3.72522,-14.153485 6.392714,-19.711243 2.650147,-5.521611 5.226699,-9.250313 9.077831,-13.137132 5.846646,-5.900825 12.322765,-9.318086 20.846457,-11.000074 l 2.844271,-0.561263 v -6.436294 -6.436291 l -2.711979,-0.0016 c -1.491589,-7.94e-4 -3.161718,-0.126367 -3.711398,-0.279016 -1.220809,-0.339021 -2.657205,-1.557004 -3.101671,-2.630042 -0.48506,-1.171038 -0.220916,-3.444338 0.521333,-4.486729 1.027742,-1.443331 2.320536,-1.850662 5.894861,-1.857343 l 3.108854,-0.0057 v -6.243868 c 0,-6.992179 0.101933,-7.489029 1.802575,-8.786171 0.798261,-0.608863 1.190863,-0.71267 2.695342,-0.71267 1.504479,0 1.897081,0.103807 2.695342,0.71267 1.700641,1.297142 1.802574,1.793992 1.802574,8.786171 v 6.243868 h 2.52204 c 2.880035,0 3.917479,0.327162 4.957744,1.563447 1.008642,1.198702 1.390261,2.641245 1.051648,3.975282 l -0.273082,1.075854 h 2.088533 2.088539 v -6.093915 c 0,-6.790087 0.09,-7.256323 1.66921,-8.642853 2.11651,-1.858323 5.53823,-1.225261 6.80568,1.25914 0.47428,0.929671 0.52094,1.575866 0.52094,7.214698 v 6.193567 l 2.78832,0.124009 c 2.55801,0.113767 2.87992,0.188395 3.89744,0.903536 2.21954,1.559948 2.65503,4.642415 0.93298,6.603719 -1.20735,1.375092 -1.66982,1.541343 -4.70832,1.692555 l -2.77813,0.138253 -0.0731,3.880056 -0.0731,3.880057 0.73455,0.155345 c 1.16303,0.245964 7.5145,0.94847 8.53813,0.944361 1.71845,-0.0069 7.00352,-3.245313 10.77778,-6.604074 5.59562,-4.979615 7.37836,-6.154965 10.67625,-7.038801 2.21106,-0.592563 6.89837,-0.585343 10.42989,0.01606 5.31214,0.90465 15.62778,3.787428 18.5733,5.190439 4.98886,2.376295 7.0139,6.966078 4.94718,11.212849 -1.37647,2.82842 -4.04681,5.268894 -11.411,10.428719 l -2.70719,1.89683 1.53983,2.306574 c 5.90818,8.850093 10.16054,21.7412 14.17685,42.9773 0.5151,2.72358 2.18258,12.30812 3.7055,21.29896 3.16187,18.66666 4.44784,25.56755 6.12716,32.88037 4.37821,19.06548 9.331,30.85932 15.88504,37.82631 2.34432,2.49202 4.37026,4.00589 7.37166,5.50838 2.34191,1.17236 2.83112,1.6057 3.42949,3.0378 0.35458,0.84862 0.40622,3.62347 0.40116,21.55386 -0.005,19.40282 -0.0336,20.64039 -0.4918,21.63819 -0.57806,1.25884 -1.16811,1.82296 -2.48014,2.37116 -0.86077,0.35965 -5.166,0.40576 -37.03198,0.39661 -29.53697,-0.008 -36.20153,-0.0744 -36.85173,-0.36465 z 

m 67.59179,-24.95884 -0.009,-16.07344 -2.2883,-1.45521 c -6.03519,-3.83797 -11.91262,-11.34293 -15.95486,-20.37292 -5.58641,-12.47956 -8.98997,-26.3444 -14.54888,-59.26666 -3.08026,-18.24267 -3.65914,-21.49127 -4.92336,-27.62922 -4.1359,-20.0803 -8.40963,-31.139362 -14.62352,-37.841048 -1.42197,-1.5336 -1.90374,-2.25646 -2.08048,-3.121597 -0.2756,-1.349058 0.0222,-2.913446 0.74878,-3.933886 0.69952,-0.982385 4.03055,-3.630885 8.46402,-6.729746 4.24664,-2.968265 6.712,-4.916469 6.66701,-5.268479 -0.0413,-0.323519 -1.11277,-0.700921 -6.0242,-2.121956 -6.37098,-1.843328 -10.16647,-2.579621 -13.49375,-2.617668 -3.65002,-0.04174 -4.27751,0.240112 -7.9375,3.565356 -4.56563,4.14805 -8.58725,6.954094 -13.35032,9.315042 l -2.23781,1.109237 -3.31844,-0.0697 c -1.82513,-0.03833 -4.50906,-0.229717 -5.96426,-0.425294 -1.45521,-0.195578 -2.73513,-0.306015 -2.84427,-0.245417 -0.10914,0.0606 -0.19844,2.526326 -0.19844,5.479394 0,5.13252 -0.0263,5.407776 -0.59531,6.243912 -1.06109,1.559063 -1.88341,1.981685 -3.85586,1.981685 -1.42599,0 -1.93308,-0.118782 -2.63043,-0.616173 -1.66209,-1.185494 -1.76791,-1.648724 -1.91423,-8.379661 l -0.1323,-6.085417 -2.513538,-0.361598 c -1.574956,-0.226573 -5.230498,-0.374772 -9.789584,-0.396875 -6.070928,-0.02943 -7.664921,0.04384 -9.623954,0.442423 -6.723785,1.368002 -11.570332,3.764974 -15.884829,7.856207 -6.549673,6.210745 -11.155931,16.118446 -13.777262,29.633809 -0.345588,1.78183 -0.715904,2.71608 -1.782865,4.49791 -2.611134,4.36061 -6.780996,9.05071 -11.186298,12.58193 -2.20069,1.76403 -6.961627,4.94534 -12.435417,8.30947 -10.394685,6.38846 -15.8605942,11.41992 -18.9510958,17.44483 -3.0545725,5.95486 0.9754794,14.22292 8.0375258,16.48981 2.319693,0.74461 6.218322,0.74105 9.084453,-0.008 5.521026,-1.44346 11.102583,-4.68387 17.484627,-10.1508 1.334487,-1.14313 2.84871,-2.2549 3.364939,-2.4706 0.763741,-0.31911 2.534899,-0.39217 9.507262,-0.39217 21.978816,0 33.173776,-1.52967 41.388345,-5.65527 4.784709,-2.40303 8.809091,-6.15263 11.551281,-10.76256 1.36635,-2.29699 2.11214,-3.01254 3.60651,-3.46026 2.37525,-0.71165 4.0325,0.3095 6.06731,3.73851 0.82036,1.38245 3.06148,4.92263 4.98026,7.86708 5.88811,9.03551 8.35183,13.68772 11.24674,21.23709 6.85977,17.88891 10.68961,46.02254 11.18355,82.15312 0.0776,5.67532 0.19988,10.70571 0.27177,11.17865 l 0.13071,0.85989 h 30.54738 30.54739 l -0.009,-16.07343 z 

m -23.27408,12.17594 c -1.12889,-0.20697 -4.30967,-1.80408 -5.50222,-2.76274 -6.0972,-4.90138 -8.72252,-15.6375 -5.96362,-24.38791 1.76545,-5.59947 4.69433,-9.20767 9.17682,-11.30528 3.61334,-1.69089 8.10381,-1.29885 11.6928,1.02082 3.38835,2.18999 6.27249,6.48979 7.58123,11.3024 0.83404,3.06699 0.83525,9.8893 0.002,12.96458 -2.17993,8.04838 -8.02886,13.44754 -14.43549,13.32543 -1.03978,-0.0198 -2.1881,-0.0906 -2.5519,-0.1573 z 

m -24.07709,-37.08269 c -2.94734,-0.9529 -5.03228,-2.38019 -7.02536,-4.80938 -5.28431,-6.44056 -6.29965,-17.24252 -2.37351,-25.25106 1.53068,-3.12228 3.1387,-5.10164 5.48071,-6.74637 2.65408,-1.86389 4.80715,-2.49065 7.98193,-2.32354 3.49644,0.18403 5.86434,1.31326 8.61999,4.11079 3.56344,3.61759 5.48003,8.44185 5.75425,14.48412 0.45561,10.03872 -4.56951,18.70252 -11.96496,20.62879 -2.03775,0.53077 -4.65957,0.49295 -6.47305,-0.0934 z 

m -13.10202,-48.96528 c -3.43775,-0.90173 -6.35192,-3.12941 -8.67424,-6.63085 -3.96567,-5.9792 -4.60482,-15.46308 -1.53456,-22.77051 1.50186,-3.57453 4.57164,-7.05762 7.51614,-8.52808 7.58994,-3.79035 15.9748,0.45359 19.31911,9.77824 2.5622,7.14398 1.74532,15.65514 -2.06837,21.5505 -2.32619,3.59592 -5.34429,5.87404 -8.88901,6.7096 -2.18179,0.51428 -3.3811,0.49124 -5.66907,-0.1089 z 

M 63.437571,114.97734 c -3.654328,-1.17478 -5.754405,-5.71889 -5.754405,-12.4513 0,-7.761708 2.780207,-12.565795 7.272044,-12.565795 3.641294,0 5.91711,2.725756 6.878421,8.238318 0.689313,3.952807 0.333599,9.066747 -0.839079,12.063047 -0.706482,1.80513 -1.866638,3.31263 -3.110259,4.04144 -1.257464,0.73692 -3.292147,1.04546 -4.446722,0.67429 z 

M 101.86459,58.737498 v -3.307292 h -3.133391 c -2.768643,0 -3.269123,-0.07161 -4.29948,-0.615161 -1.719852,-0.907294 -2.414545,-2.238391 -2.268034,-4.345776 l 0.114964,-1.653646 H 90.85391 89.429168 v 6.185797 6.185797 l 3.505729,0.189973 c 1.928152,0.104487 4.220105,0.281829 5.09323,0.394095 0.873125,0.112268 2.093513,0.219733 2.711983,0.238813 l 1.12448,0.03469 z
"/>
</svg>
