<?xml version="1.0" encoding="UTF-8" standalone="no"?>
<svg
   xmlns:dc="http://purl.org/dc/elements/1.1/"
   xmlns:cc="http://creativecommons.org/ns#"
   xmlns:rdf="http://www.w3.org/1999/02/22-rdf-syntax-ns#"
   xmlns:svg="http://www.w3.org/2000/svg"
   xmlns="http://www.w3.org/2000/svg"
   xmlns:xlink="http://www.w3.org/1999/xlink"
   xmlns:sodipodi="http://sodipodi.sourceforge.net/DTD/sodipodi-0.dtd"
   xmlns:inkscape="http://www.inkscape.org/namespaces/inkscape"
   sodipodi:docname="knight-upsiade-down.svg"
   inkscape:version="1.0beta2 (2b71d25, 2019-12-03)"
   id="svg244"
   version="1.1"
   viewBox="0 0 210 297"
   height="297mm"
   width="210mm">

    <path d="

m 109.96811,250.83343 c -4.2188,-1.50382 -6.2218,-6.43459 -7.08477,-17.4405 l -0.31834,-4.05991 -3.194479,-0.44945 C 74.846001,225.4331 62.386777,220.00068 46.622476,205.88461 23.917601,185.55363 11.227587,149.98465 7.8119193,97.102084 6.9407998,83.615104 6.5863497,60.943205 7.0539113,48.617186 L 7.2270396,44.053124 H 78.793955 150.36087 l -0.15926,6.283854 c -0.51018,20.130176 -5.05586,29.542829 -22.90381,47.426565 -14.0181,14.046207 -18.36051,20.466207 -21.83329,32.279167 -1.24022,4.21874 -3.18087,15.58851 -2.73655,16.03282 0.0494,0.0494 1.39469,-1.12673 2.98951,-2.61367 7.9964,-7.45552 16.92105,-14.47681 28.56475,-22.47275 8.33423,-5.72327 10.50179,-7.83836 17.28809,-16.86961 6.80043,-9.050061 9.814,-11.399673 15.6861,-12.230097 4.94527,-0.699352 7.76393,0.419138 9.7581,3.872175 l 0.75385,1.305327 4.57988,0.04257 c 17.07165,0.158663 25.96491,10.507225 26.20273,30.490605 0.0807,6.78058 -3.10771,14.85639 -12.58143,31.86704 -7.21985,12.96369 -23.4376,39.27409 -26.40979,42.84516 -3.06114,3.67795 -6.69169,9.99165 -7.91774,13.76933 l -0.57416,1.7691 0.80319,1.93507 c 3.59455,8.66002 0.92556,23.17597 -4.88765,26.58274 -5.32653,3.12155 -11.32972,-1.13441 -18.48373,-13.10404 l -2.08873,-3.49473 -1.86119,0.0766 -1.8612,0.0766 -0.75301,1.5875 c -6.15247,12.97066 -15.85227,21.5028 -21.96742,19.32301 z m 5.91999,-13.8329 c 3.18697,-3.54983 6.66806,-9.75836 8.49112,-15.14391 l 0.89682,-2.64932 h 8.77656 8.77657 l 1.50095,2.84427 c 2.84532,5.39183 7.20053,12.23698 7.78575,12.23698 0.36,0 0.8133,-3.12231 0.8133,-5.60202 0,-2.66384 -0.42656,-4.24369 -1.70505,-6.315 -2.63292,-4.26567 1.62487,-15.96898 9.38126,-25.78611 4.61042,-5.83532 21.85551,-34.16077 29.31721,-48.15417 8.44136,-15.83061 9.61047,-21.27865 6.64538,-30.96731 -2.2241,-7.26742 -8.50785,-10.9937 -16.51432,-9.79306 l -1.26775,0.19012 0.22988,3.2195 c 0.42315,5.92622 0.12671,7.79472 -1.59468,10.05159 -2.40535,3.15356 -8.79336,3.40182 -11.73898,0.45621 -2.88721,-2.88722 -2.87312,-6.05341 0.0601,-13.50396 2.29098,-5.81926 2.32341,-6.11793 0.52196,-4.80791 -1.44262,1.04907 -2.4752,2.25001 -6.20497,7.21661 -7.327,9.75674 -10.73632,13.07753 -19.75397,19.24105 -28.31244,19.35141 -43.203158,35.3026 -43.203158,46.27996 0,4.42691 -2.861861,6.93355 -6.699457,5.86791 -5.16134,-1.43322 -5.240827,-9.85589 -0.183872,-19.48389 l 1.591662,-3.03039 v -4.9523 c 0,-20.24768 4.562801,-36.07257 14.093085,-48.87823 3.13798,-4.21644 4.85646,-6.10828 13.55037,-14.917358 14.80143,-14.997518 18.56921,-21.48489 19.86169,-34.197963 l 0.18162,-1.786504 -60.951193,0.06671 -60.951197,0.06671 0.01882,14.287501 c 0.101156,76.776174 16.244753,120.973444 50.913467,139.388774 11.416628,6.06429 23.68364,9.25762 42.928643,11.17514 l 1.78594,0.17795 0.007,5.59158 c 0.008,6.65616 0.53105,13.13219 1.06039,13.13219 0.11736,0 0.82801,-0.68461 1.57922,-1.52135 z 

m 28.67046,-45.16614 c -6.28505,-3.1928 -3.56471,-15.47993 4.28627,-19.36009 7.91904,-3.9138 12.79572,4.38643 7.85526,13.36985 -2.81878,5.12549 -8.41184,7.88492 -12.14153,5.99024 z 

m 40.42971,-52.81967 c -4.2221,-2.14415 -3.4208,-8.63844 1.20272,-9.7476 5.67859,-1.36228 8.94026,6.20565 4.10305,9.52016 -1.3258,0.90846 -3.75934,1.01277 -5.30577,0.22744 z
"/>
</svg>
