<?xml version="1.0" encoding="UTF-8" standalone="no"?>
<svg
   xmlns:dc="http://purl.org/dc/elements/1.1/"
   xmlns:cc="http://creativecommons.org/ns#"
   xmlns:rdf="http://www.w3.org/1999/02/22-rdf-syntax-ns#"
   xmlns:svg="http://www.w3.org/2000/svg"
   xmlns="http://www.w3.org/2000/svg"
   xmlns:xlink="http://www.w3.org/1999/xlink"
   xmlns:sodipodi="http://sodipodi.sourceforge.net/DTD/sodipodi-0.dtd"
   xmlns:inkscape="http://www.inkscape.org/namespaces/inkscape"
   sodipodi:docname="drawing.svg"
   inkscape:version="1.0beta2 (2b71d25, 2019-12-03)"
   id="svg34"
   version="1.1"
   viewBox="0 0 210 297"
   height="297mm"
   width="210mm">

    <path d="

M 23.636648,237.08714 c -4.109171,-0.99657 -8.555401,-5.06356 -8.555401,-7.82568 0,-3.33453 9.329168,-10.71277 17.734502,-14.02584 4.14018,-1.63191 10.921435,-2.32024 26.054041,-2.64462 17.018001,-0.36479 23.415324,-0.7696 29.633334,-1.87514 l 1.852084,-0.3293 -3.524994,-0.616 C 75.183028,207.73517 64.84954,203.1025 63.146917,199.15295 c -1.75115,-4.06212 -1.965073,-10.09221 -0.466103,-13.13846 0.71882,-1.4608 0.944489,-2.31436 1.117984,-4.22862 0.97391,-10.7456 3.828333,-15.83773 15.581913,-27.79732 9.162405,-9.32299 11.401862,-12.25965 14.074276,-18.45595 1.668357,-3.86829 3.382513,-11.41751 3.382513,-14.89676 v -1.00458 l -3.638021,3.56584 c -5.469536,5.361 -11.759539,10.44451 -19.774129,15.98122 -4.314544,2.98062 -7.162379,5.69018 -10.261671,9.76345 -4.047205,5.31907 -5.431211,6.54229 -8.376807,7.40363 -3.880945,1.13485 -6.928853,0.052 -7.971753,-2.83205 l -0.327631,-0.90604 -3.626091,0.13041 c -10.223827,0.36767 -15.114845,-4.9974 -15.537758,-17.04374 -0.159369,-4.5395 0.01834,-5.41343 2.171363,-10.67835 4.307035,-10.53226 19.951499,-38.997333 24.110664,-43.869299 4.52469,-5.300136 6.229988,-9.011474 5.130705,-11.166247 -0.948232,-1.858685 -1.313733,-4.133999 -1.317879,-8.204 -0.0047,-4.662887 0.22823,-5.285776 2.407682,-6.437153 3.593267,-1.89828 8.233551,0.874421 12.883158,7.698052 l 1.667653,2.447396 h 2.198677 2.198677 l 1.342187,-2.182812 c 2.376979,-3.8657 5.433563,-7.114298 8.537279,-9.073588 4.273571,-2.697787 7.95179,1.084955 8.972814,9.227794 0.324549,2.588326 -0.08727,2.275995 3.768071,2.857782 43.1204,6.507047 63.22714,44.272385 61.43457,115.389045 l -0.18507,7.34219 h -5.74723 -5.74724 l -0.14562,3.10886 c -0.20723,4.42407 -1.0628,7.23472 -2.6231,8.61713 -4.84389,4.29163 -13.64828,7.72839 -23.5742,9.20211 -2.47862,0.368 -2.46077,0.4114 0.36991,0.89933 5.88532,1.01448 11.34056,1.33607 29.33996,1.72959 25.47638,0.55699 33.33903,2.96572 40.99424,12.55861 2.71733,3.40514 2.79149,4.69736 0.43833,7.63814 -3.79148,4.73826 -9.65748,5.75779 -18.45296,3.20717 -6.40372,-1.85702 -6.26205,-1.84866 -31.44628,-1.85677 -22.42243,-0.007 -24.59748,-0.0753 -30.1625,-0.9439 -2.65619,-0.41459 -6.46679,-1.27542 -8.03648,-1.81547 l -1.41934,-0.48833 -2.59598,0.77179 c -2.83213,0.84201 -7.083581,1.62401 -11.628409,2.1389 -2.09504,0.23735 -9.248127,0.33177 -25.532292,0.33701 -25.177042,0.008 -25.029177,-5.3e-4 -31.446278,1.85352 -5.261916,1.52034 -8.533396,1.82645 -11.592073,1.08466 z 

m 9.039391,-8.59947 c 6.860538,-2.17816 10.972748,-2.44663 35.983335,-2.34926 21.21162,0.0826 22.000359,0.0548 28.442709,-1.00045 1.382448,-0.22645 3.904967,-0.87958 5.605597,-1.45141 3.75539,-1.26272 3.5882,-1.26034 6.98569,-0.0995 7.10565,2.42792 10.07245,2.64722 34.50227,2.5504 24.85297,-0.0985 28.98521,0.17218 35.85332,2.34857 2.98365,0.94547 6.37447,1.28826 7.67292,0.77567 l 0.79375,-0.31334 -1.6987,-1.57147 c -2.79362,-2.58438 -5.81435,-4.17672 -8.94256,-4.71394 -0.84127,-0.14448 -2.66067,-0.49935 -4.04312,-0.7886 -4.20268,-0.87933 -7.19951,-1.07055 -23.01875,-1.46874 -24.88998,-0.62652 -32.26608,-1.71118 -41.47344,-6.09867 l -2.97656,-1.41839 -2.97656,1.41839 c -9.20736,4.38749 -16.583465,5.47215 -41.473442,6.09867 -21.204404,0.53375 -23.56285,0.8307 -29.236459,3.68114 -3.860295,1.93943 -8.030877,4.85746 -7.480855,5.23414 0.70229,0.48095 4.767799,0.0281 7.480855,-0.83325 z 

m 84.534381,-25.56762 c 9.18768,-0.82729 16.69852,-2.68417 21.96041,-5.4292 3.4304,-1.78957 3.94578,-2.50096 3.96244,-5.4695 l 0.006,-1.12448 H 106.3625 69.585415 l 0.0063,1.12448 c 0.01696,3.02405 0.519655,3.6889 4.22702,5.59078 9.321367,4.78185 26.244155,6.85194 43.391675,5.30792 z 

m 36.61648,-20.37919 c 0.26404,-0.68806 0.17913,-22.38578 -0.10604,-27.09815 -1.76021,-29.08724 -8.02787,-50.57849 -19.0012,-65.153464 C 127.12988,80.20838 114.86519,74.149369 97.41195,71.858463 92.259023,71.182092 92.120656,71.04459 91.788932,66.270608 c -0.207362,-2.984261 -0.641284,-5.454 -1.03578,-5.895333 -0.554376,-0.620194 -5.562897,5.641292 -6.862509,8.579284 -1.083546,2.449529 -1.179838,2.482945 -7.155016,2.482945 -6.143808,0 -5.534282,0.269251 -8.085956,-3.571875 -1.874329,-2.821496 -4.519763,-6.085416 -4.932278,-6.085416 -0.75584,0 -0.109799,4.361165 0.951593,6.423839 l 1.036698,2.014681 -0.425288,2.1587 c -0.711036,3.609126 -3.140607,8.023672 -6.82851,12.407448 -1.803437,2.14373 -2.89278,3.908472 -8.58311,13.904705 -13.196134,23.181714 -17.089305,32.031924 -16.555279,37.634534 0.772494,8.10444 2.720473,10.38734 8.863428,10.38734 3.565359,0 3.409366,0.13184 3.440348,-2.90758 0.0394,-3.86498 1.747486,-5.5109 5.441739,-5.24368 4.135496,0.29914 5.15501,3.25698 2.859008,8.29463 -1.726441,3.78799 -1.761522,3.94072 -0.852776,3.71264 1.176748,-0.29534 2.034651,-1.13185 4.768692,-4.64976 4.564726,-5.87347 6.900894,-8.15303 11.710821,-11.42711 18.570538,-12.64078 29.847702,-24.71012 30.462063,-32.60191 0.2875,-3.692948 2.75017,-5.185317 5.09473,-3.087383 l 0.86407,0.773176 -0.0182,2.732557 c -0.0198,2.9757 -0.5458,4.91002 -2.17775,8.00879 -0.73596,1.39746 -0.7905,1.67864 -0.66232,3.41497 0.38498,5.21511 -0.96174,15.15196 -2.82081,20.81345 -2.645527,8.05654 -5.913571,12.76164 -15.893834,22.88283 -10.944773,11.09933 -14.542707,17.19426 -14.542707,24.63548 v 0.89682 h 41.908151 c 37.97068,0 41.92324,-0.0393 42.06875,-0.41852 z 

M 40.221919,135.7974 c -4.886172,-2.49639 -3.339862,-9.32656 2.111476,-9.32656 2.212922,0 3.411328,0.72167 4.370078,2.63163 2.160516,4.30405 -2.248125,8.85782 -6.481554,6.69493 z 

M 59.95591,98.593876 c -5.331399,-3.625099 3.109801,-18.740294 8.817377,-15.788793 2.794712,1.445202 3.026612,4.76091 0.667274,9.540663 -2.583312,5.233495 -6.846517,8.041934 -9.484651,6.24813 z
"/>
</svg>
