<?xml version="1.0" encoding="UTF-8" standalone="no"?>
<svg
   xmlns:dc="http://purl.org/dc/elements/1.1/"
   xmlns:cc="http://creativecommons.org/ns#"
   xmlns:rdf="http://www.w3.org/1999/02/22-rdf-syntax-ns#"
   xmlns:svg="http://www.w3.org/2000/svg"
   xmlns="http://www.w3.org/2000/svg"
   xmlns:xlink="http://www.w3.org/1999/xlink"
   xmlns:sodipodi="http://sodipodi.sourceforge.net/DTD/sodipodi-0.dtd"
   xmlns:inkscape="http://www.inkscape.org/namespaces/inkscape"
   sodipodi:docname="drawing-a.svg"
   inkscape:version="1.0beta2 (2b71d25, 2019-12-03)"
   id="svg8"
   version="1.1"
   viewBox="-25 0 260 297"
   height="297mm"
   width="210mm">

      <path
         d="
M -30,0 M 240,0
M 47.878906 22.660156 C 45.429747 22.632115 42.865441 23.034617 40.242188 23.947266 C 30.550026 27.319239 25.865954 36.083493 26.076172 44.740234 C 26.28639 53.396976 31.390406 61.961599 41.236328 64.9375 L 42.597656 65.349609 L 42.666016 83.625 L 42.730469 101.67578 L 31.414062 90.359375 L 19.9375 78.882812 L 20.964844 76.751953 C 25.751081 66.833637 22.53433 56.923054 15.822266 51.019531 C 9.1102015 45.116009 -1.1076483 43.210545 -10.291016 49.261719 C -19.10477 55.069346 -21.483279 64.838059 -19 73.185547 C -16.516721 81.533034 -9.1695694 88.474418 1.421875 88.644531 L 4.7402344 88.697266 L 6.0019531 92.152344 C 6.7137702 94.10025 7.644532 96.585801 8.0703125 97.679688 C 8.7447907 99.412516 9.6888806 101.92176 12.84375 110.37695 C 13.25084 111.46796 13.999401 113.4928 14.507812 114.875 C 15.016678 116.25843 15.735645 118.16337 16.107422 119.11133 C 16.831736 120.95819 20.65572 131.1618 23.195312 138.02539 C 24.05699 140.35419 25.108261 143.15258 25.53125 144.24609 C 25.952552 145.33523 27.206697 148.66947 28.318359 151.65234 C 30.399994 157.23789 31.387244 159.94314 32.226562 161.39062 C 32.646222 162.11437 33.03727 162.52769 33.503906 162.81055 C 33.970543 163.0934 34.500216 163.24356 35.208984 163.4707 C 35.291502 163.49715 35.310537 163.51617 35.320312 163.54102 C 35.330088 163.56586 35.333604 163.64141 35.283203 163.78516 C 35.182402 164.07265 34.892319 164.59487 34.361328 165.48438 C 27.274592 177.35592 22.816676 185.48943 20.226562 191.71875 C 17.636449 197.94807 16.915033 202.28027 17.314453 206.51953 C 18.07336 214.57422 20.343464 220.5234 24.251953 224.46094 C 28.160443 228.39847 33.698216 230.31018 40.949219 230.31836 L 42.818359 230.32031 L 44.691406 232.24414 L 46.636719 234.24414 L 48.511719 234.43555 C 52.253732 234.81879 55.057643 234.4788 57.78125 232.88086 C 60.504857 231.28292 63.141733 228.44235 66.603516 223.83984 C 72.482967 216.023 73.666685 214.95772 85.535156 206.8125 C 89.271277 204.24844 98.298231 197.05445 101.63281 193.98242 C 102.17767 193.48046 102.58762 193.10387 102.87695 192.88086 C 103.02162 192.76935 103.13728 192.69681 103.21289 192.66602 C 103.2885 192.63522 103.29666 192.64665 103.29883 192.64844 C 103.301 192.65022 103.32908 192.69494 103.33789 192.80664 C 103.3467 192.91834 103.34006 193.08344 103.31641 193.29688 C 103.2691 193.72374 103.15967 194.34597 103.01172 195.17383 C 100.75689 207.79096 97.114899 214.06459 84.982422 226.23633 C 76.900614 234.34429 71.89502 240.41736 68.908203 246.69727 C 65.937242 252.94383 64.974952 259.39584 64.960938 268.2207 L 64.957031 268.2207 L 64.957031 268.35352 L 64.955078 273.44727 L 124.98047 273.44727 L 185.00195 273.44727 L 185.13281 264.25391 C 185.80754 216.7391 180.98222 185.45243 169.30273 161.72852 L 167.60156 158.27539 L 185.11523 123.24414 L 202.61523 88.240234 L 204.10938 88.431641 C 216.50699 90.019291 226.88193 82.790667 229.15039 70.976562 C 231.12949 60.669476 225.69248 52.204319 217.89258 48.201172 C 210.09267 44.198025 199.91709 44.64737 192.43555 52.128906 C 186.12111 58.443343 184.56244 68.418283 188.58398 76.751953 L 189.61328 78.882812 L 178.13477 90.359375 L 166.81836 101.67773 L 166.88477 83.625 L 166.95117 65.349609 L 168.3125 64.9375 C 178.16558 61.959437 183.27418 53.395856 183.48438 44.740234 C 183.69457 36.084612 179.0078 27.321689 169.30859 23.947266 C 158.81701 20.297165 149.2758 24.821708 144.2168 32.328125 C 139.15779 39.834542 138.57207 50.336541 145.94727 58.611328 C 146.31129 59.019751 146.64197 59.406247 146.88086 59.699219 C 147.00031 59.845705 147.09711 59.969692 147.16211 60.058594 C 147.19166 60.099006 147.21171 60.128823 147.22656 60.152344 C 147.22566 60.154108 147.22557 60.154397 147.22461 60.15625 C 147.20549 60.193305 147.17565 60.249403 147.13672 60.320312 C 147.05887 60.462131 146.9436 60.667641 146.79492 60.929688 C 146.49756 61.45378 146.06825 62.203913 145.53711 63.123047 C 144.47482 64.961314 143.00843 67.477209 141.39648 70.228516 C 138.17233 75.731588 134.88055 81.364213 134.08008 82.748047 C 133.28105 84.129365 131.75265 86.72708 130.68359 88.517578 C 130.14825 89.414198 129.66005 90.257355 129.30664 90.894531 C 129.12994 91.21312 128.98679 91.479952 128.88672 91.677734 C 128.83668 91.776625 128.79732 91.85805 128.76953 91.921875 C 128.75564 91.953788 128.74487 91.980862 128.73633 92.005859 C 128.72779 92.030856 128.7207 92.046076 128.7207 92.089844 C 128.7207 92.201371 128.70987 92.273612 128.69922 92.324219 C 128.69163 92.317637 128.70057 92.32487 128.69141 92.314453 C 128.64359 92.260081 128.5805 92.1655 128.50586 92.037109 C 128.20728 91.523545 127.74171 90.456499 127.12109 88.851562 C 126.86442 88.187805 124.3695 81.949525 121.57031 74.96875 L 116.52148 62.376953 L 117.04883 62.03125 C 127.90545 54.923434 129.47026 38.704747 120.21484 29.275391 C 112.07718 20.9848 101.21404 21.114081 93.367188 26.074219 C 85.520335 31.034356 80.675733 40.832351 84.539062 51.824219 C 85.737927 55.235202 89.215175 59.811528 92.029297 61.673828 C 92.310826 61.860135 92.566557 62.042328 92.75 62.183594 C 92.841722 62.254227 92.915386 62.315827 92.962891 62.359375 C 92.973342 62.368956 92.976703 62.373212 92.984375 62.380859 C 92.982612 62.385516 92.982433 62.38742 92.980469 62.392578 C 92.961189 62.443212 92.932355 62.518247 92.894531 62.615234 C 92.818884 62.809208 92.706671 63.092894 92.564453 63.453125 C 92.280017 64.173587 91.8715 65.202605 91.376953 66.447266 C 90.38786 68.936587 89.05457 72.287894 87.671875 75.753906 C 84.906484 82.685931 81.949211 90.079582 81.183594 91.958984 C 81.124125 92.104967 81.000076 92.18741 80.921875 92.201172 C 80.882774 92.208053 80.862733 92.200553 80.853516 92.193359 C 80.844298 92.186166 80.830078 92.172373 80.830078 92.115234 C 80.830078 92.076346 80.823196 92.069016 80.818359 92.054688 C 80.813523 92.040359 80.807598 92.025667 80.800781 92.009766 C 80.787147 91.977962 80.769979 91.938787 80.746094 91.890625 C 80.698324 91.794301 80.627774 91.662654 80.539062 91.498047 C 80.361639 91.168832 80.106519 90.70833 79.791016 90.150391 C 79.160008 89.034512 78.290896 87.527116 77.333984 85.896484 C 72.146424 77.056588 68.385397 70.635626 65.921875 66.408203 C 64.690114 64.294492 63.782958 62.729553 63.183594 61.685547 C 62.883912 61.163544 62.661012 60.770279 62.513672 60.505859 C 62.440002 60.373649 62.38538 60.273067 62.349609 60.205078 C 62.337199 60.181489 62.329878 60.167662 62.322266 60.152344 C 62.33712 60.12882 62.359097 60.099044 62.388672 60.058594 C 62.453671 59.969692 62.550476 59.845705 62.669922 59.699219 C 62.908813 59.406247 63.239495 59.019751 63.603516 58.611328 C 70.979717 50.335416 70.394838 39.832437 65.335938 32.326172 C 61.541762 26.696473 55.226385 22.74428 47.878906 22.660156 z M 47.878906 22.921875 C 55.138339 23.003084 61.366902 26.910033 65.117188 32.474609 C 70.117569 39.894044 70.703944 50.247718 63.40625 58.435547 C 63.04001 58.84646 62.70726 59.235908 62.464844 59.533203 C 62.343635 59.681851 62.245631 59.806809 62.175781 59.902344 C 62.140856 59.950111 62.112819 59.989197 62.091797 60.023438 C 62.081286 60.040558 62.072425 60.057145 62.064453 60.074219 C 62.056482 60.091292 62.044922 60.104382 62.044922 60.152344 C 62.044922 60.152828 62.045657 60.173491 62.046875 60.179688 C 62.048093 60.185884 62.049646 60.189512 62.050781 60.193359 C 62.053052 60.201053 62.054576 60.205697 62.056641 60.210938 C 62.06077 60.221418 62.065006 60.230973 62.070312 60.242188 C 62.080926 60.264616 62.096404 60.294287 62.115234 60.330078 C 62.152895 60.40166 62.208994 60.501589 62.283203 60.634766 C 62.431621 60.901119 62.653158 61.293906 62.953125 61.816406 C 63.55306 62.861406 64.461456 64.427061 65.693359 66.541016 C 68.157165 70.768925 71.917847 77.191249 77.105469 86.03125 C 78.061778 87.660856 78.930566 89.167187 79.560547 90.28125 C 79.875537 90.838281 80.13077 91.296713 80.306641 91.623047 C 80.394576 91.786214 80.462503 91.916449 80.507812 92.007812 C 80.530467 92.053494 80.548363 92.09137 80.558594 92.115234 C 80.563709 92.127167 80.567155 92.135105 80.568359 92.138672 C 80.569563 92.142239 80.566406 92.146428 80.566406 92.115234 C 80.566406 92.230628 80.608466 92.337192 80.689453 92.400391 C 80.77044 92.463589 80.873005 92.477443 80.966797 92.460938 C 81.15438 92.427926 81.335778 92.284327 81.427734 92.058594 C 82.195004 90.175135 85.15056 82.783749 87.916016 75.851562 C 89.298743 72.385469 90.633878 69.034434 91.623047 66.544922 C 92.117631 65.300166 92.525973 64.271592 92.810547 63.550781 C 92.952834 63.190376 93.064715 62.907539 93.140625 62.712891 C 93.17858 62.615567 93.20679 62.540208 93.226562 62.488281 C 93.236449 62.462318 93.24461 62.442557 93.25 62.427734 C 93.252695 62.420323 93.255873 62.414017 93.257812 62.408203 C 93.258782 62.405296 93.258542 62.402711 93.259766 62.398438 C 93.260989 62.394164 93.265625 62.359686 93.265625 62.359375 C 93.265625 62.268417 93.233006 62.262168 93.212891 62.238281 C 93.192776 62.214394 93.169278 62.19033 93.140625 62.164062 C 93.083318 62.111528 93.005482 62.048018 92.910156 61.974609 C 92.719504 61.827792 92.459891 61.644384 92.173828 61.455078 C 89.443668 59.648342 85.959012 55.065044 84.789062 51.736328 C 80.964933 40.855994 85.75222 31.201279 93.507812 26.298828 C 101.26341 21.396377 111.97298 21.255218 120.02734 29.460938 C 129.16602 38.771359 127.61626 54.797439 116.9043 61.810547 L 116.19531 62.273438 L 121.32422 75.066406 C 124.12335 82.047027 126.62326 88.301335 126.87305 88.947266 C 127.49543 90.556763 127.95922 91.622739 128.27734 92.169922 C 128.35687 92.306718 128.42655 92.411427 128.49414 92.488281 C 128.56173 92.565136 128.62649 92.63459 128.74219 92.630859 C 128.80003 92.628994 128.8563 92.595588 128.88867 92.556641 C 128.92104 92.517693 128.93849 92.474657 128.95117 92.429688 C 128.97653 92.339749 128.98438 92.230664 128.98438 92.089844 C 128.98438 92.116487 128.98348 92.105835 128.98828 92.091797 C 128.99308 92.077759 129.00155 92.055177 129.01367 92.027344 C 129.03791 91.971676 129.07434 91.893134 129.12305 91.796875 C 129.22046 91.604357 129.36334 91.338309 129.53906 91.021484 C 129.89052 90.387834 130.37605 89.546877 130.91016 88.652344 C 131.98 86.860532 133.50826 84.264435 134.30859 82.880859 C 135.10746 81.499797 138.40095 75.866181 141.625 70.363281 C 143.23717 67.611598 144.70294 65.09286 145.76562 63.253906 C 146.29697 62.33443 146.72739 61.585771 147.02539 61.060547 C 147.17439 60.797935 147.29014 60.591176 147.36914 60.447266 C 147.40864 60.37531 147.43984 60.31822 147.46094 60.277344 C 147.47148 60.256906 147.47974 60.240851 147.48633 60.226562 C 147.48962 60.219418 147.49103 60.213258 147.49414 60.205078 C 147.49569 60.200988 147.49806 60.196347 147.5 60.189453 C 147.50097 60.186006 147.50089 60.181522 147.50195 60.175781 C 147.50301 60.17004 147.50586 60.152642 147.50586 60.152344 C 147.50586 60.10438 147.4943 60.091292 147.48633 60.074219 C 147.47836 60.057145 147.4695 60.040558 147.45898 60.023438 C 147.43796 59.989197 147.40992 59.950111 147.375 59.902344 C 147.30515 59.806809 147.20715 59.681851 147.08594 59.533203 C 146.84352 59.235907 146.51077 58.84646 146.14453 58.435547 C 138.84786 50.248859 139.43505 39.89421 144.43555 32.474609 C 149.43604 25.055009 158.84009 20.583821 169.2207 24.195312 C 178.81072 27.53175 183.42652 36.17834 183.21875 44.734375 C 183.01098 53.29041 177.97927 61.740772 168.23633 64.685547 L 166.6875 65.152344 L 166.61914 83.623047 L 166.55078 102.31836 L 178.32227 90.546875 L 189.93359 78.9375 L 188.82227 76.638672 C 184.84827 68.40353 186.39178 58.547669 192.62305 52.316406 C 200.02359 44.915866 210.06176 44.478681 217.77148 48.435547 C 225.48121 52.392413 230.84777 60.733049 228.89062 70.925781 C 226.64652 82.613037 216.42165 89.740438 204.14258 88.167969 L 202.46289 87.953125 L 184.87891 123.12695 L 167.30664 158.27344 L 169.06445 161.8457 C 180.71597 185.51282 185.54359 216.75476 184.86914 264.25 L 184.74219 273.18164 L 124.98047 273.18164 L 65.220703 273.18164 L 65.222656 268.48633 L 65.222656 268.35352 C 65.226552 259.47489 66.180516 253.04662 69.146484 246.81055 C 72.112453 240.57448 77.096188 234.52369 85.169922 226.42383 C 97.315903 214.23854 101.01061 207.86968 103.27148 195.21875 C 103.41946 194.39075 103.53094 193.76954 103.58008 193.32617 C 103.60465 193.10449 103.61472 192.92724 103.60352 192.78516 C 103.59231 192.64307 103.56513 192.52409 103.4668 192.44336 C 103.36846 192.36263 103.23092 192.37396 103.11328 192.42188 C 102.99565 192.46979 102.8684 192.55352 102.71484 192.67188 C 102.40773 192.90859 101.99813 193.28502 101.45312 193.78711 C 98.14224 196.8373 89.094289 204.0499 85.384766 206.5957 C 73.514143 214.7424 72.275426 215.85833 66.392578 223.67969 C 62.938204 228.27234 60.316186 231.08603 57.646484 232.65234 C 54.976782 234.21866 52.252176 234.55216 48.539062 234.17188 L 46.759766 233.99023 L 44.880859 232.06055 L 42.929688 230.05469 L 40.949219 230.05273 C 33.744466 230.04461 28.290132 228.15273 24.439453 224.27344 C 20.588774 220.39414 18.333553 214.51191 17.578125 206.49414 C 17.183062 202.30112 17.890575 198.02562 20.470703 191.82031 C 23.050832 185.615 27.503388 177.48889 34.587891 165.62109 C 35.120264 164.72928 35.414212 164.21047 35.533203 163.87109 C 35.592699 163.70141 35.614634 163.56596 35.566406 163.44336 C 35.518179 163.32076 35.403784 163.25551 35.289062 163.21875 C 34.57654 162.99041 34.066159 162.84193 33.640625 162.58398 C 33.215091 162.32604 32.861288 161.95836 32.455078 161.25781 C 31.642659 159.85672 30.648213 157.14655 28.566406 151.56055 C 27.454515 148.57706 26.200396 145.24405 25.777344 144.15039 C 25.355979 143.06108 24.30469 140.26145 23.443359 137.93359 C 20.90339 131.06898 17.083193 120.87421 16.353516 119.01367 C 15.983364 118.06985 15.263994 116.16465 14.755859 114.7832 C 14.247264 113.4005 13.497231 111.37696 13.089844 110.28516 C 9.9349302 101.82985 8.9919593 99.319574 8.3164062 97.583984 C 7.8925568 96.495059 6.963187 94.006857 6.2519531 92.060547 L 4.9257812 88.435547 L 1.4257812 88.378906 C -9.0521934 88.210615 -16.292004 81.358745 -18.746094 73.109375 C -21.200184 64.860005 -18.864789 55.227154 -10.146484 49.482422 C -1.059614 43.494833 9.0150163 45.384397 15.648438 51.21875 C 22.281859 57.053103 25.462714 66.824146 20.726562 76.638672 L 19.617188 78.9375 L 31.228516 90.546875 L 42.998047 102.31836 L 42.929688 83.623047 L 42.861328 65.152344 L 41.3125 64.685547 C 31.576832 61.74297 26.549599 53.291616 26.341797 44.734375 C 26.133995 36.177134 30.747216 27.52926 40.330078 24.195312 C 42.925593 23.292314 45.459095 22.894805 47.878906 22.921875 z 

M 65.08967,268.35364 c 0.0078,-17.7762 3.831701,-25.81614 19.987242,-42.02397 12.139229,-12.17851 15.806768,-18.49929 18.064618,-31.13332 0.59185,-3.31172 0.58174,-3.32002 -1.59799,-1.31191 -3.322733,3.06111 -12.3603,10.26501 -16.083122,12.81994 -11.869547,8.14596 -13.081797,9.23627 -18.962947,17.05537 -6.916156,9.19516 -10.517133,11.30785 -17.97226,10.54432 l -1.826253,-0.18704 -1.91281,-1.96476 -1.912811,-1.96477 -1.923648,-0.002 c -14.455756,-0.0163 -21.989047,-7.60559 -23.503382,-23.67804 -0.794483,-8.43228 2.857622,-17.21574 17.028861,-40.95508 1.063364,-1.78132 1.168506,-2.0812 0.774028,-2.20761 -2.842582,-0.91096 -2.643047,-0.56685 -6.806488,-11.7384 -1.111777,-2.98318 -2.36683,-6.31693 -2.789007,-7.40833 -0.422177,-1.09141 -1.472465,-3.88938 -2.333969,-6.21771 -2.539781,-6.8641 -6.361944,-17.06401 -7.08894,-18.91771 -0.370964,-0.94589 -1.090527,-2.85089 -1.599027,-4.23333 -0.508503,-1.38245 -1.257745,-3.40651 -1.664984,-4.49792 C 9.8118895,101.87612 8.8682001,99.365458 8.1931845,97.631249 7.7683695,96.539843 6.8386369,94.053786 6.1271114,92.106678 L 4.8334312,88.566484 1.424527,88.511731 C -19.644892,88.173326 -27.75095,60.924992 -10.218891,49.372633 8.0513467,37.33387 30.368393,56.962582 20.846004,76.695424 L 19.777019,78.910637 31.321105,90.453757 42.865193,101.99687 42.797701,83.624062 42.730208,65.25125 41.275,64.811417 C 21.693409,58.89294 21.010652,30.777174 40.285675,24.071253 61.16075,16.808662 78.178724,42.059488 63.504829,58.523229 c -0.73026,0.819336 -1.327745,1.552081 -1.327745,1.628323 0,0.123999 4.667065,8.132715 15.042248,25.812612 1.913221,3.260238 3.478586,6.028441 3.478586,6.151562 0,0.345065 0.455856,0.264843 0.607282,-0.106873 1.532887,-3.762862 11.828135,-29.570031 11.828135,-29.649673 0,-0.06148 -0.464394,-0.4191 -1.031986,-0.794713 -2.772141,-1.834518 -6.253277,-6.413532 -7.437684,-9.783382 -7.687459,-21.872202 19.265145,-38.909433 35.457175,-22.413123 9.19705,9.369889 7.63961,25.491899 -3.14468,32.552361 l -0.61814,0.404699 5.08938,12.692176 c 2.79916,6.980698 5.29656,13.227957 5.54979,13.882801 1.243,3.214434 1.8549,4.266925 1.8549,3.190499 0,-0.136998 0.875,-1.714576 1.94445,-3.505729 1.06945,-1.791155 2.59873,-4.387739 3.39841,-5.770186 0.79967,-1.382448 4.09186,-7.015986 7.31596,-12.518972 3.22411,-5.50299 5.86201,-10.067814 5.86201,-10.144059 0,-0.07624 -0.59749,-0.808987 -1.32775,-1.628323 -14.67187,-16.461475 2.34696,-41.713568 23.21916,-34.451976 19.28922,6.710861 18.60669,34.817326 -0.98933,40.740164 l -1.45521,0.439833 -0.0675,18.372812 -0.0675,18.372808 11.54409,-11.543113 11.54408,-11.54312 -1.06898,-2.215213 c -3.99777,-8.284406 -2.44807,-18.200267 3.82478,-24.473117 14.88208,-14.882077 40.42842,-1.770922 36.49218,18.728896 -2.25628,11.75068 -12.55657,18.928683 -24.89491,17.348623 l -1.5875,-0.203295 -17.54197,35.089049 -17.54196,35.08905 1.72931,3.51267 c 11.6655,23.69552 16.4917,54.96028 15.81711,102.4653 l -0.12869,9.06198 l -59.8924,0 -59.892429,0 l 0.0021,-4.96094 z m 108.47268,-15.61041 c -0.0263,-55.93811 -10.35241,-90.7938 -32.01026,-108.04989 -15.09497,-12.02705 -48.339798,-13.31471 -73.010599,-2.82789 -6.648048,2.82588 -7.127333,3.12651 -8.977583,5.63119 -6.053775,8.19497 -20.762384,32.59848 -26.195378,43.46157 -1.612254,3.22365 -1.571651,2.87871 -0.361759,3.07339 3.776689,0.6077 4.709856,5.74482 1.435793,7.9041 -1.010857,0.66667 -3.356708,0.62824 -4.508342,-0.0739 -1.166084,-0.71091 -1.190934,-0.6626 -1.130543,2.19776 0.206499,9.78069 2.891978,13.73185 9.891678,14.55368 3.133294,0.36788 3.110746,0.38656 2.795638,-2.3164 -0.739195,-6.34072 1.82593,-10.28917 6.921241,-10.65374 6.533021,-0.46744 10.121874,4.69143 7.871606,11.3152 -0.370779,1.09141 -0.644872,2.01435 -0.609092,2.05098 0.03578,0.0366 1.007171,-1.21353 2.158648,-2.77813 5.253339,-7.13812 8.592225,-10.31064 16.646811,-15.81736 21.687031,-14.82688 33.990181,-27.92849 34.001541,-36.20818 0.005,-3.93441 2.08434,-6.24939 5.61217,-6.24939 6.34115,0 7.74928,7.646 3.14291,17.06562 l -1.55264,3.175 -0.15851,6.10436 c -0.46462,17.89207 -4.67194,30.06866 -14.42811,41.75707 -1.106113,1.32517 -5.109709,5.56456 -8.896889,9.42086 -11.162805,11.36656 -14.003182,16.03811 -15.322934,25.20157 l -0.181004,1.25677 l 48.434967,0 48.43496,0 z M 59.041012,177.24939 c -3.492855,-1.07245 -5.330307,-6.3165 -4.015087,-11.45897 3.434951,-13.43052 19.329975,-16.19018 19.320516,-3.35438 -0.0065,8.77595 -8.426656,16.92543 -15.305429,14.81335 z M 39.870867,148.75101 c 24.441555,-20.79516 59.309811,-28.27294 91.097883,-19.53669 10.95735,3.01139 21.53961,9.80708 29.71721,19.08374 0.51269,0.58159 0.98428,0.99831 1.04799,0.92604 0.29115,-0.33024 29.03407,-58.027608 28.94955,-58.112129 -0.0526,-0.05258 -5.80061,5.604201 -12.7734,12.570629 -6.97279,6.96643 -13.09452,12.91917 -13.60385,13.22833 -2.43398,1.47739 -5.82474,0.0656 -6.58845,-2.74322 -0.1973,-0.72563 -0.28823,-8.56718 -0.28924,-24.94353 l -0.001,-23.885194 -0.70677,-0.268711 c -1.18159,-0.449239 -1.38128,-0.249245 -3.7157,3.721391 -1.24054,2.110052 -2.46633,4.193646 -2.72397,4.630208 -1.03478,1.753381 -3.21016,5.471049 -5.05723,8.642678 -15.11657,25.956828 -14.3583,24.788478 -16.42582,25.309088 -1.57829,0.39742 -2.91172,0.006 -4.19176,-1.23126 -0.90888,-0.87832 -1.75352,-2.84906 -8.89243,-20.74811 L 107.82525,65.616666 L 104.775,65.616666 101.72476,65.616666 L 93.836595,85.39427 c -8.626595,21.62905 -8.476626,21.32651 -10.903842,21.9967 -3.036364,0.83838 -3.848788,-0.009 -9.765565,-10.184906 -2.613933,-4.495575 -5.487953,-9.423929 -6.386711,-10.951898 -2.143096,-3.64345 -6.917799,-11.809291 -7.531839,-12.881184 -0.265493,-0.463452 -0.768051,-1.29689 -1.116793,-1.852083 -0.348744,-0.555191 -0.682561,-1.128504 -0.741815,-1.274025 -0.475535,-1.167831 -3.257679,-5.423958 -3.54553,-5.423958 -0.200321,0 -0.669626,0.116115 -1.0429,0.258035 l -0.678683,0.258035 -0.0016,23.885194 c -0.0011,16.37635 -0.09194,24.2179 -0.289234,24.94353 -0.763442,2.80783 -4.152114,4.21955 -6.588456,2.74474 -0.509323,-0.3083 -7.610303,-7.24325 -15.779954,-15.41098 -8.169651,-8.167737 -15.11076,-15.082416 -15.424682,-15.365954 -0.533615,-0.481962 -0.519801,-0.378616 0.212166,1.5875 0.430615,1.156663 1.690905,4.543806 2.800647,7.526983 1.109742,2.983177 2.370479,6.346691 2.801641,7.474481 0.431162,1.12778 1.136936,2.97325 1.568384,4.10104 0.431448,1.12779 1.155787,3.06255 1.609643,4.29948 0.868143,2.36601 1.607315,4.33821 3.421184,9.12812 0.606174,1.60073 1.495349,3.98198 1.975948,5.29167 1.10076,2.99969 5.408825,14.48456 6.748818,17.99167 0.556006,1.45521 1.348885,3.56856 1.761955,4.69635 0.897268,2.44976 0.701733,2.4152 2.931367,0.5182 z M 5.7407536,79.357034 C 14.876094,76.214017 17.509098,64.792669 10.657188,58.030721 c -8.1423842,-8.035478 -21.783323,-2.313154 -21.766276,9.130871 0.01327,8.90882 8.5158591,15.062753 16.8498416,12.195442 z M 210.3897,79.785326 c 10.42278,-2.209036 13.92359,-14.961 6.08012,-22.147276 -7.13831,-6.540188 -18.56947,-3.031289 -21.10108,6.477169 -2.36849,8.895784 5.96503,17.589447 15.02096,15.670107 z M 50.616565,56.755328 C 57.47598,54.968679 61.740283,47.805512 59.949348,41.078131 56.191235,26.961342 35.445263,28.995538 34.72058,43.551877 c -0.433692,8.711377 7.581665,15.369058 15.895985,13.203451 z m 57.324085,-0.02394 c 8.03496,-2.386119 11.9478,-10.76265 8.41929,-18.023853 -5.49407,-11.306088 -22.237318,-8.858866 -24.279697,3.548763 -1.474108,8.955326 7.344801,17.003959 15.860407,14.475098 z m 57.2405,0.02394 c 9.05082,-2.357437 12.7193,-13.257803 6.91854,-20.557443 -6.02132,-7.577187 -18.33677,-5.771899 -21.97911,3.221857 -3.90046,9.631095 5.05667,19.941272 15.06057,17.335586 z

" />
</svg>
