<?xml version="1.0" encoding="UTF-8" standalone="no"?>
<svg
   xmlns:dc="http://purl.org/dc/elements/1.1/"
   xmlns:cc="http://creativecommons.org/ns#"
   xmlns:rdf="http://www.w3.org/1999/02/22-rdf-syntax-ns#"
   xmlns:svg="http://www.w3.org/2000/svg"
   xmlns="http://www.w3.org/2000/svg"
   xmlns:xlink="http://www.w3.org/1999/xlink"
   xmlns:sodipodi="http://sodipodi.sourceforge.net/DTD/sodipodi-0.dtd"
   xmlns:inkscape="http://www.inkscape.org/namespaces/inkscape"
   sodipodi:docname="drawing.svg"
   inkscape:version="1.0beta2 (2b71d25, 2019-12-03)"
   id="svg106"
   version="1.1"
   viewBox="0 0 210 297"
   height="297mm"
   width="210mm">

   <path d="

M 27.516665,243.96145 c 0,-10.31604 -0.09273,-15.9167 -0.265299,-16.02335 -0.177343,-0.1096 -0.177343,-0.32831 0,-0.65968 0.149259,-0.2789 0.265299,-2.58639 0.265299,-5.27561 v -4.77989 h 4.057275 4.057276 l 11.744984,-14.08907 11.744987,-14.08906 0.338166,-3.175 c 1.451711,-13.6299 4.572633,-19.36598 17.922566,-32.94062 12.100933,-12.30463 15.693507,-18.66483 17.44834,-30.89011 0.204909,-1.42752 0.261257,-1.44494 -2.018895,0.6241 -4.598178,4.17246 -12.125826,9.90919 -21.661123,16.50767 -3.41956,2.36636 -6.405918,5.44088 -10.279862,10.58334 -5.458201,7.24547 -8.113562,9.36218 -12.658037,10.09031 -4.297043,0.68848 -7.061611,-0.30136 -8.840121,-3.16515 -0.523923,-0.84363 -0.597123,-0.87308 -1.769282,-0.71187 -3.229656,0.44419 -9.368017,-0.82364 -12.467524,-2.57506 -8.638224,-4.88116 -12.574078,-19.38032 -8.277566,-30.49344 3.422402,-8.8522 18.644303,-35.439688 27.039101,-47.228127 6.7857,-9.528853 7.514754,-11.262112 6.232274,-14.816667 -2.542918,-7.048009 0.215178,-18.157994 5.101251,-20.548526 4.772835,-2.335131 10.284611,1.569898 15.652587,11.089672 1.276326,2.263484 1.821309,2.151734 3.225816,-0.661459 4.009056,-8.030055 10.405927,-13.962698 15.14684,-14.047616 4.900316,-0.08777 7.487473,4.063483 8.383786,13.452304 0.166709,1.74625 0.322345,3.186246 0.345863,3.199991 0.02352,0.01375 1.709632,0.295582 3.746923,0.626303 47.77529,7.75555 68.65938,45.413339 68.65938,123.805295 v 11.00505 l 9.45885,14.21668 9.45886,14.21669 3.9026,0.007 3.9026,0.007 v 21.29895 21.29896 h -21.16666 -21.16667 v -5.29166 -5.29167 h -10.58333 -10.58334 v 5.29167 5.29166 H 112.31562 91.016666 v -5.29166 -5.29167 H 80.433332 69.849999 v 5.29167 5.29166 H 48.683332 27.516665 Z 

M 36.5 227.5 l 0 23 24 0 0 -11 40 0 l 0 11 24 0 0 -11 40 0 l 0 11 24 0 0 -23 Z

M 176.43299,216.98596 c -0.0485,-0.13033 -3.18382,-4.8897 -6.96736,-10.57638 l -6.87917,-10.33943 -47.78134,-0.007 -47.78135,-0.007 -8.310322,9.97327 c -4.57068,5.4853 -8.527325,10.2478 -8.792549,10.58334 l -0.482224,0.61006 h 63.541255 c 37.31166,0 63.50485,-0.0978 63.45306,-0.23696 z 

M 159.73036,172.97135 C 158.93938,106.71191 143.05829,74.657412 106.62708,65.78737 101.31102,64.493047 91.139837,62.970833 87.807458,62.970833 c -0.466186,0 -0.496099,-0.303763 -0.51457,-5.225521 -0.0108,-2.874037 -0.105339,-5.761302 -0.210114,-6.416146 l -0.1905,-1.190625 -1.527804,2.317334 c -1.740525,2.639985 -3.204446,5.690199 -4.2529,8.861312 l -0.721693,2.182812 h -7.515945 -7.515945 l -1.0537,-2.095709 c -1.057862,-2.10398 -3.464923,-6.308263 -4.177723,-7.296999 -1.028592,-1.426779 -0.21067,3.467047 0.845261,5.057397 l 0.991373,1.493112 -0.284755,2.414485 C 61.153713,67.521531 59.09584,72.357678 55.58267,77.397776 46.763473,90.050064 35.755655,108.18217 30.20812,119.19479 l -1.599384,3.175 0.926311,0.15957 c 2.568683,0.4425 3.987448,3.28255 2.84379,5.69263 -0.932773,1.96568 -3.403962,2.75527 -5.387478,1.7214 -1.393858,-0.72652 -1.45437,-0.57525 -1.241433,3.10336 0.48888,8.44572 3.083,11.81022 9.518525,12.34526 l 2.327828,0.19353 -0.176572,-3.00892 c -0.360686,-6.14637 2.053965,-9.28254 7.126563,-9.25605 5.812297,0.0303 8.623006,4.64603 6.528112,10.72033 -0.296431,0.85952 -0.538967,1.62206 -0.538967,1.69451 0,0.0725 1.101328,-1.34319 2.447396,-3.14588 4.423807,-5.92448 7.929412,-9.24956 14.485938,-13.73995 20.171016,-13.81461 31.450862,-25.65939 32.002492,-33.605304 0.303813,-4.376234 2.574869,-6.73178 5.965219,-6.187138 5.56442,0.8939 6.28055,8.737925 1.56016,17.089142 l -0.8987,1.58997 -2.3e-4,4.00948 c -0.001,20.74044 -5.07415,32.44372 -21.004752,48.45732 -8.567491,8.61214 -10.943534,11.72197 -12.974987,16.98208 -0.760711,1.96973 -2.003369,6.93115 -2.003369,7.99862 0,0.20803 12.593378,0.28917 44.882508,0.28917 H 159.8796 Z 

M 57.923823,107.02653 c -4.521489,-1.45109 -5.765065,-7.696672 -2.751887,-13.820728 4.420423,-8.984176 14.368392,-10.471526 16.41901,-2.454857 2.075882,8.115414 -6.663833,18.523165 -13.667123,16.275585 z
"/>
</svg>
