<?xml version="1.0" encoding="UTF-8" standalone="no"?>
<svg
   xmlns:dc="http://purl.org/dc/elements/1.1/"
   xmlns:cc="http://creativecommons.org/ns#"
   xmlns:rdf="http://www.w3.org/1999/02/22-rdf-syntax-ns#"
   xmlns:svg="http://www.w3.org/2000/svg"
   xmlns="http://www.w3.org/2000/svg"
   xmlns:xlink="http://www.w3.org/1999/xlink"
   xmlns:sodipodi="http://sodipodi.sourceforge.net/DTD/sodipodi-0.dtd"
   xmlns:inkscape="http://www.inkscape.org/namespaces/inkscape"
   sodipodi:docname="knight-king-1.svg"
   inkscape:version="1.0beta2 (2b71d25, 2019-12-03)"
   id="svg541"
   version="1.1"
   viewBox="-20 10 250 297"
   height="297mm"
   width="210mm">

    <path d="

m 59.197633,308.67089 c -2.153747,-1.31322 -2.357889,-1.992 -2.106041,-7.00268 0.806066,-16.03711 6.412516,-25.20493 25.282014,-41.34183 18.848724,-16.11913 25.081964,-25.83476 27.160724,-42.33491 0.20778,-1.64923 0.44375,-3.52371 0.52438,-4.16549 l 0.14659,-1.16689 -2.71515,2.42413 c -8.610226,7.68735 -21.067456,16.63293 -33.759599,24.24287 -9.091292,5.45094 -11.737182,7.63245 -18.099152,14.92254 -6.176677,7.07777 -9.133579,9.12947 -14.356405,9.96143 -5.837625,0.9299 -9.162884,-0.37391 -11.259256,-4.41467 l -0.546802,-1.05397 -6.091417,0.10765 C 12.215573,259.04632 6.0354868,256.09413 2.1561641,248.71177 -1.1180935,242.48084 -2.1673767,231.69514 -0.04309138,226.10536 3.5853703,216.55755 13.933912,198.7407 30.014955,174.35512 c 4.992363,-7.57051 6.576068,-10.21692 5.978106,-9.98957 -0.447404,0.1701 -2.097536,0.95489 -3.66696,1.74398 -4.368218,2.1963 -5.651651,1.82083 -15.097986,-4.4169 C -16.403519,139.48452 -25.819236,109.26496 -7.5646563,82.120721 9.1376542,57.284679 42.718303,54.337496 74.00099,74.962168 c 3.833287,2.527282 4.54612,2.886318 4.375961,2.20405 -4.189049,-16.796391 5.406161,-36.891733 20.18888,-42.281787 l 2.152219,-0.784736 V 24.97474 15.849786 h -6.716831 c -8.696114,0 -10.922057,-1.078456 -10.922057,-5.291668 0,-4.2132116 2.225943,-5.2916668 10.922057,-5.2916668 h 6.716831 l 0.006,-5.02708387 c 0.008,-6.74741763 1.36743,-9.08402873 5.28587,-9.08402873 3.91843,0 5.27807,2.3366111 5.28586,9.08402873 l 0.006,5.02708387 h 6.71684 c 8.69611,0 10.92205,1.0784552 10.92205,5.2916668 0,4.213212 -2.22594,5.291668 -10.92205,5.291668 h -6.71684 v 9.124954 9.124955 l 2.20487,0.793482 c 11.93681,4.295814 20.88244,18.381622 20.89616,32.903174 0.003,3.444011 0.0203,6.261823 0.0378,6.261806 0.0175,-1.8e-5 1.36691,-0.807283 2.99861,-1.793921 20.97155,-12.68087 44.69859,-14.449458 63.39833,-4.725642 11.79212,6.131864 21.87646,17.39577 25.49922,28.481834 7.96839,24.384232 -7.44988,49.456182 -41.91808,68.163822 l -5.02337,2.72643 2.50003,2.69803 c 22.84966,24.65937 33.9968,66.47865 33.41369,125.35387 l -0.11421,11.53082 -0.98767,1.0304 c -1.84016,1.91975 1.7015,1.83722 -78.78104,1.83581 -73.817252,-10e-4 -75.120001,-0.013 -76.228097,-0.68872 z 

M 205.71819,299.9437 c 0.29822,-1.1882 -0.11242,-22.64433 -0.58288,-30.45569 -3.20198,-53.16488 -17.02396,-86.92272 -43.27194,-105.68443 -5.16081,-3.68888 -8.36071,-5.30547 -12.83577,-6.48461 -27.54098,-7.25683 -64.554634,-7.40614 -91.701216,-0.36991 -2.387837,0.61892 -2.783071,0.85073 -4.053258,2.37729 -0.774083,0.93033 -2.79067,3.13788 -4.481305,4.90567 -6.425089,6.71832 -30.90822,45.52765 -37.327821,59.17004 -3.3673571,7.15602 -3.790894,10.67904 -2.0922132,17.40323 1.9832132,7.8505 5.8534362,10.35431 15.0692722,9.74894 3.824581,-0.25122 4.142398,-0.52875 3.868604,-3.37817 -0.504589,-5.25136 2.137756,-8.06248 7.63663,-8.12443 7.175451,-0.0808 9.384298,4.3781 5.644995,11.3954 -2.141531,4.01886 -2.762914,5.64794 -2.150026,5.6367 1.4447,-0.0265 3.564749,-1.61857 6.613621,-4.96661 9.263676,-10.17266 12.30171,-12.75902 21.502056,-18.30529 29.758055,-17.93912 47.625001,-34.84213 47.625001,-45.05561 0,-3.29235 1.67357,-5.04426 4.81582,-5.04121 5.73792,0.006 6.41043,7.80204 1.41487,16.40285 l -1.43431,2.46945 -0.0828,5.99722 c -0.3536,25.61641 -7.26111,38.72698 -31.171934,59.1648 -15.641592,13.36968 -21.872222,22.85624 -21.872222,33.30196 v 0.84297 H 136.1655 205.47961 Z M 18.93811,235.08096 c -6.724272,-3.3999 -4.400698,-12.30283 3.339547,-12.79569 5.001076,-0.31845 8.599434,2.57079 8.584589,6.89284 -0.0181,5.2739 -6.662624,8.56315 -11.924136,5.90285 z 

m 33.272996,-51.05114 c -4.608605,-1.8907 -5.299192,-5.75664 -2.158485,-12.08329 4.745884,-9.5601 14.336162,-13.97417 17.848781,-8.21516 4.311484,7.06876 -8.26842,23.34332 -15.690296,20.29845 z 

M 31.113089,154.99639 c 18.456392,-8.43848 44.783859,-13.84184 67.752879,-13.90536 l 1.852082,-0.005 v -10.10658 -10.10658 l -1.647443,-3.03439 C 74.634187,72.829442 21.567776,56.835106 1.0594969,88.297592 -12.618953,109.28219 -6.8395745,130.45175 17.638883,149.02704 c 2.939785,2.23083 10.089899,7.07135 10.651984,7.21123 0.03776,0.009 1.307758,-0.54945 2.822222,-1.24188 z 

M 181.49069,153.73461 C 218.1892,132.82045 228.05904,106.13005 206.9137,84.984702 180.32202,58.393019 131.55728,74.222749 113.42296,115.33313 l -1.94519,4.40972 -0.10263,10.84792 -0.10263,10.84792 2.2193,0.001 c 17.39763,0.0112 44.17271,6.02548 60.25124,13.53371 3.35433,1.56638 2.61793,1.68416 7.74764,-1.23922 z 

m -74.49301,-49.32647 c 3.02738,-5.608084 7.13485,-11.435776 11.59894,-16.456623 5.20761,-5.857096 7.07634,-22.113965 3.45138,-30.024944 -7.33929,-16.016953 -20.02601,-18.291371 -29.068299,-5.211234 -6.276266,9.078938 -6.566426,17.042283 -1.24757,34.238925 1.186374,3.835721 1.267495,3.975125 4.898739,8.418266 2.030811,2.484879 4.7734,6.16412 6.09465,8.1761 2.87188,4.37329 2.42397,4.28318 4.27216,0.85951 z
"/>
</svg>
