<?xml version="1.0" encoding="UTF-8" standalone="no"?>
<svg
   xmlns:dc="http://purl.org/dc/elements/1.1/"
   xmlns:cc="http://creativecommons.org/ns#"
   xmlns:rdf="http://www.w3.org/1999/02/22-rdf-syntax-ns#"
   xmlns:svg="http://www.w3.org/2000/svg"
   xmlns="http://www.w3.org/2000/svg"
   xmlns:xlink="http://www.w3.org/1999/xlink"
   xmlns:sodipodi="http://sodipodi.sourceforge.net/DTD/sodipodi-0.dtd"
   xmlns:inkscape="http://www.inkscape.org/namespaces/inkscape"
   sodipodi:docname="moon.svg"
   inkscape:version="1.0beta2 (2b71d25, 2019-12-03)"
   id="svg140"
   version="1.1"
   viewBox="0 0 210 297"
   height="297mm"
   width="210mm">

    <path d="

M 97.63125,252.24741 C 62.39905,249.08727 33.664356,231.67188 15.244525,202.31484 8.82207,192.07891 2.3878172,175.35474 1.1713811,165.73538 l -0.1705904,-1.349 4.8304404,-1.78927 c 4.5398139,-1.68161 4.8469479,-1.75964 5.1048099,-1.29683 0.80393,1.44287 4.379864,6.51059 6.125885,8.68144 21.716027,26.99977 58.220121,36.70681 90.555514,24.0802 59.42506,-23.20483 68.00629,-104.242369 14.79111,-139.681182 -1.6948,-1.128663 -3.08147,-2.162922 -3.08147,-2.298353 0,-0.363021 3.21751,-9.049543 3.44824,-9.309463 0.10833,-0.12203 1.1925,-0.02275 2.40926,0.220619 56.65534,11.331912 93.66078,64.784799 84.08868,121.462759 -7.30925,43.27931 -40.77114,77.51894 -84.12534,86.08062 -7.19586,1.42105 -21.10442,2.28564 -27.51667,1.71049 z 

M 113.10937,241.5615 C 174.58364,235.91708 214.47638,175.60696 195.49194,117.015 188.56601,95.639384 173.11195,76.443623 153.59062,64.968613 150.58507,63.20189 146.05,60.770914 146.05,60.92654 c 0,0.06492 0.7857,1.057463 1.746,2.205647 33.86544,40.491193 25.05169,101.682413 -18.9539,131.591303 -32.701508,22.22595 -76.93925,20.12683 -107.129619,-5.08338 -1.176308,-0.98227 -2.207605,-1.78594 -2.291772,-1.78594 -0.08417,0 0.579622,1.38298 1.475086,3.07328 17.997596,33.97283 54.625903,54.08526 92.213575,50.63405 z
"/>
</svg>
