<?xml version="1.0" encoding="UTF-8" standalone="no"?>
<svg
   xmlns:dc="http://purl.org/dc/elements/1.1/"
   xmlns:cc="http://creativecommons.org/ns#"
   xmlns:rdf="http://www.w3.org/1999/02/22-rdf-syntax-ns#"
   xmlns:svg="http://www.w3.org/2000/svg"
   xmlns="http://www.w3.org/2000/svg"
   xmlns:xlink="http://www.w3.org/1999/xlink"
   xmlns:sodipodi="http://sodipodi.sourceforge.net/DTD/sodipodi-0.dtd"
   xmlns:inkscape="http://www.inkscape.org/namespaces/inkscape"
   sodipodi:docname="unicorn-1.svg"
   inkscape:version="1.0beta2 (2b71d25, 2019-12-03)"
   id="svg8"
   version="1.1"
   viewBox="-27 0 250 297"
   height="297mm"
   width="210mm">

      <path
          d="

m 52.213571,258.76919 c -3.103335,-0.93751 -3.535219,-1.93002 -3.507107,-8.05964 0.06675,-14.55627 4.992904,-27.2727 15.124616,-39.04289 0.939474,-1.0914 6.432936,-6.74687 12.20769,-12.5677 12.156758,-12.25377 14.935367,-15.57413 18.99198,-22.69496 4.91743,-8.63187 8.07134,-19.59071 8.9642,-31.14775 l 0.17374,-2.24896 -4.327052,4.25312 c -10.412538,10.23461 -21.669892,19.34093 -35.944764,29.0765 -7.452083,5.08237 -10.534027,8.11827 -16.970032,16.71651 -6.846467,9.14661 -10.874794,11.8258 -17.822679,11.85365 -5.258326,0.0211 -7.655473,-1.66612 -9.200549,-6.47565 -0.114684,-0.35698 -0.563145,-0.36444 -3.931119,-0.0654 -19.1057425,1.69644 -29.279738,-10.0849 -28.384773,-32.86916 0.240445,-6.12129 6.6797862,-21.46811 17.0409526,-40.61354 1.06317,-1.96453 2.3745535,-4.40531 2.9141818,-5.42395 C 10.108828,114.61564 19.601208,97.825 24.948612,88.671108 c 1.808562,-3.095964 1.8098,-2.936357 -0.03497,-4.502312 C 24.16249,83.531169 23.07166,82.577479 22.489577,82.049481 21.907493,81.521484 19.764368,79.604575 17.727077,77.789682 -4.1364542,58.312857 -16.52523,45.523761 -18.926148,39.952075 c -1.568646,-3.640272 0.03763,-7.788647 3.374637,-8.715341 4.624617,-1.284266 10.0728371,0.771209 34.998379,13.204 9.005917,4.492128 18.329229,9.005091 18.603575,9.005091 0.05303,0 0.115321,-3.047973 0.138425,-6.773275 0.05325,-8.584685 0.360127,-9.402109 4.276751,-11.391801 6.173299,-3.13611 13.836858,2.040398 22.87753,15.453097 l 1.292958,1.918229 h 3.65301 3.653007 l 0.668367,-1.256771 C 79.977749,41.302932 89.85759,31.954385 94.74192,32.346452 c 5.79774,0.465387 9.19301,5.952701 10.65876,17.226312 l 0.45089,3.467968 2.37213,0.334222 c 34.59717,4.874553 59.05742,19.232911 76.2945,44.785453 7.68984,11.399553 14.86228,27.561623 18.9629,42.730203 0.35405,1.30969 0.93379,3.45282 1.2883,4.7625 0.87308,3.22546 2.9423,12.62415 3.59142,16.31273 1.24108,7.05239 1.90127,11.06463 2.12651,12.92373 0.13223,1.09141 0.47459,3.82985 0.76079,6.08542 0.8514,6.70994 1.31424,11.60206 1.86488,19.71146 0.98734,14.54071 1.16481,20.10149 1.18216,37.04166 l 0.0174,16.93333 -0.6224,1.26397 c -0.71762,1.45734 -1.83726,2.3974 -3.34635,2.80962 -1.25988,0.34414 -156.992726,0.37778 -158.130188,0.0341 z M 204.04652,232.10573 C 203.09482,122.02965 172.4391,70.178881 104.11354,63.080065 c -0.94588,-0.09827 -1.83714,-0.246948 -1.98056,-0.330387 -0.14343,-0.08344 -0.63819,-0.119193 -1.09947,-0.07945 -1.981,0.170673 -5.110055,-2.217295 -5.125975,-3.911941 -0.04854,-5.167008 -1.358398,-14.503532 -2.098966,-14.961229 -1.150282,-0.710912 -8.82925,9.06826 -11.416669,14.539137 -2.053497,4.341942 -2.098955,4.358436 -12.012734,4.358436 -9.90339,0 -9.319237,0.226941 -12.569358,-4.883171 -2.385002,-3.749903 -5.75654,-8.182194 -7.715896,-10.143479 l -1.675164,-1.676813 -0.152133,1.279938 c -0.418626,3.522014 0.441013,7.354435 2.365306,10.544955 2.957534,4.903658 -0.967311,9.879266 -6.805316,8.627239 -1.748036,-0.374888 -6.890896,-2.305401 -9.888067,-3.711757 -1.270159,-0.595995 -2.36137,-1.083625 -2.424915,-1.083625 -0.06354,0 -7.461721,-3.637523 -16.440396,-8.083386 -8.978676,-4.445859 -16.3985151,-8.009733 -16.4885332,-7.919714 -0.1895999,0.1896 5.8790263,6.159619 14.3884342,14.154636 2.515823,2.363745 14.805984,13.424953 20.604904,18.544521 4.211741,3.71833 4.459124,4.041029 4.590773,5.988407 0.121224,1.793182 0.202665,1.617922 -4.212707,9.065535 -3.178678,5.361625 -8.928804,15.347183 -10.3357,17.948773 -0.445582,0.82396 -0.89613,1.61716 -1.001223,1.76269 -0.20778,0.28771 -0.584231,0.96593 -3.304831,5.95399 -0.991865,1.81853 -2.037882,3.72314 -2.324481,4.23246 -8.6273723,15.33191 -17.9128664,35.24367 -18.9911637,40.72455 -0.6687595,3.39924 0.036617,11.32656 1.37059496,15.40331 2.47969414,7.57817 6.79511734,9.83602 16.69486274,8.73485 2.299169,-0.25575 2.16852,-0.005 2.34301,-4.49278 0.283477,-7.29051 3.852538,-10.40674 10.369466,-9.05383 6.116021,1.26968 7.147664,5.99838 3.193532,14.63804 -1.283801,2.80507 -2.204543,5.05388 -2.204543,5.38434 0,0.2642 1.305877,0.0349 2.248958,-0.39494 1.414907,-0.64485 3.684429,-3.12474 7.458428,-8.14977 6.237682,-8.3054 10.807298,-12.72671 18.806806,-18.19647 5.175713,-3.53895 6.2322,-4.29059 10.64499,-7.57342 20.321887,-15.11817 35.027396,-30.43523 39.214466,-40.84526 0.8499,-2.11305 1.01477,-2.97784 1.22406,-6.42039 0.18689,-3.07414 0.23558,-3.2788 1.00708,-4.23333 2.29948,-2.84501 6.10278,-2.77122 8.15926,0.1583 l 0.79741,1.13593 -0.0134,3.74617 c -0.0178,4.99039 -0.69945,7.50942 -3.55489,13.13764 l -1.27585,2.51477 -0.14451,7.80521 c -0.38763,20.93602 -4.16507,34.74138 -13.28459,48.55104 -4.464965,6.76128 -7.459154,10.15234 -19.263725,21.81708 -11.498634,11.36242 -15.052615,15.76165 -18.399087,22.77499 -2.440889,5.11547 -4.476017,12.89648 -4.512868,17.25428 l -0.0084,0.99219 h 72.66014 72.66014 z m -193.463191,-61.555 c -7.5289862,-2.38111 -8.229206,-12.43065 -1.0916998,-15.66808 7.9356378,-3.59944 15.3681148,5.98384 9.9534988,12.83385 -2.102276,2.65957 -5.737657,3.82226 -8.861799,2.83423 z m 34.08532,-61.84242 c -5.930453,-1.04536 -7.052337,-7.88963 -2.700239,-16.473345 4.99155,-9.844926 12.215844,-13.954159 16.85842,-9.589198 6.686976,6.287111 -4.938634,27.687673 -14.158181,26.062543 z

" />
</svg>
