<?xml version="1.0" encoding="UTF-8" standalone="no"?>
<svg
   xmlns:dc="http://purl.org/dc/elements/1.1/"
   xmlns:cc="http://creativecommons.org/ns#"
   xmlns:rdf="http://www.w3.org/1999/02/22-rdf-syntax-ns#"
   xmlns:svg="http://www.w3.org/2000/svg"
   xmlns="http://www.w3.org/2000/svg"
   xmlns:xlink="http://www.w3.org/1999/xlink"
   xmlns:sodipodi="http://sodipodi.sourceforge.net/DTD/sodipodi-0.dtd"
   xmlns:inkscape="http://www.inkscape.org/namespaces/inkscape"
   sodipodi:docname="zebra-2.svg"
   inkscape:version="1.0beta2 (2b71d25, 2019-12-03)"
   id="svg8"
   version="1.1"
   viewBox="-30 0 270 297"
   height="297mm"
   width="210mm">
 
      <path
         d="
M 45.984586,264.51718 c 0.289568,-12.77167 2.280505,-21.62826 6.953687,-30.93312 4.149572,-8.2623 8.421408,-13.60204 20.726716,-25.90813 20.665454,-20.66678 25.244294,-27.12391 30.003521,-42.31135 2.01599,-6.43332 4.35003,-19.86898 3.8354,-22.07807 -0.0465,-0.19961 -2.20574,1.71679 -4.90419,4.35265 -10.183556,9.94733 -19.581268,17.69956 -33.41118,27.56109 -3.419739,2.43847 -7.289271,5.1998 -8.598958,6.13629 -6.445475,4.6088 -9.985453,8.29532 -17.564472,18.29158 -5.796245,7.64489 -9.706605,10.52338 -15.640161,11.51302 -6.851452,1.14273 -11.170032,-1.1614 -13.073016,-6.97495 -0.149318,-0.45616 -0.368856,-0.47394 -3.267255,-0.26458 -15.3160556,1.10629 -23.138288,-2.42505 -28.358068,-12.8022 -3.552198,-7.06192 -5.323893,-20.65231 -3.61358,-27.7192 2.506441,-10.35643 11.3582806,-28.76004 29.3971329,-61.11875 C 12.196946,95.576224 22.14764,78.430695 23.825697,75.803126 c 0.464674,-0.727604 1.373544,-1.918229 2.019712,-2.645833 5.547787,-6.246969 10.85866,-14.52957 11.813861,-18.424376 0.322742,-1.315964 0.173588,-1.92822 -1.377061,-5.652707 -1.993889,-4.789101 -2.59548,-19.074269 -0.942295,-22.375339 1.950958,-3.895654 7.98467,-5.436336 12.85497,-3.282459 4.74961,2.100503 11.329377,8.938512 16.478245,17.124986 l 1.123262,1.785937 l 2.715597,0 c 5.149255,0 5.773224,-0.144671 6.495415,-1.506015 3.955235,-7.455692 10.595899,-14.900176 17.032643,-19.094358 2.590557,-1.688007 3.722846,-2.019446 5.697924,-1.667866 6.29239,1.120098 9.63974,6.615542 11.14647,18.299489 0.62697,4.861883 0.33217,4.528765 4.53898,5.128922 4.90925,0.700368 8.55033,1.392846 14.15005,2.691124 2.78926,0.646684 5.45824,1.175788 5.93107,1.175788 0.47284,0 0.77505,0.08465 0.6716,0.188097 -0.10345,0.103455 1.6924,0.802166 3.9908,1.552691 12.98897,4.241462 25.68927,10.791008 34.29744,17.687195 29.85305,23.915904 46.39442,59.756168 53.73855,116.435558 2.80695,21.6631 4.38422,60.39209 3.41311,83.80677 l -0.17284,4.16718 L 137.63816,271 45.833118,271 Z m 24.23453,-5.29166 c 0.273849,-0.32742 1.727888,-2.0836 3.231195,-3.90261 27.080779,-32.76791 77.657599,-55.06103 134.993579,-59.50213 1.71997,-0.13322 3.18851,-0.30352 3.26343,-0.37844 0.16519,-0.1652 -0.56112,-8.00002 -1.18174,-12.74755 l -0.44964,-3.43958 -2.37964,0.0675 c -7.48876,0.21251 -27.91009,2.82511 -40.74421,5.21261 -32.72073,6.08695 -57.86878,15.59508 -84.407496,31.91332 -4.4078,2.71028 -5.443749,3.62038 -10.819975,9.5055 -8.184502,8.95923 -12.563758,18.81531 -14.309868,32.20618 l -0.180234,1.38223 4.191074,0.0802 c 2.30509,0.0441 5.114597,0.10673 6.243344,0.13913 1.84327,0.0529 2.102977,-0.002 2.550181,-0.53638 z m 57.885064,-0.0123 c 11.21694,-9.1126 28.59974,-18.24551 43.09866,-22.64401 11.65565,-3.53594 30.83869,-6.89345 39.50585,-6.91451 0.81793,-0.002 1.77217,-0.0799 2.12052,-0.1731 l 0.63337,-0.16949 -0.13782,-8.17285 c -0.0758,-4.49506 -0.21019,-8.2452 -0.29863,-8.33364 -0.0884,-0.0884 -2.87128,0.1052 -6.18408,0.43031 -3.31282,0.3251 -7.21392,0.70446 -8.66913,0.84302 -5.32453,0.50696 -17.08846,2.28549 -23.54792,3.56008 -29.82607,5.88533 -52.21055,18.18222 -74.33797,40.83749 l -1.312972,1.34429 l 14.191112,0 14.19111,0 z m 85.10978,-2.21169 c 0.0949,-1.55061 0.1725,-3.78303 0.1725,-4.96094 v -2.14165 l -6.15156,-0.0216 c -3.97176,-0.0139 -7.44963,-0.17802 -9.81482,-0.46302 -8.66911,-1.04461 -13.96628,-0.2984 -20.28153,2.85706 -2.2396,1.11903 -9.92487,6.14649 -10.69246,6.99467 l -0.50206,0.55478 l 23.54872,0 23.54872,0 l 0.17249,-2.81928 z M 27.516663,199.52799 c 1.678851,-0.76999 4.489109,-3.82468 8.792391,-9.55716 6.543082,-8.71615 11.827201,-13.74176 21.327018,-20.28367 16.15135,-11.12239 31.773523,-24.10337 40.87945,-33.96807 10.680008,-11.56996 14.271058,-17.94623 14.843068,-26.35539 0.24158,-3.55147 0.88199,-4.93768 2.80061,-6.06206 4.16299,-2.43968 8.11177,0.20828 8.50165,5.70102 0.0932,1.31281 0.2542,2.38692 0.3578,2.38692 0.1036,0 0.99497,-0.36573 1.98082,-0.81273 2.35838,-1.06934 9.31895,-3.35267 15.74324,-5.16437 10.30303,-2.90554 11.83362,-3.35711 15.32814,-4.52223 8.15568,-2.719215 12.81118,-5.11798 16.42332,-8.462181 1.84983,-1.712619 3.3463,-3.913656 2.98556,-4.391237 -2.6606,-3.522416 -6.84373,-8.118774 -9.13401,-10.036296 l -1.25389,-1.049825 -2.848,1.095222 c -1.5664,0.602369 -3.74096,1.433647 -4.83237,1.847284 -1.0914,0.413636 -3.29406,1.252 -4.89479,1.863034 -3.66148,1.397669 -6.1014,2.322415 -9.78958,3.710326 -3.5273,1.327367 -5.88364,2.225365 -10.02606,3.82093 -1.7308,0.66666 -3.1917,1.167307 -3.24646,1.112549 -0.0804,-0.08045 6.68037,-9.466913 16.25756,-22.571389 1.59939,-2.188438 1.62098,-2.278825 0.65298,-2.733104 -5.41336,-2.540465 -17.51697,-6.887228 -19.17756,-6.887228 -0.18603,0 -2.99325,5.311629 -6.23826,11.80362 -3.24502,6.491992 -5.97099,11.732665 -6.05771,11.645942 -0.0867,-0.08672 -1.67734,-6.241401 -3.5347,-13.677063 -1.85737,-7.435662 -3.42417,-13.566529 -3.48179,-13.624144 -0.14428,-0.144286 -3.67251,-0.648812 -5.76155,-0.823881 -4.278202,-0.358534 -5.438614,-1.99471 -5.830759,-8.221345 -0.429868,-6.825668 -1.519282,-12.503128 -2.399146,-12.503128 -0.175675,0 -1.580735,1.290604 -3.122356,2.868011 -3.87893,3.968973 -6.627609,7.883906 -9.222973,13.136248 -2.37208,4.800475 -2.099617,4.703344 -13.290522,4.738044 -11.328673,0.03513 -10.168258,0.513829 -14.375242,-5.930148 -2.363687,-3.620537 -2.955052,-4.442513 -5.326618,-7.403822 -4.760066,-5.94376 -5.009949,-6.016957 -4.837412,-1.417 0.153961,4.104693 0.669848,6.043268 2.383774,8.957625 1.382057,2.35005 1.603547,3.433587 1.232538,6.029568 -1.000009,6.997141 -5.16627,14.799309 -13.098606,24.529806 -3.131844,3.841792 -5.629389,7.800297 -12.937369,20.505208 -3.264461,5.675264 -8.82028,15.588164 -11.121695,19.843754 -0.550883,1.01864 -1.295839,2.38786 -1.655463,3.0427 -0.359622,0.65485 -1.4285256,2.67891 -2.3753397,4.49792 -0.9468142,1.81901 -1.9935879,3.78703 -2.3261612,4.37337 -0.8057807,1.42064 -7.500549,14.8091 -9.0297613,18.05808 -3.608475,7.6666 -6.4168696,14.87725 -7.0815368,18.18209 -0.226135,1.12438 0.283973,8.93784 0.7640154,11.70263 1.9572582,11.27276 5.8128768,14.57793 16.6992242,14.31513 5.5824044,-0.13477 5.2089374,0.21569 5.4039244,-5.07098 0.180488,-4.89356 0.924555,-6.93589 3.086349,-8.47146 4.501356,-3.19743 11.683834,-2.00722 13.901592,2.30363 1.448473,2.81552 0.972969,5.86663 -1.902661,12.20855 -0.989756,2.18281 -1.880888,4.26641 -1.980295,4.63021 -0.09941,0.3638 -0.238847,0.86982 -0.309867,1.12448 -0.173474,0.62203 0.757111,0.60735 2.155489,-0.034 z M 3.7952265,173.21357 C -3.1100451,170.63525 -5.035629,162.87212 -0.02723293,157.80304 8.4160053,149.2575 21.282299,161.70755 13.224744,170.6263 c -2.156346,2.38682 -6.6581948,3.62203 -9.4295175,2.58727 z M 41.274997,104.5311 C 35.050732,102.81854 33.963586,95.840715 38.507694,86.769235 43.24463,77.31281 50.165646,72.127815 55.16761,74.288183 c 5.576819,2.408647 6.064007,9.164693 1.315657,18.244785 -4.393126,8.400812 -10.570412,13.274212 -15.20827,11.998132 z m 86.386463,72.31917 c 20.39481,-1.45811 39.82477,-5.14418 66.8073,-12.67404 1.89177,-0.52793 5.40411,-1.49941 7.8052,-2.15886 2.4011,-0.65946 4.44625,-1.27743 4.54478,-1.37329 0.29638,-0.28833 -2.56642,-13.25879 -3.79467,-17.19251 -0.31976,-1.02409 0.44909,-1.06171 -7.44669,0.36436 -6.83976,1.23533 -11.35599,2.26011 -27.30238,6.19522 -26.78074,6.6087 -34.54888,7.94022 -49.87396,8.54877 l -1.45521,0.0578 -0.23187,1.05833 c -1.20063,5.47998 -3.45182,12.89915 -5.03515,16.59411 -0.23183,0.54103 -0.42152,1.06157 -0.42152,1.15677 0,0.23883 9.83246,-0.10681 16.40417,-0.57665 z m -1.05833,-36.48995 c 3.8563,-0.65703 8.97599,-1.4866 11.37708,-1.84349 2.40109,-0.3569 7.16359,-1.06522 10.58333,-1.57406 24.35604,-3.62405 34.10734,-5.99961 43.52189,-10.60254 2.18395,-1.06778 4.13351,-2.05634 4.33235,-2.19682 0.383,-0.27058 0.042,-1.42488 -1.42305,-4.81633 -3.96329,-9.17501 -6.31657,-14.02291 -6.80704,-14.02291 -0.15546,0 -1.00848,0.40585 -1.89559,0.9019 -4.73136,2.64562 -10.47181,4.34426 -27.80668,8.22819 -18.06626,4.0478 -26.83512,6.73998 -35.76951,10.9818 -2.57091,1.2206 -3.26053,1.66264 -3.36213,2.15507 -0.35214,1.70666 -0.44935,14.23891 -0.10947,14.11274 0.19105,-0.0709 3.50251,-0.66652 7.35882,-1.32355 z
" />
</svg>
