<?xml version="1.0" encoding="UTF-8" standalone="no"?>
<svg
   xmlns:dc="http://purl.org/dc/elements/1.1/"
   xmlns:cc="http://creativecommons.org/ns#"
   xmlns:rdf="http://www.w3.org/1999/02/22-rdf-syntax-ns#"
   xmlns:svg="http://www.w3.org/2000/svg"
   xmlns="http://www.w3.org/2000/svg"
   xmlns:xlink="http://www.w3.org/1999/xlink"
   xmlns:sodipodi="http://sodipodi.sourceforge.net/DTD/sodipodi-0.dtd"
   xmlns:inkscape="http://www.inkscape.org/namespaces/inkscape"
   sodipodi:docname="zebra-neck.svg"
   inkscape:version="1.0beta2 (2b71d25, 2019-12-03)"
   id="svg118"
   version="1.1"
   viewBox="0 0 210 297"
   height="297mm"
   width="210mm">
 
    <path d="

m 120.76938,225.27722 -29.557965,-35.46965 2.262676,-4.68087 c 5.789676,-11.97728 10.277519,-25.1017 12.628719,-36.93186 l 0.57283,-2.88225 -1.06503,-1.06503 -1.06504,-1.06504 -2.33268,2.09976 c -6.680899,6.01382 -13.995855,11.72119 -23.367057,18.23175 -2.692136,1.87034 -5.609167,3.90208 -6.482292,4.51497 -4.356682,3.05817 -7.624098,6.52214 -13.331496,14.13346 -6.77255,9.03179 -9.804955,11.39645 -15.680123,12.2273 -4.985687,0.70507 -7.783295,-0.42326 -9.798597,-3.95198 l -0.79107,-1.38513 -2.688939,0.16224 C 13.185475,190.23385 3.3427528,180.3379 2.1244238,161.11487 1.6617703,153.81504 2.8451496,149.75619 9.0623129,137.31875 15.512401,124.41534 36.450369,89.491622 41.048581,83.966889 44.109725,80.28894 47.740274,73.975238 48.966319,70.197562 l 0.574162,-1.769105 -0.803193,-1.935062 c -3.594542,-8.660027 -0.925558,-23.175971 4.887655,-26.582741 5.341059,-3.130069 11.313985,1.108079 18.49543,13.123613 l 2.07703,3.475152 1.825347,-0.07659 1.825349,-0.07659 1.694934,-3.292795 C 85.721911,41.059576 94.377908,33.679069 100.33654,35.33393 c 4.3257,1.201353 6.51407,6.400988 7.38872,17.555785 l 0.31861,4.063403 3.59109,0.58824 c 45.64162,7.476366 77.52583,42.133198 91.52951,99.488842 2.59795,10.64057 6.18853,31.39337 5.7912,33.4719 -0.11143,0.58287 -58.03497,70.24477 -58.40821,70.24477 -0.12106,0 -13.52119,-15.96135 -29.77808,-35.46966 z M 174.3561,215.9 l 23.60025,-28.31042 -0.15685,-1.77196 c -0.87306,-9.86303 -6.72434,-35.37407 -10.16259,-44.30798 -0.27104,-0.70426 -0.57666,-1.51292 -0.67917,-1.79702 -0.20086,-0.55666 -67.71948,66.60517 -67.56903,67.21198 0.10879,0.4388 31.00133,37.42792 31.19589,37.35234 0.0942,-0.0366 10.79136,-12.80621 23.7715,-28.37694 z m 7.94181,-87.68922 c 0,-0.43191 -4.52783,-9.66904 -5.13275,-10.4712 -0.38068,-0.50481 -2.05594,1.12715 -36.3946,35.4538 -19.79756,19.79064 -35.99556,36.07492 -35.99556,36.1873 0,0.11237 1.69091,2.23145 3.75759,4.70907 l 3.75759,4.50474 35.00386,-35.00312 c 19.25213,-19.25172 35.00387,-35.17298 35.00387,-35.38059 z M 45.291672,182.20459 c 0.745109,-0.66992 2.965355,-3.36376 4.933878,-5.98631 8.028855,-10.69639 10.720694,-13.25924 22.270283,-21.20317 26.304776,-18.09271 41.010417,-34.13929 41.010417,-44.74999 0,-4.42691 2.86186,-6.93355 6.69945,-5.86792 5.16756,1.43496 5.24129,9.85503 0.17081,19.50877 -3.17356,6.0422 -3.29575,6.14443 17.33911,-14.50701 l 18.78542,-18.800512 -0.83276,-0.716933 C 143.03276,79.003385 131.97011,73.170034 116.94583,69.46311 c -5.26409,-1.298805 -15.91531,-2.920405 -19.182205,-2.920405 -0.250013,0 -0.363567,-1.752116 -0.475838,-7.342187 -0.130611,-6.503153 -0.487322,-11.049048 -0.897937,-11.44323 -0.254897,-0.244695 -3.029368,3.021029 -4.720442,5.55625 -2.033235,3.048184 -4.23034,7.534643 -5.440293,11.109008 l -0.896821,2.649326 h -8.776568 -8.776567 l -1.50095,-2.844271 c -2.845318,-5.39183 -7.200526,-12.236979 -7.785747,-12.236979 -0.359654,0 -0.813295,3.12137 -0.813295,5.596046 0,2.694895 0.51662,4.596648 1.743673,6.418715 2.662901,3.954185 -1.370775,15.071215 -9.20913,25.380845 -4.98318,6.554277 -20.626952,32.053072 -28.189666,45.948142 -9.765791,17.94283 -11.067835,23.40316 -7.983681,33.48086 2.224257,7.26792 8.507785,10.99371 16.515627,9.79286 l 1.269058,-0.19031 -0.234725,-3.08701 c -0.459888,-6.04824 -0.175871,-7.85945 1.596914,-10.18369 2.405342,-3.15356 8.79336,-3.40182 11.738974,-0.45621 2.887215,2.88722 2.873126,6.05341 -0.0601,13.50396 -2.399014,6.09365 -2.354868,6.5096 0.425556,4.00976 z 

M 21.578843,156.9 c -5.451874,-1.94214 -4.54206,-9.72376 1.185324,-10.13804 4.913842,-0.35543 7.575166,5.34284 4.112519,8.80549 -1.572744,1.57274 -3.360969,2.02253 -5.297843,1.33255 z 

m 33.536406,-48.65181 c -5.479783,-2.61806 -4.967415,-12.172078 0.975034,-18.181248 6.460699,-6.53324 14.180764,-4.205856 14.120754,4.257014 -0.06162,8.690114 -8.929859,16.870114 -15.095788,13.924234 z 

M 170.7414,107.29661 c -0.84889,-1.32557 -4.8073,-6.51569 -5.85815,-7.680987 l -1.07369,-1.190625 -23.1376,23.120792 -23.13759,23.12079 -0.83662,4.39588 c -0.86944,4.56832 -2.41694,10.98289 -3.57707,14.8274 -0.37002,1.22619 -0.67277,2.35708 -0.67277,2.51309 0,0.15601 13.21251,-12.92845 29.36113,-29.07658 l 29.36113,-29.36023 z
"/>
</svg>
