<?xml version="1.0" encoding="iso-8859-1"?>
<!-- Generator: Adobe Illustrator 18.1.1, SVG Export Plug-In . SVG Version: 6.00 Build 0)  -->
<svg version="1.1" id="Capa_1" xmlns="http://www.w3.org/2000/svg" xmlns:xlink="http://www.w3.org/1999/xlink" x="0px" y="0px"
	 viewBox="0 0 611.999 611.999" style="enable-background:new 0 0 611.999 611.999;" xml:space="preserve">
<g>
	<g>
		<path d="M605.176,182.723c-6.856-6.565-17.145-7.994-25.563-3.556l-103.124,54.61l-18.909-55.96
			c-2.109-6.247-6.9-11.224-13.068-13.562c-6.15-2.338-13.05-1.8-18.777,1.474l-57.708,32.992l-41.886-93.93
			c-3.547-7.95-11.444-13.068-20.145-13.068c-8.7,0-16.598,5.118-20.145,13.068l-41.887,93.929l-57.708-32.992
			c-5.727-3.274-12.627-3.812-18.777-1.474c-6.168,2.338-10.959,7.315-13.068,13.562l-18.909,55.96l-103.124-54.61
			c-8.4-4.438-18.706-3.009-25.571,3.556c-6.865,6.574-8.753,16.8-4.677,25.386l141.975,299.559
			c3.644,7.703,11.409,12.609,19.933,12.609h283.941c8.524,0,16.289-4.915,19.933-12.609l141.966-299.559
			C613.938,199.514,612.058,189.287,605.176,182.723z M424.367,217.329l12.636,37.36l-35.604,18.848l-15.309-34.325L424.367,217.329
			z M187.625,217.329l38.278,21.892l-15.318,34.316l-35.595-18.848L187.625,217.329z M455.763,430.274H156.239L70.445,249.245
			l140.351,74.332c5.391,2.859,11.718,3.353,17.515,1.359c5.771-1.994,10.465-6.291,12.953-11.868l64.731-145.134l64.731,145.134
			c2.488,5.577,7.174,9.874,12.953,11.868s12.115,1.5,17.515-1.359l140.351-74.332L455.763,430.274z"/>
	</g>
	<g>
	</g>
	<g>
	</g>
	<g>
	</g>
	<g>
	</g>
	<g>
	</g>
	<g>
	</g>
	<g>
	</g>
	<g>
	</g>
	<g>
	</g>
	<g>
	</g>
	<g>
	</g>
	<g>
	</g>
	<g>
	</g>
	<g>
	</g>
	<g>
	</g>
</g>
<g>
</g>
<g>
</g>
<g>
</g>
<g>
</g>
<g>
</g>
<g>
</g>
<g>
</g>
<g>
</g>
<g>
</g>
<g>
</g>
<g>
</g>
<g>
</g>
<g>
</g>
<g>
</g>
<g>
</g>
</svg>
